<?xml version="1.0" encoding="utf-8"?>
<!-- Generator: Adobe Illustrator 16.0.0, SVG Export Plug-In . SVG Version: 6.00 Build 0)  -->
<!DOCTYPE svg PUBLIC "-//W3C//DTD SVG 1.1//EN" "http://www.w3.org/Graphics/SVG/1.1/DTD/svg11.dtd">
<svg version="1.1" id="Layer_1" xmlns="http://www.w3.org/2000/svg" xmlns:xlink="http://www.w3.org/1999/xlink" x="0px" y="0px"
	 width="60px" height="60px" viewBox="0 0 60 60" enable-background="new 0 0 60 60" xml:space="preserve">
<g>
	<path fill="#00AEEF" d="M44.711,29.23l-4.475-4.445c-0.426-0.422-0.293-0.874,0.295-1.005c0,0,0.484-0.109,1.082-0.703
		c1.283-1.273,1.281-3.341,0-4.613c-1.283-1.274-3.362-1.274-4.646,0c-0.598,0.594-0.707,1.075-0.707,1.075
		c-0.132,0.584-0.587,0.715-1.013,0.292l-4.476-4.441c-0.425-0.423-1.124-0.423-1.547,0l-4.474,4.442
		c-0.425,0.424-0.293,0.877,0.294,1.008c0,0,0.486,0.108,1.083,0.701c1.281,1.273,1.283,3.341,0,4.615
		c-1.282,1.273-3.364,1.271-4.646,0c-0.597-0.594-0.707-1.076-0.707-1.076c-0.132-0.583-0.589-0.715-1.014-0.292l-4.475,4.444
		c-0.425,0.422-0.425,1.114,0,1.538l4.475,4.441c0.425,0.424,0.293,0.876-0.294,1.008c0,0-0.485,0.109-1.083,0.702
		c-1.283,1.274-1.283,3.34,0,4.614c1.282,1.273,3.362,1.273,4.646,0c0.598-0.594,0.707-1.075,0.707-1.075
		c0.132-0.585,0.588-0.715,1.014-0.291l4.474,4.442c0.425,0.423,1.123,0.423,1.547,0l4.476-4.443
		c0.426-0.422,0.292-0.877-0.294-1.008c0,0-0.486-0.108-1.084-0.7c-1.283-1.274-1.282-3.341,0-4.615
		c1.283-1.272,3.363-1.274,4.646,0c0.598,0.595,0.705,1.076,0.705,1.076c0.133,0.584,0.59,0.716,1.016,0.293l4.475-4.444
		C45.137,30.346,45.137,29.653,44.711,29.23z"/>
</g>
<circle fill="#00C800" cx="30.605" cy="30" r="24.121"/>
<rect x="32.589" y="14.635" transform="matrix(0.7072 0.7071 -0.7071 0.7072 31.4934 -16.04)" fill="#FFFFFF" width="5.043" height="30.728"/>
<rect x="19.721" y="27.6" transform="matrix(0.707 -0.7072 0.7072 0.707 -18.4966 26.0932)" fill="#FFFFFF" width="5.043" height="15.539"/>
</svg>
