<?xml version="1.0" encoding="utf-8"?>
<!-- Generator: Adobe Illustrator 16.0.0, SVG Export Plug-In . SVG Version: 6.00 Build 0)  -->
<!DOCTYPE svg PUBLIC "-//W3C//DTD SVG 1.1//EN" "http://www.w3.org/Graphics/SVG/1.1/DTD/svg11.dtd">
<svg version="1.1"
	 id="svg2" xmlns:dc="http://purl.org/dc/elements/1.1/" xmlns:cc="http://creativecommons.org/ns#" xmlns:rdf="http://www.w3.org/1999/02/22-rdf-syntax-ns#" xmlns:svg="http://www.w3.org/2000/svg" xmlns:sodipodi="http://sodipodi.sourceforge.net/DTD/sodipodi-0.dtd" xmlns:inkscape="http://www.inkscape.org/namespaces/inkscape" sodipodi:docname="Penny&apos;s Eye.svg" inkscape:version="0.2 r11981"
	 xmlns="http://www.w3.org/2000/svg" xmlns:xlink="http://www.w3.org/1999/xlink" x="0px" y="0px" width="328px" height="311px"
	 viewBox="0 0 328 311" enable-background="new 0 0 328 311" xml:space="preserve">
<path fill="#C6AC63" stroke="#000000" stroke-miterlimit="10" d="M258.667,152.596c-4.427-4.931-1.142-15.102,7.337-22.721
	l34.734-31.197c8.481-7.618,18.947-9.795,23.374-4.865l3.917,4.361c4.429,4.932,1.144,15.102-7.338,22.72l-34.733,31.198
	c-8.48,7.615-18.946,9.797-23.375,4.864L258.667,152.596z"/>
<path fill="#C6AC63" stroke="#000000" stroke-miterlimit="10" d="M82.584,161.543c-1.291,6.5-11.402,9.969-22.583,7.751
	l-45.793-9.095c-11.182-2.221-19.199-9.29-17.908-15.791l1.142-5.748c1.292-6.501,11.401-9.97,22.583-7.75l45.793,9.094
	c11.18,2.22,19.199,9.29,17.908,15.791L82.584,161.543z"/>
<ellipse fill="#C6AC63" stroke="#000000" stroke-miterlimit="10" cx="252.47" cy="155.5" rx="18.618" ry="19.933"/>
<ellipse fill="#C6AC63" stroke="#000000" stroke-miterlimit="10" cx="88.807" cy="159.866" rx="18.618" ry="19.933"/>
<sodipodi:namedview  showgrid="false" inkscape:cy="591.57831" inkscape:cx="372.04724" inkscape:zoom="0.98994949" borderopacity="1.0" bordercolor="#666666" pagecolor="#ffffff" id="base" inkscape:window-maximized="1" inkscape:current-layer="layer6" inkscape:window-x="-4" inkscape:pageshadow="2" inkscape:pageopacity="0.0" inkscape:document-units="px" inkscape:window-height="994" inkscape:window-y="-4" inkscape:window-width="1680">
	</sodipodi:namedview>
<g id="layer1" inkscape:label="Layer 1" inkscape:groupmode="layer" display="none">
</g>
<ellipse fill="#C6AC63" stroke="#000000" stroke-miterlimit="10" cx="166.156" cy="71.497" rx="38.268" ry="48.883"/>
<path fill="#C6AC63" stroke="#000000" stroke-miterlimit="10" d="M193.81,127.933c0,6.627-5.373,12-12,12h-27.144
	c-6.627,0-12-5.373-12-12v-5.86c0-6.627,5.373-12,12-12h27.144c6.627,0,12,5.373,12,12V127.933z"/>
<path fill="#C6AC63" stroke="#000000" stroke-miterlimit="10" d="M227.889,257.811c0,6.627-16.837,10.614-23.464,10.614h-61.759
	c-6.627,0-22.599-5.664-22.599-12.291l-18.994-104.201c0-6.627,5.373-12,12-12H231.53c6.627,0,12,5.373,12,12L227.889,257.811z"/>
<path fill="#C6AC63" stroke="#000000" stroke-miterlimit="10" d="M216.167,287.978c0,6.627,0.831,10.309-12.6,10.309h-55.015
	c-13.433,0-13.401-4.799-13.401-11.426l0.559-8.38c0-6.628-0.59-10.055,12.843-10.055h55.015c13.431,0,12.589,2.868,12.589,9.496
	L216.167,287.978z"/>
</svg>
