<?xml version="1.0" encoding="utf-8"?>
<!-- Generator: Adobe Illustrator 16.0.0, SVG Export Plug-In . SVG Version: 6.00 Build 0)  -->
<!DOCTYPE svg PUBLIC "-//W3C//DTD SVG 1.1//EN" "http://www.w3.org/Graphics/SVG/1.1/DTD/svg11.dtd">
<svg version="1.1" id="Layer_4" xmlns="http://www.w3.org/2000/svg" xmlns:xlink="http://www.w3.org/1999/xlink" x="0px" y="0px"
	 width="864px" height="864px" viewBox="0 0 864 864" enable-background="new 0 0 864 864" xml:space="preserve">
<path d="M526.76,66.617c-80.936-20.398-67.22,51.101-45.287,64.159c21.451,12.769,202.712,52.241,236.975,309.526
	c38.815,291.426-413.359,489.674-559.05,170.843C28.834,325.438,345.499,163.137,513.623,297.322
	c132.879,106.07,63.764,328.96-78.849,340.72c-206.763,17.04-172.307-163.063-162.029-195.915
	c17.171-54.846,108.332-95.739,164.283-40.542c30.527,30.106,17.092,84.697-8.542,99.378c4.017-7.963,6.288-16.943,6.288-26.467
	c0-32.535-26.371-58.906-58.906-58.906c-30.799,0-56.064,23.644-58.669,53.768c-11.427,23.914-0.307,127.818,100.693,115.865
	c139.666-16.54,166.414-177.455,41.322-260.864c-90.45-60.309-263.195,3.209-271.79,148.506
	c-8.594,145.296,103.448,279.534,289.093,231.678c228.82-58.977,254.9-449.57-8.689-517.079
	C174.139,112.255,51.714,367.094,58.432,501.63c5.525,110.498,64.606,340.58,339.063,341.457
	c216.778,0.684,361.583-133.896,387.875-330.724C818.799,262.129,600.855,85.288,526.76,66.617z"/>
</svg>
