<?xml version="1.0" encoding="utf-8"?>
<!-- Generator: Adobe Illustrator 16.0.0, SVG Export Plug-In . SVG Version: 6.00 Build 0)  -->
<!DOCTYPE svg PUBLIC "-//W3C//DTD SVG 1.1//EN" "http://www.w3.org/Graphics/SVG/1.1/DTD/svg11.dtd">
<svg version="1.1"
	 id="svg2" xmlns:dc="http://purl.org/dc/elements/1.1/" xmlns:cc="http://creativecommons.org/ns#" xmlns:rdf="http://www.w3.org/1999/02/22-rdf-syntax-ns#" xmlns:svg="http://www.w3.org/2000/svg" xmlns:sodipodi="http://sodipodi.sourceforge.net/DTD/sodipodi-0.dtd" xmlns:inkscape="http://www.inkscape.org/namespaces/inkscape" sodipodi:docname="Penny&apos;s Eye.svg" inkscape:version="0.2 r11981"
	 xmlns="http://www.w3.org/2000/svg" xmlns:xlink="http://www.w3.org/1999/xlink" x="0px" y="0px" width="328px" height="311px"
	 viewBox="0 0 328 311" enable-background="new 0 0 328 311" xml:space="preserve">
<polyline fill="#FFFFFF" points="238.311,113.412 94.177,113.412 166.803,156.123 "/>
<polyline fill="#FFFFFF" points="238.751,198.211 94.617,198.211 167.243,155.5 "/>
<rect x="91.927" y="194.162" fill="#FFFFFF" width="150.632" height="79.427"/>
<rect x="94.617" y="37.698" fill="#FFFFFF" width="150.632" height="79.427"/>
<sodipodi:namedview  showgrid="false" inkscape:cy="591.57831" inkscape:cx="372.04724" inkscape:zoom="0.98994949" borderopacity="1.0" bordercolor="#666666" pagecolor="#ffffff" id="base" inkscape:window-maximized="1" inkscape:current-layer="layer6" inkscape:window-x="-4" inkscape:pageshadow="2" inkscape:pageopacity="0.0" inkscape:document-units="px" inkscape:window-height="994" inkscape:window-y="-4" inkscape:window-width="1680">
	</sodipodi:namedview>
<g id="layer1" inkscape:label="Layer 1" inkscape:groupmode="layer" display="none">
</g>
<rect x="67.243" y="5.296" width="200" height="37.989"/>
<rect x="86.237" y="16.469" fill="#FFFFFF" width="162.012" height="15.643"/>
<rect x="67.243" y="268.198" width="200" height="37.99"/>
<rect x="86.237" y="279.372" fill="#FFFFFF" width="162.011" height="15.643"/>
<rect x="83.237" y="58.936" width="15.291" height="15.642"/>
<rect x="83.237" y="74.578" width="15.29" height="15.643"/>
<rect x="83.237" y="90.22" width="15.29" height="15.643"/>
<rect x="83.237" y="105.862" width="15.29" height="15.643"/>
<rect x="98.528" y="113.683" width="15.29" height="15.643"/>
<rect x="113.818" y="121.503" width="15.29" height="15.643"/>
<rect x="129.109" y="132.768" width="15.29" height="15.643"/>
<rect x="235.624" y="58.936" width="15.291" height="15.642"/>
<rect x="235.625" y="74.578" width="15.29" height="15.643"/>
<rect x="235.625" y="90.22" width="15.29" height="15.643"/>
<rect x="235.625" y="105.861" width="15.29" height="15.643"/>
<rect x="220.334" y="113.683" width="15.29" height="15.643"/>
<rect x="205.044" y="121.504" width="15.29" height="15.643"/>
<rect x="189.754" y="132.768" width="15.289" height="15.643"/>
<rect x="144.399" y="140.589" width="15.29" height="15.643"/>
<rect x="174.399" y="140.588" width="15.29" height="15.642"/>
<rect x="83.404" y="237.317" width="15.291" height="15.642"/>
<rect x="83.404" y="221.675" width="15.29" height="15.643"/>
<rect x="83.404" y="206.032" width="15.29" height="15.643"/>
<rect x="83.404" y="190.391" width="15.29" height="15.642"/>
<rect x="98.694" y="182.569" width="15.29" height="15.643"/>
<rect x="113.985" y="174.748" width="15.29" height="15.643"/>
<rect x="129.275" y="163.484" width="15.29" height="15.643"/>
<rect x="235.791" y="237.317" width="15.291" height="15.642"/>
<rect x="235.791" y="221.675" width="15.291" height="15.643"/>
<rect x="235.791" y="206.032" width="15.291" height="15.643"/>
<rect x="235.791" y="190.391" width="15.291" height="15.643"/>
<rect x="220.5" y="182.569" width="15.291" height="15.643"/>
<rect x="205.211" y="174.748" width="15.289" height="15.643"/>
<rect x="189.92" y="163.484" width="15.289" height="15.643"/>
<rect x="144.566" y="155.663" width="15.29" height="15.643"/>
<rect x="174.566" y="155.664" width="15.289" height="15.643"/>
<rect x="159.598" y="124.946" width="15.291" height="15.643"/>
<rect x="144.399" y="109.304" width="15.29" height="15.643"/>
<rect x="174.4" y="109.304" width="15.29" height="15.643"/>
<rect x="159.598" y="93.661" width="15.29" height="15.643"/>
<rect x="129.109" y="93.661" width="15.29" height="15.643"/>
<rect x="189.754" y="93.661" width="15.29" height="15.643"/>
<rect x="159.598" y="186.948" width="15.29" height="15.643"/>
<rect x="159.598" y="218.233" width="15.29" height="15.643"/>
<rect x="144.399" y="233.876" width="15.29" height="15.643"/>
<rect x="174.566" y="233.876" width="15.29" height="15.643"/>
<rect x="83.404" y="252.556" width="15.29" height="15.643"/>
<rect x="83.237" y="43.285" width="15.29" height="15.643"/>
<rect x="113.818" y="78.019" width="15.29" height="15.643"/>
<rect x="235.625" y="252.556" width="15.29" height="15.643"/>
<rect x="235.625" y="43.285" width="15.29" height="15.643"/>
<rect x="159.598" y="249.519" width="15.29" height="15.643"/>
<rect x="129.109" y="249.519" width="15.29" height="15.643"/>
<rect x="189.754" y="249.519" width="15.29" height="15.643"/>
<rect x="144.399" y="78.019" width="15.29" height="15.643"/>
<rect x="174.566" y="78.019" width="15.29" height="15.643"/>
<rect x="205.044" y="78.019" width="15.29" height="15.643"/>
</svg>
