<?xml version="1.0" encoding="utf-8"?>
<!-- Generator: Adobe Illustrator 16.0.0, SVG Export Plug-In . SVG Version: 6.00 Build 0)  -->
<!DOCTYPE svg PUBLIC "-//W3C//DTD SVG 1.1//EN" "http://www.w3.org/Graphics/SVG/1.1/DTD/svg11.dtd">
<svg version="1.1" id="Capa_1" xmlns="http://www.w3.org/2000/svg" xmlns:xlink="http://www.w3.org/1999/xlink" x="0px" y="0px"
	 width="612px" height="792px" viewBox="0 0 612 792" enable-background="new 0 0 612 792" xml:space="preserve">
<g>
	<path d="M71.144,404.687c-0.538,0-1.094-0.052-1.632-0.156c-2.256-0.434-4.252-1.753-5.554-3.645L1.493,308.897
		c-2.673-3.975-1.666-9.373,2.309-12.063c3.957-2.656,9.372-1.649,12.063,2.308l142.374,27.215
		c3.957-2.656,9.338-1.649,12.063,2.309c2.673,3.974,1.667,9.372-2.308,12.063l-91.989,62.483
		C74.563,404.184,72.862,404.687,71.144,404.687z"/>
	<path d="M337.232,670.759c-91.433,0-176.6-45.282-227.836-121.13c-2.69-3.975-1.648-9.372,2.326-12.045
		c3.957-2.69,9.355-1.649,12.045,2.325c48.008,71.074,127.794,113.493,213.465,113.493c141.939,0,257.411-115.472,257.411-257.411
		S479.172,138.58,337.232,138.58S79.822,254.069,79.822,395.991c0,4.79-3.888,8.679-8.678,8.679c-4.791,0-8.678-3.889-8.678-8.679
		c0-151.503,123.264-274.767,274.767-274.767S612,244.488,612,395.991S488.735,670.759,337.232,670.759z"/>
	<g>
		<path d="M485.576,397.824l-45.704-45.405c-4.354-4.32-2.999-8.936,2.999-10.278c0,0,4.954-1.11,11.061-7.172
			c13.112-13.012,13.099-34.135,0-47.126c-13.112-13.018-34.344-13.018-47.468,0c-6.093,6.061-7.209,10.978-7.209,10.978
			c-1.354,5.972-6.009,7.309-10.352,2.979l-45.715-45.37c-4.344-4.324-11.47-4.324-15.817,0l-45.701,45.382
			c-4.343,4.331-2.996,8.959,3.002,10.296c0,0,4.964,1.107,11.063,7.16c13.086,13.009,13.106,34.124,0,47.145
			c-13.1,13.012-34.371,12.997-47.459,0c-6.099-6.07-7.214-10.99-7.214-10.99c-1.346-5.965-6.014-7.303-10.361-2.984l-45.705,45.393
			c-4.347,4.318-4.347,11.39,0,15.702l45.705,45.39c4.348,4.326,2.996,8.948-3.006,10.294c0,0-4.957,1.12-11.06,7.173
			c-13.108,13.02-13.108,34.12,0,47.13c13.1,13.008,34.35,13.021,47.457,0c6.11-6.065,7.217-10.975,7.217-10.975
			c1.352-5.979,6.012-7.314,10.354-2.978l45.707,45.38c4.348,4.323,11.474,4.323,15.817,0l45.715-45.392
			c4.354-4.312,2.985-8.959-2.999-10.293c0,0-4.968-1.108-11.072-7.159c-13.111-13.022-13.1-34.12,0-47.144
			c13.099-13.009,34.354-13.021,47.455,0c6.105,6.065,7.209,10.997,7.209,10.997c1.367,5.97,6.021,7.314,10.376,2.991l45.704-45.404
			C489.918,409.208,489.918,402.142,485.576,397.824z"/>
	</g>
</g>
</svg>
