<?xml version="1.0" encoding="utf-8"?>
<!-- Generator: Adobe Illustrator 16.0.0, SVG Export Plug-In . SVG Version: 6.00 Build 0)  -->
<!DOCTYPE svg PUBLIC "-//W3C//DTD SVG 1.1//EN" "http://www.w3.org/Graphics/SVG/1.1/DTD/svg11.dtd">
<svg version="1.1" id="Layer_1" xmlns="http://www.w3.org/2000/svg" xmlns:xlink="http://www.w3.org/1999/xlink" x="0px" y="0px"
	 width="60px" height="60px" viewBox="0 0 60 60" enable-background="new 0 0 60 60" xml:space="preserve">
<circle fill="#FFFFFF" cx="30" cy="30" r="30"/>
<path fill="#00AEEF" d="M8.264,26.113c-0.049-0.012-0.098-0.029-0.146-0.05c-0.198-0.09-0.352-0.254-0.428-0.456L3.986,15.81
	c-0.157-0.423,0.054-0.896,0.477-1.055c0.42-0.155,0.839-0.132,1.155,0.135l12.447,5.665c0.495,0.106,0.788,0.348,0.95,0.77
	c0.157,0.423-0.053,0.895-0.476,1.054l-9.797,3.705C8.588,26.142,8.422,26.15,8.264,26.113z"/>
<path fill="#00AEEF" d="M30.134,5.879c-8.938,0-16.735,4.866-20.902,12.089l3.371,1.957c3.492-6.063,10.033-10.147,17.531-10.147
	c11.169,0,20.223,9.054,20.223,20.223c0,11.169-9.054,20.223-20.223,20.223c-7.47,0-13.989-4.054-17.491-10.077l-3.38,1.941
	c4.175,7.192,11.956,12.034,20.871,12.034c13.322,0,24.121-10.799,24.121-24.121C54.255,16.679,43.456,5.879,30.134,5.879z"/>
<g>
	<path fill="#00AEEF" d="M44.711,29.23l-4.474-4.445c-0.426-0.422-0.294-0.874,0.294-1.005c0,0,0.484-0.109,1.082-0.703
		c1.283-1.273,1.282-3.341,0-4.613c-1.283-1.274-3.362-1.274-4.646,0c-0.598,0.594-0.707,1.075-0.707,1.075
		c-0.132,0.584-0.587,0.715-1.013,0.292l-4.476-4.441c-0.425-0.423-1.123-0.423-1.547,0l-4.474,4.442
		c-0.425,0.424-0.293,0.877,0.294,1.008c0,0,0.486,0.108,1.083,0.701c1.281,1.273,1.283,3.341,0,4.615
		c-1.282,1.273-3.364,1.272-4.646,0c-0.597-0.594-0.707-1.076-0.707-1.076c-0.132-0.583-0.589-0.715-1.014-0.292l-4.475,4.444
		c-0.425,0.422-0.425,1.114,0,1.537l4.475,4.442c0.425,0.424,0.293,0.876-0.294,1.008c0,0-0.485,0.109-1.083,0.702
		c-1.283,1.274-1.283,3.34,0,4.614c1.282,1.273,3.362,1.274,4.646,0c0.598-0.594,0.707-1.075,0.707-1.075
		c0.132-0.585,0.588-0.715,1.014-0.291l4.474,4.442c0.425,0.423,1.123,0.423,1.547,0l4.476-4.443
		c0.426-0.422,0.292-0.877-0.294-1.008c0,0-0.486-0.108-1.084-0.7c-1.283-1.275-1.282-3.341,0-4.615
		c1.283-1.273,3.363-1.274,4.646,0c0.598,0.594,0.706,1.076,0.706,1.076c0.133,0.584,0.589,0.716,1.016,0.293l4.474-4.444
		C45.137,30.346,45.137,29.653,44.711,29.23z"/>
</g>
</svg>
