<?xml version="1.0" encoding="utf-8"?>
<!-- Generator: Adobe Illustrator 16.0.0, SVG Export Plug-In . SVG Version: 6.00 Build 0)  -->
<!DOCTYPE svg PUBLIC "-//W3C//DTD SVG 1.1//EN" "http://www.w3.org/Graphics/SVG/1.1/DTD/svg11.dtd">
<svg version="1.1" id="Layer_1" xmlns="http://www.w3.org/2000/svg" xmlns:xlink="http://www.w3.org/1999/xlink" x="0px" y="0px"
	 width="207.512px" height="92.93px" viewBox="0 0 207.512 92.93" enable-background="new 0 0 207.512 92.93" xml:space="preserve">
<g>
	<g>
		<g>
			
				<linearGradient id="SVGID_1_" gradientUnits="userSpaceOnUse" x1="-4.21" y1="-94.1152" x2="16.3525" y2="-94.1152" gradientTransform="matrix(0.9856 -0.1692 0.1692 0.9856 23.8241 127.5622)">
				<stop  offset="0" style="stop-color:#7E7F81"/>
				<stop  offset="0.7403" style="stop-color:#9D9E9B"/>
				<stop  offset="1" style="stop-color:#ACADA7"/>
			</linearGradient>
			<path fill="url(#SVGID_1_)" d="M22.708,25.854c-0.481,0.082-9.813,2.8-9.813,2.8s-4.862,0.491-6.388,1.097
				c-2.207,0.875-3.474,2.834-2.685,6.042c0.82,3.332,2.922,5.453,6.195,5.015c3.759-0.502,9.377-1.732,11.402-2.949
				c2.023-1.216,1.958-2.322,1.958-2.322l0.957-1.651l-1.577-6.305L22.708,25.854z"/>
			<path fill="#32394B" d="M7.58,30.287c-1.748,0.381-4.063,2.085-2.981,5.497c1.081,3.412,3.043,4.191,4.71,3.781
				c1.665-0.41,3.901-2.639,3.33-4.524c-0.572-1.887-2.31-4.706-2.933-4.722C9.083,30.3,7.58,30.287,7.58,30.287z"/>
			
				<linearGradient id="SVGID_2_" gradientUnits="userSpaceOnUse" x1="6.4409" y1="-88.6587" x2="6.6767" y2="-96.1997" gradientTransform="matrix(0.9856 -0.1692 0.1692 0.9856 23.8241 127.5622)">
				<stop  offset="0" style="stop-color:#E9E8E9"/>
				<stop  offset="0.4921" style="stop-color:#ECEBEA"/>
				<stop  offset="0.8471" style="stop-color:#F6F4EF"/>
				<stop  offset="1" style="stop-color:#FFFEF4"/>
			</linearGradient>
			<path fill="url(#SVGID_2_)" d="M21.989,26.721c-0.582,0.224-6.279,2.443-5.798,2.359c0.482-0.083,4.827,0.661,4.827,0.661
				s0.802,3.955-0.056,5.466c-0.855,1.513-3.778,3.998-6.748,4.757c-2.971,0.757-5.886,1.133-7.819-0.023
				c0,0,4.87,1.018,5.271-3.144c0.402-4.164-2.369-7.249-4.759-6.714c-1.609,1.125-1.282,0.313-1.282,0.313
				s-0.128-1.465,7.269-1.743c3.672-1.003,9.352-2.599,9.352-2.599"/>
		</g>
		
			<linearGradient id="SVGID_3_" gradientUnits="userSpaceOnUse" x1="-0.1802" y1="-98.9453" x2="31.8669" y2="-100.3592" gradientTransform="matrix(0.9856 -0.1692 0.1692 0.9856 23.8241 127.5622)">
			<stop  offset="0" style="stop-color:#E9E8E9"/>
			<stop  offset="0.4921" style="stop-color:#ECEBEA"/>
			<stop  offset="0.8471" style="stop-color:#F6F4EF"/>
			<stop  offset="1" style="stop-color:#FFFEF4"/>
		</linearGradient>
		<path fill="url(#SVGID_3_)" d="M51.454,42.696L36.678,25.263l1.624-0.652c0,0-15.063-18.377-15.89-18.856
			c-0.825-0.479,0.496-1.449-2.737-0.77C16.445,5.664,14.5,6.618,14.5,6.618l0.508,1.525l-1.683,1.032l6.68,17.957l1.183-0.327
			l0.711,1.242l-1.446,0.249l0.411,1.666l5.145,12.637l1.326-0.227l2.384,2.32L51.454,42.696z"/>
		<path fill="#DCE2E4" d="M15.427,7.698c0,0,17.082,36.639,17.706,36.655c0.621,0.018,15.047-1.219,15.047-1.219
			S21.605,8.995,21.161,8.575C20.715,8.155,15.427,7.698,15.427,7.698z"/>
	</g>
	
		<linearGradient id="SVGID_4_" gradientUnits="userSpaceOnUse" x1="91.7212" y1="-71.1616" x2="88.1865" y2="-41.117" gradientTransform="matrix(0.9856 -0.1692 0.1692 0.9856 23.8241 127.5622)">
		<stop  offset="0" style="stop-color:#BEBFC1"/>
		<stop  offset="0.2935" style="stop-color:#CFCFCC"/>
		<stop  offset="0.5" style="stop-color:#DEDED5"/>
		<stop  offset="0.8654" style="stop-color:#C7C8C7"/>
		<stop  offset="1" style="stop-color:#BEBFC1"/>
	</linearGradient>
	<path fill="url(#SVGID_4_)" d="M2.524,67.984c0,0-4.551-3.523-1.431-7.287c3.119-3.763,9.522-13.469,24.564-15.693
		c4.875-0.835,30.03-2.643,43.771-3.03c13.743-0.386,43.898-1.258,47.704-1.016c3.809,0.244,4.445-0.224,6.01-1.568
		c1.563-1.344,31.841-37.026,33.287-37.992c1.449-0.966,1.36-1.489,3.889-1.385c2.528,0.104,5.813,0.438,5.813,0.438l-22.278,43.635
		l6.863,1.331c0,0-0.422,2.765-1.258,4.161c8.694,1.555,39.411,8.119,39.672,8.611c0.266,0.494,0.5,0.813-3.83,0.658
		c-4.329-0.152-43.664-4.698-43.664-4.698s-21.83,10.74-27.925,11.785c-6.095,1.048-11.378,2.671-12.075,2.791
		c-0.696,0.12,100.764,11.397,102.596,11.621c1.832,0.222,3.28-0.743,3.28-0.743s-0.723,1.02-2.78,1.554
		c-2.064,0.532-8.92,0.276-9.558,0.743c-0.637,0.468-2.205,0.736-2.665,1.175c-0.463,0.438-40.751-2.331-40.751-2.331l-5.957-0.23
		c0.141-1.281,0.687-2.272,0.687-2.272l-2.526-0.104l-7.574,2.916c0,0,5.324,0.699,5.792,1.335c1.05,0.897,2.141,4.115,0.182,7.322
		c-8.125,2.829-12.827,3.636-14.545,3.034c-1.718-0.601,1.281,0.139,2.598-3.673c1.319-3.813-1.892-6.849-4.505-6.399
		c-2.259,1.464-3.074,0.886,1.563-1.346c1.681-0.646,2.726-0.827,4.732-0.632c2.956-1.585,2.956-1.585,2.956-1.585l-25.872-2.373
		c0,0-2.563-1.352-4.337-1.228c-1.771,0.124-4.527,0.776-4.503-0.123c0.025-0.901,0.025-0.901,0.025-0.901S99.795,72.627,98,73.652
		c-1.797,1.025-4.321,1.996-4.321,1.996l4.715,1.344c0,0,3.217,4.111,0.385,7.467c-5.245,2.871-10.934,4.208-13.93,3.466
		c-2.997-0.74-3.674-2.596-3.674-2.596s4.026,3.612,5.748-0.985c1.721-4.601-2.449-8.01-4.77-6.895
		c-2.319,1.113-2.333,4.167-2.333,4.167s-1.385-3.888,4.653-5.282c5.193-1.072,8.56-2.367,8.56-2.367s-2.186-1.237-4.479-1.023
		c-2.296,0.214-6.734,1.514-19.436,0.646c-12.704-0.868-24.364-2.992-29.565-2.996C33.224,71.322,8.88,72.63,2.524,67.984z"/>
	
		<linearGradient id="SVGID_5_" gradientUnits="userSpaceOnUse" x1="62.7227" y1="-76.1167" x2="59.4244" y2="-41.7187" gradientTransform="matrix(0.9856 -0.1692 0.1692 0.9856 23.8241 127.5622)">
		<stop  offset="0" style="stop-color:#E9E8E9"/>
		<stop  offset="0.2656" style="stop-color:#E6E5E6"/>
		<stop  offset="0.4573" style="stop-color:#DCDCDC"/>
		<stop  offset="0.6259" style="stop-color:#CDCCCD"/>
		<stop  offset="0.7811" style="stop-color:#B9B8BA"/>
		<stop  offset="0.9259" style="stop-color:#A0A1A3"/>
		<stop  offset="1" style="stop-color:#929497"/>
	</linearGradient>
	<path opacity="0.81" fill="url(#SVGID_5_)" d="M0.803,61.107c0,0-2.317,1.114,3.764,3.119c6.085,2.004,9.388,0.359,17.629-1.771
		s20.476-1.898,29.723-0.26c9.248,1.641,12.121,0.609,29.431-0.928c17.309-1.535,53.193-7.695,63.143-11.375
		c2.552-0.795,3.74-1.181,2.383,0.309c-1.357,1.488-22.604,12.488-32.206,15.033c-9.782,2.574-19.471,5.672-19.471,5.672
		s-7.626,3.639-24.134,2.527c-16.509-1.107-26.688-2.95-33.775-2.45c-7.088,0.499-19.928,0.911-28.51-1.024
		C0.2,68.023-0.543,64.744,0.803,61.107z"/>
	
		<linearGradient id="SVGID_6_" gradientUnits="userSpaceOnUse" x1="70.9751" y1="-35.6089" x2="81.5132" y2="-38.0541" gradientTransform="matrix(0.976 -0.2175 0.2175 0.976 23.9282 133.2293)">
		<stop  offset="0" style="stop-color:#555557"/>
		<stop  offset="0.4603" style="stop-color:#767574"/>
		<stop  offset="1" style="stop-color:#ACADA7"/>
	</linearGradient>
	<path fill="url(#SVGID_6_)" d="M79.571,81.283c0,0,0.063,5.492,5.278,6.642c5.801,1.278,8.908-2.426,8.908-2.426l1.229-4.337
		l13.545-4.652l-4.634-2.972L98,73.652c0,0-4.584,1.506-5.078,1.77c-0.491,0.266-9.693,2.022-9.693,2.022
		S79.464,77.535,79.571,81.283z"/>
	
		<linearGradient id="SVGID_7_" gradientUnits="userSpaceOnUse" x1="117.8911" y1="-22.9902" x2="121.8729" y2="-24.4309" gradientTransform="matrix(0.976 -0.2175 0.2175 0.976 23.9282 133.2293)">
		<stop  offset="0" style="stop-color:#555557"/>
		<stop  offset="0.4603" style="stop-color:#767574"/>
		<stop  offset="1" style="stop-color:#ACADA7"/>
	</linearGradient>
	<path fill="url(#SVGID_7_)" d="M122.913,88.206c0,0,0.519,5.112,6.879,4.557c6.362-0.553,11.774-4.53,12.701-5.407
		c0.926-0.875,1.322-2.737,1.322-2.737l9.571-3.794l-2.221-2.487c0,0-5.061-1.284-5.788-1.339c-0.726-0.055-4.33-0.153-4.559,0.604
		c-0.229,0.756-5.239,3.947-5.239,3.947s-7.553-0.002-8.077,0.088c-0.521,0.09-3.595,1.916-3.595,1.916
		S121.915,85.507,122.913,88.206z"/>
	
		<linearGradient id="SVGID_8_" gradientUnits="userSpaceOnUse" x1="103.9604" y1="-65.769" x2="107.259" y2="-71.424" gradientTransform="matrix(0.9856 -0.1692 0.1692 0.9856 23.8241 127.5622)">
		<stop  offset="0" style="stop-color:#E9E8E9"/>
		<stop  offset="0.4921" style="stop-color:#ECEBEA"/>
		<stop  offset="0.8471" style="stop-color:#F6F4EF"/>
		<stop  offset="1" style="stop-color:#FFFEF4"/>
	</linearGradient>
	<path fill="url(#SVGID_8_)" d="M147.974,49.294c0,0,2.488-2.221-1.5-3.509c-3.984-1.287-21.953-3.584-21.953-3.584
		s-23.135-1.049-43.003,0.208c21.882,0.011,50.405,4.262,59.255,7.762C146.586,50.609,147.974,49.294,147.974,49.294z"/>
	<path fill="#FFFFFF" d="M0.803,61.107c0,0,5.768-9.24,17.05-13.507c11.282-4.269,35.66-4.328,44.754-4.633
		c9.093-0.306,41.83-1.8,41.83-1.8s-27.241,2.165-27.442,3.097c-0.198,0.931,11.135,1.137,20.811,1.09
		c9.673-0.046,15.728,1.784,7.389,2.318c-8.336,0.533-51.451,1.12-62.046,3.117c-10.597,1.999-13.413,2.303-20.471,2.977
		c-7.057,0.674-9.844,1.15-11.487,4.123C9.548,60.859,1.846,66.126,0.803,61.107z"/>
	<path fill="#FFFFFF" d="M124.425,40.604c0.524-0.59,29.846-35.07,31.639-37.17c1.791-2.102,1.964-2.131,3.533-2.4
		c1.566-0.27,2.262-0.389,2.262-0.389s-4.215-0.532-5.429,0.752c-1.213,1.284-32.244,37.812-32.244,37.812s-1.267,2.013-2.343,2.017
		C120.769,41.232,123.674,41.45,124.425,40.604z"/>
	<g>
		<g>
			<g>
				<g>
					<path fill="#32394B" d="M41.398,54.164c0.088,0.247,0.011,0.514-0.172,0.596c-0.184,0.083-0.404-0.051-0.491-0.297
						c-0.089-0.246-0.011-0.515,0.172-0.596C41.089,53.785,41.311,53.917,41.398,54.164z"/>
					<path fill="#32394B" d="M42.917,54.117c0.087,0.247,0.01,0.513-0.173,0.596c-0.184,0.083-0.404-0.051-0.491-0.297
						c-0.088-0.246-0.009-0.514,0.173-0.596C42.61,53.738,42.829,53.871,42.917,54.117z"/>
					<path fill="#32394B" d="M44.45,53.957c0.09,0.246,0.011,0.514-0.173,0.596c-0.184,0.083-0.402-0.051-0.491-0.297
						c-0.087-0.246-0.011-0.514,0.174-0.596C44.142,53.578,44.362,53.709,44.45,53.957z"/>
					<path fill="#32394B" d="M45.969,53.91c0.087,0.246,0.01,0.514-0.174,0.596s-0.401-0.051-0.49-0.298
						c-0.087-0.245-0.01-0.513,0.173-0.595C45.662,53.531,45.881,53.664,45.969,53.91z"/>
				</g>
				<g>
					<path fill="#32394B" d="M48.161,53.76c0.089,0.246,0.011,0.514-0.173,0.597c-0.184,0.082-0.402-0.051-0.49-0.299
						c-0.089-0.245-0.012-0.513,0.173-0.595C47.853,53.381,48.073,53.513,48.161,53.76z"/>
					<path fill="#32394B" d="M49.68,53.714c0.088,0.246,0.01,0.514-0.174,0.596c-0.184,0.083-0.402-0.051-0.489-0.297
						c-0.089-0.247-0.011-0.514,0.171-0.597C49.372,53.334,49.591,53.467,49.68,53.714z"/>
					<path fill="#32394B" d="M51.212,53.552c0.088,0.246,0.01,0.515-0.172,0.598c-0.186,0.082-0.404-0.051-0.49-0.298
						c-0.088-0.247-0.013-0.513,0.171-0.596C50.904,53.173,51.124,53.307,51.212,53.552z"/>
					<path fill="#32394B" d="M52.732,53.505c0.086,0.248,0.01,0.516-0.174,0.598c-0.183,0.082-0.402-0.051-0.49-0.297
						c-0.089-0.247-0.01-0.514,0.172-0.596C52.424,53.127,52.644,53.26,52.732,53.505z"/>
				</g>
				<g>
					<path fill="#32394B" d="M54.903,53.458c0.087,0.246,0.012,0.514-0.173,0.596c-0.182,0.082-0.402-0.051-0.491-0.298
						c-0.088-0.245-0.01-0.513,0.173-0.595C54.595,53.08,54.816,53.212,54.903,53.458z"/>
					<path fill="#32394B" d="M56.422,53.411c0.087,0.247,0.01,0.515-0.173,0.598c-0.185,0.081-0.404-0.052-0.491-0.299
						c-0.087-0.245-0.012-0.513,0.171-0.595C56.115,53.031,56.334,53.166,56.422,53.411z"/>
					<path fill="#32394B" d="M57.956,53.251c0.086,0.246,0.009,0.514-0.173,0.595c-0.185,0.083-0.404-0.05-0.491-0.296
						c-0.088-0.248-0.011-0.514,0.172-0.597C57.647,52.871,57.867,53.005,57.956,53.251z"/>
					<path fill="#32394B" d="M59.475,53.205c0.085,0.247,0.009,0.514-0.174,0.596c-0.184,0.083-0.403-0.051-0.491-0.297
						c-0.089-0.247-0.01-0.514,0.173-0.596C59.167,52.826,59.386,52.958,59.475,53.205z"/>
				</g>
			</g>
			<g>
				<g>
					<path fill="#32394B" d="M61.587,53.041c0.085,0.246,0.009,0.514-0.176,0.596c-0.182,0.082-0.401-0.051-0.49-0.298
						c-0.088-0.245-0.009-0.513,0.174-0.595C61.279,52.66,61.498,52.793,61.587,53.041z"/>
					<path fill="#32394B" d="M63.105,52.994c0.088,0.246,0.01,0.514-0.172,0.596c-0.184,0.083-0.403-0.051-0.49-0.297
						c-0.09-0.248-0.012-0.514,0.173-0.597C62.798,52.613,63.017,52.748,63.105,52.994z"/>
					<path fill="#32394B" d="M64.637,52.833c0.089,0.246,0.01,0.514-0.171,0.596c-0.187,0.084-0.405-0.051-0.491-0.297
						c-0.088-0.248-0.013-0.514,0.172-0.597C64.33,52.453,64.549,52.586,64.637,52.833z"/>
					<path fill="#32394B" d="M66.157,52.786c0.087,0.247,0.009,0.515-0.172,0.597c-0.185,0.082-0.403-0.051-0.492-0.297
						c-0.088-0.248-0.011-0.514,0.173-0.597C65.849,52.407,66.069,52.54,66.157,52.786z"/>
				</g>
				<g>
					<path fill="#32394B" d="M68.349,52.638c0.087,0.246,0.009,0.512-0.174,0.595s-0.402-0.051-0.492-0.298
						c-0.088-0.245-0.009-0.513,0.174-0.595C68.041,52.257,68.262,52.392,68.349,52.638z"/>
					<path fill="#32394B" d="M69.869,52.59c0.088,0.247,0.008,0.514-0.174,0.597c-0.184,0.082-0.403-0.051-0.49-0.298
						c-0.089-0.247-0.012-0.515,0.173-0.597C69.561,52.21,69.779,52.345,69.869,52.59z"/>
					<path fill="#32394B" d="M71.399,52.43c0.089,0.247,0.01,0.515-0.171,0.597c-0.186,0.082-0.404-0.052-0.492-0.298
						c-0.087-0.247-0.011-0.515,0.174-0.595C71.092,52.05,71.311,52.184,71.399,52.43z"/>
					<path fill="#32394B" d="M72.917,52.384c0.09,0.246,0.011,0.513-0.172,0.595c-0.184,0.083-0.402-0.05-0.489-0.296
						c-0.089-0.248-0.011-0.515,0.171-0.598C72.613,52.003,72.831,52.138,72.917,52.384z"/>
				</g>
				<g>
					<path fill="#32394B" d="M75.09,52.334c0.088,0.248,0.011,0.515-0.174,0.597c-0.183,0.084-0.402-0.051-0.49-0.297
						c-0.087-0.246-0.01-0.515,0.175-0.596C74.783,51.957,75.002,52.089,75.09,52.334z"/>
					<path fill="#32394B" d="M76.609,52.289c0.088,0.246,0.013,0.514-0.173,0.596c-0.183,0.082-0.402-0.051-0.489-0.297
						c-0.089-0.246-0.012-0.515,0.172-0.596C76.302,51.908,76.522,52.042,76.609,52.289z"/>
					<path fill="#32394B" d="M78.141,52.128c0.088,0.246,0.012,0.514-0.173,0.596c-0.183,0.082-0.402-0.051-0.489-0.297
						c-0.089-0.246-0.009-0.514,0.172-0.596C77.835,51.749,78.054,51.88,78.141,52.128z"/>
					<path fill="#32394B" d="M79.663,52.081c0.087,0.247,0.009,0.514-0.177,0.598c-0.181,0.081-0.4-0.052-0.487-0.298
						c-0.089-0.246-0.01-0.514,0.171-0.596C79.354,51.703,79.573,51.835,79.663,52.081z"/>
				</g>
			</g>
		</g>
		<g>
			<path fill="#32394B" d="M81.635,51.963c0.087,0.247,0.009,0.515-0.176,0.597c-0.184,0.082-0.401-0.051-0.49-0.297
				c-0.086-0.247-0.01-0.514,0.174-0.595C81.325,51.585,81.545,51.718,81.635,51.963z"/>
			<path fill="#32394B" d="M83.154,51.917c0.086,0.247,0.008,0.514-0.176,0.597c-0.182,0.082-0.4-0.052-0.488-0.299
				c-0.089-0.245-0.01-0.513,0.172-0.594C82.845,51.538,83.065,51.671,83.154,51.917z"/>
			<path fill="#32394B" d="M84.685,51.757c0.087,0.246,0.01,0.514-0.173,0.596c-0.185,0.083-0.403-0.051-0.49-0.297
				c-0.088-0.246-0.011-0.514,0.172-0.596C84.377,51.378,84.596,51.511,84.685,51.757z"/>
			<path fill="#32394B" d="M86.205,51.711c0.087,0.247,0.011,0.513-0.174,0.595c-0.183,0.084-0.402-0.051-0.49-0.297
				s-0.011-0.514,0.174-0.597C85.896,51.332,86.117,51.463,86.205,51.711z"/>
		</g>
		<g>
			<path fill="#32394B" d="M88.397,51.562c0.087,0.248,0.01,0.512-0.175,0.596c-0.184,0.083-0.401-0.052-0.49-0.298
				c-0.088-0.247-0.01-0.513,0.172-0.597C88.089,51.182,88.308,51.316,88.397,51.562z"/>
			<path fill="#32394B" d="M89.916,51.516c0.086,0.245,0.01,0.513-0.175,0.594c-0.183,0.083-0.401-0.05-0.49-0.296
				c-0.086-0.247-0.009-0.514,0.175-0.596C89.607,51.136,89.826,51.269,89.916,51.516z"/>
			<path fill="#32394B" d="M91.449,51.355c0.086,0.246,0.01,0.513-0.175,0.596c-0.182,0.082-0.402-0.051-0.49-0.297
				c-0.087-0.247-0.012-0.514,0.172-0.596C91.139,50.974,91.36,51.109,91.449,51.355z"/>
			<path fill="#32394B" d="M92.967,51.308c0.086,0.246,0.01,0.514-0.175,0.596c-0.182,0.082-0.402-0.051-0.489-0.297
				s-0.011-0.514,0.175-0.596C92.659,50.927,92.879,51.061,92.967,51.308z"/>
		</g>
		<g>
			<g>
				<path fill="#32394B" d="M101.821,50.843c0.089,0.244,0.013,0.512-0.172,0.594c-0.184,0.082-0.403-0.05-0.491-0.297
					s-0.012-0.514,0.173-0.596C101.512,50.462,101.732,50.595,101.821,50.843z"/>
				<path fill="#32394B" d="M103.34,50.794c0.09,0.247,0.01,0.514-0.173,0.596s-0.402-0.051-0.489-0.297
					c-0.088-0.247-0.011-0.514,0.173-0.596C103.033,50.416,103.252,50.548,103.34,50.794z"/>
				<path fill="#32394B" d="M104.873,50.634c0.086,0.246,0.011,0.514-0.172,0.598c-0.184,0.082-0.406-0.053-0.49-0.299
					c-0.09-0.246-0.01-0.513,0.171-0.596C104.564,50.255,104.784,50.388,104.873,50.634z"/>
				<path fill="#32394B" d="M106.392,50.589c0.086,0.246,0.009,0.512-0.174,0.595c-0.184,0.081-0.402-0.05-0.488-0.298
					c-0.089-0.246-0.014-0.515,0.17-0.596C106.083,50.208,106.304,50.342,106.392,50.589z"/>
			</g>
			<g>
				<path fill="#32394B" d="M108.583,50.437c0.089,0.248,0.01,0.516-0.175,0.598c-0.182,0.082-0.401-0.053-0.487-0.297
					c-0.089-0.248-0.01-0.514,0.171-0.596C108.276,50.06,108.497,50.192,108.583,50.437z"/>
				<path fill="#32394B" d="M110.104,50.391c0.085,0.249,0.008,0.515-0.175,0.597s-0.403-0.051-0.491-0.298
					c-0.088-0.245-0.009-0.514,0.174-0.595C109.795,50.011,110.014,50.146,110.104,50.391z"/>
				<path fill="#32394B" d="M111.635,50.232c0.087,0.246,0.009,0.515-0.176,0.595c-0.182,0.084-0.4-0.05-0.487-0.296
					c-0.088-0.248-0.012-0.514,0.172-0.596C111.328,49.851,111.546,49.986,111.635,50.232z"/>
				<path fill="#32394B" d="M113.155,50.185c0.087,0.246,0.011,0.514-0.175,0.596c-0.182,0.082-0.402-0.051-0.489-0.297
					c-0.087-0.247-0.011-0.514,0.173-0.598C112.847,49.805,113.068,49.938,113.155,50.185z"/>
			</g>
			<g>
				<path fill="#32394B" d="M115.326,50.136c0.089,0.247,0.01,0.514-0.173,0.597c-0.183,0.081-0.403-0.052-0.491-0.298
					c-0.086-0.246-0.011-0.514,0.174-0.596C115.018,49.757,115.238,49.891,115.326,50.136z"/>
				<path fill="#32394B" d="M116.845,50.089c0.086,0.247,0.01,0.516-0.174,0.596c-0.182,0.084-0.401-0.049-0.489-0.296
					c-0.086-0.247-0.011-0.514,0.172-0.596C116.538,49.709,116.755,49.842,116.845,50.089z"/>
				<path fill="#32394B" d="M118.378,49.929c0.087,0.246,0.009,0.515-0.174,0.596c-0.184,0.082-0.403-0.051-0.491-0.297
					c-0.085-0.246-0.011-0.514,0.173-0.597C118.069,49.55,118.29,49.681,118.378,49.929z"/>
				<path fill="#32394B" d="M119.896,49.882c0.087,0.246,0.009,0.514-0.174,0.597c-0.182,0.082-0.401-0.05-0.489-0.298
					c-0.089-0.246-0.011-0.514,0.175-0.596C119.589,49.501,119.808,49.636,119.896,49.882z"/>
			</g>
		</g>
	</g>
	<path fill="#32394B" d="M14.945,58.859l-0.763-1.305c0,0-6.077-0.929-8.004-2.751c-1.852,1.753-1.852,1.753-1.852,1.753
		S9.459,60.337,14.945,58.859z"/>
	<path fill="#929497" d="M129.803,53.13c0,0,50.529,6.032,51.779,5.997c1.249-0.035,2.288-1.29,2.288-1.29l-39.469-8.467
		L129.803,53.13z"/>
	
		<linearGradient id="SVGID_9_" gradientUnits="userSpaceOnUse" x1="140.7153" y1="-43.5767" x2="149.1983" y2="-52.5311" gradientTransform="matrix(0.9856 -0.1692 0.1692 0.9856 23.8241 127.5622)">
		<stop  offset="0" style="stop-color:#E9E8E9"/>
		<stop  offset="0.4921" style="stop-color:#ECEBEA"/>
		<stop  offset="0.8471" style="stop-color:#F6F4EF"/>
		<stop  offset="1" style="stop-color:#FFFEF4"/>
	</linearGradient>
	<path fill="url(#SVGID_9_)" d="M131.895,52.772c0,0,50.529,6.03,51.777,5.997c1.25-0.035,2.29-1.29,2.29-1.29l-39.472-8.468
		L131.895,52.772z"/>
	
		<linearGradient id="SVGID_10_" gradientUnits="userSpaceOnUse" x1="67.7202" y1="-44.1675" x2="69.1343" y2="-54.066" gradientTransform="matrix(0.9856 -0.1692 0.1692 0.9856 23.8241 127.5622)">
		<stop  offset="0" style="stop-color:#BEBFC1"/>
		<stop  offset="0.3072" style="stop-color:#C0C2C3"/>
		<stop  offset="0.529" style="stop-color:#C9C9C9"/>
		<stop  offset="0.724" style="stop-color:#D7D7D4"/>
		<stop  offset="0.9025" style="stop-color:#ECEBE5"/>
		<stop  offset="1" style="stop-color:#FFFEF4"/>
	</linearGradient>
	<path fill="url(#SVGID_10_)" d="M66.871,65.726c0,0,16.283-3.332,23.672-2.091c7.388,1.243,9.631,2.83,7.833,3.857
		c-1.795,1.024,0.47,0.634-1.795,1.024c-2.265,0.389-16.876,0.924-21.242-0.479C70.973,66.636,66.871,65.726,66.871,65.726z"/>
	
		<linearGradient id="SVGID_11_" gradientUnits="userSpaceOnUse" x1="115.5386" y1="-49.6899" x2="109.9458" y2="-33.2612" gradientTransform="matrix(0.976 -0.2175 0.2175 0.976 23.9282 133.2293)">
		<stop  offset="0" style="stop-color:#A9ACAE"/>
		<stop  offset="0.2843" style="stop-color:#ABAEB0"/>
		<stop  offset="0.4896" style="stop-color:#B3B5B7"/>
		<stop  offset="0.6701" style="stop-color:#C1C2C3"/>
		<stop  offset="0.8352" style="stop-color:#D4D5D6"/>
		<stop  offset="0.9903" style="stop-color:#F0EFF0"/>
		<stop  offset="1" style="stop-color:#F2F2F2"/>
	</linearGradient>
	<path fill="url(#SVGID_11_)" d="M51.014,67.373l42.77,5.748c0,0,1.333-0.586,2.614-0.449c1.277,0.141,7.904,0.078,6.019,0.584
		c-1.888,0.501-2.525,0.971-1.942,1.229c0.582,0.259,3.378,1.93,4.478,1.024c1.101-0.905,2.933-0.685,3.576-0.075
		c0.643,0.606,29.827,3.487,29.827,3.487s0.816,0.577,2.908,0.218c2.09-0.357,5.604-0.781,4.391,0.502
		c-1.214,1.285,1.775,0.949,1.775,0.949s43.888,2.869,45.08,2.485c1.188-0.383,5.212-3.047,5.212-3.047L58.5,65.011
		c0,0-2.793-0.597-3.952-0.041C53.389,65.531,50.691,66.531,51.014,67.373z"/>
	<path opacity="0.33" fill="#FFFFFF" d="M128.046,41.586c0,0,9.684-2.382,10.743-8.812c1.06-6.429,9.261-17.45,15.831-19.779
		c6.568-2.329,4.668-0.802,4.668-0.802l-16.048,31.111L128.046,41.586z"/>
	
		<linearGradient id="SVGID_12_" gradientUnits="userSpaceOnUse" x1="118.1274" y1="-26.7988" x2="116.5809" y2="-15.9779" gradientTransform="matrix(0.976 -0.2175 0.2175 0.976 23.9282 133.2293)">
		<stop  offset="0" style="stop-color:#A4A5A1"/>
		<stop  offset="0.1589" style="stop-color:#E0DFDD"/>
		<stop  offset="0.2363" style="stop-color:#FFFFFF"/>
		<stop  offset="0.5546" style="stop-color:#DADAD7"/>
		<stop  offset="1" style="stop-color:#ACADA7"/>
	</linearGradient>
	<path fill="url(#SVGID_12_)" d="M136.958,80.832l-1.866-0.191l-2.343,0.001c0,0-0.367-0.091-0.69-0.11
		c-2.007-0.195-3.05-0.015-4.732,0.633c-4.639,2.229-3.822,2.809-1.565,1.345c2.616-0.45,5.826,2.587,4.508,6.399
		c-1.317,3.813-4.314,3.072-2.597,3.674c1.717,0.601,6.421-0.207,14.543-3.036c1.96-3.204,0.869-6.425-0.181-7.32
		c-0.469-0.636-5.79-1.337-5.79-1.337"/>
	
		<linearGradient id="SVGID_13_" gradientUnits="userSpaceOnUse" x1="76.2378" y1="-42.8398" x2="75.1885" y2="-26.0509" gradientTransform="matrix(0.976 -0.2175 0.2175 0.976 23.9282 133.2293)">
		<stop  offset="0" style="stop-color:#A4A5A1"/>
		<stop  offset="0.1589" style="stop-color:#E0DFDD"/>
		<stop  offset="0.2363" style="stop-color:#FFFFFF"/>
		<stop  offset="0.5546" style="stop-color:#DADAD7"/>
		<stop  offset="1" style="stop-color:#ACADA7"/>
	</linearGradient>
	<path fill="url(#SVGID_13_)" d="M97.519,75.212c-1.796,1.025-3.643,0.632-3.643,0.632l4.713,1.342c0,0,3.215,4.111,0.384,7.468
		c-5.245,2.871-10.933,4.208-13.929,3.467c-2.997-0.742-3.673-2.597-3.673-2.597s4.025,3.612,5.747-0.987
		c1.722-4.601-2.449-8.009-4.77-6.895c-2.319,1.116-2.333,4.168-2.333,4.168s-1.385-3.888,4.653-5.282
		c5.195-1.071,7.539-1.783,7.539-1.783s0.605-0.813-0.044-1.06L97.519,75.212z"/>
</g>
</svg>
