<?xml version="1.0" encoding="utf-8"?>
<!-- Generator: Adobe Illustrator 16.0.0, SVG Export Plug-In . SVG Version: 6.00 Build 0)  -->
<!DOCTYPE svg PUBLIC "-//W3C//DTD SVG 1.1//EN" "http://www.w3.org/Graphics/SVG/1.1/DTD/svg11.dtd">
<svg version="1.1" id="Layer_1" xmlns="http://www.w3.org/2000/svg" xmlns:xlink="http://www.w3.org/1999/xlink" x="0px" y="0px"
	 width="703.466px" height="196.768px" viewBox="0 0 703.466 196.768" enable-background="new 0 0 703.466 196.768"
	 xml:space="preserve">
<g>
	<path opacity="0.4" fill="#434343" d="M321.669,112.108c-7.459-13.358-15.267-20.24-19.901-23.459
		c-0.001-0.003-0.002-0.006-0.003-0.009c0,0-0.011-0.007-0.032-0.017c-2.562-1.772-4.147-2.429-4.147-2.429
		c-10.583-6.636-16.739-3.834-17.458-3.463c-0.53,0.122-1.063,0.258-1.596,0.428c0,0-1.779,1.128-5.215,2.673
		c-0.562-0.052-1.13-0.127-1.714-0.26c0,0,0.242,0.315,0.686,0.71c-2.935,1.267-6.883,2.745-11.803,4.105
		c-3.206,0.063-6.802-0.347-10.573-1.63c0,0,0.977,1.61,2.98,3.107c-7.691,0.743-24.392,0.721-40.586-10.129
		c0,0,1.819,5.965,7.579,10.743c-15.865-1.587-37.965-6.997-58.883-23.087c0,0,1.191,5.016,5.002,11.171
		C135.172,69.294,94.283,47.581,60.41,6.235c0,0,0.491,60.077,65.52,85.204C88.005,84.065,43.213,68.315,0,36.159
		c0,0,24.939,98.464,147.642,88.537c0.884,0.47,1.797,0.919,2.738,1.351c-25.317,5.348-55.523,7.223-88.593,0.347
		c0,0,41.494,53.729,112.95,19.258c0.782,0.159,1.581,0.309,2.396,0.443c-16.534,9.238-36.786,17.008-60.519,19.754
		c0,0,37.549,26.642,78.951-6.771c1.717-0.11,3.583-0.306,5.564-0.626c-11.68,9.915-26.153,19.158-43.774,25.416
		c0,0,31.421,13.476,59.056-14.248c3.793-1.051,7.948-2.633,12.12-5.006c-7.185,10.619-16.651,21.296-29.105,30.363
		c0,0,19.248,2.459,35.114-13.211c3.415-0.979,7.89-2.793,12.346-6.129c-3.539,7.124-8.058,14.299-13.857,21.131
		c0,0,28.458-3.162,33.35-38.986c0.864-0.855,1.723-1.783,2.56-2.789c-0.309,11.345-2.395,24.279-8.046,37.34
		c0,0,17.364-7.747,18.994-30.703c1.113-1.262,2.24-2.746,3.287-4.462c-0.34,6.697-1.575,13.975-4.332,21.396
		c0,0,12.521-6.455,12.537-23.581c0.85-0.935,1.832-2.164,2.795-3.692c0.474,5.604,0.282,11.794-1.127,18.292
		c0,0,12.175-8.861,6.297-27.088c1.13-0.166,2.271-0.336,3.42-0.505c0.541,2.951,0.933,6.138,1.061,9.511
		c-0.249,2.228-0.594,4.487-1.077,6.777c0,0,0.397-0.293,1.027-0.879c-0.17,3.04-0.564,6.188-1.265,9.414
		c0,0,8.773-6.373,7.844-19.44c0.738-1.983,1.313-4.239,1.584-6.774c0.555-0.086,1.107-0.171,1.654-0.258
		c0.721,6.146,0.677,13.085-0.913,20.414c0,0,6.453-4.689,7.706-14.263c0.514-0.777,1.448-2.379,2.171-4.634
		c0.403,3.652,0.468,7.572,0.003,11.688c0,0,3.511-3.19,4.827-9.042c0.002,0.06,0.007,0.115,0.009,0.175c0,0,2.01-2.533,3-6.792
		c0.441,2.832,0.641,5.87,0.461,9.079c0,0,5.26-5.411,3.305-14.285c0.374,0.604,0.579,0.957,0.579,0.957
		C333.933,123.568,321.669,112.108,321.669,112.108z M256.838,94.083c0.093-0.036,0.177-0.064,0.269-0.101
		c0,0,0.034-0.01,0.095-0.029c0.022,0.007,0.046,0.014,0.068,0.02C257.129,94.008,256.983,94.044,256.838,94.083z M290.447,146.551
		c-0.185-0.874-0.394-1.767-0.639-2.682c0.249-0.035,0.5-0.073,0.755-0.107C290.542,144.683,290.504,145.612,290.447,146.551z"/>
	<g>
		
			<linearGradient id="SVGID_1_" gradientUnits="userSpaceOnUse" x1="234.3984" y1="76.541" x2="290.515" y2="76.541" gradientTransform="matrix(0.9397 -0.342 0.342 0.9397 26.5941 126.1641)">
			<stop  offset="0" style="stop-color:#FFFFFF"/>
			<stop  offset="1" style="stop-color:#B2B3B6"/>
		</linearGradient>
		<path fill="url(#SVGID_1_)" d="M339.756,130.375c0,0-25.98-62.662-54.992-53.451c0,0-7.371,4.693-21.272,8.073l8.189,29.206
			l11.104,25.278C282.785,139.481,333.732,132.57,339.756,130.375z"/>
		
			<linearGradient id="SVGID_2_" gradientUnits="userSpaceOnUse" x1="45.7305" y1="103.7119" x2="184.8582" y2="103.7119" gradientTransform="matrix(0.9874 -0.1584 0.1584 0.9874 14.1187 -35.6461)">
			<stop  offset="0" style="stop-color:#FFFFFF"/>
			<stop  offset="1" style="stop-color:#B2B3B6"/>
		</linearGradient>
		<path fill="url(#SVGID_2_)" d="M218.639,86.064c0,0-88.379-8.411-151.995-86.064c0,0,0.816,104.061,148.512,95.563
			c0,0,9.517-0.811,13.143,0.442C228.298,96.006,221.126,92.282,218.639,86.064z"/>
		
			<linearGradient id="SVGID_3_" gradientUnits="userSpaceOnUse" x1="384.1387" y1="-332.001" x2="521.2015" y2="-332.001" gradientTransform="matrix(0.663 -0.7486 0.7486 0.663 103.8752 666.1765)">
			<stop  offset="0" style="stop-color:#FFFFFF"/>
			<stop  offset="1" style="stop-color:#B2B3B6"/>
		</linearGradient>
		<path fill="url(#SVGID_3_)" d="M233.97,87.825c0,0-71.267,52.019-165.95,32.333c0,0,63.664,82.484,169.097-22.437
			c0,0,6.633-6.972,10.108-8.381C247.225,89.341,239.599,91.137,233.97,87.825z"/>
		
			<linearGradient id="SVGID_4_" gradientUnits="userSpaceOnUse" x1="645.2344" y1="-428.0815" x2="752.34" y2="-428.0815" gradientTransform="matrix(0.406 -0.9139 0.9139 0.406 290.8774 941.0879)">
			<stop  offset="0" style="stop-color:#FFFFFF"/>
			<stop  offset="1" style="stop-color:#B2B3B6"/>
		</linearGradient>
		<path fill="url(#SVGID_4_)" d="M236.01,95.129c0,0-40.119,56.033-113.162,64.484c0,0,64.505,45.787,117.646-57.896
			c0,0,3.26-6.8,5.467-8.693C245.961,93.023,240.83,96.216,236.01,95.129z"/>
		
			<linearGradient id="SVGID_5_" gradientUnits="userSpaceOnUse" x1="840.8467" y1="-445.0972" x2="934.8257" y2="-445.0972" gradientTransform="matrix(0.2034 -0.9791 0.9791 0.2034 464.0974 1099.4623)">
			<stop  offset="0" style="stop-color:#FFFFFF"/>
			<stop  offset="1" style="stop-color:#B2B3B6"/>
		</linearGradient>
		<path fill="url(#SVGID_5_)" d="M247.128,100.984c0,0-23.816,55.439-83.538,76.646c0,0,62.052,26.643,88.447-71.892
			c0,0,1.54-6.42,3.061-8.457C255.098,97.282,251.357,100.988,247.128,100.984z"/>
		
			<linearGradient id="SVGID_6_" gradientUnits="userSpaceOnUse" x1="1090.7441" y1="-415.7612" x2="1171.8507" y2="-415.7612" gradientTransform="matrix(-0.0672 -0.9978 0.9978 -0.0672 724.8214 1247.4916)">
			<stop  offset="0" style="stop-color:#FFFFFF"/>
			<stop  offset="1" style="stop-color:#B2B3B6"/>
		</linearGradient>
		<path fill="url(#SVGID_6_)" d="M256.368,105.674c0,0-7.159,51.357-50.709,83.066c0,0,55.831,7.165,55.7-80.321
			c0,0-0.15-5.655,0.63-7.697C261.989,100.722,259.777,104.667,256.368,105.674z"/>
		
			<linearGradient id="SVGID_7_" gradientUnits="userSpaceOnUse" x1="1293.3857" y1="-340.1196" x2="1362.657" y2="-340.1196" gradientTransform="matrix(-0.2906 -0.9568 0.9568 -0.2906 965.9938 1321.795)">
			<stop  offset="0" style="stop-color:#FFFFFF"/>
			<stop  offset="1" style="stop-color:#B2B3B6"/>
		</linearGradient>
		<path fill="url(#SVGID_7_)" d="M265.426,111.62c0,0,3.506,43.968-26.163,78.911c0,0,46.726-5.189,30.724-77.631
			c0,0-1.152-4.654-0.885-6.5C269.102,106.4,268.016,110.107,265.426,111.62z"/>
		
			<linearGradient id="SVGID_8_" gradientUnits="userSpaceOnUse" x1="1524.9746" y1="-197.3496" x2="1586.9399" y2="-197.3496" gradientTransform="matrix(-0.553 -0.8332 0.8332 -0.553 1295.0603 1334.417)">
			<stop  offset="0" style="stop-color:#FFFFFF"/>
			<stop  offset="1" style="stop-color:#B2B3B6"/>
		</linearGradient>
		<path fill="url(#SVGID_8_)" d="M269.896,111.317c0,0,13.639,36.844-2.772,74.777c0,0,37.963-16.918,6.911-74.895
			c0,0-2.098-3.689-2.324-5.351C271.711,105.85,271.703,109.326,269.896,111.317z"/>
		
			<linearGradient id="SVGID_9_" gradientUnits="userSpaceOnUse" x1="1564.5645" y1="-151.2715" x2="1609.2697" y2="-151.2715" gradientTransform="matrix(-0.5964 -0.8027 0.8027 -0.5964 1353.7145 1327.6824)">
			<stop  offset="0" style="stop-color:#FFFFFF"/>
			<stop  offset="1" style="stop-color:#B2B3B6"/>
		</linearGradient>
		<path fill="url(#SVGID_9_)" d="M284.336,118.251c0,0,11.148,26.043,0.739,54.076c0,0,26.665-13.731,2.229-54.325
			c0,0-1.641-2.58-1.865-3.768C285.439,114.234,285.561,116.742,284.336,118.251z"/>
		
			<linearGradient id="SVGID_10_" gradientUnits="userSpaceOnUse" x1="1659.5244" y1="-45.8096" x2="1697.068" y2="-45.8096" gradientTransform="matrix(-0.7055 -0.7086 0.7086 -0.7055 1513.1631 1296.5365)">
			<stop  offset="0" style="stop-color:#FFFFFF"/>
			<stop  offset="1" style="stop-color:#B2B3B6"/>
		</linearGradient>
		<path fill="url(#SVGID_10_)" d="M292.427,118.205c0,0,12.226,20.371,6.853,45.14c0,0,20.471-14.861-4.425-45.724
			c0,0-1.656-1.952-1.979-2.917C292.876,114.704,293.266,116.786,292.427,118.205z"/>
		
			<linearGradient id="SVGID_11_" gradientUnits="userSpaceOnUse" x1="1654.8096" y1="-37.1475" x2="1692.3551" y2="-37.1475" gradientTransform="matrix(-0.7055 -0.7086 0.7086 -0.7055 1513.1631 1296.5365)">
			<stop  offset="0" style="stop-color:#FFFFFF"/>
			<stop  offset="1" style="stop-color:#B2B3B6"/>
		</linearGradient>
		<path fill="url(#SVGID_11_)" d="M301.889,115.434c0,0,12.229,20.373,6.854,45.143c0,0,20.471-14.861-4.427-45.727
			c0,0-1.656-1.949-1.977-2.917C302.34,111.933,302.729,114.017,301.889,115.434z"/>
		
			<linearGradient id="SVGID_12_" gradientUnits="userSpaceOnUse" x1="1651.9287" y1="-25.667" x2="1689.4742" y2="-25.667" gradientTransform="matrix(-0.7055 -0.7086 0.7086 -0.7055 1513.1631 1296.5365)">
			<stop  offset="0" style="stop-color:#FFFFFF"/>
			<stop  offset="1" style="stop-color:#B2B3B6"/>
		</linearGradient>
		<path fill="url(#SVGID_12_)" d="M312.059,109.374c0,0,12.227,20.375,6.853,45.144c0,0,20.472-14.863-4.425-45.727
			c0,0-1.656-1.951-1.979-2.916C312.507,105.875,312.898,107.957,312.059,109.374z"/>
		
			<linearGradient id="SVGID_13_" gradientUnits="userSpaceOnUse" x1="1709.2021" y1="57.291" x2="1741.2074" y2="57.291" gradientTransform="matrix(-0.7757 -0.6312 0.6312 -0.7757 1626.6344 1260.6869)">
			<stop  offset="0" style="stop-color:#FFFFFF"/>
			<stop  offset="1" style="stop-color:#B2B3B6"/>
		</linearGradient>
		<path fill="url(#SVGID_13_)" d="M319.143,109.424c0,0,12.087,16.245,9.649,37.888c0,0,16.065-14.601-7.644-38.613
			c0,0-1.568-1.51-1.924-2.307C319.225,106.392,319.734,108.136,319.143,109.424z"/>
		
			<linearGradient id="SVGID_14_" gradientUnits="userSpaceOnUse" x1="1738.1973" y1="110.457" x2="1764.3632" y2="110.457" gradientTransform="matrix(-0.8111 -0.5848 0.5848 -0.8111 1688.5861 1238.2778)">
			<stop  offset="0" style="stop-color:#FFFFFF"/>
			<stop  offset="1" style="stop-color:#B2B3B6"/>
		</linearGradient>
		<path fill="url(#SVGID_14_)" d="M327.484,110.164c0,0,10.604,12.706,9.604,30.566c0,0,12.438-12.771-8.002-31.261
			c0,0-1.346-1.16-1.672-1.795C327.414,107.675,327.908,109.078,327.484,110.164z"/>
		
			<linearGradient id="SVGID_15_" gradientUnits="userSpaceOnUse" x1="82.6665" y1="-100.8174" x2="265.8618" y2="-100.8174" gradientTransform="matrix(0.9161 -0.401 0.401 0.9161 1.8555 228.1321)">
			<stop  offset="0" style="stop-color:#FFFFFF"/>
			<stop  offset="1" style="stop-color:#B2B3B6"/>
		</linearGradient>
		<path fill="url(#SVGID_15_)" d="M228.08,88.911c0,0-115.687,20.011-221.848-58.988c0,0,34.307,135.462,220.432,72.604
			c0,0,11.907-4.397,16.945-4.032C243.609,98.494,233.248,96.151,228.08,88.911z"/>
		
			<linearGradient id="SVGID_16_" gradientUnits="userSpaceOnUse" x1="114.3447" y1="9.3716" x2="212.1038" y2="9.3716" gradientTransform="matrix(0.9468 -0.322 0.322 0.9468 15.8941 117.5096)">
			<stop  offset="0" style="stop-color:#FFFFFF"/>
			<stop  offset="1" style="stop-color:#B2B3B6"/>
		</linearGradient>
		<path fill="url(#SVGID_16_)" d="M229.336,91.015c0,0-62.356,5.114-115.393-41.607c0,0,12.414,73.151,114.053,48.73
			c0,0,6.521-1.759,9.181-1.33C237.177,96.808,231.77,95.082,229.336,91.015z"/>
		
			<linearGradient id="SVGID_17_" gradientUnits="userSpaceOnUse" x1="287.2544" y1="-211.2935" x2="334.1023" y2="-210.3779" gradientTransform="matrix(0.7886 -0.6149 0.6149 0.7886 56.1957 468.2656)">
			<stop  offset="0" style="stop-color:#FFFFFF"/>
			<stop  offset="1" style="stop-color:#B2B3B6"/>
		</linearGradient>
		<path fill="url(#SVGID_17_)" d="M235.08,97.874c0,0-48.249,22.493-102.964-0.124c0,0,29.469,56.153,103.808,6.342
			c0,0,4.715-3.356,6.947-3.787C242.871,100.306,238.107,100.484,235.08,97.874z"/>
		
			<linearGradient id="SVGID_18_" gradientUnits="userSpaceOnUse" x1="560.0801" y1="-383.2837" x2="604.5339" y2="-382.4149" gradientTransform="matrix(0.5147 -0.8573 0.8573 0.5147 228.5015 825.5695)">
			<stop  offset="0" style="stop-color:#FFFFFF"/>
			<stop  offset="1" style="stop-color:#B2B3B6"/>
		</linearGradient>
		<path fill="url(#SVGID_18_)" d="M240.514,99.198c0,0-30.762,33.169-79.537,32.497c0,0,50.486,33.73,93.508-29.43
			c0,0-1.323-8.657,0.274-9.707C254.759,92.558,243.605,100.316,240.514,99.198z"/>
		
			<linearGradient id="SVGID_19_" gradientUnits="userSpaceOnUse" x1="888.9043" y1="-460.5957" x2="926.2219" y2="-459.8664" gradientTransform="matrix(0.1667 -0.986 0.986 0.1667 524.6813 1110.4839)">
			<stop  offset="0" style="stop-color:#FFFFFF"/>
			<stop  offset="1" style="stop-color:#B2B3B6"/>
		</linearGradient>
		<path fill="url(#SVGID_19_)" d="M245.991,97.866c0,0-14.873,38.501-55.032,54.58c0,0,52.72,10.021,68.299-57.984
			c0,0-8.914,2.093-7.93,0.663C251.328,95.124,248.87,97.756,245.991,97.866z"/>
		
			<linearGradient id="SVGID_20_" gradientUnits="userSpaceOnUse" x1="1034.334" y1="-452.207" x2="1068.5184" y2="-451.539" gradientTransform="matrix(0.0018 -1 1 0.0018 684.8014 1200.731)">
			<stop  offset="0" style="stop-color:#FFFFFF"/>
			<stop  offset="1" style="stop-color:#B2B3B6"/>
		</linearGradient>
		<path fill="url(#SVGID_20_)" d="M255.857,106.495c0,0-14.367,37.146-49.316,58.884c0,0,52.86,4.04,57.176-62.599
			c0,0-4.008,1.765-3.309,0.258C260.408,103.038,258.517,105.92,255.857,106.495z"/>
		
			<linearGradient id="SVGID_21_" gradientUnits="userSpaceOnUse" x1="1202.4521" y1="-406.9141" x2="1239.9105" y2="-406.182" gradientTransform="matrix(-0.1953 -0.9807 0.9807 -0.1953 891.5297 1272.0229)">
			<stop  offset="0" style="stop-color:#FFFFFF"/>
			<stop  offset="1" style="stop-color:#B2B3B6"/>
		</linearGradient>
		<path fill="url(#SVGID_21_)" d="M264.964,100.977c0,0-0.997,47.672-30.192,75.692c0,0,43.358-1.995,35.203-67.153
			c0,0-0.953-8.499-2.991-9.526C266.983,99.989,267.384,99.887,264.964,100.977z"/>
		
			<linearGradient id="SVGID_22_" gradientUnits="userSpaceOnUse" x1="166.5977" y1="288.7383" x2="219.274" y2="288.7383" gradientTransform="matrix(0.9978 -0.0666 0.0666 0.9978 25.7711 -155.6953)">
			<stop  offset="0" style="stop-color:#FFFFFF"/>
			<stop  offset="1" style="stop-color:#B2B3B6"/>
		</linearGradient>
		<path fill="url(#SVGID_22_)" d="M259.272,92.431c0,0-21.073,46.598-46.378,53.786c0,0,36.414,7.642,53.654-52.136
			C266.549,94.081,264.412,93.195,259.272,92.431z"/>
		
			<linearGradient id="SVGID_23_" gradientUnits="userSpaceOnUse" x1="189.0732" y1="-14.1167" x2="255.8876" y2="-14.1167" gradientTransform="matrix(0.9225 -0.386 0.386 0.9225 9.2847 176.2727)">
			<stop  offset="0" style="stop-color:#FFFFFF"/>
			<stop  offset="1" style="stop-color:#B2B3B6"/>
		</linearGradient>
		<path fill="url(#SVGID_23_)" d="M248.464,86.206c0,0-42.648,6.623-81.229-23.049c0,0,11.841,49.958,80.631,28.04
			c0,0,4.023-0.959,5.873-0.793C253.738,90.404,250.324,88.898,248.464,86.206z"/>
		
			<linearGradient id="SVGID_24_" gradientUnits="userSpaceOnUse" x1="413.6357" y1="-293.812" x2="480" y2="-293.812" gradientTransform="matrix(0.689 -0.7247 0.7247 0.689 113.7752 622.0611)">
			<stop  offset="0" style="stop-color:#FFFFFF"/>
			<stop  offset="1" style="stop-color:#B2B3B6"/>
		</linearGradient>
		<path fill="url(#SVGID_24_)" d="M250.928,88.563c0,0-45.502,21.447-87.151,10.319c0,0,41.081,39.642,91.756-8.122
			c0,0-2.37,0.236-1.14-0.212C254.393,90.548,252.855,89.786,250.928,88.563z"/>
		
			<linearGradient id="SVGID_25_" gradientUnits="userSpaceOnUse" x1="1172.4619" y1="-447.4111" x2="1224.157" y2="-447.4111" gradientTransform="matrix(-0.1259 -0.9921 0.9921 -0.1259 846.0735 1256.4498)">
			<stop  offset="0" style="stop-color:#FFFFFF"/>
			<stop  offset="1" style="stop-color:#B2B3B6"/>
		</linearGradient>
		<path fill="url(#SVGID_25_)" d="M265.318,94.108c0,0-3.423,35.106-30.775,57.738c0,0,36.836,2.45,33.513-55.115
			c0,0-0.604-1.177-0.171-2.547C267.885,94.185,267.511,93.308,265.318,94.108z"/>
		
			<linearGradient id="SVGID_26_" gradientUnits="userSpaceOnUse" x1="1498.1191" y1="-292.4102" x2="1550.4266" y2="-292.4102" gradientTransform="matrix(-0.4996 -0.8663 0.8663 -0.4996 1282.4659 1300.1885)">
			<stop  offset="0" style="stop-color:#FFFFFF"/>
			<stop  offset="1" style="stop-color:#B2B3B6"/>
		</linearGradient>
		<path fill="url(#SVGID_26_)" d="M266.465,93.776c0,0,9.752,34.072-6.703,66.364c0,0,40.791-14.717,16.51-67.323
			c0,0-6.304,2.295-7.217,0.439C269.055,93.256,268.758,93.532,266.465,93.776z"/>
		
			<linearGradient id="SVGID_27_" gradientUnits="userSpaceOnUse" x1="1571.1201" y1="-219.9922" x2="1623.3545" y2="-219.9922" gradientTransform="matrix(-0.5935 -0.8049 0.8049 -0.5935 1405.4248 1283.1011)">
			<stop  offset="0" style="stop-color:#FFFFFF"/>
			<stop  offset="1" style="stop-color:#B2B3B6"/>
		</linearGradient>
		<path fill="url(#SVGID_27_)" d="M278.457,94.337c0,0,13.293,32.862,0.469,67.024c0,0,32.605-16.631,2.954-66.284
			c0,0,0.183,0.186-0.921-1.563C280.959,93.515,280.695,93.827,278.457,94.337z"/>
		
			<linearGradient id="SVGID_28_" gradientUnits="userSpaceOnUse" x1="1672.8506" y1="-106.5215" x2="1715.9363" y2="-106.5215" gradientTransform="matrix(-0.7097 -0.7044 0.7044 -0.7097 1569.9758 1241.3564)">
			<stop  offset="0" style="stop-color:#FFFFFF"/>
			<stop  offset="1" style="stop-color:#B2B3B6"/>
		</linearGradient>
		<path fill="url(#SVGID_28_)" d="M286.781,96.006c0,0,14.756,25.216,8.48,54.963c0,0,24.441-17.978-5.612-54.81
			c0,0,0.169,0.128-0.938-1.163C288.712,94.996,288.535,95.288,286.781,96.006z"/>
		
			<linearGradient id="SVGID_29_" gradientUnits="userSpaceOnUse" x1="1662.3594" y1="-97.6201" x2="1705.4441" y2="-97.6201" gradientTransform="matrix(-0.7097 -0.7044 0.7044 -0.7097 1569.9758 1241.3564)">
			<stop  offset="0" style="stop-color:#FFFFFF"/>
			<stop  offset="1" style="stop-color:#B2B3B6"/>
		</linearGradient>
		<path fill="url(#SVGID_29_)" d="M300.498,97.079c0,0,14.756,25.217,8.48,54.962c0,0,24.441-17.976-5.614-54.808
			c0,0,0.172,0.126-0.935-1.161C302.43,96.072,302.252,96.36,300.498,97.079z"/>
		
			<linearGradient id="SVGID_30_" gradientUnits="userSpaceOnUse" x1="1788.1973" y1="106.7725" x2="1819.3539" y2="106.7725" gradientTransform="matrix(-0.8638 -0.5038 0.5038 -0.8638 1823.7488 1122.6602)">
			<stop  offset="0" style="stop-color:#FFFFFF"/>
			<stop  offset="1" style="stop-color:#B2B3B6"/>
		</linearGradient>
		<path fill="url(#SVGID_30_)" d="M310.689,103.214c0,0,14.729,15.157,15.547,37.582c0,0,13.942-17.513-13.518-38.021
			c0,0,0.142,0.058-0.857-0.649C311.861,102.126,311.789,102.367,310.689,103.214z"/>
		
			<linearGradient id="SVGID_31_" gradientUnits="userSpaceOnUse" x1="1782.9961" y1="112.5293" x2="1814.1545" y2="112.5293" gradientTransform="matrix(-0.8638 -0.5038 0.5038 -0.8638 1823.7488 1122.6602)">
			<stop  offset="0" style="stop-color:#FFFFFF"/>
			<stop  offset="1" style="stop-color:#B2B3B6"/>
		</linearGradient>
		<path fill="url(#SVGID_31_)" d="M318.08,100.862c0,0,14.73,15.156,15.549,37.582c0,0,13.943-17.515-13.52-38.022
			c0,0,0.143,0.059-0.855-0.648C319.254,99.773,319.182,100.014,318.08,100.862z"/>
		
			<linearGradient id="SVGID_32_" gradientUnits="userSpaceOnUse" x1="234.3667" y1="-128.7144" x2="307.5879" y2="-128.7144" gradientTransform="matrix(0.8443 -0.5359 0.5359 0.8443 67.513 368.9611)">
			<stop  offset="0" style="stop-color:#FFFFFF"/>
			<stop  offset="1" style="stop-color:#B2B3B6"/>
		</linearGradient>
		<path fill="url(#SVGID_32_)" d="M254.158,90.251c0,0-30.408,39.376-64.09,34.448c0,0,35.988,30.879,70.174-32.113
			C260.242,92.586,257.328,91.054,254.158,90.251z"/>
		
			<linearGradient id="SVGID_33_" gradientUnits="userSpaceOnUse" x1="265.1509" y1="-50.8262" x2="301.5603" y2="-50.8262" gradientTransform="matrix(0.8947 -0.4465 0.4465 0.8947 10.9445 253.6634)">
			<stop  offset="0" style="stop-color:#FFFFFF"/>
			<stop  offset="1" style="stop-color:#B2B3B6"/>
		</linearGradient>
		<path fill="url(#SVGID_33_)" d="M263.491,84.997c0,0-22.952,5.243-44.953-9.496c0,0,8.172,26.843,44.8,12.246
			c0,0,2.153-0.679,3.163-0.657C266.501,87.09,264.594,86.396,263.491,84.997z"/>
		
			<linearGradient id="SVGID_34_" gradientUnits="userSpaceOnUse" x1="416.2666" y1="-247.4414" x2="465.3782" y2="-247.4414" gradientTransform="matrix(0.7331 -0.6801 0.6801 0.7331 83.6951 570.6019)">
			<stop  offset="0" style="stop-color:#FFFFFF"/>
			<stop  offset="1" style="stop-color:#B2B3B6"/>
		</linearGradient>
		<path fill="url(#SVGID_34_)" d="M269.428,86.102c0,0-42.703,13.123-63.613,4.052c0,0,21.133,26.682,64.206-1.339
			c0,0,1.862-1.291,2.827-1.569C272.848,87.245,270.85,87.134,269.428,86.102z"/>
		
			<linearGradient id="SVGID_35_" gradientUnits="userSpaceOnUse" x1="745.3564" y1="-431.7764" x2="782.3571" y2="-431.7764" gradientTransform="matrix(0.3968 -0.918 0.918 0.3968 341.011 971.1506)">
			<stop  offset="0" style="stop-color:#FFFFFF"/>
			<stop  offset="1" style="stop-color:#B2B3B6"/>
		</linearGradient>
		<path fill="url(#SVGID_35_)" d="M268.123,87.177c0,0-21.94,19.089-43.097,21.765c0,0,29.296,10.385,44.414-19.868
			c0,0,0.982-1.661,1.617-2.216C271.058,86.857,269.522,87.475,268.123,87.177z"/>
		
			<linearGradient id="SVGID_36_" gradientUnits="userSpaceOnUse" x1="938.6094" y1="-459.6021" x2="970.4515" y2="-459.6021" gradientTransform="matrix(0.1925 -0.9813 0.9813 0.1925 527.9453 1128.7822)">
			<stop  offset="0" style="stop-color:#FFFFFF"/>
			<stop  offset="1" style="stop-color:#B2B3B6"/>
		</linearGradient>
		<path fill="url(#SVGID_36_)" d="M270.215,87.945c0,0-11.932,22.021-28.604,28.166c0,0,27.712-0.543,37.021-24.657
			c-3.136,8.125,3.057-2.85,0.324,0.893C278.955,92.347,271.398,87.933,270.215,87.945z"/>
		
			<linearGradient id="SVGID_37_" gradientUnits="userSpaceOnUse" x1="961.167" y1="-455.8813" x2="993.1122" y2="-455.8813" gradientTransform="matrix(0.1651 -0.9863 0.9863 0.1651 554.3539 1146.4244)">
			<stop  offset="0" style="stop-color:#FFFFFF"/>
			<stop  offset="1" style="stop-color:#B2B3B6"/>
		</linearGradient>
		<path fill="url(#SVGID_37_)" d="M277.547,91.849c0,0-11.328,22.39-27.813,29.022c0,0,25.522,2.354,31.879-25.597
			c0,0,0.472-1.564,0.875-2.152C282.488,93.123,278.729,91.802,277.547,91.849z"/>
		
			<linearGradient id="SVGID_38_" gradientUnits="userSpaceOnUse" x1="1270.9297" y1="-421.7119" x2="1301.8772" y2="-421.7119" gradientTransform="matrix(-0.1786 -0.984 0.984 -0.1786 919.3538 1302.3861)">
			<stop  offset="0" style="stop-color:#FFFFFF"/>
			<stop  offset="1" style="stop-color:#B2B3B6"/>
		</linearGradient>
		<path fill="url(#SVGID_38_)" d="M279.958,93.95c0,0-3.09,23.996-15.522,35.512c0,0,23.114-6.438,20.139-33.787
			c0,0-0.067-1.572,0.109-2.235C284.684,93.439,280.98,93.509,279.958,93.95z"/>
		
			<linearGradient id="SVGID_39_" gradientUnits="userSpaceOnUse" x1="1489.6895" y1="-321.1626" x2="1521.0251" y2="-321.1626" gradientTransform="matrix(-0.4272 -0.9041 0.9041 -0.4272 1216.9496 1336.8785)">
			<stop  offset="0" style="stop-color:#FFFFFF"/>
			<stop  offset="1" style="stop-color:#B2B3B6"/>
		</linearGradient>
		<path fill="url(#SVGID_39_)" d="M284.125,94.11c0,0,2.982,24.257-6.052,38.867c0,0,20.501-12.552,10.891-38.438
			c0,0-0.452-1.515-0.448-2.21C288.516,92.33,284.992,93.404,284.125,94.11z"/>
		
			<linearGradient id="SVGID_40_" gradientUnits="userSpaceOnUse" x1="1635.7959" y1="-203.4756" x2="1667.246" y2="-203.4756" gradientTransform="matrix(-0.602 -0.7985 0.7985 -0.602 1451.1882 1310.3848)">
			<stop  offset="0" style="stop-color:#FFFFFF"/>
			<stop  offset="1" style="stop-color:#B2B3B6"/>
		</linearGradient>
		<path fill="url(#SVGID_40_)" d="M291.401,95.255c0,0,7.607,23.305,1.668,39.651c0,0,17.477-16.758,3.114-40.258
			c0,0-0.732-1.399-0.865-2.085C295.318,92.563,292.107,94.373,291.401,95.255z"/>
		
			<linearGradient id="SVGID_41_" gradientUnits="userSpaceOnUse" x1="1706.2627" y1="-121.4033" x2="1737.6979" y2="-121.4033" gradientTransform="matrix(-0.69 -0.7237 0.7237 -0.69 1579.2914 1276.8937)">
			<stop  offset="0" style="stop-color:#FFFFFF"/>
			<stop  offset="1" style="stop-color:#B2B3B6"/>
		</linearGradient>
		<path fill="url(#SVGID_41_)" d="M298.114,95.991c0,0,10.091,22.336,6.018,39.362c0,0,15.434-18.83-1.354-40.545
			c0,0-0.879-1.308-1.089-1.977C301.688,92.831,298.714,95.024,298.114,95.991z"/>
		
			<linearGradient id="SVGID_42_" gradientUnits="userSpaceOnUse" x1="1700.6777" y1="-114.5693" x2="1732.1147" y2="-114.5693" gradientTransform="matrix(-0.69 -0.7237 0.7237 -0.69 1579.2914 1276.8937)">
			<stop  offset="0" style="stop-color:#FFFFFF"/>
			<stop  offset="1" style="stop-color:#B2B3B6"/>
		</linearGradient>
		<path fill="url(#SVGID_42_)" d="M306.91,95.316c0,0,10.092,22.336,6.021,39.363c0,0,15.433-18.831-1.358-40.546
			c0,0-0.878-1.308-1.085-1.977C310.487,92.157,307.512,94.351,306.91,95.316z"/>
		
			<linearGradient id="SVGID_43_" gradientUnits="userSpaceOnUse" x1="1831.3408" y1="81.1431" x2="1857.1157" y2="81.1431" gradientTransform="matrix(-0.8464 -0.5325 0.5325 -0.8464 1837.5757 1159.4833)">
			<stop  offset="0" style="stop-color:#FFFFFF"/>
			<stop  offset="1" style="stop-color:#B2B3B6"/>
		</linearGradient>
		<path fill="url(#SVGID_43_)" d="M312.155,94.901c0,0,12.325,15.921,12.392,30.556c0,0,8.596-18.505-8.922-32.5
			c0,0-0.948-0.872-1.243-1.37C314.382,91.587,312.445,93.991,312.155,94.901z"/>
		
			<linearGradient id="SVGID_44_" gradientUnits="userSpaceOnUse" x1="468.1846" y1="-197.2734" x2="487.4553" y2="-197.2734" gradientTransform="matrix(0.748 -0.6637 0.6637 0.748 42.25 547.0498)">
			<stop  offset="0" style="stop-color:#FFFFFF"/>
			<stop  offset="1" style="stop-color:#B2B3B6"/>
		</linearGradient>
		<path fill="url(#SVGID_44_)" d="M280.195,80.945c0,0-10.95,6.032-24.051,1.577c0,0,7.679,12.721,24.334-0.132
			c0,0,1.004-0.659,1.518-0.798C281.996,81.592,280.941,81.51,280.195,80.945z"/>
		
			<linearGradient id="SVGID_45_" gradientUnits="userSpaceOnUse" x1="660.207" y1="-335.0547" x2="686.478" y2="-335.0547" gradientTransform="matrix(0.5313 -0.8472 0.8472 0.5313 194.2458 835.2911)">
			<stop  offset="0" style="stop-color:#FFFFFF"/>
			<stop  offset="1" style="stop-color:#B2B3B6"/>
		</linearGradient>
		<path fill="url(#SVGID_45_)" d="M283.353,80.659c0,0-19.931,12.966-31.732,11.29c0,0,14.234,10.764,32.391-9.972
			c0,0,0.774-0.936,1.226-1.219C285.236,80.758,284.209,80.986,283.353,80.659z"/>
		
			<linearGradient id="SVGID_46_" gradientUnits="userSpaceOnUse" x1="1004.6279" y1="-423.0464" x2="1024.6534" y2="-423.0464" gradientTransform="matrix(0.1447 -0.9895 0.9895 0.1447 545.7861 1155.4703)">
			<stop  offset="0" style="stop-color:#FFFFFF"/>
			<stop  offset="1" style="stop-color:#B2B3B6"/>
		</linearGradient>
		<path fill="url(#SVGID_46_)" d="M282.832,81.403c0,0-8.615,13.057-18.992,17.499c0,0,16.227,1.148,19.91-16.708
			c0,0,0.279-1.002,0.528-1.38C284.278,80.814,283.58,81.356,282.832,81.403z"/>
		
			<linearGradient id="SVGID_47_" gradientUnits="userSpaceOnUse" x1="1190.209" y1="-404.8477" x2="1207.4354" y2="-404.8477" gradientTransform="matrix(-0.069 -0.9976 0.9976 -0.069 767.8224 1259.0419)">
			<stop  offset="0" style="stop-color:#FFFFFF"/>
			<stop  offset="1" style="stop-color:#B2B3B6"/>
		</linearGradient>
		<path fill="url(#SVGID_47_)" d="M283.993,81.501c0,0-3.15,13.128-10.796,18.719c0,0,13.982-4.287,15.527-18.12
			c-0.52,4.664,1.175-1.917,0.282,0.415C289.007,82.515,284.591,81.321,283.993,81.501z"/>
		
			<linearGradient id="SVGID_48_" gradientUnits="userSpaceOnUse" x1="1212.2764" y1="-396.7256" x2="1229.5553" y2="-396.7256" gradientTransform="matrix(-0.0968 -0.9953 0.9953 -0.0968 797.4917 1268.9727)">
			<stop  offset="0" style="stop-color:#FFFFFF"/>
			<stop  offset="1" style="stop-color:#B2B3B6"/>
		</linearGradient>
		<path fill="url(#SVGID_48_)" d="M288.227,82.464c0,0-2.795,13.231-10.281,19.047c0,0,13.256-2.467,12.796-17.861
			c0,0,0.032-0.879,0.159-1.24C290.9,82.409,288.818,82.268,288.227,82.464z"/>
		
			<linearGradient id="SVGID_49_" gradientUnits="userSpaceOnUse" x1="1335.293" y1="-361.2949" x2="1351.7823" y2="-361.2949" gradientTransform="matrix(-0.2399 -0.9708 0.9708 -0.2399 961.2886 1309.8564)">
			<stop  offset="0" style="stop-color:#FFFFFF"/>
			<stop  offset="1" style="stop-color:#B2B3B6"/>
		</linearGradient>
		<path fill="url(#SVGID_49_)" d="M290.469,82.511c0,0-0.868,12.852-7.072,19.401c0,0,12.01-4.226,9.565-18.647
			c0,0-0.085-0.832-0.014-1.19C292.948,82.074,290.994,82.241,290.469,82.511z"/>
		
			<linearGradient id="SVGID_50_" gradientUnits="userSpaceOnUse" x1="1440.6484" y1="-311.0498" x2="1457.241" y2="-311.0498" gradientTransform="matrix(-0.3673 -0.9301 0.9301 -0.3673 1113.6395 1326.3744)">
			<stop  offset="0" style="stop-color:#FFFFFF"/>
			<stop  offset="1" style="stop-color:#B2B3B6"/>
		</linearGradient>
		<path fill="url(#SVGID_50_)" d="M293.1,82.959c0,0,0.781,12.924-4.503,20.316c0,0,11.304-5.891,7.058-19.915
			c0,0-0.191-0.816-0.166-1.181C295.488,82.18,293.584,82.618,293.1,82.959z"/>
		
			<linearGradient id="SVGID_51_" gradientUnits="userSpaceOnUse" x1="1664.8916" y1="-152.3682" x2="1681.5853" y2="-152.3682" gradientTransform="matrix(-0.6246 -0.7809 0.7809 -0.6246 1460.9584 1304.0454)">
			<stop  offset="0" style="stop-color:#FFFFFF"/>
			<stop  offset="1" style="stop-color:#B2B3B6"/>
		</linearGradient>
		<path fill="url(#SVGID_51_)" d="M294.954,82.603c0,0,4.37,12.256,1.459,21.035c0,0,9.019-9.181,1.066-21.434
			c0,0-0.409-0.73-0.489-1.092C296.99,81.111,295.314,82.123,294.954,82.603z"/>
		
			<linearGradient id="SVGID_52_" gradientUnits="userSpaceOnUse" x1="1663.7803" y1="-148.873" x2="1676.9818" y2="-148.873" gradientTransform="matrix(-0.6246 -0.7809 0.7809 -0.6246 1460.9584 1304.0454)">
			<stop  offset="0" style="stop-color:#FFFFFF"/>
			<stop  offset="1" style="stop-color:#B2B3B6"/>
		</linearGradient>
		<path fill="url(#SVGID_52_)" d="M299.868,84.74c0,0,3.456,9.693,1.155,16.633c0,0,7.131-7.258,0.844-16.948
			c0,0-0.325-0.578-0.389-0.863C301.479,83.562,300.154,84.36,299.868,84.74z"/>
		
			<linearGradient id="SVGID_53_" gradientUnits="userSpaceOnUse" x1="1794.4238" y1="9.2002" x2="1807.5776" y2="9.2002" gradientTransform="matrix(-0.7814 -0.624 0.624 -0.7814 1706.4717 1223.3499)">
			<stop  offset="0" style="stop-color:#FFFFFF"/>
			<stop  offset="1" style="stop-color:#B2B3B6"/>
		</linearGradient>
		<path fill="url(#SVGID_53_)" d="M301.773,84.919c0,0,5.385,8.737,4.622,16.097c0,0,5.364-8.79-2.756-16.871
			c0,0-0.435-0.493-0.556-0.761C303.084,83.385,301.969,84.478,301.773,84.919z"/>
		
			<linearGradient id="SVGID_54_" gradientUnits="userSpaceOnUse" x1="1791.6064" y1="10.6245" x2="1804.7603" y2="10.6245" gradientTransform="matrix(-0.7814 -0.624 0.624 -0.7814 1706.4717 1223.3499)">
			<stop  offset="0" style="stop-color:#FFFFFF"/>
			<stop  offset="1" style="stop-color:#B2B3B6"/>
		</linearGradient>
		<path fill="url(#SVGID_54_)" d="M304.863,85.563c0,0,5.385,8.738,4.622,16.099c0,0,5.364-8.789-2.755-16.871
			c0,0-0.438-0.495-0.557-0.762C306.174,84.029,305.061,85.122,304.863,85.563z"/>
		
			<linearGradient id="SVGID_55_" gradientUnits="userSpaceOnUse" x1="1880.7236" y1="186.4238" x2="1893.7509" y2="186.4238" gradientTransform="matrix(-0.8951 -0.4457 0.4457 -0.8951 1918.366 1099.9341)">
			<stop  offset="0" style="stop-color:#FFFFFF"/>
			<stop  offset="1" style="stop-color:#B2B3B6"/>
		</linearGradient>
		<path fill="url(#SVGID_55_)" d="M307.656,85.299c0,0,6.974,7.428,7.712,14.851c0,0,3.436-9.845-6.06-16.024
			c0,0-0.521-0.39-0.693-0.626C308.615,83.5,307.756,84.821,307.656,85.299z"/>
		
			<linearGradient id="SVGID_56_" gradientUnits="userSpaceOnUse" x1="558.5732" y1="-250.1895" x2="570.1882" y2="-250.1895" gradientTransform="matrix(0.6775 -0.7355 0.7355 0.6775 86.4825 662.5815)">
			<stop  offset="0" style="stop-color:#FFFFFF"/>
			<stop  offset="1" style="stop-color:#B2B3B6"/>
		</linearGradient>
		<path fill="url(#SVGID_56_)" d="M290.465,76.024c0,0-5.499,4.945-12.631,3.312c0,0,4.698,6.326,12.819-1.433
			c0,0,1.477-1.558,1.304-1.917C291.957,75.986,291.131,75.782,290.465,76.024z"/>
		
			<linearGradient id="SVGID_57_" gradientUnits="userSpaceOnUse" x1="765.5957" y1="-363.2959" x2="780.0707" y2="-363.2959" gradientTransform="matrix(0.4435 -0.8963 0.8963 0.4435 267.1919 934.3691)">
			<stop  offset="0" style="stop-color:#FFFFFF"/>
			<stop  offset="1" style="stop-color:#B2B3B6"/>
		</linearGradient>
		<path fill="url(#SVGID_57_)" d="M291.413,75.9c0,0-9.278,8.752-15.583,8.521c0,0,8.052,4.922,16.561-7.108
			c0,0,0.465-0.99,0.689-1.165C293.08,76.148,292.504,75.882,291.413,75.9z"/>
		
			<linearGradient id="SVGID_58_" gradientUnits="userSpaceOnUse" x1="1113.6035" y1="-410.1514" x2="1123.9421" y2="-410.1514" gradientTransform="matrix(0.0445 -0.999 0.999 0.0445 648.6104 1217.2694)">
			<stop  offset="0" style="stop-color:#FFFFFF"/>
			<stop  offset="1" style="stop-color:#B2B3B6"/>
		</linearGradient>
		<path fill="url(#SVGID_58_)" d="M292.521,75.945c0,0-3.873,7.419-9.115,10.359c0,0,9.447-0.359,10.476-10.046
			c0,0,0.079-0.114-0.021,0.048C293.861,76.307,292.913,75.879,292.521,75.945z"/>
		
			<linearGradient id="SVGID_59_" gradientUnits="userSpaceOnUse" x1="1292.4541" y1="-376.0342" x2="1302.4589" y2="-376.0342" gradientTransform="matrix(-0.1689 -0.9857 0.9857 -0.1689 881.1874 1297.2766)">
			<stop  offset="0" style="stop-color:#FFFFFF"/>
			<stop  offset="1" style="stop-color:#B2B3B6"/>
		</linearGradient>
		<path fill="url(#SVGID_59_)" d="M292.963,76.127c0,0-1.596,8.081-5.338,11.481c0,0,7.669-2.575,7.777-10.009
			c-0.035,2.507,0.089-1.168-0.373-1.128C295.029,76.471,293.27,76,292.963,76.127z"/>
		
			<linearGradient id="SVGID_60_" gradientUnits="userSpaceOnUse" x1="1315.5225" y1="-365.7017" x2="1325.6051" y2="-365.7017" gradientTransform="matrix(-0.1963 -0.9805 0.9805 -0.1963 910.9778 1305.3127)">
			<stop  offset="0" style="stop-color:#FFFFFF"/>
			<stop  offset="1" style="stop-color:#B2B3B6"/>
		</linearGradient>
		<path fill="url(#SVGID_60_)" d="M294.696,76.422c0,0-0.855,8.096-4.504,11.604c0,0,7.097-2.21,6.066-10.36
			c0,0-0.088-0.672-0.04-0.87C296.219,76.796,295,76.287,294.696,76.422z"/>
		
			<linearGradient id="SVGID_61_" gradientUnits="userSpaceOnUse" x1="1431.8164" y1="-318.1689" x2="1441.1339" y2="-318.1689" gradientTransform="matrix(-0.3363 -0.9418 0.9418 -0.3363 1077.8668 1328.332)">
			<stop  offset="0" style="stop-color:#FFFFFF"/>
			<stop  offset="1" style="stop-color:#B2B3B6"/>
		</linearGradient>
		<path fill="url(#SVGID_61_)" d="M296.052,76.773c0,0,0.043,7.507-2.893,11.334c0,0,6.112-2.918,4.089-10.441
			c0,0-0.088-0.438-0.068-0.631C297.18,77.036,296.566,76.544,296.052,76.773z"/>
		
			<linearGradient id="SVGID_62_" gradientUnits="userSpaceOnUse" x1="1531.7295" y1="-257.5972" x2="1540.6521" y2="-257.5972" gradientTransform="matrix(-0.459 -0.8885 0.8885 -0.459 1230.8259 1329.1378)">
			<stop  offset="0" style="stop-color:#FFFFFF"/>
			<stop  offset="1" style="stop-color:#B2B3B6"/>
		</linearGradient>
		<path fill="url(#SVGID_62_)" d="M296.824,77.039c0,0,0.906,7.012-1.499,11.234c0,0,6.525-3.345,3.57-10.557
			c0,0-0.257-0.159-1.063-0.414C297.833,77.303,297.258,76.923,296.824,77.039z"/>
		
			<linearGradient id="SVGID_63_" gradientUnits="userSpaceOnUse" x1="1531.5234" y1="-255.6909" x2="1538.9954" y2="-255.6909" gradientTransform="matrix(-0.459 -0.8885 0.8885 -0.459 1230.8259 1329.1378)">
			<stop  offset="0" style="stop-color:#FFFFFF"/>
			<stop  offset="1" style="stop-color:#B2B3B6"/>
		</linearGradient>
		<path fill="url(#SVGID_63_)" d="M298.948,77.874c0,0,0.761,5.873-1.255,9.407c0,0,5.464-2.801,2.988-8.837
			c0,0-0.214-0.135-0.887-0.348C299.795,78.097,299.312,77.778,298.948,77.874z"/>
		
			<linearGradient id="SVGID_64_" gradientUnits="userSpaceOnUse" x1="1530.9619" y1="-253.9248" x2="1537.2401" y2="-253.9248" gradientTransform="matrix(-0.459 -0.8885 0.8885 -0.459 1230.8259 1329.1378)">
			<stop  offset="0" style="stop-color:#FFFFFF"/>
			<stop  offset="1" style="stop-color:#B2B3B6"/>
		</linearGradient>
		<path fill="url(#SVGID_64_)" d="M301.049,78.821c0,0,0.641,4.934-1.053,7.903c0,0,4.592-2.352,2.512-7.428
			c0,0-0.182-0.108-0.75-0.29C301.758,79.007,301.354,78.74,301.049,78.821z"/>
		
			<linearGradient id="SVGID_65_" gradientUnits="userSpaceOnUse" x1="1529.7734" y1="-253.064" x2="1536.0507" y2="-253.064" gradientTransform="matrix(-0.459 -0.8885 0.8885 -0.459 1230.8259 1329.1378)">
			<stop  offset="0" style="stop-color:#FFFFFF"/>
			<stop  offset="1" style="stop-color:#B2B3B6"/>
		</linearGradient>
		<path fill="url(#SVGID_65_)" d="M302.361,79.481c0,0,0.639,4.933-1.055,7.903c0,0,4.591-2.352,2.512-7.425
			c0,0-0.181-0.113-0.747-0.292C303.071,79.668,302.666,79.4,302.361,79.481z"/>
		
			<linearGradient id="SVGID_66_" gradientUnits="userSpaceOnUse" x1="1529.3857" y1="-251.7275" x2="1534.4684" y2="-251.7275" gradientTransform="matrix(-0.459 -0.8885 0.8885 -0.459 1230.8259 1329.1378)">
			<stop  offset="0" style="stop-color:#FFFFFF"/>
			<stop  offset="1" style="stop-color:#B2B3B6"/>
		</linearGradient>
		<path fill="url(#SVGID_66_)" d="M304.004,80.471c0,0,0.516,3.993-0.855,6.398c0,0,3.718-1.906,2.033-6.014
			c0,0-0.146-0.091-0.605-0.236C304.576,80.62,304.248,80.404,304.004,80.471z"/>
		
			<linearGradient id="SVGID_67_" gradientUnits="userSpaceOnUse" x1="1528.1982" y1="-250.8652" x2="1533.2827" y2="-250.8652" gradientTransform="matrix(-0.459 -0.8885 0.8885 -0.459 1230.8259 1329.1378)">
			<stop  offset="0" style="stop-color:#FFFFFF"/>
			<stop  offset="1" style="stop-color:#B2B3B6"/>
		</linearGradient>
		<path fill="url(#SVGID_67_)" d="M305.313,81.129c0,0,0.52,3.995-0.854,6.401c0,0,3.718-1.906,2.035-6.015
			c0,0-0.147-0.089-0.604-0.235C305.89,81.28,305.56,81.065,305.313,81.129z"/>
		
			<linearGradient id="SVGID_68_" gradientUnits="userSpaceOnUse" x1="1571.5557" y1="-301.6201" x2="1576.6411" y2="-301.6201" gradientTransform="matrix(-0.4205 -0.8142 0.8338 -0.4307 1220.2799 1236.6333)">
			<stop  offset="0" style="stop-color:#FFFFFF"/>
			<stop  offset="1" style="stop-color:#B2B3B6"/>
		</linearGradient>
		<path fill="url(#SVGID_68_)" d="M306.898,82.063c0,0,0.449,3.673-0.852,5.902c0,0,3.486-1.791,1.951-5.559
			c0,0-0.137-0.081-0.563-0.21C307.436,82.195,307.129,81.999,306.898,82.063z"/>
		
			<linearGradient id="SVGID_69_" gradientUnits="userSpaceOnUse" x1="261.0078" y1="75.4043" x2="294.1989" y2="75.4043" gradientTransform="matrix(0.9397 -0.342 0.342 0.9397 26.5941 126.1641)">
			<stop  offset="0" style="stop-color:#FFFFFF"/>
			<stop  offset="1" style="stop-color:#B2B3B6"/>
		</linearGradient>
		<path fill="url(#SVGID_69_)" d="M340.973,127.401c0,0-7.557-12.921-15.199-18.227c0,0-8.953-15.445-12.402-17.729
			c0,0-5.526-7.339-14.059-11.817c0,0-6.814-4.344-13.024-3.095c0,0,6.255-3.645,17.53,3.425c0,0,12.47,5.118,24.084,25.913
			C327.902,105.872,340.165,117.332,340.973,127.401z"/>
	</g>
</g>
<g>
	<path opacity="0.4" fill="#434343" d="M368.724,133.637c0,0,0.207-0.352,0.581-0.955c-1.956,8.873,3.306,14.285,3.306,14.285
		c-0.179-3.209,0.02-6.248,0.46-9.08c0.991,4.26,2.999,6.791,2.999,6.791c0.004-0.059,0.01-0.113,0.012-0.172
		c1.316,5.85,4.826,9.041,4.826,9.041c-0.465-4.117-0.402-8.037,0.002-11.689c0.723,2.256,1.657,3.855,2.17,4.633
		c1.254,9.574,7.707,14.264,7.707,14.264c-1.588-7.328-1.632-14.268-0.911-20.414c0.546,0.088,1.096,0.172,1.652,0.258
		c0.27,2.535,0.847,4.791,1.585,6.775c-0.932,13.066,7.843,19.439,7.843,19.439c-0.698-3.227-1.095-6.373-1.263-9.414
		c0.629,0.588,1.025,0.879,1.025,0.879c-0.482-2.289-0.827-4.549-1.078-6.777c0.129-3.373,0.52-6.561,1.063-9.51
		c1.149,0.17,2.291,0.338,3.42,0.504c-5.879,18.227,6.297,27.088,6.297,27.088c-1.409-6.498-1.602-12.688-1.128-18.291
		c0.965,1.527,1.946,2.758,2.796,3.691c0.016,17.127,12.537,23.582,12.537,23.582c-2.758-7.422-3.993-14.699-4.333-21.398
		c1.048,1.717,2.174,3.201,3.287,4.463c1.629,22.955,18.995,30.703,18.995,30.703c-5.652-13.061-7.738-25.994-8.047-37.34
		c0.837,1.006,1.697,1.934,2.56,2.789c4.892,35.824,33.349,38.986,33.349,38.986c-5.799-6.832-10.317-14.006-13.856-21.131
		c4.458,3.338,8.932,5.15,12.348,6.129c15.864,15.67,35.112,13.211,35.112,13.211c-12.454-9.066-21.92-19.744-29.107-30.363
		c4.174,2.373,8.329,3.955,12.122,5.006c27.636,27.725,59.055,14.248,59.055,14.248c-17.62-6.258-32.093-15.5-43.772-25.416
		c1.98,0.32,3.848,0.516,5.563,0.625c41.403,33.414,78.954,6.773,78.954,6.773c-23.733-2.746-43.985-10.516-60.521-19.754
		c0.815-0.135,1.615-0.283,2.396-0.443c71.455,34.471,112.951-19.258,112.951-19.258c-33.069,6.875-63.275,5-88.595-0.348
		c0.944-0.43,1.856-0.881,2.741-1.35c122.701,9.926,147.641-88.538,147.641-88.538c-43.215,32.156-88.006,47.906-125.932,55.279
		c65.03-25.127,65.52-85.204,65.52-85.204c-33.869,41.347-74.76,63.06-105.594,74.328c3.812-6.155,5.004-11.17,5.004-11.17
		c-20.92,16.09-43.02,21.498-58.885,23.086c5.76-4.777,7.581-10.742,7.581-10.742c-16.196,10.85-32.896,10.872-40.587,10.129
		c2.002-1.497,2.979-3.107,2.979-3.107c-3.772,1.283-7.366,1.693-10.572,1.631c-4.921-1.361-8.868-2.839-11.803-4.105
		c0.443-0.396,0.687-0.711,0.687-0.711c-0.583,0.134-1.153,0.208-1.716,0.261c-3.434-1.545-5.213-2.674-5.213-2.674
		c-0.535-0.17-1.065-0.306-1.597-0.428c-0.718-0.37-6.874-3.173-17.459,3.464c0,0-1.587,0.655-4.146,2.429
		c-0.022,0.01-0.03,0.017-0.03,0.017c-0.002,0.003-0.003,0.006-0.004,0.009c-4.636,3.218-12.442,10.101-19.902,23.458
		C381.796,112.107,369.534,123.568,368.724,133.637z M446.194,93.972c0.024-0.005,0.047-0.013,0.069-0.02
		c0.062,0.021,0.096,0.03,0.096,0.03c0.093,0.036,0.177,0.064,0.269,0.101C446.48,94.044,446.336,94.008,446.194,93.972z
		 M412.901,143.762c0.256,0.035,0.506,0.072,0.756,0.107c-0.246,0.914-0.456,1.807-0.641,2.682
		C412.962,145.613,412.924,144.684,412.901,143.762z"/>
	<g>
		
			<linearGradient id="SVGID_70_" gradientUnits="userSpaceOnUse" x1="349.9268" y1="202.4014" x2="406.0452" y2="202.4014" gradientTransform="matrix(-0.9397 -0.342 -0.342 0.9397 828.4792 47.4043)">
			<stop  offset="0" style="stop-color:#FFFFFF"/>
			<stop  offset="1" style="stop-color:#B2B3B6"/>
		</linearGradient>
		<path fill="url(#SVGID_70_)" d="M363.709,130.375c0,0,25.98-62.662,54.991-53.452c0,0,7.373,4.694,21.275,8.074l-8.19,29.206
			l-11.104,25.279C420.681,139.482,369.732,132.57,363.709,130.375z"/>
		
			<linearGradient id="SVGID_71_" gradientUnits="userSpaceOnUse" x1="182.9453" y1="205.4893" x2="322.0731" y2="205.4893" gradientTransform="matrix(-0.9874 -0.1584 -0.1584 0.9874 840.9536 -114.4059)">
			<stop  offset="0" style="stop-color:#FFFFFF"/>
			<stop  offset="1" style="stop-color:#B2B3B6"/>
		</linearGradient>
		<path fill="url(#SVGID_71_)" d="M484.826,86.065c0,0,88.38-8.411,151.996-86.064c0,0-0.816,104.06-148.513,95.563
			c0,0-9.518-0.812-13.142,0.442C475.168,96.006,482.341,92.283,484.826,86.065z"/>
		
			<linearGradient id="SVGID_72_" gradientUnits="userSpaceOnUse" x1="425.6982" y1="-166.2837" x2="562.7611" y2="-166.2837" gradientTransform="matrix(-0.663 -0.7486 -0.7486 0.663 751.199 587.4177)">
			<stop  offset="0" style="stop-color:#FFFFFF"/>
			<stop  offset="1" style="stop-color:#B2B3B6"/>
		</linearGradient>
		<path fill="url(#SVGID_72_)" d="M469.498,87.826c0,0,71.264,52.018,165.946,32.333c0,0-63.663,82.484-169.096-22.436
			c0,0-6.633-6.973-10.108-8.382C456.24,89.34,463.866,91.137,469.498,87.826z"/>
		
			<linearGradient id="SVGID_73_" gradientUnits="userSpaceOnUse" x1="634.8076" y1="-257.5576" x2="741.9142" y2="-257.5576" gradientTransform="matrix(-0.406 -0.9139 -0.9139 0.406 564.1968 862.3271)">
			<stop  offset="0" style="stop-color:#FFFFFF"/>
			<stop  offset="1" style="stop-color:#B2B3B6"/>
		</linearGradient>
		<path fill="url(#SVGID_73_)" d="M467.454,95.129c0,0,40.121,56.033,113.164,64.484c0,0-64.505,45.787-117.647-57.897
			c0,0-3.259-6.799-5.468-8.693C457.503,93.023,462.635,96.216,467.454,95.129z"/>
		
			<linearGradient id="SVGID_74_" gradientUnits="userSpaceOnUse" x1="794.5732" y1="-280.6367" x2="888.5532" y2="-280.6367" gradientTransform="matrix(-0.2034 -0.9791 -0.9791 0.2034 390.9788 1020.7045)">
			<stop  offset="0" style="stop-color:#FFFFFF"/>
			<stop  offset="1" style="stop-color:#B2B3B6"/>
		</linearGradient>
		<path fill="url(#SVGID_74_)" d="M456.336,100.984c0,0,23.819,55.442,83.538,76.647c0,0-62.051,26.643-88.446-71.891
			c0,0-1.542-6.421-3.061-8.458C448.367,97.282,452.108,100.988,456.336,100.984z"/>
		
			<linearGradient id="SVGID_75_" gradientUnits="userSpaceOnUse" x1="1001.9795" y1="-269.7954" x2="1083.087" y2="-269.7954" gradientTransform="matrix(0.0672 -0.9978 -0.9978 -0.0672 130.2528 1168.7318)">
			<stop  offset="0" style="stop-color:#FFFFFF"/>
			<stop  offset="1" style="stop-color:#B2B3B6"/>
		</linearGradient>
		<path fill="url(#SVGID_75_)" d="M447.097,105.674c0,0,7.158,51.357,50.708,83.066c0,0-55.829,7.166-55.698-80.32
			c0,0,0.15-5.656-0.631-7.698C441.476,100.722,443.688,104.668,447.097,105.674z"/>
		
			<linearGradient id="SVGID_76_" gradientUnits="userSpaceOnUse" x1="1173.96" y1="-217.9404" x2="1243.2303" y2="-217.9404" gradientTransform="matrix(0.2906 -0.9568 -0.9568 -0.2906 -110.9216 1243.0353)">
			<stop  offset="0" style="stop-color:#FFFFFF"/>
			<stop  offset="1" style="stop-color:#B2B3B6"/>
		</linearGradient>
		<path fill="url(#SVGID_76_)" d="M438.04,111.621c0,0-3.506,43.969,26.164,78.91c0,0-46.727-5.189-30.725-77.631
			c0,0,1.152-4.654,0.885-6.5C434.364,106.4,435.449,110.107,438.04,111.621z"/>
		
			<linearGradient id="SVGID_77_" gradientUnits="userSpaceOnUse" x1="1375.5146" y1="-114.5845" x2="1437.481" y2="-114.5845" gradientTransform="matrix(0.553 -0.8332 -0.8332 -0.553 -439.9861 1255.6572)">
			<stop  offset="0" style="stop-color:#FFFFFF"/>
			<stop  offset="1" style="stop-color:#B2B3B6"/>
		</linearGradient>
		<path fill="url(#SVGID_77_)" d="M433.568,111.318c0,0-13.639,36.844,2.771,74.777c0,0-37.962-16.92-6.909-74.895
			c0,0,2.096-3.691,2.323-5.352C431.754,105.85,431.762,109.326,433.568,111.318z"/>
		
			<linearGradient id="SVGID_78_" gradientUnits="userSpaceOnUse" x1="1410.9277" y1="-76.5488" x2="1455.632" y2="-76.5488" gradientTransform="matrix(0.5964 -0.8027 -0.8027 -0.5964 -498.6417 1248.9226)">
			<stop  offset="0" style="stop-color:#FFFFFF"/>
			<stop  offset="1" style="stop-color:#B2B3B6"/>
		</linearGradient>
		<path fill="url(#SVGID_78_)" d="M419.128,118.252c0,0-11.146,26.043-0.737,54.076c0,0-26.667-13.732-2.23-54.326
			c0,0,1.642-2.58,1.863-3.768C418.023,114.234,417.905,116.742,419.128,118.252z"/>
		
			<linearGradient id="SVGID_79_" gradientUnits="userSpaceOnUse" x1="1496.7314" y1="6.063" x2="1534.275" y2="6.063" gradientTransform="matrix(0.7055 -0.7086 -0.7086 -0.7055 -658.0898 1217.7767)">
			<stop  offset="0" style="stop-color:#FFFFFF"/>
			<stop  offset="1" style="stop-color:#B2B3B6"/>
		</linearGradient>
		<path fill="url(#SVGID_79_)" d="M411.04,118.205c0,0-12.227,20.373-6.855,45.141c0,0-20.471-14.863,4.426-45.725
			c0,0,1.656-1.951,1.979-2.916C410.589,114.705,410.199,116.787,411.04,118.205z"/>
		
			<linearGradient id="SVGID_80_" gradientUnits="userSpaceOnUse" x1="1492.0186" y1="14.7227" x2="1529.5631" y2="14.7227" gradientTransform="matrix(0.7055 -0.7086 -0.7086 -0.7055 -658.0898 1217.7767)">
			<stop  offset="0" style="stop-color:#FFFFFF"/>
			<stop  offset="1" style="stop-color:#B2B3B6"/>
		</linearGradient>
		<path fill="url(#SVGID_80_)" d="M401.577,115.434c0,0-12.227,20.375-6.854,45.143c0,0-20.473-14.861,4.426-45.725
			c0,0,1.656-1.951,1.977-2.918C401.126,111.934,400.735,114.016,401.577,115.434z"/>
		
			<linearGradient id="SVGID_81_" gradientUnits="userSpaceOnUse" x1="1489.1357" y1="26.2051" x2="1526.6813" y2="26.2051" gradientTransform="matrix(0.7055 -0.7086 -0.7086 -0.7055 -658.0898 1217.7767)">
			<stop  offset="0" style="stop-color:#FFFFFF"/>
			<stop  offset="1" style="stop-color:#B2B3B6"/>
		</linearGradient>
		<path fill="url(#SVGID_81_)" d="M391.407,109.375c0,0-12.229,20.375-6.854,45.143c0,0-20.471-14.863,4.426-45.727
			c0,0,1.656-1.949,1.978-2.916C390.957,105.875,390.565,107.957,391.407,109.375z"/>
		
			<linearGradient id="SVGID_82_" gradientUnits="userSpaceOnUse" x1="1541.9053" y1="91.8882" x2="1573.9105" y2="91.8882" gradientTransform="matrix(0.7757 -0.6312 -0.6312 -0.7757 -771.5597 1181.9271)">
			<stop  offset="0" style="stop-color:#FFFFFF"/>
			<stop  offset="1" style="stop-color:#B2B3B6"/>
		</linearGradient>
		<path fill="url(#SVGID_82_)" d="M384.321,109.424c0,0-12.086,16.246-9.648,37.889c0,0-16.063-14.6,7.643-38.613
			c0,0,1.57-1.51,1.924-2.307C384.239,106.393,383.729,108.135,384.321,109.424z"/>
		
			<linearGradient id="SVGID_83_" gradientUnits="userSpaceOnUse" x1="1569.1465" y1="135.2354" x2="1595.3124" y2="135.2354" gradientTransform="matrix(0.8111 -0.5848 -0.5848 -0.8111 -833.5128 1159.5161)">
			<stop  offset="0" style="stop-color:#FFFFFF"/>
			<stop  offset="1" style="stop-color:#B2B3B6"/>
		</linearGradient>
		<path fill="url(#SVGID_83_)" d="M375.98,110.164c0,0-10.604,12.707-9.604,30.566c0,0-12.438-12.771,8-31.262
			c0,0,1.349-1.158,1.675-1.793C376.052,107.676,375.557,109.078,375.98,110.164z"/>
		
			<linearGradient id="SVGID_84_" gradientUnits="userSpaceOnUse" x1="189.9653" y1="32.124" x2="373.162" y2="32.124" gradientTransform="matrix(-0.9161 -0.401 -0.401 0.9161 853.2168 149.3721)">
			<stop  offset="0" style="stop-color:#FFFFFF"/>
			<stop  offset="1" style="stop-color:#B2B3B6"/>
		</linearGradient>
		<path fill="url(#SVGID_84_)" d="M475.385,88.912c0,0,115.688,20.01,221.849-58.988c0,0-34.305,135.461-220.432,72.604
			c0,0-11.907-4.397-16.945-4.032C459.856,98.495,470.217,96.152,475.385,88.912z"/>
		
			<linearGradient id="SVGID_85_" gradientUnits="userSpaceOnUse" x1="232.5132" y1="132.7441" x2="330.2709" y2="132.7441" gradientTransform="matrix(-0.9468 -0.322 -0.322 0.9468 839.1791 38.7508)">
			<stop  offset="0" style="stop-color:#FFFFFF"/>
			<stop  offset="1" style="stop-color:#B2B3B6"/>
		</linearGradient>
		<path fill="url(#SVGID_85_)" d="M474.129,91.014c0,0,62.355,5.114,115.393-41.606c0,0-12.415,73.151-114.054,48.729
			c0,0-6.521-1.759-9.179-1.329C466.289,96.808,471.696,95.083,474.129,91.014z"/>
		
			<linearGradient id="SVGID_86_" gradientUnits="userSpaceOnUse" x1="358.3848" y1="-55.9585" x2="405.2321" y2="-55.043" gradientTransform="matrix(-0.7886 -0.6149 -0.6149 0.7886 798.8785 389.5054)">
			<stop  offset="0" style="stop-color:#FFFFFF"/>
			<stop  offset="1" style="stop-color:#B2B3B6"/>
		</linearGradient>
		<path fill="url(#SVGID_86_)" d="M468.386,97.875c0,0,48.249,22.493,102.964-0.124c0,0-29.468,56.154-103.809,6.341
			c0,0-4.714-3.354-6.945-3.786C460.596,100.306,465.358,100.485,468.386,97.875z"/>
		
			<linearGradient id="SVGID_87_" gradientUnits="userSpaceOnUse" x1="570.5918" y1="-212.75" x2="615.0467" y2="-211.8813" gradientTransform="matrix(-0.5147 -0.8573 -0.8573 0.5147 626.5717 746.8097)">
			<stop  offset="0" style="stop-color:#FFFFFF"/>
			<stop  offset="1" style="stop-color:#B2B3B6"/>
		</linearGradient>
		<path fill="url(#SVGID_87_)" d="M462.95,99.198c0,0,30.762,33.169,79.538,32.498c0,0-50.486,33.73-93.509-29.431
			c0,0,1.325-8.656-0.274-9.706C448.705,92.558,459.859,100.316,462.95,99.198z"/>
		
			<linearGradient id="SVGID_88_" gradientUnits="userSpaceOnUse" x1="836.5195" y1="-297.9746" x2="873.8377" y2="-297.2453" gradientTransform="matrix(-0.1667 -0.986 -0.986 0.1667 330.3939 1031.7241)">
			<stop  offset="0" style="stop-color:#FFFFFF"/>
			<stop  offset="1" style="stop-color:#B2B3B6"/>
		</linearGradient>
		<path fill="url(#SVGID_88_)" d="M457.475,97.866c0,0,14.873,38.501,55.031,54.58c0,0-52.72,10.021-68.301-57.985
			c0,0,8.917,2.094,7.932,0.664C452.137,95.125,454.595,97.755,457.475,97.866z"/>
		
			<linearGradient id="SVGID_89_" gradientUnits="userSpaceOnUse" x1="955.8477" y1="-300.457" x2="990.0321" y2="-299.789" gradientTransform="matrix(-0.0018 -1 -1 0.0018 170.2709 1121.9731)">
			<stop  offset="0" style="stop-color:#FFFFFF"/>
			<stop  offset="1" style="stop-color:#B2B3B6"/>
		</linearGradient>
		<path fill="url(#SVGID_89_)" d="M447.608,106.496c0,0,14.367,37.145,49.314,58.883c0,0-52.86,4.039-57.175-62.598
			c0,0,4.009,1.764,3.307,0.257C443.055,103.038,444.949,105.92,447.608,106.496z"/>
		
			<linearGradient id="SVGID_90_" gradientUnits="userSpaceOnUse" x1="1095.5918" y1="-273.6006" x2="1133.0502" y2="-272.8686" gradientTransform="matrix(0.1953 -0.9807 -0.9807 -0.1953 -36.456 1193.2632)">
			<stop  offset="0" style="stop-color:#FFFFFF"/>
			<stop  offset="1" style="stop-color:#B2B3B6"/>
		</linearGradient>
		<path fill="url(#SVGID_90_)" d="M438.501,100.977c0,0,0.998,47.673,30.191,75.693c0,0-43.356-1.996-35.201-67.154
			c0,0,0.949-8.5,2.991-9.526C436.482,99.99,436.08,99.886,438.501,100.977z"/>
		
			<linearGradient id="SVGID_91_" gradientUnits="userSpaceOnUse" x1="312.6201" y1="377.418" x2="365.2956" y2="377.418" gradientTransform="matrix(-0.9978 -0.0666 -0.0666 0.9978 829.3022 -234.4556)">
			<stop  offset="0" style="stop-color:#FFFFFF"/>
			<stop  offset="1" style="stop-color:#B2B3B6"/>
		</linearGradient>
		<path fill="url(#SVGID_91_)" d="M444.192,92.431c0,0,21.073,46.596,46.379,53.786c0,0-36.412,7.643-53.653-52.135
			C436.918,94.082,439.053,93.196,444.192,92.431z"/>
		
			<linearGradient id="SVGID_92_" gradientUnits="userSpaceOnUse" x1="298.5317" y1="117.0586" x2="365.3457" y2="117.0586" gradientTransform="matrix(-0.9225 -0.386 -0.386 0.9225 845.7895 97.5129)">
			<stop  offset="0" style="stop-color:#FFFFFF"/>
			<stop  offset="1" style="stop-color:#B2B3B6"/>
		</linearGradient>
		<path fill="url(#SVGID_92_)" d="M455.003,86.207c0,0,42.648,6.623,81.229-23.05c0,0-11.84,49.958-80.633,28.04
			c0,0-4.022-0.959-5.871-0.793C449.728,90.404,453.142,88.898,455.003,86.207z"/>
		
			<linearGradient id="SVGID_93_" gradientUnits="userSpaceOnUse" x1="461.0195" y1="-129.6611" x2="527.3848" y2="-129.6611" gradientTransform="matrix(-0.689 -0.7247 -0.7247 0.689 741.297 543.3013)">
			<stop  offset="0" style="stop-color:#FFFFFF"/>
			<stop  offset="1" style="stop-color:#B2B3B6"/>
		</linearGradient>
		<path fill="url(#SVGID_93_)" d="M452.539,88.564c0,0,45.502,21.446,87.149,10.318c0,0-41.082,39.641-91.756-8.122
			c0,0,2.369,0.235,1.141-0.211C449.073,90.549,450.61,89.787,452.539,88.564z"/>
		
			<linearGradient id="SVGID_94_" gradientUnits="userSpaceOnUse" x1="1075.2451" y1="-306.9316" x2="1126.9421" y2="-306.9316" gradientTransform="matrix(0.1259 -0.9921 -0.9921 -0.1259 9.0002 1177.6901)">
			<stop  offset="0" style="stop-color:#FFFFFF"/>
			<stop  offset="1" style="stop-color:#B2B3B6"/>
		</linearGradient>
		<path fill="url(#SVGID_94_)" d="M438.145,94.108c0,0,3.425,35.107,30.777,57.74c0,0-36.835,2.451-33.513-55.116
			c0,0,0.605-1.177,0.172-2.547C435.581,94.185,435.952,93.308,438.145,94.108z"/>
		
			<linearGradient id="SVGID_95_" gradientUnits="userSpaceOnUse" x1="1354.1582" y1="-200.4258" x2="1406.4647" y2="-200.4258" gradientTransform="matrix(0.4996 -0.8663 -0.8663 -0.4996 -427.3927 1221.4307)">
			<stop  offset="0" style="stop-color:#FFFFFF"/>
			<stop  offset="1" style="stop-color:#B2B3B6"/>
		</linearGradient>
		<path fill="url(#SVGID_95_)" d="M436.998,93.776c0,0-9.749,34.074,6.706,66.365c0,0-40.791-14.715-16.511-67.323
			c0,0,6.305,2.296,7.218,0.439C434.411,93.257,434.708,93.533,436.998,93.776z"/>
		
			<linearGradient id="SVGID_96_" gradientUnits="userSpaceOnUse" x1="1417.7627" y1="-144.7129" x2="1469.9979" y2="-144.7129" gradientTransform="matrix(0.5935 -0.8049 -0.8049 -0.5935 -550.3495 1204.3413)">
			<stop  offset="0" style="stop-color:#FFFFFF"/>
			<stop  offset="1" style="stop-color:#B2B3B6"/>
		</linearGradient>
		<path fill="url(#SVGID_96_)" d="M425.011,94.338c0,0-13.295,32.861-0.471,67.025c0,0-32.608-16.633-2.956-66.286
			c0,0-0.182,0.187,0.92-1.563C422.504,93.515,422.769,93.827,425.011,94.338z"/>
		
			<linearGradient id="SVGID_97_" gradientUnits="userSpaceOnUse" x1="1509.752" y1="-55.6157" x2="1552.8386" y2="-55.6157" gradientTransform="matrix(0.7097 -0.7044 -0.7044 -0.7097 -714.9026 1162.5967)">
			<stop  offset="0" style="stop-color:#FFFFFF"/>
			<stop  offset="1" style="stop-color:#B2B3B6"/>
		</linearGradient>
		<path fill="url(#SVGID_97_)" d="M416.685,96.006c0,0-14.756,25.216-8.482,54.962c0,0-24.439-17.977,5.613-54.809
			c0,0-0.169,0.127,0.938-1.163C414.754,94.997,414.931,95.289,416.685,96.006z"/>
		
			<linearGradient id="SVGID_98_" gradientUnits="userSpaceOnUse" x1="1499.2607" y1="-46.7153" x2="1542.3455" y2="-46.7153" gradientTransform="matrix(0.7097 -0.7044 -0.7044 -0.7097 -714.9026 1162.5967)">
			<stop  offset="0" style="stop-color:#FFFFFF"/>
			<stop  offset="1" style="stop-color:#B2B3B6"/>
		</linearGradient>
		<path fill="url(#SVGID_98_)" d="M402.968,97.08c0,0-14.756,25.217-8.481,54.961c0,0-24.44-17.975,5.614-54.808
			c0,0-0.17,0.128,0.936-1.16C401.036,96.073,401.214,96.361,402.968,97.08z"/>
		
			<linearGradient id="SVGID_99_" gradientUnits="userSpaceOnUse" x1="1617.5527" y1="115.1201" x2="1648.7094" y2="115.1201" gradientTransform="matrix(0.8638 -0.5038 -0.5038 -0.8638 -968.676 1043.9023)">
			<stop  offset="0" style="stop-color:#FFFFFF"/>
			<stop  offset="1" style="stop-color:#B2B3B6"/>
		</linearGradient>
		<path fill="url(#SVGID_99_)" d="M392.776,103.214c0,0-14.729,15.159-15.547,37.583c0,0-13.943-17.514,13.518-38.022
			c0,0-0.142,0.059,0.859-0.648C391.606,102.126,391.678,102.368,392.776,103.214z"/>
		
			<linearGradient id="SVGID_100_" gradientUnits="userSpaceOnUse" x1="1612.3516" y1="120.8779" x2="1643.5082" y2="120.8779" gradientTransform="matrix(0.8638 -0.5038 -0.5038 -0.8638 -968.676 1043.9023)">
			<stop  offset="0" style="stop-color:#FFFFFF"/>
			<stop  offset="1" style="stop-color:#B2B3B6"/>
		</linearGradient>
		<path fill="url(#SVGID_100_)" d="M385.384,100.862c0,0-14.728,15.158-15.548,37.582c0,0-13.942-17.514,13.52-38.022
			c0,0-0.144,0.059,0.856-0.648C384.212,99.773,384.285,100.014,385.384,100.862z"/>
		
			<linearGradient id="SVGID_101_" gradientUnits="userSpaceOnUse" x1="320.1611" y1="19.0273" x2="393.3818" y2="19.0273" gradientTransform="matrix(-0.8443 -0.5359 -0.5359 0.8443 787.5622 290.2003)">
			<stop  offset="0" style="stop-color:#FFFFFF"/>
			<stop  offset="1" style="stop-color:#B2B3B6"/>
		</linearGradient>
		<path fill="url(#SVGID_101_)" d="M449.308,90.251c0,0,30.408,39.375,64.088,34.448c0,0-35.988,30.879-70.173-32.113
			C443.223,92.586,446.137,91.053,449.308,90.251z"/>
		
			<linearGradient id="SVGID_102_" gradientUnits="userSpaceOnUse" x1="365.6445" y1="87.3555" x2="402.0535" y2="87.3555" gradientTransform="matrix(-0.8947 -0.4465 -0.4465 0.8947 844.1297 174.9026)">
			<stop  offset="0" style="stop-color:#FFFFFF"/>
			<stop  offset="1" style="stop-color:#B2B3B6"/>
		</linearGradient>
		<path fill="url(#SVGID_102_)" d="M439.976,84.998c0,0,22.951,5.242,44.95-9.497c0,0-8.171,26.844-44.798,12.247
			c0,0-2.155-0.68-3.164-0.657C436.964,87.09,438.871,86.396,439.976,84.998z"/>
		
			<linearGradient id="SVGID_103_" gradientUnits="userSpaceOnUse" x1="473.8467" y1="-86.5898" x2="522.9583" y2="-86.5898" gradientTransform="matrix(-0.7331 -0.6801 -0.6801 0.7331 771.3781 491.8417)">
			<stop  offset="0" style="stop-color:#FFFFFF"/>
			<stop  offset="1" style="stop-color:#B2B3B6"/>
		</linearGradient>
		<path fill="url(#SVGID_103_)" d="M434.038,86.102c0,0,42.702,13.122,63.613,4.052c0,0-21.134,26.682-64.207-1.34
			c0,0-1.861-1.29-2.824-1.568C430.62,87.246,432.616,87.134,434.038,86.102z"/>
		
			<linearGradient id="SVGID_104_" gradientUnits="userSpaceOnUse" x1="733.2139" y1="-261.3779" x2="770.2145" y2="-261.3779" gradientTransform="matrix(-0.3968 -0.918 -0.918 0.3968 514.0632 892.3899)">
			<stop  offset="0" style="stop-color:#FFFFFF"/>
			<stop  offset="1" style="stop-color:#B2B3B6"/>
		</linearGradient>
		<path fill="url(#SVGID_104_)" d="M435.341,87.176c0,0,21.942,19.089,43.098,21.765c0,0-29.295,10.387-44.414-19.869
			c0,0-0.981-1.66-1.616-2.216C432.408,86.857,433.942,87.475,435.341,87.176z"/>
		
			<linearGradient id="SVGID_105_" gradientUnits="userSpaceOnUse" x1="890.5068" y1="-295.6699" x2="922.348" y2="-295.6699" gradientTransform="matrix(-0.1925 -0.9813 -0.9813 0.1925 327.128 1050.0225)">
			<stop  offset="0" style="stop-color:#FFFFFF"/>
			<stop  offset="1" style="stop-color:#B2B3B6"/>
		</linearGradient>
		<path fill="url(#SVGID_105_)" d="M433.251,87.946c0,0,11.932,22.021,28.604,28.166c0,0-27.711-0.543-37.02-24.657
			c3.137,8.126-3.057-2.85-0.325,0.893C424.51,92.347,432.066,87.933,433.251,87.946z"/>
		
			<linearGradient id="SVGID_106_" gradientUnits="userSpaceOnUse" x1="908.5205" y1="-293.354" x2="940.463" y2="-293.354" gradientTransform="matrix(-0.1651 -0.9863 -0.9863 0.1651 300.7203 1067.6666)">
			<stop  offset="0" style="stop-color:#FFFFFF"/>
			<stop  offset="1" style="stop-color:#B2B3B6"/>
		</linearGradient>
		<path fill="url(#SVGID_106_)" d="M425.92,91.85c0,0,11.325,22.388,27.811,29.021c0,0-25.522,2.354-31.878-25.596
			c0,0-0.473-1.564-0.877-2.152C420.976,93.123,424.737,91.802,425.92,91.85z"/>
		
			<linearGradient id="SVGID_107_" gradientUnits="userSpaceOnUse" x1="1166.3701" y1="-286.6177" x2="1197.3176" y2="-286.6177" gradientTransform="matrix(0.1786 -0.984 -0.984 -0.1786 -64.2811 1223.6263)">
			<stop  offset="0" style="stop-color:#FFFFFF"/>
			<stop  offset="1" style="stop-color:#B2B3B6"/>
		</linearGradient>
		<path fill="url(#SVGID_107_)" d="M423.507,93.951c0,0,3.089,23.997,15.523,35.512c0,0-23.113-6.439-20.139-33.788
			c0,0,0.066-1.572-0.109-2.236C418.782,93.439,422.483,93.509,423.507,93.951z"/>
		
			<linearGradient id="SVGID_108_" gradientUnits="userSpaceOnUse" x1="1353.7031" y1="-217.7275" x2="1385.0398" y2="-217.7275" gradientTransform="matrix(0.4272 -0.9041 -0.9041 -0.4272 -361.8758 1258.1207)">
			<stop  offset="0" style="stop-color:#FFFFFF"/>
			<stop  offset="1" style="stop-color:#B2B3B6"/>
		</linearGradient>
		<path fill="url(#SVGID_108_)" d="M419.34,94.111c0,0-2.983,24.256,6.053,38.868c0,0-20.503-12.553-10.89-38.438
			c0,0,0.45-1.515,0.447-2.211C414.95,92.33,418.472,93.404,419.34,94.111z"/>
		
			<linearGradient id="SVGID_109_" gradientUnits="userSpaceOnUse" x1="1481.6377" y1="-129.834" x2="1513.0878" y2="-129.834" gradientTransform="matrix(0.602 -0.7985 -0.7985 -0.602 -596.1159 1231.623)">
			<stop  offset="0" style="stop-color:#FFFFFF"/>
			<stop  offset="1" style="stop-color:#B2B3B6"/>
		</linearGradient>
		<path fill="url(#SVGID_109_)" d="M412.064,95.255c0,0-7.607,23.305-1.669,39.651c0,0-17.476-16.756-3.115-40.258
			c0,0,0.734-1.398,0.867-2.085C408.147,92.563,411.357,94.373,412.064,95.255z"/>
		
			<linearGradient id="SVGID_110_" gradientUnits="userSpaceOnUse" x1="1544.6279" y1="-66.0195" x2="1576.0649" y2="-66.0195" gradientTransform="matrix(0.69 -0.7237 -0.7237 -0.69 -724.2172 1198.1339)">
			<stop  offset="0" style="stop-color:#FFFFFF"/>
			<stop  offset="1" style="stop-color:#B2B3B6"/>
		</linearGradient>
		<path fill="url(#SVGID_110_)" d="M405.353,95.992c0,0-10.092,22.336-6.02,39.362c0,0-15.433-18.83,1.356-40.545
			c0,0,0.878-1.308,1.086-1.977C401.775,92.832,404.753,95.025,405.353,95.992z"/>
		
			<linearGradient id="SVGID_111_" gradientUnits="userSpaceOnUse" x1="1539.0459" y1="-59.1875" x2="1570.4811" y2="-59.1875" gradientTransform="matrix(0.69 -0.7237 -0.7237 -0.69 -724.2172 1198.1339)">
			<stop  offset="0" style="stop-color:#FFFFFF"/>
			<stop  offset="1" style="stop-color:#B2B3B6"/>
		</linearGradient>
		<path fill="url(#SVGID_111_)" d="M396.556,95.317c0,0-10.092,22.335-6.02,39.363c0,0-15.434-18.83,1.354-40.545
			c0,0,0.88-1.309,1.089-1.977C392.979,92.158,395.955,94.351,396.556,95.317z"/>
		
			<linearGradient id="SVGID_112_" gradientUnits="userSpaceOnUse" x1="1661.0684" y1="95.2114" x2="1686.8451" y2="95.2114" gradientTransform="matrix(0.8464 -0.5325 -0.5325 -0.8464 -982.502 1080.7235)">
			<stop  offset="0" style="stop-color:#FFFFFF"/>
			<stop  offset="1" style="stop-color:#B2B3B6"/>
		</linearGradient>
		<path fill="url(#SVGID_112_)" d="M391.31,94.902c0,0-12.325,15.92-12.393,30.555c0,0-8.594-18.504,8.922-32.5
			c0,0,0.95-0.872,1.244-1.37C389.083,91.587,391.021,93.992,391.31,94.902z"/>
		
			<linearGradient id="SVGID_113_" gradientUnits="userSpaceOnUse" x1="529.3145" y1="-37.7388" x2="548.5823" y2="-37.7388" gradientTransform="matrix(-0.748 -0.6637 -0.6637 0.748 812.8223 468.2891)">
			<stop  offset="0" style="stop-color:#FFFFFF"/>
			<stop  offset="1" style="stop-color:#B2B3B6"/>
		</linearGradient>
		<path fill="url(#SVGID_113_)" d="M423.271,80.945c0,0,10.95,6.033,24.051,1.578c0,0-7.681,12.72-24.335-0.133
			c0,0-1.003-0.658-1.517-0.797C421.47,81.593,422.524,81.511,423.271,80.945z"/>
		
			<linearGradient id="SVGID_114_" gradientUnits="userSpaceOnUse" x1="674.0322" y1="-164.7734" x2="700.3013" y2="-164.7734" gradientTransform="matrix(-0.5313 -0.8472 -0.8472 0.5313 660.8264 756.5323)">
			<stop  offset="0" style="stop-color:#FFFFFF"/>
			<stop  offset="1" style="stop-color:#B2B3B6"/>
		</linearGradient>
		<path fill="url(#SVGID_114_)" d="M420.114,80.66c0,0,19.928,12.966,31.73,11.289c0,0-14.234,10.765-32.389-9.971
			c0,0-0.776-0.937-1.227-1.22C418.229,80.758,419.255,80.986,420.114,80.66z"/>
		
			<linearGradient id="SVGID_115_" gradientUnits="userSpaceOnUse" x1="948.6367" y1="-261.6411" x2="968.6623" y2="-261.6411" gradientTransform="matrix(-0.1447 -0.9895 -0.9895 0.1447 309.2861 1076.7106)">
			<stop  offset="0" style="stop-color:#FFFFFF"/>
			<stop  offset="1" style="stop-color:#B2B3B6"/>
		</linearGradient>
		<path fill="url(#SVGID_115_)" d="M420.633,81.404c0,0,8.614,13.057,18.992,17.499c0,0-16.226,1.147-19.908-16.707
			c0,0-0.279-1.002-0.53-1.382C419.187,80.814,419.884,81.356,420.633,81.404z"/>
		
			<linearGradient id="SVGID_116_" gradientUnits="userSpaceOnUse" x1="1101.1768" y1="-259.0293" x2="1118.4022" y2="-259.0293" gradientTransform="matrix(0.069 -0.9976 -0.9976 -0.069 87.2528 1180.2841)">
			<stop  offset="0" style="stop-color:#FFFFFF"/>
			<stop  offset="1" style="stop-color:#B2B3B6"/>
		</linearGradient>
		<path fill="url(#SVGID_116_)" d="M419.472,81.501c0,0,3.149,13.127,10.796,18.719c0,0-13.981-4.286-15.526-18.119
			c0.52,4.663-1.177-1.918-0.283,0.414C414.458,82.515,418.874,81.321,419.472,81.501z"/>
		
			<linearGradient id="SVGID_117_" gradientUnits="userSpaceOnUse" x1="1119.21" y1="-253.4556" x2="1136.4897" y2="-253.4556" gradientTransform="matrix(0.0968 -0.9953 -0.9953 -0.0968 57.5811 1190.2129)">
			<stop  offset="0" style="stop-color:#FFFFFF"/>
			<stop  offset="1" style="stop-color:#B2B3B6"/>
		</linearGradient>
		<path fill="url(#SVGID_117_)" d="M415.238,82.463c0,0,2.795,13.231,10.284,19.048c0,0-13.258-2.467-12.799-17.861
			c0,0-0.034-0.88-0.157-1.24C412.566,82.41,414.646,82.268,415.238,82.463z"/>
		
			<linearGradient id="SVGID_118_" gradientUnits="userSpaceOnUse" x1="1222.4639" y1="-233.0103" x2="1238.9532" y2="-233.0103" gradientTransform="matrix(0.2399 -0.9708 -0.9708 -0.2399 -106.2173 1231.0967)">
			<stop  offset="0" style="stop-color:#FFFFFF"/>
			<stop  offset="1" style="stop-color:#B2B3B6"/>
		</linearGradient>
		<path fill="url(#SVGID_118_)" d="M412.999,82.511c0,0,0.866,12.852,7.07,19.4c0,0-12.01-4.226-9.566-18.646
			c0,0,0.084-0.833,0.014-1.19C410.517,82.075,412.471,82.242,412.999,82.511z"/>
		
			<linearGradient id="SVGID_119_" gradientUnits="userSpaceOnUse" x1="1311.71" y1="-198.9673" x2="1328.3025" y2="-198.9673" gradientTransform="matrix(0.3673 -0.9301 -0.9301 -0.3673 -258.5668 1247.6146)">
			<stop  offset="0" style="stop-color:#FFFFFF"/>
			<stop  offset="1" style="stop-color:#B2B3B6"/>
		</linearGradient>
		<path fill="url(#SVGID_119_)" d="M410.365,82.959c0,0-0.779,12.925,4.503,20.315c0,0-11.304-5.89-7.058-19.914
			c0,0,0.192-0.815,0.166-1.182C407.977,82.179,409.882,82.619,410.365,82.959z"/>
		
			<linearGradient id="SVGID_120_" gradientUnits="userSpaceOnUse" x1="1508.6797" y1="-83.165" x2="1525.3744" y2="-83.165" gradientTransform="matrix(0.6246 -0.7809 -0.7809 -0.6246 -605.8841 1225.2856)">
			<stop  offset="0" style="stop-color:#FFFFFF"/>
			<stop  offset="1" style="stop-color:#B2B3B6"/>
		</linearGradient>
		<path fill="url(#SVGID_120_)" d="M408.513,82.604c0,0-4.372,12.256-1.462,21.033c0,0-9.017-9.18-1.064-21.434
			c0,0,0.409-0.729,0.487-1.093C406.474,81.111,408.151,82.123,408.513,82.604z"/>
		
			<linearGradient id="SVGID_121_" gradientUnits="userSpaceOnUse" x1="1507.5693" y1="-79.6724" x2="1520.77" y2="-79.6724" gradientTransform="matrix(0.6246 -0.7809 -0.7809 -0.6246 -605.8841 1225.2856)">
			<stop  offset="0" style="stop-color:#FFFFFF"/>
			<stop  offset="1" style="stop-color:#B2B3B6"/>
		</linearGradient>
		<path fill="url(#SVGID_121_)" d="M403.598,84.741c0,0-3.457,9.692-1.155,16.633c0,0-7.131-7.259-0.843-16.948
			c0,0,0.325-0.578,0.387-0.863C401.986,83.562,403.312,84.361,403.598,84.741z"/>
		
			<linearGradient id="SVGID_122_" gradientUnits="userSpaceOnUse" x1="1626.8057" y1="42.2593" x2="1639.9575" y2="42.2593" gradientTransform="matrix(0.7814 -0.624 -0.624 -0.7814 -851.3979 1144.5901)">
			<stop  offset="0" style="stop-color:#FFFFFF"/>
			<stop  offset="1" style="stop-color:#B2B3B6"/>
		</linearGradient>
		<path fill="url(#SVGID_122_)" d="M401.69,84.919c0,0-5.383,8.737-4.618,16.098c0,0-5.368-8.79,2.753-16.872
			c0,0,0.436-0.493,0.557-0.761C400.382,83.384,401.496,84.478,401.69,84.919z"/>
		
			<linearGradient id="SVGID_123_" gradientUnits="userSpaceOnUse" x1="1623.9854" y1="43.6855" x2="1637.141" y2="43.6855" gradientTransform="matrix(0.7814 -0.624 -0.624 -0.7814 -851.3979 1144.5901)">
			<stop  offset="0" style="stop-color:#FFFFFF"/>
			<stop  offset="1" style="stop-color:#B2B3B6"/>
		</linearGradient>
		<path fill="url(#SVGID_123_)" d="M398.603,85.563c0,0-5.386,8.737-4.624,16.099c0,0-5.363-8.788,2.756-16.871
			c0,0,0.437-0.494,0.558-0.762C397.292,84.029,398.404,85.123,398.603,85.563z"/>
		
			<linearGradient id="SVGID_124_" gradientUnits="userSpaceOnUse" x1="1709.8916" y1="183.498" x2="1722.9207" y2="183.498" gradientTransform="matrix(0.8951 -0.4457 -0.4457 -0.8951 -1063.2927 1021.1743)">
			<stop  offset="0" style="stop-color:#FFFFFF"/>
			<stop  offset="1" style="stop-color:#B2B3B6"/>
		</linearGradient>
		<path fill="url(#SVGID_124_)" d="M395.81,85.298c0,0-6.975,7.429-7.712,14.852c0,0-3.438-9.846,6.058-16.023
			c0,0,0.523-0.39,0.693-0.627C394.849,83.5,395.71,84.822,395.81,85.298z"/>
		
			<linearGradient id="SVGID_125_" gradientUnits="userSpaceOnUse" x1="603.3613" y1="-85.3164" x2="614.9763" y2="-85.3164" gradientTransform="matrix(-0.6775 -0.7355 -0.7355 0.6775 768.5898 583.8218)">
			<stop  offset="0" style="stop-color:#FFFFFF"/>
			<stop  offset="1" style="stop-color:#B2B3B6"/>
		</linearGradient>
		<path fill="url(#SVGID_125_)" d="M413,76.025c0,0,5.498,4.943,12.63,3.312c0,0-4.697,6.326-12.819-1.434
			c0,0-1.476-1.557-1.303-1.916C411.508,75.987,412.335,75.783,413,76.025z"/>
		
			<linearGradient id="SVGID_126_" gradientUnits="userSpaceOnUse" x1="762.2461" y1="-192.4883" x2="776.7183" y2="-192.4883" gradientTransform="matrix(-0.4435 -0.8963 -0.8963 0.4435 587.8823 855.6113)">
			<stop  offset="0" style="stop-color:#FFFFFF"/>
			<stop  offset="1" style="stop-color:#B2B3B6"/>
		</linearGradient>
		<path fill="url(#SVGID_126_)" d="M412.054,75.901c0,0,9.277,8.751,15.58,8.521c0,0-8.053,4.922-16.561-7.108
			c0,0-0.463-0.989-0.687-1.164C410.387,76.149,410.96,75.882,412.054,75.901z"/>
		
			<linearGradient id="SVGID_127_" gradientUnits="userSpaceOnUse" x1="1041.667" y1="-255.1875" x2="1052.0056" y2="-255.1875" gradientTransform="matrix(-0.0445 -0.999 -0.999 0.0445 206.4639 1138.5096)">
			<stop  offset="0" style="stop-color:#FFFFFF"/>
			<stop  offset="1" style="stop-color:#B2B3B6"/>
		</linearGradient>
		<path fill="url(#SVGID_127_)" d="M410.944,75.946c0,0,3.873,7.419,9.115,10.359c0,0-9.447-0.359-10.476-10.047
			c0,0-0.078-0.113,0.02,0.049C409.604,76.307,410.552,75.879,410.944,75.946z"/>
		
			<linearGradient id="SVGID_128_" gradientUnits="userSpaceOnUse" x1="1189.2256" y1="-239.9121" x2="1199.2303" y2="-239.9121" gradientTransform="matrix(0.1689 -0.9857 -0.9857 -0.1689 -26.1112 1218.5168)">
			<stop  offset="0" style="stop-color:#FFFFFF"/>
			<stop  offset="1" style="stop-color:#B2B3B6"/>
		</linearGradient>
		<path fill="url(#SVGID_128_)" d="M410.503,76.127c0,0,1.594,8.081,5.338,11.481c0,0-7.671-2.576-7.777-10.01
			c0.034,2.506-0.09-1.168,0.371-1.129C408.435,76.47,410.196,76,410.503,76.127z"/>
		
			<linearGradient id="SVGID_129_" gradientUnits="userSpaceOnUse" x1="1208.5283" y1="-232.499" x2="1218.61" y2="-232.499" gradientTransform="matrix(0.1963 -0.9805 -0.9805 -0.1963 -55.9046 1226.553)">
			<stop  offset="0" style="stop-color:#FFFFFF"/>
			<stop  offset="1" style="stop-color:#B2B3B6"/>
		</linearGradient>
		<path fill="url(#SVGID_129_)" d="M408.77,76.423c0,0,0.855,8.096,4.503,11.604c0,0-7.097-2.211-6.066-10.36
			c0,0,0.089-0.672,0.04-0.87C407.246,76.796,408.467,76.287,408.77,76.423z"/>
		
			<linearGradient id="SVGID_130_" gradientUnits="userSpaceOnUse" x1="1306.667" y1="-201.8784" x2="1315.9845" y2="-201.8784" gradientTransform="matrix(0.3363 -0.9418 -0.9418 -0.3363 -222.7926 1249.5723)">
			<stop  offset="0" style="stop-color:#FFFFFF"/>
			<stop  offset="1" style="stop-color:#B2B3B6"/>
		</linearGradient>
		<path fill="url(#SVGID_130_)" d="M407.411,76.773c0,0-0.041,7.508,2.895,11.335c0,0-6.111-2.918-4.088-10.44
			c0,0,0.085-0.438,0.067-0.632C406.285,77.036,406.898,76.544,407.411,76.773z"/>
		
			<linearGradient id="SVGID_131_" gradientUnits="userSpaceOnUse" x1="1392.1797" y1="-159.0566" x2="1401.1023" y2="-159.0566" gradientTransform="matrix(0.459 -0.8885 -0.8885 -0.459 -375.7531 1250.3781)">
			<stop  offset="0" style="stop-color:#FFFFFF"/>
			<stop  offset="1" style="stop-color:#B2B3B6"/>
		</linearGradient>
		<path fill="url(#SVGID_131_)" d="M406.642,77.04c0,0-0.907,7.012,1.499,11.233c0,0-6.526-3.344-3.571-10.557
			c0,0,0.258-0.158,1.063-0.413C405.632,77.303,406.208,76.923,406.642,77.04z"/>
		
			<linearGradient id="SVGID_132_" gradientUnits="userSpaceOnUse" x1="1391.9736" y1="-157.1514" x2="1399.4447" y2="-157.1514" gradientTransform="matrix(0.459 -0.8885 -0.8885 -0.459 -375.7531 1250.3781)">
			<stop  offset="0" style="stop-color:#FFFFFF"/>
			<stop  offset="1" style="stop-color:#B2B3B6"/>
		</linearGradient>
		<path fill="url(#SVGID_132_)" d="M404.517,77.875c0,0-0.759,5.873,1.257,9.407c0,0-5.466-2.801-2.99-8.837
			c0,0,0.216-0.135,0.889-0.348C403.672,78.097,404.154,77.779,404.517,77.875z"/>
		
			<linearGradient id="SVGID_133_" gradientUnits="userSpaceOnUse" x1="1391.4121" y1="-155.3853" x2="1397.6893" y2="-155.3853" gradientTransform="matrix(0.459 -0.8885 -0.8885 -0.459 -375.7531 1250.3781)">
			<stop  offset="0" style="stop-color:#FFFFFF"/>
			<stop  offset="1" style="stop-color:#B2B3B6"/>
		</linearGradient>
		<path fill="url(#SVGID_133_)" d="M402.417,78.822c0,0-0.641,4.934,1.053,7.902c0,0-4.591-2.352-2.512-7.427
			c0,0,0.181-0.108,0.749-0.29C401.707,79.007,402.111,78.741,402.417,78.822z"/>
		
			<linearGradient id="SVGID_134_" gradientUnits="userSpaceOnUse" x1="1390.2236" y1="-154.5239" x2="1396.5" y2="-154.5239" gradientTransform="matrix(0.459 -0.8885 -0.8885 -0.459 -375.7531 1250.3781)">
			<stop  offset="0" style="stop-color:#FFFFFF"/>
			<stop  offset="1" style="stop-color:#B2B3B6"/>
		</linearGradient>
		<path fill="url(#SVGID_134_)" d="M401.103,79.481c0,0-0.638,4.934,1.057,7.904c0,0-4.59-2.352-2.513-7.426
			c0,0,0.181-0.112,0.747-0.292C400.394,79.667,400.8,79.401,401.103,79.481z"/>
		
			<linearGradient id="SVGID_135_" gradientUnits="userSpaceOnUse" x1="1389.835" y1="-153.1885" x2="1394.9176" y2="-153.1885" gradientTransform="matrix(0.459 -0.8885 -0.8885 -0.459 -375.7531 1250.3781)">
			<stop  offset="0" style="stop-color:#FFFFFF"/>
			<stop  offset="1" style="stop-color:#B2B3B6"/>
		</linearGradient>
		<path fill="url(#SVGID_135_)" d="M399.462,80.471c0,0-0.518,3.992,0.854,6.398c0,0-3.718-1.906-2.031-6.013
			c0,0,0.144-0.092,0.604-0.237C398.889,80.62,399.216,80.404,399.462,80.471z"/>
		
			<linearGradient id="SVGID_136_" gradientUnits="userSpaceOnUse" x1="1388.6475" y1="-152.3257" x2="1393.731" y2="-152.3257" gradientTransform="matrix(0.459 -0.8885 -0.8885 -0.459 -375.7531 1250.3781)">
			<stop  offset="0" style="stop-color:#FFFFFF"/>
			<stop  offset="1" style="stop-color:#B2B3B6"/>
		</linearGradient>
		<path fill="url(#SVGID_136_)" d="M398.151,81.129c0,0-0.518,3.995,0.854,6.4c0,0-3.719-1.905-2.034-6.015
			c0,0,0.146-0.089,0.605-0.234C397.577,81.281,397.905,81.066,398.151,81.129z"/>
		
			<linearGradient id="SVGID_137_" gradientUnits="userSpaceOnUse" x1="1419.2666" y1="-196.5942" x2="1424.3521" y2="-196.5942" gradientTransform="matrix(0.4205 -0.8142 -0.8338 -0.4307 -365.2067 1157.8735)">
			<stop  offset="0" style="stop-color:#FFFFFF"/>
			<stop  offset="1" style="stop-color:#B2B3B6"/>
		</linearGradient>
		<path fill="url(#SVGID_137_)" d="M396.567,82.062c0,0-0.449,3.674,0.852,5.902c0,0-3.486-1.79-1.951-5.559
			c0,0,0.135-0.08,0.563-0.21C396.03,82.196,396.336,82,396.567,82.062z"/>
		
			<linearGradient id="SVGID_138_" gradientUnits="userSpaceOnUse" x1="376.5361" y1="201.2656" x2="409.7286" y2="201.2656" gradientTransform="matrix(-0.9397 -0.342 -0.342 0.9397 828.4792 47.4043)">
			<stop  offset="0" style="stop-color:#FFFFFF"/>
			<stop  offset="1" style="stop-color:#B2B3B6"/>
		</linearGradient>
		<path fill="url(#SVGID_138_)" d="M362.492,127.402c0,0,7.557-12.922,15.199-18.227c0,0,8.953-15.446,12.403-17.729
			c0,0,5.525-7.34,14.058-11.817c0,0,6.815-4.345,13.025-3.095c0,0-6.255-3.645-17.531,3.425c0,0-12.47,5.117-24.083,25.914
			C375.563,105.873,363.3,117.332,362.492,127.402z"/>
	</g>
</g>
</svg>
