<?xml version="1.0" encoding="utf-8"?>
<!-- Generator: Adobe Illustrator 16.0.0, SVG Export Plug-In . SVG Version: 6.00 Build 0)  -->
<!DOCTYPE svg PUBLIC "-//W3C//DTD SVG 1.1//EN" "http://www.w3.org/Graphics/SVG/1.1/DTD/svg11.dtd">
<svg version="1.1" id="Layer_1" xmlns="http://www.w3.org/2000/svg" xmlns:xlink="http://www.w3.org/1999/xlink" x="0px" y="0px"
	 width="313.549px" height="135.323px" viewBox="0 0 313.549 135.323" enable-background="new 0 0 313.549 135.323"
	 xml:space="preserve">
<g>
	<path fill="#808080" d="M20.935,111.63L2.063,130.702c-0.038,0.038-0.058,0.087-0.09,0.129c-0.044,0.06-0.092,0.115-0.126,0.182
		c-0.032,0.063-0.049,0.131-0.07,0.198c-0.02,0.063-0.043,0.125-0.052,0.192c-0.011,0.077-0.004,0.153,0.001,0.231
		c0.002,0.05-0.009,0.099,0,0.149c0.002,0.013,0.01,0.021,0.013,0.035c0.015,0.07,0.047,0.137,0.075,0.205
		c0.027,0.064,0.047,0.131,0.083,0.188c0.007,0.012,0.008,0.025,0.016,0.036c0.031,0.046,0.076,0.077,0.111,0.117
		c0.048,0.056,0.093,0.112,0.15,0.157c0.055,0.045,0.116,0.074,0.177,0.108c0.06,0.032,0.117,0.069,0.182,0.092
		c0.071,0.024,0.145,0.032,0.219,0.044c0.052,0.009,0.1,0.029,0.153,0.031l26.82,0.728c0.612,0.017,1.143-0.419,1.246-1.022
		l2.118-12.346c0.001-0.008-0.001-0.016,0.001-0.024c0.001-0.009,0.006-0.018,0.007-0.026c0.008-0.066,0.001-0.131,0-0.195
		c-0.001-0.037,0.003-0.072,0-0.107c-0.013-0.108-0.038-0.213-0.079-0.314c-0.04-0.1-0.095-0.193-0.16-0.279
		c-0.022-0.028-0.05-0.051-0.074-0.076c-0.043-0.049-0.083-0.101-0.135-0.143c-0.008-0.006-0.016-0.009-0.024-0.016
		c-0.007-0.003-0.011-0.011-0.017-0.016l-10.067-7.453C22.05,111.142,21.365,111.194,20.935,111.63z"/>
	<g>
		
			<rect x="20.006" y="65.149" transform="matrix(0.928 -0.3726 0.3726 0.928 -13.3537 65.1962)" fill="#30302F" width="284" height="3.999"/>
		<path fill="#30302F" d="M296.383,15.353l15.377-6.174c1.203-0.483,2.068-1.369,1.706-2.271l-0.011-0.026
			c-0.361-0.902-1.982-1.898-3.186-1.415l-15.377,6.174L296.383,15.353z"/>
	</g>
	<polygon fill="#909090" points="23.648,123.252 21.751,112.544 22.133,123.231 3.935,131.167 22.59,124.308 29.684,132.302 	"/>
	<g>
		<path fill="#FEDCB6" d="M262.708,30.78l31.834-12.781l8.076,3.293c2.79,1.138,2.779,5.094-0.018,6.217l-15.133,6.076
			c-3.242,1.302-6.811,1.558-10.206,0.732L262.708,30.78z"/>
		<path fill="#FEDCB6" d="M260.579,25.475l31.832-12.781l3.557-7.965c1.229-2.752-1.515-5.601-4.311-4.478l-15.133,6.076
			c-3.242,1.302-5.997,3.584-7.879,6.528L260.579,25.475z"/>
	</g>
</g>
<line fill="none" stroke="#000000" stroke-width="2" stroke-miterlimit="10" x1="0.973" y1="126.831" x2="2.935" y2="135.093"/>
</svg>
