<?xml version="1.0" encoding="utf-8"?>
<!-- Generator: Adobe Illustrator 16.0.0, SVG Export Plug-In . SVG Version: 6.00 Build 0)  -->
<!DOCTYPE svg PUBLIC "-//W3C//DTD SVG 1.1//EN" "http://www.w3.org/Graphics/SVG/1.1/DTD/svg11.dtd">
<svg version="1.1" id="Layer_1" xmlns="http://www.w3.org/2000/svg" xmlns:xlink="http://www.w3.org/1999/xlink" x="0px" y="0px"
	 width="151.965px" height="120px" viewBox="0 0 151.965 120" enable-background="new 0 0 151.965 120" xml:space="preserve">
<g>
	<rect x="117.965" fill="#883493" width="34" height="120"/>
	<rect x="76.965" y="9" fill="#E07E39" width="41" height="111"/>
	<rect x="62.965" fill="#90C63E" width="14" height="120"/>
	<rect x="117.965" y="6" fill="#FFFFFF" width="34" height="9"/>
	<rect x="117.965" y="105" fill="#FFFFFF" width="34" height="9"/>
	<rect x="76.965" y="20" fill="#FFFFFF" width="41" height="4"/>
	<rect x="76.965" y="26" fill="#FFFFFF" width="41" height="4"/>
	<rect x="76.965" y="99" fill="#FFFFFF" width="41" height="4"/>
	<rect x="76.965" y="105" fill="#FFFFFF" width="41" height="4"/>
	<rect x="65.965" y="9" fill="#FFFFFF" width="2" height="47"/>
	<rect x="69.965" y="9" fill="#FFFFFF" width="2" height="24"/>
	<g>
		
			<rect x="13.965" y="17" transform="matrix(0.9555 0.2949 -0.2949 0.9555 21.1553 -6.299)" fill="#0B507D" width="35" height="100.001"/>
		
			<ellipse transform="matrix(0.9555 0.2949 -0.2949 0.9555 10.7923 -11.1266)" fill="#FFFFFF" cx="42.291" cy="30.223" rx="13.666" ry="3.667"/>
		
			<ellipse transform="matrix(0.9555 0.2949 -0.2949 0.9555 31.746 -1.0309)" fill="#FFFFFF" cx="19.292" cy="104.755" rx="13.667" ry="3.667"/>
	</g>
</g>
</svg>
