<?xml version="1.0" encoding="utf-8"?>
<!-- Generator: Adobe Illustrator 16.0.0, SVG Export Plug-In . SVG Version: 6.00 Build 0)  -->
<!DOCTYPE svg PUBLIC "-//W3C//DTD SVG 1.1//EN" "http://www.w3.org/Graphics/SVG/1.1/DTD/svg11.dtd">
<svg version="1.1" id="Layer_1" xmlns="http://www.w3.org/2000/svg" xmlns:xlink="http://www.w3.org/1999/xlink" x="0px" y="0px"
	 width="178.852px" height="182.047px" viewBox="0 0 178.852 182.047" enable-background="new 0 0 178.852 182.047"
	 xml:space="preserve">
<g>
	<linearGradient id="SVGID_1_" gradientUnits="userSpaceOnUse" x1="31.4795" y1="16.1973" x2="63.1718" y2="119.8583">
		<stop  offset="0" style="stop-color:#CE8F51"/>
		<stop  offset="1" style="stop-color:#562712"/>
	</linearGradient>
	<polygon fill="url(#SVGID_1_)" points="89.541,0 0,25.82 5.543,137.477 88.656,97.577 	"/>
	<linearGradient id="SVGID_2_" gradientUnits="userSpaceOnUse" x1="149.1758" y1="16.6279" x2="114.0953" y2="118.5089">
		<stop  offset="0" style="stop-color:#CE8F51"/>
		<stop  offset="1" style="stop-color:#562712"/>
	</linearGradient>
	<polygon fill="url(#SVGID_2_)" points="89.541,0 178.852,26.847 172.525,138.628 88.656,97.577 	"/>
	<polygon fill="#B16C37" points="88.471,182.047 88.855,58.934 178.852,26.847 172.525,138.628 	"/>
	<linearGradient id="SVGID_3_" gradientUnits="userSpaceOnUse" x1="33.3975" y1="19.9316" x2="62.7815" y2="186.5767">
		<stop  offset="0" style="stop-color:#DD9B5D"/>
		<stop  offset="1" style="stop-color:#C8864D"/>
	</linearGradient>
	<polygon fill="url(#SVGID_3_)" points="5.543,137.477 0,25.82 88.855,58.934 88.471,182.047 	"/>
	<linearGradient id="SVGID_4_" gradientUnits="userSpaceOnUse" x1="45.0127" y1="42.1045" x2="43.9505" y2="44.8715">
		<stop  offset="0" style="stop-color:#79461E"/>
		<stop  offset="0.544" style="stop-color:#D5955B"/>
	</linearGradient>
	<polygon fill="url(#SVGID_4_)" points="0.109,28.042 0,25.82 88.855,58.934 88.848,61.456 	"/>
	<g>
		<path fill="#442B1C" d="M134.324,68.522c-2.41,0.998-34.617,13.635-36.074,14.243c-2.391,0.999-3.105,2.635-3.088,4.989
			c0.018,2.354-0.084,21.521-0.094,22.462c-0.021,1.77,1.111,2.371,2.598,1.751c1.01-0.422,34.904-15.04,36.346-15.677
			c1.553-0.691,2.307-2.034,2.346-3.829c0.023-1.205,0.727-21.662,0.727-22.358C137.084,69.408,136.734,67.525,134.324,68.522z
			 M135.314,92.286c-0.061,1.292-0.576,2.248-1.781,2.762c-1.018,0.436-34.578,14.783-35.357,15.149
			c-1.422,0.669-1.941-0.028-1.959-1.091c-0.01-0.49,0.17-19.092,0.17-20.806c0-2.033,0.357-3.257,1.996-3.935
			c1.41-0.585,35.498-14.154,36.018-14.371c0.865-0.364,1.518-0.013,1.518,0.99C135.918,71.827,135.377,90.993,135.314,92.286z"/>
		<path fill="#442B1C" d="M102.303,89.726c0,0,3.275-1.293,3.641-1.456c0.201,3.113-1.053,9.641-2.926,10.77
			c0,0.554-0.035,5.925-0.035,6.101c0.99-0.1,1.723-0.097,2.102-0.007c0.281,0.066,0.611,0.283,0.184,0.471
			s-4.979,2.129-5.316,2.267c-0.34,0.138-0.465,0.006-0.281-0.239c0.348-0.47,1.813-1.707,2.57-2.171
			c-0.006-0.163-0.037-5.404-0.037-6.094c-2.26-0.259-2.693-4.155-2.76-8.511c0.436-0.181,2.207-0.904,2.207-0.904l-0.576,2.236
			l0.678,0.324l-1.055,3.164l1.684-3.239l-0.754-0.527L102.303,89.726z"/>
		<path fill="#442B1C" d="M111.824,86.541c0.018-0.71-0.02-2.005-0.02-2.005s-0.65,0.924-1.035,1.553
			c-0.418,0.683-0.129,1.192,0.17,1.303C111.24,87.501,111.805,87.373,111.824,86.541z"/>
		<path fill="#442B1C" d="M115.283,83.901c0.016-0.709-0.02-2.006-0.02-2.006s-0.65,0.927-1.035,1.555
			c-0.418,0.683-0.133,1.192,0.17,1.303C114.699,84.862,115.264,84.733,115.283,83.901z"/>
		<path fill="#442B1C" d="M114.131,81.241c0.016-0.709-0.021-2.005-0.021-2.005s-0.65,0.925-1.037,1.553
			c-0.416,0.683-0.129,1.193,0.172,1.303C113.543,82.2,114.109,82.072,114.131,81.241z"/>
		<path fill="#442B1C" d="M117.818,79.684c0.018-0.709-0.02-2.004-0.02-2.004s-0.646,0.925-1.035,1.554
			c-0.418,0.681-0.133,1.191,0.168,1.302C117.234,80.645,117.799,80.516,117.818,79.684z"/>
		<path fill="#442B1C" d="M118.848,82.296c0.018-0.709-0.02-2.006-0.02-2.006s-0.648,0.925-1.033,1.554
			c-0.42,0.682-0.135,1.193,0.168,1.302C118.264,83.257,118.828,83.127,118.848,82.296z"/>
		<path fill="#442B1C" d="M121.484,82.747c0.016-0.709-0.02-2.004-0.02-2.004s-0.65,0.923-1.035,1.553
			c-0.418,0.682-0.131,1.193,0.17,1.302C120.9,83.707,121.465,83.579,121.484,82.747z"/>
		<path fill="#442B1C" d="M121.131,78.454c0.018-0.709-0.018-2.004-0.018-2.004s-0.65,0.923-1.033,1.553
			c-0.42,0.682-0.135,1.192,0.168,1.303C120.549,79.414,121.113,79.286,121.131,78.454z"/>
		<path fill="#442B1C" d="M115.674,85.346c0.004-0.15,0.012-0.416,0.012-0.848c0-0.434,0.648-0.405,0.637-0.085
			c-0.006,0.32,0,0.564-0.006,0.706c3.236-0.951,5.498,0.79,6.271,3.428c-1.443-0.764-2.689,0.3-3.223,1.883
			c-0.953-1.375-2.289-0.755-3.18,0.728c-0.012,0.401-0.105,7.223-0.125,7.794c-0.063,1.996-1.316,2.937-2.398,2.937
			c-1.078,0-1.406-1.103-1.367-1.895c0.025-0.523,0.746-0.705,0.768,0.05c0.049,1.745,2.168,0.904,2.256-0.965
			c0.047-0.994,0.154-7.124,0.164-7.646c-1.004-0.985-2.803,0.465-3.137,1.908c-1.15-1.387-2.15-0.832-3.383,0.863
			C110.389,89.474,113.301,86.475,115.674,85.346z"/>
		<polygon fill="#442B1C" points="125.525,83.801 124.322,84.229 126.529,79.734 128.512,82.597 127.385,82.997 127.184,93.365 
			125.301,94.144 		"/>
		<polygon fill="#442B1C" points="130.295,81.993 129.166,82.296 131.199,77.853 133.182,80.713 132.053,81.115 131.852,91.483 
			129.969,92.262 		"/>
		<polygon fill="#442B1C" points="123.994,95.651 132.779,91.86 132.805,93.717 123.994,97.533 		"/>
	</g>
	<linearGradient id="SVGID_5_" gradientUnits="userSpaceOnUse" x1="0" y1="29.4668" x2="178.8516" y2="29.4668">
		<stop  offset="0.4286" style="stop-color:#EDBF8E"/>
		<stop  offset="1" style="stop-color:#DA985B"/>
	</linearGradient>
	<polygon fill="url(#SVGID_5_)" points="88.855,58.934 178.852,26.847 89.541,0 0,25.82 	"/>
	<polygon fill="#9D7043" points="37.836,14.909 51.408,10.997 142.232,39.904 126.463,45.525 	"/>
	<polygon fill="#9D7043" points="36.959,39.595 127.861,11.52 141.561,15.636 51.846,45.143 	"/>
	<polygon fill="#9D7043" points="51.846,45.143 51.99,66.603 50.588,65.063 49.301,65.424 48.25,64.094 46.941,64.395 
		45.789,63.067 44.506,63.33 43.176,61.986 41.891,62.188 40.838,60.959 39.691,61.227 38.471,59.933 37.254,60.161 36.959,39.595 	
		"/>
	<linearGradient id="SVGID_6_" gradientUnits="userSpaceOnUse" x1="44.1543" y1="27.7783" x2="134.623" y2="27.7783">
		<stop  offset="0.0879" style="stop-color:#9B7144"/>
		<stop  offset="1" style="stop-color:#7B5433"/>
	</linearGradient>
	<polygon fill="url(#SVGID_6_)" points="44.154,42.276 133.334,13.164 134.623,13.551 44.469,42.393 	"/>
	<polygon fill="#824D29" points="126.463,45.525 126.094,66.885 127.604,65.462 128.854,65.765 129.986,64.493 131.271,64.782 
		132.557,63.468 133.939,63.7 135.135,62.384 136.195,62.784 137.359,61.473 138.607,61.805 139.98,60.447 141.145,60.773 
		142.232,39.904 	"/>
</g>
</svg>
