<?xml version="1.0" encoding="utf-8"?>
<!-- Generator: Adobe Illustrator 16.0.0, SVG Export Plug-In . SVG Version: 6.00 Build 0)  -->
<!DOCTYPE svg PUBLIC "-//W3C//DTD SVG 1.1//EN" "http://www.w3.org/Graphics/SVG/1.1/DTD/svg11.dtd">
<svg version="1.1" id="Layer_1" xmlns="http://www.w3.org/2000/svg" xmlns:xlink="http://www.w3.org/1999/xlink" x="0px" y="0px"
	 width="360.535px" height="250.406px" viewBox="0 0 360.535 250.406" enable-background="new 0 0 360.535 250.406"
	 xml:space="preserve">
<g>
	<path fill="#010101" d="M274.365,95.56c0.683-1.463-0.083-3.031-3.194-3.245c-11.528-0.792-29.601,11.363-31.065,15.587
		c-3.523,2.883-8.879-8.632-15.23-10.915l25.898-11.839c0,0,2.404,3.33,6.66,1.479c6.589-2.865,17.766-0.936,35.148-2.712
		c44.027-4.502,52.721-18.561,54.201-20.226c1.48-1.665-4.255-7.03-4.255-7.03s2.405-2.774,1.417-6.185
		c-5.058,1.214-20.656-12.129-28.748-17.864c-8.094-5.735-7.548-5.55-20.582-5.735c-30.144-19.979-40.42-22.106-49.761-9.156
		C192.902-6.086,148.289,9.672,118.69,45.047c-29.598,35.374-40.16,77.486-41.677,91.791c-32.969-14.662-62.331-41.44-62.331-41.44
		L0,116.039c14.552,16.588,59.243,38.128,73.681,43.124c-0.742,12.024-0.635,29.845,8.751,54.957
		c6.856,18.341,27.072,36.286,45.385,36.286c14.367,0,32.003-8.139,35.394-34.038c3.46-26.415-16.648-35.642-29.475-31.694
		c-12.209,3.757-22.938,21.704-15.046,34.9c-16.774-13.703-12.247-38.953-7.839-51.983c42.447,3.335,69.115-9.924,69.938-9.595
		c3.104,1.237,10.789,2.967,20.561,0.475c-4.288-2.381-7.282-7.108-7.282-7.108l36.688-22.951c0,0,4.75,2.884,8.469,2.804
		c10.884-0.234,10.861-10.996,23.018-17.701c7.388-4.075,13.197-3.576,16.033-10.853c47.111-24.913,73.381-15.715,82.26-20.114
		C328.472,74.119,283.318,91.845,274.365,95.56z M116.239,148.216c1.56-2.188,5.116-6.524,10.591-9.051
		c7.215-3.33,1.11-7.193,10.175-10.35c9.064-3.155,16.279-5.745,22.199,2.765c4.35,6.253,7.001,11.907,8.102,14.466
		C167.703,146.968,135.437,152.019,116.239,148.216z M196.016,134.356c-3.01-1.975-8.688-3.429-14.614-1.204
		c-0.986-0.738-7.461-19.146-7.461-19.146c8.14-2.836,29.968-8.016,29.968-8.016l16.649,15.17
		C220.558,121.161,202.233,129.916,196.016,134.356z"/>
	<g>
		<g>
			<path fill="#603A17" d="M16.78,102.027c11.642,9.597,23.771,18.393,36.622,25.939c12.833,7.531,26.368,13.764,40.514,17.911
				c14.134,4.175,28.861,6.149,43.709,5.808c7.424-0.156,14.872-0.863,22.316-1.979c1.861-0.278,3.723-0.581,5.583-0.906
				l2.793-0.505l1.396-0.263l0.26-0.051l0.21-0.045c0.164-0.036,0.338-0.08,0.517-0.127c1.45-0.393,3.133-1.041,4.791-1.742
				c1.67-0.709,3.364-1.49,5.057-2.305c6.785-3.279,13.579-6.947,20.377-10.575c6.801-3.645,13.62-7.308,20.482-10.901
				c13.727-7.187,27.631-14.114,41.879-20.301c14.247-6.167,28.843-11.669,43.915-15.5c7.532-1.902,15.187-3.37,22.918-4.101
				c7.721-0.723,15.544-0.707,23.166,0.577c-7.68-0.872-15.426-0.467-23.017,0.656c-7.6,1.132-15.07,2.986-22.396,5.258
				c-14.655,4.575-28.751,10.769-42.488,17.612c-13.738,6.864-27.114,14.446-40.346,22.305c-6.619,3.931-13.2,7.936-19.806,11.945
				c-6.622,4.002-13.213,8.036-20.14,11.857c-1.737,0.953-3.502,1.889-5.341,2.787c-1.852,0.896-3.728,1.77-5.966,2.521
				c-0.282,0.093-0.572,0.184-0.875,0.271l-0.491,0.136l-0.444,0.112l-1.435,0.346l-2.878,0.668
				c-1.923,0.435-3.854,0.849-5.794,1.24c-7.758,1.56-15.667,2.715-23.666,3.283c-7.998,0.57-16.081,0.551-24.128-0.119
				c-8.047-0.664-16.051-1.974-23.902-3.861c-15.72-3.771-30.766-9.832-44.94-17.228c-14.179-7.401-27.574-16.154-40.242-25.579
				L16.78,102.027z"/>
		</g>
	</g>
	
		<radialGradient id="SVGID_1_" cx="182.7524" cy="26.9404" r="190.6979" gradientTransform="matrix(0.9003 0 0 0.9003 -11.6036 37.413)" gradientUnits="userSpaceOnUse">
		<stop  offset="0" style="stop-color:#7EA840"/>
		<stop  offset="0.0587" style="stop-color:#729A3D"/>
		<stop  offset="0.2036" style="stop-color:#5D8137"/>
		<stop  offset="0.3595" style="stop-color:#4D6F32"/>
		<stop  offset="0.5296" style="stop-color:#41622D"/>
		<stop  offset="0.7246" style="stop-color:#3B5C2B"/>
		<stop  offset="1" style="stop-color:#39592A"/>
	</radialGradient>
	<path fill="url(#SVGID_1_)" d="M135.244,211.515c-1.892-1.54,0.115-3.484,1.062-1.391c0.944,2.094-1.695,4.461-3.849,2.658
		c-1.537-1.287-1.609-6.582,2.439-7.291c1.593-0.279,4.8,1.994,5.222,5.549c0.415,3.498-3.589,6.928-6.082,7.846
		c-1.719,0.633-5.994-1.084-7.25-5.025c-1.614-5.063-0.25-14.482,8.685-15.316c11.617-1.084,12.092,12.366,9.771,18.301
		c-1.557,3.984-6.735,10.329-13.589,10.705c-9.689,0.531-12.252-10.564-12.462-18.1c-0.194-6.934,4.508-20.229,18.484-22
		c18.572-2.353,22.706,18.707,22.776,22.413c0.149,8.004-3.052,26.683-19.11,33.72c-31.842,13.953-61.553-27.586-62.401-65.438
		c-2.797-32.505,6.946-57.479,14.592-79.185c7.646-21.706,34.286-69.063,71.531-82.135c37.244-13.073,68.568,0.493,81.024,5.056
		c4.563,0.123,3.234-4.813,8.51-6.906c10.321-4.094,36.26,14.676,39.342,15.292c3.082,0.616,12.209-1.357,17.389,2.959
		s26.021,18.746,26.021,18.746s1.85,0.864,2.591,0c0,0,1.727,3.453,0.985,6.536c0,0,5.551,3.577,1.604,5.181
		c-2.096,6.042-18.986,13.561-47.511,17.265c-17.619,2.288-21.676-0.74-31.787,1.3c-10.113,2.04-9.126,1.167-11.347,0
		c-2.22-1.166-15.539,8.812-45.879,18.926c-30.337,10.113-50.069,13.319-56.976,16.032c-6.906,2.714-24.172,15.539-24.172,15.539
		s0,5.427-6.413,8.387c-6.414,2.96-6.414,11.84-11.346,26.885c-13.196,41.438,12.354,57.858,18.622,59.568
		c4.563,1.109,14.417,2.088,19.747-9.297c4.44-9.48,0.732-21.615-10.128-20.58c-8.741,0.832-11.47,9.203-9.249,16.311
		c1.539,4.928,6.089,6.305,8.324,5.241c1.499-0.714,6.844-3.47,6.197-8.325c-0.646-4.846-4.097-6.058-5.951-5.795
		c-2.62,0.369-5.447,4.176-2.651,8.016c2.065,2.836,5.408-0.592,4.687-3.084c-0.679-2.343-4.655-1.696-1.356,1.974L135.244,211.515z
		"/>
	<g>
		<g>
			<path fill="#F3F3F3" d="M231.363,61.398l0.581,0.595c0.22,0.229,0.409,0.437,0.611,0.668c0.398,0.454,0.784,0.935,1.154,1.458
				c0.732,1.045,1.428,2.262,1.817,3.774c0.408,1.491,0.35,3.321-0.228,4.824c-0.563,1.519-1.464,2.674-2.369,3.6
				c-1.846,1.836-3.808,2.975-5.744,4.011c-1.945,1.014-3.898,1.854-5.853,2.63c-3.911,1.541-7.83,2.826-11.744,4.071
				c-3.915,1.239-7.826,2.418-11.727,3.609c-15.58,4.74-31.06,9.727-45.624,16.799c-7.267,3.536-14.291,7.588-20.764,12.409
				c-6.466,4.812-12.373,10.423-17.173,16.916c-4.807,6.481-8.436,13.855-10.572,21.686c-2.159,7.828-2.848,16.046-2.429,24.191
				c-0.683-8.126-0.269-16.4,1.654-24.391c1.901-7.988,5.346-15.628,10.045-22.414c4.69-6.801,10.556-12.751,17.01-17.889
				c6.46-5.148,13.5-9.518,20.782-13.361c14.593-7.685,30.139-13.251,45.596-18.512c3.865-1.32,7.727-2.624,11.551-3.973
				c3.818-1.353,7.617-2.741,11.251-4.313c1.812-0.788,3.585-1.626,5.229-2.554c1.628-0.922,3.175-1.97,4.184-3.068
				c0.5-0.542,0.827-1.075,0.949-1.488c0.12-0.417,0.123-0.72-0.016-1.195c-0.137-0.465-0.459-1.057-0.92-1.66
				c-0.229-0.302-0.494-0.608-0.779-0.913c-0.138-0.148-0.298-0.313-0.435-0.446l-0.505-0.482L231.363,61.398z"/>
		</g>
	</g>
	<path fill="#FAED24" d="M234.233,54.114c-8.018,2.74-11.892,18.529-17.071,21.97s-16.565,8.527-15.689,16.223
		c0.878,7.696,25.979,27.074,32.035,31.329c6.058,4.254,9.495,6.1,14.827-1.242c5.331-7.34,15.128-13.041,22.719-15.765
		c7.593-2.724-0.369-4.116-2.516-3.897c-2.364,0.24-3.786,0.372-6.714,0.425c-2.922,0.054-2.003-0.144-0.185-1.479
		c1.974-1.448,5.566-4.789,8.232-5.458c2.669-0.668,0.025-3.391-3.977-1.388c-4.001,2.004-14.086,6.32-18.032,9.246
		c-3.95,2.926-5.787,9.778-10.565,6.522c-5.902-4.021-7.796-8.015-11.637-10.773c-3.47-2.491-8.838-3.244-6.891-6.169
		c1.947-2.926,15.354-9.868,27.255-15.725c11.9-5.856,6.015-19.521-0.042-23.109C239.927,51.237,237.542,52.983,234.233,54.114z"/>
	
		<radialGradient id="SVGID_2_" cx="274.6597" cy="59.5962" r="40.9698" gradientTransform="matrix(0.9003 0 0 0.9003 -11.6036 37.413)" gradientUnits="userSpaceOnUse">
		<stop  offset="0" style="stop-color:#7EA840"/>
		<stop  offset="0.0587" style="stop-color:#729A3D"/>
		<stop  offset="0.2036" style="stop-color:#5D8137"/>
		<stop  offset="0.3595" style="stop-color:#4D6F32"/>
		<stop  offset="0.5296" style="stop-color:#41622D"/>
		<stop  offset="0.7246" style="stop-color:#3B5C2B"/>
		<stop  offset="1" style="stop-color:#39592A"/>
	</radialGradient>
	<path fill="url(#SVGID_2_)" d="M232.06,55.159c-8.017,2.74-11.892,18.529-17.07,21.97c-5.182,3.441-16.566,8.528-15.689,16.223
		s25.978,27.074,32.035,31.329c6.057,4.255,9.494,6.099,14.826-1.24c5.332-7.341,15.129-13.042,22.719-15.767
		c7.593-2.724-0.369-4.116-2.515-3.897c-2.365,0.24-3.788,0.372-6.714,0.425c-2.923,0.054-2.005-0.144-0.185-1.48
		c1.973-1.448,5.565-4.788,8.231-5.457c2.669-0.669,0.024-3.391-3.977-1.388c-4.001,2.003-14.084,6.319-18.033,9.246
		s-5.787,9.778-10.564,6.522c-5.902-4.021-7.797-8.015-11.637-10.773c-3.471-2.491-9.871-3.989-7.924-6.915
		c1.948-2.926,16.053-10.426,27.952-16.283c11.899-5.856,6.351-18.217,0.294-21.805S235.368,54.028,232.06,55.159z"/>
	<ellipse fill="#010101" cx="300.305" cy="50.178" rx="14.892" ry="14.707"/>
	<ellipse fill="#E4D31D" cx="300.073" cy="48.982" rx="14.892" ry="14.707"/>
	<ellipse fill="#010101" cx="301.842" cy="50.474" rx="11.239" ry="11.1"/>
	<ellipse fill="#7EA840" cx="301.842" cy="49.642" rx="11.239" ry="11.099"/>
	<ellipse fill="#010101" cx="301.842" cy="48.982" rx="7.773" ry="7.677"/>
	<ellipse fill="#39592A" cx="302.832" cy="48.982" rx="7.772" ry="7.677"/>
	<ellipse fill="#010101" cx="302.831" cy="50.178" rx="3.028" ry="2.991"/>
	<path fill="#FAED24" d="M127.973,105.313c14.028,1.703,28.308-11.248,35.485-6.106c7.176,5.142,12.516,34.199,15.631,35.795
		c3.116,1.597,11.314-5.827,18.727,5.241c-7.273,2.155-10.568,2.646-10.494,4.656c0.074,2.01,4.061,8.527,6.912,10.814
		c0.132,3.617-12.98-2.928-18.932-10.373s-8.078-25.704-16.997-26.76c-8.919-1.059-24.998,4.693-32.392,10.133
		C122.7,131.08,96.747,101.522,127.973,105.313z"/>
	<g>
		<g>
			<defs>
				<path id="SVGID_3_" d="M124.732,108.534c14.028,1.704,29.913-12.071,37.09-6.928c7.177,5.142,14.256,33.438,17.371,35.035
					c3.116,1.597,10.307-5.96,18.623,3.603c-7.273,2.155-13.389,2.18-13.314,4.191c0.074,2.01,6.881,8.992,9.732,11.279
					c0.132,3.617-16.224,0.295-22.175-7.15c-5.951-7.447-8.077-25.704-16.996-26.762c-8.919-1.058-24.998,4.693-32.391,10.134
					C119.458,134.302,93.504,104.743,124.732,108.534z"/>
			</defs>
			<clipPath id="SVGID_4_">
				<use xlink:href="#SVGID_3_"  overflow="visible"/>
			</clipPath>
			<rect x="93.504" y="96.463" clip-path="url(#SVGID_4_)" fill="#39592A" width="104.312" height="62.868"/>
			<path clip-path="url(#SVGID_4_)" fill="#39592A" d="M198.425,95.854v43.552h3.582c-3.914,7.087-9.232,13.529-15.723,18.907
				c-1.623,1.346-3.318,2.623-5.084,3.828v-2.201h-77.715v2.402c-3.251-2.34-6.261-4.992-8.976-7.932
				c-1.357-1.471-2.64-3.014-3.843-4.624h2.227V95.854H198.425z"/>
			<path clip-path="url(#SVGID_4_)" fill="#39592A" d="M198.425,95.854v43.217h2.854c-3.865,6.998-9.115,13.359-15.523,18.67
				c-1.603,1.328-3.276,2.59-5.02,3.779v-1.58h-76.73v1.777c-3.21-2.31-6.182-4.928-8.862-7.832
				c-1.34-1.451-2.607-2.974-3.795-4.564h1.546V95.854H198.425z"/>
			<path clip-path="url(#SVGID_4_)" fill="#39592A" d="M198.425,95.854v42.883h2.126c-3.815,6.908-9,13.188-15.325,18.43
				c-3.163,2.621-6.611,4.984-10.316,7.035v-4.262h-70.385v1.152c-3.169-2.279-6.103-4.865-8.749-7.73
				c-2.646-2.866-5.003-6.013-7.02-9.415h4.138V95.854H198.425z"/>
			<path clip-path="url(#SVGID_4_)" fill="#39592A" d="M198.425,95.854v42.549h1.398c-3.767,6.818-8.883,13.016-15.126,18.19
				c-3.122,2.587-6.525,4.918-10.184,6.943v-3.597h-69.471v0.529c-3.127-2.25-6.023-4.803-8.635-7.631s-4.938-5.934-6.928-9.293
				h3.414V95.854H198.425z"/>
			<path clip-path="url(#SVGID_4_)" fill="#39592A" d="M198.425,95.854v42.215h0.67c-3.717,6.729-8.766,12.846-14.927,17.951
				c-3.081,2.553-6.439,4.854-10.049,6.852v-2.932h-63.762v3.01c-1.651-0.959-3.252-1.995-4.795-3.105
				c-3.087-2.221-5.945-4.738-8.521-7.529c-2.577-2.793-4.874-5.857-6.837-9.172h2.69v-47.29H198.425z"/>
			<path clip-path="url(#SVGID_4_)" fill="#39592A" d="M198.425,95.854v20.549v16.246h2.442c-0.749,1.729-1.583,3.426-2.5,5.086
				c-3.667,6.639-8.649,12.674-14.728,17.711c-3.04,2.52-6.354,4.79-9.916,6.762v-2.268h-62.911v2.345
				c-1.629-0.946-3.208-1.969-4.73-3.064c-3.045-2.191-5.865-4.676-8.408-7.431c-2.543-2.754-4.808-5.777-6.746-9.047h1.966V95.854
				H198.425z"/>
			<path clip-path="url(#SVGID_4_)" fill="#39592A" d="M198.425,95.854v20.503v10.823h3.642c-1.134,3.523-2.618,6.945-4.427,10.221
				c-3.618,6.549-8.532,12.502-14.529,17.473c-2.998,2.484-6.268,4.723-9.78,6.669v-1.603h-57.098v4.251
				c-6.8-3.12-12.909-7.49-17.926-12.925c-2.508-2.717-4.743-5.699-6.655-8.926h1.242V95.854H198.425z"/>
			<path clip-path="url(#SVGID_4_)" fill="#39592A" d="M198.425,95.854v20.458v10.675h2.853c-1.118,3.475-2.582,6.852-4.366,10.081
				c-3.568,6.459-8.414,12.33-14.329,17.232c-2.958,2.451-6.183,4.66-9.647,6.578v-0.938H116.62v3.55
				c-6.706-3.078-12.731-7.388-17.68-12.747c-2.475-2.68-4.679-5.622-6.564-8.804h0.519V95.854H198.425z"/>
			<path clip-path="url(#SVGID_4_)" fill="#39592A" d="M198.425,95.854v20.412v10.527h2.064c-1.103,3.427-2.547,6.755-4.306,9.941
				c-3.518,6.369-8.298,12.159-14.131,16.993c-2.916,2.417-6.096,4.595-9.513,6.486v-0.272h-55.533v2.848
				c-6.613-3.034-12.556-7.284-17.435-12.569c-2.44-2.644-4.614-5.544-6.473-8.683c-0.93-1.568-1.78-3.196-2.546-4.88h2.341V95.854
				H198.425z"/>
			<path clip-path="url(#SVGID_4_)" fill="#39592A" d="M198.425,95.854v20.367h3.501c-0.776,7.049-3.001,13.899-6.47,20.179
				c-3.47,6.279-8.182,11.988-13.933,16.754c-2.875,2.383-6.01,4.529-9.378,6.395c-1.685,0.933-3.428,1.795-5.226,2.58v-2.188
				h-49.526v2.146c-13.04-5.984-23.434-16.76-28.089-30.908h3.59V95.854H198.425z"/>
			<path clip-path="url(#SVGID_4_)" fill="#39592A" d="M198.425,95.854v20.32h2.681c-0.765,6.948-2.958,13.701-6.378,19.891
				c-6.838,12.379-18.58,22.508-33.604,27.453v-3.578h-43.342v1.445c-12.854-5.898-23.099-16.521-27.688-30.467h2.801V95.854
				H198.425z"/>
			<path clip-path="url(#SVGID_4_)" fill="#39592A" d="M198.124,95.369c4.523,13.745,2.616,28.163-4.123,40.363
				c-6.739,12.199-18.312,22.182-33.119,27.055v-2.846h-42.712v0.746c-12.668-5.814-22.765-16.283-27.287-30.027h2.012V95.854
				h105.229V95.369z"/>
			<path clip-path="url(#SVGID_4_)" fill="#385A2A" d="M197.335,95.628c4.456,13.542,2.577,27.749-4.063,39.769
				c-6.64,12.021-18.042,21.856-32.631,26.657v-2.113h-42.085v0.044c-12.481-5.729-22.43-16.042-26.885-29.585h1.224v-30.388h-1.224
				c0.52-1.617,1.121-3.211,1.798-4.776v0.619h103.866V95.628z"/>
			<path clip-path="url(#SVGID_4_)" fill="#395A2A" d="M196.546,95.888c4.391,13.34,2.539,27.334-4.002,39.174
				c-6.541,11.842-17.772,21.531-32.145,26.261v-1.382h-21.508v4.252c-7.03-0.396-13.801-2.088-19.948-4.91
				c-12.295-5.643-22.095-15.802-26.484-29.142h0.435v-29.935h-0.436c0.512-1.593,1.104-3.163,1.772-4.705v0.353h101.431v-2.431
				C195.977,94.232,196.273,95.054,196.546,95.888z"/>
			<path clip-path="url(#SVGID_4_)" fill="#395A2A" d="M195.758,96.147c4.323,13.138,2.5,26.92-3.941,38.583
				c-6.442,11.662-17.504,21.203-31.657,25.861v-0.65h-21.182v3.477c-6.924-0.39-13.593-2.057-19.647-4.835
				c-12.108-5.558-21.76-15.563-26.083-28.7c-2.162-6.569-2.787-13.3-2.066-19.845c0.36-3.272,1.057-6.499,2.067-9.636
				c0.504-1.569,1.087-3.115,1.745-4.634v0.087h99.893v-2.133C195.197,94.518,195.488,95.326,195.758,96.147z"/>
			<path clip-path="url(#SVGID_4_)" fill="#395A2A" d="M194.97,96.407c4.256,12.936,2.461,26.506-3.882,37.989
				c-6.343,11.481-17.234,20.877-31.17,25.463c-6.968,2.293-14.037,3.167-20.855,2.783c-6.818-0.383-13.384-2.024-19.345-4.76
				c-11.923-5.473-21.426-15.324-25.682-28.26c-4.257-12.937-2.462-26.506,3.88-37.989v4.221h95.217v-4.152
				C193.824,93.221,194.437,94.79,194.97,96.407z"/>
			<path clip-path="url(#SVGID_4_)" fill="#395A2A" d="M194.181,96.667c8.381,25.467-7.066,53.432-34.503,62.46
				c-13.719,4.516-27.837,3.441-39.573-1.945s-21.09-15.085-25.28-27.818c-4.19-12.734-2.424-26.092,3.82-37.395v3.887h93.728
				v-3.818C193.052,93.53,193.657,95.075,194.181,96.667z"/>
			<path clip-path="url(#SVGID_4_)" fill="#395A2A" d="M193.392,96.926c8.248,25.063-6.954,52.583-33.956,61.47
				c-13.5,4.441-27.394,3.385-38.943-1.916s-20.755-14.846-24.879-27.377s-2.385-25.677,3.759-36.801v3.552h92.241v-3.485
				C192.282,93.84,192.876,95.36,193.392,96.926z"/>
			<path clip-path="url(#SVGID_4_)" fill="#395B2B" d="M192.604,97.185c8.114,24.659-6.843,51.736-33.408,60.479
				c-13.283,4.371-26.952,3.33-38.315-1.885c-11.364-5.215-20.422-14.605-24.479-26.936c-4.057-12.329-2.346-25.263,3.699-36.208
				v3.219h90.752v-3.153C191.511,94.149,192.096,95.644,192.604,97.185z"/>
			<path clip-path="url(#SVGID_4_)" fill="#3A5B2B" d="M191.816,97.445c7.981,24.254-6.73,50.887-32.861,59.486
				c-13.064,4.299-26.51,3.276-37.688-1.854c-11.178-5.129-20.086-14.366-24.077-26.494c-3.991-12.127-2.308-24.849,3.639-35.614
				v2.885h89.265v-2.819C190.741,94.458,191.317,95.929,191.816,97.445z"/>
			<path clip-path="url(#SVGID_4_)" fill="#3A5B2B" d="M191.027,97.704c7.849,23.851-6.618,50.04-32.313,58.496
				c-12.848,4.228-26.069,3.222-37.06-1.823c-10.991-5.044-19.751-14.127-23.676-26.052c-3.924-11.925-2.27-24.435,3.578-35.021
				v2.55h87.777v-2.486C189.97,94.768,190.537,96.214,191.027,97.704z"/>
			<path clip-path="url(#SVGID_4_)" fill="#3A5B2B" d="M190.239,97.964c7.716,23.446-6.507,49.192-31.766,57.503
				s-51.99-3.956-59.706-27.402c-3.857-11.723-2.231-24.021,3.518-34.427v2.216h86.29v-2.154
				C189.2,95.077,189.756,96.499,190.239,97.964z"/>
			<path clip-path="url(#SVGID_4_)" fill="#3A5C2C" d="M189.45,98.223c7.583,23.042-6.394,48.343-31.217,56.513
				c-24.824,8.168-51.095-3.889-58.677-26.93c-3.792-11.521-2.193-23.607,3.457-33.834v1.882h84.801v-1.82
				C188.429,95.386,188.976,96.783,189.45,98.223z"/>
			<path clip-path="url(#SVGID_4_)" fill="#3B5C2C" d="M188.662,98.482c7.449,22.638-6.282,47.496-30.671,55.521
				c-24.388,8.025-50.196-3.82-57.646-26.457c-3.725-11.319-2.154-23.193,3.396-33.24v1.548h83.313v-1.488
				C187.659,95.695,188.196,97.068,188.662,98.482z"/>
			<path clip-path="url(#SVGID_4_)" fill="#3B5C2C" d="M187.873,98.742c7.316,22.233-6.17,46.647-30.122,54.529
				c-23.952,7.883-49.301-3.751-56.617-25.984c-3.659-11.117-2.116-22.778,3.334-32.646v1.214h81.827V94.7
				C186.888,96.005,187.416,97.353,187.873,98.742z"/>
			<path clip-path="url(#SVGID_4_)" fill="#3C5E2C" d="M187.084,99.002c7.184,21.829-6.058,45.798-29.575,53.538
				c-23.517,7.739-48.404-3.684-55.587-25.513c-3.592-10.914-2.078-22.364,3.274-32.052v0.88h80.339v-0.821
				C186.118,96.314,186.635,97.638,187.084,99.002z"/>
			<path clip-path="url(#SVGID_4_)" fill="#3C5E2C" d="M186.296,99.261c7.05,21.425-5.945,44.951-29.027,52.546
				c-23.081,7.597-47.509-3.614-54.559-25.04c-3.526-10.712-2.04-21.95,3.213-31.459v0.546h76.951v-4.132
				C184.262,94.064,185.416,96.583,186.296,99.261z"/>
			<path clip-path="url(#SVGID_4_)" fill="#3B5E2C" d="M185.507,99.521c6.918,21.021-5.833,44.103-28.479,51.555
				c-22.646,7.452-46.612-3.547-53.529-24.567c-3.458-10.51-2-21.536,3.153-30.866v0.212h75.498v-3.73
				C183.512,94.422,184.643,96.894,185.507,99.521z"/>
			<path clip-path="url(#SVGID_4_)" fill="#3C5E2C" d="M184.718,99.78c6.785,20.617-5.721,43.254-27.931,50.563
				c-22.211,7.309-45.716-3.479-52.5-24.095c-3.392-10.308-1.962-21.122,3.092-30.271c0.632-1.144,1.32-2.262,2.063-3.349v3.227
				h71.982v-3.328C182.761,94.78,183.871,97.203,184.718,99.78z"/>
			<path clip-path="url(#SVGID_4_)" fill="#3C5F2D" d="M183.93,100.04c6.651,20.212-5.608,42.406-27.384,49.571
				c-21.775,7.166-44.819-3.41-51.471-23.622c-3.326-10.106-1.924-20.708,3.031-29.679c0.62-1.121,1.295-2.217,2.023-3.283v2.827
				h70.571v-2.927C182.011,95.137,183.098,97.513,183.93,100.04z"/>
			<path clip-path="url(#SVGID_4_)" fill="#3D5F2D" d="M183.141,100.299c6.519,19.808-5.496,41.558-26.835,48.581
				c-21.34,7.021-43.924-3.343-50.442-23.15c-3.259-9.904-1.884-20.293,2.972-29.085c0.607-1.099,1.269-2.173,1.982-3.218v2.427
				h69.16v-2.525C181.261,95.495,182.327,97.823,183.141,100.299z"/>
			<path clip-path="url(#SVGID_4_)" fill="#3D612E" d="M182.353,100.559c6.386,19.404-5.385,40.71-26.289,47.589
				c-20.903,6.879-43.025-3.274-49.412-22.678c-3.192-9.702-1.846-19.879,2.911-28.491c0.595-1.076,1.243-2.128,1.942-3.152v2.027
				h67.748v-2.124C180.511,95.852,181.554,98.133,182.353,100.559z"/>
			<path clip-path="url(#SVGID_4_)" fill="#3E612D" d="M181.565,100.818c6.252,18.999-5.272,39.862-25.741,46.597
				c-20.469,6.736-42.13-3.205-48.383-22.205c-3.126-9.5-1.808-19.465,2.851-27.898c0.582-1.054,1.217-2.084,1.901-3.086v1.628
				h66.338v-1.722C179.761,96.21,180.783,98.443,181.565,100.818z"/>
			<path clip-path="url(#SVGID_4_)" fill="#3E612E" d="M180.776,101.078c6.119,18.595-5.16,39.014-25.193,45.606
				c-20.032,6.593-41.233-3.138-47.353-21.733c-3.06-9.297-1.77-19.051,2.789-27.304c1.141-2.063,2.484-4.033,4.016-5.878v4.085
				h62.771v-1.32C179.011,96.567,180.011,98.753,180.776,101.078z"/>
			<path clip-path="url(#SVGID_4_)" fill="#3F612E" d="M179.988,101.337c5.985,18.191-5.049,38.167-24.646,44.616
				c-19.598,6.449-40.337-3.07-46.324-21.261c-2.993-9.095-1.731-18.637,2.729-26.71c1.114-2.019,2.43-3.945,3.928-5.75v3.624
				h61.406v-0.918C178.26,96.925,179.239,99.063,179.988,101.337z"/>
			<path clip-path="url(#SVGID_4_)" fill="#3F622E" d="M179.199,101.597c5.854,17.787-4.936,37.317-24.098,43.624
				c-19.162,6.306-39.44-3.002-45.294-20.788c-2.927-8.893-1.692-18.223,2.668-26.117c1.09-1.974,2.375-3.858,3.841-5.623v3.162
				h60.042v-0.516C177.509,97.283,178.467,99.374,179.199,101.597z"/>
			<path clip-path="url(#SVGID_4_)" fill="#40642F" d="M178.41,101.856c5.721,17.383-4.823,36.47-23.549,42.632
				c-18.727,6.162-38.545-2.933-44.266-20.315c-2.859-8.691-1.654-17.809,2.607-25.523c1.066-1.929,2.322-3.77,3.754-5.495v2.7
				h58.678V95.74C176.759,97.64,177.695,99.684,178.41,101.856z"/>
			<path clip-path="url(#SVGID_4_)" fill="#40642F" d="M177.622,102.116c5.588,16.978-4.711,35.621-23.003,41.641
				c-18.291,6.019-37.647-2.865-43.234-19.843c-2.794-8.489-1.616-17.395,2.547-24.93c1.041-1.884,2.268-3.682,3.666-5.367v2.238
				h55.527v-2.39c0.64,0.856,1.235,1.75,1.785,2.677C176.009,97.998,176.923,99.993,177.622,102.116z"/>
			<path clip-path="url(#SVGID_4_)" fill="#41642F" d="M176.833,102.375c5.455,16.574-4.599,34.772-22.454,40.648
				s-36.752-2.796-42.205-19.37c-2.728-8.287-1.578-16.98,2.485-24.336c1.017-1.839,2.214-3.595,3.579-5.239v1.776h54.205V93.93
				c0.624,0.836,1.206,1.708,1.743,2.614C175.259,98.355,176.151,100.304,176.833,102.375z"/>
			<path clip-path="url(#SVGID_4_)" fill="#426530" d="M176.044,102.635c5.321,16.17-4.487,33.925-21.907,39.658
				s-35.855-2.729-41.176-18.898c-2.661-8.085-1.539-16.566,2.426-23.743c0.99-1.794,2.159-3.507,3.491-5.112v1.314h50.937v-3.8
				C172.564,95.031,174.714,98.592,176.044,102.635z"/>
			<path clip-path="url(#SVGID_4_)" fill="#416630" d="M175.256,102.894c5.188,15.766-4.375,33.076-21.359,38.666
				c-16.985,5.59-34.959-2.66-40.147-18.425c-2.594-7.883-1.5-16.152,2.365-23.149c0.967-1.749,2.106-3.418,3.404-4.983v0.853
				h49.663v-3.276C171.863,95.481,173.958,98.953,175.256,102.894z"/>
			<path clip-path="url(#SVGID_4_)" fill="#426731" d="M174.467,103.153c5.056,15.362-4.263,32.229-20.812,37.674
				c-16.549,5.447-34.063-2.592-39.117-17.953c-2.528-7.681-1.462-15.737,2.305-22.555c0.941-1.705,2.052-3.332,3.316-4.855v0.39
				h48.39v-2.752C171.162,95.931,173.204,99.313,174.467,103.153z"/>
			<path clip-path="url(#SVGID_4_)" fill="#436931" d="M173.679,103.413c4.922,14.957-4.151,31.381-20.264,36.684
				c-16.114,5.302-33.167-2.524-38.089-17.481c-2.461-7.479-1.423-15.324,2.243-21.962c1.834-3.319,4.325-6.336,7.364-8.855v4.057
				h42.982v-2.229C170.459,96.38,172.449,99.674,173.679,103.413z"/>
			<path clip-path="url(#SVGID_4_)" fill="#446931" d="M172.891,103.673c4.788,14.553-4.039,30.532-19.717,35.692
				c-15.679,5.159-32.27-2.456-37.06-17.008c-2.395-7.276-1.385-14.91,2.184-21.369c1.783-3.229,4.208-6.166,7.165-8.617v3.483
				h41.821V94.15C169.758,96.83,171.693,100.034,172.891,103.673z"/>
			<path clip-path="url(#SVGID_4_)" fill="#466B32" d="M172.102,103.932c4.655,14.149-3.927,29.685-19.169,34.7
				s-31.373-2.387-36.029-16.536c-2.328-7.074-1.347-14.495,2.122-20.775c1.734-3.14,4.091-5.994,6.967-8.377v2.91h40.658v-1.18
				C169.056,97.279,170.938,100.395,172.102,103.932z"/>
			<path clip-path="url(#SVGID_4_)" fill="#466B32" d="M171.314,104.192c4.521,13.744-3.814,28.837-18.621,33.709
				c-14.808,4.872-30.478-2.319-35.001-16.063c-2.261-6.873-1.308-14.082,2.063-20.182c1.685-3.05,3.974-5.823,6.767-8.137v2.336
				h39.497v-0.656C168.355,97.729,170.182,100.755,171.314,104.192z"/>
			<path clip-path="url(#SVGID_4_)" fill="#476C33" d="M170.525,104.451c4.39,13.34-3.702,27.988-18.073,32.718
				c-14.371,4.729-29.58-2.252-33.971-15.591c-2.194-6.67-1.27-13.667,2.001-19.588c1.635-2.96,3.857-5.651,6.568-7.898v1.763
				h38.335v-0.132C167.654,98.179,169.427,101.116,170.525,104.451z"/>
			<path clip-path="url(#SVGID_4_)" fill="#496D33" d="M169.736,104.71c4.258,12.936-3.59,27.141-17.525,31.727
				s-28.684-2.184-32.941-15.119c-2.128-6.468-1.23-13.252,1.94-18.994c1.586-2.871,3.74-5.48,6.369-7.659v1.189h33.538v-2.821
				c1.317,0.947,2.537,2.022,3.637,3.213C166.953,98.628,168.671,101.477,169.736,104.71z"/>
			<path clip-path="url(#SVGID_4_)" fill="#496E33" d="M168.948,104.97c4.124,12.531-3.478,26.292-16.978,30.734
				c-13.501,4.443-27.788-2.115-31.912-14.646c-2.063-6.266-1.193-12.838,1.879-18.4c1.537-2.781,3.624-5.309,6.17-7.42v0.616
				h32.491v-2.197c1.275,0.918,2.457,1.959,3.521,3.113C166.25,99.078,167.917,101.837,168.948,104.97z"/>
			<path clip-path="url(#SVGID_4_)" fill="#4A7034" d="M168.159,105.229c3.991,12.127-3.365,25.444-16.43,29.743
				c-13.064,4.301-26.892-2.046-30.882-14.173c-1.996-6.063-1.155-12.425,1.818-17.807c1.486-2.691,3.507-5.138,5.971-7.181v0.043
				h27.484v-3.872C161.709,94.548,166.164,99.166,168.159,105.229z"/>
			<path clip-path="url(#SVGID_4_)" fill="#4B7135" d="M167.371,105.489c3.857,11.723-3.253,24.595-15.883,28.751
				c-12.629,4.156-25.995-1.978-29.853-13.701c-3.858-11.723,3.253-24.595,15.882-28.751v4.066h18.217v-3.17
				C161.135,95.164,165.442,99.627,167.371,105.489z"/>
			<path clip-path="url(#SVGID_4_)" fill="#4C7235" d="M166.582,105.749c3.726,11.319-3.14,23.747-15.334,27.761
				c-12.194,4.013-25.1-1.91-28.823-13.229c-3.726-11.319,3.14-23.748,15.334-27.76v3.334h17.588v-2.469
				C160.562,95.779,164.719,100.089,166.582,105.749z"/>
			<path clip-path="url(#SVGID_4_)" fill="#4D7436" d="M165.793,106.008c3.592,10.915-3.028,22.9-14.787,26.769
				c-11.758,3.869-24.202-1.842-27.794-12.756c-3.592-10.915,3.028-22.899,14.787-26.769v2.603h16.96v-1.769
				C159.989,96.394,163.998,100.551,165.793,106.008z"/>
			<path clip-path="url(#SVGID_4_)" fill="#507636" d="M165.005,106.268c3.458,10.51-2.917,22.051-14.24,25.777
				c-11.323,3.727-23.306-1.773-26.765-12.283c-3.458-10.511,2.917-22.052,14.239-25.778v1.871h16.332v-1.067
				C159.415,97.01,163.276,101.013,165.005,106.268z"/>
			<path clip-path="url(#SVGID_4_)" fill="#507636" d="M164.216,106.527c3.326,10.106-2.804,21.203-13.691,24.786
				s-22.41-1.706-25.735-11.812c-3.326-10.106,2.804-21.203,13.691-24.786v1.139h15.704v-0.366
				C158.841,97.625,162.553,101.474,164.216,106.527z"/>
			
				<ellipse transform="matrix(0.9499 -0.3126 0.3126 0.9499 -28.0854 50.8321)" clip-path="url(#SVGID_4_)" fill="#517937" cx="144.503" cy="113.014" rx="19.924" ry="18.494"/>
			
				<ellipse transform="matrix(0.9499 -0.3126 0.3126 0.9499 -28.0849 50.8306)" clip-path="url(#SVGID_4_)" fill="#537937" cx="144.503" cy="113.015" rx="19.094" ry="17.722"/>
			
				<ellipse transform="matrix(0.9499 -0.3126 0.3126 0.9499 -28.0852 50.8317)" clip-path="url(#SVGID_4_)" fill="#547B38" cx="144.503" cy="113.014" rx="18.263" ry="16.952"/>
			
				<ellipse transform="matrix(0.9499 -0.3126 0.3126 0.9499 -28.086 50.8336)" clip-path="url(#SVGID_4_)" fill="#567E39" cx="144.502" cy="113.014" rx="17.433" ry="16.182"/>
			
				<ellipse transform="matrix(0.9499 -0.3126 0.3126 0.9499 -28.086 50.8336)" clip-path="url(#SVGID_4_)" fill="#577F39" cx="144.503" cy="113.015" rx="16.603" ry="15.411"/>
			
				<ellipse transform="matrix(0.9499 -0.3126 0.3126 0.9499 -28.0864 50.8351)" clip-path="url(#SVGID_4_)" fill="#59803A" cx="144.503" cy="113.014" rx="15.772" ry="14.641"/>
			
				<ellipse transform="matrix(0.9499 -0.3126 0.3126 0.9499 -28.0858 50.8333)" clip-path="url(#SVGID_4_)" fill="#5B833A" cx="144.503" cy="113.015" rx="14.943" ry="13.87"/>
			
				<ellipse transform="matrix(0.9499 -0.3126 0.3126 0.9499 -28.0864 50.8349)" clip-path="url(#SVGID_4_)" fill="#5C843B" cx="144.503" cy="113.014" rx="14.112" ry="13.1"/>
			
				<ellipse transform="matrix(0.9499 -0.3126 0.3126 0.9499 -28.0855 50.8328)" clip-path="url(#SVGID_4_)" fill="#5E853B" cx="144.503" cy="113.014" rx="13.282" ry="12.329"/>
			
				<ellipse transform="matrix(0.9499 -0.3126 0.3126 0.9499 -28.0863 50.8347)" clip-path="url(#SVGID_4_)" fill="#60883B" cx="144.503" cy="113.014" rx="12.452" ry="11.558"/>
			
				<ellipse transform="matrix(0.9499 -0.3126 0.3126 0.9499 -28.0866 50.8357)" clip-path="url(#SVGID_4_)" fill="#61893C" cx="144.503" cy="113.014" rx="11.622" ry="10.788"/>
			
				<ellipse transform="matrix(0.9499 -0.3126 0.3126 0.9499 -28.0858 50.8332)" clip-path="url(#SVGID_4_)" fill="#638B3C" cx="144.503" cy="113.015" rx="10.792" ry="10.017"/>
			
				<ellipse transform="matrix(0.9499 -0.3126 0.3126 0.9499 -28.0852 50.8315)" clip-path="url(#SVGID_4_)" fill="#668E3D" cx="144.503" cy="113.015" rx="9.962" ry="9.246"/>
			
				<ellipse transform="matrix(0.9499 -0.3126 0.3126 0.9499 -28.0856 50.8325)" clip-path="url(#SVGID_4_)" fill="#67913D" cx="144.503" cy="113.015" rx="9.132" ry="8.476"/>
			
				<ellipse transform="matrix(0.9499 -0.3126 0.3126 0.9499 -28.0872 50.8367)" clip-path="url(#SVGID_4_)" fill="#6A933E" cx="144.502" cy="113.015" rx="8.302" ry="7.706"/>
			
				<ellipse transform="matrix(0.9499 -0.3126 0.3126 0.9499 -28.0871 50.8368)" clip-path="url(#SVGID_4_)" fill="#6B943E" cx="144.503" cy="113.014" rx="7.472" ry="6.935"/>
			
				<ellipse transform="matrix(0.9499 -0.3126 0.3126 0.9499 -28.0863 50.8348)" clip-path="url(#SVGID_4_)" fill="#6D963E" cx="144.503" cy="113.014" rx="6.641" ry="6.165"/>
			
				<ellipse transform="matrix(0.9499 -0.3126 0.3126 0.9499 -28.0847 50.83)" clip-path="url(#SVGID_4_)" fill="#6F993F" cx="144.503" cy="113.015" rx="5.811" ry="5.393"/>
			
				<ellipse transform="matrix(0.9499 -0.3126 0.3126 0.9499 -28.0861 50.8341)" clip-path="url(#SVGID_4_)" fill="#729B3F" cx="144.503" cy="113.014" rx="4.981" ry="4.623"/>
			
				<ellipse transform="matrix(0.9499 -0.3126 0.3126 0.9499 -28.0871 50.8368)" clip-path="url(#SVGID_4_)" fill="#739E3F" cx="144.503" cy="113.014" rx="4.151" ry="3.853"/>
			
				<ellipse transform="matrix(0.9499 -0.3126 0.3126 0.9499 -28.0856 50.8327)" clip-path="url(#SVGID_4_)" fill="#76A03F" cx="144.503" cy="113.014" rx="3.32" ry="3.082"/>
			
				<ellipse transform="matrix(0.9499 -0.3126 0.3126 0.9499 -28.0871 50.8368)" clip-path="url(#SVGID_4_)" fill="#79A340" cx="144.503" cy="113.014" rx="2.491" ry="2.312"/>
			
				<ellipse transform="matrix(0.9499 -0.3126 0.3126 0.9499 -28.0841 50.8286)" clip-path="url(#SVGID_4_)" fill="#7BA540" cx="144.503" cy="113.014" rx="1.66" ry="1.541"/>
			
				<ellipse transform="matrix(0.9499 -0.3126 0.3126 0.9499 -28.0871 50.8368)" clip-path="url(#SVGID_4_)" fill="#7EA840" cx="144.503" cy="113.014" rx="0.83" ry="0.77"/>
		</g>
	</g>
	<path fill="#1D2A16" d="M94.767,191.876c-0.647-5.488-0.662-11.053-0.172-16.547c0.822-9.147,2.974-18.149,6.09-26.764
		c1.563-4.307,3.375-8.521,5.452-12.582c2.09-4.039,3.764-7.201,6.567-10.608l-2.61-3.699c-2.961,3.873-4.947,8.569-6.973,12.828
		c-2.003,4.271-3.71,8.659-5.159,13.126c-2.886,8.932-4.765,18.197-5.282,27.562c-0.303,5.584-0.096,11.219,0.74,16.748
		C93.869,191.922,94.318,191.9,94.767,191.876z"/>
	<path fill="#FFFFFF" d="M340.511,53.798c-2.729,0.581-5.668,0.613-8.412-0.074c-2.758-0.668-5.28-1.986-7.541-3.552
		c-4.536-3.16-8.188-7.194-12.331-10.577c-2.069-1.687-4.27-3.228-6.707-4.282c-2.425-1.067-5.094-1.577-7.755-1.416
		c-2.663,0.153-5.277,0.918-7.729,2.005c-2.461,1.088-4.777,2.493-6.987,4.039c2.162-1.611,4.44-3.086,6.886-4.257
		c2.439-1.168,5.065-2.027,7.798-2.266c2.727-0.248,5.519,0.197,8.063,1.229c2.561,1.019,4.871,2.541,7.028,4.195
		c4.313,3.32,8.094,7.241,12.535,10.133c2.211,1.436,4.596,2.58,7.115,3.11c2.52,0.545,5.111,0.448,7.639-0.167L340.511,53.798z"/>
	<path fill="#FFFFFF" d="M289.089,33.794c-2.492-1.318-4.829-2.789-7.156-4.246l-6.938-4.38c-2.313-1.438-4.642-2.845-7.017-4.136
		c-2.373-1.269-4.811-2.497-7.318-3.168c-1.227-0.31-2.577-0.48-3.475,0.005c-0.443,0.237-0.709,0.603-0.812,1.138
		c-0.1,0.532-0.032,1.161,0.108,1.779c0.291,1.247,0.842,2.484,1.446,3.683c0.612,1.201,1.303,2.372,2.025,3.523
		c2.911,4.605,6.291,8.93,9.565,13.313c-3.487-4.219-7.069-8.362-10.237-12.867c-0.789-1.13-1.547-2.283-2.239-3.489
		c-0.685-1.21-1.328-2.459-1.733-3.863c-0.19-0.704-0.336-1.457-0.229-2.284c0.056-0.41,0.191-0.841,0.436-1.225
		c0.122-0.191,0.266-0.372,0.432-0.524c0.132-0.142,0.415-0.339,0.526-0.402c0.751-0.455,1.579-0.576,2.337-0.592
		c0.764-0.005,1.499,0.089,2.206,0.236c2.822,0.616,5.367,1.769,7.875,2.951c2.496,1.203,4.922,2.515,7.323,3.851l7.153,4.046
		c2.379,1.334,4.749,2.666,7.153,3.792L289.089,33.794z"/>
	<path fill="#010101" d="M344.587,64.625c-0.859,0.173-1.608,0.188-2.369,0.22c-0.756,0.023-1.502,0.027-2.247,0.025
		c-1.488-0.006-2.969-0.034-4.448-0.065l-8.859-0.187c-5.9-0.097-11.801-0.099-17.695,0.124c-5.893,0.226-11.783,0.659-17.617,1.52
		c-5.823,0.879-11.641,2.13-17.085,4.457c5.381-2.474,11.188-3.891,17.008-4.93c5.834-1.023,11.737-1.617,17.645-2.004
		c5.91-0.383,11.832-0.542,17.749-0.605l8.869-0.053c1.476-0.009,2.95-0.02,4.416-0.054c0.731-0.018,1.463-0.042,2.183-0.083
		c0.712-0.045,1.447-0.095,2.034-0.236L344.587,64.625z"/>
	<path fill="#FFFFFF" d="M248.183,51.85c-6.001-3.372-12.477-5.695-19.103-7.185c-6.623-1.517-13.405-2.194-20.163-2.206
		c-6.76,0.039-13.511,0.689-20.111,2.095c-6.604,1.363-13.076,3.366-19.275,6.021c-6.228,2.59-12.187,5.821-17.828,9.541
		c-5.676,3.679-10.967,7.941-15.988,12.51c-10.001,9.205-18.603,19.936-26.21,31.392c6.229-12.265,14.291-23.723,24.137-33.554
		c4.895-4.941,10.299-9.389,16.035-13.365c5.767-3.936,11.928-7.312,18.364-10.058c6.461-2.683,13.187-4.752,20.065-6.042
		c6.882-1.249,13.894-1.841,20.872-1.522c6.978,0.272,13.914,1.391,20.581,3.377C236.199,44.882,242.63,47.756,248.183,51.85z"/>
	<path fill="#FFFFFF" d="M247.144,32.795c-6.14-3.45-12.787-5.768-19.565-7.304c-6.779-1.559-13.715-2.31-20.636-2.424
		c-6.923-0.063-13.848,0.46-20.633,1.748c-6.788,1.247-13.455,3.145-19.838,5.75c-6.41,2.541-12.538,5.779-18.293,9.589
		c-5.789,3.767-11.138,8.195-16.13,13.005c-9.95,9.684-18.122,21.173-24.951,33.468c5.39-12.993,13.002-25.226,22.818-35.571
		c4.875-5.199,10.36-9.836,16.233-13.917c5.902-4.042,12.257-7.435,18.891-10.132c6.659-2.637,13.588-4.595,20.646-5.762
		c7.062-1.125,14.234-1.583,21.359-1.16c7.123,0.378,14.195,1.569,21.011,3.594C234.841,25.753,241.451,28.622,247.144,32.795z"/>
	<g>
		<path fill="#010101" d="M243.921,19.343c0,0-1.221-10.86-3.007-12.79c-0.843,6.245-7.531,9.409-7.531,9.409"/>
		<path fill="#010101" d="M227.199,14.514c0,0-1.482-10.63-3.156-12.439c-0.791,5.855-6.474,8.656-6.474,8.656"/>
		<path fill="#010101" d="M211.285,12.088c0,0-1.742-10.399-3.305-12.088c-0.738,5.464-5.416,7.904-5.416,7.904"/>
		<path fill="#010101" d="M196.18,11.906c0,0-2.003-10.169-3.455-11.737c-0.687,5.074-4.358,7.151-4.358,7.151"/>
		<path fill="#010101" d="M181.882,13.807c0,0-2.265-9.938-3.605-11.386c-0.633,4.685-3.302,6.399-3.302,6.399"/>
		<path fill="#010101" d="M168.876,15.071c0,0-3.014-7.147-4.242-8.473c-0.58,4.293-3.155,7.209-3.155,7.209"/>
		<path fill="#010101" d="M156.081,18.589c0,0-4.642-4.232-5.757-5.438c-0.527,3.903-0.681,6.238-0.681,6.238"/>
		<path fill="#010101" d="M144.645,25.867c0,0-3.817-4.697-4.821-5.782c-0.476,3.513-1.576,7.275-1.576,7.275"/>
		<path fill="#010101" d="M134.489,33.943c0,0-5.157-4.5-6.051-5.464c-0.422,3.123,0.515,6.864,0.515,6.864"/>
		<path fill="#010101" d="M123.32,45.433c0,0-7.108-3.26-7.89-4.105c-0.37,2.732,0.888,8.211,0.888,8.211"/>
		<path fill="#010101" d="M108.286,63.719c0,0-4.723-6.908-4.052-9.276c1.568,1.222,7.998,2.373,7.998,2.373"/>
		<path fill="#010101" d="M101.698,78.441c0,0-7.575-6.214-6.074-9.47c1.658,0.818,5.521,1.673,5.521,1.673"/>
		<path fill="#010101" d="M94.51,91.812c0,0-6.05-5.956-6.044-8.846c1.198,1.091,6.96,0,6.96,0"/>
		<path fill="#010101" d="M88.62,104.9c0,0-6.603-8.239-6.938-8.601c1.961,0.153,8.199,0,8.199,0"/>
		<path fill="#010101" d="M84.108,117.441c0,0-6.146-7.897-6.369-8.139c1.65-0.213,8.538-0.863,8.538-0.863"/>
		<path fill="#010101" d="M80.782,128.974c0,0-5.141-7.404-5.253-7.526c-0.053,0.391,8.329-1.878,8.329-1.878"/>
		<polyline fill="#010101" points="78.449,139.227 73.045,132.053 82.432,129.421 		"/>
	</g>
	<path fill="#FFFFFF" d="M137.313,214.025c-0.782,0.695-1.785,1.172-2.849,1.251c-1.059,0.089-2.152-0.216-3.021-0.848
		c-0.874-0.627-1.513-1.562-1.836-2.587c-0.328-1.029-0.354-2.135-0.182-3.191c0.187-1.053,0.504-2.09,1.07-3.024
		c0.563-0.927,1.383-1.72,2.372-2.207c0.987-0.491,2.123-0.675,3.218-0.536c1.096,0.135,2.146,0.567,3.035,1.207
		c0.894,0.636,1.641,1.456,2.238,2.36c0.296,0.454,0.561,0.929,0.789,1.418c0.231,0.508,0.406,1.024,0.528,1.563
		c0.499,2.164,0.012,4.448-1.01,6.354c-1.024,1.92-2.533,3.564-4.375,4.745c-0.459,0.293-0.951,0.557-1.451,0.77
		c-0.527,0.221-1.056,0.382-1.609,0.486c-1.103,0.207-2.249,0.161-3.332-0.102c-2.172-0.535-4.072-1.832-5.504-3.492
		c-0.716-0.833-1.326-1.766-1.764-2.794c-0.109-0.259-0.204-0.514-0.293-0.796c-0.073-0.244-0.151-0.516-0.216-0.784
		c-0.13-0.53-0.231-1.065-0.303-1.605c-0.283-2.159-0.134-4.351,0.364-6.456c0.503-2.104,1.364-4.135,2.623-5.924
		c1.257-1.777,2.951-3.318,5-4.211c2.046-0.86,4.232-1.211,6.423-1.124c2.184,0.091,4.369,0.68,6.279,1.793
		c1.915,1.104,3.513,2.733,4.64,4.61c1.134,1.882,1.832,3.976,2.233,6.09c0.4,2.123,0.524,4.258,0.487,6.396
		c-0.05,2.138-0.312,4.285-0.885,6.366c-0.572,2.079-1.468,4.091-2.73,5.864c-1.255,1.777-2.876,3.293-4.702,4.455
		c-1.828,1.168-3.843,1.996-5.908,2.566c-2.067,0.57-4.187,0.89-6.307,1.044c-1.061,0.077-2.123,0.116-3.184,0.11
		c-1.055,0.006-2.164-0.074-3.218-0.252c-4.285-0.695-8.149-2.922-11.314-5.73c-3.19-2.82-5.805-6.197-8.07-9.748
		c-2.25-3.57-4.141-7.346-5.796-11.209c-1.649-3.867-3.078-7.828-4.185-11.879c0.611,2.008,1.323,3.982,2.078,5.938
		c0.751,1.957,1.561,3.892,2.43,5.799c1.739,3.809,3.718,7.512,6.019,10.998c2.292,3.482,4.923,6.77,8.071,9.471
		c3.127,2.692,6.87,4.758,10.928,5.352c1.019,0.154,2.009,0.213,3.054,0.196c1.037-0.013,2.074-0.05,3.105-0.131
		c2.063-0.159,4.111-0.479,6.089-1.034c1.977-0.555,3.882-1.352,5.589-2.453c1.708-1.099,3.204-2.511,4.364-4.168
		c2.349-3.325,3.277-7.488,3.345-11.58c0.026-2.055-0.104-4.133-0.491-6.134c-0.388-2.002-1.053-3.948-2.097-5.665
		c-1.025-1.721-2.457-3.186-4.177-4.189c-1.717-1.008-3.699-1.555-5.704-1.646c-1.998-0.094-4.058,0.238-5.884,1
		c-1.817,0.78-3.357,2.154-4.523,3.787c-2.318,3.295-3.324,7.544-2.839,11.554c0.063,0.501,0.155,0.998,0.272,1.487
		c0.058,0.243,0.123,0.476,0.199,0.735c0.067,0.218,0.154,0.457,0.248,0.681c0.38,0.904,0.926,1.753,1.574,2.514
		c1.299,1.509,3.009,2.719,4.924,3.21c0.952,0.245,1.949,0.296,2.912,0.129c0.479-0.081,0.961-0.224,1.405-0.401
		c0.467-0.191,0.906-0.418,1.337-0.683c1.708-1.058,3.155-2.582,4.132-4.351c0.977-1.762,1.445-3.838,1.023-5.801
		c-0.102-0.488-0.259-0.972-0.455-1.422c-0.207-0.465-0.45-0.912-0.723-1.339c-0.546-0.853-1.227-1.618-2.036-2.212
		c-0.808-0.592-1.745-1.012-2.732-1.152c-0.985-0.146-2.011-0.005-2.914,0.42c-0.907,0.422-1.674,1.127-2.218,1.979
		s-0.88,1.85-1.084,2.852c-0.191,1.006-0.192,2.058,0.095,3.041c0.28,0.98,0.862,1.882,1.682,2.504
		c0.813,0.623,1.852,0.961,2.89,0.909C135.498,215.126,136.506,214.695,137.313,214.025z"/>
</g>
</svg>
