<?xml version="1.0" encoding="utf-8"?>
<!-- Generator: Adobe Illustrator 16.0.0, SVG Export Plug-In . SVG Version: 6.00 Build 0)  -->
<!DOCTYPE svg PUBLIC "-//W3C//DTD SVG 1.1//EN" "http://www.w3.org/Graphics/SVG/1.1/DTD/svg11.dtd">
<svg version="1.1" id="Layer_1" xmlns="http://www.w3.org/2000/svg" xmlns:xlink="http://www.w3.org/1999/xlink" x="0px" y="0px"
	 width="289.409px" height="134.504px" viewBox="0 0 289.409 134.504" enable-background="new 0 0 289.409 134.504"
	 xml:space="preserve">
<g>
	<polygon fill="#989898" points="103.164,38.201 215.877,9.749 287.239,92.745 174.525,121.194 	"/>
	<path fill="#989898" d="M0,63.038c34.164-29.114,53.069-41.882,101.388-23.533l71.361,82.997
		c-41.067-16.992-76.476-23.007-115.564,12.002L0,63.038z"/>
	<polygon fill="#676767" points="104.348,32.883 217.061,4.433 288.422,87.428 175.708,115.879 	"/>
	<path fill="#676767" d="M1.184,57.72c34.163-29.113,53.068-41.881,101.388-23.532l71.362,82.996
		c-41.068-16.992-76.477-23.007-115.565,12.004L1.184,57.72z"/>
	<polygon fill="#010101" points="105.334,28.453 218.048,0 289.409,82.996 176.695,111.449 	"/>
	<polygon fill="#FEFDEE" points="108.268,29.321 217.387,1.776 286.471,82.125 177.355,109.669 	"/>
	<path fill="#010101" d="M2.171,53.286c34.163-29.11,53.068-41.878,101.387-23.529l71.362,82.997
		C133.853,95.76,98.444,89.747,59.355,124.758L2.171,53.286z"/>
	<path fill="#FEFDEE" d="M4.433,52.68c32.9-28.037,51.105-40.332,97.636-22.663l68.718,79.923
		c-39.545-16.363-73.645-22.151-111.285,11.563L4.433,52.68z"/>
	<polygon fill="#ED2224" points="121.623,33.986 164.345,22.46 187.478,50.236 144.756,61.765 	"/>
	<polygon fill="#F6EB16" points="170.964,21.254 213.686,9.728 236.82,37.505 194.095,49.031 	"/>
	<polygon fill="#B9539F" points="150.648,69.677 242.293,43.72 265.425,71.497 173.782,97.454 	"/>
	<path fill="#2E3192" d="M9.569,52.523C35.428,37.423,52.8,11.852,101.093,33.889l26.01,28.761
		C86.722,50.038,66.332,51.001,30.925,75.348L9.569,52.523z"/>
	<path fill="#00A651" d="M36.295,80.189c11.161-10.861,19.46-15.825,36.373-16.842l26.565,27.209
		c-11.106,1.568-24.519,6.778-38.328,18.814L36.295,80.189z"/>
	<path fill="#00A651" d="M83.467,63.817c8.588-4.648,29.864-2.353,44.624,3.375l29.567,33.346
		c-12.685-5.377-33.44-14.119-47.498-10.351L83.467,63.817z"/>
</g>
</svg>
