<?xml version="1.0" encoding="utf-8"?>
<!-- Generator: Adobe Illustrator 16.0.0, SVG Export Plug-In . SVG Version: 6.00 Build 0)  -->
<!DOCTYPE svg PUBLIC "-//W3C//DTD SVG 1.1//EN" "http://www.w3.org/Graphics/SVG/1.1/DTD/svg11.dtd">
<svg version="1.1" id="Layer_1" xmlns="http://www.w3.org/2000/svg" xmlns:xlink="http://www.w3.org/1999/xlink" x="0px" y="0px"
	 width="171.035px" height="102.718px" viewBox="0 0 171.035 102.718" enable-background="new 0 0 171.035 102.718"
	 xml:space="preserve">
<g>
	<g>
		<path fill="#414142" d="M162.281,92.179c0,5.821-4.721,10.539-10.537,10.539H19.289c-5.82,0-10.538-4.718-10.538-10.539L0,10.54
			C0,4.717,4.714,0,10.537,0h149.961c5.819,0,10.537,4.717,10.537,10.54L162.281,92.179z"/>
	</g>
	<g>
		<path fill="#323031" d="M156.709,92.865c0,5.441-4.408,9.853-9.854,9.853H24.177c-5.44,0-9.854-4.411-9.854-9.853L5.569,17.687
			c0-5.438,4.415-9.849,9.859-9.849h140.183c5.438,0,9.848,4.41,9.848,9.849L156.709,92.865z"/>
	</g>
	<g>
		<g>
			<path fill="#231F20" d="M88.603,38.091c-10.001,0-18.111,8.107-18.111,18.112c0,10.002,8.11,18.115,18.111,18.115
				c10.005,0,18.115-8.113,18.115-18.115C106.718,46.198,98.607,38.091,88.603,38.091z M88.603,70.137
				c-7.694,0-13.936-6.236-13.936-13.934c0-7.691,6.242-13.936,13.936-13.936c7.694,0,13.937,6.244,13.937,13.936
				C102.539,63.9,96.297,70.137,88.603,70.137z"/>
		</g>
		<g>
			<path fill="#231F20" d="M85.121,50.95c1.192,0,2.158,0.968,2.158,2.159v3.219c0,1.192-0.966,2.159-2.158,2.159h-5.816v1.84
				c0,0.365-0.31,0.652-0.653,0.652c-0.362,0-0.649-0.287-0.649-0.652v-7.218c0-1.191,0.965-2.159,2.165-2.159H85.121z
				 M79.305,57.197h5.816c0.476,0,0.878-0.39,0.878-0.869v-3.219c0-0.463-0.402-0.854-0.878-0.854h-4.953
				c-0.471,0-0.863,0.392-0.863,0.854V57.197z"/>
			<path fill="#231F20" d="M96.442,50.939c0.377,0,0.649,0.291,0.649,0.653c0,0.339-0.272,0.652-0.649,0.652h-5.705
				c-0.476,0-0.865,0.388-0.865,0.852v5.714c0,0.464,0.39,0.864,0.865,0.864h5.705c0.377,0,0.649,0.3,0.649,0.643
				c0,0.362-0.272,0.65-0.649,0.65h-5.705c-1.192,0-2.155-0.964-2.155-2.157v-5.714c0-1.191,0.963-2.157,2.155-2.157H96.442z"/>
		</g>
	</g>
	<g>
		<g>
			<path fill="#FFFFFF" d="M85.519,37.163c-10.007,0-18.116,8.108-18.116,18.11c0,10.006,8.108,18.115,18.116,18.115
				c10,0,18.113-8.109,18.113-18.115C103.632,45.271,95.52,37.163,85.519,37.163z M85.519,69.211
				c-7.698,0-13.936-6.239-13.936-13.938c0-7.693,6.238-13.932,13.936-13.932c7.696,0,13.931,6.238,13.931,13.932
				C99.45,62.972,93.215,69.211,85.519,69.211z"/>
		</g>
		<g>
			<path fill="#FFFFFF" d="M83.891,50.284c1.186,0,2.149,0.963,2.149,2.153v3.224c0,1.188-0.963,2.154-2.149,2.154h-5.819v1.843
				c0,0.364-0.315,0.652-0.648,0.652c-0.368,0-0.655-0.288-0.655-0.652v-7.221c0-1.19,0.964-2.153,2.168-2.153H83.891z
				 M78.072,56.525h5.819c0.469,0,0.871-0.388,0.871-0.864v-3.224c0-0.462-0.402-0.85-0.871-0.85h-4.955
				c-0.477,0-0.864,0.388-0.864,0.85V56.525z"/>
			<path fill="#FFFFFF" d="M95.205,50.272c0.379,0,0.652,0.287,0.652,0.651c0,0.34-0.273,0.65-0.652,0.65h-5.701
				c-0.473,0-0.865,0.387-0.865,0.853v5.716c0,0.466,0.393,0.863,0.865,0.863h5.701c0.379,0,0.652,0.305,0.652,0.642
				c0,0.363-0.273,0.651-0.652,0.651h-5.701c-1.19,0-2.156-0.966-2.156-2.156v-5.716c0-1.188,0.966-2.154,2.156-2.154H95.205z"/>
		</g>
	</g>
</g>
</svg>
