<?xml version="1.0" encoding="utf-8"?>
<!-- Generator: Adobe Illustrator 16.0.0, SVG Export Plug-In . SVG Version: 6.00 Build 0)  -->
<!DOCTYPE svg PUBLIC "-//W3C//DTD SVG 1.1//EN" "http://www.w3.org/Graphics/SVG/1.1/DTD/svg11.dtd">
<svg version="1.1" id="Layer_1" xmlns="http://www.w3.org/2000/svg" xmlns:xlink="http://www.w3.org/1999/xlink" x="0px" y="0px"
	 width="208.026px" height="142.13px" viewBox="0 0 208.026 142.13" enable-background="new 0 0 208.026 142.13"
	 xml:space="preserve">
<g>
	<g>
		
			<linearGradient id="SVGID_1_" gradientUnits="userSpaceOnUse" x1="43.0527" y1="102.6787" x2="31.4319" y2="116.0469" gradientTransform="matrix(0.9996 0.0275 -0.0275 0.9996 13.3696 -18.7667)">
			<stop  offset="0" style="stop-color:#EEABCC"/>
			<stop  offset="1" style="stop-color:#231F20"/>
		</linearGradient>
		<polygon fill-rule="evenodd" clip-rule="evenodd" fill="url(#SVGID_1_)" points="1.161,33.04 0,49.888 101.354,142.13 
			102.586,122.672 		"/>
		
			<linearGradient id="SVGID_2_" gradientUnits="userSpaceOnUse" x1="96.2832" y1="76.5264" x2="64.5193" y2="1.6954" gradientTransform="matrix(0.9996 0.0275 -0.0275 0.9996 13.3696 -18.7667)">
			<stop  offset="0" style="stop-color:#F097C0"/>
			<stop  offset="1" style="stop-color:#FFFFFF"/>
		</linearGradient>
		<polygon fill-rule="evenodd" clip-rule="evenodd" fill="url(#SVGID_2_)" points="1.161,33.04 97.582,0 208.026,72.849 
			102.586,122.672 		"/>
		
			<linearGradient id="SVGID_3_" gradientUnits="userSpaceOnUse" x1="144.7422" y1="210.9316" x2="144.7422" y2="80.1009" gradientTransform="matrix(0.9996 0.0275 -0.0275 0.9996 13.3696 -18.7667)">
			<stop  offset="0" style="stop-color:#BBBDBF"/>
			<stop  offset="1" style="stop-color:#E7E7E7"/>
		</linearGradient>
		<polygon fill-rule="evenodd" clip-rule="evenodd" fill="url(#SVGID_3_)" points="101.354,142.13 203.002,92.583 208.026,72.849 
			102.586,122.672 		"/>
	</g>
	<g>
		<path fill="#ED2224" d="M90.1,30.772c12.801-4.896,22.215-14.143,17.438-20.295c-4.775-6.152-20.945-5.611-33.746-0.714l0,0
			c-4.881,2.062-8.852,6.733-8.189,10.928c0.027,0.097,0.033,0.181,0.061,0.277c0,0,0,0,0.012,0.016
			c0.048,0.702,0.15,2.025-0.691,2.346c0,0-41.765,12.571-44.04,13.442c-2.275,0.87-3.467,2.388-3.859,3.716
			c-0.396,1.32-0.165,2.854,0.878,4.197c0.012,0.017,0.012,0.017,0.024,0.031c0.011,0.016,0.011,0.016,0.021,0.029
			c1.044,1.343,2.756,2.314,4.563,2.809c1.795,0.482,3.887,0.704,6.509-0.299c2.623-1.004,39.964-18.696,39.964-18.696
			c0.842-0.321,2.396,0.446,3.201,0.858l0.398,0.209C77.388,32.425,84.9,32.761,90.1,30.772"/>
	</g>
	<g>
		<g>
			<path fill="#F0F8F5" d="M102.997,48.006c0,0-3.989,0.265-4.905-1.578c-0.917-1.844-3.912-0.637-3.87-2.097
				c0.042-1.458-1.427-3.601,0.981-5.664c2.409-2.064,0.976-3.648,4.23-4.983c3.254-1.336,6.042-5.383,8.939-5.213
				c2.896,0.172,6.783-1.766,11.989-1.773c5.209-0.01,4.899,3.595,7.523,2.86c2.626-0.731,4.509-0.522,5.278,1.106
				c0.77,1.63,4.317,0.723,4.085,3.427c-0.23,2.702-1.387,5.579-2.646,6.783c-1.262,1.204-3.676,5.284-5.706,4.857
				c-2.029-0.425-3.456-4.027-3.456-4.027l-2.575-2.741l-13.713,2.812l-5.586,2.498L102.997,48.006z"/>
			<path fill="#DAEDE6" d="M103.13,47.474c-0.539,0.278-1.104,0.406-1.718,0.427c0.206-0.147,0.38-0.455,0.563-0.613
				c-0.334-0.094-0.559-0.27-0.954-0.311c0.106,0.005,0.212-0.002,0.316-0.021c-0.502-0.504-1.255-0.839-1.908-1.296
				c0.516,0.057,1.154-0.076,1.679-0.077c-1.499-0.496-3.311-1.098-5.076-1.484c1.405-0.613,3.021-0.785,4.527-0.931
				c-0.975-0.334-2.018-0.683-3.096-0.698c1.017,0.064,2.169-0.013,3.082-0.057c-0.987-0.957-1.366-2.046-3.027-2.415
				c0.97,0.174,2.02,0.413,2.98,0.336c-0.061-0.44-0.232-0.884-0.563-1.234c5.072,2.026,9.627-3.585,14.177-5.343
				c3.915-1.513,4.389-0.86,7.681,0.407c3.04,1.17,4.669,0.101,7.412,0.029c-1.312,0.57-2.435,1.322-3.004,2.256
				c2.867-0.259,5.031-0.575,7.69,0.611c0.207,0.022,0.21,0.01,0.012-0.037c-2.103,0.403-5.376,1.177-7.082,2.355
				c1.251,0.839,3.261,1.236,4.717,0.954c-1.199,0.344-2.62,0.669-3.804,0.872c1.011,0.205,1.974,0.834,2.862,1.13
				c-4.629,1.109-8.705-2.677-13.146-2.864C113.444,39.301,104.536,44.43,103.13,47.474z"/>
			<path fill="#F0F8F5" d="M128.428,50.129l3.931,2.129l0.83,1.886c0,0,5.473-2.155,7.046-1.214c1.571,0.941-0.615,0.115,2.29-0.374
				c2.907-0.493,10.605,1.611,14.218,3.835c3.61,2.226,12.225,9.047,13.218,13.535c0.992,4.488,1.095,3.286,1.095,3.286
				l-14.37-2.034l4.273,15.694l-35.92,19.251c0,0-6.769-3.905-10.844-13.564l-4.122-6.571c0,0-10.109-2.243-15.438,0.797
				c-5.33,3.042-7.319,4.823-11.979,3.481c-7.796-2.247-9.164-11.339-3.933-14.521c5.231-3.184,7.2-3.016,9.836-3.564
				c2.638-0.547,5.833,0.733,8.795-1.701c2.964-2.437,8.221-5.248,14.607-8.434c6.39-3.186,4.355-5.813,4.355-5.813L128.428,50.129z
				"/>
			<path fill="#E1EEE9" d="M132.354,66.827c15.001-1.44,19.79-8.144,19.79-8.144l5.831,1.406l2.233-1.264
				c-1.339-1.027-2.56-1.877-3.466-2.436c-3.612-2.224-11.311-4.328-14.218-3.835c-2.905,0.489-0.719,1.315-2.29,0.374
				c-1.573-0.941-7.046,1.214-7.046,1.214l-0.83-1.886l-3.931-2.129l-12.112,6.103c0,0,1.776,2.296-3.209,5.198
				C114.843,63.341,120.369,67.979,132.354,66.827z"/>
			<path fill="#D3E4DE" d="M128.637,50.376c0,0,2.879,3.354,0.431,6.205c-2.447,2.851-5.704,4.857-7.083,4.874
				c-1.379,0.018-4.762-0.692-4.762-0.692l4.303-5.212L128.637,50.376z"/>
			<path fill="#E1EEE9" d="M96.015,86.096c0,0,7.198-2.342,9.641-3.849c2.443-1.506-1.04-8.105,1.383-14.201
				c0,0,2.845,12.765,7.156,24.513l-4.122-6.571C110.072,85.987,99.78,86.52,96.015,86.096z"/>
			<path fill="#E1EEE9" d="M148.286,82.46c0,0,2.301-12.36-5.034-16.467c0,0,6.112-4.772,12.748-1.18
				c6.632,3.593,13.457,5.941,13.457,5.941l-4.523,4.555l-8.123,8.938L148.286,82.46z"/>
			<path fill="#D3E4DE" d="M120.164,57.666l4.968,4.711l0.857,7.335c0,0,2.793,23.335,9.566,29.159l1.693,1.457l2.15-1.935
				l-4.129-1.967c0,0-7.702-14.274-7.476-25.603l-0.669-8.579l-4.778-5.955L120.164,57.666z"/>
			<path fill="#FDC477" d="M86.043,75.83c-2.954,1.471-7.546,3.513-7.796,6.777c-0.164,2.145,3.279,6.664,5.943,6.236
				c3.14-0.502,5.497-3.619,5.988-6.092C90.522,81.021,88.942,74.768,86.043,75.83z"/>
			<path fill="#CFD9CB" d="M171.036,75.043c-0.504,0.462,0.375,2.862-0.803,3.563c-2.709,1.61-2.95,1.263-5.866,1.158
				c-2.522-0.09-8.2-1.736-9.078-3.864c-1.245-3.014,4.268-3.147,7.24-3.368C167.768,72.143,167.099,74.047,171.036,75.043z"/>
			<path fill="#858484" d="M112.757,93.762c0,0,2.873-8.244,21.531-16.833c18.756-8.632,22.396-5.751,22.396-5.751l-15.371,13.461
				l-22.969,9.584L112.757,93.762z"/>
			<path fill="#FCC190" d="M141.313,84.639l15.371-13.461c0,0-15.389,4.129-25.603,9.51c-10.213,5.38-17.58,13.173-17.58,13.173
				l4.843,0.362L141.313,84.639z"/>
			<path fill="#A09D9C" d="M155.954,70.967c0,0-23.848,21.426-43.197,22.795c0,0,14.128,7.155,25.069,2.063
				C148.765,90.734,156.381,84.664,155.954,70.967z"/>
			<polygon fill="#C85828" points="88.53,79.574 122.296,89.669 123.926,87.993 89.09,77.857 			"/>
			<path fill="#FDC477" d="M79.358,84.444c0,0,2.288-6.125,5.546-8.133c3.257-2.006,7.102-3.158,9.612-2.876
				c2.51,0.282,6.491,0.396,11.952,3.24c1.056,0.549,3.722,5.429,0.315,7.893c-3.406,2.467-4.984,2.25-4.445,1.263
				s1.45-2.448,1.45-2.448s-2.561,2.857-3.739,2.151c-1.18-0.705,0.081-1.908,0.177-2.53c0.093-0.622-1.67,2.126-2.647,1.464
				c-0.976-0.664-0.418-1.373-0.251-1.889c0.168-0.515-0.538,0.987-1.848,0.347c-1.308-0.642-0.717-0.792-1.008-2.229
				c-0.289-1.438-0.289-1.438-0.289-1.438s-2.905,1.593-4.721,3.506c-1.817,1.91-4.268,5.433-5.191,5.606
				C83.347,88.544,79.358,84.444,79.358,84.444z"/>
			<polygon fill="#C85828" points="94.653,81.408 84.865,78.621 85.835,76.317 94.184,79.26 			"/>
			<path fill="#FCC190" d="M114.758,87.969c0,0,0.392-3.156,0.91-3.315c0.519-0.16,0.306,0.591,1.685,0.361
				c1.377-0.229,0.493-1.034,1.377-0.229c0.883,0.804,0.911,0.992,2.109,1.015c1.197,0.021,0.22,0.028,1.828,0.609
				c1.61,0.58,1.114-0.539,3.459,0.598c0,0,0.929,0.399-0.654,0.691c-1.586,0.293-0.353,1.83-2.471,2.191
				c-2.117,0.358-2.778-0.278-4.92-0.793C115.938,88.584,114.758,87.969,114.758,87.969z"/>
			<path fill="#FDD2B1" d="M135.667,79.264c3.916-1.823,12.863-6.123,16.717-6.035c-3.534,2.911-7.631,6.104-12.204,8.902
				C142.337,78.899,139.195,77.48,135.667,79.264z"/>
			<path fill="#FDD2B1" d="M130.795,81.402c0,0,2.556-1.848,5.653-0.709c3.097,1.139-1.149,4.406-1.149,4.406
				S136.856,80.105,130.795,81.402z"/>
			<path fill="#FDD2B1" d="M125.157,84.502c0,0,2.557-1.849,5.653-0.711c3.099,1.139-1.149,4.407-1.149,4.407
				S131.219,83.205,125.157,84.502z"/>
			<path fill="#F1AD79" d="M128.042,83.639c0,0,3.018-0.161,3.083,1.625c0.065,1.788-0.659,1.575-0.659,1.575
				S131.683,84.218,128.042,83.639z"/>
			<path fill="#F1AD79" d="M134.42,80.777c0,0,2.075-0.113,2.12,1.117c0.046,1.229-0.453,1.082-0.453,1.082
				S136.925,81.176,134.42,80.777z"/>
			<path fill="#F1AD79" d="M144.11,75.817c0.26-0.129,7.09-2.671,7.064-2.37c-0.025,0.299-6.21,4.629-5.865,4.457
				c0.345-0.173,4.975-3.727,3.483-3.366C147.302,74.897,144.11,75.817,144.11,75.817z"/>
			<path fill="#FDD2B1" d="M126.126,87.008c-2.345-1.137-1.849-0.018-3.459-0.598c-1.608-0.581-0.631-0.588-1.828-0.609
				c-1.198-0.022-1.227-0.211-2.109-1.015c-0.884-0.806,0,0-1.377,0.229c-1.379,0.229-1.166-0.521-1.685-0.361
				c-0.081,0.024-0.157,0.119-0.229,0.265c0.188,0.284,0.4,0.548,0.673,0.724c0.408-0.089,0.891-0.456,1.316-0.429
				c0.487,0.033,0.307,0.755,1.022,0.348c0.191,0.247,0.364,0.512,0.545,0.768c0.451-0.008,0.999-0.084,1.048,0.324
				c1.041-0.614,2.068,0.384,2.996,0.701c-0.184,0.32-0.225,0.667-0.092,0.996c0.16-0.295,0.296-0.622,0.514-0.88
				c0.105,0.077,0.194,0.103,0.299,0.206c0.405-0.315,1.093-0.128,1.764,0.013C127.031,87.396,126.126,87.008,126.126,87.008z"/>
			<path fill="#F1AD79" d="M119.48,89.274c-0.334-0.111-1.262-0.416-1.338-0.798c-0.065-0.334,0.474-0.959,0.552-1.337
				c-0.366,0.77-1.157,1.515-2.141,1.006c0.245-0.605,0.759-1.319,0.666-1.974c-0.432,0.752-0.957,2.15-2.247,1.899
				c0.431,0.196,1.496,0.641,3.108,1.026c1.604,0.385,2.378,0.84,3.557,0.893c0.255-0.646,0.392-1.318,0.949-1.911
				C121.397,88.813,121.129,89.813,119.48,89.274z"/>
			<path fill="#FDD2B1" d="M124.229,86.02c1.427,0.02,3.15,0.218,2.996,1.789c-0.119,1.226-1.441,2.041-2.711,2.285
				c0.613-0.574,1.508-1.757,1.205-2.539c-0.392-1.015-1.62-0.781-2.572-0.809C123.658,86.5,123.722,86.273,124.229,86.02z"/>
			<path fill="#B0B0B0" d="M142.038,93.627c-8.772,2.832-14.621-0.314-17.523-2.698c-1.282,0.491-2.568,0.934-3.853,1.316
				c2.944,2.372,8.069,4.278,8.069,4.278c-4.592,0.304-8.837-2.032-11.026-3.506c-1.67,0.373-3.325,0.63-4.948,0.744
				c0,0,14.128,7.155,25.069,2.063c1.598-0.744,3.126-1.511,4.569-2.316C142.276,93.547,142.157,93.587,142.038,93.627z"/>
			<path fill="#A09D9C" d="M128.731,96.523c0,0-5.125-1.906-8.069-4.278c-0.988,0.294-1.976,0.552-2.957,0.772
				C119.895,94.491,124.14,96.827,128.731,96.523z"/>
			<path fill="#6E6D6E" d="M147.46,86.323c0,0-3.258-2.496-5.381-4.783c-0.832,0.554-1.688,1.111-2.565,1.664
				C141.779,84.776,145.179,86.75,147.46,86.323z"/>
			<path fill="#8F8F8E" d="M135.05,85.879c-1.27,0.718-2.563,1.416-3.881,2.081c2.832,1.523,7.14,3.562,9.659,3.394
				c3.99-0.264,5.433-0.695,5.433-0.695S140.833,89.981,135.05,85.879z"/>
			<path fill="#F0F8F5" d="M171.055,73.212l-0.212-0.029C171.024,73.56,171.055,73.212,171.055,73.212z"/>
			<path fill="#748E85" d="M121.613,68.968c0.298,1.098,0.02,2.098-0.62,2.234c-0.644,0.136-1.405-0.643-1.703-1.739
				s-0.02-2.097,0.62-2.233C120.554,67.093,121.314,67.871,121.613,68.968z"/>
			<path fill="#748E85" d="M123.432,76.208c0.3,1.096,0.021,2.097-0.621,2.233c-0.641,0.137-1.402-0.642-1.7-1.74
				c-0.297-1.095-0.021-2.096,0.621-2.232C122.372,74.333,123.135,75.111,123.432,76.208z"/>
			<path fill="#748E85" d="M134.528,72.112c0.298,1.098,0.021,2.098-0.621,2.234s-1.403-0.643-1.702-1.738
				c-0.298-1.099-0.02-2.098,0.622-2.234C133.47,70.237,134.229,71.017,134.528,72.112z"/>
			<path fill="#748E85" d="M132.521,65.638c0.298,1.097,0.021,2.097-0.622,2.233c-0.642,0.136-1.401-0.643-1.701-1.739
				c-0.298-1.097-0.02-2.097,0.621-2.232C131.461,63.762,132.222,64.541,132.521,65.638z"/>
			<path fill="#F1AD79" d="M123.604,84.99c0.289-1.491,0.12-3.18-1.02-4.645C125.387,81.047,126.536,83.754,123.604,84.99z"/>
			<path fill="#FCC190" d="M132.761,86.175c2.572-1.273,9.174,1.141,5.916,2.473C137.384,87.238,135.235,84.692,132.761,86.175z"/>
			<path fill="#FCC190" d="M129.911,81.311c-1.274-2.21,2.212-7.646,3.488-4.861C131.607,77.475,128.382,79.174,129.911,81.311z"/>
			<path fill="#FCC190" d="M121.993,89.471c2.384,0.65,4.143,5.619,1.344,4.631C123.709,92.587,124.483,89.945,121.993,89.471z"/>
			<path fill="#FDD2B1" d="M118.346,79.851c0.586,1.006,2.258,2.421,0.882,3.384C122.515,83.167,119.715,80.329,118.346,79.851z"/>
			<path fill="#E6A85F" d="M127.5,54.296l1.567,2.285c0,0-2.636,3.423-5.594,4.515s-3.913,0.035-3.913,0.035L127.5,54.296z"/>
			<polygon fill="#B65927" points="128.428,50.129 130.188,49.315 130.775,47.808 129.722,46.609 129.399,47.153 129.821,48.22 
				128.918,48.927 128.511,47.659 128.938,47.382 129.148,46.447 130.446,45.864 129.434,44.835 126.705,43.449 127.579,42.246 
				125.63,41.914 125.505,44.176 			"/>
			<path fill="#FDC477" d="M102.997,48.006c0,0,1.653,1.01,4.301,3.522c2.649,2.512,2.496,4.313,5.393,6.512
				c2.896,2.196,6.778,4.479,10.208,2.385c3.43-2.095,7.238-6.677,5.412-11.707c-1.829-5.03-3.66-8.718-3.66-8.718l-7.301-2.875
				l-11.937,5.568L102.997,48.006z"/>
			<polygon fill="#B65927" points="103.899,45.557 105.339,48.672 107.298,51.528 108.925,53.337 107.34,53.615 105.744,52.303 
				103.903,51.306 103.244,49.332 103.587,48.65 102.997,48.006 102.574,44.3 			"/>
			<path fill="#B04F4F" d="M114.543,56.35c2.775,0.154,7.399-1.621,9.044-3.571c-0.073,2.155-0.754,4.31-3.439,5.003
				C118.118,58.306,115.644,57.978,114.543,56.35z"/>
			<path fill="#FCDCDC" d="M123.386,53.026c-1.745,1.545-6.246,3.178-8.753,3.343c0.112,0.174,0.147,0.212,0.34,0.437
				c1.87,0.249,8.292-2.448,8.292-2.448S123.642,53.533,123.386,53.026z"/>
			<path fill="#F2B46B" d="M114.511,48.409c1.661,1.985,0.869,4.584,2.688,6.378c0.867-0.282,1.632-0.7,2.108-1.374
				C115.582,54.139,116.226,50.468,114.511,48.409z"/>
			<path fill="#815030" d="M113.258,50.657c0.279,0.569,0.196,1.145-0.184,1.282c-0.382,0.138-0.915-0.211-1.195-0.78
				c-0.278-0.569-0.197-1.144,0.185-1.282C112.443,49.738,112.979,50.088,113.258,50.657z"/>
			<path fill="#815030" d="M120.728,48.371c0.277,0.569,0.195,1.143-0.186,1.281c-0.38,0.139-0.915-0.211-1.194-0.78
				s-0.196-1.144,0.185-1.282C119.914,47.451,120.448,47.801,120.728,48.371z"/>
			<polygon fill="#815030" points="115.736,46.36 120.348,43.773 123.937,44.571 120.71,44.743 116.244,47.545 			"/>
			<polygon fill="#815030" points="112.204,47.295 108.839,47.518 107.634,49.961 109.167,48.48 112.57,48.506 			"/>
			<path fill="#F2B264" d="M119.795,38.088c0.642,1.243,2.62,5.158,4.701,10.135c2.434,5.818-0.68,10.703-3.925,12.996
				c0.786-0.083,1.568-0.331,2.327-0.794c3.43-2.095,7.238-6.677,5.412-11.707c-1.829-5.03-3.66-8.718-3.66-8.718L119.795,38.088z"
				/>
			<path fill="#D5E0D3" d="M102.997,48.006c0,0,2.852-4.277,7.954-5.96c5.104-1.681,9.073-2.224,14.679-0.132l-0.916-3.297
				l-1.799-3.13c0,0-10.338-0.884-16.519,2.775c-6.183,3.656-6.303,6.018-6.303,6.018L102.997,48.006z"/>
			<path fill="#FDC477" d="M157.019,74.366c-0.065,0.415,0.651,7.636-13.488,15.353c0,0-3.111,1.835-6.152,2.299
				c0,0-1.167-0.855-3.199-0.609c-2.032,0.247-4.699-0.436-4.699-0.436s-0.818,1.173,1.813,1.971
				c2.631,0.796-0.166,1.615-1.026,1.373c-0.862-0.24-5.789,0.683-7.535,0.501c-1.748-0.184-1.13,1.089,0.195,1.314
				c1.324,0.226,2.455,0.524,2.455,0.524s-0.789,0.202-3.075-0.095c-2.289-0.297-2.292,0.375-1.074,0.631
				c1.217,0.257,1.217,0.257,1.217,0.257s-0.849-0.057-0.235,0.5s1.819,0.626,2.361,0.739c0.54,0.114,0.146,0.214,0.612,0.557
				c0.467,0.342,0.909,0.313,1.711,0.297c0.799-0.016,4.594-0.564,6.444-1.582c1.85-1.021,3.81-1.709,4.389-2.383
				c0,0,4.398-0.851,9.836-2.891c5.436-2.04,11.734-7.385,13.339-8.761c1.606-1.375,4.992-7.758,4.992-7.758L157.019,74.366z"/>
			<path fill="#D3DDD0" d="M154.281,69.406c0.576,1.619,0.438,3.284,0.675,4.911c0.389,2.674,0.115,1.977,3.327,1.434
				c4.144-0.7,7.552,1.609,10.905,3.146c5.407-0.515,2.283-8.451-1.388-9.051c-1.872-0.305-4.743,0.304-6.975-0.034
				C158.199,69.414,156.833,68.602,154.281,69.406z"/>
		</g>
	</g>
</g>
</svg>
