<?xml version="1.0" encoding="utf-8"?>
<!-- Generator: Adobe Illustrator 16.0.0, SVG Export Plug-In . SVG Version: 6.00 Build 0)  -->
<!DOCTYPE svg PUBLIC "-//W3C//DTD SVG 1.1//EN" "http://www.w3.org/Graphics/SVG/1.1/DTD/svg11.dtd">
<svg version="1.1" id="Layer_1" xmlns="http://www.w3.org/2000/svg" xmlns:xlink="http://www.w3.org/1999/xlink" x="0px" y="0px"
	 width="193.603px" height="321.467px" viewBox="0 0 193.603 321.467" enable-background="new 0 0 193.603 321.467"
	 xml:space="preserve">
<g>
	
		<image overflow="visible" opacity="0.6" width="998" height="1531" xlink:href="AB735B56.png"  transform="matrix(0.24 0 0 0.24 -22.936 -9.9331)">
	</image>
	<g>
		<g>
			<radialGradient id="SVGID_1_" cx="96.8013" cy="160.7334" r="158.0343" gradientUnits="userSpaceOnUse">
				<stop  offset="0" style="stop-color:#F8AB56"/>
				<stop  offset="1" style="stop-color:#9E6E33"/>
			</radialGradient>
			<polygon fill="url(#SVGID_1_)" points="72.978,0 119.419,0 119.419,75.994 193.603,75.994 193.603,126.054 120.023,126.054 
				126.656,321.467 67.55,321.467 74.787,124.847 0,124.847 0,77.2 71.169,77.2 			"/>
			<linearGradient id="SVGID_2_" gradientUnits="userSpaceOnUse" x1="29.4473" y1="153.6128" x2="159.8218" y2="153.6128">
				<stop  offset="0" style="stop-color:#91642C"/>
				<stop  offset="0.3408" style="stop-color:#FFDCA0"/>
				<stop  offset="1" style="stop-color:#A77D5D"/>
			</linearGradient>
			<polygon fill="url(#SVGID_2_)" points="159.822,90.432 108.371,90.432 108.371,32.875 86.133,32.875 86.133,90.432 
				29.447,90.432 29.447,112.233 86.133,112.233 86.133,274.351 108.371,274.351 108.371,112.233 159.822,112.233 			"/>
			<g>
				<radialGradient id="SVGID_3_" cx="48.7129" cy="210.5234" r="79.2136" gradientUnits="userSpaceOnUse">
					<stop  offset="0.0169" style="stop-color:#F1E6A1"/>
					<stop  offset="1" style="stop-color:#C7882F"/>
				</radialGradient>
				<polygon fill="url(#SVGID_3_)" points="90.954,106.893 6.166,106.893 6.166,117.875 79.902,117.875 74.38,314.154 
					91.26,314.154 91.26,107.013 90.954,107.013 				"/>
				<radialGradient id="SVGID_4_" cx="48.5601" cy="50.7886" r="42.8807" gradientUnits="userSpaceOnUse">
					<stop  offset="0.0169" style="stop-color:#F1E6A1"/>
					<stop  offset="1" style="stop-color:#C7882F"/>
				</radialGradient>
				<polygon fill="url(#SVGID_4_)" points="90.954,83.168 90.821,83.168 90.821,7.427 79.839,7.427 79.839,83.168 6.166,83.168 
					6.166,94.15 90.954,94.15 				"/>
				<radialGradient id="SVGID_5_" cx="145.9546" cy="210.5234" r="79.1728" gradientUnits="userSpaceOnUse">
					<stop  offset="0.0169" style="stop-color:#F1E6A1"/>
					<stop  offset="1" style="stop-color:#C7882F"/>
				</radialGradient>
				<polygon fill="url(#SVGID_5_)" points="103.56,107.013 103.56,117.875 103.56,314.154 120.441,314.154 114.917,117.875 
					188.349,117.875 188.349,106.893 103.56,106.893 				"/>
				<radialGradient id="SVGID_6_" cx="145.9546" cy="50.7886" r="42.8809" gradientUnits="userSpaceOnUse">
					<stop  offset="0.0169" style="stop-color:#F1E6A1"/>
					<stop  offset="1" style="stop-color:#C7882F"/>
				</radialGradient>
				<polygon fill="url(#SVGID_6_)" points="114.546,83.168 114.546,7.427 103.564,7.427 103.564,83.168 103.56,83.168 103.56,94.15 
					188.349,94.15 188.349,83.168 				"/>
			</g>
			<radialGradient id="SVGID_7_" cx="75.5039" cy="80.1841" r="3.7213" gradientUnits="userSpaceOnUse">
				<stop  offset="0" style="stop-color:#F8AB56"/>
				<stop  offset="1" style="stop-color:#9E6E33"/>
			</radialGradient>
			<line fill="url(#SVGID_7_)" x1="71.169" y1="77.2" x2="79.839" y2="83.168"/>
			<radialGradient id="SVGID_8_" cx="116.9829" cy="79.5811" r="3.0662" gradientUnits="userSpaceOnUse">
				<stop  offset="0" style="stop-color:#F8AB56"/>
				<stop  offset="1" style="stop-color:#9E6E33"/>
			</radialGradient>
			<line fill="url(#SVGID_8_)" x1="119.419" y1="75.994" x2="114.546" y2="83.168"/>
			<radialGradient id="SVGID_9_" cx="190.9761" cy="79.5811" r="3.1438" gradientUnits="userSpaceOnUse">
				<stop  offset="0" style="stop-color:#F8AB56"/>
				<stop  offset="1" style="stop-color:#9E6E33"/>
			</radialGradient>
			<line fill="url(#SVGID_9_)" x1="188.349" y1="83.168" x2="193.603" y2="75.994"/>
			<radialGradient id="SVGID_10_" cx="190.9761" cy="121.9639" r="3.4371" gradientUnits="userSpaceOnUse">
				<stop  offset="0" style="stop-color:#F8AB56"/>
				<stop  offset="1" style="stop-color:#9E6E33"/>
			</radialGradient>
			<line fill="url(#SVGID_10_)" x1="188.349" y1="117.875" x2="193.603" y2="126.054"/>
			<radialGradient id="SVGID_11_" cx="76.4082" cy="3.7134" r="3.5748" gradientUnits="userSpaceOnUse">
				<stop  offset="0" style="stop-color:#F8AB56"/>
				<stop  offset="1" style="stop-color:#9E6E33"/>
			</radialGradient>
			<line fill="url(#SVGID_11_)" x1="72.978" y1="0" x2="79.839" y2="7.427"/>
			<radialGradient id="SVGID_12_" cx="116.9829" cy="3.7134" r="3.1405" gradientUnits="userSpaceOnUse">
				<stop  offset="0" style="stop-color:#F8AB56"/>
				<stop  offset="1" style="stop-color:#9E6E33"/>
			</radialGradient>
			<line fill="url(#SVGID_12_)" x1="119.419" y1="0" x2="114.546" y2="7.427"/>
			<radialGradient id="SVGID_13_" cx="3.083" cy="80.1841" r="3.0339" gradientUnits="userSpaceOnUse">
				<stop  offset="0" style="stop-color:#F8AB56"/>
				<stop  offset="1" style="stop-color:#9E6E33"/>
			</radialGradient>
			<line fill="url(#SVGID_13_)" x1="6.166" y1="83.168" x2="0" y2="77.2"/>
			<radialGradient id="SVGID_14_" cx="3.083" cy="121.3608" r="3.2909" gradientUnits="userSpaceOnUse">
				<stop  offset="0" style="stop-color:#F8AB56"/>
				<stop  offset="1" style="stop-color:#9E6E33"/>
			</radialGradient>
			<line fill="url(#SVGID_14_)" x1="6.166" y1="117.875" x2="0" y2="124.847"/>
			<radialGradient id="SVGID_15_" cx="77.3447" cy="121.3608" r="3.0574" gradientUnits="userSpaceOnUse">
				<stop  offset="0" style="stop-color:#F8AB56"/>
				<stop  offset="1" style="stop-color:#9E6E33"/>
			</radialGradient>
			<line fill="url(#SVGID_15_)" x1="79.902" y1="117.875" x2="74.787" y2="124.847"/>
			<radialGradient id="SVGID_16_" cx="117.4702" cy="121.9639" r="3.4091" gradientUnits="userSpaceOnUse">
				<stop  offset="0" style="stop-color:#F8AB56"/>
				<stop  offset="1" style="stop-color:#9E6E33"/>
			</radialGradient>
			<line fill="url(#SVGID_16_)" x1="114.917" y1="117.875" x2="120.023" y2="126.054"/>
			<radialGradient id="SVGID_17_" cx="70.9648" cy="317.8105" r="3.5377" gradientUnits="userSpaceOnUse">
				<stop  offset="0" style="stop-color:#F8AB56"/>
				<stop  offset="1" style="stop-color:#9E6E33"/>
			</radialGradient>
			<line fill="url(#SVGID_17_)" x1="74.38" y1="314.154" x2="67.55" y2="321.467"/>
			<radialGradient id="SVGID_18_" cx="123.5483" cy="317.8105" r="3.393" gradientUnits="userSpaceOnUse">
				<stop  offset="0" style="stop-color:#F8AB56"/>
				<stop  offset="1" style="stop-color:#9E6E33"/>
			</radialGradient>
			<line fill="url(#SVGID_18_)" x1="120.441" y1="314.154" x2="126.656" y2="321.467"/>
		</g>
	</g>
</g>
</svg>
