<?xml version="1.0" encoding="utf-8"?>
<!-- Generator: Adobe Illustrator 16.0.0, SVG Export Plug-In . SVG Version: 6.00 Build 0)  -->
<!DOCTYPE svg PUBLIC "-//W3C//DTD SVG 1.1//EN" "http://www.w3.org/Graphics/SVG/1.1/DTD/svg11.dtd">
<svg version="1.1" id="Layer_1" xmlns="http://www.w3.org/2000/svg" xmlns:xlink="http://www.w3.org/1999/xlink" x="0px" y="0px"
	 width="206.859px" height="201.598px" viewBox="0 0 206.859 201.598" enable-background="new 0 0 206.859 201.598"
	 xml:space="preserve">
<g id="g3674" transform="matrix(1.5,0,0,1.5,109.02942,-468.01519)">
	<path id="path3586" fill="#414141" stroke="#414141" stroke-width="2" stroke-linecap="round" stroke-linejoin="round" d="
		M-25.38,339.87c0.391-3.568,2.762-8.723,5.557-10.009l77.454,6.368c1.633,0.604,7.773,6.587,6.822,10.411l-44.481,63.826
		c-1.421,1.33-8.947,4.115-13.755-0.447L-25.38,339.87z"/>
	<g id="g3515" transform="matrix(0.1910977,-0.3317217,0.1910977,0.3317217,152.64427,500.07482)">
		<path id="path3491" fill="#ED2224" stroke="#010101" stroke-width="2" d="M-225.895-502.516
			c-6.129,4.446-14.783-0.582-19.227-11.172l-49.256-117.319c-4.447-10.59-3.07-22.892,3.06-27.339l67.903-49.254
			c6.128-4.447,14.781,0.58,19.227,11.171l49.255,117.319c4.445,10.59,3.068,22.892-3.062,27.335L-225.895-502.516z"/>
		<path id="circle3493" fill="#414141" stroke="#010101" stroke-width="2" d="M-231.448-621.241
			c5.171-3.752,12.406,0.452,16.159,9.388c3.752,8.937,2.599,19.225-2.573,22.976c-5.172,3.752-12.408-0.451-16.16-9.389
			C-237.772-607.201-236.622-617.489-231.448-621.241z"/>
	</g>
	<g id="g3558" transform="matrix(-0.3828283,3.653872e-4,0.1917306,-0.3313563,472.998,680.25529)">
		<path id="path3566" fill="#ED2224" stroke="#010101" stroke-width="2" d="M1591.393,1019.392
			c-6.129,4.445-14.781-0.582-19.226-11.169l-49.257-117.322c-4.444-10.587-3.069-22.891,3.062-27.337l67.901-49.255
			c6.128-4.447,14.781,0.58,19.228,11.169l49.254,117.32c4.447,10.591,3.07,22.891-3.06,27.336L1591.393,1019.392z"/>
		<path id="circle3560" fill="#414141" stroke="#010101" stroke-width="2" d="M1578.57,965.626
			c5.171-3.753,12.405,0.45,16.156,9.386c3.755,8.94,2.602,19.226-2.57,22.977c-5.171,3.753-12.409-0.452-16.16-9.388
			C1572.244,979.663,1573.394,969.377,1578.57,965.626z"/>
		<path id="circle3562" fill="#414141" stroke="#010101" stroke-width="2" d="M1631.526,927.21c5.171-3.753,12.408,0.452,16.16,9.39
			c3.751,8.936,2.601,19.224-2.571,22.975c-5.174,3.753-12.408-0.45-16.16-9.388C1625.203,941.251,1626.353,930.963,1631.526,927.21
			z"/>
		<path id="circle3564" fill="#414141" stroke="#010101" stroke-width="2" d="M1593.11,835.711
			c5.172-3.751,12.408,0.452,16.161,9.39c3.751,8.936,2.601,19.224-2.575,22.973c-5.171,3.753-12.405-0.45-16.159-9.388
			C1586.787,849.75,1587.939,839.464,1593.11,835.711z"/>
		<path id="circle3568" fill="#414141" stroke="#010101" stroke-width="2" d="M1585.84,900.668
			c5.171-3.753,12.408,0.452,16.159,9.388c3.751,8.936,2.601,19.224-2.571,22.975c-5.173,3.755-12.408-0.45-16.16-9.388
			C1579.516,914.707,1580.666,904.419,1585.84,900.668z"/>
		<path id="circle3570" fill="#414141" stroke="#010101" stroke-width="2" d="M1540.154,874.127
			c5.171-3.753,12.407,0.45,16.159,9.388c3.751,8.936,2.6,19.222-2.573,22.975c-5.171,3.753-12.408-0.452-16.159-9.388
			C1533.83,888.164,1534.979,877.876,1540.154,874.127z"/>
	</g>
	<g id="g3572" transform="matrix(0.1917306,0.3313563,-0.3828283,-3.653872e-4,468.80258,313.31549)">
		<path id="path3580" fill="#ED2224" stroke="#010101" stroke-width="2" d="M70.455,1312.464
			c-6.129,4.446-14.782-0.581-19.228-11.172L1.972,1183.974c-4.446-10.589-3.069-22.891,3.06-27.339l67.902-49.255
			c6.129-4.447,14.782,0.58,19.228,11.171l49.255,117.321c4.446,10.59,3.069,22.891-3.06,27.337L70.455,1312.464z"/>
		<path id="circle3574" fill="#414141" stroke="#010101" stroke-width="2" d="M57.63,1258.699
			c5.173-3.752,12.408,0.449,16.159,9.387c3.753,8.937,2.601,19.224-2.572,22.975c-5.171,3.754-12.408-0.451-16.161-9.389
			C51.306,1272.736,52.455,1262.449,57.63,1258.699z"/>
		<path id="circle3576" fill="#414141" stroke="#010101" stroke-width="2" d="M110.588,1220.282
			c5.173-3.751,12.408,0.453,16.159,9.389c3.753,8.939,2.599,19.223-2.572,22.976c-5.171,3.753-12.408-0.451-16.159-9.389
			C104.263,1234.321,105.415,1224.035,110.588,1220.282z"/>
		<path id="circle3578" fill="#414141" stroke="#010101" stroke-width="2" d="M72.172,1128.783
			c5.173-3.753,12.408,0.453,16.159,9.389c3.753,8.937,2.601,19.224-2.57,22.977c-5.173,3.751-12.408-0.453-16.161-9.39
			C65.849,1142.823,66.999,1132.536,72.172,1128.783z"/>
		<path id="circle3584" fill="#414141" stroke="#010101" stroke-width="2" d="M19.214,1167.197
			c5.173-3.751,12.408,0.453,16.159,9.389c3.755,8.938,2.601,19.224-2.57,22.977c-5.173,3.753-12.408-0.453-16.161-9.39
			C12.892,1181.237,14.041,1170.949,19.214,1167.197z"/>
	</g>
</g>
<g id="g3658" transform="matrix(1.5,0,0,1.5,-774.05268,372.6114)">
	<g id="g3634" transform="matrix(0,1,-1,0,1481.1182,-519.93236)">
		<path id="path3590" fill="#414141" stroke="#414141" stroke-width="2" stroke-linecap="round" stroke-linejoin="round" d="
			M327.702,878.67c2.014-2.971,6.52-6.419,9.593-6.249l66.311,43.332c0.921,1.693,2.762,5.351,0.736,10.291l-69.564,36.235
			c-1.878,0.513-9.833-0.545-11.95-6.827L327.702,878.67z"/>
		<g id="g3592" transform="matrix(0.1910977,-0.3317217,0.1910977,0.3317217,536.57663,687.19304)">
			<path id="path3594" fill="#ED2224" stroke="#010101" stroke-width="2" d="M-947.622-133.291
				c-9.484-0.59-16.762-8.347-16.172-17.239l6.524-98.513c0.589-8.891,8.828-15.687,18.313-15.097l105.058,6.523
				c9.484,0.59,16.761,8.347,16.172,17.239l-6.525,98.513c-0.589,8.892-8.828,15.687-18.313,15.097L-947.622-133.291z"/>
			<path id="circle3602" fill="#3E3737" stroke="#010101" stroke-width="2" d="M-889.859-209.042
				c8.003,0.497,14.088,6.983,13.591,14.488s-7.389,13.184-15.392,12.687c-8.003-0.497-14.088-6.983-13.592-14.488
				C-904.755-203.859-897.865-209.54-889.859-209.042z"/>
		</g>
		<g id="g3606" transform="matrix(-0.3828283,3.653872e-4,0.1917306,-0.3313563,856.93036,867.37351)">
			<path id="path3608" fill="#ED2224" stroke="#010101" stroke-width="2" d="M1110.469-160.75
				c-9.483-0.588-16.761-8.346-16.171-17.239l6.524-98.513c0.591-8.892,8.83-15.686,18.316-15.097l105.057,6.524
				c9.484,0.589,16.761,8.346,16.172,17.24l-6.524,98.513c-0.589,8.892-8.83,15.686-18.312,15.097L1110.469-160.75z"/>
			<path id="circle3610" fill="#574545" stroke="#010101" stroke-width="2" d="M1124.719-200.63
				c8.004,0.497,14.09,6.985,13.591,14.489c-0.496,7.505-7.387,13.186-15.391,12.688c-8.002-0.497-14.089-6.983-13.593-14.489
				C1109.826-195.445,1116.716-201.126,1124.719-200.63z"/>
			<path id="circle3614" fill="#574545" stroke="#010101" stroke-width="2" d="M1211.744-272.372
				c8.003,0.496,14.089,6.984,13.591,14.488c-0.496,7.505-7.387,13.185-15.389,12.688c-8.004-0.497-14.089-6.984-13.593-14.489
				C1196.851-267.189,1203.742-272.869,1211.744-272.372z"/>
		</g>
		<g id="g3620" transform="matrix(0.1917306,0.3313563,-0.3828283,-3.653872e-4,852.73494,500.43371)">
			<path id="path3622" fill="#ED2224" stroke="#010101" stroke-width="2" d="M1141.163,1926.374
				c-9.485-0.589-16.761-8.347-16.173-17.239l6.525-98.514c0.592-8.892,8.83-15.686,18.315-15.097l105.059,6.525
				c9.483,0.589,16.76,8.346,16.172,17.238l-6.525,98.514c-0.589,8.891-8.83,15.686-18.314,15.097L1141.163,1926.374z"/>
			<path id="circle3624" fill="#414141" stroke="#010101" stroke-width="2" d="M1155.411,1886.495
				c8.005,0.497,14.089,6.983,13.593,14.489c-0.499,7.503-7.389,13.183-15.39,12.688c-8.005-0.497-14.089-6.985-13.593-14.489
				C1140.518,1891.678,1147.41,1885.997,1155.411,1886.495z"/>
			<path id="circle3628" fill="#414141" stroke="#010101" stroke-width="2" d="M1242.438,1814.751
				c8.003,0.498,14.087,6.984,13.591,14.488c-0.497,7.504-7.387,13.186-15.391,12.687c-8.002-0.496-14.087-6.982-13.591-14.486
				C1227.544,1819.935,1234.435,1814.255,1242.438,1814.751z"/>
			<path id="circle3630" fill="#414141" stroke="#010101" stroke-width="2" d="M1198.925,1850.623
				c8.003,0.498,14.088,6.983,13.592,14.489c-0.498,7.504-7.389,13.185-15.392,12.687c-8.004-0.497-14.086-6.982-13.592-14.489
				C1184.032,1855.808,1190.922,1850.127,1198.925,1850.623z"/>
		</g>
	</g>
</g>
</svg>
