<?xml version="1.0" encoding="utf-8"?>
<!-- Generator: Adobe Illustrator 16.0.0, SVG Export Plug-In . SVG Version: 6.00 Build 0)  -->
<!DOCTYPE svg PUBLIC "-//W3C//DTD SVG 1.1//EN" "http://www.w3.org/Graphics/SVG/1.1/DTD/svg11.dtd">
<svg version="1.1" id="Layer_1" xmlns="http://www.w3.org/2000/svg" xmlns:xlink="http://www.w3.org/1999/xlink" x="0px" y="0px"
	 width="96.886px" height="113.834px" viewBox="0 0 96.886 113.834" enable-background="new 0 0 96.886 113.834"
	 xml:space="preserve">
<g>
	<path fill-rule="evenodd" clip-rule="evenodd" fill="#231F20" d="M15.47,0.006c0.939-0.02,1.886-0.001,2.775,0.189
		c1.428,0.232,2.506,0.846,3.595,1.541c0.785,0.576,1.343,1.27,1.864,2.009C24,4.069,24.062,4.469,24.312,4.759
		c0.049,0.32,0.228,0.416,0.276,0.736c1.218,1.002,1.21,3.093,2.18,4.338c0.408,0.798,0.743,1.648,1.204,2.521
		c0.332,0.563,0.478,1.238,0.849,1.795c0.206,0.542,0.417,1.125,0.766,1.522c0.747,0.869,1.295,1.768,2.193,2.287
		c0.465,0.625,1.309,0.783,1.802,1.322c0.455,0.299,0.984,0.546,1.468,0.759c0.809,0.737,1.97,1.092,2.747,1.629
		c0.703,0.301,1.246,0.629,1.901,0.898c0.805,0.45,1.742,0.676,2.468,1.137c0.896,0.232,1.496,0.673,2.249,1.049
		c0.457,0.299,1.02,0.5,1.469,0.758c0.364,0.231,0.802,0.411,1.078,0.614c0.714,0.382,1.382,0.731,1.936,1.138
		c0.53,0.247,0.798,0.656,1.319,0.863c0.091,0.313,0.416,0.305,0.614,0.52c0.707,0.342,1.104,1.061,1.698,1.461
		c0.3,0.364,0.658,0.555,0.955,0.878c0.559,0.447,0.856,1.057,1.688,1.134c1.403,0.605,2.733,1.263,4.096,1.873
		c0.497,0.294,0.901,0.519,1.383,0.731c0.467,0.38,0.945,0.553,1.447,0.886c0.313,0.443,0.966,0.426,1.234,0.835
		c0.938,0.512,1.558,1.072,2.394,1.724c0.228,0.415,0.678,0.674,0.939,1.044c0.393,0.431,0.615,0.808,0.99,1.12
		c0.338,0.603,0.853,1.016,1.184,1.58c0.463,0.339,0.455,0.831,0.824,1.103c0.108,0.435,0.432,0.672,0.566,1.021
		c0.576,0.813,0.997,1.691,1.49,2.517c0.539,1.106,1.093,2.045,1.646,2.985c0.474,0.952,1.072,1.639,1.451,2.523
		c0.574,0.527,0.809,1.269,1.416,1.75c0.102,0.395,0.566,0.487,0.695,0.795c0.354,0.437,0.714,0.915,1.09,1.226
		c0.636,0.681,1.284,1.441,1.783,2.021c1.394,1.877,3.239,3.232,4.643,4.902c0.463,0.34,0.77,0.744,1.158,1.135
		c0.359,0.479,0.763,0.703,0.989,1.118c0.521,0.454,0.853,1.017,1.413,1.465c0.385,0.638,0.951,1.124,1.322,1.683
		c0.409,0.264,0.517,0.699,0.899,1.05c0.106,0.435,0.59,0.647,0.697,1.081c0.403,0.226,0.569,0.774,0.957,1.166
		c0.128,0.308,0.367,0.518,0.534,0.818c0.534,0.534,0.797,1.189,1.176,1.787c1.411,1.997,2.287,4.773,2.852,7.39
		c0.521,3.403,0.663,6.741-0.007,10.122c-0.209,1.057-0.331,1.854-0.679,2.808c-0.317,0.868-0.595,1.731-1.033,2.616
		c-0.692,1.623-1.588,3.276-2.617,4.58c-0.314,0.623-0.694,1.09-1.136,1.69c-0.486,0.567-0.835,1.235-1.387,1.647
		c-0.22,0.442-0.676,0.677-0.946,1.045c-0.302,0.17-0.385,0.428-0.612,0.545c-0.676,0.678-1.436,1.326-2.164,1.929
		c-0.329,0.256-0.552,0.413-0.88,0.668c-0.359,0.343-0.665,0.47-1.037,0.732c-0.481,0.319-1.013,0.604-1.41,0.952
		c-0.708,0.191-1.082,0.699-1.802,0.809c-1.26,0.604-2.514,1.246-3.903,1.541c-0.388,0.141-0.678,0.39-1.049,0.365
		c-0.87,0.215-1.824,0.401-2.617,0.317c-0.014-0.366,0.484-0.319,0.653-0.55c0.67-0.184,1.343-0.33,1.822-0.688
		c0.431-0.395,0.944-0.514,1.303-0.854c0.707-0.191,1.048-0.652,1.676-0.831c0.567-0.579,1.23-0.803,1.842-1.347
		c0.469-0.154,0.563-0.619,1.036-0.732c0.646-0.592,1.288-1.222,1.848-1.841c0.699-0.517,1.095-1.151,1.65-1.81
		c0.53-0.817,1.103-1.356,1.547-2.202c0.305-0.416,0.449-0.807,0.683-1.171c0.449-0.806,0.813-1.64,1.217-2.48
		c0.095-0.465,0.284-0.822,0.424-1.253c0.089-0.218,0.013-0.452,0.229-0.649c0.481-2.205,0.638-4.4,0.714-6.584
		c-0.024-0.691-0.162-1.326-0.214-1.934c-0.499-1.645-1.036-3.283-1.681-4.823c-0.228-0.416-0.462-0.872-0.685-1.248
		c-0.128-0.308-0.346-0.397-0.383-0.638c-0.4-0.471-0.594-0.934-1.026-1.357c-0.46-0.586-0.873-1.138-1.363-1.678
		c-0.479-0.173-0.472-0.665-0.977-0.752c-0.36-0.478-0.929-0.718-1.305-1.029c-0.969-0.713-2.173-0.814-3.306-1.256
		c-0.693,0.023-1.447-0.352-2.061-0.341c-1.326-0.371-2.67-0.574-3.786-1.183c-0.951-0.061-1.511-0.506-2.248-0.762
		c-1.77-0.59-3.083-1.946-4.244-2.834c0.033,2.086,1.061,3.977,1.652,5.976c0.219,0.622,0.299,1.142,0.504,1.685
		c0.155,1.287,0.432,2.557,0.702,3.785c0.267,0.943,0.682,1.781,0.959,2.518c0.39,0.677,0.621,1.379,0.977,2.104
		c0.096,0.354,0.186,0.668,0.341,0.891c0.696,1.326,0.669,2.766,0.776,4.266c0.012,1.145-0.018,2.297,0.223,3.324
		c0.211,0.583,0.267,0.943,0.479,1.525c0.148,0.429,0.209,0.829,0.355,1.257c-0.018,0.413,0.213,0.583,0.216,0.868
		c0.234,0.457,0.175,0.875,0.442,1.285c0.037,0.773,0.384,1.703-0.017,2.297c-0.339-0.07-0.258-0.616-0.449-0.791
		c-0.073-0.481-0.313-0.977-0.637-1.215c-0.19-0.176-0.273-0.449-0.532-0.533c-0.426,0.434-0.143,1.21-0.264,1.762
		c0.085,1.092-0.392,1.986-0.618,2.922c-0.188,0.644-0.296,1.274-0.41,1.866c-0.244,0.815-0.615,1.61-1.044,2.29
		c-0.076,0.299-0.271,0.369-0.348,0.667c-0.296,0.21-0.506,0.446-0.806,0.368c-0.442-0.217-0.648,0.307-0.864,0.502
		c-0.145,0.393-0.448,0.561-0.506,0.979c-0.163,0.271-0.143,0.678-0.376,0.755c-0.327,0.009-0.477-0.173-0.536-0.287
		c-0.295-0.857-0.264-1.723-0.06-2.533c-0.354-1.502,0.904-1.857,1.087-3.074c0.084-0.259,0.43-0.394,0.233-0.609
		c-0.388,0.141-0.523,0.859-0.847,1.154c-0.241,0.568-0.546,0.984-0.813,1.395c-0.261,0.163-0.246,0.529-0.474,0.646
		c-0.154,0.597-0.693,1.09-1.207,1.209c-0.346-0.111-0.669,0.184-0.845,0.375c-0.111,0.346-0.419,0.473-0.491,0.813
		c-0.287,0.535-0.302,1.234-0.659,1.576c-0.563-0.201-0.582-0.854-0.828-1.389c-0.104-0.682,0.224-1.224,0.218-1.797
		c0.034-0.578,0.351-0.913,0.449-1.338c0.38-0.469,0.731-0.85,0.806-1.436c0.194-0.603,1.023-0.812,0.913-1.532
		c-0.729,0.315-1.146,1.077-1.698,1.489c-0.104,0.385-0.465,0.439-0.733,0.563c-0.729-0.216-1.216,0.35-1.614,0.697
		c-0.295,0.209-0.36,0.59-0.609,0.832c-0.05,0.211-0.146,0.392-0.307,0.416c-0.198,0.03-0.298-0.078-0.322-0.238
		c-0.089-0.847,0.001-1.598,0.299-2.34c0.366-0.549,0.814-0.821,1.049-1.432c0.402-0.594,0.98-1.091,1.395-1.606
		c0.105-0.386,0.385-0.428,0.484-0.853c0.221-0.156,0.565-0.045,0.644-0.345c0.173-0.476,0.596-0.665,0.832-0.987
		c0.376-0.222,0.463-0.727,0.799-0.941c0.292-0.494,0.479-0.893,0.679-1.456c0.249-0.776,0.328-1.606,0.623-2.349
		c0.529-1.352-0.279-2.908-0.649-4.244c-0.181-0.382-0.235-0.742-0.434-0.959c-0.75-1.688-1.524-3.002-2.485-4.453
		c-0.208-0.297-0.21-0.584-0.493-0.826c-0.148-0.429-0.468-0.912-0.644-1.254c-0.753-1.441-1.488-2.764-2.303-4.072
		c-0.271-0.165-0.213-0.583-0.482-0.746c-0.246-0.537-0.501-0.866-0.781-1.355c-0.148-0.429-0.498-0.58-0.605-1.014
		c-0.726-0.996-1.145-2.119-1.818-3.042c-0.135-0.347-0.331-0.563-0.508-0.905c-0.368-0.271-0.408-0.797-0.731-1.035
		c-0.246-0.535-0.695-0.795-0.855-1.303c-0.648-0.762-0.854-1.836-1.361-2.742c-0.111-0.188-0.118-0.229-0.249-0.29
		c-0.598-0.154-0.942-0.265-1.493-0.386c-0.862-0.277-1.609-0.614-2.487-0.726c-0.862-0.278-1.828-0.703-2.676-0.614
		c-1.068,3.195,0.361,6.377,0.484,9.595c0.16,2.926-0.023,5.741,0.699,8.579c0.266,1.477,0.807,2.868,0.225,4.145
		c-0.45,0.809-0.677,1.744-1.231,2.402c-0.354,0.628-0.595,1.197-0.938,1.905c-0.167,0.518-0.438,0.887-0.571,1.358
		c-0.04,0.538-0.342,0.707-0.382,1.246c-0.032,0.332-0.229,0.649-0.34,0.994c-0.72,0.93-1.005,1.998-1.639,2.955
		c-0.307,0.129-0.396,0.348-0.612,0.545c-0.521,0.079-0.922,0.141-1.31,0.282c-0.348,0.667-1.164,0.956-1.455,1.738
		c-0.107,0.099-0.278,0.042-0.333-0.03c-0.137-0.635,0.002-1.066,0.076-1.65c0.205-0.277,0.2-0.563,0.371-0.796
		c-0.154-0.467-0.028-0.978,0.257-1.269c0.511-0.404,0.652-1.083,1.032-1.551c0.339-0.461,0.728-1.135,0.795-1.76
		c-0.448,0.273-0.545,0.985-0.995,1.258c-0.247,0.53-0.65,0.838-0.942,1.333c-0.285,0.29-0.361,0.588-0.75,0.729
		c-0.11,0.345-0.372,0.507-0.577,0.785c-0.338,0.461-0.892,0.586-1.399,0.747c-0.49-0.253-1.058-0.207-1.519-0.013
		c-0.885,0.381-1.617,0.942-2.094,1.589c-0.278,0.042-0.396-0.185-0.414-0.306c0.026-0.618,0.281-1.108,0.592-1.483
		c0.284-0.289,0.429-0.681,0.856-0.827c0.3-0.456,0.859-0.541,0.854-1.114c0.441-0.6,1.104-0.823,1.442-1.286
		c0.102-0.139,0.343-0.176,0.198-0.317c-0.832,0.456-1.589,0.325-2.342,0.235c-0.431,0.395-0.887,0.629-1.197,1.004
		c-0.154,0.063-0.366,0.015-0.426-0.099c0.007-1.026,0.372-1.86,1.185-2.435c0.337-0.217,0.521-0.613,0.862-0.789
		c0.26-0.449,0.965-0.393,1.125-0.951c0.576-0.252,0.672-0.963,1.26-1.135c0.503-0.732,1.184-1.369,1.596-2.17
		c0.141-0.144,0.156-0.311,0.292-0.494c0.178-0.438,0.423-0.721,0.601-1.158c0.193-0.357,0.303-0.701,0.507-0.979
		c0.018-0.413,0.194-0.604,0.26-0.982c0.8-3.072-0.273-6.063-1.489-8.664c-0.324-0.77-0.622-1.379-1.093-2.045
		c-0.267-0.41-0.494-0.826-0.717-1.201c-0.257-0.617-0.572-1.061-0.863-1.629c-0.289-0.285-0.298-0.611-0.443-0.753
		c-0.311-0.69-0.647-1.294-0.952-1.944c-0.212-0.582-0.443-1.283-0.67-1.699c0.066-0.38-0.253-0.576-0.226-0.949
		c-0.791-3.28,0.201-6.71-0.331-9.907c-0.369-0.557-0.908-1.13-1.396-1.63c-0.35-0.15-0.479-0.458-0.742-0.583
		c-0.521-0.453-1.148-0.807-1.567-1.399c-0.449-0.259-0.816-0.777-1.21-1.208c-0.175-0.341-0.52-0.452-0.534-0.819
		c-0.192-0.174-0.37-0.271-0.447-0.505c-0.325-0.524-0.673-0.921-0.937-1.577c-0.289-0.284-0.225-0.663-0.44-0.998
		c-0.439-0.998-0.872-1.957-1.433-2.936c-0.157-0.222-0.403-0.226-0.452-0.545c-0.563-0.2-0.695-0.796-1.144-1.055
		c-0.143-0.387-0.58-0.567-0.675-0.92c-0.342-0.358-0.512-0.946-0.774-1.315c-0.345,0.421-0.293,1.028-0.75,1.262
		c-0.009,0.206-0.03,0.332-0.064,0.378c-0.167,0.518-0.197,0.85-0.365,1.367c-0.124,0.797-0.065,1.443,0.006,2.171
		c-0.21,0.236-0.494-0.007-0.645-0.189c-0.434-0.425-0.634-0.926-0.799-1.476c0.016-0.699,0.028-1.152,0.178-1.789
		c0.189-0.357,0.261-0.695,0.253-1.021c-0.509,0.159-0.79,0.735-1.228,1.088c-0.395,1.167-0.31,2.26-0.138,3.382
		c-0.526,0.039-0.698-0.55-0.988-0.833c-0.145-0.673-0.494-1.358-0.231-2.053c-0.502-0.866,0.287-1.601,0.479-2.491
		c0.441-0.601,0.802-1.188,1.347-1.641c0.315-0.621,0.799-0.941,1.113-1.563c-0.681-0.961-0.897-2.116-1.242-3.293
		c-0.229-0.701-0.214-1.401-0.512-2.011c-0.286,0.002-0.509,0.16-0.714,0.149c-0.599,0.378-1.101,0.579-1.695,0.71
		c-0.672,0.431-1.404,0.461-1.931,1.034c-0.124,0.265-0.531,0.286-0.562,0.619c-0.15,0.351-0.194,0.603-0.313,0.908
		c-0.189,0.357-0.128,0.757-0.333,1.035c-0.313,0.621-0.66,1.043-0.503,1.798c0.118,0.228,0.293,0.569,0.191,0.708
		c-0.573,0.007-0.693-0.507-0.902-0.804c-0.311-0.689,0.031-1.398-0.288-1.882c-0.212-0.05-0.394,0.101-0.422,0.188
		c-0.419,0.473-0.508,1.225-0.416,1.826c-0.224,0.157-0.507-0.086-0.552-0.121c-0.505-0.619-0.372-1.623-0.223-2.259
		c0.214-0.73,0.665-1.004,0.906-1.573c0.665-1.003,0.781-2.66,2.09-2.943c0.912-1,2.095-1.303,3.108-1.909
		c0.758-0.402,1.466-0.593,1.935-1.278c-0.076-1.301-0.453-2.431-0.938-3.462c-0.102-0.396-0.426-0.631-0.452-1.079
		c-0.326-0.523-0.539-1.106-0.744-1.648c-0.324-1.588-0.53-3.196-1.031-4.595c-0.354-0.97-0.646-2.072-1.559-2.425
		c-0.61-0.235-1.145,0.298-1.697,0.425c-0.401,0.061-0.755,0.156-1.075,0.205c-0.792,0.448-1.723,0.263-2.507,0.219
		c-0.296-0.324-0.753-0.375-0.931-0.717c-0.046-0.567-0.303-1.183-0.004-1.639c0.251-0.243,0.448,0.259,0.592,0.115
		c0.277-0.33,0.309-0.663,0.616-0.791c0.326-0.009,0.65,0.228,0.819-0.002c0.074-0.053,0.102-0.138,0.102-0.138
		c0.72-0.11,1.213-0.104,1.58-0.652c0.36-0.055,0.625,0.068,0.847-0.087c-0.393-0.146-0.566-0.488-0.99-0.587
		c-0.1-0.107-0.259-0.083-0.326,0.009c-0.051,0.213,0.131,0.595-0.076,0.585c-0.388,0.141-0.769-0.21-1.077-0.081
		c-0.089,0.219,0.027,0.447-0.074,0.584c-0.502,0.201-0.681-0.428-1.126-0.401c-0.137,0.185,0.038,0.527-0.241,0.57
		c-0.413-0.019-0.649-0.228-0.959-0.386c-0.257,0.203,0.038,0.527-0.183,0.684c-0.435,0.107-0.662-0.309-0.936-0.226
		c-0.143,0.145-0.06,0.419-0.272,0.369c-0.73-0.216-0.744-1.116-1.416-1.217c-0.584-0.606-1.601-0.819-1.741-1.741
		c-0.511-1.192-0.134-2.479,0.228-3.6c0.054-0.459,0.429-0.68,0.559-0.904c0.367-0.548,0.933-0.594,1.267-1.095
		C2.964,6.1,3.274,5.724,3.938,5.5c0.887-0.628,1.897-0.987,2.727-1.729c1.512-0.559,2.222-1.815,3.734-2.375
		C11.907,0.551,13.696,0.197,15.47,0.006L15.47,0.006z"/>
	<path fill-rule="evenodd" clip-rule="evenodd" fill="#7A7D6F" d="M14.731,15.525c1.109-0.25,2.296,0.551,3.391-0.068
		c0.939-0.02,1.563-0.771,2.187-1.235c0.185-0.397,0.712-0.438,0.777-0.815c0.409-0.269,0.675-0.677,0.884-0.915
		c-0.122-0.268-0.532,0-0.646,0.058c-0.213,0.483-0.68,0.637-0.905,1.04c-0.693,0.557-1.467,1.125-2.435,1.233
		c-1.885,0.534-3.771-0.284-5.58,0.485c-0.459-0.053-0.546,0.453-0.959,0.434c-0.714,0.15-1.028,0.772-1.723,0.796
		c-0.381,0.182-0.826,0.209-1.089,0.371c-1.034,0.2-2.138,0.492-2.989,0.007c-0.012-0.079-0.024-0.16,0.009-0.206
		c0.44-0.067,0.841-0.128,1.281-0.196c0.88-0.135,1.546-0.605,2.461-0.787c0.558-0.372,1.231-0.516,1.849-0.774
		c0.376-0.222,0.615-0.258,0.964-0.394c0.986-0.519,2.079-0.604,2.95-1.066c0.703-0.23,1.405,0.072,1.896-0.208
		c0.083-0.259,0.054-0.706-0.141-0.921c-0.41-0.264-0.438-0.712-1.022-0.786c-1.18-0.475-2.455-0.239-3.767-0.243
		c-1.444,0.467-3.026,0.299-4.44,0.967c-0.773,0.036-1.417,0.38-2.045,0.558c-1.123,0.172-2.137,0.491-3.148,0.318
		c-0.563-0.2-0.932-0.472-1.375-0.691c-0.708-0.875-0.578-2.165-0.479-3.123c0.238-0.855,0.547-1.518,1.086-2.009
		c0.343-0.176,0.672-0.431,1.014-0.606c0.46-0.48,1.099-0.578,1.564-1.018c0.309-0.129,0.674-0.144,0.799-0.409
		c0.512-0.406,0.985-0.52,1.475-0.799c0.645-0.345,0.989-0.766,1.651-0.991C8.35,3.268,8.582,3.191,8.719,3.006
		c0.954-0.72,1.849-1.308,2.966-1.765c1.263-0.316,2.545-0.512,3.78-0.742c0.818-0.003,1.591-0.039,2.482,0.153
		c0.757,0.13,1.525,0.34,2.12,0.741c0.224,0.13,0.465,0.093,0.655,0.268c0.311,0.158,0.434,0.426,0.784,0.578
		c0.576,0.28,1.099,1.02,1.601,1.353c0.2,0.501,0.429,0.917,0.707,1.408c0.303,0.363,0.313,0.976,0.769,1.276
		c0.365,0.518,0.672,1.167,0.815,1.842c0.188,0.422,0.22,0.908,0.51,1.192c0.249,0.822,0.879,1.463,1.054,2.338
		c0.297,0.323,0.311,0.69,0.573,1.059c0.578,1.1,0.847,2.33,1.601,3.238c0.188,0.421,0.466,0.625,0.646,1.007
		c0.428,0.386,0.78,0.823,1.197,1.128c0.354,0.437,0.944,0.551,1.298,0.99c0.702,0.302,1.154,0.847,1.838,1.029
		c0.468,0.379,1.084,0.654,1.505,0.999c0.749,0.337,1.222,0.757,1.998,1.005c0.48,0.46,1.105,0.528,1.566,0.868
		c0.604,0.195,0.934,0.472,1.512,0.506c0.532,0.533,1.352,0.531,1.797,1.036c0.938,0.226,1.63,0.735,2.417,1.065
		c0.627,0.355,1.262,0.75,1.804,1.076c0.508,0.373,1.031,0.58,1.613,0.9c0.268,0.409,0.874,0.359,1.062,0.78
		c0.864,0.564,1.351,1.063,2.096,1.646c0.141,0.388,0.784,0.577,1.001,0.913c0.784,0.575,1.226,1.328,2.066,1.731
		c0.869,0.318,1.549,0.747,2.444,0.978c0.449,0.259,1.156,0.316,1.491,0.633c0.626,0.355,1.157,0.6,1.572,0.906
		c0.459,0.053,0.668,0.349,1.019,0.5c0.228,0.416,0.828,0.324,1.056,0.74c1.007,0.418,1.709,1.254,2.652,1.806
		c0.712,0.629,1.493,1.452,2.096,2.179c0.354,0.438,0.661,0.841,0.963,1.204c0.223,0.377,0.372,0.559,0.575,0.814
		c0.146,0.428,0.412,0.552,0.581,0.854c0.301,0.363,0.495,0.826,0.705,1.122c0.92,1.457,1.691,3.019,2.537,4.528
		c0.174,0.343,0.331,0.564,0.547,0.9c0.344,0.643,0.617,1.093,0.943,1.617c0.263,0.37,0.357,0.724,0.64,0.968
		c0.492,1.071,1.349,1.842,2.103,2.751c0.322,0.238,0.41,0.552,0.688,0.755c0.14,0.387,0.514,0.413,0.688,0.754
		c0.592,0.647,1.031,1.113,1.529,1.692c0.406,0.513,0.852,1.017,1.287,1.442c0.729,0.749,1.387,1.304,2.047,2.146
		c0.23,0.415,0.647,0.475,0.829,0.856c0.659,0.554,1.142,1.3,1.781,1.734c1.063,1.313,2.2,2.328,3.182,3.652
		c0.803,0.696,1.236,1.654,1.92,2.369c0.5,0.865,1.205,1.455,1.786,2.308c0.354,0.438,0.582,0.854,0.884,1.218
		c0.107,0.434,0.464,0.625,0.565,1.02c0.584,1.14,1.041,2.258,1.438,3.509c0.022,0.407,0.186,0.668,0.273,0.982
		c0.86,2.941,1.064,6.147,0.85,9.294c-0.072,1.404-0.467,2.57-0.598,3.861c-0.238,0.855-0.449,1.625-0.697,2.4
		c-0.059,0.42-0.251,0.775-0.295,1.029c-0.305,0.949-0.894,1.652-1.211,2.52c-0.358,0.343-0.416,0.762-0.666,1.004
		c-0.1,0.426-0.39,0.675-0.514,0.939c-0.548,0.699-0.822,1.314-1.314,1.84c-0.066,0.379-0.533,0.533-0.566,0.866
		c-0.39,0.386-0.683,0.882-1.053,1.144c-0.191,0.357-0.551,0.412-0.737,0.809c-0.336,0.217-0.627,0.711-0.931,0.882
		c-0.209,0.237-0.403,0.308-0.498,0.485c-0.496,0.24-0.716,0.684-1.092,0.905c-0.453,0.52-0.954,0.719-1.42,1.158
		c-0.509,0.161-0.732,0.563-1.234,0.763c-0.485,0.32-0.969,0.641-1.418,0.914c-0.508,0.16-0.7,0.518-1.307,0.568
		c-1.248,0.684-2.52,1.205-3.93,1.627c0.686-0.598,1.635-0.824,2.31-1.502c0.114-0.059,0.28-0.043,0.314-0.089
		c0.305,0.118,0.692-0.024,0.874-0.175c0.313-0.376,0.606-0.584,1.023-0.813c0.342-0.175,0.613-0.544,0.882-0.667
		c0.185-0.397,0.672-0.431,0.755-0.688c0.475-0.114,0.579-0.499,0.98-0.561c0.438-0.354,0.721-0.643,1.124-0.95
		c0.478-0.36,0.804-0.902,1.31-1.349c0.299-0.454,0.69-0.842,0.938-1.371c0.312-0.377,0.377-0.754,0.728-1.137
		c0.146-0.391,0.492-0.526,0.592-0.951c0.303-0.701,0.784-1.309,1.085-2.01c0.321-0.582,0.423-1.253,0.763-1.715
		c0.188-0.643,0.476-1.18,0.571-1.891c0.761-3.066,1.116-6.357,0.673-9.526c-0.161-2.394-1.065-4.55-1.944-6.546
		c-0.406-0.511-0.545-1.145-0.99-1.65c-0.152-0.469-0.578-0.568-0.714-0.915c-0.422-0.346-0.654-0.802-0.983-1.079
		c-0.144-0.389-0.465-0.626-0.555-0.939c-0.33-0.277-0.564-0.488-0.781-0.823c-0.455-0.3-0.414-0.838-1.033-0.866
		c-0.256-0.33-0.539-0.572-0.822-0.815c-0.313-0.444-0.671-0.636-0.887-0.972c-0.489-0.254-0.769-0.743-1.212-0.962
		c-0.329-0.276-0.659-0.555-1.016-0.745c-0.233-0.457-0.881-0.398-0.987-0.834c-0.709-0.341-1.24-0.875-1.781-1.201
		c-0.453-0.545-1.088-0.407-1.401-0.852c-1.34-0.45-2.678-0.9-3.693-1.646c-0.569-0.241-0.805-0.697-1.341-0.983
		c-0.137-0.103-0.128-0.309-0.247-0.29c-0.127-0.021-0.16,0.023-0.16,0.023c0.012,0.613,0.676,0.676,0.876,1.178
		c1.111,0.567,1.955,1.258,3.242,1.635c0.23,0.17,0.538,0.041,0.621,0.314c1.523,0.587,2.443,1.512,3.672,2.307
		c0.375,0.312,0.657,0.555,1.056,0.74c0.329,0.277,0.599,0.44,0.851,0.73c0.404,0.512,0.972,0.466,1.223,1.042
		c0.53,0.247,0.765,0.702,1.186,1.048c0.268,0.409,0.72,0.422,0.866,0.851c0.58,0.565,1.1,1.02,1.558,1.605
		c0.306,0.649,0.796,1.189,1.289,1.728c0.277,0.203,0.466,0.626,0.702,0.836c0.268,0.41,0.391,0.679,0.618,1.094
		c1.334,2.295,2.197,4.99,2.448,7.697c0.213,2.999,0.152,6.082-0.772,8.887c-0.324,0.828-0.595,1.729-0.965,2.523
		c-0.358,0.342-0.457,0.767-0.729,1.136c-0.023,0.372-0.188,0.644-0.345,0.954c-0.343,0.709-0.75,1.263-1.098,1.931
		c-0.346,0.423-0.531,0.819-0.802,1.188c-0.071,0.338-0.407,0.555-0.536,0.778c-0.758,0.401-1.313,1.062-1.835,1.673
		c0.229-0.115,0.3-0.455,0.557-0.658c0.412-0.514,0.77-0.855,1.057-1.391c0.662-0.757,1.097-1.396,1.609-2.338
		c0.163-0.27,0.252-0.487,0.421-0.718c0.247-0.53,0.461-1.014,0.748-1.55c0.203-0.275,0.301-0.701,0.385-0.96
		c0.087-0.503,0.318-0.868,0.411-1.333c0.146-0.392,0.205-0.809,0.275-1.147c0.757-3.354,1.049-6.8-0.134-9.979
		c-0.276-0.735-0.467-1.444-0.812-2.089c-0.215-0.867-0.586-1.426-0.99-2.183c-0.319-0.484-0.594-0.935-0.854-1.304
		c-0.319-0.483-0.615-0.807-0.916-1.171c-0.535-0.819-1.154-1.38-1.785-2.021c-0.311-0.157-0.64-0.435-0.865-0.563
		c-0.48-0.46-1.124-0.648-1.55-1.033c-0.672-0.103-0.849-0.444-1.438-0.559c-0.782-0.291-1.715-0.229-2.464-0.566
		c-1.342-0.203-2.445-0.445-3.531-0.852c-0.402-0.226-1.049-0.168-1.299-0.457c-1.447-0.354-2.629-1.115-3.793-1.756
		c-0.177-0.095-0.255-0.33-0.473-0.419c-0.571-0.526-1.234-0.835-1.778-1.448c-0.173-0.057-0.299-0.078-0.357-0.191
		c0.216-0.73,0.583-1.277,0.771-1.922c0.146-0.391,0.405-0.84,0.47-1.219c0.244-0.283,0.296-0.742,0.54-1.025
		c0.503-1.265,1.281-2.326,1.614-3.646c0.369-0.795,0.354-1.693,0.836-2.3c0.233-0.609,0.496-1.306,0.818-1.888
		c0.325-0.541,0.053-0.991,0.212-1.548c0.322-1.647,0.953-3.138,0.435-4.656c-0.346,0.955-0.343,2.306-0.763,3.313
		c-0.027,0.619-0.16,1.09-0.334,1.567c-0.226-2.546-0.252-5.125-1.044-7.625c-0.111-0.188-0.056-0.36-0.227-0.416
		c0.384,3.056,1.114,6.221,0.471,9.516c-0.234,1.143-0.464,2.039-0.753,3.106c-0.388,1.206-0.744,2.367-1.422,3.292
		c-0.299,0.453-0.374,1.039-0.639,1.448c-0.28,0.575-0.562,1.151-0.796,1.761c-0.105,0.918-0.779,1.596-0.956,2.318
		c-0.098,2.842,1.369,5.199,2.038,7.965c0.335,1.383,0.527,2.91,0.896,4.248c0.043,0.279,0.2,0.502,0.23,0.701
		c0.896,2.649,2.436,4.668,2.771,7.402c-0.12,0.551-0.207,1.057-0.353,1.447c0.05,0.32,0.404,0.225,0.302,0.363
		c-0.145,2.809,1.153,5.396,1.758,8.008c-0.461-0.34-0.787-0.863-1.345-1.023c-0.274,0.083-0.145,0.391-0.327,0.541
		c-0.154,1.131-0.023,2.258-0.229,3.314c-0.232,0.363-0.222,0.688-0.415,1.046c-0.382,1.78-0.801,3.604-1.736,4.978
		c-0.177,0.191-0.416,0.229-0.476,0.114c-0.638-0.147-1.089-0.693-1.724-0.556c-0.211-0.582,0.295-1.027,0.664-1.289
		c0.44-0.067,1.033-0.201,1.29,0.13c0.099,0.108,0.149,0.182,0.305,0.117c0.106-0.099,0.037-0.292-0.096-0.354
		c-0.276-0.203-0.729-0.217-0.973-0.466c-0.16,0.024-0.326,0.009-0.339-0.071c0.162-0.27,0.138-0.717,0.537-0.778
		c0.582-0.212,1.143,0.235,1.428,0.232c-0.086-0.562-0.904-0.559-1.395-0.812c-0.125-0.021-0.172-0.056-0.211-0.05
		c0.244-0.282,0.183-0.685,0.609-0.83c0.573-0.007,1.04,0.374,1.395,0.278c-0.122-0.269-0.488-0.254-0.692-0.509
		c-0.184-0.136-0.584-0.074-0.62-0.315c-0.041-0.525-0.046-1.099,0.018-1.478c-0.119,0.019-0.286,0.003-0.458-0.053
		c0.034,1.02-0.611,1.897-1.107,2.669c-0.527,0.572-0.71,1.256-1.168,1.735c-0.464,0.728-0.839,1.481-1.256,2.241
		c-0.323,0.295-0.716,0.683-1.038,0.447c-0.504-0.088-0.847-0.445-1.32-0.332c-0.209-0.296,0.247-0.529,0.277-0.861
		c0.333-0.502,0.859-0.543,1.484-0.475c0.206,0.012,0.317,0.199,0.517,0.168c-0.062-0.401-0.596-0.688-0.98-0.793
		c-0.127-0.021-0.253-0.043-0.253-0.043c-0.055-0.359,0.207-0.523,0.444-0.847c0.554-0.126,0.896-0.3,1.352-0.002
		c0.065,0.154,0.116,0.228,0.226,0.13c0.101-0.139,0.198-0.317,0.046-0.5c-0.277-0.203-0.741-0.295-1.062-0.246
		c-0.062-0.4,0.139-0.965,0.367-1.082c0.372,0.025,0.443-0.313,0.644-0.343c0.116,0.228,0.382,0.352,0.582,0.321
		c-0.013-0.081,0.043-0.254-0.09-0.314c-0.276-0.203-0.535-0.287-0.708-0.343c0.039-0.294,0.042-0.54,0.205-0.81
		c0.231-0.896,0.447-1.627,0.524-2.457c-0.092-0.068-0.193,0.07-0.274,0.082c0.086,0.561-0.489,0.813-0.503,1.266
		c-0.115,0.305-0.161,0.558-0.33,0.789c-0.038,0.824-0.652,1.082-1.021,1.631c-0.535,0.246-0.668,0.716-1.204,0.963
		c-0.327,0.541-0.856,0.827-1.254,1.174c-0.39,0.143-0.774,0.038-0.924-0.145c0.003-0.246-0.299-0.077-0.335-0.316
		c-0.058-0.646,0.575-0.785,0.702-1.297c0.216-0.196,0.563-0.332,0.915-0.182c0.15,0.184,0.092,0.602,0.439,0.466
		c0.152-0.351-0.199-0.502-0.289-0.815c-0.179-0.097-0.322-0.236-0.221-0.376c0.238-0.323,0.364-0.835,0.869-0.748
		c0.441-0.067,0.473,0.42,0.88,0.398c0.077-0.3-0.227-0.417-0.362-0.765c-0.225-0.129-0.102-0.395-0.006-0.572
		c0.845-0.376,1.16-0.998,1.574-1.757c0.304-0.702,0.525-1.392,0.76-2.001c0.251-0.777,0.278-1.396,0.634-2.022
		c0.118-1.372-0.44-2.597-0.697-3.745c-0.181-0.383-0.196-0.748-0.399-1.006c-0.297-0.609-0.451-1.078-0.742-1.646
		c-0.266-0.656-0.567-1.02-0.854-1.55c-0.344-0.644-0.698-1.082-1.036-1.685c-0.489-0.787-0.937-1.578-1.399-2.45
		c-0.267-0.409-0.494-0.825-0.723-1.241c-0.187-0.423-0.409-0.799-0.631-1.174c-0.657-1.088-1.28-2.223-2.015-3.257
		c-0.273-0.45-0.527-0.78-0.75-1.155c-0.394-0.432-0.399-1.004-0.781-1.355c-0.152-0.469-0.482-0.746-0.544-1.146
		c-0.408-0.797-0.899-1.337-1.263-2.102c-0.188-0.421-0.563-0.732-0.831-1.143c-0.373-0.558-0.698-1.081-0.996-1.691
		c-1.371-2.535-1.758-5.59-1.786-8.453c0.009-3.156-0.151-6.083-1.104-9.092c-0.12-1.047-0.134-1.946-0.028-2.864
		c-0.312-0.158-0.303,0.168-0.37,0.262c-0.602,2.754,0.993,5.42,0.791,8.114c-0.363-0.231-0.357-0.724-0.544-1.146
		c-0.359-1.01-0.994-1.938-1.422-2.854c-0.463-0.627-0.709-1.163-1.161-1.708c-0.062-0.399-0.474-0.419-0.563-0.733
		c-0.551-0.653-1.156-1.135-1.603-1.64c-0.68-0.428-1.185-1.047-1.801-1.322c-0.08,0.012-0.074,0.052-0.074,0.052
		c0.201,0.502,0.696,0.794,1.05,1.233c0.53,0.247,0.717,0.668,1.178,1.008c0.383,0.351,0.563,0.733,0.939,1.044
		c0.203,0.256,0.377,0.599,0.528,0.78c0.287,0.53,0.581,0.854,0.85,1.263c0.136,0.348,0.298,0.61,0.454,0.832
		c0.834,1.429,1.428,2.896,2.117,4.47c0.369,2.935,0.129,5.922,0.918,8.67c-1.053-0.454-2.392-0.905-3.632-1.247
		c-1.12-0.362-2.258-0.557-3.271-1.017c-1.083-0.12-1.927-0.812-2.942-1.024c-0.526,0.039-4.762-2.469-4.969-3.009
		c-0.5-0.333-0.906-0.845-1.409-1.179c-0.146-0.428-0.531-0.533-0.661-0.841c-0.543-0.613-1.09-1.226-1.553-1.852
		c-0.339-0.604-0.87-1.137-1.288-1.729c-0.307-0.118-0.396-0.432-0.66-0.555c-0.538-0.573-1.228-0.795-1.646-1.387
		c-0.664-0.595-1.196-1.128-1.834-1.809c-0.088-0.315-0.434-0.425-0.477-0.706c-0.492-0.54-0.796-1.189-1.174-1.787
		c-0.337-1.137-0.846-2.042-1.25-3.087c-0.275-0.449-0.57-0.773-0.838-1.183c-0.549-0.367-0.815-0.777-1.202-1.168
		c-0.109-0.433-0.601-0.441-0.709-0.875c-0.456-0.299-0.482-0.745-0.69-1.042c-0.068-0.44-0.386-0.637-0.314-0.976
		c0.693-0.557,1.199-1.004,1.898-1.52c0.759-0.403,1.906-0.662,2.637-0.978c0.901-0.261,1.758-0.556,2.268-1.248
		c0.366-0.549,0.396-1.168,0.635-1.736c0.029-0.62,0.195-1.137,0.3-1.521c0.591-1.237,0.887-2.513,1.245-3.92
		c0.129-0.757,0.072-1.404,0.002-2.13c-0.238-0.209-0.08-0.521-0.265-0.656c-0.047-0.034-0.167-0.016-0.167-0.016
		c0.101,1.459,0.121,2.933-0.402,4.323c-0.137,0.185-0.106,0.385-0.213,0.483c-0.047-0.034-0.065-0.154-0.031-0.2
		c0.112-0.878,0.017-1.765-0.341-2.488c-0.126-0.022-0.215,0.196-0.157,0.311c0.245,1.601,0.039,3.191-0.177,4.739
		c-0.338,0.995-0.589,1.771-1.079,2.583c-0.529,0.286-0.991,0.48-1.315,0.775c-0.601,0.092-1.195,0.224-1.629,0.331
		c-1.108,0.252-1.854,0.735-2.524,1.453c-0.225,0.402-0.766,0.608-0.992,1.012c-0.773,0.569-0.647,1.656-1.34,2.213
		c-0.167-0.017-0.293-0.038-0.431-0.14c0.133-1.004,0.171-1.829,0.495-2.657c0.141-0.145,0.104-0.385,0.08-0.544
		c-0.74,0.522-0.741,1.588-1.429,2.184c-0.178,0.438-0.595,0.666-0.785,1.023c-0.256,0.203-0.441,0.6-0.604,0.871
		c-0.056,0.172-0.072,0.339-0.15,0.351c-0.322,0.049-0.135-0.349-0.396-0.432c0.417-0.76,0.517-1.717,1.083-2.295
		c0.355-0.63,0.952-1.008,1.222-1.664c0.443-0.313,0.518-0.897,0.934-1.125c0.543-0.739,1.245-0.969,1.858-1.514
		c0.732-0.563,1.506-1.132,2.199-1.689c0.151-0.35,0.499-0.486,0.879-0.42c0.544,0.081,0.858-0.009,1.312,0.004
		c0.142-0.145,0.475-0.114,0.363-0.301c-0.314,0.089-0.477-0.172-0.831-0.077c0.518-0.367,1.312,0.004,1.693-0.178
		c-0.511-0.658-1.572-0.373-2.25-0.516c0.087-1.038-0.42-1.943-0.294-2.987c0.134-1.003,0.634-2.022,0.304-2.833
		c-0.338,0.461-0.154,1.129-0.274,1.681c-0.271-0.696-0.129-1.374-0.005-2.171c0.269-0.656,0.25-1.309,0.559-1.971
		c-0.018-0.119-0.11-0.188-0.178-0.095c-0.237,0.323-0.25,0.775-0.58,1.03c-0.067,0.092-0.062,0.132-0.102,0.139
		c-0.246-1.068,0.264-2.293,0.781-3.192c0.556-0.66,1.146-1.078,1.801-1.628c0.178-0.438,0.801-0.656,0.795-1.229
		c-0.453-0.013-0.44,0.6-0.874,0.708c-0.301,0.456-0.655,0.551-0.96,0.967c-0.676,0.391-1.106,1.07-1.5,1.704
		c-1.259,2.487-0.052,5.294-0.299,7.954c0.129,0.841,0.405,1.577,0.143,2.273c-0.685,0.35-0.98,1.092-1.677,1.363
		c-0.688,0.596-1.46,1.166-2.114,1.716c-0.479,0.073-0.588,0.705-0.995,0.726c-0.298-0.61-0.591-1.179-0.723-1.775
		c-0.199-0.502-0.353-0.969-0.433-1.49c-0.546-2.497-0.766-5.004-1.379-7.41c-0.492-1.605-1.361-2.742-1.756-4.239
		c-0.479-1.524-0.49-3.203-1.07-4.589c-0.139-0.635-0.477-1.238-0.711-1.693c-0.272-0.451-0.569-0.774-0.972-1
		C12.19,15.792,13.952,15.522,14.731,15.525L14.731,15.525z"/>
	<path fill-rule="evenodd" clip-rule="evenodd" fill="#6A6E62" d="M16.126,30.801c0.203,0.255,0.013,0.613,0.215,0.869
		c0,0.532,0.271,1.229,0.032,1.552c-0.809,0.329-1.263,0.85-2.235,0.915c-0.364,0.303-0.646,0.059-0.766,0.364
		c-0.806,0.083-1.377,0.621-1.859,1.227c-0.05,0.212-0.111,0.345-0.232,0.363c-0.206-0.01-0.162-0.262-0.286,0.002
		c0.335,0.318-0.031,0.866-0.044,1.318c-0.209,0.236-0.063,0.665-0.289,0.783c-0.173-0.057-0.447,0.027-0.552-0.122
		c0.309-0.662,0.217-1.262,0.325-1.893c0.145-0.391,0.246-0.529,0.305-0.949c0.05-0.212,0.127-0.51-0.011-0.612
		c-0.274,0.082-0.529,0.286-0.607,0.584c-0.165-0.016-0.11-0.188-0.043-0.28c0.111-0.345,0.143-0.677,0.404-0.84
		c0.387-0.142,0.472-0.401,0.773-0.57c0.645-0.344,1.081-0.698,1.737-0.961c0.392-0.388,1.118-0.458,1.469-0.84
		C15.052,31.539,15.815,31.176,16.126,30.801L16.126,30.801z"/>
	<path fill-rule="evenodd" clip-rule="evenodd" fill="#6A6E62" d="M32.769,59.231c0.475,0.418,0.715,0.916,1.177,1.254
		c0.638,0.968,1.568,1.686,2.491,2.363c0.583,0.321,1.016,0.746,1.545,0.994c0.382,0.351,0.785,0.575,1.262,0.75
		c1.104,0.771,2.404,0.982,3.441,1.603c0.442,0.22,1.078,0.081,1.34,0.45c-0.864,2.92,0.281,5.858,0.481,8.777
		c0.365,3.182-0.063,6.279,0.754,9.473c0.175,0.875,0.285,1.596,0.435,2.31c0.11,1.253-0.384,2.313-0.744,3.433
		c-0.225,0.403-0.342,0.709-0.614,1.078c-0.906,1.572-1.422,3.291-2.052,5.067c-0.348,0.667-0.773,1.101-1.014,1.671
		c-0.145,0.39-0.35,0.668-0.453,1.053c-0.204,0.277-0.344,0.707-0.762,0.649c-0.736,0.275-1.108-0.282-1.706-0.437
		c0.025-0.373,0.164-0.804,0.52-0.898c0.501-0.2,0.864,0.031,1.304-0.035c0.017-0.166-0.055-0.361-0.101-0.395
		c-0.338-0.071-0.652,0.018-0.884-0.152c0.14-0.432,0.405-0.84,0.799-0.941c0.378,0.064,0.716,0.137,1.016,0.214
		c0.047,0.032,0.167,0.015,0.167,0.015c-0.118-0.227-0.341-0.357-0.54-0.573c-0.217-0.089-0.451-0.012-0.516-0.167
		c0.049-0.212-0.007-0.572,0.233-0.609c0.27-0.122,0.538,0.041,0.779,0.005c0.173,0.055,0.179,0.095,0.339,0.07
		c-0.04-0.526-0.661-0.308-0.869-0.604c0.242-0.817,0.15-1.417,0.154-2.196c-0.265-0.123-0.337,0.215-0.489,0.279
		c-0.201,0.564-0.581,1.032-0.868,1.568c-0.431,0.393-0.569,0.824-0.847,1.153c-0.186,0.396-0.614,0.545-0.678,0.923
		c-0.365,0.302-0.571,0.826-0.901,1.08c-0.19,0.357-0.566,0.578-0.756,0.936c-0.451,0.273-0.898,0.834-1.383,0.621
		c-0.178-0.629-0.913-0.885-0.866-1.384c0.19-0.356,0.453-0.52,0.82-0.534c0.297,0.076,0.399,0.471,0.692,0.51
		c0.19-0.358-0.254-0.578-0.428-0.92c0.382-0.182,0.738,0.01,1.004,0.134c0.145,0.142,0.196,0.216,0.344,0.111
		c0.01-0.206-0.128-0.31-0.319-0.483c-0.214-0.051-0.317-0.198-0.422-0.346c-0.043-0.28,0.22-0.443,0.234-0.609
		c0.216-0.196,0.513-0.406,0.815-0.288c0.386,0.104,0.588,0.36,0.859,0.524c0.047,0.033,0.12-0.02,0.12-0.02
		c-0.005-0.572-0.698-0.548-0.884-0.971c0.075-0.299,0.309-0.376,0.341-0.707c0.135-0.186,0.449-0.275,0.669-0.186
		c0.137,0.102,0.264,0.123,0.337,0.07c-0.019-0.119-0.063-0.154-0.196-0.215c-0.177-0.095-0.379-0.064-0.443-0.219
		c0.358-0.875,1.208-1.209,1.077-2.336c-0.019-0.121-0.144-0.143-0.144-0.143c-0.191,0.357-0.264,0.696-0.645,0.877
		c-0.351,0.668-0.92,0.961-1.031,1.838c-0.407,0.555-0.706,1.01-1.322,1.268c-0.455,0.234-1.016,0.32-1.34,0.616
		c-0.233,0.076-0.349,0.134-0.515,0.119c-0.039-0.526-0.43-1.206-0.149-1.78c0.194-0.07,0.582-0.212,0.728-0.07
		c0.23,0.169,0.126,0.555,0.344,0.643c0.32-0.049,0.127-0.51,0.028-0.617c-0.151-0.184-0.221-0.377-0.079-0.521
		c0.203-0.277,0.419-0.474,0.632-0.424c0.225,0.129,0.379,0.597,0.675,0.389c-0.017-0.367-0.527-0.494-0.349-0.932
		c0.142-0.145,0.34-0.461,0.558-0.371c0.312,0.156,0.44,0.465,0.806,0.45c-0.101-0.395-0.497-0.579-0.627-0.888
		c0.613-0.545,1.148-1.076,1.402-1.813c0.228-0.117,0.26-0.449,0.408-0.553c0.111-0.346,0.338-0.463,0.375-0.755
		c0.458-0.767,0.793-1.515,0.992-2.364c0.53-1.885,0.285-4.02-0.11-5.803c-0.119-0.514-0.261-0.9-0.454-1.364
		c-0.067-0.439-0.301-0.896-0.402-1.29c-0.464-0.625-0.855-1.304-1.166-1.993c-0.255-0.329-0.362-0.765-0.618-1.095
		c-0.28-0.488-0.348-0.93-0.649-1.293c-0.437-0.711-0.805-1.516-1.241-2.227c-0.705-1.121-1.159-2.487-1.682-3.76
		c-0.233-0.988-0.427-1.982-0.47-2.796C32.548,63.403,32.771,61.116,32.769,59.231L32.769,59.231z"/>
	<path fill-rule="evenodd" clip-rule="evenodd" fill="#9A9E91" d="M57.707,35.296c-2.491,1.938-3.531,3.982-4.918,6.694
		c-0.966,1.992-1.692,10.093-1.307,9.665c0.202-0.276,0.663-4.772,1.264-4.864c1.489-7.931,4.618-13.204,11.213-8.395
		C61.881,36.87,60.521,35.48,57.707,35.296L57.707,35.296z"/>
	<path fill-rule="evenodd" clip-rule="evenodd" fill="#55484B" d="M49.579,28.51c0.674,0.388,1.32,0.862,1.523,1.118
		c0.08-0.012,0.717,0.669,0.851,0.731c0.388,0.391,1.112,0.854,1.254,1.241c-0.348,0.137-2.72,1.236-2.894,1.181
		c-0.092-0.6,0.541-1.025,0.986-1.34c-0.601,0.092-1.389,0.582-1.779,0.969c-0.951,1.007-1.469,3.257-1.646,4.513
		c-0.182,1.217,0.213-0.483-0.908-0.312c-0.184,0.397-0.123,0.797-0.096,1.245c-0.323,0.295-0.393,0.388-0.832,0.455
		c-1.526,2.609,0.577,6.181,0.981,8.823c-2.649-2.586-2.113-8.732-0.326-11.505c0.197-0.317,0.404-0.841,0.677-1.21
		c-1.724,0.264-1.243,1.788-2.048,2.69c-0.277,0.329-1.155,0.218-1.516,0.273c-0.262,1.228-1.323,2.865-1.127,4.146
		c-0.221-1.441-0.562-3.397-0.368-4.819c0.216-1.263,0.392-1.987,1.209-2.808c-0.012-0.08,0.869-1.28,0.851-1.401
		c-0.562,0.086-2.198,1.976-2.61,2.49c0.11-0.345,0.735-2.693,0.755-3.107c-0.204-0.256-1.073,1.026-1.382,1.688
		c0.075-2.184,1.019-3.516,2.612-4.621c1.646-1.03,4.651-1.736,4.188-1.542c-1.005,0.399-4.045,2.749-3.766,4.304
		c0.423-1.252,3.029-2.43,4.461-2.977C48.705,28.684,49.646,28.417,49.579,28.51L49.579,28.51z"/>
	<path fill-rule="evenodd" clip-rule="evenodd" fill="#55484B" d="M46.714,26.653c-1.318-0.044-2.226,0.709-2.427,1.272
		c-0.037-0.772,0.93-1.412,0.911-1.532c-0.092-0.068-1.284,0.442-1.364,0.454c-0.079,0.012-0.215,0.197-0.257,0.203
		c-0.547,0.166-1.388,0.827-1.522,1.012c-1.322,1.268-2.325,3.02-2.77,4.398c-0.797-1.189,2.113-4.667,2.867-5.356
		c-1.856-0.084-3.599,2.722-3.09,2.03c-0.153-1.001,2.337-2.938,3.753-3.319l1.658-0.418C44.813,25.469,46.898,26.789,46.714,26.653
		L46.714,26.653z"/>
	<path fill-rule="evenodd" clip-rule="evenodd" fill="#55484B" d="M53.854,32.075c-0.404,0.84-1.691,0.996-2.482,0.913
		c-0.136,0.185-0.531,0.286-0.711,0.437c-1.846,1.061-2.912,5.075-2.612,7.037l-0.066-0.441c0.271-0.369,0.578-0.498,0.992-0.479
		c0.049,0.32-0.236,0.609-0.417,0.76c-0.697,0.803-1.053,2.497-0.899,3.498l1.121,7.326c0.837-2.832,0.479-5.974,1.328-8.725
		c-0.006-0.04,0.044-0.253,0.038-0.292c-0.203,0.277-0.441,0.601-0.762,0.649l-0.055,0.171c-0.379-0.597,0.688-1.663,0.608-2.182
		c0.256-0.203-0.464-1.158-0.565-1.553c-0.052-0.606,0.181-3.102,1.102-3.243l-0.525,2.458c-0.313,0.908,0.496,2.71,0.569,3.191
		c-0.092-0.602,0.526-2.991,0.659-3.461c0.77-2.207,2.109-2.29,3.874-3.87c0,0,1.494-0.679,1.568-0.732
		C56.685,33.444,54.3,32.58,53.854,32.075L53.854,32.075z"/>
	<path fill-rule="evenodd" clip-rule="evenodd" fill="#55484B" d="M65.187,38.658c1.167,3.346,0.139,10.018-1.39,12.341
		c1.063-0.285,3.864-6.082,3.535-6.359c1.04,0.373-0.141,8.994-2.916,11.468c1.927-0.786,4.043-4.101,4.106-4.48
		c0.344,3.308-2.455,6.441-4.32,8.979c1.081-0.166,1.658-0.951,4.542-4.055c0.641,2.852-2.327,9.164-3.662,10.066
		c-0.075,0.052,3.171-3.108,4.623-5.666c1.03-1.838,1.288-5.769,0.942-7.765c-0.134-0.595-0.732-5.05-1.132-6.588
		c-0.122-0.268-0.6-3.391-1.135-4.21C67.956,41.759,66.079,39.136,65.187,38.658L65.187,38.658z"/>
	<path fill-rule="evenodd" clip-rule="evenodd" fill="#8A8D82" d="M30.981,21.849c1.049,1.765,1.605,3.523,0.004,7.784
		c1.639-9.101-2.41-8.522-4.087-8.225C26.927,21.322,28.622,20.079,30.981,21.849L30.981,21.849z"/>
	<path fill-rule="evenodd" clip-rule="evenodd" fill="#BBB098" d="M8.391,38.622c0.126,0.022,0.037,0.241-0.037,0.292
		C8.302,38.84,8.271,38.64,8.391,38.622L8.391,38.622z"/>
	<path fill-rule="evenodd" clip-rule="evenodd" fill="#BBB098" d="M10.312,38.861c0.139,0.101-0.03,0.332-0.033,0.578
		C10.173,39.292,10.199,38.919,10.312,38.861L10.312,38.861z"/>
	<path fill-rule="evenodd" clip-rule="evenodd" fill="#BBB098" d="M18.446,44.09c0.127,0.022,0.332,0.03,0.431,0.138
		c-0.237,0.856-0.436,1.706-0.421,2.605c-0.373-0.844-0.408-1.863-0.077-2.652C18.452,44.13,18.446,44.09,18.446,44.09L18.446,44.09
		z"/>
	<path fill-rule="evenodd" clip-rule="evenodd" fill="#BBB098" d="M15.908,45.174c0.127,0.022,0.294,0.038,0.283,0.244
		c-0.117,0.305-0.167,0.517-0.151,0.883C15.831,46.006,15.784,45.44,15.908,45.174L15.908,45.174z"/>
	<path fill-rule="evenodd" clip-rule="evenodd" fill="#DBC6A8" d="M32.788,95.776c0.064,0.155,0.256,0.33,0.166,0.549
		c-0.322,0.296-0.785,0.488-1.146,0.544C31.995,96.471,32.366,95.963,32.788,95.776L32.788,95.776z"/>
	<path fill-rule="evenodd" clip-rule="evenodd" fill="#DBC6A8" d="M33.627,99.377c0.104,0.147,0.356,0.191,0.394,0.432
		c-0.136,0.184-0.44,0.066-0.496,0.238c-0.527,0.039-0.811,0.33-1.164,0.426c-0.068,0.091-0.063,0.132-0.097,0.178
		C32.559,100.155,33.05,99.629,33.627,99.377L33.627,99.377z"/>
	<path fill-rule="evenodd" clip-rule="evenodd" fill="#DBC6A8" d="M38.429,100.241c0.241-0.037,0.573-0.006,0.656,0.268
		c-0.02,0.412-0.638,0.385-0.823,0.781c-0.182,0.151-0.335,0.216-0.443,0.314C37.813,101.032,38.072,100.581,38.429,100.241
		L38.429,100.241z"/>
	<path fill-rule="evenodd" clip-rule="evenodd" fill="#DBC6A8" d="M60.164,106.79c0.139,0.102,0.379,0.064,0.422,0.345
		c-0.403,0.308-0.733,0.562-1.065,1.064C59.446,107.719,59.703,106.983,60.164,106.79L60.164,106.79z"/>
	<path fill-rule="evenodd" clip-rule="evenodd" fill="#DBC6A8" d="M67.501,109.477c0.224,0.13,0.525-0.04,0.684,0.184
		c-0.38,0.466-0.633,0.955-0.938,1.371c-0.016,0.167,0.027,0.447-0.198,0.316c-0.125-0.555-0.001-1.352,0.337-1.813
		C67.421,109.49,67.501,109.477,67.501,109.477L67.501,109.477z"/>
	<path fill-rule="evenodd" clip-rule="evenodd" fill="#DBC6A8" d="M63.078,110.031c0.08-0.013,0.354-0.095,0.424,0.099
		c-0.115,0.305-0.437,0.354-0.455,0.768c-0.395,0.101-0.321,0.581-0.518,0.898c-0.296-0.324-0.102-0.928-0.081-1.34
		C62.523,110.156,62.805,110.113,63.078,110.031L63.078,110.031z"/>
	<path fill-rule="evenodd" clip-rule="evenodd" fill="#E16255" d="M14.753,11.916c0.52-0.08,0.947,0.307,1.243,0.631
		c0.157,0.222-0.076,0.298-0.122,0.264c-0.235-0.457-0.827-0.571-1.109-0.814C14.759,11.957,14.753,11.916,14.753,11.916
		L14.753,11.916z"/>
	<path fill-rule="evenodd" clip-rule="evenodd" fill="#FFFFFF" d="M4.986,13.698l0.641,0.436c-0.234,0.076-0.067-0.442-0.08-0.522
		C5.541,13.572,4.986,13.698,4.986,13.698L4.986,13.698z"/>
	<path fill-rule="evenodd" clip-rule="evenodd" fill="#7A7D6F" d="M26.875,38.662c4.78,4.186,8.15,9.611,12.809,14.88
		c2.375,2.668,3.283,3.513,6.343,5.299c0.997,0.626,3.918,1.776,4.21,1.813c0.021,2.004,0.415,5.92,1.052,7.666
		c-0.386-0.639-6.534-1.992-7.707-2.427c-2.537-1.046-4.442-1.45-7.482-4.183c-1.896-1.676-2.637-2.504-4.329-4.991
		c-0.419-0.591-2.594-2.226-3.796-3.394c-2.386-2.462-2.668-4.304-3.69-6.442c-0.597-1.221-3.359-3.215-3.623-4.936
		c-0.104-0.681,1.796-2.447,4.115-2.555C24.855,39.381,25.918,39.094,26.875,38.662L26.875,38.662z"/>
	<g>
		<path fill-rule="evenodd" clip-rule="evenodd" fill="#828475" d="M26.602,38.745c2.776,3.139,9.717,11.01,12.569,14.917
			c1.409,1.997,3.703,3.858,6.438,5.407c0.636,0.395,4.337,1.835,4.67,1.867c0.021,2.004,0.412,5.633,1.009,7.385
			c-0.386-0.639-6.534-1.992-7.707-2.427c-2.537-1.046-4.442-1.45-7.482-4.183c-1.901-1.717-2.683-2.539-4.369-4.985
			c-0.379-0.597-2.594-2.226-3.756-3.399c-2.386-2.462-2.668-4.304-3.69-6.442c-0.597-1.221-3.359-3.215-3.623-4.936
			c-0.104-0.681,2.584-2.116,3.842-2.473C24.496,39.437,25.877,39.101,26.602,38.745L26.602,38.745z"/>
		<path fill-rule="evenodd" clip-rule="evenodd" fill="#8A8A7B" d="M26.375,38.861c2.663,3.485,9.142,11.017,12.246,14.966
			c1.572,1.973,3.783,3.846,6.613,5.462c0.646,0.476,4.723,1.941,5.049,1.932c0.065,2.039,0.408,5.348,1.005,7.1
			c-0.425-0.633-6.534-1.992-7.707-2.427c-2.537-1.046-4.442-1.45-7.522-4.176c-1.861-1.724-2.643-2.546-4.329-4.992
			c-0.417-0.591-2.594-2.226-3.756-3.399c-2.386-2.462-2.714-4.338-3.731-6.436c-0.556-1.227-3.359-3.215-3.622-4.936
			c-0.058-0.647,2.443-1.973,3.646-2.403C24.267,39.552,25.724,39.166,26.375,38.861L26.375,38.861z"/>
		<path fill-rule="evenodd" clip-rule="evenodd" fill="#949281" d="M26.18,38.932c2.515,3.836,8.532,11.028,11.894,15.062
			c1.698,1.994,3.871,3.874,6.744,5.524c0.693,0.508,5.142,1.998,5.469,1.99c0.105,2.032,0.445,5.055,1.002,6.813
			c-0.425-0.633-6.54-2.031-7.713-2.467c-2.531-1.006-4.437-1.41-7.523-4.176c-1.854-1.684-2.636-2.506-4.322-4.952
			c-0.417-0.591-2.594-2.226-3.763-3.439c-2.385-2.462-2.707-4.298-3.731-6.436c-0.555-1.227-3.353-3.175-3.622-4.936
			c-0.051-0.607,2.262-1.822,3.426-2.246C24.033,39.63,25.61,39.224,26.18,38.932L26.18,38.932z"/>
		<path fill-rule="evenodd" clip-rule="evenodd" fill="#9D9A86" d="M25.905,39.015c2.448,4.214,8.005,11.067,11.652,15.098
			c1.831,2.055,3.924,3.948,6.886,5.625c0.704,0.588,5.525,2.104,5.886,2.049c0.105,2.033,0.402,4.775,0.959,6.533
			c-0.425-0.633-6.58-2.025-7.713-2.467c-2.531-1.006-4.477-1.404-7.523-4.176c-1.854-1.684-2.636-2.506-4.322-4.952
			c-0.417-0.591-2.594-2.226-3.763-3.439c-2.385-2.462-2.707-4.298-3.731-6.436c-0.555-1.227-3.353-3.175-3.622-4.936
			c-0.045-0.567,2.08-1.671,3.192-2.168C23.806,39.747,25.449,39.249,25.905,39.015L25.905,39.015z"/>
		<path fill-rule="evenodd" clip-rule="evenodd" fill="#A9A18C" d="M25.678,39.131c2.331,4.52,7.425,11.033,11.333,15.148
			c1.996,2.071,4.016,4.016,7.056,5.681c0.712,0.629,5.904,2.169,6.266,2.114c0.146,2.025,0.439,4.481,0.914,6.252
			c-0.383-0.639-6.538-2.031-7.711-2.467c-2.53-1.006-4.437-1.41-7.483-4.182c-1.895-1.678-2.636-2.506-4.322-4.952
			c-0.417-0.591-2.634-2.22-3.802-3.434c-2.346-2.468-2.668-4.304-3.692-6.441c-0.555-1.227-3.353-3.175-3.622-4.936
			c-0.045-0.567,1.893-1.561,2.958-2.092C23.571,39.823,25.336,39.308,25.678,39.131L25.678,39.131z"/>
		<path fill-rule="evenodd" clip-rule="evenodd" fill="#B0A792" d="M25.438,39.168c2.232,4.944,6.864,11.119,11.063,15.271
			c2.084,2.098,4.017,4.015,7.189,5.743c0.723,0.709,6.289,2.273,6.643,2.18c0.193,2.06,0.438,4.194,0.913,5.965
			c-0.383-0.639-6.579-2.025-7.711-2.467c-2.537-1.046-4.437-1.41-7.483-4.182c-1.895-1.678-2.636-2.506-4.322-4.952
			c-0.417-0.591-2.641-2.259-3.802-3.434c-2.387-2.462-2.668-4.304-3.692-6.441c-0.595-1.221-3.353-3.175-3.622-4.936
			c-0.038-0.526,1.663-1.443,2.725-2.015C23.377,39.894,25.176,39.333,25.438,39.168L25.438,39.168z"/>
		<path fill-rule="evenodd" clip-rule="evenodd" fill="#BBB098" d="M25.21,39.285c2.12,5.289,6.291,11.125,10.744,15.319
			c2.249,2.115,4.101,4.044,7.321,5.804c0.735,0.789,6.714,2.375,7.101,2.232c0.193,2.061,0.435,3.909,0.87,5.686
			c-0.424-0.632-6.579-2.025-7.711-2.467c-2.537-1.046-4.437-1.41-7.522-4.176c-1.896-1.677-2.637-2.506-4.323-4.952
			c-0.377-0.597-2.601-2.266-3.762-3.44c-2.387-2.462-2.707-4.298-3.731-6.436c-0.556-1.227-3.313-3.181-3.583-4.942
			c-0.038-0.526,1.481-1.293,2.496-1.898C23.143,39.97,25.063,39.39,25.21,39.285L25.21,39.285z"/>
		<path fill-rule="evenodd" clip-rule="evenodd" fill="#C6B69D" d="M24.976,39.363c2.01,5.633,5.72,11.129,10.471,15.402
			c2.375,2.135,4.147,4.077,7.453,5.867c0.741,0.828,7.092,2.438,7.48,2.297c0.238,2.094,0.431,3.622,0.866,5.398
			c-0.424-0.632-6.579-2.025-7.711-2.467c-2.537-1.046-4.477-1.404-7.522-4.176c-1.896-1.677-2.637-2.506-4.323-4.952
			c-0.377-0.597-2.601-2.266-3.762-3.44c-2.387-2.462-2.707-4.298-3.731-6.436c-0.556-1.227-3.313-3.181-3.583-4.942
			c-0.033-0.488,1.3-1.142,2.262-1.822C22.915,40.087,24.908,39.454,24.976,39.363L24.976,39.363z"/>
		<path fill-rule="evenodd" clip-rule="evenodd" fill="#D1C0A3" d="M24.748,39.479c1.937,5.972,5.146,11.136,10.143,15.412
			c2.508,2.197,4.239,4.145,7.592,5.967c0.794,0.903,7.513,2.498,7.94,2.35c0.232,2.055,0.434,3.375,0.817,5.08
			c-0.424-0.633-6.573-1.986-7.705-2.428c-2.537-1.046-4.483-1.445-7.522-4.176c-1.896-1.677-2.637-2.506-4.329-4.991
			c-0.377-0.598-2.595-2.226-3.763-3.44c-2.38-2.422-2.7-4.258-3.73-6.436c-0.55-1.187-3.313-3.181-3.577-4.902
			c-0.033-0.488,1.112-1.03,2.028-1.744C22.682,40.165,24.787,39.473,24.748,39.479L24.748,39.479z"/>
		<path fill-rule="evenodd" clip-rule="evenodd" fill="#DBC6A8" d="M24.515,39.556c1.832,6.357,4.572,11.141,9.829,15.5
			c2.674,2.212,4.325,4.173,7.763,6.024c0.801,0.942,7.897,2.601,8.325,2.453c0.272,2.049,0.425,3.049,0.769,4.76
			c-0.384-0.639-6.573-1.986-7.704-2.428c-2.537-1.046-4.444-1.451-7.483-4.182c-1.896-1.677-2.643-2.545-4.368-4.985
			c-0.379-0.597-2.594-2.226-3.765-3.44c-2.339-2.428-2.659-4.264-3.689-6.442c-0.55-1.187-3.354-3.175-3.617-4.896
			c0.014-0.453,0.971-0.887,1.834-1.675C22.446,40.24,24.634,39.538,24.515,39.556L24.515,39.556z"/>
	</g>
	<path fill-rule="evenodd" clip-rule="evenodd" fill="#E7CEAF" d="M24.279,39.632c1.722,6.704,4.195,11.078,9.549,15.544
		c2.26,1.909,4.38,4.248,7.902,6.125c0.813,1.023,8.276,2.667,8.698,2.48c0.318,2.081,0.469,2.795,0.771,4.512
		c-0.384-0.639-6.533-1.992-7.665-2.434c-2.576-1.04-4.483-1.445-7.522-4.176c-1.896-1.677-2.643-2.545-4.368-4.985
		c-0.332-0.563-2.594-2.226-3.724-3.446c-2.38-2.422-2.7-4.258-3.73-6.436c-0.55-1.187-3.354-3.175-3.617-4.896
		c0.014-0.453,0.782-0.775,1.605-1.558C22.214,40.318,24.515,39.556,24.279,39.632L24.279,39.632z"/>
	<path fill-rule="evenodd" clip-rule="evenodd" fill="#231F20" d="M22.434,40.161c0.179,1.693,1.178,3.139,1.978,4.614
		c0.325,0.523,0.531,1.065,0.897,1.583c0.176,0.343,0.11,0.722,0.366,1.05c0.145,0.675,0.338,1.138,0.783,1.643
		c0.03,0.199,0.049,0.32,0.228,0.416c0.081-0.013,0.147-0.105,0.057-0.173c-0.177-0.342-0.392-0.678-0.526-1.026
		c-0.471-1.198-0.679-2.56-1.393-3.474c-0.113-0.475-0.402-0.758-0.532-1.067c-0.563-0.199-1.512-3.456-1.233-3.784
		C22.817,39.98,22.642,40.171,22.434,40.161L22.434,40.161z"/>
	<path fill-rule="evenodd" clip-rule="evenodd" fill="#7A7D6F" d="M67.659,67.946c0.245-0.816,1.711-4.359,1.57-3.395
		c0,0,1.068,0.819,1.473,1.044c0.409,0.266,3.682,2.101,4.762,2.468c2.637,1.439,2.841,1.697,3.884,2.355
		c2.44,1.757,6.848,4.853,8.886,8.802c3.242,6.183,4.31,10.486,1.941,18.305c-0.977,3.265-3.638,7.03-4.719,8.263
		c1.727-2.109,3.918-7.606,4.729-11.132c1.698-7.923-4.028-15.077-6.429-16.841l-3.104-1.818
		c-3.529-0.566-10.579-2.191-13.843-5.585C66.354,70.112,67.186,69.658,67.659,67.946L67.659,67.946z"/>
	<g>
		<path fill-rule="evenodd" clip-rule="evenodd" fill="#828475" d="M67.659,67.946c0.245-0.816,1.617-3.895,1.559-2.943
			c0,0,1.107,0.814,1.517,1.08c0.404,0.225,3.491,1.924,4.572,2.291c2.678,1.436,3.047,1.705,4.01,2.377
			c2.481,1.752,6.744,4.705,8.804,8.528c3.234,6.143,4.337,10.399,2.055,18.246c-0.937,3.259-3.638,7.03-4.68,8.257
			c1.688-2.104,3.93-7.527,4.69-11.126c1.692-7.963-4.028-15.077-6.429-16.841c-1.077-0.613-0.72-0.422-3.104-1.818
			c-3.522-0.526-10.534-2.158-13.804-5.592C66.354,70.112,67.225,69.652,67.659,67.946L67.659,67.946z"/>
		<path fill-rule="evenodd" clip-rule="evenodd" fill="#8A8A7B" d="M67.659,67.946c0.245-0.816,1.485-3.424,1.58-2.537
			c0,0,1.114,0.854,1.563,1.113c0.404,0.225,3.227,1.801,4.307,2.169c2.678,1.434,3.209,1.681,4.251,2.34
			c2.44,1.758,6.599,4.563,8.606,8.312c3.309,6.092,4.491,10.336,2.209,18.183c-0.896,3.253-3.677,7.036-4.719,8.263
			c1.727-2.109,3.976-7.492,4.729-11.132c1.611-7.95-3.986-15.083-6.423-16.8c-1.083-0.654-0.726-0.463-3.11-1.859
			c-3.522-0.526-10.534-2.158-13.804-5.592C66.393,70.106,67.186,69.658,67.659,67.946L67.659,67.946z"/>
		<path fill-rule="evenodd" clip-rule="evenodd" fill="#949281" d="M67.659,67.946c0.245-0.816,1.398-2.919,1.562-2.123
			c0,0,1.2,0.881,1.608,1.146c0.404,0.225,3.047,1.705,4.128,2.072c2.678,1.435,3.367,1.656,4.372,2.322
			c2.48,1.752,6.527,4.369,8.516,7.998c3.304,6.051,4.525,10.289,2.33,18.163c-0.896,3.253-3.677,7.036-4.719,8.263
			c1.727-2.109,3.981-7.452,4.729-11.132c1.565-7.983-3.986-15.083-6.423-16.8c-1.083-0.654-0.726-0.463-3.104-1.82
			c-3.528-0.565-10.54-2.197-13.804-5.59C66.399,70.147,67.186,69.658,67.659,67.946L67.659,67.946z"/>
		<path fill-rule="evenodd" clip-rule="evenodd" fill="#9D9A86" d="M67.659,67.946c0.205-0.81,1.306-2.453,1.548-1.671
			c0,0,1.241,0.876,1.649,1.14c0.403,0.227,2.862,1.57,3.944,1.938c2.684,1.474,3.532,1.672,4.535,2.338
			c2.482,1.752,6.379,4.187,8.356,7.736c3.335,6.004,4.639,10.23,2.482,18.099c-0.855,3.246-3.677,7.036-4.719,8.263
			c1.687-2.103,3.994-7.373,4.729-11.132c1.565-7.983-3.986-15.083-6.423-16.8c-1.077-0.615-0.726-0.463-3.104-1.82
			c-3.522-0.525-10.54-2.197-13.804-5.59C66.399,70.147,67.186,69.658,67.659,67.946L67.659,67.946z"/>
		<path fill-rule="evenodd" clip-rule="evenodd" fill="#A9A18C" d="M67.659,67.946c0.205-0.81,1.173-1.982,1.53-1.259
			c0,0,1.286,0.91,1.696,1.175c0.402,0.226,2.676,1.434,3.756,1.803c2.639,1.439,3.702,1.687,4.705,2.352
			c2.44,1.758,6.266,4,8.232,7.469c3.328,5.964,4.665,10.144,2.596,18.04c-0.855,3.246-3.677,7.036-4.719,8.263
			c1.687-2.103,4-7.332,4.729-11.132c1.48-8.012-3.986-15.083-6.423-16.8c-1.077-0.615-0.72-0.422-3.104-1.82
			c-3.522-0.525-10.54-2.197-13.804-5.59C66.399,70.147,67.186,69.658,67.659,67.946L67.659,67.946z"/>
		<path fill-rule="evenodd" clip-rule="evenodd" fill="#B0A792" d="M67.62,67.952c0.244-0.815,1.119-1.523,1.596-0.818
			c0,0,1.286,0.91,1.69,1.135c0.409,0.266,2.505,1.379,3.585,1.746c2.679,1.435,3.854,1.623,4.864,2.329
			c2.48,1.751,6.162,3.852,8.069,7.206c3.396,5.873,4.779,10.086,2.75,17.976c-0.816,3.24-3.677,7.036-4.758,8.269
			c1.726-2.108,4.086-7.305,4.735-11.092c1.471-8.051-3.908-15.096-6.429-16.839c-1.038-0.622-0.721-0.423-3.02-1.792
			c-3.529-0.566-10.539-2.198-13.844-5.585C66.445,70.18,67.145,69.665,67.62,67.952L67.62,67.952z"/>
		<path fill-rule="evenodd" clip-rule="evenodd" fill="#BBB098" d="M67.62,67.952c0.244-0.815,1.027-1.059,1.577-0.405
			c0,0,1.372,0.938,1.776,1.163c0.409,0.264,2.241,1.254,3.32,1.622c2.679,1.434,4.067,1.673,5.07,2.338
			c2.48,1.751,6.052,3.663,7.905,6.944c3.433,5.826,4.894,10.027,2.905,17.911c-0.776,3.233-3.677,7.036-4.758,8.269
			c1.726-2.108,4.092-7.265,4.735-11.092c1.433-8.045-3.908-15.096-6.429-16.839c-1.038-0.622-0.721-0.423-3.02-1.792
			c-3.529-0.566-10.539-2.198-13.844-5.585C66.445,70.18,67.145,69.665,67.62,67.952L67.62,67.952z"/>
		<path fill-rule="evenodd" clip-rule="evenodd" fill="#C6B69D" d="M67.62,67.952c0.203-0.809,0.893-0.588,1.564,0.049
			c0,0,1.413,0.93,1.816,1.154c0.409,0.266,2.057,1.119,3.137,1.488c2.684,1.474,4.227,1.647,5.229,2.313
			c2.442,1.758,5.908,3.521,7.783,6.676c3.433,5.827,4.97,9.977,3.025,17.894c-0.776,3.233-3.718,7.043-4.799,8.274
			c1.727-2.108,4.145-7.19,4.776-11.098c1.386-8.078-3.908-15.096-6.429-16.839c-1.031-0.581-0.721-0.423-3.02-1.792
			c-3.529-0.566-10.539-2.198-13.844-5.585C66.445,70.18,67.104,69.67,67.62,67.952L67.62,67.952z"/>
		<path fill-rule="evenodd" clip-rule="evenodd" fill="#D1C0A3" d="M67.62,67.952c0.203-0.809,0.801-0.123,1.547,0.46
			c0,0,1.457,0.966,1.861,1.19c0.41,0.266,1.877,1.023,2.958,1.391c2.678,1.435,4.348,1.63,5.351,2.297
			c2.479,1.75,5.836,3.326,7.66,6.407c3.458,5.739,5.041,9.923,3.178,17.828c-0.734,3.228-3.718,7.043-4.799,8.274
			c1.727-2.108,4.151-7.15,4.776-11.098c1.346-8.072-3.908-15.096-6.429-16.839c-1.031-0.581-0.721-0.423-3.014-1.753
			c-3.529-0.566-10.539-2.197-13.843-5.584C66.452,70.22,67.104,69.67,67.62,67.952L67.62,67.952z"/>
		<path fill-rule="evenodd" clip-rule="evenodd" fill="#DBC6A8" d="M67.581,67.958c0.203-0.809,0.746,0.337,1.566,0.867
			c0,0,1.504,0.999,1.907,1.224c0.41,0.265,1.694,0.888,2.774,1.255c2.638,1.441,4.513,1.645,5.557,2.305
			c2.44,1.758,5.685,3.146,7.495,6.147c3.494,5.693,5.11,9.831,3.294,17.77c-0.696,3.222-3.718,7.043-4.799,8.274
			c1.687-2.102,4.157-7.11,4.782-11.058c1.294-8.147-3.874-15.142-6.429-16.84c-1.037-0.62-0.721-0.422-3.02-1.792
			c-3.529-0.566-10.539-2.197-13.803-5.59C66.452,70.22,67.104,69.67,67.581,67.958L67.581,67.958z"/>
	</g>
	<path fill-rule="evenodd" clip-rule="evenodd" fill="#E7CEAF" d="M67.581,67.958c0.203-0.809,0.614,0.808,1.554,1.319
		c0,0,1.544,0.993,1.947,1.219c0.411,0.265,1.51,0.752,2.59,1.119c2.638,1.44,4.678,1.661,5.683,2.327
		c2.48,1.75,5.522,2.883,7.367,5.838c3.58,5.722,5.224,9.771,3.453,17.745c-0.69,3.261-3.756,7.049-4.799,8.274
		c1.687-2.102,4.164-7.07,4.782-11.058c1.253-8.142-3.874-15.142-6.429-16.84l-3.02-1.792c-3.522-0.525-10.533-2.158-13.803-5.59
		C66.452,70.22,67.104,69.67,67.581,67.958L67.581,67.958z"/>
	<path fill-rule="evenodd" clip-rule="evenodd" fill="#E48A6A" d="M3.387,8.863C3.565,8.957,3.58,9.324,3.398,9.475
		C3.177,9.632,3.115,9.231,3.183,9.139C3.204,9.013,3.261,8.84,3.387,8.863L3.387,8.863z"/>
	<path fill-rule="evenodd" clip-rule="evenodd" fill="#7A7D6F" d="M17.786,15.673c-2.522-0.146-4.21-0.462-5.995,0.712
		c-0.115,0.058,0.183,0.136,0.426,0.386c0.377,0.312,0.865,1.097,1.064,1.599c0.811,2.088,0.764,4.185,1.542,6.32
		c0.211,0.582,0.639,1.5,0.964,2.024c0.233,0.457,0.539,1.105,0.651,1.581c0.611,2.651,0.763,5.783,1.589,8.237
		c0.172,0.589,0.588,1.959,0.897,2.117c0.373-0.508,1.638-1.356,2.148-1.763c0.666-0.471,1.886-1.599,2.539-2.149
		c0.291-0.25-0.076-1.301-0.137-1.701c-0.019-0.12-0.654-1.867-0.66-1.907l-0.474-2.017c-0.299-1.143-0.094-1.953-0.192-3.126
		c-0.143-1.74-0.267-3.36-0.938-5.06c-0.412-1.084-0.807-2.868-1.372-3.888l-0.275-0.449c-0.109-0.188-0.602-1.261-0.715-1.202
		L17.786,15.673L17.786,15.673z"/>
	<g>
		<path fill-rule="evenodd" clip-rule="evenodd" fill="#828475" d="M17.42,15.688c-2.356-0.13-3.844-0.478-5.67,0.704
			c-0.074,0.052,0.224,0.13,0.467,0.379c0.377,0.312,0.865,1.097,1.026,1.605c0.811,2.088,0.762,4.186,1.58,6.314
			c0.211,0.582,0.633,1.46,0.964,2.024c0.233,0.457,0.539,1.105,0.606,1.545c0.656,2.686,0.769,5.824,1.634,8.272
			c0.172,0.589,0.547,1.966,0.897,2.117c0.373-0.508,1.523-1.298,2-1.659c0.619-0.503,1.674-1.648,2.242-2.227
			c0.248-0.244-0.071-1.26-0.133-1.66c-0.019-0.12-0.613-1.874-0.613-1.874c-0.145-0.673-0.114-0.474-0.479-2.057
			c-0.227-0.948-0.033-2.084-0.18-3.045c-0.264-1.722-0.188-3.373-0.864-5.113c-0.451-1.078-0.768-2.874-1.367-3.848
			c-0.104-0.147-0.059-0.114-0.324-0.523c-0.106-0.148-0.65-1.294-0.765-1.236C18.088,15.504,18.207,15.485,17.42,15.688
			L17.42,15.688z"/>
		<path fill-rule="evenodd" clip-rule="evenodd" fill="#8A8A7B" d="M17.007,15.669c-2.138-0.042-3.431-0.459-5.257,0.722
			c-0.034,0.046,0.224,0.13,0.467,0.379c0.377,0.312,0.865,1.097,1.026,1.605c0.811,2.088,0.768,4.226,1.586,6.354
			c0.205,0.542,0.633,1.46,0.958,1.984c0.233,0.457,0.539,1.105,0.612,1.586c0.65,2.645,0.769,5.823,1.635,8.272
			c0.165,0.548,0.546,1.965,0.897,2.116c0.366-0.548,1.448-1.246,1.88-1.639c0.545-0.452,1.427-1.652,1.902-2.299
			c0.215-0.197-0.059-1.179-0.113-1.54c-0.019-0.12-0.573-1.879-0.58-1.919c-0.146-0.673-0.108-0.434-0.433-2.023
			c-0.229-0.949-0.067-2.039-0.186-3.085c-0.257-1.682-0.188-3.373-0.818-5.079c-0.446-1.038-0.762-2.833-1.361-3.807
			c-0.11-0.189-0.058-0.114-0.379-0.598c-0.104-0.148-0.694-1.328-0.815-1.31C17.681,15.524,17.802,15.506,17.007,15.669
			L17.007,15.669z"/>
		<path fill-rule="evenodd" clip-rule="evenodd" fill="#949281" d="M16.601,15.69c-1.932-0.032-3.058-0.433-4.851,0.702
			c-0.034,0.046,0.224,0.13,0.467,0.379c0.342,0.358,0.865,1.097,1.026,1.605c0.811,2.088,0.768,4.226,1.586,6.354
			c0.205,0.542,0.633,1.46,0.958,1.984c0.24,0.496,0.539,1.105,0.612,1.586c0.65,2.645,0.769,5.823,1.635,8.272
			c0.172,0.588,0.546,1.965,0.897,2.116c0.366-0.548,1.373-1.193,1.737-1.495c0.5-0.486,1.208-1.741,1.598-2.416
			c0.209-0.236-0.053-1.139-0.107-1.5c-0.019-0.12-0.533-1.885-0.533-1.885c-0.145-0.674-0.074-0.479-0.438-2.063
			c-0.187-0.955-0.021-2.005-0.18-3.046c-0.218-1.687-0.108-3.383-0.778-5.083c-0.405-1.044-0.675-2.806-1.314-3.773
			c-0.117-0.229-0.104-0.148-0.471-0.666c-0.065-0.154-0.694-1.328-0.815-1.309C17.269,15.507,17.39,15.488,16.601,15.69
			L16.601,15.69z"/>
		<path fill-rule="evenodd" clip-rule="evenodd" fill="#9D9A86" d="M16.228,15.666c-1.758,0.022-2.685-0.409-4.478,0.726
			c-0.034,0.046,0.229,0.17,0.467,0.379c0.342,0.358,0.871,1.137,1.026,1.605c0.811,2.088,0.768,4.226,1.586,6.354
			c0.205,0.542,0.633,1.46,0.958,1.984c0.24,0.496,0.539,1.105,0.612,1.586c0.65,2.645,0.769,5.823,1.635,8.272
			c0.172,0.588,0.546,1.965,0.897,2.116c0.366-0.548,1.267-1.095,1.631-1.396c0.419-0.475,0.916-1.779,1.258-2.488
			c0.169-0.231-0.046-1.099-0.101-1.46c-0.019-0.12-0.488-1.85-0.495-1.891c-0.144-0.674-0.067-0.44-0.392-2.03
			c-0.194-0.994-0.066-2.039-0.22-3.039c-0.217-1.688-0.063-3.35-0.697-5.096c-0.406-1.045-0.676-2.807-1.27-3.74
			c-0.197-0.216-0.146-0.142-0.563-0.733c-0.064-0.154-0.699-1.368-0.821-1.349C16.909,15.562,17.022,15.503,16.228,15.666
			L16.228,15.666z"/>
		<path fill-rule="evenodd" clip-rule="evenodd" fill="#A9A18C" d="M15.82,15.687c-1.552,0.032-2.277-0.43-4.07,0.705
			c-0.034,0.046,0.229,0.17,0.467,0.379c0.342,0.358,0.871,1.137,1.026,1.605c0.811,2.088,0.768,4.226,1.586,6.354
			c0.205,0.542,0.633,1.46,0.958,1.984c0.24,0.496,0.539,1.105,0.612,1.586c0.65,2.645,0.769,5.823,1.635,8.272
			c0.172,0.588,0.546,1.965,0.897,2.116c0.366-0.548,1.191-1.042,1.476-1.332c0.386-0.428,0.709-1.788,1.006-2.531
			c0.084-0.258-0.072-1.012-0.134-1.413c-0.019-0.12-0.448-1.856-0.448-1.856c-0.145-0.675-0.113-0.475-0.359-2.076
			c-0.193-0.995-0.093-1.953-0.212-2.999c-0.264-1.722-0.028-3.397-0.699-5.098c-0.404-1.044-0.629-2.771-1.221-3.705
			c-0.211-0.297-0.153-0.182-0.616-0.808c-0.058-0.115-0.795-1.436-0.874-1.424C16.536,15.537,16.655,15.519,15.82,15.687
			L15.82,15.687z"/>
		<path fill-rule="evenodd" clip-rule="evenodd" fill="#B0A792" d="M15.409,15.668c-1.34,0.082-1.866-0.411-3.666,0.684
			c0.007,0.04,0.236,0.209,0.479,0.459c0.336,0.318,0.865,1.097,1.021,1.565c0.816,2.128,0.809,4.219,1.586,6.354
			c0.165,0.548,0.673,1.454,0.964,2.024c0.194,0.462,0.533,1.066,0.612,1.586c0.645,2.605,0.803,5.777,1.629,8.232
			c0.172,0.588,0.546,1.965,0.903,2.156c0.366-0.548,1.118-0.991,1.361-1.274c0.346-0.422,0.418-1.825,0.669-2.601
			c0.089-0.219-0.068-0.973-0.129-1.374c-0.019-0.12-0.402-1.823-0.402-1.823c-0.104-0.681-0.073-0.48-0.318-2.082
			c-0.159-1.041-0.1-1.993-0.26-3.033c-0.218-1.689,0.059-3.369-0.605-5.03c-0.412-1.084-0.549-2.784-1.223-3.705
			c-0.208-0.296-0.151-0.181-0.668-0.881c-0.058-0.115-0.792-1.436-0.913-1.418C16.129,15.558,16.209,15.545,15.409,15.668
			L15.409,15.668z"/>
		<path fill-rule="evenodd" clip-rule="evenodd" fill="#BBB098" d="M15.036,15.644c-1.167,0.137-1.493-0.386-3.293,0.708
			c0.007,0.04,0.236,0.209,0.479,0.459c0.336,0.318,0.865,1.097,1.021,1.565c0.816,2.128,0.814,4.259,1.586,6.354
			c0.165,0.548,0.679,1.494,0.964,2.024c0.194,0.462,0.539,1.106,0.612,1.586c0.645,2.605,0.809,5.817,1.629,8.232
			c0.172,0.588,0.546,1.965,0.903,2.156c0.366-0.548,1.045-0.938,1.215-1.169c0.305-0.415,0.204-1.874,0.361-2.718
			c0.05-0.213-0.054-0.894-0.109-1.254c-0.019-0.12-0.407-1.863-0.407-1.863c-0.066-0.687-0.067-0.441-0.274-2.048
			c-0.125-1.087-0.092-1.953-0.257-3.033c-0.179-1.694,0.098-3.375-0.526-5.042c-0.411-1.084-0.544-2.745-1.218-3.666
			c-0.214-0.335-0.155-0.222-0.718-0.955c-0.1-0.108-0.887-1.503-0.921-1.458C15.717,15.539,15.843,15.561,15.036,15.644
			L15.036,15.644z"/>
		<path fill-rule="evenodd" clip-rule="evenodd" fill="#C6B69D" d="M14.63,15.664c-0.962,0.147-1.087-0.407-2.887,0.688
			c0.007,0.04,0.236,0.209,0.479,0.459c0.336,0.318,0.865,1.097,1.021,1.565c0.816,2.128,0.814,4.259,1.586,6.354
			c0.165,0.548,0.679,1.494,0.964,2.024c0.194,0.462,0.539,1.106,0.612,1.586c0.645,2.605,0.809,5.817,1.629,8.232
			c0.172,0.588,0.546,1.965,0.903,2.156c0.366-0.548,0.937-0.84,1.105-1.07c0.226-0.403-0.046-1.918,0.031-2.75
			c0.037-0.293-0.055-0.894-0.11-1.254c-0.018-0.12-0.322-1.835-0.322-1.835c-0.104-0.681-0.073-0.481-0.277-2.088
			c-0.125-1.087-0.129-1.907-0.253-2.994c-0.219-1.688,0.137-3.381-0.526-5.041c-0.411-1.084-0.463-2.756-1.131-3.638
			c-0.294-0.324-0.195-0.215-0.813-1.023c-0.097-0.109-0.891-1.544-0.964-1.491C15.311,15.56,15.437,15.582,14.63,15.664
			L14.63,15.664z"/>
		<path fill-rule="evenodd" clip-rule="evenodd" fill="#D1C0A3" d="M14.217,15.646c-0.747,0.196-0.714-0.382-2.474,0.707
			c0.007,0.04,0.236,0.209,0.479,0.459c0.336,0.318,0.865,1.097,1.021,1.565c0.775,2.134,0.814,4.259,1.586,6.354
			c0.165,0.548,0.679,1.494,0.964,2.024c0.2,0.502,0.539,1.106,0.612,1.586c0.651,2.646,0.809,5.817,1.629,8.232
			c0.178,0.628,0.546,1.965,0.903,2.156c0.326-0.542,0.824-0.782,0.959-0.967c0.145-0.39-0.261-1.967-0.276-2.866
			c0.004-0.247-0.042-0.813-0.098-1.174c-0.018-0.12-0.32-1.835-0.32-1.835c-0.065-0.687-0.028-0.446-0.192-2.06
			c-0.171-1.122-0.175-1.941-0.294-2.988c-0.184-1.734,0.178-3.387-0.486-5.047c-0.371-1.091-0.416-2.723-1.123-3.598
			c-0.261-0.37-0.162-0.262-0.864-1.097c-0.019-0.121-0.892-1.544-0.973-1.532C14.95,15.615,15.07,15.597,14.217,15.646
			L14.217,15.646z"/>
		<path fill-rule="evenodd" clip-rule="evenodd" fill="#DBC6A8" d="M13.851,15.66c-0.582,0.212-0.348-0.396-2.107,0.692
			c0,0,0.243,0.25,0.486,0.5c0.329,0.277,0.865,1.096,1.02,1.563c0.77,2.095,0.809,4.22,1.58,6.314
			c0.165,0.548,0.685,1.535,0.971,2.065c0.193,0.461,0.538,1.104,0.605,1.545c0.651,2.646,0.809,5.817,1.635,8.272
			c0.172,0.588,0.547,1.965,0.897,2.116c0.326-0.542,0.796-0.695,0.806-0.901c0.144-0.391-0.508-1.971-0.568-2.904
			c0.002-0.246-0.029-0.733-0.091-1.134c-0.019-0.12-0.235-1.808-0.235-1.808c-0.104-0.68-0.073-0.48-0.199-2.1
			c-0.166-1.081-0.162-1.861-0.333-2.981c-0.138-1.7,0.263-3.359-0.401-5.02c-0.365-1.051-0.41-2.683-1.077-3.564
			c-0.348-0.397-0.243-0.25-0.956-1.165c-0.019-0.121-0.938-1.577-0.979-1.571C14.537,15.597,14.657,15.578,13.851,15.66
			L13.851,15.66z"/>
	</g>
	<path fill-rule="evenodd" clip-rule="evenodd" fill="#E7CEAF" d="M13.438,15.642c-0.363,0.301,0.064-0.378-1.688,0.75
		c0,0,0.276,0.204,0.479,0.46c0.329,0.277,0.865,1.096,1.02,1.563c0.811,2.089,0.809,4.22,1.587,6.355
		c0.204,0.542,0.678,1.495,0.964,2.024c0.233,0.455,0.538,1.104,0.646,1.539c0.611,2.652,0.769,5.824,1.595,8.279
		c0.172,0.588,0.547,1.965,0.897,2.116c0.326-0.542,0.681-0.637,0.702-0.763c0.066-0.378-0.725-2.06-0.872-3.021
		c-0.043-0.28-0.063-0.687-0.125-1.087c-0.019-0.12-0.235-1.807-0.235-1.807l-0.153-2.067c-0.091-1.133-0.162-1.86-0.293-2.987
		c-0.176-1.694,0.265-3.359-0.358-5.027c-0.366-1.049-0.371-2.688-1.072-3.522l-0.969-1.245c-0.053-0.074-1.024-1.605-1.064-1.599
		L13.438,15.642L13.438,15.642z"/>
	<path fill-rule="evenodd" clip-rule="evenodd" fill="#231F20" d="M13.934,15.402c0.61,0.235,0.976,1.284,1.363,1.676
		c0.156,0.222,0.291,0.57,0.442,0.752c0.29,0.283,0.477,0.706,0.687,1.001c0.371,1.09,0.826,1.923,0.964,3.09
		c0.105,2.031,0.516,3.895,0.494,5.905c0.208,0.296,0.098,0.641,0.267,0.943c0.239,1.028,0.045,2.164,0.232,3.119
		c0.451-2.404-0.56-4.994-0.309-7.369c-0.103-1.213,0.033-2.463-0.3-3.56c-0.011-0.613-0.404-1.044-0.484-1.564
		c-0.126-0.554-0.506-0.906-0.695-1.328c-0.428-0.386-0.563-0.733-0.79-1.149c-0.142-0.389-0.824-1.103-1.006-1.485
		C14.661,15.332,14.078,15.544,13.934,15.402L13.934,15.402z"/>
	<path fill-rule="evenodd" clip-rule="evenodd" fill="#7A7D6F" d="M9.93,35.56c-0.059,0.951-0.497,1.838-1.052,2.496
		c-0.199,0.031-0.367,0.015-0.424-0.098c0.356-0.875,0.963-1.46,1.328-2.293C9.81,35.578,9.844,35.532,9.93,35.56L9.93,35.56z"/>
	<g>
		<path fill-rule="evenodd" clip-rule="evenodd" fill="#231F20" d="M14.481,1.837c0.783,0.044,1.342,0.738,2.173,0.815
			c0.277,0.203,0.612-0.012,0.77,0.21c-1.296,0.361-2.189-1.182-3.467-0.699c-0.65,0.304-1.032,1.018-1.319,1.553
			c-0.004,0.246-0.151,0.352-0.186,0.397c0.299,0.077,0.352-0.382,0.527-0.571c0.117,0.228-0.194,0.603-0.376,0.753
			c-0.602,0.625-1.564,0.485-2.027,1.211c-0.505-0.086-0.699,0.517-0.998,0.439C9.439,5.846,9.233,5.836,9.172,5.969
			C8.294,6.39,7.357,6.697,6.71,7.288C6.644,7.38,6.614,7.467,6.507,7.565c0.527-1.105,1.845-1.06,2.628-1.836
			C9.456,5.68,9.801,5.791,10.05,5.548c0.241-0.569,0.767-0.609,1.257-0.889c0.508-0.16,0.924-0.388,1.115-0.744
			c0.105-0.385,0.269-0.656,0.42-1.007C13.288,2.348,13.772,2.028,14.481,1.837L14.481,1.837z"/>
		<path fill-rule="evenodd" clip-rule="evenodd" fill="#231F20" d="M21.187,2.287c0.262,0.37,0.359,1.01,0.582,1.386
			c0.643,1.254,0.41,2.682-0.283,3.772c-0.29,0.249-0.401,0.594-0.57,0.825c0.169-0.23,0.2-0.563,0.455-0.766
			c0.191-0.357,0.257-0.736,0.447-1.093c0.53-1.351-0.175-2.759-0.582-3.803C21.184,2.533,21.008,2.191,21.187,2.287L21.187,2.287z"
			/>
		<path fill-rule="evenodd" clip-rule="evenodd" fill="#231F20" d="M19.068,2.365c0.167,0.016,0.246,0.004,0.425,0.099
			c0.012,0.081,0.024,0.16,0.024,0.16c-0.142,0.145-0.327,0.009-0.473,0.114c0.039,0.526,0.562,0.733,0.555,1.226
			c-0.096-0.354-0.394-0.432-0.522-0.74c-0.156-0.222-0.36-0.478-0.191-0.708C18.914,2.43,18.995,2.417,19.068,2.365L19.068,2.365z"
			/>
		<path fill-rule="evenodd" clip-rule="evenodd" fill="#231F20" d="M14.852,3.461c1.003-0.153,1.496,0.672,2.396,0.657
			c-0.23,0.363-0.693,0.024-1.127,0.131c-0.77,0.323-1.441,0.753-2.365,0.608c-0.921,0.141-1.236,0.763-2.089,0.812
			c-0.116,0.305-0.4,0.062-0.49,0.279c-0.273,0.083-0.185-0.135-0.19-0.175c-0.286,0.002-0.266,0.409-0.625,0.464
			c0.28-0.575,0.971-0.353,1.343-0.861c0.728-0.07,1.278-0.482,1.796-0.849C13.879,4.061,14.153,3.445,14.852,3.461L14.852,3.461z"
			/>
		<path fill-rule="evenodd" clip-rule="evenodd" fill="#231F20" d="M17.661,3.605c0.345,0.11,0.627,0.354,1.059,0.493
			c-0.379-0.065-0.865-0.031-1.047-0.413C17.619,3.611,17.661,3.605,17.661,3.605L17.661,3.605z"/>
		<path fill-rule="evenodd" clip-rule="evenodd" fill="#FCEE22" d="M15.01,3.683c0.124,0.021,0.433-0.107,0.463,0.092
			c0.017,0.367-0.259,0.45-0.44,0.601C14.934,4.268,14.901,3.781,15.01,3.683L15.01,3.683z"/>
		<path fill-rule="evenodd" clip-rule="evenodd" fill="#FCEE22" d="M14.444,4.015c0.094,0.067,0.118,0.228,0.255,0.329
			C14.628,4.396,14.337,4.113,14.444,4.015L14.444,4.015z"/>
		<path fill-rule="evenodd" clip-rule="evenodd" fill="#231F20" d="M16.495,5.095c0.08-0.012,0.119-0.018,0.199-0.031
			c-0.774,0.283-1.243,0.969-2.149,0.943C13.96,5.933,13.501,5.88,12.956,5.8c0.839-0.416,2.199,0.441,2.958-0.494
			C16.112,5.276,16.255,5.131,16.495,5.095L16.495,5.095z"/>
		<path fill-rule="evenodd" clip-rule="evenodd" fill="#231F20" d="M16.9,6.138c-0.207,0.524-0.934,0.594-1.416,0.914
			c-1.581,0.652-3.212-0.901-4.715-0.016C10.474,7.245,10.112,7.3,9.817,7.509C9.57,7.506,9.29,7.549,9.143,7.653
			c0.428-0.147,0.645-0.344,1.118-0.458c0.779-0.529,1.806-0.522,2.688-0.371c0.792,0.084,1.663,0.688,2.357,0.13
			c0.145-0.39,0.474-0.113,0.677-0.389C16.321,6.637,16.673,6.255,16.9,6.138L16.9,6.138z"/>
		<path fill-rule="evenodd" clip-rule="evenodd" fill="#231F20" d="M23.952,7.231c0.578,0.567,0.502,1.685,0.506,2.504
			c-0.197,0.85,0.113,1.54-0.211,2.368c-0.188-1.487,0.31-3.325-0.324-4.786C23.917,7.277,23.952,7.231,23.952,7.231L23.952,7.231z"
			/>
		<path fill-rule="evenodd" clip-rule="evenodd" fill="#231F20" d="M8.542,7.745c-0.312,0.376-0.7,0.517-1.155,0.751
			C7.232,8.56,7.125,8.659,7.004,8.677C7.441,8.324,8.155,8.173,8.542,7.745L8.542,7.745z"/>
		<path fill-rule="evenodd" clip-rule="evenodd" fill="#231F20" d="M22.066,7.766c-0.004,0.779-0.429,1.213-0.835,1.767
			c-0.337,0.215-0.374,0.508-0.676,0.678c0.582-0.745,1.045-1.472,1.396-2.386C22.02,7.732,22.02,7.732,22.066,7.766L22.066,7.766z"
			/>
		<path fill-rule="evenodd" clip-rule="evenodd" fill="#231F20" d="M4.8,8.195c0.525,1.026-0.036,2.177-0.698,2.933
			c-0.128,0.226-0.348,0.136-0.518,0.367c-0.113,0.059-0.302,0.169-0.365,0.016c0.018-0.413,0.437-0.354,0.646-0.591
			c0.259,0.083,0.394-0.102,0.449-0.274C4.955,10.016,4.64,8.752,4.8,8.195L4.8,8.195z"/>
		<path fill-rule="evenodd" clip-rule="evenodd" fill="#231F20" d="M3.526,8.431C3.885,8.376,3.959,8.856,4.024,9.01
			C3.951,9.349,3.962,9.676,3.747,9.873c-0.048,0.499-0.501,0.486-0.814,0.575c-0.139-0.102-0.29-0.283-0.268-0.41
			C2.722,9.333,2.955,8.723,3.526,8.431L3.526,8.431z"/>
		<path fill-rule="evenodd" clip-rule="evenodd" fill="#231F20" d="M14.829,8.668c0.736,0.256,1.588,0.208,2.297,0.551
			c-0.165-0.016-0.351-0.151-0.471-0.133c-0.022,0.125-0.022,0.125-0.022,0.125c-0.638-0.147-1.266-0.502-2.031-0.426
			C14.682,8.772,14.749,8.68,14.829,8.668L14.829,8.668z"/>
		<path fill-rule="evenodd" clip-rule="evenodd" fill="#231F20" d="M14.281,8.834c0.193-0.071-0.103,0.139-0.194,0.071
			C14.127,8.898,14.24,8.84,14.281,8.834L14.281,8.834z"/>
		<path fill-rule="evenodd" clip-rule="evenodd" fill="#231F20" d="M13.687,8.966c0.065,0.155-0.616,0.259-0.82,0.535
			c-1.021,0.279-1.927,0.787-3.021,0.872c0.948-0.227,2.081-0.318,2.876-1.014C13.163,9.292,13.239,8.993,13.687,8.966L13.687,8.966
			z"/>
		<path fill-rule="evenodd" clip-rule="evenodd" fill="#231F20" d="M16.979,9.323c0.178,0.096,0.168,0.302,0.375,0.312
			C17.228,9.613,16.85,9.547,16.979,9.323L16.979,9.323z"/>
		<path fill-rule="evenodd" clip-rule="evenodd" fill="#231F20" d="M17.578,9.764c0.293,0.037,0.415,0.305,0.647,0.474
			C18.053,10.182,17.636,9.877,17.578,9.764L17.578,9.764z"/>
		<path fill-rule="evenodd" clip-rule="evenodd" fill="#231F20" d="M16.349,11.099c0.478,0.172,1.024,0.007,1.349,0.244
			c0.308,0.404,0.798,0.656,0.824,1.103c0.006,0.573-0.117,0.838-0.35,1.201c-0.073,0.053-0.154,0.065-0.228,0.117
			c0.234-0.077,0.219-0.443,0.354-0.628c0.116-0.592-0.078-1.053-0.368-1.337c-0.329-0.277-0.743-0.049-0.972-0.466
			C16.791,11.318,16.253,11.278,16.349,11.099L16.349,11.099z"/>
		<path fill-rule="evenodd" clip-rule="evenodd" fill="#231F20" d="M22.673,11.197c0.231,0.169,0.299,0.61,0.558,0.693
			c0.344,0.644,0.559,1.512,0.884,2.036c0.023,0.406,0.231,0.703,0.293,1.103c0.17,0.301,0.046,0.567,0.22,0.908
			c0.289,1.349,0.485,2.63,0.369,4c0.007-0.206-0.193-0.175-0.162,0.025c0.046-0.785,0.023-1.725-0.133-2.479
			c-0.293-1.39-0.563-2.864-1.118-4.091c-0.555-0.406-0.455-1.364-0.807-1.802C22.796,11.464,22.673,11.197,22.673,11.197
			L22.673,11.197z"/>
		<path fill-rule="evenodd" clip-rule="evenodd" fill="#231F20" d="M7.134,11.936c-0.068,0.092-0.256,0.203-0.408,0.267
			C6.845,12.184,6.934,11.966,7.134,11.936L7.134,11.936z"/>
		<path fill-rule="evenodd" clip-rule="evenodd" fill="#FFFFFF" d="M13.086,12.008l0.013,0.08c-0.016,0.166-0.348,0.134-0.435,0.107
			C12.732,12.103,12.926,12.033,13.086,12.008L13.086,12.008z"/>
		<path fill-rule="evenodd" clip-rule="evenodd" fill="#FFFFFF" d="M11.78,12.043c0.041-0.006,0.167,0.016,0.207,0.009
			c0.087,0.028,0.003,0.286-0.05,0.213c-0.079,0.012-0.218-0.09-0.224-0.13S11.78,12.043,11.78,12.043L11.78,12.043z"/>
		<path fill-rule="evenodd" clip-rule="evenodd" fill="#E1715C" d="M13.931,12.166c0.442,0.219,1.055,0.208,1.215,0.715
			c-0.15,0.351-0.705,0.477-1.037,0.446c-0.478-0.172-0.729-0.216-1.092-0.447C13.356,12.704,13.721,12.403,13.931,12.166
			L13.931,12.166z"/>
		<path fill-rule="evenodd" clip-rule="evenodd" fill="#FFFFFF" d="M10.46,12.246c0.08-0.012,0.166,0.016,0.246,0.003
			c0.093,0.068,0.136,0.348,0.021,0.407c-0.166-0.016-0.265-0.124-0.33-0.277C10.432,12.332,10.46,12.246,10.46,12.246L10.46,12.246
			z"/>
		<path fill-rule="evenodd" clip-rule="evenodd" fill="#231F20" d="M5.483,12.393c0.041-0.006,0.06,0.114,0.206,0.01
			c-0.391,0.388-0.92,0.141-1.388,0.294c0.121-0.265,0.48-0.073,0.814-0.289C5.284,12.423,5.351,12.332,5.483,12.393L5.483,12.393z"
			/>
		<path fill-rule="evenodd" clip-rule="evenodd" fill="#FFFFFF" d="M9.14,12.448c0.359-0.055,0.18,0.382,0.251,0.576
			c-0.189,0.111-0.351-0.151-0.495-0.292C8.864,12.531,9.059,12.46,9.14,12.448L9.14,12.448z"/>
		<path fill-rule="evenodd" clip-rule="evenodd" fill="#231F20" d="M17.795,12.517c0.216,0.335,0.015,0.899-0.281,1.108
			c-0.49,0.28-0.838,0.415-1.379,0.621c0.341-0.175,0.729-0.316,1.19-0.51c0.176-0.191,0.186-0.397,0.401-0.594
			C17.855,12.917,17.778,12.683,17.795,12.517L17.795,12.517z"/>
		<path fill-rule="evenodd" clip-rule="evenodd" fill="#231F20" d="M3.149,12.668l0.412,0.018c-0.039,0.006-0.199,0.031-0.181,0.151
			c0.138,0.102,0.205,0.009,0.298,0.077c-0.206-0.01-0.499-0.046-0.717-0.136C2.962,12.779,3.069,12.681,3.149,12.668L3.149,12.668z
			"/>
		<path fill-rule="evenodd" clip-rule="evenodd" fill="#FFFFFF" d="M7.647,12.881c0.08-0.012,0.127,0.022,0.247,0.004
			c0.046,0.033,0.129,0.307-0.026,0.372c-0.118,0.018-0.212-0.049-0.316-0.197C7.533,12.94,7.562,12.854,7.647,12.881L7.647,12.881z
			"/>
		<path fill-rule="evenodd" clip-rule="evenodd" fill="#FFFFFF" d="M9.945,12.898c0.178,0.096,0.397,0.186,0.535,0.287
			c-0.107,0.099-0.375,0.221-0.561,0.086c-0.024-0.16-0.076-0.235-0.094-0.355C9.905,12.904,9.945,12.898,9.945,12.898L9.945,12.898
			z"/>
		<path fill-rule="evenodd" clip-rule="evenodd" fill="#E1715C" d="M12.569,12.906c0.156,0.222,0.138,0.635,0.036,0.773
			c-0.326,0.008-0.773,0.036-0.925-0.146c-0.109-0.188,0.084-0.259,0.192-0.356C12.206,13.208,12.428,13.051,12.569,12.906
			L12.569,12.906z"/>
		<path fill-rule="evenodd" clip-rule="evenodd" fill="#FFFFFF" d="M6.593,13.207c0.132,0.062,0.061,0.401,0.085,0.56
			c-0.134-0.061-0.339-0.07-0.403-0.225c-0.059-0.113-0.118-0.228-0.043-0.28C6.363,13.324,6.425,13.19,6.593,13.207L6.593,13.207z"
			/>
		<path fill-rule="evenodd" clip-rule="evenodd" fill="#FFFFFF" d="M13.214,13.381c0.099,0.107,0.072,0.194,0.244,0.25
			c-0.068,0.093-0.228,0.117-0.307,0.129C13.133,13.64,13.102,13.44,13.214,13.381L13.214,13.381z"/>
		<path fill-rule="evenodd" clip-rule="evenodd" fill="#FFFFFF" d="M3.739,13.848c0.08-0.012,0.36-0.055,0.419,0.059
			c0.024,0.161,0.05,0.321,0.062,0.401c-0.188,0.111-0.363-0.231-0.468-0.379C3.739,13.848,3.739,13.848,3.739,13.848L3.739,13.848z
			"/>
		<path fill-rule="evenodd" clip-rule="evenodd" fill="#E1715C" d="M10.499,13.838c0.166,0.016,0.468-0.154,0.578,0.034
			c0.11,0.188,0.216,0.336,0.022,0.406c-0.346-0.111-0.343-0.357-0.641-0.434L10.499,13.838L10.499,13.838z"/>
		<path fill-rule="evenodd" clip-rule="evenodd" fill="#FFFFFF" d="M11.782,13.929c0.093,0.067,0.259,0.083,0.311,0.157
			c-0.021,0.127-0.142,0.146-0.296,0.209C11.712,14.268,11.709,13.981,11.782,13.929L11.782,13.929z"/>
		<path fill-rule="evenodd" clip-rule="evenodd" fill="#E1715C" d="M9.833,14.309c0.092,0.068,0.031,0.2,0.009,0.327
			c-0.206-0.01-0.563-0.201-0.444-0.219C9.473,14.364,9.64,14.379,9.833,14.309L9.833,14.309z"/>
		<path fill-rule="evenodd" clip-rule="evenodd" fill="#FFFFFF" d="M10.424,14.423c0.053,0.074,0.139,0.102,0.271,0.163
			c0.018,0.121-0.25,0.243-0.422,0.188C10.302,14.688,10.297,14.401,10.424,14.423L10.424,14.423z"/>
		<path fill-rule="evenodd" clip-rule="evenodd" fill="#E1715C" d="M8.13,14.692c0.133,0.062,0.359-0.055,0.418,0.06
			c0.024,0.16,0.097,0.354,0.009,0.326C8.459,14.97,8.075,14.865,8.13,14.692L8.13,14.692z"/>
		<path fill-rule="evenodd" clip-rule="evenodd" fill="#FFFFFF" d="M9.19,14.94c0.066,0.154,0.293,0.037,0.323,0.237
			c-0.021,0.125-0.226,0.116-0.286,0.002C9.216,15.1,9.101,14.872,9.19,14.94L9.19,14.94z"/>
		<path fill-rule="evenodd" clip-rule="evenodd" fill="#E1715C" d="M7.446,15.042c0.145,0.142,0.062,0.4,0.051,0.607
			c-0.365,0.015-0.473-0.419-0.68-0.428C7.019,15.19,7.218,15.16,7.446,15.042L7.446,15.042z"/>
		<path fill-rule="evenodd" clip-rule="evenodd" fill="#FFFFFF" d="M8.063,15.317c0.063,0.154,0.504,0.087,0.341,0.358
			c-0.034,0.046-0.235,0.077-0.321,0.049C7.99,15.656,7.941,15.335,8.063,15.317L8.063,15.317z"/>
		<path fill-rule="evenodd" clip-rule="evenodd" fill="#E1715C" d="M6.235,15.433c-0.028,0.087,0.17,0.302,0.015,0.367
			c-0.12,0.018-0.126-0.022-0.171-0.055C6.026,15.669,6.217,15.313,6.235,15.433L6.235,15.433z"/>
		<path fill-rule="evenodd" clip-rule="evenodd" fill="#231F20" d="M19.304,15.687c0.478,0.173,0.632,0.642,0.967,0.958
			c0.251,1.109,0.805,2.049,0.917,3.056c0.472,0.665,0.413,1.617,0.683,2.313c0.232,1.521,0.229,2.833,0.369,4.287
			c-0.23-1.234-0.082-2.405-0.465-3.576c-0.136-0.348-0.145-0.674-0.308-0.936c-0.129-0.841-0.324-1.589-0.641-2.32
			c-0.141-0.92-0.591-1.712-0.852-2.615c-0.296-0.324-0.557-0.693-0.727-0.995C19.23,15.739,19.264,15.693,19.304,15.687
			L19.304,15.687z"/>
		<path fill-rule="evenodd" clip-rule="evenodd" fill="#FFFFFF" d="M5.484,15.875c0.213,0.049,0.431,0.139,0.507,0.373
			c-0.107,0.099-0.388,0.142-0.526,0.04c-0.031-0.2-0.192-0.462,0.007-0.493L5.484,15.875L5.484,15.875z"/>
		<path fill-rule="evenodd" clip-rule="evenodd" fill="#FFFFFF" d="M6.835,15.874c0.046,0.034,0.168,0.016,0.22,0.09
			c-0.062,0.132-0.229,0.117-0.247-0.004C6.795,15.88,6.771,15.72,6.835,15.874L6.835,15.874z"/>
		<path fill-rule="evenodd" clip-rule="evenodd" fill="#231F20" d="M29.107,17.629c0.372,0.024,0.847-0.089,1.136,0.194
			c-1.01-0.173-1.823,0.402-2.575,0.844c-0.345,0.421-1.021,0.566-1.165,0.957c-0.215,0.197-0.426,0.435-0.474,0.646
			c-0.09-0.314,0.412-0.514,0.489-0.813c0.09-0.218,0.227-0.401,0.286-0.535c0.473-0.399,0.859-0.541,1.132-0.91
			C28.353,17.785,28.766,17.804,29.107,17.629L29.107,17.629z"/>
		<path fill-rule="evenodd" clip-rule="evenodd" fill="#231F20" d="M36.862,22.793c0.49,0.252,0.811,0.736,1.237,1.122
			c0.514,0.945,0.999,1.979,0.885,3.102c-0.037,0.292-0.046,0.498-0.13,0.756c-0.222-0.375,0.083-0.791-0.149-1.246
			c0.003-0.78-0.215-1.403-0.541-1.925c-0.215-0.336-0.356-0.725-0.708-0.875c-0.101-0.395-0.564-0.487-0.655-0.801
			C36.85,22.712,36.823,22.799,36.862,22.793L36.862,22.793z"/>
		<path fill-rule="evenodd" clip-rule="evenodd" fill="#231F20" d="M30.928,27.921c0.239,1.028,0.005,2.171-0.288,3.199
			c-0.272,0.901-0.59,1.77-1.06,2.455c-0.021-0.406,0.337-0.747,0.356-1.159C30.481,30.898,30.798,29.211,30.928,27.921
			L30.928,27.921z"/>
		<path fill-rule="evenodd" clip-rule="evenodd" fill="#231F20" d="M53.683,33.904c0.086,0.028,0.273-0.083,0.298,0.078
			c-0.434,0.107-0.671,0.43-1.133,0.624c-0.524,0.326-0.796,0.695-1.272,1.055c-0.034,0.046-0.067,0.093-0.102,0.138
			c0.377-0.753,0.965-1.458,1.775-1.787C53.421,34.068,53.603,33.916,53.683,33.904L53.683,33.904z"/>
		<path fill-rule="evenodd" clip-rule="evenodd" fill="#231F20" d="M53.866,34.573c-0.15,0.35-1.127,0.664-1.447,1.246
			c-0.749,0.729-1.354,1.6-1.744,2.52c-0.111,0.345-0.347,0.422-0.377,0.755c0.07-0.339,0.234-0.609,0.271-0.902
			c0.277-0.862,0.776-1.348,1.239-2.074c0.413-0.514,0.906-1.041,1.551-1.385C53.604,34.736,53.627,34.61,53.866,34.573
			L53.866,34.573z"/>
		<path fill-rule="evenodd" clip-rule="evenodd" fill="#231F20" d="M28.853,38.195c0.347,0.111,0.441,0.465,0.752,0.622
			c0.421,0.345,0.631,0.642,0.886,0.972c0.182,0.381,0.413,0.551,0.593,0.933c0.382,0.353,0.638,0.682,0.939,1.044
			c0.338,0.604,0.805,0.984,1.07,1.64c0.329,0.278,0.27,0.697,0.559,0.979c0.24,0.497,0.549,0.901,0.782,1.356
			c0.147,0.428,0.504,0.619,0.646,1.007c0.379,0.598,0.67,1.168,1.109,1.633c0.312,0.69,0.665,1.127,0.997,1.691
			c0.324,0.238,0.34,0.604,0.616,0.808c0.238,0.497,0.58,0.854,0.848,1.263c0.909,0.845,1.755,1.821,2.768,2.281
			c0.308,0.404,0.813,0.49,1.021,0.787c0.438,0.179,0.692,0.509,1.016,0.746c0.434,0.425,0.785,0.576,1.186,1.047
			c-0.168-0.015-0.398-0.185-0.656-0.268c-0.229-0.416-0.646-0.474-0.822-0.816c-0.431-0.139-0.612-0.521-0.957-0.632
			c-0.429-0.385-1.02-0.5-1.333-0.944c-0.431-0.139-0.474-0.419-0.824-0.57c-0.739-0.542-1.163-1.174-1.729-1.662
			c-0.49-0.785-1.047-1.479-1.542-2.303c-0.26-0.37-0.502-0.866-0.79-1.149c-0.062-0.4-0.406-0.512-0.542-0.859
			c-0.285-0.53-0.667-0.882-0.879-1.464c-0.497-0.579-0.764-1.235-1.147-1.873c-0.421-0.878-0.836-1.716-1.484-2.477
			c-0.46-0.585-0.991-1.12-1.409-1.71c-0.364-0.231-0.379-0.598-0.667-0.882c-0.173-0.588-0.604-0.727-1.06-1.025
			C28.808,38.161,28.858,38.235,28.853,38.195L28.853,38.195z"/>
		<path fill-rule="evenodd" clip-rule="evenodd" fill="#231F20" d="M52.241,38.672c0.377,1.131-0.064,2.263-0.139,3.381
			C52.27,41.004,52.255,39.572,52.241,38.672L52.241,38.672z"/>
		<path fill-rule="evenodd" clip-rule="evenodd" fill="#231F20" d="M41.074,48.167c0.603,0.194,0.928,0.718,1.452,0.924
			c0.349,0.397,0.777,0.537,0.966,0.958c0.312,0.157,0.536,0.287,0.618,0.561c-0.18-0.381-0.626-0.355-0.889-0.724
			C42.53,49.378,41.687,48.688,41.074,48.167L41.074,48.167z"/>
		<path fill-rule="evenodd" clip-rule="evenodd" fill="#231F20" d="M26.904,49.556c0.108,0.435,0.471,0.666,0.686,1.002
			c-0.116-0.229-0.462-0.339-0.59-0.647c-0.065-0.154-0.203-0.255-0.143-0.388L26.904,49.556L26.904,49.556z"/>
		<path fill-rule="evenodd" clip-rule="evenodd" fill="#231F20" d="M47.32,50.694c0.242,0.25,0.344,0.644,0.546,0.899
			c0.203,0.255,0.253,0.576,0.444,0.752c0.298,0.61,0.657,1.088,0.796,1.722c0.209,0.296,0.166,0.549,0.335,0.851
			c0.062,0.4,0.098,0.641,0.192,0.995c0.01,0.325,0.127,0.554,0.077,0.766c-0.303-0.363-0.285-1.062-0.52-1.519
			c-0.199-1.035-0.786-1.928-1.048-2.83c-0.23-0.17-0.307-0.404-0.379-0.598C47.618,51.303,47.196,50.958,47.32,50.694L47.32,50.694
			z"/>
		<path fill-rule="evenodd" clip-rule="evenodd" fill="#231F20" d="M66.222,51.039c0.896,1.584,1.507,3.702,0.983,5.626
			c-0.087,0.506-0.199,0.851-0.244,1.349c-0.519,1.432-1.007,2.53-1.624,3.854c0.131-1.289,0.947-2.644,1.285-3.924
			c0.117-0.306,0.087-0.505,0.21-0.77c0.809-2.213-0.203-4.271-0.704-6.203L66.222,51.039L66.222,51.039z"/>
		<path fill-rule="evenodd" clip-rule="evenodd" fill="#231F20" d="M56.476,53.227c-0.226,2-0.487,4.048-0.667,6.084
			C55.915,57.328,56.197,55.154,56.476,53.227L56.476,53.227z"/>
		<path fill-rule="evenodd" clip-rule="evenodd" fill="#231F20" d="M44.647,56.266c0.466,0.092,0.58,0.567,0.936,0.758
			c0.395,0.432,0.724,0.708,1.073,1.106c0.216,0.089,0.347,0.397,0.552,0.407c0.075-0.053-0.024-0.16-0.076-0.234
			c0.486-0.033,0.686,0.468,0.971,0.712c0.268,0.409,0.59,0.647,0.731,1.036c-0.17-0.303-0.434-0.427-0.683-0.716
			c-0.352-0.151-0.426-0.632-0.786-0.577c0.059,0.115-0.083,0.259-0.181,0.151c-0.612-0.521-1.06-1.026-1.639-1.594
			C45.284,56.947,44.669,56.672,44.647,56.266L44.647,56.266z"/>
		<path fill-rule="evenodd" clip-rule="evenodd" fill="#231F20" d="M56.36,58.366c-0.263,1.229-0.181,2.568-0.312,3.857
			C56.1,60.946,56.058,59.601,56.36,58.366L56.36,58.366z"/>
		<polygon fill-rule="evenodd" clip-rule="evenodd" fill="#231F20" points="55.75,59.729 55.75,60.795 55.75,59.729 		"/>
		<path fill-rule="evenodd" clip-rule="evenodd" fill="#231F20" d="M56.048,62.47l-0.016,2.584
			C55.829,64.265,56.015,63.335,56.048,62.47L56.048,62.47z"/>
		<path fill-rule="evenodd" clip-rule="evenodd" fill="#231F20" d="M64.979,63.807c0.055,0.361-0.137,0.718-0.189,1.177
			c-0.176,0.19-0.099,0.425-0.253,0.489c-0.108-0.434,0.28-1.107,0.361-1.653C64.932,63.774,64.979,63.807,64.979,63.807
			L64.979,63.807z"/>
		<path fill-rule="evenodd" clip-rule="evenodd" fill="#231F20" d="M39.236,65.083c0.117,0.228-0.238,0.569-0.043,0.784
			c0.166,0.017,0.246,0.004,0.286-0.002c0.333,0.564-0.377,1.287-0.045,1.851c-0.006,0.493-0.068,1.158-0.312,1.441
			c-0.034-0.486-0.455-0.832-0.142-1.454c-0.122-0.268-0.119-0.514-0.184-0.668c-0.193,0.07-0.156,0.311-0.259,0.449
			c-0.037-0.772,0.466-1.506,0.551-2.296C39.11,65.062,39.19,65.049,39.236,65.083L39.236,65.083z"/>
		<path fill-rule="evenodd" clip-rule="evenodd" fill="#231F20" d="M34.58,66.247c0.402,0.225,0.485,0.5,0.621,0.848
			c0.19,0.709,0.334,1.383,0.14,1.986c0.026-0.905-0.168-1.9-0.689-2.641C34.599,66.368,34.488,66.179,34.58,66.247L34.58,66.247z"
			/>
		<path fill-rule="evenodd" clip-rule="evenodd" fill="#231F20" d="M53.143,66.521c0.301,0.362,0.529,0.779,0.644,1.253
			c0.161,0.795,0.251,1.642,0.287,2.415c0.034-0.579-0.064-1.22-0.189-1.774C53.807,67.647,53.435,67.091,53.143,66.521
			L53.143,66.521z"/>
		<path fill-rule="evenodd" clip-rule="evenodd" fill="#231F20" d="M54.69,67.799c0.145,0.142,0.215,0.336,0.332,0.565
			c0.107,0.966,0.284,2.126-0.265,2.825c-0.096-0.354-0.008-0.859,0.09-1.284c0.284-0.288,0.159-0.843,0.057-1.237
			C54.662,68.42,54.675,67.965,54.69,67.799L54.69,67.799z"/>
		<path fill-rule="evenodd" clip-rule="evenodd" fill="#231F20" d="M36.641,69.004c0.003,0.287-0.043,0.785-0.26,0.982
			c-0.128,0.225-0.231,0.362-0.517,0.366c-0.366,0.014-0.647,0.057-0.885-0.151c-0.149-0.183-0.441-0.219-0.553-0.408
			c0.461-0.192,1.053,0.453,1.61,0.082C36.412,69.655,36.395,69.001,36.641,69.004L36.641,69.004z"/>
		<path fill-rule="evenodd" clip-rule="evenodd" fill="#231F20" d="M37.45,69.209c0.101,0.393-0.13,0.756-0.274,1.146
			c-0.425,0.435-0.712,0.971-1.329,1.229c0.543-0.205,0.945-0.801,1.277-1.302C37.32,69.965,37.257,69.279,37.45,69.209
			L37.45,69.209z"/>
		<path fill-rule="evenodd" clip-rule="evenodd" fill="#231F20" d="M65.347,69.693c0.219,0.089-0.192,0.356-0.207,0.523
			c-0.576,0.252-0.812,0.861-1.451,0.959c0.339-0.46,0.961-0.679,1.362-1.273C65.17,69.883,65.22,69.67,65.347,69.693L65.347,69.693
			z"/>
		<path fill-rule="evenodd" clip-rule="evenodd" fill="#231F20" d="M41.63,70.002c0.144,0.143,0.238,0.497,0.469,0.666
			c0.154,0.469,0.389,0.924,0.609,1.301c0.335,0.85,0.647,1.826,0.623,2.731c-0.397-0.718-0.303-1.716-0.774-2.382
			c-0.329-0.809-0.817-1.596-1.075-2.211C41.577,69.93,41.548,70.016,41.63,70.002L41.63,70.002z"/>
		<path fill-rule="evenodd" clip-rule="evenodd" fill="#231F20" d="M65.484,70.327c-0.173,0.479-0.531,0.82-1.014,1.139
			c-0.097-0.354,0.474-0.646,0.593-0.95C65.256,70.445,65.324,70.352,65.484,70.327L65.484,70.327z"/>
		<path fill-rule="evenodd" clip-rule="evenodd" fill="#231F20" d="M65.528,72.493c-0.042,0.783,0.032,1.551-0.131,2.355
			c-0.316-0.73,0.014-1.518,0.012-2.338C65.448,72.504,65.521,72.452,65.528,72.493L65.528,72.493z"/>
		<path fill-rule="evenodd" clip-rule="evenodd" fill="#231F20" d="M60.478,73.756c0.111,0.188-0.371,0.262-0.287,0.536
			c-0.997,0.44-2.141,0.205-3.116-0.015c-0.046-0.034-0.052-0.074-0.052-0.074c0.765-0.363,1.487,0.346,2.275,0.143
			C59.62,74.051,60.24,74.079,60.478,73.756L60.478,73.756z"/>
		<path fill-rule="evenodd" clip-rule="evenodd" fill="#231F20" d="M59.022,76.561c0.365,0.518,0.543,1.146,0.883,1.75
			c0.725,1.527,1.363,3.027,2.185,4.377c0.271,0.696,0.75,1.156,1.003,1.732c0.178,0.095,0.243,0.249,0.279,0.488
			c-0.428-0.384-0.748-0.868-1.119-1.426c-0.096-0.354-0.332-0.563-0.46-0.872c-0.796-1.435-1.436-2.935-2.174-4.298
			C59.479,77.679,58.929,77.026,59.022,76.561L59.022,76.561z"/>
		<path fill-rule="evenodd" clip-rule="evenodd" fill="#231F20" d="M40.229,83.616c0.739,0.01,1.447,0.353,1.82,0.91
			c-0.468-0.379-1.108-0.814-1.808-0.83c-0.047-0.033-0.059-0.113-0.059-0.113L40.229,83.616L40.229,83.616z"/>
		<path fill-rule="evenodd" clip-rule="evenodd" fill="#231F20" d="M40.512,84.924c0.402,0.225,0.852,0.484,1.227,0.797
			c-0.471-0.134-0.759-0.418-1.122-0.648C40.483,85.01,40.385,84.905,40.512,84.924L40.512,84.924z"/>
		<path fill-rule="evenodd" clip-rule="evenodd" fill="#231F20" d="M40.259,87.299c0.491,0.252,0.952,0.592,1.568,0.865
			C41.275,88.045,40.556,87.622,40.259,87.299L40.259,87.299z"/>
		<path fill-rule="evenodd" clip-rule="evenodd" fill="#231F20" d="M68.432,90.118l0.079-0.013c-0.107,0.099-0.234,0.077-0.4,0.062
			C68.236,90.189,68.351,90.129,68.432,90.118L68.432,90.118z"/>
		<path fill-rule="evenodd" clip-rule="evenodd" fill="#231F20" d="M70.548,92.17c-0.223,0.157-0.259,0.449-0.532,0.532
			c0.147-0.104,0.185-0.397,0.425-0.435C70.508,92.177,70.569,92.045,70.548,92.17L70.548,92.17z"/>
		<path fill-rule="evenodd" clip-rule="evenodd" fill="#231F20" d="M69.654,92.758c0.086,0.027-0.377,0.222-0.517,0.365
			c-0.497,0.24-1.119,0.457-1.602,0.246C68.372,93.487,68.97,93.109,69.654,92.758L69.654,92.758z"/>
		<path fill-rule="evenodd" clip-rule="evenodd" fill="#231F20" d="M69.86,94.366c0.125,0.021,0.318-0.049,0.463,0.092
			c-0.671,0.432-1.692,0.177-2.516,0.426C68.471,94.659,69.366,94.891,69.86,94.366L69.86,94.366z"/>
		<path fill-rule="evenodd" clip-rule="evenodd" fill="#231F20" d="M70.132,96.413c0.127,0.023,0.32-0.049,0.46,0.053
			c-0.103,0.139-0.361,0.056-0.454-0.012C70.091,96.418,70.132,96.413,70.132,96.413L70.132,96.413z"/>
		<path fill-rule="evenodd" clip-rule="evenodd" fill="#231F20" d="M52.826,42.23c-0.332,1.035-0.626,2.062-0.988,3.182
			C52.138,44.425,52.341,43.083,52.826,42.23L52.826,42.23z"/>
		<path fill-rule="evenodd" clip-rule="evenodd" fill="#231F20" d="M51.808,45.746c0.013,0.081-0.017,0.167-0.044,0.252
			C51.718,45.964,51.727,45.758,51.808,45.746L51.808,45.746z"/>
		<path fill-rule="evenodd" clip-rule="evenodd" fill="#231F20" d="M51.681,46.257c-0.078,0.299-0.087,0.505-0.21,0.769
			C51.56,46.809,51.517,46.528,51.681,46.257L51.681,46.257z"/>
		<path fill-rule="evenodd" clip-rule="evenodd" fill="#231F20" d="M51.393,47.325c-0.045,0.5-0.22,0.976-0.352,1.448
			C51.101,48.354,51.329,47.704,51.393,47.325L51.393,47.325z"/>
	</g>
	<path fill-rule="evenodd" clip-rule="evenodd" fill="#9A9E91" d="M16.283,0.496c-2.022-0.1-3.729,0.53-5.304,1.222
		C9.901,2.17,8.743,3.167,7.717,3.692C7.295,3.88,8.979,2.843,9.335,2.749c2.686-1.189,6.384-2.453,9.377-1.64
		c0.12-0.018,0.271,0.164,0.397,0.185C18.986,0.493,16.908,0.565,16.283,0.496L16.283,0.496z"/>
</g>
</svg>
