<?xml version="1.0" encoding="utf-8"?>
<!-- Generator: Adobe Illustrator 16.0.0, SVG Export Plug-In . SVG Version: 6.00 Build 0)  -->
<!DOCTYPE svg PUBLIC "-//W3C//DTD SVG 1.1//EN" "http://www.w3.org/Graphics/SVG/1.1/DTD/svg11.dtd">
<svg version="1.1" id="Layer_1" xmlns="http://www.w3.org/2000/svg" xmlns:xlink="http://www.w3.org/1999/xlink" x="0px" y="0px"
	 width="204.75px" height="191.938px" viewBox="0 0 204.75 191.938" enable-background="new 0 0 204.75 191.938"
	 xml:space="preserve">
<g>
	<polygon fill="#FFFFFF" points="51.929,156.576 45.877,156.576 42.363,156.576 37.743,156.576 34.23,156.576 29.611,156.576 
		26.098,156.576 21.479,156.576 17.965,156.576 11.992,156.576 11.992,159.049 17.965,159.049 17.965,190.516 21.479,190.516 
		21.479,159.049 26.098,159.049 26.098,190.516 29.611,190.516 29.611,159.049 34.23,159.049 34.23,190.516 37.743,190.516 
		37.743,159.049 42.363,159.049 42.363,190.516 45.877,190.516 45.877,159.049 51.929,159.049 	"/>
	<polygon fill="#8D3F38" points="204.75,44.837 204.75,51.005 126.439,6.168 45.07,51.005 45.07,44.837 126.439,0 	"/>
	<polygon fill="#FFFFFF" points="197.891,191.938 51.929,191.938 51.929,47.124 126.307,6.137 197.891,47.124 	"/>
	<rect x="9.767" y="115.526" fill="#FFDEA9" width="4.451" height="69.239"/>
	<path fill="#8D3F38" d="M52.107,117.506H4.629l0,0c0-4.37,2.547-8.339,6.519-10.16l40.96-18.772V117.506z"/>
	<polygon fill="#BABCBE" points="61.578,46.105 126.123,10.538 188.241,46.105 	"/>
	<polygon fill="#A3A5A7" points="188.242,46.105 61.577,46.105 66.694,43.287 183.317,43.287 	"/>
	<path fill="#C5C6C8" d="M52.107,191.938H0l0,0c0-3.961,3.211-7.172,7.171-7.172h44.937V191.938z"/>
	<rect x="55.697" y="49.393" fill="#ABD0DB" width="47.202" height="64.294"/>
	<rect x="143.73" y="116.517" fill="#ABD0DB" width="50.198" height="65.776"/>
	<polygon fill="#99B9C3" points="177.267,122.375 177.056,122.375 160.604,122.375 160.393,122.375 143.73,122.375 143.73,142.833 
		160.393,142.833 160.604,142.833 177.056,142.833 177.267,142.833 193.929,142.833 193.929,122.375 	"/>
	<rect x="143.73" y="119.557" fill="#FFDC95" width="16.873" height="20.458"/>
	<rect x="145.14" y="120.966" fill="#FFF4B0" width="14.056" height="17.639"/>
	<rect x="160.393" y="119.557" fill="#FFDC95" width="16.874" height="20.458"/>
	<rect x="161.803" y="120.966" fill="#FFF4B0" width="14.054" height="17.639"/>
	<path fill="#F6B580" d="M164.546,128.376c-0.534,0.024-0.986,0.434-0.986,0.986v0.141c0,0.517,0.453,1.011,0.986,0.987
		c0.534-0.023,0.987-0.434,0.987-0.987v-0.141C165.533,128.847,165.079,128.352,164.546,128.376z"/>
	<rect x="177.056" y="119.557" fill="#FFDC95" width="16.873" height="20.458"/>
	<rect x="143.729" y="156.702" fill="#CADFEA" width="50.198" height="20.457"/>
	<rect x="145.14" y="159.809" fill="#B1C5CF" width="12.629" height="15.384"/>
	<rect x="159.563" y="159.809" fill="#B1C5CF" width="12.629" height="15.384"/>
	<rect x="174.965" y="159.809" fill="#B1C5CF" width="12.628" height="15.384"/>
	<rect x="189.387" y="159.809" fill="#B1C5CF" width="4.541" height="15.383"/>
	<polygon fill="#7A969F" points="177.267,156.702 177.056,156.702 160.604,156.702 160.393,156.702 143.73,156.702 143.73,158.326 
		160.393,158.326 160.604,158.326 177.056,158.326 177.267,158.326 193.929,158.326 193.929,156.702 	"/>
	<rect x="178.546" y="120.966" fill="#FFF4B0" width="14.056" height="17.639"/>
	<rect x="106.716" y="49.394" fill="#FDBF7A" width="87.213" height="64.293"/>
	<g>
		<rect x="112.054" y="116.517" fill="#DB8352" width="28.652" height="65.776"/>
		<rect x="116.779" y="116.517" fill="#A73D2A" width="19.201" height="65.776"/>
		<g>
			<rect x="112.054" y="124.429" fill="#D0D2D3" width="28.652" height="1.462"/>
			<rect x="112.054" y="134.436" fill="#D0D2D3" width="28.652" height="1.463"/>
			<rect x="112.054" y="144.442" fill="#D0D2D3" width="28.652" height="1.462"/>
			<rect x="112.054" y="154.448" fill="#D0D2D3" width="28.652" height="1.462"/>
			<rect x="112.054" y="164.455" fill="#D0D2D3" width="28.652" height="1.462"/>
			<rect x="112.054" y="174.461" fill="#D0D2D3" width="28.652" height="1.463"/>
		</g>
		<rect x="112.054" y="116.517" fill="#7D3824" width="2.349" height="65.776"/>
		<rect x="138.357" y="116.517" fill="#7D3824" width="2.349" height="65.776"/>
	</g>
	<g>
		<rect x="55.698" y="116.517" fill="#AE99C0" width="53.046" height="65.776"/>
		<g opacity="0.17">
			<rect x="58.92" y="116.517" fill="#FFFFFF" width="5.218" height="65.776"/>
			<rect x="69.188" y="116.517" fill="#FFFFFF" width="5.219" height="65.776"/>
			<rect x="79.456" y="116.517" fill="#FFFFFF" width="5.218" height="65.776"/>
			<rect x="89.725" y="116.517" fill="#FFFFFF" width="5.218" height="65.776"/>
			<rect x="99.993" y="116.517" fill="#FFFFFF" width="5.218" height="65.776"/>
		</g>
		<rect x="55.698" y="176.973" fill="#96879F" width="53.046" height="5.32"/>
	</g>
	<rect x="57.796" y="139.88" fill="#7D3824" width="17.191" height="39.856"/>
	<rect x="143.73" y="176.973" fill="#87A09A" width="50.198" height="5.32"/>
	<g>
		<g>
			<rect x="159.366" y="160.496" fill="#FDF9C8" width="19.387" height="3.38"/>
			<rect x="159.366" y="168.952" fill="#FDF9C8" width="19.387" height="0.977"/>
			<rect x="159.366" y="161.702" fill="#FDF9C8" width="1.782" height="17.961"/>
			<rect x="176.967" y="161.702" fill="#FDF9C8" width="1.786" height="17.961"/>
		</g>
		<g>
			<rect x="147.253" y="166.549" fill="#7A969F" width="10.125" height="2.403"/>
			<rect x="180.511" y="165.422" fill="#7A969F" width="10.126" height="2.402"/>
			<rect x="180.511" y="166.83" fill="#FFFFFF" width="10.126" height="2.122"/>
			<rect x="147.253" y="167.958" fill="#FDF9C8" width="10.125" height="2.121"/>
			<rect x="147.253" y="169.019" fill="#FDF9C8" width="1.415" height="10.63"/>
			<rect x="147.253" y="152.699" fill="#FDF9C8" width="1.415" height="16.27"/>
			<rect x="155.964" y="169.019" fill="#FDF9C8" width="1.414" height="10.63"/>
		</g>
		<g>
			<rect x="189.221" y="169.019" fill="#FDF9C8" width="1.416" height="10.63"/>
			<rect x="189.221" y="152.699" fill="#FDF9C8" width="1.416" height="16.27"/>
			<rect x="180.511" y="169.019" fill="#FDF9C8" width="1.415" height="10.63"/>
		</g>
	</g>
	<g>
		<rect x="168.488" y="116.517" fill="#888A8D" width="0.799" height="13.269"/>
		<path fill="#6F8992" d="M161.959,135.167c-0.226,0-0.413-0.187-0.402-0.413c0.194-4.233,3.377-7.601,7.272-7.601
			c3.896,0,7.079,3.367,7.273,7.601c0.011,0.227-0.177,0.413-0.403,0.413H161.959z"/>
	</g>
	<g opacity="0.14">
		<path fill="#FFFFFF" d="M102.899,54.847v-1.254h-1.932v-4.2h-1.254v4.2H93.98v-4.2h-1.256v4.2h-5.73v-4.2h-1.255v4.2h-5.733v-4.2
			h-1.252v4.2H73.02v-4.2h-1.254v4.2h-5.733v-4.2H64.78v4.2h-5.733v-4.2h-1.256v4.2h-2.094v1.254h2.094v5.734h-2.094v1.251h2.094
			v5.735h-2.094v1.254h2.094v5.73h-2.094v1.255h2.094v5.734h-2.094v1.255h2.094v5.73h-2.094v1.254h2.094v5.733h-2.094v1.659h2.094
			v5.733h-2.094v1.251h2.094v5.734h-2.094v1.255h2.094v2.54h1.256v-2.54h5.733v2.54h1.252v-2.54h5.733v2.54h1.254v-2.54h5.734v2.54
			h1.252v-2.54h5.733v2.54h1.255v-2.54h5.73v2.54h1.256v-2.54h5.733v2.54h1.254v-2.54h1.932v-1.255h-1.932v-5.734h1.932v-1.251
			h-1.932v-5.733h1.932v-1.659h-1.932V89.78h1.932v-1.254h-1.932v-5.73h1.932v-1.255h-1.932v-5.734h1.932v-1.255h-1.932v-5.73h1.932
			v-1.254h-1.932v-5.735h1.932v-1.251h-1.932v-5.734H102.899z M64.78,109.892h-5.733v-5.734h5.733V109.892z M64.78,102.906h-5.733
			v-5.733h5.733V102.906z M64.78,95.514h-5.733V89.78h5.733V95.514z M64.78,88.526h-5.733v-5.73h5.733V88.526z M64.78,81.541h-5.733
			v-5.734h5.733V81.541z M64.78,74.552h-5.733v-5.73h5.733V74.552z M64.78,67.567h-5.733v-5.735h5.733V67.567z M64.78,60.581h-5.733
			v-5.734h5.733V60.581z M71.766,109.892h-5.733v-5.734h5.733V109.892z M71.766,102.906h-5.733v-5.733h5.733V102.906z
			 M71.766,95.514h-5.733V89.78h5.733V95.514z M71.766,88.526h-5.733v-5.73h5.733V88.526z M71.766,81.541h-5.733v-5.734h5.733
			V81.541z M71.766,74.552h-5.733v-5.73h5.733V74.552z M71.766,67.567h-5.733v-5.735h5.733V67.567z M71.766,60.581h-5.733v-5.734
			h5.733V60.581z M78.754,109.892H73.02v-5.734h5.734V109.892z M78.754,102.906H73.02v-5.733h5.734V102.906z M78.754,95.514H73.02
			V89.78h5.734V95.514z M78.754,88.526H73.02v-5.73h5.734V88.526z M78.754,81.541H73.02v-5.734h5.734V81.541z M78.754,74.552H73.02
			v-5.73h5.734V74.552z M78.754,67.567H73.02v-5.735h5.734V67.567z M78.754,60.581H73.02v-5.734h5.734V60.581z M85.739,109.892
			h-5.733v-5.734h5.733V109.892z M85.739,102.906h-5.733v-5.733h5.733V102.906z M85.739,95.514h-5.733V89.78h5.733V95.514z
			 M85.739,88.526h-5.733v-5.73h5.733V88.526z M85.739,81.541h-5.733v-5.734h5.733V81.541z M85.739,74.552h-5.733v-5.73h5.733
			V74.552z M85.739,67.567h-5.733v-5.735h5.733V67.567z M85.739,60.581h-5.733v-5.734h5.733V60.581z M92.725,109.892h-5.73v-5.734
			h5.73V109.892z M92.725,102.906h-5.73v-5.733h5.73V102.906z M92.725,95.514h-5.73V89.78h5.73V95.514z M92.725,88.526h-5.73v-5.73
			h5.73V88.526z M92.725,81.541h-5.73v-5.734h5.73V81.541z M92.725,74.552h-5.73v-5.73h5.73V74.552z M92.725,67.567h-5.73v-5.735
			h5.73V67.567z M92.725,60.581h-5.73v-5.734h5.73V60.581z M99.714,109.892H93.98v-5.734h5.733V109.892z M99.714,102.906H93.98
			v-5.733h5.733V102.906z M99.714,95.514H93.98V89.78h5.733V95.514z M99.714,88.526H93.98v-5.73h5.733V88.526z M99.714,81.541H93.98
			v-5.734h5.733V81.541z M99.714,74.552H93.98v-5.73h5.733V74.552z M99.714,67.567H93.98v-5.735h5.733V67.567z M99.714,60.581H93.98
			v-5.734h5.733V60.581z"/>
	</g>
	<rect x="55.697" y="109.112" fill="#87A5AF" width="47.202" height="4.574"/>
	<rect x="106.716" y="108.361" fill="#D5783F" width="87.213" height="5.325"/>
	<rect x="112.054" y="100.039" fill="#7D3824" width="2.349" height="13.647"/>
	<rect x="138.357" y="100.039" fill="#7D3824" width="2.349" height="13.647"/>
	<g>
		<g>
			<rect x="57.796" y="82.796" fill="#FDF9C8" width="3.503" height="13.012"/>
			<g>
				<path fill="#A1B0C3" d="M61.299,95.808v-2.503H71.81c1.382,0,2.502,1.12,2.502,2.503l0,0H61.299z"/>
			</g>
			<path fill="#FDF9C8" d="M61.299,102.313l-3.503-6.506h16.516l0,0c0,3.593-2.913,6.506-6.506,6.506H61.299z"/>
			<polygon fill="#FDF9C8" points="70.434,110.853 61.299,110.853 61.299,98.073 67.681,98.073 			"/>
		</g>
	</g>
	<path fill="#F2F2F2" d="M95.293,55.231h-3.63v-5.839h-1.804v5.839h-3.63c-0.485,0-0.88,0.395-0.88,0.88s0.395,0.88,0.88,0.88h9.063
		c0.485,0,0.879-0.395,0.879-0.88S95.778,55.231,95.293,55.231z"/>
	<ellipse fill="#6F8992" cx="93.776" cy="111.24" rx="3.108" ry="1.349"/>
	<g>
		<path fill="#6F8992" d="M81.366,68.821h-17.76c-0.386,0-0.698-0.313-0.698-0.699v-7.409c0-0.386,0.313-0.698,0.698-0.698h17.76
			c0.387,0,0.699,0.313,0.699,0.698v7.409C82.065,68.508,81.753,68.821,81.366,68.821z"/>
		<path fill="#FFFFFF" d="M64.318,66.899v-4.963c0-0.386,0.313-0.699,0.698-0.699h14.94c0.387,0,0.698,0.313,0.698,0.699v4.963
			c0,0.386-0.312,0.698-0.698,0.698h-14.94C64.631,67.598,64.318,67.285,64.318,66.899z"/>
	</g>
	<g>
		<g>
			<path fill="#5B5C5E" d="M184.482,86.833h-29.24c-0.523,0-0.946-0.423-0.946-0.946V66.024c0-0.522,0.423-0.946,0.946-0.946h29.24
				c0.522,0,0.946,0.424,0.946,0.946v19.862C185.429,86.41,185.005,86.833,184.482,86.833z"/>
			<path fill="#373536" d="M182.929,68.418v15.075c0,0.465-0.378,0.839-0.84,0.839h-24.451c-0.466,0-0.841-0.374-0.841-0.839V68.418
				c0-0.465,0.375-0.839,0.841-0.839h24.451c0.178,0,0.34,0.052,0.476,0.147C182.784,67.876,182.929,68.131,182.929,68.418z"/>
			<path opacity="0.08" fill="#FFFFFF" d="M177.697,67.579l-19.303,16.753h-0.757c-0.466,0-0.841-0.374-0.841-0.839v-1.771
				l16.297-14.143H177.697z"/>
			<path opacity="0.08" fill="#FFFFFF" d="M182.929,68.418v0.991l-17.194,14.923h-2.303l19.133-16.605
				C182.784,67.876,182.929,68.131,182.929,68.418z"/>
		</g>
		<rect x="168.361" y="84.488" fill="#5B5C5E" width="3.001" height="7.781"/>
		<path fill="#5B5C5E" d="M178.23,92.27h-15.689c-0.381,0-0.689-0.309-0.689-0.689l0,0c0-0.38,0.309-0.688,0.689-0.688h15.689
			c0.38,0,0.688,0.309,0.688,0.688l0,0C178.919,91.961,178.61,92.27,178.23,92.27z"/>
	</g>
	<path fill="#B35B32" d="M192.02,108.361h-43.352V93.005c0-0.585,0.474-1.06,1.059-1.06h41.234c0.585,0,1.059,0.475,1.059,1.06
		V108.361z"/>
	<path fill="#CE7241" d="M168.085,106.105H153.29c-0.538,0-0.974-0.437-0.974-0.975v-8.642c0-0.538,0.436-0.976,0.974-0.976h14.795
		c0.538,0,0.975,0.438,0.975,0.976v8.642C169.06,105.669,168.623,106.105,168.085,106.105z"/>
	<path fill="#CE7241" d="M188.615,106.105H173.82c-0.538,0-0.974-0.437-0.974-0.975v-8.642c0-0.538,0.436-0.976,0.974-0.976h14.795
		c0.539,0,0.975,0.438,0.975,0.976v8.642C189.59,105.669,189.154,106.105,188.615,106.105z"/>
	<path fill="#7E3823" d="M166.931,100.045c-1.27,0-1.272,1.973,0,1.973C168.2,102.018,168.202,100.045,166.931,100.045z"/>
	<path fill="#7E3823" d="M174.965,99.903c-1.27,0-1.272,1.974,0,1.974C176.234,101.877,176.236,99.903,174.965,99.903z"/>
	<g>
		<path fill="#FFFFFF" d="M135.703,84.488h-18.646c-0.909,0-1.646-0.737-1.646-1.646V64.197c0-0.909,0.737-1.646,1.646-1.646h18.646
			c0.908,0,1.645,0.736,1.645,1.646v18.646C137.348,83.751,136.611,84.488,135.703,84.488z"/>
		<path fill="#66BC47" d="M135.199,66.346v14.349c0,0.666-0.395,1.238-0.964,1.495c-0.205,0.095-0.438,0.148-0.679,0.148h-14.353
			c-0.907,0-1.644-0.735-1.644-1.644V66.346c0-0.91,0.736-1.646,1.644-1.646h14.353C134.464,64.7,135.199,65.436,135.199,66.346z"/>
		<path fill="#9DCC4F" d="M134.235,82.189c-0.205,0.095-0.438,0.148-0.679,0.148h-14.353c-0.907,0-1.644-0.735-1.644-1.644v-7.081
			c0.609-0.733,1.21-1.046,1.252,0.397c0.345-1.505,2.67-0.792,2.137,0.421c0.318-0.729,1.409-0.844,2.03-0.348
			c0.617,0.496,0.803,1.379,0.695,2.166c1.055-0.161,1.999,1.169,1.497,2.113c0.406-0.556,1.255-0.707,1.85-0.36
			c0.595,0.344,0.883,1.122,0.696,1.784c0.226-0.563,0.964-0.856,1.514-0.603c0.553,0.256,0.807,1.006,0.524,1.544
			c1.091-0.81,2.935-0.005,3.087,1.342c0.102-0.302,0.487-0.429,0.792-0.335C133.877,81.809,134.072,81.985,134.235,82.189z"/>
	</g>
	<g>
		<rect x="79.741" y="172.563" fill="#FECB7F" width="24.295" height="6.556"/>
		<path fill="#FECB7F" d="M104.036,169.439v1.677H79.741v-1.677c0-1.49,0.277-2.901,0.773-4.165
			c1.276-3.259,4.009-5.513,7.173-5.513h8.403c3.162,0,5.894,2.251,7.171,5.511C103.759,166.535,104.036,167.949,104.036,169.439z"
			/>
		<path opacity="0.54" fill="#CC9794" d="M104.036,169.73v2.064H79.741v-2.064c0.618-0.141,1.236-0.269,1.856-0.386
			c3.406-0.653,6.844-0.979,10.284-0.979c3.444,0,6.886,0.325,10.298,0.979c0.565,0.106,1.129,0.225,1.69,0.351L104.036,169.73z"/>
		<path fill="#F9AD5F" d="M104.036,170.499v2.064H79.741v-2.064c0.618-0.141,1.236-0.269,1.856-0.386
			c3.406-0.653,6.844-0.979,10.284-0.979c3.444,0,6.886,0.326,10.298,0.979c0.565,0.106,1.129,0.225,1.69,0.35L104.036,170.499z"/>
		<path opacity="0.54" fill="#CC9794" d="M81.598,167.997v11.122h-1.856v-9.68c0-1.49,0.277-2.901,0.773-4.165
			C81.176,165.913,81.598,166.896,81.598,167.997z"/>
		<path fill="#FECB7F" d="M80.547,179.118h-3.604v-11.515c0-0.995,0.807-1.802,1.803-1.802l0,0c0.995,0,1.802,0.807,1.802,1.802
			V179.118z"/>
		<path opacity="0.54" fill="#CC9794" d="M104.036,169.439v9.68h-1.856v-11.122c0-1.101,0.423-2.087,1.082-2.725
			C103.759,166.535,104.036,167.949,104.036,169.439z"/>
		<path fill="#FECB7F" d="M106.835,179.118h-3.604v-11.515c0-0.995,0.807-1.802,1.802-1.802l0,0c0.996,0,1.803,0.807,1.803,1.802
			V179.118z"/>
	</g>
	<path fill="#F6B580" d="M156.781,128.376c-0.534,0.024-0.986,0.434-0.986,0.986v0.141c0,0.517,0.454,1.011,0.986,0.987
		c0.535-0.023,0.987-0.434,0.987-0.987v-0.141C157.769,128.847,157.314,128.352,156.781,128.376z"/>
	<path fill="#F6B580" d="M181.218,128.376c-0.534,0.024-0.985,0.434-0.985,0.986v0.141c0,0.517,0.453,1.011,0.985,0.987
		c0.535-0.023,0.987-0.434,0.987-0.987v-0.141C182.205,128.847,181.751,128.352,181.218,128.376z"/>
	<g>
		<path fill="#FFFFFF" d="M102.182,151.896H80.473c-0.56,0-1.014-0.454-1.014-1.015v-16.098c0-0.56,0.454-1.014,1.014-1.014h21.709
			c0.561,0,1.015,0.454,1.015,1.014v16.098C103.196,151.442,102.742,151.896,102.182,151.896z"/>
		<g>
			<g>
				<g>
					<path fill="#ABD0DB" d="M89.654,142.193h-7.623c-0.561,0-1.015-0.453-1.015-1.013v-5.343c0-0.561,0.454-1.014,1.015-1.014
						h7.623c0.561,0,1.014,0.453,1.014,1.014v5.343C90.668,141.74,90.215,142.193,89.654,142.193z"/>
				</g>
				<g>
					<path fill="#ABD0DB" d="M100.624,142.193H93c-0.56,0-1.013-0.453-1.013-1.013v-5.343c0-0.561,0.453-1.014,1.013-1.014h7.624
						c0.56,0,1.014,0.453,1.014,1.014v5.343C101.638,141.74,101.184,142.193,100.624,142.193z"/>
				</g>
				<g>
					<path fill="#ABD0DB" d="M89.654,150.843h-7.623c-0.561,0-1.015-0.454-1.015-1.014v-5.343c0-0.56,0.454-1.014,1.015-1.014h7.623
						c0.561,0,1.014,0.454,1.014,1.014v5.343C90.668,150.389,90.215,150.843,89.654,150.843z"/>
				</g>
				<g>
					<path fill="#ABD0DB" d="M100.624,150.843H93c-0.56,0-1.013-0.454-1.013-1.014v-5.343c0-0.56,0.453-1.014,1.013-1.014h7.624
						c0.56,0,1.014,0.454,1.014,1.014v5.343C101.638,150.389,101.184,150.843,100.624,150.843z"/>
				</g>
			</g>
		</g>
	</g>
	<g>
		<rect x="90.986" y="116.517" fill="#888A8D" width="0.799" height="13.269"/>
		<path fill="#6F8992" d="M84.458,135.167c-0.227,0-0.414-0.187-0.403-0.413c0.195-4.233,3.376-7.601,7.272-7.601
			s7.078,3.367,7.273,7.601c0.01,0.227-0.177,0.413-0.403,0.413H84.458z"/>
	</g>
	<rect x="59.548" y="142.833" fill="#CE7241" width="13.472" height="6.572"/>
	<rect x="59.548" y="151.163" fill="#CE7241" width="13.472" height="6.571"/>
	<rect x="59.548" y="159.492" fill="#CE7241" width="13.472" height="6.572"/>
	<rect x="59.548" y="167.821" fill="#CE7241" width="13.472" height="6.572"/>
	<path fill="#7E3823" d="M66.392,145.132c-1.27,0-1.271,1.974,0,1.974C67.661,147.105,67.664,145.132,66.392,145.132z"/>
	<path fill="#7E3823" d="M66.392,153.462c-1.27,0-1.271,1.974,0,1.974C67.661,155.436,67.664,153.462,66.392,153.462z"/>
	<path fill="#7E3823" d="M66.392,161.792c-1.27,0-1.271,1.973,0,1.973C67.661,163.765,67.664,161.792,66.392,161.792z"/>
	<path fill="#7E3823" d="M66.392,170.121c-1.27,0-1.271,1.973,0,1.973C67.661,172.094,67.664,170.121,66.392,170.121z"/>
</g>
</svg>
