<?xml version="1.0" encoding="utf-8"?>
<!-- Generator: Adobe Illustrator 16.0.0, SVG Export Plug-In . SVG Version: 6.00 Build 0)  -->
<!DOCTYPE svg PUBLIC "-//W3C//DTD SVG 1.1//EN" "http://www.w3.org/Graphics/SVG/1.1/DTD/svg11.dtd">
<svg version="1.1" id="Layer_1" xmlns="http://www.w3.org/2000/svg" xmlns:xlink="http://www.w3.org/1999/xlink" x="0px" y="0px"
	 width="311.327px" height="270.053px" viewBox="0 0 311.327 270.053" enable-background="new 0 0 311.327 270.053"
	 xml:space="preserve">
<g>
	<path fill="#4F454D" d="M12.144,84.514c0.315,2.493-0.512,4.971-1.26,7.371c-3.857,12.374-5.823,25.931-1.621,38.191
		c4.201,12.263,15.949,22.606,28.883,21.776c0.487,10.795,11.934,18.438,22.735,18.702c10.803,0.263,20.93-4.815,30.535-9.768
		c7.603,14.703,27.096,21.925,42.442,15.725c1.931-0.78,3.846-1.754,5.923-1.877c3.904-0.23,7.248,2.515,10.592,4.542
		c14.27,8.651,35.05,3.834,44.056-10.214c1.31-2.042,2.596-4.407,4.9-5.167c1.549-0.512,3.234-0.165,4.831,0.172
		c8.9,1.884,18.416,3.363,26.895,0.066c8.48-3.297,15.076-13.095,11.725-21.554c9.653-3.796,19.68-8.839,24.567-17.988
		c4.887-9.147,1.426-23.169-8.694-25.439c11.602-5.184,17.606-20.266,12.744-32.004c-4.863-11.74-19.772-18.157-31.642-13.619
		c-0.562-12.904-7.759-25.343-18.667-32.259s-25.229-8.122-37.139-3.126c-1.68,0.703-3.441,1.543-5.239,1.252
		c-2.12-0.343-3.649-2.134-5.131-3.687c-14.231-14.92-41.591-13.945-54.724,1.949C108.031,6.52,90.719,5.999,75.259,6.2
		C68.42,6.288,61.447,6.399,54.973,8.603c-11.106,3.78-19.754,14.001-21.643,25.58c-9.856,0.048-19.506,5.607-24.489,14.11
		c-4.985,8.503-5.124,19.638-0.353,28.262C9.913,79.129,11.775,81.596,12.144,84.514"/>
	<path fill="#4F454D" d="M212.708,190.864c1.074-0.408,0.184-2.055-0.846-2.566c-3.704-1.847-8.99-0.949-10.82,2.763
		c-1.831,3.713,2.222,9.075,6.018,7.425c0.831,4.465-4.549,8.387-3.604,12.827c0.737,3.463,5.19,5.007,8.563,3.934
		c3.374-1.074,5.843-3.904,8.095-6.638c1.965,4.325,8.035,6.145,12.055,3.612c4.021-2.531,5.003-8.791,1.952-12.432
		c3.626-0.183,6.867-3.329,7.154-6.947c0.288-3.619-2.415-7.239-5.967-7.991c-2.799-0.592-6.017,0.359-8.381-1.253
		c-1.396-0.953-2.134-2.592-3.236-3.874c-2.297-2.667-6.387-3.605-9.616-2.207c-3.23,1.4-5.343,5.025-4.968,8.525"/>
	<path fill="#4F454D" d="M260.855,226.422c-1.727-0.813-3.763-1.143-5.554-0.485c-1.793,0.655-3.221,2.455-3.066,4.356
		c0.154,1.902,2.207,3.53,4.018,2.931c-3.476,0.987-6.009,4.598-5.757,8.202c0.038,0.529,0.14,1.081,0.479,1.489
		c0.378,0.457,0.982,0.653,1.562,0.781c3.604,0.797,7.566-0.264,10.288-2.756c-0.475,2.98,2.486,5.978,5.472,5.54
		c2.987-0.438,4.962-4.159,3.651-6.878c2.25,0.769,4.687,1.543,6.957,0.838c2.27-0.706,3.964-3.608,2.577-5.539
		c-0.57-0.795-1.502-1.236-2.407-1.607c-1.903-0.778-3.874-1.392-5.883-1.832c2.492-0.647,2.346-4.767,0.098-6.022
		c-2.247-1.255-5.135-0.283-7.163,1.304c-0.51-3.002-5.038-4.282-7.044-1.991L260.855,226.422z"/>
	<path fill="#4F454D" d="M300.203,254.183c-1.091-1.028-2.687-1.591-4.132-1.201c-1.447,0.39-2.602,1.865-2.389,3.348
		c0.214,1.484,1.994,2.595,3.341,1.938c-1.569,0.333-3.402,0.892-3.889,2.421c-0.479,1.512,0.845,3.164,2.404,3.456
		c1.56,0.291,3.15-0.464,4.338-1.517c-0.536,2.424-0.847,5.478,1.194,6.89c1.679,1.161,4.205,0.321,5.298-1.402
		c1.093-1.723,0.973-3.994,0.225-5.892c2.288,0.928,5.153-1.43,4.683-3.854c-0.47-2.425-4.009-3.54-5.783-1.823
		c1.801-0.663,1.512-3.756-0.282-4.435c-1.795-0.68-3.89,0.794-4.342,2.659L300.203,254.183z"/>
	<path fill="#61C5B9" d="M7.14,79.51c0.315,2.493-0.512,4.971-1.26,7.371c-3.857,12.374-5.823,25.931-1.621,38.191
		c4.201,12.262,15.949,22.606,28.883,21.776c0.487,10.795,11.933,18.438,22.735,18.702c10.803,0.263,20.93-4.815,30.535-9.768
		c7.603,14.703,27.096,21.924,42.442,15.725c1.931-0.78,3.845-1.754,5.923-1.877c3.904-0.23,7.248,2.515,10.592,4.542
		c14.27,8.651,35.05,3.834,44.056-10.215c1.31-2.042,2.596-4.406,4.899-5.167c1.55-0.511,3.235-0.165,4.831,0.173
		c8.901,1.884,18.416,3.363,26.896,0.066s15.076-13.095,11.725-21.554c9.653-3.796,19.68-8.839,24.567-17.988
		c4.887-9.147,1.426-23.169-8.694-25.439c11.602-5.184,17.606-20.266,12.744-32.004c-4.863-11.74-19.772-18.157-31.642-13.619
		c-0.562-12.904-7.759-25.344-18.667-32.26s-25.229-8.121-37.139-3.126c-1.68,0.704-3.441,1.543-5.239,1.252
		c-2.12-0.342-3.649-2.133-5.132-3.686c-14.23-14.92-41.59-13.945-54.723,1.949C103.027,1.515,85.715,0.995,70.255,1.196
		c-6.839,0.088-13.813,0.199-20.286,2.403C38.863,7.379,30.215,17.6,28.327,29.179C18.47,29.227,8.821,34.787,3.837,43.29
		c-4.985,8.502-5.124,19.638-0.353,28.262C4.908,74.125,6.771,76.592,7.14,79.51"/>
	<path fill="#61C5B9" d="M207.705,185.86c1.074-0.408,0.183-2.055-0.846-2.566c-3.704-1.848-8.99-0.949-10.82,2.763
		c-1.831,3.713,2.221,9.075,6.017,7.425c0.831,4.464-4.548,8.387-3.603,12.827c0.737,3.463,5.19,5.007,8.563,3.934
		c3.373-1.074,5.843-3.904,8.095-6.638c1.965,4.325,8.035,6.145,12.055,3.612c4.021-2.531,5.003-8.791,1.952-12.432
		c3.626-0.183,6.867-3.329,7.154-6.947c0.288-3.619-2.415-7.239-5.968-7.991c-2.798-0.592-6.016,0.359-8.38-1.253
		c-1.396-0.953-2.134-2.592-3.236-3.874c-2.297-2.667-6.387-3.606-9.616-2.207c-3.231,1.4-5.343,5.025-4.968,8.525"/>
	<path fill="none" stroke="#1480A1" stroke-miterlimit="10" d="M255.851,221.418c-1.727-0.813-3.763-1.143-5.555-0.485
		c-1.792,0.655-3.22,2.455-3.065,4.356c0.153,1.902,2.207,3.53,4.018,2.931c-3.476,0.987-6.009,4.598-5.757,8.202
		c0.038,0.529,0.14,1.081,0.478,1.489c0.378,0.457,0.983,0.653,1.563,0.781c3.603,0.797,7.566-0.264,10.288-2.756
		c-0.475,2.98,2.485,5.978,5.472,5.54c2.987-0.438,4.962-4.159,3.651-6.878c2.25,0.769,4.687,1.543,6.957,0.838
		c2.27-0.706,3.964-3.608,2.577-5.539c-0.57-0.795-1.502-1.236-2.407-1.607c-1.903-0.778-3.874-1.392-5.883-1.832
		c2.491-0.647,2.346-4.767,0.098-6.022c-2.247-1.255-5.135-0.283-7.163,1.304c-0.51-3.002-5.038-4.282-7.044-1.991L255.851,221.418z
		"/>
	<path fill="none" stroke="#1480A1" stroke-miterlimit="10" d="M295.199,249.179c-1.091-1.028-2.686-1.592-4.133-1.201
		c-1.446,0.39-2.601,1.865-2.388,3.348c0.214,1.484,1.994,2.594,3.341,1.938c-1.569,0.333-3.402,0.892-3.889,2.421
		c-0.48,1.512,0.845,3.164,2.404,3.456c1.56,0.291,3.15-0.464,4.338-1.517c-0.536,2.423-0.847,5.478,1.194,6.89
		c1.679,1.161,4.204,0.321,5.297-1.402c1.094-1.723,0.974-3.994,0.226-5.892c2.288,0.928,5.154-1.43,4.683-3.854
		c-0.47-2.425-4.009-3.54-5.783-1.823c1.801-0.664,1.513-3.756-0.282-4.435c-1.795-0.68-3.89,0.794-4.343,2.659L295.199,249.179z"/>
	<path fill="#61C5B9" d="M294.94,249.179c-1.091-1.028-2.686-1.592-4.133-1.201c-1.446,0.39-2.601,1.865-2.388,3.348
		c0.214,1.484,1.994,2.594,3.341,1.938c-1.569,0.333-3.402,0.892-3.889,2.421c-0.48,1.512,0.845,3.164,2.404,3.456
		c1.56,0.291,3.15-0.464,4.338-1.517c-0.536,2.423-0.847,5.478,1.194,6.89c1.679,1.161,4.204,0.321,5.297-1.402
		c1.094-1.723,0.974-3.994,0.226-5.892c2.288,0.928,5.154-1.43,4.683-3.854c-0.47-2.425-4.009-3.54-5.783-1.823
		c1.801-0.664,1.513-3.756-0.282-4.435c-1.795-0.68-3.89,0.794-4.343,2.659L294.94,249.179z"/>
	<path fill="#61C5B9" d="M255.851,221.418c-1.727-0.813-3.763-1.143-5.555-0.485c-1.792,0.655-3.22,2.455-3.065,4.356
		c0.153,1.902,2.207,3.53,4.018,2.931c-3.476,0.987-6.009,4.598-5.757,8.202c0.038,0.529,0.14,1.081,0.478,1.489
		c0.378,0.457,0.983,0.653,1.563,0.781c3.603,0.797,7.566-0.264,10.288-2.756c-0.475,2.98,2.485,5.978,5.472,5.54
		c2.987-0.438,4.962-4.159,3.651-6.878c2.25,0.769,4.687,1.543,6.957,0.838c2.27-0.706,3.964-3.608,2.577-5.539
		c-0.57-0.795-1.502-1.236-2.407-1.607c-1.903-0.778-3.874-1.392-5.883-1.832c2.491-0.647,2.346-4.767,0.098-6.022
		c-2.247-1.255-5.135-0.283-7.163,1.304c-0.51-3.002-5.038-4.282-7.044-1.991L255.851,221.418z"/>
</g>
</svg>
