<?xml version="1.0" encoding="utf-8"?>
<!-- Generator: Adobe Illustrator 16.0.0, SVG Export Plug-In . SVG Version: 6.00 Build 0)  -->
<!DOCTYPE svg PUBLIC "-//W3C//DTD SVG 1.1//EN" "http://www.w3.org/Graphics/SVG/1.1/DTD/svg11.dtd">
<svg version="1.1" id="Layer_1" xmlns="http://www.w3.org/2000/svg" xmlns:xlink="http://www.w3.org/1999/xlink" x="0px" y="0px"
	 width="160.081px" height="168.017px" viewBox="0 0 160.081 168.017" enable-background="new 0 0 160.081 168.017"
	 xml:space="preserve">
<g>
	<path fill="#FBB041" d="M144.482,61.035c-10.828-14.767-15.751,1.313-26.251,2.625c-1.399,0.175-3.886,0.436-7.131,0.755
		c3.083-6.038,4.834-12.87,4.834-20.116C115.935,19.834,96.101,0,71.635,0s-44.3,19.834-44.3,44.299
		c0,10.069,3.363,19.348,9.022,26.788h-0.005c0,0-42.487,23.091-35.597,57.218s52.831,46.597,107.63,36.096
		C163.187,153.9,173.031,102.382,144.482,61.035"/>
	<path fill="#F15B2B" d="M78.503,63.66c0,0-24.916-28.549-29.838-27.892c-4.923,0.656-11.485,5.906-18.704,3.281
		c-7.22-2.625-20.346-0.985-16.08,13.782c2.298,5.906,8.532,4.922,8.532,4.922S7.976,77.442,34.554,79.411
		c26.58,1.969,38.812-2.924,42.332-7.547C80.404,67.241,80.255,65.643,78.503,63.66"/>
	<path fill="#FFFFFF" d="M79.804,33.179c-1.451,5.521-5.762,9.172-9.628,8.156c-3.867-1.016-5.825-6.316-4.374-11.837
		s5.762-9.173,9.628-8.157C79.296,22.357,81.254,27.656,79.804,33.179"/>
	<path fill="#231F20" d="M78.299,32.851c-0.884,3.365-3.301,5.646-5.398,5.096c-2.099-0.551-3.08-3.727-2.196-7.092
		c0.885-3.366,3.302-5.646,5.398-5.096C78.2,26.311,79.184,29.485,78.299,32.851"/>
	<path fill="#FFFFFF" d="M44.464,26.364c-1.29,4.908-4.063,8.435-6.195,7.874c-2.131-0.561-2.813-4.994-1.523-9.902
		c1.29-4.908,4.064-8.435,6.195-7.874C45.072,17.021,45.755,21.456,44.464,26.364"/>
	<g opacity="0.15">
		<g>
			<defs>
				<rect id="SVGID_1_" x="13.937" y="72.759" width="43.398" height="16.313"/>
			</defs>
			<clipPath id="SVGID_2_">
				<use xlink:href="#SVGID_1_"  overflow="visible"/>
			</clipPath>
			<path clip-path="url(#SVGID_2_)" fill="#231F20" d="M51.618,79.858c14.616-1.722-1.377-9.206-18.971-6.525
				c-4.392,2.833-11.962,8.254-18.712,15.739C22.604,86.016,36.979,81.583,51.618,79.858"/>
		</g>
	</g>
	<path fill="#231F20" d="M43.63,26.205c-0.787,2.992-2.361,5.172-3.518,4.867c-1.156-0.304-1.456-2.976-0.669-5.968
		c0.786-2.991,2.36-5.172,3.517-4.867C44.116,20.541,44.417,23.213,43.63,26.205"/>
	<path fill="#AF3E26" d="M22.413,57.754c0,0,0.984-13.126,11.157-6.891c10.172,6.234,17.998,17.631,36.809,17.265
		c0,0-34.348,13.252-43.863-2.171c-3.118-7.055-0.656-8.148-0.656-8.148L22.413,57.754z"/>
	<g opacity="0.15">
		<g>
			<defs>
				<rect id="SVGID_3_" x="97.559" y="13.2" width="28.116" height="62.481"/>
			</defs>
			<clipPath id="SVGID_4_">
				<use xlink:href="#SVGID_3_"  overflow="visible"/>
			</clipPath>
			<path clip-path="url(#SVGID_4_)" fill="#231F20" d="M125.677,60.313c-2.23,1.591-4.638,2.997-7.445,3.348
				c-1.398,0.175-3.886,0.436-7.131,0.755c3.083-6.038,4.834-12.87,4.834-20.116c0-12.119-4.873-23.101-12.761-31.099
				c5.431,15.038,12.565,44.108-5.617,60.224C97.557,73.424,117.814,83.727,125.677,60.313"/>
		</g>
	</g>
</g>
</svg>
