<?xml version="1.0" encoding="utf-8"?>
<!-- Generator: Adobe Illustrator 16.0.0, SVG Export Plug-In . SVG Version: 6.00 Build 0)  -->
<!DOCTYPE svg PUBLIC "-//W3C//DTD SVG 1.1//EN" "http://www.w3.org/Graphics/SVG/1.1/DTD/svg11.dtd">
<svg version="1.1" id="Layer_1" xmlns="http://www.w3.org/2000/svg" xmlns:xlink="http://www.w3.org/1999/xlink" x="0px" y="0px"
	 width="318.667px" height="320.131px" viewBox="0 0 318.667 320.131" enable-background="new 0 0 318.667 320.131"
	 xml:space="preserve">
<radialGradient id="SVGID_1_" cx="159.3335" cy="160.0659" r="159.7001" gradientTransform="matrix(1 0 0 2 0 -160.0659)" gradientUnits="userSpaceOnUse">
	<stop  offset="0" style="stop-color:#FFF33B"/>
	<stop  offset="0.0595" style="stop-color:#FFE029"/>
	<stop  offset="0.1303" style="stop-color:#FFD218"/>
	<stop  offset="0.2032" style="stop-color:#FEC90F"/>
	<stop  offset="0.2809" style="stop-color:#FDC70C"/>
	<stop  offset="0.6685" style="stop-color:#F3903F"/>
	<stop  offset="0.8876" style="stop-color:#ED683C"/>
	<stop  offset="1" style="stop-color:#E93E3A"/>
</radialGradient>
<rect fill="url(#SVGID_1_)" width="318.667" height="320.131"/>
<rect x="9.865" y="10.915" fill="#FFFFFF" width="296.937" height="298.301"/>
<path fill="#010101" d="M9.865,10.915c0,0,0,217.225,0,297.756c0,0.692,297.756,0,297.756,0V10.915H9.865z M220.686,74.37
	c7.02,7.155,7.931,29.009,5.029,29.783c-2.9,0.774-5.029-2.514-5.029-2.514C225.329,90.228,223.449,77.722,220.686,74.37z
	 M76.727,92.549c0,0,14.384-9.283,29.856-9.477c-2.225-7.784-7.881-10.395-7.881-10.395s10.153-3.844,21.25-1.885
	c-0.58-4.835,0.942-12.039,0.942-12.039c-8.683-0.029-8.345,0.138-18.566-0.146c7.316-3.654,18.007-5.708,18.007-5.708
	s6.906-6.634,9.746-8.217c-4.11-2.755-16.825-2.03-19.146-1.644c10.396-7.107,29.493-5.996,29.493-5.996
	c39.551-12.281,61.5,6.576,61.5,6.576l2.223,13.73l11.508-4.642c0,0,1.842,10.422,1.741,19.34l-6.093-13.537
	c0,0-6.477,7.155-11.313,10.829c0.194-0.967,0.17-10.794-4.079-18.778c-5.963-11.205-18.562-11.672-18.562-11.672
	s2.527,10.53-0.18,16.525c-2.991-12.472-10.493-15.778-10.493-15.778l1.597,14.812c0,0-3.396-7.881-9.67-10.347
	c-9.094-3.574-16.595-2.685-16.595-2.685l-1.777,10.71c0,0-7.508,0.298-11,2.78c5.553,0.247,14.432,3.409,14.432,3.409
	l-12.547,1.958l8.34,5.439l-13.924-0.047v16.439c0,0-8.341-6.746-16.97-6.02c1.933,3.481,5.561,15.883,5.561,15.883
	s-11.024-2.322-19.341,0c2.617,3.366,4.448,5.607,4.448,5.607s-12.667,7.93-16.149,18.469c5.802-4.449,16.536-12.087,17.697-9.573
	c1.16,2.514-9.671,12.087-13.829,16.535c0.604,1.499,13.634,2.249,13.634,2.249s-1.523,11.121-8.485,12.474
	c-6.962,1.354-9.066-5.946-4.279-9.209c-4.447-0.388-12.957-2.708-12.957-2.708s6.489-23.038,15.568-29.009
	C86.373,92.694,76.727,92.549,76.727,92.549z M112.046,126.925c-2.031,1.305-6.817,7.128-4.787,11.614
	c-2.465,0.57-4.641-0.301-4.641-0.301c-1.305-4.352,7.35-17.454,13.151-18.324c3.626,2.901,0.628,17.454,0.194,18.324
	c-0.435,0.871-3.627-0.357-3.481-1.049C112.626,136.499,114.077,125.619,112.046,126.925z M114.512,156.95
	c1.451-0.29,15.085,18.566,21.467,20.305c-7.252,5.803-15.956,6.382-15.956,6.382s-23.305-10.767-30.847-19.436
	C95.85,164.203,113.062,157.239,114.512,156.95z M55.913,127.708c8.122,15.028,22.434,6.808,18.565,13.964
	c-3.868,7.156,6.962,16.632,6.962,16.632s2.708,4.641-1.74,9.057c-11.131,1.449-28.236-37.432-28.236-37.432
	C49.821,126.925,54.065,124.29,55.913,127.708z M85.212,246.879c-25.238-5.802-42.934-50.187-59.469-69.624
	c12.184-0.87,29.879-19.146,26.978-29.298c8.123,17.987,38.003,64.622,38.003,64.622S85.502,234.115,85.212,246.879z
	 M136.006,281.401c-1.714,1.16-7.569,0.58-17.142-8.703c6.962-1.16,16.245-2.32,17.115-20.598
	c0.869-18.274-19.437-22.337-38.003-40.611c0,0-2.465-4.933,1.645-1.209c17.32,15.689,35.101,15.541,41.773,33.313
	C148.066,261.363,137.72,280.241,136.006,281.401z M191.142,246.741l5.292-7.721c0,0,33.062,26.83,36.438,34.838
	C230.261,270.377,191.142,246.741,191.142,246.741z M235.58,157.724c0,0-13.732-2.901-16.826-0.773
	c-3.094,2.127-6.189,8.703-5.416,9.089c0.774,0.387,7.542-1.354,8.703,1.547c1.16,2.902-1.547,22.434-9.282,34.619
	c-7.736,12.183-22.049,32.684-26.302,40.612c-4.256,7.931-16.439-2.706-20.693-7.155c-4.256-4.449-13.731-6.962-11.991-22.82
	c1.74-15.858,0.773-23.4,5.609-23.788c4.833-0.387,10.442,1.353,10.83-4.254c0.386-5.609-14.119-3.869-13.925-16.438
	c0.193-12.572-4.254-13.346-9.089-16.246c-4.835-2.901-7.156-21.419-13.684-22.725c-0.145-4.932,5.367-4.498,5.367-4.498
	s14.94,2.032,14.504,21.903c16.246,5.657,24.078,12.039,29.734,10.734c0.872-3.482-5.221-7.978-5.221-7.978
	s9.428-2.465,13.78,10.734c15.229-3.336,17.985-6.625,17.985-6.625c5.415-13.925-24.754-21.66-38.68-21.273
	c-2.32-3.481-0.772-5.802-0.772-5.802h6.188c0,0,0.773-11.797,0-14.892c-0.775-3.094-25.378-11.797-6.693-20.5
	c18.684-8.703,50.014,10.637,47.887,29.01c11.797,0.193,15.665,2.175,17.6,13.973C237.125,145.975,235.58,157.724,235.58,157.724z
	 M235.192,120.785c-1.813-3.868-2.468-5.972-2.468-5.972c9.672-3.094,13.781-29.613,6.528-37.542
	C252.597,87.327,243.711,120.366,235.192,120.785z M199.027,212.58c-0.1,2.292-1.221,4.415-3.965,6.255
	c-2.418-4.447-17.502-10.151-18.179-7.057c-0.677,3.094,7.735,10.105,12.087,12.135c0,0-6.349,2.957-8.799,2.369
	c-5.658-1.354-4.545-8.75-8.511-13.055c-2.349-2.549-9.572-7.125-4.255-11.797c5.561-4.883,13.828,1.064,13.828,1.064
	S198.929,207.674,199.027,212.58z M208.359,195.533c-0.146,1.451-12.039,2.466-10.155,6.962c-4.785-0.58-13.344-6.6-14.36-12.401
	c-1.014-5.802-0.725-11.821,8.27-13.562c8.992-1.741,10.879,1.305,13.634-3.336c0,2.756-2.755,7.543-4.206,7.107
	c-1.45-0.436-8.122-2.177-10.443-0.871c-2.322,1.307-0.725,8.121,4.207,9.429C200.236,190.167,208.502,194.083,208.359,195.533z"/>
</svg>
