<?xml version="1.0" encoding="utf-8"?>
<!-- Generator: Adobe Illustrator 16.0.0, SVG Export Plug-In . SVG Version: 6.00 Build 0)  -->
<!DOCTYPE svg PUBLIC "-//W3C//DTD SVG 1.1 Basic//EN" "http://www.w3.org/Graphics/SVG/1.1/DTD/svg11-basic.dtd">
<svg version="1.1" baseProfile="basic"
	 id="svg2" xmlns:rdf="http://www.w3.org/1999/02/22-rdf-syntax-ns#" xmlns:dc="http://purl.org/dc/elements/1.1/" xmlns:inkscape="http://www.inkscape.org/namespaces/inkscape" xmlns:sodipodi="http://sodipodi.sourceforge.net/DTD/sodipodi-0.dtd" xmlns:cc="http://creativecommons.org/ns#" xmlns:svg="http://www.w3.org/2000/svg" sodipodi:docname="Snellen chart.svg" inkscape:version="0.46" sodipodi:version="0.32" inkscape:output_extension="org.inkscape.output.svg.inkscape"
	 xmlns="http://www.w3.org/2000/svg" xmlns:xlink="http://www.w3.org/1999/xlink" x="0px" y="0px" width="1303.262px"
	 height="1624.406px" viewBox="0 0 1303.262 1624.406" xml:space="preserve">
<defs>
	
	
		<inkscape:perspective  id="perspective10" inkscape:vp_z="-464.18493 : 1770.7194 : 1" inkscape:vp_y="-1000.6093 : -166.6668 : 0" inkscape:vp_x="-459.52517 : 1102.0947 : 1" sodipodi:type="inkscape:persp3d" inkscape:persp3d-origin="-325.28188 : 1587.6484 : 1">
		</inkscape:perspective>
	
		<inkscape:perspective  id="perspective3233" inkscape:vp_z="744.09448 : 526.18109 : 1" inkscape:vp_y="0 : 1000 : 0" inkscape:vp_x="0 : 526.18109 : 1" sodipodi:type="inkscape:persp3d" inkscape:persp3d-origin="372.04724 : 350.78739 : 1">
		</inkscape:perspective>
	
		<inkscape:perspective  id="perspective2582" inkscape:vp_z="744.09448 : 526.18109 : 1" inkscape:vp_y="0 : 1000 : 0" inkscape:vp_x="0 : 526.18109 : 1" sodipodi:type="inkscape:persp3d" inkscape:persp3d-origin="372.04724 : 350.78739 : 1">
		</inkscape:perspective>
	
		<inkscape:perspective  id="perspective2651" inkscape:vp_z="744.09448 : 526.18109 : 1" inkscape:vp_y="0 : 1000 : 0" inkscape:vp_x="0 : 526.18109 : 1" sodipodi:type="inkscape:persp3d" inkscape:persp3d-origin="372.04724 : 350.78739 : 1">
		</inkscape:perspective>
	
		<inkscape:perspective  id="perspective2692" inkscape:vp_z="744.09448 : 526.18109 : 1" inkscape:vp_y="0 : 1000 : 0" inkscape:vp_x="0 : 526.18109 : 1" sodipodi:type="inkscape:persp3d" inkscape:persp3d-origin="372.04724 : 350.78739 : 1">
		</inkscape:perspective>
</defs>
<sodipodi:namedview  id="base" inkscape:cx="482.40691" inkscape:cy="959.26474" borderopacity="1.0" bordercolor="#666666" pagecolor="#ffffff" inkscape:zoom="0.175" showgrid="false" inkscape:guide-bbox="true" inkscape:document-units="px" inkscape:window-width="1024" inkscape:window-y="-4" inkscape:window-height="712" inkscape:current-layer="layer1" inkscape:pageshadow="2" inkscape:window-x="1020" inkscape:pageopacity="0.0" showborder="true" objecttolerance="10" showguides="true" gridtolerance="10000" guidetolerance="10">
	</sodipodi:namedview>
<g id="g2814">
	<polygon id="rect2777" fill="#7EA8FC" points="205.661,0 1237.62,0 1303.262,1624.406 0,1624.406 	"/>
	<path id="path3243" sodipodi:nodetypes="ccccccccccccccccccccc" fill="#840F73" stroke="#000000" stroke-width="2.7156" d="
		M482.68,127.887h-44.287l3.876-44.488h213.646l-4.665,87.989h-43.014l2.598-43.438H524.61l-3.251,44.25h44.204l-2.989,44.939
		h-44.517l-3.257,44.329h88.049l2.7-45.151h43.319l-4.89,92.215H422.652l4.064-46.646h45.228L482.68,127.887z"/>
	<path id="path3261" sodipodi:nodetypes="ccccccccccccccccccc" fill="#840F73" stroke="#000000" stroke-width="1.3578" d="
		M435.958,462.666l-2.073,24.936h-69.203l2.311-24.715h23.319l6.477-71.971h-23.067l2.265-24.22h111.656l-3.649,47.746h-22.331
		l1.875-23.491h-44.909l-2.074,23.928h22.946l-2.008,24.138h-23.029l-2.05,23.65H435.958z"/>
	<path id="path3265" sodipodi:nodetypes="ccccccccccccsccscccc" fill="#840F73" stroke="#000000" stroke-width="1.3578" d="
		M646.185,438.924l-23.954,0.092l-1.307,23.65h23.544l-1.29,24.936h-69.203l1.535-24.715h23.319l4.216-71.971h-23.066l1.504-24.22
		h71.63c14.165,3.664,28.775,10.2,27.897,34.75C680.207,423.947,664.773,435.35,646.185,438.924z M649.438,414.878
		c5.523-0.144,9.251-3.024,9.695-12.61c0.414-8.96-3.616-11.15-7.428-11.318h-26.818l-1.322,23.928H649.438z"/>
	<path id="path3279" sodipodi:nodetypes="ccccccccccccccccc" fill="#840F73" stroke="#000000" stroke-width="2.5935" d="
		M324.495,555.273h79.334l-3.038,35.029h-15.869l1.467-16.466h-15.43l-4.759,52.083h14.54l-1.612,18.062h-46.973l1.736-18.062
		h15.751l4.885-52.083h-16.432l-1.584,16.466h-15.467L324.495,555.273z"/>
	<path id="path3285" fill="#840F73" stroke="#000000" stroke-width="5.3019" d="M512.478,554.917
		c-21.535,0-40.494,19.123-42.304,42.808C468.352,621.576,484.59,641,506.4,641c21.809,0,40.718-19.424,42.264-43.276
		C550.199,574.039,534.012,554.917,512.478,554.917z M511.542,568.187c14.834,0,25.979,13.236,24.892,29.538
		c-1.091,16.381-14.111,29.718-29.077,29.718c-14.966,0-26.173-13.337-24.952-29.718
		C483.622,581.422,496.706,568.187,511.542,568.187z"/>
	<path id="path3303" fill="#840F73" stroke="#000000" stroke-width="2.5935" d="M627.881,555.273h79.334l-0.792,19.002
		l-55.496,52.31h36.957l0.773-17.526h16.315l-1.456,34.921h-80.379l0.93-17.395l57.506-52.31h-37.675l-0.906,17.787h-17.079
		L627.881,555.273z"/>
	<path id="path3325" sodipodi:nodetypes="ccccccccccccsccscccc" fill="#840F73" stroke="#000000" stroke-width="0.7047" d="
		M460.493,743.864l-13.006,0.053l-1.047,13.409h12.762l-1.074,14.092h-37.445l1.14-13.966h12.64l3.267-40.943h-12.565l1.132-13.871
		h39.084c7.67,2.102,15.53,5.847,14.643,19.887C479.212,735.351,470.642,741.834,460.493,743.864z M462.629,730.186
		c3.005-0.081,5.079-1.725,5.471-7.191c0.367-5.118-1.793-6.371-3.867-6.465h-14.609l-1.066,13.657H462.629z"/>
	<path id="path3327" sodipodi:nodetypes="ccccccccccccccccccccc" fill="#840F73" stroke="#000000" stroke-width="0.7047" d="
		M545.851,716.508h-12.565l0.915-13.871h60.923l-1.558,27.298h-12.144l0.789-13.407h-24.463l-0.852,13.657h12.478l-0.832,13.731
		h-12.503l-0.837,13.409h24.608l0.804-13.661h12.168l-1.584,27.752h-61.532l0.921-13.966h12.64L545.851,716.508z"/>
	<path id="path3329" sodipodi:nodetypes="ccccccccccccccc" fill="#840F73" stroke="#000000" stroke-width="0.6945" d="
		M362.677,757.529h-23.418l3.659-39.121h11.95l1.449-15.754l-37.174-0.026l-1.523,15.667h11.641l-3.758,39.359h-11.708
		l-1.337,13.764h61.225l2.346-26.548h-12.209L362.677,757.529z"/>
	<path id="path3335" sodipodi:nodetypes="czccccccccczcccc" fill="#840F73" stroke="#000000" stroke-width="0.7046" d="
		M682.43,702.645c6.116-0.162,20.713,12.742,19.522,33.479c-1.205,21.034-14.75,35.295-22.576,35.295l-34.706-0.008l0.689-13.962
		h12.638l1.947-40.94h-12.563l0.685-13.87L682.43,702.645z M674.58,757.328c5.646-0.037,15.409-8.117,15.855-21.72
		c0.444-13.546-9.015-19.071-14.013-19.074l-4.581-0.007l-1.87,40.793L674.58,757.328z"/>
	<path id="path2405" sodipodi:nodetypes="ccccccccccccsccscccc" fill="#840F73" stroke="#000000" stroke-width="0.5513" d="
		M333.05,852.474l-10.335,0.042l-1.023,10.815h10.135l-1.058,11.358h-29.728l1.096-11.256h10.039l3.171-33.055h-9.991l1.092-11.217
		h31.093c6.07,1.699,12.266,4.729,11.347,16.079C348.05,845.599,341.144,850.834,333.05,852.474z M334.947,841.429
		c2.391-0.066,4.063-1.392,4.456-5.809c0.368-4.136-1.332-5.149-2.979-5.227h-11.616l-1.044,11.035H334.947z"/>
	<path id="path2407" sodipodi:nodetypes="ccccccccccccccccccccc" fill="#840F73" stroke="#000000" stroke-width="0.5513" d="
		M402.526,830.379h-9.992l0.953-11.217h48.466l-1.721,22.066h-9.653l0.86-10.833h-19.453l-0.907,11.035h9.918l-0.895,11.085h-9.934
		l-0.889,10.817h19.544l0.875-11.02h9.667l-1.746,22.376H388.77l0.957-11.256h10.039L402.526,830.379z"/>
	<path id="path2409" sodipodi:nodetypes="czccccccccczcccc" fill="#840F73" stroke="#000000" stroke-width="0.5512" d="
		M680.689,819.173c4.865-0.132,16.468,10.306,15.509,27.056c-0.973,16.972-11.734,28.467-17.947,28.467l-27.553-0.004l0.538-11.256
		h10.038l1.533-33.052h-9.99l0.536-11.216L680.689,819.173z M674.443,863.339c4.483-0.028,12.241-6.547,12.602-17.526
		c0.357-10.94-7.161-15.405-11.136-15.407l-3.643-0.006l-1.483,32.934L674.443,863.339z"/>
	<path id="path2411" sodipodi:nodetypes="ccccccccccccccccccc" fill="#840F73" stroke="#000000" stroke-width="0.5513" d="
		M599.621,863.332l-0.627,11.358h-29.727l0.668-11.256h10.039l1.915-33.055h-9.992l0.666-11.217h48.465l-1.157,22.066h-9.652
		l0.583-10.835h-19.452l-0.625,11.037h9.918l-0.611,11.085h-9.934l-0.612,10.815H599.621z"/>
	<path id="path2413" sodipodi:nodetypes="ccccccccccccccccccccc" fill="#840F73" stroke="#000000" stroke-width="0.4147" d="
		M302.202,922.391h-7.615l0.846-8.663h36.95l-1.575,17.037h-7.354l0.782-8.362h-14.825l-0.814,8.519h7.557l-0.808,8.549h-7.565
		l-0.797,8.337h14.878l0.794-8.493h7.362l-1.593,17.24h-37.173l0.847-8.671h7.642L302.202,922.391z"/>
	<path id="path2415" sodipodi:nodetypes="czccccccccczcccc" fill="#840F73" stroke="#000000" stroke-width="0.4146" d="
		M388.448,913.732c3.713-0.103,12.222,7.96,10.952,20.888c-1.286,13.081-9.843,21.935-14.571,21.935l-20.967-0.004l0.758-8.669
		h7.641l2.202-25.49h-7.613l0.757-8.663L388.448,913.732z M382.289,947.807c3.415-0.022,9.528-5.046,10.152-13.51
		c0.623-8.44-4.965-11.889-7.993-11.891l-2.776-0.004l-2.168,25.4L382.289,947.807z"/>
	<path id="path2417" sodipodi:nodetypes="ccccccccccccccccccc" fill="#840F73" stroke="#000000" stroke-width="0.4147" d="
		M459.709,947.807l-0.648,8.747H436.44l0.67-8.671h7.642l1.943-25.492h-7.614l0.669-8.663h36.949l-1.228,17.037h-7.353l0.611-8.362
		h-14.825l-0.641,8.519h7.557l-0.633,8.549h-7.566l-0.627,8.337H459.709z"/>
	<path id="path2421" fill="#840F73" stroke="#000000" stroke-width="1.1172" d="M586.394,914.478h35.997l-0.467,9.066l-25.331,24.82
		h16.672l0.436-8.293h7.372l-0.85,16.499h-36.21l0.464-8.206l26.19-24.82h-17.068l-0.47,8.465h-7.726L586.394,914.478z"/>
	<path id="path2423" sodipodi:nodetypes="ccccccccccccsccscccc" fill="#840F73" stroke="#000000" stroke-width="0.4147" d="
		M683.088,939.437l-7.868,0.033l-0.366,8.337h7.716l-0.375,8.747h-22.621l0.398-8.669h7.642l1.146-25.494h-7.614l0.398-8.663h23.705
		c4.692,1.313,9.528,3.653,9.255,12.417C694.254,934.138,689.191,938.175,683.088,939.437z M684.116,930.921
		c1.818-0.051,3.042-1.075,3.176-4.483c0.124-3.193-1.21-3.974-2.469-4.035h-8.853l-0.374,8.519H684.116z"/>
	<path id="path2425" sodipodi:nodetypes="ccccccccccccccccccc" fill="#840F73" stroke="#000000" stroke-width="0.3525" d="
		M316.32,1089.731l-0.714,7.731h-19.609l0.729-7.663h6.625l2.124-22.552h-6.604l0.729-7.671h32.055l-1.367,15.08h-6.377l0.677-7.398
		h-12.859l-0.704,7.537h6.554l-0.699,7.562h-6.56l-0.688,7.374H316.32z"/>
	<path id="path2427" sodipodi:nodetypes="ccccccccccccccccccccc" fill="#840F73" stroke="#000000" stroke-width="0.3525" d="
		M362.679,1067.248h-6.604l0.669-7.671h32.054l-1.249,15.08h-6.377l0.619-7.398h-12.859l-0.644,7.537h6.553l-0.639,7.563h-6.56
		l-0.63,7.372h12.899l0.628-7.511h6.384l-1.262,15.242h-32.222l0.668-7.663h6.625L362.679,1067.248z"/>
	<path id="path2429" sodipodi:nodetypes="ccccccccccccccc" fill="#840F73" stroke="#000000" stroke-width="0.3474" d="
		M436.882,1089.842h-12.275l1.67-21.548h6.28l0.669-8.708l-19.559-0.014l-0.687,8.659h6.118l-1.702,21.677h-6.137l-0.6,7.554h32.062
		l1.092-14.581h-6.404L436.882,1089.842z"/>
	<path id="path2431" fill="#840F73" stroke="#000000" stroke-width="1.9413" d="M483.563,1060.121
		c-8.477,0-15.944,8.077-16.66,18.046c-0.717,9.994,5.622,18.103,14.141,18.103c8.519,0,15.96-8.108,16.636-18.103
		C498.353,1068.198,492.039,1060.121,483.563,1060.121z M483.172,1065.729c5.832,0,10.18,5.581,9.712,12.438
		c-0.469,6.867-5.594,12.446-11.446,12.446c-5.853,0-10.229-5.579-9.74-12.446C472.187,1071.31,477.339,1065.729,483.172,1065.729z"
		/>
	<path id="path2433" sodipodi:nodetypes="ccccccccccccsccscccc" fill="#840F73" stroke="#000000" stroke-width="0.3525" d="
		M545.607,1082.33l-6.823,0.027l-0.457,7.374h6.689l-0.471,7.731h-19.608l0.487-7.663h6.625l1.415-22.554h-6.604l0.488-7.669h20.564
		c4.047,1.163,8.204,3.235,7.818,10.991C555.378,1077.64,550.918,1081.212,545.607,1082.33z M546.64,1074.795
		c1.578-0.047,2.656-0.952,2.829-3.969c0.162-2.823-0.981-3.516-2.073-3.568h-7.678l-0.466,7.537H546.64z"/>
	<path id="path2435" fill="#840F73" stroke="#000000" stroke-width="0.9496" d="M583.69,1060.258h31.228l-0.414,8.027
		l-21.983,21.955h14.455l0.384-7.333h6.392l-0.751,14.587H581.61l0.405-7.254l22.724-21.955h-14.805l-0.411,7.487h-6.701
		L583.69,1060.258z"/>
	<path id="path2437" sodipodi:nodetypes="czccccccccczcccc" fill="#840F73" stroke="#000000" stroke-width="0.3524" d="
		M662.963,1059.586c3.218-0.092,10.869,7.044,10.199,18.484c-0.679,11.57-7.802,19.396-11.9,19.396l-18.173-0.005l0.363-7.663h6.624
		l1.048-22.55h-6.604l0.363-7.667L662.963,1059.586z M658.768,1089.735c2.959-0.019,8.091-4.462,8.349-11.948
		c0.258-7.471-4.704-10.521-7.331-10.522l-2.408-0.004l-1.025,22.471L658.768,1089.735z"/>
	<path id="path2439" sodipodi:nodetypes="czccccccccczcccc" fill="#840F73" stroke="#000000" stroke-width="0.2777" d="
		M323.753,1168.453c2.577-0.072,8.428,5.718,7.461,14.998c-0.979,9.385-6.964,15.725-10.238,15.725l-14.521-0.002l0.574-6.211h5.294
		l1.677-18.288h-5.281l0.575-6.224L323.753,1168.453z M319.271,1192.91c2.365-0.016,6.634-3.617,7.121-9.687
		c0.486-6.062-3.367-8.535-5.468-8.537l-1.925-0.003l-1.658,18.225L319.271,1192.91z"/>
	<path id="path2441" sodipodi:nodetypes="ccccccccccccccccccccc" fill="#840F73" stroke="#000000" stroke-width="0.2778" d="
		M358.75,1174.674h-5.281l0.537-6.224h25.639l-1.013,12.235h-5.099l0.501-6.003h-10.282l-0.519,6.115h5.239l-0.516,6.136h-5.244
		l-0.507,5.976h10.308l0.509-6.089h5.103l-1.023,12.354h-25.746l0.536-6.21h5.294L358.75,1174.674z"/>
	<path id="path2443" sodipodi:nodetypes="ccccccccccccccccccc" fill="#840F73" stroke="#000000" stroke-width="0.2778" d="
		M417.396,1192.91l-0.485,6.266h-15.667l0.494-6.21h5.295l1.441-18.291h-5.282l0.495-6.224h25.638l-0.93,12.235h-5.099l0.461-6.003
		h-10.282l-0.478,6.115h5.239l-0.475,6.136h-5.244l-0.467,5.976H417.396z"/>
	<path id="path2445" sodipodi:nodetypes="ccccccccccccsccscccc" fill="#840F73" stroke="#000000" stroke-width="0.2778" d="
		M461.682,1186.909l-5.456,0.025l-0.431,5.976h5.346l-0.448,6.266h-15.667l0.457-6.21h5.294l1.333-18.291h-5.282l0.458-6.224h16.448
		c3.227,0.942,6.531,2.625,6.15,8.919C469.537,1183.107,465.938,1186.003,461.682,1186.909z M462.577,1180.798
		c1.263-0.035,2.133-0.771,2.299-3.218c0.155-2.292-0.753-2.853-1.625-2.897h-6.141l-0.441,6.115H462.577z"/>
	<path id="path2447" fill="#840F73" stroke="#000000" stroke-width="1.533" d="M503.006,1168.752
		c-6.795,0-12.759,6.569-13.308,14.673c-0.549,8.12,4.547,14.702,11.369,14.702c6.821,0,12.764-6.582,13.287-14.702
		C514.875,1175.322,509.799,1168.752,503.006,1168.752z M502.705,1173.315c4.674,0,8.168,4.538,7.808,10.11
		c-0.362,5.581-4.455,10.111-9.142,10.111c-4.688,0-8.205-4.53-7.83-10.111C493.915,1177.853,498.031,1173.315,502.705,1173.315z"/>
	<path id="path2449" sodipodi:nodetypes="ccccccccccccccccc" fill="#840F73" stroke="#000000" stroke-width="0.7499" d="
		M538.243,1168.97h25.029l-0.694,12.016h-4.989l0.33-5.637h-4.858l-1.051,17.767h4.554l-0.358,6.119h-14.687l0.37-6.119h4.934
		l1.063-17.767h-5.174l-0.342,5.637h-4.862L538.243,1168.97z"/>
	<path id="path2451" sodipodi:nodetypes="ccccccccccccccccccccc" fill="#840F73" stroke="#000000" stroke-width="0.2778" d="
		M588.38,1174.674h-5.281l0.343-6.224h25.638l-0.631,12.235h-5.099l0.313-6.003h-10.283l-0.328,6.115h5.239l-0.324,6.136h-5.245
		l-0.321,5.976h10.309l0.319-6.089h5.103l-0.638,12.354H581.75l0.342-6.21h5.294L588.38,1174.674z"/>
	<path id="path2455" sodipodi:nodetypes="czccccccccczcccc" fill="#840F73" stroke="#000000" stroke-width="0.2026" d="
		M499.078,1307.92c1.915-0.054,6.365,4.33,5.809,11.354c-0.562,7.097-4.895,11.891-7.327,11.891l-10.782-0.002l0.313-4.694h3.932
		l0.917-13.836h-3.925l0.314-4.715L499.078,1307.92z M496.182,1326.428c1.757-0.011,4.863-2.735,5.117-7.326
		c0.255-4.587-2.653-6.46-4.214-6.46l-1.431-0.002l-0.906,13.785L496.182,1326.428z"/>
	<path id="path2457" sodipodi:nodetypes="ccccccccccccccccccccc" fill="#840F73" stroke="#000000" stroke-width="0.2026" d="
		M342.717,1312.633h-3.925l0.408-4.715h19.057l-0.779,9.266h-3.788l0.385-4.544h-7.642l-0.396,4.628h3.893l-0.396,4.641h-3.895
		l-0.387,4.52h7.655l0.39-4.604h3.791l-0.786,9.342h-19.116l0.407-4.693h3.933L342.717,1312.633z"/>
	<path id="path2459" sodipodi:nodetypes="ccccccccccccccccccc" fill="#840F73" stroke="#000000" stroke-width="0.2026" d="
		M398.715,1326.428l-0.372,4.737h-11.633l0.376-4.696h3.933l1.1-13.836h-3.925l0.377-4.715h19.057l-0.718,9.264h-3.788l0.354-4.542
		h-7.641l-0.365,4.626h3.892l-0.364,4.643h-3.895l-0.357,4.52H398.715z"/>
	<path id="path2461" sodipodi:nodetypes="ccccccccccccsccscccc" fill="#840F73" stroke="#000000" stroke-width="0.2026" d="
		M548.112,1321.89l-4.051,0.019l-0.268,4.52h3.969l-0.278,4.737h-11.633l0.283-4.696h3.931l0.826-13.836h-3.925l0.284-4.715h12.226
		c2.407,0.715,4.878,1.989,4.646,6.754C553.914,1319.015,551.265,1321.207,548.112,1321.89z M548.724,1317.266
		c0.937-0.027,1.578-0.583,1.68-2.435c0.095-1.735-0.583-2.16-1.231-2.191h-4.563l-0.274,4.626H548.724z"/>
	<path id="path2463" fill="#840F73" stroke="#000000" stroke-width="1.1232" d="M446.913,1307.966
		c-5.072,0-9.561,4.998-10.014,11.155c-0.453,6.171,3.313,11.17,8.4,11.17c5.087,0,9.559-4.999,9.998-11.17
		C455.735,1312.964,451.986,1307.966,446.913,1307.966z M446.662,1311.437c3.489,0,6.071,3.449,5.769,7.685
		c-0.303,4.241-3.383,7.684-6.879,7.684c-3.497,0-6.096-3.442-5.785-7.684C440.076,1314.886,443.173,1311.437,446.662,1311.437z"/>
	<path id="path2465" sodipodi:nodetypes="ccccccccccccccccc" fill="#840F73" stroke="#000000" stroke-width="0.5494" d="
		M635.264,1308.323h18.686l-0.408,9.136h-3.722l0.193-4.284h-3.626l-0.616,13.501h3.397l-0.209,4.646h-10.954l0.217-4.646h3.68
		l0.623-13.501h-3.862l-0.2,4.284h-3.628L635.264,1308.323z"/>
	<path id="path2467" sodipodi:nodetypes="ccccccccccccccccccccc" fill="#840F73" stroke="#000000" stroke-width="0.1749" d="
		M564.6,1406.406h-3.431l0.234-4.173h16.659l-0.444,8.199h-3.311l0.219-4.022h-6.679l-0.227,4.098h3.402l-0.225,4.105h-3.404
		l-0.222,3.999h6.69l0.222-4.073h3.313l-0.447,8.264h-16.703l0.234-4.152h3.436L564.6,1406.406z"/>
	<path id="path2471" sodipodi:nodetypes="ccccccccccccccc" fill="#840F73" stroke="#000000" stroke-width="0.1996" d="
		M302.846,1326.497h-7.284l1.219-13.218h3.731l0.492-5.352l-11.626-0.009l-0.497,5.321h3.635l-1.234,13.298h-3.642l-0.432,4.626
		h19.017l0.81-8.932h-3.801L302.846,1326.497z"/>
	<path id="path2473" sodipodi:nodetypes="czccccccccczcccc" fill="#840F73" stroke="#000000" stroke-width="0.1749" d="
		M367.003,1402.238c1.675-0.049,5.497,3.832,4.902,10.05c-0.601,6.275-4.462,10.517-6.586,10.517l-9.421-0.002l0.345-4.152h3.437
		l1.012-12.242h-3.431l0.347-4.172L367.003,1402.238z M364.188,1418.614c1.536-0.009,4.292-2.419,4.585-6.482
		c0.293-4.058-2.219-5.715-3.583-5.717l-1.25-0.003l-1.004,12.2L364.188,1418.614z"/>
	<path id="path2477" sodipodi:nodetypes="ccccccccccccccccccc" fill="#840F73" stroke="#000000" stroke-width="0.1749" d="
		M322.933,1418.612l-0.367,4.19h-10.165l0.369-4.152h3.436l1.083-12.244h-3.43l0.371-4.173h16.658l-0.71,8.199h-3.311l0.35-4.022
		h-6.68l-0.36,4.098h3.402l-0.359,4.105h-3.404l-0.352,3.999H322.933z"/>
	<path id="path2479" sodipodi:nodetypes="ccccccccccccsccscccc" fill="#840F73" stroke="#000000" stroke-width="0.1749" d="
		M408.271,1414.597l-3.541,0.016l-0.307,3.999h3.469l-0.32,4.19h-10.165l0.322-4.152h3.437l0.946-12.244h-3.431l0.324-4.173h10.687
		c2.092,0.631,4.231,1.761,3.952,5.977C413.389,1412.052,411.039,1413.99,408.271,1414.597z M408.882,1410.507
		c0.819-0.026,1.389-0.518,1.508-2.155c0.112-1.537-0.475-1.912-1.041-1.942h-3.989l-0.315,4.098H408.882z"/>
	<path id="path2481" fill="#840F73" stroke="#000000" stroke-width="0.9721" d="M609.662,1402.187c-4.445,0-8.283,4.433-8.561,9.897
		c-0.279,5.473,3.116,9.908,7.573,9.908c4.458,0,8.28-4.436,8.547-9.908C617.488,1406.62,614.107,1402.187,609.662,1402.187z
		 M609.508,1405.265c3.058,0,5.386,3.062,5.201,6.819c-0.186,3.763-2.818,6.813-5.881,6.813c-3.063,0-5.406-3.05-5.216-6.813
		C603.802,1408.327,606.451,1405.265,609.508,1405.265z"/>
	<path id="path2483" sodipodi:nodetypes="ccccccccccccccccc" fill="#840F73" stroke="#000000" stroke-width="0.4755" d="
		M477.964,1402.48h16.376l-0.528,8.108h-3.263l0.25-3.803h-3.178l-0.79,11.979h2.976l-0.27,4.118h-9.597l0.275-4.118h3.224
		l0.796-11.979h-3.384l-0.255,3.803h-3.179L477.964,1402.48z"/>
	<path id="path2487" sodipodi:nodetypes="ccccccccccccccc" fill="#840F73" stroke="#000000" stroke-width="0.1723" d="
		M450.945,1418.673h-6.366l0.837-11.697h3.261l0.337-4.736l-10.163-0.007l-0.341,4.71h3.178l-0.847,11.765h-3.183l-0.296,4.092
		h16.618l0.555-7.901h-3.322L450.945,1418.673z"/>
	<path id="path2489" sodipodi:nodetypes="ccccccccccccccccccccc" fill="#840F73" stroke="#000000" stroke-width="0.1329" d="
		M351.973,1503.289h-2.641l0.271-3.252h12.826l-0.521,6.392h-2.549l0.256-3.135h-5.142l-0.264,3.193h2.619l-0.262,3.199h-2.621
		l-0.257,3.117h5.148l0.26-3.175h2.55l-0.524,6.438H348.27l0.269-3.234h2.645L351.973,1503.289z"/>
	<path id="path2491" sodipodi:nodetypes="czccccccccczcccc" fill="#840F73" stroke="#000000" stroke-width="0.1329" d="
		M602.933,1500.037c1.288-0.039,4.323,2.989,4.013,7.835c-0.313,4.891-3.181,8.194-4.817,8.194l-7.249-0.002l0.165-3.234h2.644
		l0.484-9.541h-2.641l0.167-3.252H602.933z M601.159,1512.803c1.181-0.009,3.245-1.886,3.373-5.051
		c0.129-3.164-1.844-4.457-2.895-4.457l-0.963-0.002l-0.479,9.507L601.159,1512.803z"/>
	<path id="path2493" sodipodi:nodetypes="ccccccccccccccccccc" fill="#840F73" stroke="#000000" stroke-width="0.1329" d="
		M534.625,1512.803l-0.193,3.263h-7.821l0.193-3.234h2.644l0.569-9.543h-2.641l0.195-3.252h12.826l-0.373,6.392h-2.548l0.184-3.135
		h-5.141l-0.189,3.193h2.619l-0.188,3.199h-2.62l-0.185,3.117H534.625z"/>
	<path id="path2495" sodipodi:nodetypes="ccccccccccccsccscccc" fill="#840F73" stroke="#000000" stroke-width="0.1329" d="
		M321.132,1509.675l-2.726,0.011l-0.272,3.117h2.67l-0.283,3.263h-7.821l0.284-3.234h2.645l0.834-9.543h-2.641l0.286-3.252h8.228
		c1.605,0.492,3.242,1.371,2.989,4.66C325.094,1507.692,323.268,1509.203,321.132,1509.675z M321.637,1506.487
		c0.632-0.02,1.074-0.402,1.181-1.681c0.1-1.197-0.349-1.491-0.785-1.513h-3.07l-0.278,3.193H321.637z"/>
	<path id="path2497" fill="#840F73" stroke="#000000" stroke-width="0.7433" d="M426.37,1500.245c-3.442,0-6.498,3.479-6.814,7.764
		c-0.317,4.289,2.229,7.765,5.678,7.765c3.45,0,6.493-3.476,6.803-7.765C432.348,1503.723,429.813,1500.245,426.37,1500.245z
		 M426.193,1502.66c2.368,0,4.114,2.4,3.9,5.349c-0.214,2.947-2.31,5.342-4.681,5.342s-4.129-2.395-3.912-5.342
		C421.717,1505.06,423.826,1502.66,426.193,1502.66z"/>
	<path id="path2499" sodipodi:nodetypes="ccccccccccccccccc" fill="#840F73" stroke="#000000" stroke-width="0.3636" d="
		M561.939,1500.161h12.682l-0.342,6.356h-2.526l0.162-2.98h-2.461l-0.511,9.392h2.304l-0.175,3.227h-7.428l0.178-3.227h2.496
		l0.515-9.392h-2.621l-0.164,2.98h-2.461L561.939,1500.161z"/>
	<path id="path2505" fill="#840F73" stroke="#000000" stroke-width="0.3636" d="M384.512,1500.161h12.684l-0.266,3.455l-9.173,9.432
		h5.856l0.243-3.147h2.591l-0.481,6.255h-12.71l0.244-3.107l9.468-9.432h-6.009l-0.252,3.222h-2.718L384.512,1500.161z"/>
	<path id="path2507" sodipodi:nodetypes="ccccccccccccccc" fill="#840F73" stroke="#000000" stroke-width="0.131" d="
		M464.292,1512.851h-4.898l0.626-9.115h2.512l0.252-3.695l-7.824-0.004l-0.255,3.672h2.445l-0.633,9.172h-2.448l-0.221,3.186h12.785
		l0.417-6.157h-2.558L464.292,1512.851z"/>
	<path id="rect2511" fill="#1FB53B" stroke="#FFFFFF" stroke-width="0.2699" d="M274.391,979.833h431.551l-1.46,37.08H270.694
		L274.391,979.833z"/>
	<path id="rect2513" fill="#CC3333" stroke="#FFFFFF" stroke-width="0.2602" d="M289.196,1216.128h357.204l-2.122,45.93H284.856
		L289.196,1216.128z"/>
	<path id="text2665" d="M898.74,207.077h-3.105l0.295-20.392c-0.757,0.733-1.744,1.466-2.966,2.199
		c-1.221,0.733-2.316,1.283-3.287,1.649l0.049-3.086c1.744-0.838,3.272-1.854,4.587-3.047c1.313-1.192,2.247-2.349,2.8-3.469h1.994
		L898.74,207.077z"/>
	<path id="text2669" d="M898.909,437.357l-0.044,3.313h-17.334c-0.01-0.829,0.127-1.628,0.414-2.394
		c0.461-1.263,1.187-2.507,2.177-3.731s2.414-2.639,4.273-4.244c2.882-2.495,4.832-4.47,5.853-5.926
		c1.019-1.455,1.538-2.831,1.557-4.126c0.019-1.358-0.421-2.503-1.315-3.435c-0.896-0.933-2.075-1.398-3.536-1.398
		c-1.545,0-2.786,0.495-3.729,1.483c-0.941,0.99-1.432,2.36-1.472,4.112l-3.293-0.362c0.269-2.627,1.15-4.628,2.645-6.004
		c1.494-1.375,3.481-2.063,5.962-2.063c2.507,0,4.479,0.741,5.919,2.225c1.44,1.483,2.147,3.322,2.118,5.518
		c-0.016,1.118-0.244,2.216-0.688,3.297c-0.442,1.08-1.169,2.219-2.18,3.415s-2.685,2.838-5.025,4.927
		c-1.956,1.733-3.211,2.91-3.769,3.528c-0.558,0.619-1.021,1.241-1.388,1.866H898.909z"/>
	<path id="text2673" d="M878.748,606.095l3.309-0.484c0.347,2.055,0.968,3.535,1.866,4.443c0.896,0.906,2,1.36,3.309,1.36
		c1.554,0,2.874-0.592,3.961-1.774c1.088-1.183,1.644-2.646,1.668-4.391c0.022-1.664-0.453-3.035-1.428-4.114
		c-0.974-1.079-2.223-1.618-3.75-1.618c-0.623,0-1.4,0.134-2.332,0.402l0.414-3.174c0.219,0.027,0.396,0.04,0.531,0.04
		c1.403,0,2.672-0.402,3.807-1.204c1.134-0.803,1.713-2.041,1.736-3.712c0.019-1.323-0.373-2.417-1.178-3.286
		c-0.806-0.868-1.853-1.302-3.145-1.302c-1.281,0-2.354,0.441-3.219,1.323c-0.868,0.881-1.438,2.204-1.709,3.968l-3.283-0.642
		c0.441-2.419,1.385-4.291,2.832-5.619c1.446-1.327,3.229-1.991,5.35-1.991c1.461,0,2.804,0.343,4.024,1.03
		c1.222,0.687,2.149,1.624,2.785,2.812c0.636,1.189,0.943,2.452,0.926,3.787c-0.019,1.271-0.344,2.427-0.98,3.471
		c-0.636,1.044-1.57,1.874-2.801,2.489c1.582,0.402,2.804,1.236,3.665,2.502c0.863,1.267,1.281,2.852,1.256,4.756
		c-0.035,2.578-0.92,4.764-2.658,6.559c-1.739,1.794-3.916,2.693-6.536,2.693c-2.362,0-4.311-0.773-5.847-2.32
		C879.785,610.554,878.928,608.552,878.748,606.095L878.748,606.095z"/>
	<path id="text2677" d="M888.111,752.224l0.105-7.367h-11.897l0.056-3.457l12.794-19.841h2.742l-0.276,19.841h3.701l-0.046,3.457
		h-3.704l-0.103,7.367H888.111z M888.266,741.4l0.199-13.818l-8.781,13.818H888.266z"/>
	<path id="text2681" d="M874.598,853.878l3.598-0.347c0.235,1.99,0.83,3.487,1.785,4.49c0.953,1.006,2.115,1.507,3.483,1.507
		c1.649,0,3.055-0.708,4.216-2.122c1.16-1.416,1.757-3.29,1.789-5.625c0.032-2.22-0.491-3.969-1.568-5.25
		c-1.075-1.28-2.499-1.921-4.271-1.921c-1.101,0-2.099,0.285-2.993,0.853s-1.603,1.306-2.122,2.212l-3.201-0.474l2.95-16.221h13.808
		l-0.051,3.698h-11.086l-1.628,8.486c1.689-1.321,3.451-1.983,5.283-1.983c2.43,0,4.465,0.956,6.107,2.869
		c1.644,1.912,2.445,4.374,2.405,7.384c-0.039,2.868-0.808,5.35-2.306,7.443c-1.825,2.572-4.283,3.858-7.38,3.858
		c-2.536,0-4.595-0.81-6.173-2.43C875.665,858.69,874.783,856.546,874.598,853.878L874.598,853.878z"/>
	<path id="text2685" d="M891.648,926.599l-3.44,0.309c-0.286-1.561-0.705-2.692-1.259-3.399c-0.917-1.132-2.061-1.697-3.429-1.697
		c-1.101,0-2.071,0.354-2.913,1.058c-1.103,0.911-1.979,2.244-2.634,3.994c-0.655,1.754-1.021,4.25-1.096,7.494
		c0.854-1.459,1.891-2.543,3.104-3.252c1.216-0.706,2.482-1.06,3.802-1.06c2.306,0,4.254,0.976,5.847,2.928
		c1.595,1.955,2.37,4.484,2.329,7.585c-0.027,2.04-0.435,3.936-1.224,5.69c-0.788,1.754-1.854,3.098-3.204,4.032
		c-1.349,0.933-2.872,1.4-4.567,1.4c-2.89,0-5.229-1.228-7.013-3.679c-1.784-2.449-2.631-6.483-2.54-12.096
		c0.1-6.267,1.179-10.816,3.231-13.655c1.791-2.469,4.169-3.703,7.136-3.703c2.212,0,4.014,0.712,5.408,2.137
		C890.581,922.111,891.401,924.083,891.648,926.599L891.648,926.599z M877.319,940.582c-0.022,1.373,0.211,2.689,0.697,3.948
		c0.489,1.256,1.184,2.214,2.085,2.874c0.901,0.659,1.854,0.987,2.854,0.987c1.463,0,2.731-0.681,3.805-2.042
		c1.07-1.361,1.622-3.211,1.655-5.547c0.031-2.246-0.462-4.014-1.482-5.306c-1.02-1.291-2.316-1.937-3.895-1.937
		c-1.563,0-2.899,0.646-4.007,1.937C877.922,936.789,877.351,938.483,877.319,940.582L877.319,940.582z"/>
	<path id="text2689" d="M871.404,1065.816l0.063-3.967h18.569l-0.043,3.21c-1.859,2.282-3.714,5.314-5.563,9.099
		c-1.852,3.791-3.299,7.692-4.34,11.708c-0.748,2.831-1.246,5.936-1.494,9.313h-3.637c0.082-2.667,0.576-5.89,1.485-9.66
		c0.908-3.767,2.183-7.397,3.824-10.888c1.638-3.489,3.369-6.427,5.191-8.815H871.404z"/>
	<path id="text2693" d="M874.971,1181.847c-1.475-0.647-2.561-1.571-3.257-2.771c-0.697-1.2-1.031-2.636-1.006-4.308
		c0.041-2.522,0.836-4.641,2.384-6.357c1.55-1.715,3.587-2.571,6.114-2.571c2.541,0,4.573,0.877,6.096,2.629
		c1.524,1.757,2.27,3.896,2.236,6.419c-0.022,1.607-0.396,3.008-1.12,4.198c-0.727,1.191-1.816,2.113-3.272,2.761
		c1.781,0.693,3.128,1.817,4.042,3.365c0.914,1.55,1.357,3.4,1.328,5.554c-0.04,2.979-0.958,5.482-2.753,7.514
		c-1.796,2.031-4.137,3.049-7.023,3.049c-2.883,0-5.194-1.021-6.93-3.062c-1.736-2.036-2.578-4.578-2.528-7.62
		c0.036-2.263,0.547-4.157,1.534-5.685C871.8,1183.438,873.188,1182.4,874.971,1181.847L874.971,1181.847z M874.367,1174.626
		c-0.025,1.639,0.397,2.98,1.271,4.022c0.873,1.041,2.018,1.563,3.437,1.563c1.379,0,2.517-0.519,3.412-1.551
		c0.897-1.035,1.355-2.3,1.377-3.798c0.021-1.563-0.414-2.873-1.306-3.938c-0.892-1.063-2.012-1.593-3.361-1.593
		c-1.364,0-2.504,0.519-3.421,1.558C874.859,1171.931,874.389,1173.176,874.367,1174.626L874.367,1174.626z M872.964,1190.671
		c-0.019,1.219,0.204,2.399,0.671,3.541c0.469,1.142,1.175,2.024,2.123,2.65c0.947,0.629,1.973,0.941,3.075,0.941
		c1.713,0,3.139-0.659,4.274-1.975c1.133-1.316,1.714-2.988,1.745-5.016c0.026-2.058-0.523-3.76-1.65-5.104
		c-1.13-1.343-2.556-2.014-4.281-2.014c-1.684,0-3.089,0.663-4.217,1.992C873.576,1187.014,872.995,1188.676,872.964,1190.671
		L872.964,1190.671z"/>
	<path id="text2697" d="M867.607,1329.27l3.518-0.393c0.265,2.006,0.811,3.461,1.635,4.366c0.827,0.903,1.896,1.355,3.208,1.355
		c1.123,0,2.113-0.312,2.968-0.938c0.856-0.624,1.562-1.461,2.116-2.505c0.556-1.044,1.029-2.453,1.42-4.227
		c0.389-1.774,0.597-3.579,0.623-5.416c0.002-0.198,0.001-0.492-0.007-0.887c-0.75,1.411-1.764,2.556-3.039,3.433
		c-1.276,0.879-2.653,1.318-4.126,1.318c-2.46,0-4.526-1.085-6.193-3.251c-1.668-2.165-2.475-5.016-2.417-8.553
		c0.058-3.648,0.991-6.583,2.801-8.803c1.807-2.22,4.045-3.331,6.712-3.331c1.929,0,3.682,0.628,5.261,1.887
		c1.579,1.257,2.768,3.05,3.565,5.376c0.799,2.331,1.168,5.705,1.107,10.129c-0.062,4.608-0.524,8.282-1.387,11.018
		c-0.862,2.737-2.119,4.824-3.771,6.256c-1.653,1.434-3.574,2.149-5.769,2.149c-2.33,0-4.22-0.785-5.672-2.359
		C868.71,1334.325,867.859,1332.117,867.607,1329.27L867.607,1329.27z M882.784,1313.354c0.036-2.535-0.493-4.548-1.585-6.034
		c-1.092-1.488-2.418-2.229-3.982-2.229c-1.618,0-3.039,0.802-4.265,2.401c-1.225,1.601-1.855,3.678-1.896,6.229
		c-0.035,2.293,0.507,4.157,1.625,5.59c1.119,1.436,2.517,2.153,4.192,2.153c1.69,0,3.087-0.718,4.195-2.153
		C882.176,1317.878,882.748,1315.892,882.784,1313.354L882.784,1313.354z"/>
	<path id="path2719" d="M867.116,1430.344h-3.699l0.474-28.921c-0.905,1.037-2.086,2.076-3.544,3.115
		c-1.459,1.039-2.767,1.82-3.922,2.34l0.075-4.375c2.081-1.19,3.908-2.629,5.479-4.319c1.569-1.689,2.687-3.328,3.353-4.915h2.373
		L867.116,1430.344z M871.879,1412.088c0.066-4.364,0.484-7.871,1.256-10.527c0.771-2.653,1.885-4.697,3.346-6.137
		c1.46-1.438,3.28-2.155,5.462-2.155c1.609,0,3.014,0.396,4.218,1.188c1.202,0.795,2.19,1.941,2.961,3.438
		c0.771,1.497,1.37,3.321,1.793,5.473c0.423,2.156,0.611,5.061,0.564,8.72c-0.055,4.335-0.461,7.838-1.222,10.505
		c-0.76,2.672-1.871,4.735-3.335,6.194c-1.465,1.458-3.302,2.19-5.508,2.19c-2.904,0-5.168-1.283-6.788-3.848
		C872.688,1424.047,871.773,1419.031,871.879,1412.088L871.879,1412.088z M875.671,1412.088c-0.09,6.067,0.429,10.109,1.557,12.122
		c1.128,2.016,2.542,3.022,4.239,3.022c1.698,0,3.14-1.012,4.324-3.035c1.184-2.021,1.815-6.061,1.896-12.109
		c0.08-6.075-0.443-10.104-1.57-12.097c-1.126-1.991-2.549-2.986-4.269-2.986c-1.691,0-3.054,0.876-4.088,2.636
		C876.458,1401.883,875.761,1406.03,875.671,1412.088L875.671,1412.088z"/>
	<path id="path2713" d="M868.575,1527.425h-3.811l0.481-30.163c-0.93,1.084-2.147,2.165-3.648,3.249
		c-1.501,1.082-2.848,1.897-4.04,2.438l0.078-4.56c2.144-1.242,4.024-2.743,5.642-4.506c1.615-1.762,2.768-3.471,3.453-5.127h2.444
		L868.575,1527.425z M883.673,1527.425h-3.81l0.424-30.163c-0.93,1.084-2.143,2.165-3.642,3.249
		c-1.501,1.082-2.845,1.897-4.035,2.438l0.069-4.56c2.142-1.242,4.019-2.743,5.63-4.506c1.613-1.762,2.761-3.471,3.444-5.127h2.442
		L883.673,1527.425z"/>
	<path id="text2724" d="M998.29,203.94l0.005,3.083h-16.72c-0.023-0.772,0.099-1.516,0.362-2.229
		c0.429-1.176,1.109-2.333,2.048-3.473c0.936-1.139,2.291-2.456,4.059-3.95c2.745-2.323,4.599-4.161,5.561-5.516
		c0.964-1.354,1.443-2.635,1.442-3.841c-0.002-1.264-0.441-2.331-1.319-3.198c-0.877-0.868-2.021-1.301-3.431-1.301
		c-1.489,0-2.683,0.46-3.576,1.381c-0.895,0.92-1.349,2.196-1.36,3.828l-3.183-0.337c0.22-2.445,1.041-4.308,2.462-5.589
		c1.423-1.28,3.329-1.919,5.726-1.92c2.417,0,4.33,0.69,5.743,2.071c1.41,1.381,2.119,3.093,2.122,5.137
		c0.002,1.04-0.204,2.063-0.615,3.068c-0.411,1.006-1.095,2.065-2.053,3.178c-0.957,1.113-2.551,2.642-4.777,4.586
		c-1.861,1.613-3.057,2.708-3.585,3.283c-0.529,0.576-0.965,1.155-1.311,1.737H998.29z M1001.616,194.155
		c-0.007-3.078,0.294-5.552,0.903-7.425c0.608-1.872,1.517-3.315,2.724-4.33c1.206-1.015,2.726-1.521,4.558-1.522
		c1.352,0,2.539,0.28,3.562,0.841c1.022,0.56,1.869,1.368,2.537,2.424c0.671,1.057,1.197,2.345,1.583,3.863
		c0.386,1.52,0.585,3.568,0.597,6.149c0.015,3.057-0.278,5.526-0.878,7.407c-0.603,1.882-1.506,3.337-2.716,4.365
		c-1.209,1.028-2.74,1.542-4.593,1.542c-2.439,0-4.356-0.904-5.753-2.71C1002.466,202.586,1001.625,199.049,1001.616,194.155
		L1001.616,194.155z M1004.801,194.155c0.012,4.277,0.504,7.127,1.479,8.546c0.976,1.42,2.178,2.129,3.603,2.129
		c1.426,0,2.622-0.712,3.588-2.138c0.965-1.425,1.438-4.272,1.42-8.538c-0.018-4.284-0.514-7.127-1.488-8.533
		c-0.975-1.404-2.184-2.107-3.627-2.107c-1.422,0-2.554,0.62-3.399,1.86C1005.316,186.958,1004.79,189.883,1004.801,194.155
		L1004.801,194.155z M1019.85,207.469l7.169-26.927h2.475l-7.142,26.927H1019.85z M1047.412,203.94l0.029,3.083h-16.723
		c-0.027-0.772,0.088-1.516,0.349-2.229c0.417-1.176,1.09-2.333,2.019-3.473c0.93-1.139,2.271-2.456,4.03-3.95
		c2.727-2.323,4.566-4.161,5.519-5.516c0.952-1.354,1.423-2.635,1.412-3.841c-0.012-1.264-0.459-2.331-1.344-3.198
		s-2.032-1.301-3.441-1.301c-1.489,0-2.679,0.46-3.565,1.381c-0.888,0.92-1.331,2.196-1.33,3.828l-3.187-0.337
		c0.201-2.445,1.009-4.308,2.421-5.589c1.411-1.28,3.314-1.919,5.708-1.92c2.418,0,4.337,0.69,5.759,2.071
		c1.424,1.381,2.144,3.093,2.162,5.137c0.01,1.04-0.186,2.063-0.59,3.068c-0.403,1.006-1.082,2.065-2.029,3.178
		c-0.949,1.113-2.529,2.642-4.741,4.586c-1.849,1.613-3.036,2.708-3.56,3.283c-0.524,0.576-0.959,1.155-1.3,1.737H1047.412z
		 M1050.662,194.155c-0.031-3.078,0.252-5.552,0.848-7.425c0.594-1.872,1.49-3.315,2.69-4.33c1.197-1.015,2.712-1.521,4.546-1.522
		c1.352,0,2.541,0.28,3.567,0.841c1.026,0.56,1.878,1.368,2.557,2.424c0.677,1.057,1.215,2.345,1.61,3.863
		c0.398,1.52,0.613,3.568,0.646,6.149c0.038,3.057-0.236,5.526-0.822,7.407c-0.586,1.882-1.48,3.337-2.681,4.365
		c-1.201,1.028-2.728,1.542-4.581,1.542c-2.439,0-4.363-0.904-5.773-2.71C1051.578,202.586,1050.709,199.049,1050.662,194.155
		L1050.662,194.155z M1053.848,194.155c0.045,4.277,0.559,7.127,1.545,8.546c0.986,1.42,2.192,2.129,3.619,2.129
		c1.426,0,2.617-0.712,3.571-2.138c0.954-1.425,1.407-4.272,1.355-8.538c-0.051-4.284-0.569-7.127-1.555-8.533
		c-0.985-1.404-2.199-2.107-3.645-2.107c-1.42,0-2.549,0.62-3.384,1.86C1054.306,186.958,1053.804,189.883,1053.848,194.155
		L1053.848,194.155z M1070.294,194.155c-0.04-3.078,0.235-5.552,0.824-7.425c0.589-1.872,1.481-3.315,2.676-4.33
		c1.196-1.015,2.709-1.521,4.543-1.522c1.352,0,2.542,0.28,3.571,0.841c1.026,0.56,1.881,1.368,2.563,2.424
		c0.68,1.057,1.223,2.345,1.623,3.863c0.403,1.52,0.623,3.568,0.663,6.149c0.048,3.057-0.218,5.526-0.798,7.407
		c-0.58,1.882-1.471,3.337-2.668,4.365s-2.725,1.542-4.575,1.542c-2.44,0-4.369-0.904-5.783-2.71
		C1071.237,202.586,1070.357,199.049,1070.294,194.155L1070.294,194.155z M1073.479,194.155c0.058,4.277,0.581,7.127,1.573,8.546
		c0.99,1.42,2.199,2.129,3.626,2.129c1.426,0,2.615-0.712,3.564-2.138c0.951-1.425,1.394-4.272,1.329-8.538
		c-0.063-4.284-0.592-7.127-1.581-8.533c-0.989-1.404-2.206-2.107-3.65-2.107c-1.421,0-2.548,0.62-3.379,1.86
		C1073.917,186.958,1073.422,189.883,1073.479,194.155L1073.479,194.155z"/>
	<path id="text2728" d="M998.668,437.299l0.005,3.314h-17.332c-0.023-0.83,0.104-1.629,0.377-2.394
		c0.443-1.264,1.149-2.508,2.122-3.732c0.971-1.224,2.375-2.639,4.208-4.244c2.844-2.496,4.766-4.471,5.763-5.926
		c0.998-1.455,1.496-2.83,1.494-4.125c-0.001-1.358-0.456-2.503-1.367-3.436c-0.908-0.932-2.094-1.398-3.557-1.398
		c-1.543,0-2.779,0.494-3.706,1.483c-0.927,0.99-1.396,2.36-1.409,4.112l-3.299-0.362c0.228-2.627,1.079-4.628,2.553-6.004
		c1.474-1.375,3.45-2.063,5.934-2.063c2.504,0,4.487,0.742,5.951,2.225c1.463,1.483,2.197,3.322,2.201,5.519
		c0.002,1.117-0.211,2.217-0.638,3.296c-0.427,1.081-1.135,2.218-2.127,3.414c-0.993,1.196-2.644,2.838-4.952,4.927
		c-1.929,1.733-3.169,2.91-3.717,3.528c-0.549,0.619-1,1.241-1.358,1.866H998.668z M1002.115,426.787
		c-0.007-3.306,0.305-5.965,0.936-7.977c0.632-2.011,1.572-3.562,2.823-4.651c1.249-1.09,2.825-1.635,4.724-1.635
		c1.4,0,2.632,0.301,3.691,0.903c1.06,0.602,1.937,1.47,2.629,2.604c0.695,1.136,1.241,2.519,1.643,4.149
		c0.399,1.632,0.606,3.833,0.619,6.606c0.016,3.284-0.288,5.938-0.909,7.958c-0.623,2.021-1.56,3.586-2.814,4.69
		c-1.253,1.105-2.839,1.657-4.76,1.657c-2.529,0-4.517-0.971-5.964-2.912C1002.997,435.844,1002.126,432.045,1002.115,426.787
		L1002.115,426.787z M1005.417,426.787c0.012,4.596,0.523,7.658,1.534,9.182c1.012,1.525,2.258,2.288,3.735,2.288
		c1.479,0,2.718-0.766,3.719-2.297c1-1.531,1.491-4.589,1.471-9.173c-0.02-4.603-0.534-7.656-1.544-9.166s-2.264-2.264-3.759-2.264
		c-1.474,0-2.647,0.666-3.523,1.998C1005.949,419.055,1005.405,422.198,1005.417,426.787L1005.417,426.787z M1021.018,441.091
		l7.424-28.928h2.566l-7.397,28.928H1021.018z M1044.823,440.613h-3.22l-0.178-21.907c-0.766,0.787-1.772,1.574-3.021,2.362
		c-1.248,0.787-2.37,1.377-3.366,1.772l-0.023-3.315c1.787-0.902,3.348-1.992,4.682-3.273c1.331-1.28,2.272-2.523,2.82-3.727h2.065
		L1044.823,440.613z M1052.951,426.787c-0.033-3.306,0.261-5.965,0.876-7.977c0.615-2.011,1.544-3.562,2.787-4.651
		c1.241-1.09,2.811-1.635,4.712-1.635c1.399,0,2.633,0.301,3.697,0.903c1.063,0.602,1.946,1.47,2.65,2.604
		c0.702,1.136,1.261,2.519,1.672,4.149c0.413,1.632,0.638,3.833,0.672,6.606c0.04,3.284-0.242,5.938-0.85,7.958
		c-0.606,2.021-1.532,3.586-2.777,4.69c-1.244,1.105-2.827,1.657-4.747,1.657c-2.528,0-4.523-0.971-5.986-2.912
		C1053.904,435.844,1053.002,432.045,1052.951,426.787L1052.951,426.787z M1056.254,426.787c0.047,4.596,0.582,7.658,1.604,9.182
		c1.023,1.525,2.273,2.288,3.753,2.288c1.477,0,2.712-0.766,3.701-2.297c0.988-1.531,1.455-4.589,1.4-9.173
		c-0.055-4.603-0.594-7.656-1.615-9.166s-2.281-2.264-3.777-2.264c-1.474,0-2.643,0.666-3.507,1.998
		C1056.726,419.055,1056.207,422.198,1056.254,426.787L1056.254,426.787z M1073.3,426.787c-0.042-3.306,0.242-5.965,0.852-7.977
		c0.609-2.011,1.532-3.562,2.771-4.651c1.239-1.09,2.808-1.635,4.708-1.635c1.401,0,2.635,0.301,3.7,0.903
		c1.065,0.602,1.951,1.47,2.659,2.604c0.706,1.136,1.268,2.519,1.685,4.149c0.418,1.632,0.647,3.833,0.69,6.606
		c0.051,3.284-0.223,5.938-0.823,7.958c-0.6,2.021-1.522,3.586-2.763,4.69c-1.241,1.105-2.823,1.657-4.742,1.657
		c-2.528,0-4.527-0.971-5.995-2.912C1074.282,435.844,1073.369,432.045,1073.3,426.787L1073.3,426.787z M1076.602,426.787
		c0.063,4.596,0.606,7.658,1.635,9.182c1.028,1.525,2.281,2.288,3.76,2.288c1.477,0,2.71-0.766,3.693-2.297
		c0.984-1.531,1.441-4.589,1.373-9.173c-0.068-4.603-0.617-7.656-1.643-9.166c-1.027-1.51-2.289-2.264-3.786-2.264
		c-1.472,0-2.64,0.666-3.501,1.998C1077.051,419.055,1076.541,422.198,1076.602,426.787L1076.602,426.787z"/>
	<path id="text2732" d="M998.95,610.608l0.005,3.489h-17.786c-0.024-0.875,0.105-1.715,0.387-2.521
		c0.455-1.331,1.18-2.641,2.179-3.931c0.995-1.289,2.436-2.779,4.317-4.468c2.918-2.628,4.891-4.708,5.914-6.241
		c1.023-1.532,1.534-2.979,1.533-4.344c-0.002-1.43-0.47-2.636-1.404-3.618c-0.932-0.981-2.147-1.472-3.648-1.472
		c-1.584,0-2.853,0.521-3.803,1.562c-0.952,1.042-1.435,2.485-1.446,4.33l-3.386-0.381c0.233-2.767,1.107-4.874,2.62-6.322
		c1.512-1.447,3.54-2.17,6.088-2.17c2.569,0,4.605,0.78,6.107,2.341c1.501,1.562,2.254,3.498,2.258,5.811
		c0.002,1.177-0.216,2.334-0.653,3.47c-0.438,1.139-1.165,2.336-2.184,3.596c-1.019,1.259-2.712,2.989-5.081,5.188
		c-1.979,1.825-3.251,3.064-3.813,3.715c-0.563,0.651-1.026,1.307-1.395,1.965H998.95z M1002.486,599.538
		c-0.008-3.48,0.312-6.28,0.96-8.399c0.647-2.118,1.612-3.749,2.896-4.897c1.281-1.147,2.897-1.721,4.847-1.721
		c1.437,0,2.699,0.316,3.787,0.95c1.088,0.634,1.987,1.548,2.699,2.743c0.713,1.196,1.273,2.652,1.685,4.369
		c0.41,1.718,0.623,4.036,0.637,6.955c0.016,3.458-0.295,6.252-0.933,8.38c-0.639,2.128-1.601,3.775-2.888,4.938
		c-1.285,1.164-2.913,1.746-4.885,1.746c-2.595,0-4.634-1.022-6.12-3.066C1003.391,609.076,1002.499,605.075,1002.486,599.538
		L1002.486,599.538z M1005.874,599.538c0.014,4.84,0.538,8.064,1.576,9.67c1.037,1.605,2.316,2.409,3.832,2.409
		c1.518,0,2.789-0.807,3.816-2.419c1.026-1.613,1.528-4.833,1.508-9.66c-0.021-4.846-0.549-8.062-1.585-9.651
		s-2.323-2.383-3.858-2.383c-1.512,0-2.715,0.701-3.614,2.103C1006.42,591.396,1005.861,594.705,1005.874,599.538L1005.874,599.538z
		 M1021.885,614.602l7.614-30.462h2.633l-7.586,30.462H1021.885z M1033.915,588.484l-0.023-3.464h17.347l0.025,2.802
		c-1.688,1.99-3.356,4.636-5.006,7.939c-1.65,3.307-2.921,6.711-3.808,10.212c-0.641,2.471-1.041,5.178-1.201,8.123h-3.396
		c0.02-2.327,0.416-5.136,1.186-8.425c0.769-3.287,1.884-6.452,3.342-9.499c1.459-3.043,3.014-5.605,4.666-7.689H1033.915z
		 M1054.652,599.538c-0.035-3.48,0.265-6.28,0.896-8.399c0.631-2.118,1.582-3.749,2.858-4.897c1.272-1.147,2.884-1.721,4.833-1.721
		c1.438,0,2.702,0.316,3.795,0.95c1.091,0.634,1.998,1.548,2.72,2.743c0.722,1.196,1.294,2.652,1.718,4.369
		c0.425,1.718,0.655,4.036,0.691,6.955c0.043,3.458-0.247,6.252-0.869,8.38c-0.621,2.128-1.572,3.775-2.848,4.938
		c-1.277,1.164-2.901,1.746-4.872,1.746c-2.595,0-4.642-1.022-6.144-3.066C1055.631,609.076,1054.706,605.075,1054.652,599.538
		L1054.652,599.538z M1058.041,599.538c0.051,4.84,0.6,8.064,1.649,9.67c1.051,1.605,2.334,2.409,3.852,2.409
		c1.517,0,2.783-0.807,3.798-2.419c1.015-1.613,1.491-4.833,1.435-9.66c-0.058-4.846-0.611-8.062-1.66-9.651
		s-2.342-2.383-3.877-2.383c-1.512,0-2.711,0.701-3.598,2.103C1058.523,591.396,1057.991,594.705,1058.041,599.538L1058.041,599.538
		z"/>
	<path id="text2736" d="M999.173,748.591l0.006,3.633h-18.147c-0.025-0.91,0.107-1.785,0.395-2.626
		c0.463-1.386,1.203-2.749,2.222-4.09c1.016-1.342,2.486-2.893,4.405-4.653c2.979-2.735,4.989-4.9,6.034-6.496
		c1.044-1.595,1.565-3.104,1.563-4.523c-0.001-1.488-0.478-2.743-1.431-3.764c-0.952-1.021-2.192-1.533-3.724-1.533
		c-1.616,0-2.909,0.542-3.879,1.626c-0.972,1.085-1.464,2.587-1.477,4.507l-3.453-0.396c0.237-2.88,1.13-5.072,2.672-6.58
		c1.542-1.507,3.611-2.261,6.211-2.261c2.622,0,4.699,0.814,6.232,2.439c1.531,1.625,2.299,3.64,2.304,6.049
		c0.002,1.224-0.222,2.427-0.668,3.612c-0.445,1.184-1.188,2.431-2.228,3.743c-1.038,1.31-2.767,3.111-5.184,5.4
		c-2.02,1.9-3.317,3.19-3.892,3.868c-0.573,0.678-1.047,1.36-1.421,2.046H999.173z M1002.782,737.066
		c-0.009-3.623,0.317-6.539,0.978-8.743s1.646-3.904,2.955-5.098c1.308-1.194,2.957-1.792,4.945-1.792
		c1.467,0,2.754,0.33,3.864,0.99c1.109,0.66,2.027,1.611,2.753,2.855c0.729,1.246,1.301,2.76,1.72,4.548s0.636,4.202,0.65,7.24
		c0.017,3.6-0.3,6.508-0.95,8.722c-0.651,2.217-1.633,3.932-2.945,5.143c-1.313,1.21-2.975,1.815-4.984,1.815
		c-2.647,0-4.729-1.063-6.245-3.192C1003.706,746.995,1002.793,742.83,1002.782,737.066L1002.782,737.066z M1006.238,737.066
		c0.013,5.038,0.549,8.395,1.608,10.065c1.059,1.673,2.363,2.509,3.91,2.509c1.549,0,2.847-0.839,3.894-2.519
		s1.56-5.031,1.538-10.055c-0.021-5.045-0.561-8.393-1.618-10.046c-1.059-1.656-2.37-2.482-3.937-2.482
		c-1.542,0-2.771,0.73-3.688,2.19C1006.794,728.591,1006.224,732.037,1006.238,737.066L1006.238,737.066z M1022.576,752.747
		l7.765-31.709h2.687l-7.735,31.709H1022.576z M1034.75,744.165l3.532-0.335c0.275,1.928,0.895,3.379,1.857,4.351
		c0.961,0.973,2.116,1.46,3.466,1.46c1.62,0,2.988-0.686,4.101-2.057c1.111-1.372,1.655-3.188,1.637-5.451
		c-0.021-2.151-0.575-3.845-1.662-5.088c-1.089-1.242-2.505-1.861-4.249-1.861c-1.083,0-2.059,0.275-2.927,0.827
		c-0.869,0.55-1.547,1.265-2.039,2.143l-3.163-0.459l2.541-15.719h13.595l0.033,3.584h-10.915l-1.413,8.225
		c1.634-1.281,3.354-1.922,5.158-1.922c2.39,0,4.414,0.925,6.074,2.777c1.664,1.855,2.508,4.241,2.535,7.158
		c0.026,2.779-0.676,5.184-2.104,7.213c-1.738,2.492-4.13,3.737-7.177,3.737c-2.499,0-4.543-0.784-6.132-2.352
		C1035.907,748.828,1034.99,746.75,1034.75,744.165L1034.75,744.165z M1056.004,737.066c-0.035-3.623,0.271-6.539,0.914-8.743
		s1.614-3.904,2.914-5.098c1.299-1.194,2.942-1.792,4.932-1.792c1.467,0,2.757,0.33,3.872,0.99c1.113,0.66,2.039,1.611,2.775,2.855
		c0.735,1.246,1.321,2.76,1.753,4.548c0.435,1.789,0.67,4.202,0.707,7.24c0.046,3.6-0.249,6.508-0.884,8.722
		c-0.634,2.217-1.603,3.932-2.904,5.143c-1.303,1.21-2.959,1.815-4.971,1.815c-2.647,0-4.736-1.063-6.27-3.192
		C1057.008,746.995,1056.061,742.83,1056.004,737.066L1056.004,737.066z M1059.463,737.066c0.052,5.038,0.613,8.395,1.685,10.065
		c1.072,1.673,2.383,2.509,3.931,2.509c1.547,0,2.84-0.839,3.874-2.519s1.521-5.031,1.461-10.055
		c-0.061-5.045-0.626-8.393-1.696-10.046c-1.07-1.656-2.39-2.482-3.956-2.482c-1.541,0-2.766,0.73-3.669,2.19
		C1059.954,728.591,1059.411,732.037,1059.463,737.066L1059.463,737.066z"/>
	<path id="text2740" d="M999.352,858.933l0.006,3.75h-18.437c-0.026-0.94,0.109-1.844,0.4-2.711
		c0.472-1.429,1.224-2.837,2.258-4.223c1.033-1.385,2.525-2.985,4.476-4.802c3.025-2.822,5.069-5.057,6.13-6.703
		c1.062-1.646,1.591-3.202,1.589-4.666c-0.002-1.539-0.485-2.832-1.454-3.888c-0.967-1.054-2.229-1.581-3.782-1.581
		c-1.642,0-2.956,0.56-3.941,1.678c-0.987,1.12-1.486,2.67-1.5,4.65l-3.508-0.408c0.242-2.973,1.148-5.235,2.714-6.791
		c1.568-1.555,3.67-2.331,6.311-2.331c2.663,0,4.773,0.838,6.33,2.514c1.557,1.678,2.337,3.759,2.341,6.243
		c0.002,1.263-0.225,2.507-0.678,3.727c-0.453,1.224-1.207,2.51-2.263,3.864c-1.055,1.354-2.812,3.211-5.266,5.573
		c-2.052,1.961-3.371,3.293-3.953,3.992c-0.584,0.7-1.064,1.404-1.445,2.112H999.352z M1003.017,847.039
		c-0.008-3.739,0.322-6.746,0.994-9.022c0.671-2.274,1.67-4.028,3.001-5.261c1.329-1.233,3.004-1.848,5.023-1.848
		c1.49,0,2.798,0.34,3.926,1.019c1.127,0.682,2.06,1.663,2.797,2.946c0.74,1.285,1.321,2.849,1.748,4.694
		c0.425,1.846,0.646,4.337,0.66,7.472c0.018,3.716-0.304,6.717-0.964,9.004c-0.663,2.287-1.658,4.057-2.992,5.308
		c-1.333,1.248-3.021,1.875-5.063,1.875c-2.69,0-4.805-1.099-6.345-3.294C1003.957,857.287,1003.03,852.989,1003.017,847.039
		L1003.017,847.039z M1006.529,847.039c0.014,5.199,0.559,8.666,1.634,10.39c1.076,1.726,2.402,2.588,3.974,2.588
		c1.573,0,2.891-0.866,3.955-2.6c1.063-1.73,1.584-5.192,1.562-10.378c-0.021-5.205-0.569-8.659-1.645-10.368
		c-1.074-1.707-2.408-2.561-3.999-2.561c-1.566,0-2.814,0.753-3.745,2.26C1007.094,838.292,1006.515,841.848,1006.529,847.039
		L1006.529,847.039z M1023.128,863.225l7.885-32.729h2.728l-7.854,32.729H1023.128z M1046.529,862.683l-0.063-7.604h-12.088
		l-0.023-3.567l12.536-20.478h2.784l0.181,20.478h3.762l0.034,3.567h-3.765l0.067,7.604H1046.529z M1046.436,851.511l-0.118-14.261
		l-8.602,14.261H1046.436z M1057.087,847.039c-0.037-3.739,0.272-6.746,0.926-9.022c0.653-2.274,1.64-4.028,2.961-5.261
		c1.319-1.233,2.988-1.848,5.01-1.848c1.489,0,2.8,0.34,3.933,1.019c1.132,0.682,2.071,1.663,2.821,2.946
		c0.747,1.285,1.342,2.849,1.781,4.694c0.44,1.846,0.681,4.337,0.72,7.472c0.046,3.716-0.253,6.717-0.896,9.004
		s-1.628,4.057-2.95,5.308c-1.323,1.248-3.006,1.875-5.049,1.875c-2.689,0-4.813-1.099-6.37-3.294
		C1058.107,857.287,1057.146,852.989,1057.087,847.039L1057.087,847.039z M1060.601,847.039c0.054,5.199,0.625,8.666,1.714,10.39
		c1.089,1.726,2.419,2.588,3.992,2.588c1.572,0,2.886-0.866,3.936-2.6c1.051-1.73,1.545-5.192,1.482-10.378
		c-0.062-5.205-0.637-8.659-1.725-10.368c-1.088-1.707-2.428-2.561-4.02-2.561c-1.566,0-2.81,0.753-3.728,2.26
		C1061.097,838.292,1060.547,841.848,1060.601,847.039L1060.601,847.039z"/>
	<path id="text2744" d="M999.496,947.483l0.007,3.842h-18.67c-0.025-0.963,0.11-1.888,0.406-2.776
		c0.478-1.468,1.238-2.911,2.286-4.331c1.045-1.42,2.558-3.06,4.532-4.921c3.063-2.896,5.133-5.186,6.206-6.876
		c1.075-1.688,1.611-3.282,1.609-4.784c-0.002-1.574-0.492-2.904-1.474-3.985c-0.978-1.08-2.254-1.62-3.829-1.62
		c-1.661,0-2.993,0.572-3.99,1.721c-0.999,1.146-1.505,2.737-1.519,4.769l-3.552-0.42c0.244-3.047,1.161-5.368,2.748-6.962
		c1.588-1.594,3.716-2.392,6.39-2.392c2.697,0,4.832,0.859,6.409,2.578c1.575,1.72,2.366,3.854,2.37,6.399
		c0.002,1.298-0.228,2.57-0.687,3.824c-0.458,1.254-1.222,2.572-2.29,3.958c-1.068,1.389-2.848,3.295-5.333,5.717
		c-2.077,2.012-3.412,3.376-4.003,4.093c-0.591,0.719-1.078,1.44-1.463,2.167H999.496z M1003.207,935.288
		c-0.009-3.837,0.326-6.919,1.007-9.253c0.679-2.33,1.69-4.128,3.038-5.393c1.346-1.263,3.041-1.896,5.086-1.896
		c1.508,0,2.833,0.349,3.975,1.046c1.142,0.699,2.087,1.705,2.833,3.021c0.749,1.315,1.338,2.92,1.77,4.812
		c0.431,1.894,0.654,4.447,0.67,7.662c0.018,3.81-0.308,6.885-0.976,9.229c-0.671,2.347-1.68,4.161-3.03,5.44
		c-1.35,1.283-3.059,1.924-5.127,1.924c-2.724,0-4.864-1.127-6.425-3.379C1004.159,945.793,1003.219,941.386,1003.207,935.288
		L1003.207,935.288z M1006.762,935.288c0.014,5.33,0.565,8.882,1.655,10.649c1.089,1.77,2.432,2.654,4.022,2.654
		c1.594,0,2.929-0.889,4.005-2.664c1.077-1.776,1.604-5.323,1.582-10.64c-0.022-5.339-0.578-8.88-1.666-10.631
		c-1.088-1.752-2.438-2.626-4.05-2.626c-1.586,0-2.85,0.772-3.792,2.315C1007.334,926.319,1006.748,929.963,1006.762,935.288
		L1006.762,935.288z M1023.571,951.881l7.982-33.554h2.763l-7.951,33.554H1023.571z M1036.11,942.731l3.461-0.531
		c0.414,2.262,1.104,3.895,2.067,4.895c0.964,0.997,2.133,1.497,3.506,1.497c1.631,0,3.002-0.65,4.115-1.955
		c1.112-1.301,1.659-2.915,1.642-4.836c-0.016-1.833-0.549-3.344-1.598-4.531s-2.373-1.782-3.976-1.782
		c-0.653,0-1.466,0.147-2.438,0.442l0.357-3.496c0.231,0.028,0.417,0.043,0.559,0.043c1.473,0,2.795-0.44,3.967-1.325
		c1.17-0.885,1.747-2.248,1.73-4.09c-0.012-1.456-0.451-2.661-1.316-3.618c-0.864-0.957-1.976-1.434-3.332-1.434
		c-1.343,0-2.457,0.486-3.347,1.456c-0.889,0.971-1.453,2.426-1.695,4.369l-3.461-0.706c0.402-2.663,1.349-4.726,2.834-6.189
		c1.486-1.462,3.343-2.192,5.566-2.192c1.535,0,2.951,0.379,4.249,1.135c1.298,0.757,2.296,1.788,2.991,3.098
		c0.696,1.31,1.051,2.7,1.063,4.172c0.014,1.398-0.301,2.673-0.943,3.821c-0.643,1.15-1.603,2.064-2.877,2.743
		c1.668,0.442,2.971,1.361,3.906,2.756c0.938,1.395,1.414,3.144,1.435,5.239c0.026,2.839-0.85,5.249-2.63,7.227
		c-1.779,1.979-4.045,2.968-6.795,2.968c-2.479,0-4.543-0.854-6.193-2.559C1037.309,947.645,1036.36,945.438,1036.11,942.731
		L1036.11,942.731z M1057.957,935.288c-0.038-3.837,0.274-6.919,0.936-9.253c0.661-2.33,1.66-4.128,2.998-5.393
		c1.336-1.263,3.025-1.896,5.071-1.896c1.509,0,2.835,0.349,3.982,1.046c1.146,0.699,2.099,1.705,2.856,3.021
		c0.758,1.315,1.36,2.92,1.805,4.812c0.447,1.894,0.691,4.447,0.73,7.662c0.048,3.81-0.255,6.885-0.906,9.229
		c-0.651,2.347-1.648,4.161-2.986,5.44c-1.34,1.283-3.044,1.924-5.112,1.924c-2.724,0-4.874-1.127-6.451-3.379
		C1058.991,945.793,1058.015,941.386,1057.957,935.288L1057.957,935.288z M1061.513,935.288c0.056,5.33,0.634,8.882,1.737,10.649
		c1.103,1.77,2.45,2.654,4.043,2.654c1.592,0,2.921-0.889,3.984-2.664c1.063-1.776,1.563-5.323,1.5-10.64
		c-0.063-5.339-0.646-8.88-1.748-10.631c-1.101-1.752-2.458-2.626-4.07-2.626c-1.586,0-2.845,0.772-3.774,2.315
		C1062.015,926.319,1061.458,929.963,1061.513,935.288L1061.513,935.288z"/>
	<path id="text2748" d="M999.73,1091.398l0.006,4H980.69c-0.026-1.001,0.113-1.965,0.414-2.89c0.487-1.528,1.264-3.028,2.332-4.507
		c1.066-1.478,2.608-3.186,4.624-5.124c3.124-3.012,5.235-5.396,6.331-7.153c1.097-1.758,1.644-3.417,1.641-4.98
		c-0.001-1.639-0.501-3.021-1.502-4.147c-0.998-1.124-2.301-1.686-3.907-1.686c-1.695,0-3.054,0.598-4.07,1.79
		c-1.02,1.193-1.536,2.849-1.55,4.963l-3.623-0.437c0.25-3.171,1.186-5.585,2.804-7.245c1.62-1.659,3.791-2.489,6.519-2.489
		c2.751,0,4.93,0.895,6.538,2.684c1.607,1.791,2.414,4.01,2.418,6.659c0.002,1.35-0.231,2.675-0.7,3.979
		c-0.468,1.306-1.247,2.679-2.337,4.123c-1.09,1.442-2.903,3.427-5.439,5.947c-2.12,2.094-3.482,3.514-4.084,4.261
		c-0.602,0.746-1.1,1.498-1.492,2.253H999.73z M1003.515,1078.706c-0.009-3.991,0.332-7.199,1.025-9.629
		c0.692-2.425,1.725-4.295,3.1-5.611c1.372-1.314,3.103-1.973,5.188-1.973c1.538,0,2.89,0.362,4.055,1.089
		c1.164,0.727,2.128,1.774,2.89,3.144c0.765,1.369,1.365,3.04,1.806,5.008c0.439,1.971,0.668,4.627,0.685,7.973
		c0.019,3.965-0.314,7.166-0.995,9.606c-0.684,2.442-1.713,4.33-3.091,5.663c-1.376,1.336-3.119,2.001-5.229,2.001
		c-2.779,0-4.964-1.172-6.556-3.516C1004.486,1089.641,1003.528,1085.053,1003.515,1078.706L1003.515,1078.706z M1007.142,1078.706
		c0.015,5.548,0.577,9.245,1.688,11.086s2.481,2.761,4.104,2.761c1.626,0,2.987-0.923,4.086-2.772
		c1.099-1.849,1.636-5.541,1.612-11.074c-0.023-5.556-0.591-9.241-1.701-11.063c-1.109-1.822-2.487-2.732-4.13-2.732
		c-1.619,0-2.908,0.804-3.869,2.412C1007.725,1069.373,1007.127,1073.166,1007.142,1078.706L1007.142,1078.706z M1024.292,1095.976
		l8.139-34.919h2.818l-8.108,34.919H1024.292z M1055.682,1091.398l0.037,4h-19.049c-0.031-1.001,0.099-1.965,0.394-2.89
		c0.475-1.528,1.241-3.028,2.297-4.507c1.057-1.478,2.585-3.186,4.586-5.124c3.102-3.012,5.194-5.396,6.276-7.153
		s1.616-3.417,1.603-4.98c-0.015-1.639-0.525-3.021-1.535-4.147c-1.009-1.124-2.314-1.686-3.919-1.686
		c-1.695,0-3.049,0.598-4.058,1.79c-1.01,1.193-1.513,2.849-1.511,4.963l-3.628-0.437c0.228-3.171,1.144-5.585,2.749-7.245
		c1.607-1.659,3.772-2.489,6.497-2.489c2.753,0,4.939,0.895,6.56,2.684c1.623,1.791,2.444,4.01,2.47,6.659
		c0.012,1.35-0.21,2.675-0.668,3.979c-0.459,1.306-1.228,2.679-2.308,4.123c-1.078,1.442-2.875,3.427-5.392,5.947
		c-2.104,2.094-3.455,3.514-4.052,4.261c-0.596,0.746-1.089,1.498-1.477,2.253H1055.682z M1059.444,1086.524l3.709-0.37
		c0.296,2.124,0.951,3.723,1.963,4.793c1.015,1.07,2.229,1.605,3.643,1.605c1.704,0,3.136-0.754,4.298-2.265
		c1.159-1.51,1.725-3.511,1.695-6.004c-0.029-2.366-0.616-4.235-1.764-5.601c-1.146-1.367-2.634-2.05-4.465-2.05
		c-1.137,0-2.159,0.302-3.067,0.908c-0.909,0.608-1.62,1.396-2.134,2.362l-3.318-0.506l2.605-17.309h14.264l0.049,3.945h-11.451
		l-1.452,9.057c1.71-1.412,3.512-2.118,5.404-2.118c2.509,0,4.637,1.021,6.387,3.062c1.751,2.042,2.646,4.667,2.687,7.882
		c0.037,3.062-0.688,5.71-2.18,7.945c-1.815,2.743-4.32,4.114-7.52,4.114c-2.62,0-4.769-0.862-6.445-2.59
		C1060.678,1091.659,1059.709,1089.371,1059.444,1086.524L1059.444,1086.524z"/>
	<path id="text2752" d="M999.901,1196.841l0.007,4.116h-19.324c-0.025-1.032,0.115-2.022,0.421-2.975
		c0.495-1.571,1.281-3.115,2.366-4.638c1.082-1.521,2.647-3.278,4.69-5.272c3.17-3.102,5.313-5.555,6.424-7.362
		c1.112-1.811,1.666-3.518,1.665-5.127c-0.003-1.687-0.51-3.11-1.525-4.268c-1.013-1.158-2.333-1.735-3.963-1.735
		c-1.72,0-3.098,0.615-4.13,1.843c-1.034,1.229-1.558,2.932-1.57,5.107l-3.677-0.45c0.253-3.263,1.202-5.747,2.845-7.455
		s3.845-2.563,6.611-2.563c2.791,0,5.002,0.92,6.634,2.762c1.63,1.844,2.448,4.127,2.453,6.854c0.002,1.39-0.235,2.753-0.71,4.096
		c-0.476,1.342-1.266,2.755-2.371,4.242c-1.106,1.484-2.945,3.525-5.518,6.12c-2.151,2.155-3.533,3.616-4.145,4.385
		c-0.61,0.77-1.114,1.542-1.514,2.32H999.901z M1003.74,1183.779c-0.009-4.108,0.338-7.41,1.041-9.91
		c0.703-2.495,1.749-4.422,3.144-5.775c1.392-1.353,3.147-2.03,5.264-2.03c1.562,0,2.932,0.374,4.113,1.121s2.159,1.826,2.933,3.234
		c0.775,1.409,1.384,3.128,1.831,5.154c0.447,2.027,0.679,4.763,0.695,8.206c0.02,4.08-0.317,7.375-1.009,9.886
		c-0.694,2.514-1.738,4.457-3.135,5.828c-1.396,1.374-3.166,2.061-5.307,2.061c-2.818,0-5.036-1.207-6.65-3.619
		C1004.725,1195.033,1003.754,1190.311,1003.74,1183.779L1003.74,1183.779z M1007.419,1183.779
		c0.016,5.709,0.587,9.514,1.714,11.408c1.129,1.895,2.518,2.842,4.164,2.842c1.649,0,3.031-0.949,4.146-2.854
		c1.114-1.902,1.659-5.702,1.636-11.396c-0.025-5.718-0.601-9.512-1.728-11.386c-1.125-1.876-2.523-2.813-4.189-2.813
		c-1.643,0-2.95,0.827-3.925,2.479C1008.012,1174.173,1007.405,1178.076,1007.419,1183.779L1007.419,1183.779z M1024.819,1201.553
		l8.254-35.938h2.859l-8.223,35.938H1024.819z M1056.665,1196.841l0.038,4.116h-19.325c-0.031-1.032,0.1-2.022,0.399-2.975
		c0.48-1.571,1.259-3.115,2.328-4.638c1.073-1.521,2.623-3.278,4.652-5.272c3.146-3.102,5.27-5.555,6.367-7.362
		c1.099-1.811,1.64-3.518,1.626-5.127c-0.016-1.687-0.533-3.11-1.559-4.268c-1.022-1.158-2.349-1.735-3.977-1.735
		c-1.719,0-3.093,0.615-4.114,1.843c-1.025,1.229-1.535,2.932-1.532,5.107l-3.682-0.45c0.229-3.263,1.16-5.747,2.788-7.455
		c1.63-1.708,3.826-2.563,6.592-2.563c2.792,0,5.01,0.92,6.653,2.762c1.646,1.844,2.481,4.127,2.506,6.854
		c0.014,1.39-0.212,2.753-0.676,4.096c-0.465,1.342-1.246,2.755-2.34,4.242c-1.096,1.484-2.917,3.525-5.47,6.12
		c-2.134,2.155-3.505,3.616-4.109,4.385c-0.605,0.77-1.104,1.542-1.498,2.32H1056.665z M1060.402,1183.779
		c-0.041-4.108,0.282-7.41,0.966-9.91c0.684-2.495,1.717-4.422,3.1-5.775c1.382-1.353,3.13-2.03,5.248-2.03
		c1.561,0,2.935,0.374,4.122,1.121c1.186,0.747,2.171,1.826,2.956,3.234c0.785,1.409,1.409,3.128,1.871,5.154
		c0.463,2.027,0.717,4.763,0.759,8.206c0.051,4.08-0.261,7.375-0.935,9.886c-0.672,2.514-1.702,4.457-3.088,5.828
		c-1.386,1.374-3.148,2.061-5.291,2.061c-2.818,0-5.044-1.207-6.678-3.619C1061.476,1195.033,1060.466,1190.311,1060.402,1183.779
		L1060.402,1183.779z M1064.084,1183.779c0.059,5.709,0.658,9.514,1.8,11.408c1.143,1.895,2.538,2.842,4.187,2.842
		c1.647,0,3.023-0.949,4.123-2.854c1.1-1.902,1.615-5.702,1.548-11.396c-0.068-5.718-0.674-9.512-1.813-11.386
		c-1.142-1.876-2.546-2.813-4.215-2.813c-1.64,0-2.942,0.827-3.903,2.479C1064.599,1174.173,1064.024,1178.076,1064.084,1183.779
		L1064.084,1183.779z"/>
	<path id="path2706" sodipodi:nodetypes="ccsssccsssc" fill="#840F73" stroke="#000000" stroke-width="0.1009" d="M515.891,840.576
		l11.24-0.147c-1.656-12.364-10.623-21.563-22.046-21.563c-13.29,0-24.979,12.458-26.096,27.869
		c-1.122,15.479,8.838,28.093,22.234,28.093c11.374,0,21.529-9.094,24.955-21.32l-11.294-0.212
		c-2.498,5.313-7.402,9.002-12.796,9.002c-7.421,0-12.949-6.98-12.34-15.563c0.607-8.562,7.095-15.493,14.483-15.493
		C509.731,831.242,514.202,835.083,515.891,840.576z"/>
	<path id="path2804" sodipodi:nodetypes="ccsssccsssc" fill="#840F73" stroke="#000000" stroke-width="0.0759" d="M538.205,930.17
		l8.563-0.115c-1.29-9.543-8.146-16.649-16.854-16.649c-10.132,0-19.003,9.622-19.802,21.515
		c-0.802,11.933,6.82,21.646,17.015,21.646c8.655,0,16.362-7.003,18.943-16.424l-8.601-0.163c-1.888,4.095-5.613,6.938-9.72,6.938
		c-5.649,0-9.88-5.379-9.443-11.996c0.436-6.605,5.359-11.956,10.99-11.956C533.489,922.964,536.905,925.931,538.205,930.17z"/>
	<path id="path2806" sodipodi:nodetypes="ccsssccsssc" fill="#840F73" stroke="#000000" stroke-width="0.0509" d="M650.303,1180.028
		l5.945-0.081c-0.998-6.861-5.838-11.975-11.889-11.975c-7.041,0-13.09,6.922-13.504,15.471
		c-0.416,8.566,4.984,15.534,12.055,15.534c6.001,0,11.271-5.022,12.961-11.784l-5.971-0.119c-1.266,2.942-3.818,4.982-6.667,4.982
		c-3.92,0-6.917-3.86-6.69-8.613c0.227-4.746,3.584-8.596,7.495-8.596C646.949,1174.847,649.354,1176.979,650.303,1180.028z"/>
	<path id="path2808" sodipodi:nodetypes="ccsssccsssc" fill="#840F73" stroke="#000000" stroke-width="0.0372" d="M600.698,1316.588
		l4.43-0.064c-0.708-5.21-4.29-9.091-8.8-9.091c-5.249,0-9.791,5.257-10.138,11.745c-0.349,6.5,3.642,11.781,8.907,11.781
		c4.47,0,8.419-3.808,9.713-8.935l-4.448-0.089c-0.958,2.229-2.869,3.775-4.991,3.775c-2.92,0-5.134-2.928-4.943-6.533
		c0.191-3.603,2.711-6.523,5.626-6.523C598.223,1312.655,600.005,1314.275,600.698,1316.588z"/>
	<path id="path2810" sodipodi:nodetypes="ccsssccsssc" fill="#840F73" stroke="#000000" stroke-width="0.0322" d="M530.852,1409.896
		l3.875-0.057c-0.576-4.613-3.678-8.054-7.625-8.054c-4.591,0-8.607,4.656-8.963,10.404c-0.356,5.756,3.092,10.434,7.696,10.434
		c3.91,0,7.396-3.37,8.569-7.912l-3.89-0.079c-0.855,1.974-2.541,3.344-4.397,3.344c-2.554,0-4.467-2.592-4.271-5.786
		c0.196-3.189,2.424-5.778,4.974-5.778C528.719,1406.412,530.265,1407.847,530.852,1409.896z"/>
	<path id="path2812" sodipodi:nodetypes="ccsssccsssc" fill="#840F73" stroke="#000000" stroke-width="0.0246" d="M499.421,1506.374
		l2.998-0.044c-0.43-3.615-2.819-6.313-5.874-6.313c-3.553,0-6.674,3.652-6.965,8.153c-0.292,4.508,2.361,8.169,5.92,8.169
		c3.023,0,5.73-2.638,6.652-6.196l-3.008-0.059c-0.668,1.544-1.975,2.617-3.412,2.617c-1.975,0-3.447-2.031-3.285-4.531
		c0.161-2.5,1.892-4.526,3.865-4.526C497.782,1503.644,498.973,1504.769,499.421,1506.374z"/>
</g>
</svg>
