<?xml version="1.0" encoding="utf-8"?>
<!-- Generator: Adobe Illustrator 16.0.0, SVG Export Plug-In . SVG Version: 6.00 Build 0)  -->
<!DOCTYPE svg PUBLIC "-//W3C//DTD SVG 1.1//EN" "http://www.w3.org/Graphics/SVG/1.1/DTD/svg11.dtd">
<svg version="1.1" id="Layer_1" xmlns="http://www.w3.org/2000/svg" xmlns:xlink="http://www.w3.org/1999/xlink" x="0px" y="0px"
	 width="216.48px" height="140.16px" viewBox="0 0 216.48 140.16" enable-background="new 0 0 216.48 140.16" xml:space="preserve">
<g>
	<rect x="28.983" y="23.052" fill="#E71E25" width="158.4" height="84.029"/>
	<g>
		<g>
			<linearGradient id="SVGID_1_" gradientUnits="userSpaceOnUse" x1="108.1841" y1="22" x2="108.1841" y2="108.1338">
				<stop  offset="0" style="stop-color:#E7E7E7"/>
				<stop  offset="1" style="stop-color:#BDBEC0"/>
			</linearGradient>
			<path fill="url(#SVGID_1_)" d="M27,22v86.133h162.368V22H27z M77.056,42.703H60.06v17.444h13.508v8.945H60.06v18.339h16.996
				v8.945H50.22V33.758h26.836V42.703z M106.307,96.376l-7.961-24.779h-0.18l-8.051,24.779h-9.214l11.003-32.204L81.617,33.758
				h10.198l7.335,23.08h0.179l7.515-23.08h9.124l-10.287,30.415l11.003,32.204H106.307z M131.441,96.376h-9.841V33.758h9.841V96.376
				z M166.148,42.703h-10.287v53.673h-9.84V42.703h-10.288v-8.945h30.415V42.703z"/>
		</g>
	</g>
</g>
</svg>
