<?xml version="1.0" encoding="utf-8"?>
<!-- Generator: Adobe Illustrator 16.0.0, SVG Export Plug-In . SVG Version: 6.00 Build 0)  -->
<!DOCTYPE svg PUBLIC "-//W3C//DTD SVG 1.1//EN" "http://www.w3.org/Graphics/SVG/1.1/DTD/svg11.dtd">
<svg version="1.1" id="Layer_1" xmlns="http://www.w3.org/2000/svg" xmlns:xlink="http://www.w3.org/1999/xlink" x="0px" y="0px"
	 width="97.135px" height="47.163px" viewBox="0 0 97.135 47.163" enable-background="new 0 0 97.135 47.163" xml:space="preserve">
<g>
	<g>
		<path fill="#EABA77" d="M60.436,30.93l-9.558,2.515c0,0-4.192-2.181,0-9.056c4.191-6.874,20.289-20.624,20.289-20.624
			s4.695-6.204,9.558-1.509s5.868,5.868,5.868,5.868s8.721-0.503,9.559,3.857c0.838,4.359,0.67,8.886-1.174,11.234
			c-1.845,2.347,2.18,9.39-1.845,11.401C89.108,36.63,61.441,46.02,61.441,46.02s-12.134,3.423-7.713-5.533L60.436,30.93z"/>
		<linearGradient id="SVGID_1_" gradientUnits="userSpaceOnUse" x1="73.2666" y1="21.6587" x2="64.5482" y2="17.1877">
			<stop  offset="0" style="stop-color:#693815"/>
			<stop  offset="1" style="stop-color:#682F12;stop-opacity:0"/>
		</linearGradient>
		<path fill="url(#SVGID_1_)" d="M59.434,32.357c0,0,14.274-22.804,16.063-25.711c1.789-2.906-2.672-1.117-2.672-1.117
			S56.729,27.607,59.434,32.357z"/>
		<path fill="none" stroke="#D19232" stroke-miterlimit="10" d="M72.825,5.529c0,0,4.461-1.789,2.672,1.117
			c-1.789,2.907-16.063,25.711-16.063,25.711"/>
		<path fill="none" stroke="#D19232" stroke-miterlimit="10" d="M60.436,30.93l-9.558,2.515c0,0-4.192-2.181,0-9.056
			c4.191-6.874,20.289-20.624,20.289-20.624s4.695-6.204,9.558-1.509s5.868,5.868,5.868,5.868s8.721-0.503,9.559,3.857
			c0.838,4.359,0.67,8.886-1.174,11.234c-1.845,2.347,2.18,9.39-1.845,11.401C89.108,36.63,61.441,46.02,61.441,46.02
			s-12.134,3.423-7.713-5.533L60.436,30.93z"/>
		<g>
			<path fill="#D39C3F" d="M78.271,16.271l0.848,2.364l0.844-0.303l2.447-2.211C82.409,16.122,79.462,13.749,78.271,16.271z"/>
			<path fill="#D39C3F" d="M83.71,12.119l-1.415,1.155l0.413,0.506l2.111,1.14C84.819,14.919,85.729,12.322,83.71,12.119z"/>
			<path fill="#D39C3F" d="M80.212,21.687l0.463,1.29l0.461-0.166l1.334-1.206C82.47,21.605,80.862,20.311,80.212,21.687z"/>
			<path fill="#D39C3F" d="M83.372,19.237l0.262,0.73l0.262-0.094l0.757-0.685C84.652,19.189,83.739,18.456,83.372,19.237z"/>
			<path fill="#D39C3F" d="M83.976,23.983l0.443,1.239l0.443-0.158l1.282-1.16C86.145,23.904,84.6,22.66,83.976,23.983z"/>
			<path fill="#D39C3F" d="M86.997,18.768l-1.34,0.237l0.085,0.479l0.958,1.507C86.7,20.992,88.234,19.634,86.997,18.768z"/>
		</g>
		<path fill="none" stroke="#D19232" stroke-miterlimit="10" d="M90.821,8.378c0,0,8.416,9.163-3.342,19.197
			C75.721,37.612,52.985,44.96,52.985,44.96"/>
	</g>
	<g>
		<path fill="#EABA77" d="M35.337,40.913c0,0,11.828,3.898,9.263-2.531C42.034,31.951,26.463,5.287,23.187,5.223
			C19.909,5.159,6.961,11.627,5.773,11.55c-1.188-0.077-8.383,7.361-3.714,15.866c4.668,8.507,9.244,13.874,19.878,15.459
			C32.572,44.461,34.368,46.666,35.337,40.913z"/>
		<path fill="none" stroke="#D19232" stroke-miterlimit="10" d="M35.337,40.913c0,0,11.828,3.898,9.263-2.531
			C42.034,31.951,26.463,5.287,23.187,5.223c-2.936-0.057-13.626,5.124-16.68,6.151c-0.357,0.12-0.61,0.184-0.733,0.176
			c-1.188-0.077-8.383,7.361-3.714,15.866c4.668,8.507,9.244,13.874,19.878,15.459C32.572,44.461,34.368,46.666,35.337,40.913z"/>
		
			<linearGradient id="SVGID_2_" gradientUnits="userSpaceOnUse" x1="-8.7451" y1="7.4565" x2="22.2612" y2="7.4565" gradientTransform="matrix(0.9979 0.0648 -0.0648 0.9979 13.9006 20.5909)">
			<stop  offset="0" style="stop-color:#693815"/>
			<stop  offset="1" style="stop-color:#682F12;stop-opacity:0"/>
		</linearGradient>
		<path fill="url(#SVGID_2_)" stroke="#D19232" stroke-miterlimit="10" d="M9.112,16.39c0,0,11.168,19.816,17.053,22.212
			c5.884,2.395,9.034,3.926,8.528,4.673c0,0-3.637,6.159-14.233-6.386C10.134,24.663,3.742,14.17,6.104,11.973L9.112,16.39z"/>
		
			<linearGradient id="SVGID_3_" gradientUnits="userSpaceOnUse" x1="9.1987" y1="7.4399" x2="15.8968" y2="3.756" gradientTransform="matrix(0.9979 0.0648 -0.0648 0.9979 13.9006 20.5909)">
			<stop  offset="0" style="stop-color:#693815"/>
			<stop  offset="1" style="stop-color:#682F12;stop-opacity:0"/>
		</linearGradient>
		<path fill="url(#SVGID_3_)" d="M35.924,41.091c0,0-12.878-19.919-14.884-26.164c-2.005-6.246,2.086-4.189,2.086-4.189
			S37.867,39.941,35.924,41.091z"/>
		<path fill="none" stroke="#D19232" stroke-miterlimit="10" d="M23.126,10.738c0,0-4.092-2.057-2.086,4.189
			c2.005,6.245,14.884,26.164,14.884,26.164"/>
		<path fill="#D39C3F" d="M34.889,30.799c0,0,10.303,7.512,5.344-1.027C35.273,21.234,25.761,3.001,21.655,5.453
			c-4.106,2.451-8.209,2.196-7.338,6.277c4.744,22.244,6.124,12.375,6.147,12.077c0.268-3.465-1.733-13.053-1.538-13.586
			c1.072-2.923,2.723-2.993,4.428-0.96C25.532,11.858,28.902,24.683,34.889,30.799z"/>
		<g>
			<path fill="#D39C3F" d="M5.057,26.936l0.338,1.176l0.419-0.121l1.259-0.997C7.073,26.994,5.715,25.747,5.057,26.936z"/>
			<path fill="#D39C3F" d="M7.831,25.089l-0.724,0.516l0.185,0.261l0.99,0.619C8.282,26.485,8.807,25.25,7.831,25.089z"/>
			<path fill="#D39C3F" d="M5.83,29.629l0.184,0.642l0.229-0.064l0.687-0.545C6.929,29.662,6.189,28.98,5.83,29.629z"/>
			<path fill="#D39C3F" d="M7.443,28.538l0.104,0.364l0.13-0.038l0.39-0.308C8.067,28.556,7.646,28.169,7.443,28.538z"/>
			<path fill="#D39C3F" d="M7.586,30.864l0.177,0.616l0.221-0.063l0.66-0.523C8.644,30.894,7.932,30.242,7.586,30.864z"/>
			<path fill="#D39C3F" d="M9.219,28.424l-0.658,0.073l0.026,0.236l0.418,0.762C9.005,29.496,9.794,28.884,9.219,28.424z"/>
		</g>
		<g>
			<path fill="#D39C3F" d="M35.748,32.126l0.337,1.174l0.42-0.12l1.258-0.997C37.764,32.183,36.407,30.937,35.748,32.126z"/>
			<path fill="#D39C3F" d="M38.523,30.279l-0.724,0.518l0.185,0.258l0.99,0.62C38.974,31.674,39.498,30.441,38.523,30.279z"/>
			<path fill="#D39C3F" d="M36.521,34.819l0.185,0.642l0.229-0.065l0.686-0.545C37.621,34.85,36.88,34.17,36.521,34.819z"/>
			<path fill="#D39C3F" d="M38.134,33.728l0.105,0.363l0.13-0.037l0.389-0.31C38.758,33.745,38.338,33.36,38.134,33.728z"/>
			<path fill="#D39C3F" d="M38.277,36.054l0.178,0.616l0.22-0.063l0.66-0.524C39.334,36.083,38.623,35.43,38.277,36.054z"/>
			<path fill="#D39C3F" d="M39.911,33.616l-0.658,0.072l0.026,0.234l0.418,0.763C39.696,34.685,40.486,34.075,39.911,33.616z"/>
		</g>
	</g>
</g>
</svg>
