<?xml version="1.0" encoding="utf-8"?>
<!-- Generator: Adobe Illustrator 16.0.0, SVG Export Plug-In . SVG Version: 6.00 Build 0)  -->
<!DOCTYPE svg PUBLIC "-//W3C//DTD SVG 1.1//EN" "http://www.w3.org/Graphics/SVG/1.1/DTD/svg11.dtd">
<svg version="1.1" id="Layer_1" xmlns="http://www.w3.org/2000/svg" xmlns:xlink="http://www.w3.org/1999/xlink" x="0px" y="0px"
	 width="122px" height="108px" viewBox="0 0 122 108" enable-background="new 0 0 122 108" xml:space="preserve">
<g>
	<g>
		<rect x="4" y="4" fill="#B2DCBC" width="110" height="93"/>
		<path fill="#603C1F" d="M122,100H0V0h122V100z M11,94h100V7H11V94z"/>
	</g>
	<rect x="50" y="100" fill="#404040" width="18" height="8"/>
	<path fill="#B22E54" d="M105.084,42.219c0,17.383-21.026,37.78-44.011,51.428c-23.271-9.453-44.19-34.085-44.19-51.428
		c0-36.487,33.299-29.172,44.19-16.376C70.294,12.913,105.085,3.72,105.084,42.219z"/>
	<g>
		<path d="M75.127,51.755c3.699,0,6.699-3,6.699-6.699c0-3.7-3-6.699-6.699-6.699s-6.698,3-6.698,6.699
			C68.429,48.755,71.428,51.755,75.127,51.755z M92.26,77.592l-4.519-19.486c-0.244-1.173-2.663-4.513-12.614-4.513
			c-9.95,0-12.369,3.34-12.613,4.513l-4.52,19.486c-0.144,0.69,0.316,1.255,1.021,1.255h1.558c0.706,0,1.471-0.544,1.7-1.212
			l4.479-14.004l0.356,11.111l-4.001,10.979c-0.311,0.852,0.176,1.548,1.083,1.548h3.32l0.15,4.691
			c0.071,0.903,0.871,1.643,1.777,1.643h11.378c0.906,0,1.705-0.739,1.776-1.643l0.151-4.691h3.32c0.906,0,1.395-0.696,1.084-1.548
			l-4.002-10.979l0.356-11.111l4.479,14.004c0.229,0.668,0.995,1.212,1.7,1.212h1.558C91.944,78.847,92.404,78.282,92.26,77.592z"/>
		<path d="M43.545,50.85c4.008,0,7.258-3.25,7.258-7.257s-3.25-7.257-7.258-7.257s-7.257,3.249-7.257,7.257
			S39.537,50.85,43.545,50.85z M61.583,77.592l-4.247-20.391c-0.145-0.691-0.703-1.629-1.242-2.083c0,0-1.975-2.431-12.549-2.431
			c-10.573,0-12.548,2.431-12.548,2.431c-0.539,0.454-1.098,1.392-1.241,2.083l-4.248,20.391c-0.144,0.69,0.315,1.255,1.021,1.255
			h1.558c0.705,0,1.47-0.544,1.7-1.212l4.478-14.004L36.08,91.96c0.07,0.903,0.87,1.643,1.776,1.643h11.378
			c0.906,0,1.706-0.739,1.776-1.643l1.815-28.329l4.478,14.004c0.229,0.668,0.995,1.212,1.701,1.212h1.558
			C61.268,78.847,61.727,78.282,61.583,77.592z"/>
	</g>
</g>
</svg>
