<?xml version="1.0" encoding="utf-8"?>
<!-- Generator: Adobe Illustrator 16.0.0, SVG Export Plug-In . SVG Version: 6.00 Build 0)  -->
<!DOCTYPE svg PUBLIC "-//W3C//DTD SVG 1.1//EN" "http://www.w3.org/Graphics/SVG/1.1/DTD/svg11.dtd">
<svg version="1.1" id="Layer_1" xmlns="http://www.w3.org/2000/svg" xmlns:xlink="http://www.w3.org/1999/xlink" x="0px" y="0px"
	 width="108.213px" height="43.118px" viewBox="0 0 108.213 43.118" enable-background="new 0 0 108.213 43.118"
	 xml:space="preserve">
<g>
	<path fill-rule="evenodd" clip-rule="evenodd" fill="#FFFFFF" d="M17.855,10.916c9.887-0.398,18.49,1.117,26.567,2.836
		c3.521,0.749,6.618,1.898,10.747,1.642c2.08-0.129,4.171-0.741,6.269-1.119c6.171-1.112,12.527-2.282,19.479-2.537
		c-7.945,1.019-15.875,1.873-23.434,3.508c-2.666,0.576-5.213,0.558-7.985-0.075c-4.765-1.087-9.658-2.391-14.926-3.06
		C29.258,11.435,23.723,11.254,17.855,10.916z"/>
	<path fill-rule="evenodd" clip-rule="evenodd" d="M15.712,9.727C13.666,9.712,3.287,9.604,0.989,10.169
		c0.389-0.195,0.734,0.095,0.522,0.074c3.002,0.28,6.072-0.181,9.104-0.074c3.063,0.107,6.041,0.062,8.955,0.224
		c-0.283-0.114-0.672-0.124-1.044-0.149c9.274,0.017,18.093,1.293,26.194,2.911c3.422,0.684,6.327,2.047,10.299,1.717
		c1.72-0.144,3.466-0.654,5.224-0.971c5.22-0.94,10.699-1.994,16.493-2.463c9.995-0.809,21.382-0.758,30.822,0.224
		c-0.018-0.258-0.699-0.494-1.12-0.597c2.755-0.194,1.601,2.818,1.12,4.851c-0.239,1.012-0.382,2.476-0.896,2.911
		c-0.419,0.354-1.536,0.517-2.016,0.896c-1.87,1.479-2.762,5.216-3.731,7.463c-2.253,5.221-4.99,9.893-9.701,12.612
		c-2.337,1.349-5.229,2.291-8.135,2.985c-1.626,0.388-3.546,0.36-5.448,0.298c-1.291-0.042-2.394-0.138-3.656-0.373
		c-0.588-0.109-1.003-0.237-1.674-0.383c-0.644-0.141-1.086-0.318-1.623-0.485c-3.788-1.176-6.742-3.07-8.793-6.296
		c-1.633-2.566-2.797-5.818-3.807-9.104c-0.309-1.005-0.501-2.218-1.269-2.985c-1.162-1.162-4.623-1.375-6.045-0.299
		c-1.632,1.235-1.998,4.855-2.687,6.717c-1.701,4.599-3.926,8.368-8.358,10.373c-1.919,0.868-4.006,1.165-6.493,1.717
		c-0.262,0.059-0.767,0.129-1.045,0.149c-1.402,0.104-2.684,0.07-4.104-0.075c-1.502-0.152-2.148-0.219-3.656-0.597
		c-0.208-0.052-0.614-0.167-0.821-0.224c-1.328-0.365-2.738-0.678-3.955-1.194c-7.363-3.123-10.608-9.943-13.732-17.463
		c-0.558-1.344-1.351-3.371-2.537-4.18c-0.425-0.289-1.522-0.423-1.94-0.896c-0.382-0.432-0.606-2.012-0.82-2.836
		c-0.271-1.043-0.713-2.055-0.598-3.06c0.05-0.433,0.418-1.337,0.821-1.567c0.439-0.251,0.876-0.08,1.717-0.298
		C3.589,9.453,4.665,8.616,5.69,8.08c6.408-3.349,12.711-6.427,21.568-7.388c1.394-0.151,2.765-0.563,4.179-0.672
		c2.979-0.228,4.496,1.537,6.12,3.06c3.453,3.239,6.349,5.832,9.254,9.776c-1.736-0.17-3.619-0.662-5.522-1.045
		c-0.613-0.123-1.349-0.138-1.791-0.373c-0.649-0.344-1.065-1.412-1.493-2.015c-1.039-1.467-1.993-2.585-2.985-4.03
		c-0.742-1.083-1.217-2.469-3.357-2.238c-0.868,0.093-1.759,0.592-2.314,0.97c-1.148,0.781-2.476,2.033-3.209,2.985
		c0.023-0.029,0.044,0.101,0,0.149c-0.228,0.253-0.902,1.076-1.343,1.343c-0.485,0.294-1.283,0.424-2.015,0.598
		c-0.653,0.154-1.364,0.438-2.016,0.522c-1.394,0.181-3.057,0.063-4.633,0.009C16.119,9.73,15.923,9.729,15.712,9.727z
		 M34.572,12.11c5.268,0.669,10.161,1.973,14.926,3.06c2.772,0.633,5.319,0.651,7.985,0.075c7.559-1.635,15.488-2.489,23.434-3.508
		c-6.951,0.255-13.308,1.425-19.479,2.537c-2.098,0.378-4.188,0.99-6.269,1.119c-4.129,0.257-7.227-0.893-10.747-1.642
		c-8.077-1.719-16.681-3.234-26.567-2.836C23.723,11.254,29.258,11.435,34.572,12.11z M33.229,13.975
		c0.025,0.002,0.051-0.002,0.075,0c-0.486-0.057-1.653-0.156-2.538-0.224c-4.644-0.352-9.348-0.697-14.403-0.522
		c-4.033,0.14-7.066,0.369-7.089,4.254c-0.021,3.587,1.015,6.966,2.164,10c1.309,3.457,2.875,6.292,5.447,8.359
		c0.27,0.216,0.529,0.602,0.746,0.746c1.128,0.748,2.724,1.369,4.329,1.865c4.639,1.436,11.627,2.068,16.194,0.075
		c4.525-1.975,6.489-5.966,7.612-11.419c0.746-3.624,1.535-8.29-1.403-10.022c-0.23-0.135-0.493-0.304-0.761-0.425
		c-0.4-0.182-0.592-0.297-0.896-0.448C40.818,15.271,35.871,14.176,33.229,13.975z M72.856,14.647
		c-3.854,0.578-8.264,1.404-10.299,3.135c-0.384,0.326-0.897,0.903-1.269,1.791c-0.549,1.314-0.359,3.083-0.224,4.403
		c0.14,1.361,0.411,2.744,0.671,3.881c1.659,7.233,5.373,11.657,12.986,12.537c5.158,0.597,10.049,0.019,14.104-1.791
		c3.864-1.724,6.01-4.849,7.612-8.731c0.752-1.82,1.433-3.955,1.865-6.269c0.374-1.995,1.005-5.458,0.225-7.239
		c-1.335-3.049-9.008-2.786-12.985-2.612C81.055,13.948,77.235,13.991,72.856,14.647z M3.303,14.573
		c0.068-0.031,0.227,0.02,0.224,0.074c-0.393-0.02-0.695,0.051-0.97,0.149c0.97,0.942,3.512,1.541,5,0.821
		C6.919,14.742,4.406,14.08,3.303,14.573z M100.619,16.587c1.479,0.721,4.129,0.216,5.074-0.746
		C104.267,15.243,101.258,15.28,100.619,16.587z"/>
	<path fill-rule="evenodd" clip-rule="evenodd" d="M105.992,10.841c-4.998-0.157-10.53-0.598-16.045-0.598
		c-2.173,0-4.906,0.486-6.344-0.224C82.93,9.688,82.469,9,81.887,8.378c-1.42-1.515-3.561-3.551-6.194-3.806
		c-2.109-0.205-2.871,0.902-3.88,2.089c-1.102,1.295-2.023,2.24-3.135,3.582c-0.478,0.577-0.973,1.535-1.493,1.792
		c-0.461,0.227-1.266,0.184-1.94,0.298c-1.803,0.307-3.836,0.81-5.597,0.971c0.229-1.646,1.603-2.607,2.687-3.582
		c2.17-1.952,4.463-3.819,6.94-5.598c1.611-1.156,3.087-2.472,5.373-2.687c1.527-0.144,3.004,0.359,4.627,0.597
		c1.555,0.228,3.192,0.389,4.479,0.598c2.714,0.439,5.362,1.007,7.91,1.865c2.567,0.865,4.998,1.888,7.313,2.985
		C101.383,8.623,103.697,9.79,105.992,10.841z"/>
	<path fill-rule="evenodd" clip-rule="evenodd" fill="#FFFFFF" d="M7.557,15.618c-1.488,0.72-4.03,0.121-5-0.821
		c0.274-0.099,0.577-0.169,0.97-0.149c0.003-0.055-0.155-0.105-0.224-0.074C4.406,14.08,6.919,14.742,7.557,15.618z"/>
	<path fill-rule="evenodd" clip-rule="evenodd" fill="#FFFFFF" d="M105.693,15.841c-0.945,0.962-3.596,1.467-5.074,0.746
		C101.258,15.28,104.267,15.243,105.693,15.841z"/>
</g>
</svg>
