<?xml version="1.0" encoding="utf-8"?>
<!-- Generator: Adobe Illustrator 16.0.0, SVG Export Plug-In . SVG Version: 6.00 Build 0)  -->
<!DOCTYPE svg PUBLIC "-//W3C//DTD SVG 1.1//EN" "http://www.w3.org/Graphics/SVG/1.1/DTD/svg11.dtd">
<svg version="1.1" id="Layer_1" xmlns="http://www.w3.org/2000/svg" xmlns:xlink="http://www.w3.org/1999/xlink" x="0px" y="0px"
	 width="133.047px" height="156.981px" viewBox="0 0 133.047 156.981" enable-background="new 0 0 133.047 156.981"
	 xml:space="preserve">
<g id="globe">
	<g>
		<rect x="63.645" y="131.883" fill="#0F303F" width="14.26" height="15.359"/>
		<g>
			<path fill="#2D5972" d="M119.353,100.707c-1.458,1.84-3.036,3.627-4.743,5.333c-24.208,24.214-63.463,24.214-87.671-0.005
				c-24.215-24.203-24.215-63.461,0-87.666c1.702-1.714,3.496-3.28,5.339-4.752l-6.251-6.25c-1.822,1.492-3.6,3.088-5.302,4.796
				C-6.909,39.797-6.909,84.606,20.729,112.249c27.64,27.637,72.445,27.637,100.088,0c1.703-1.704,3.299-3.47,4.795-5.295
				L119.353,100.707z"/>
		</g>
		<polygon fill="#0F303F" points="34.913,24.297 39.179,20.034 22.695,3.542 18.43,7.813 		"/>
		<path fill="#0F303F" d="M14.605,5.485c0-3.026,2.46-5.485,5.491-5.485c3.027,0,5.481,2.459,5.481,5.485
			c0,3.031-2.454,5.485-5.481,5.485C17.066,10.971,14.605,8.517,14.605,5.485z"/>
		<path fill="#2D5972" d="M105.906,156.981c-0.216-5.414-4.656-9.739-10.123-9.739h-49.33c-5.471,0-9.915,4.325-10.125,9.739
			H105.906z"/>
		<polygon fill="#0F303F" points="112.741,93.868 108.469,98.128 124.956,114.619 129.224,110.351 		"/>
		<circle fill="#0F303F" cx="127.562" cy="112.678" r="5.485"/>
	</g>
	<path fill="#2075BC" d="M33.514,24.546c-20.73,20.736-20.73,54.478-0.001,75.211c20.737,20.737,54.47,20.722,75.205-0.007
		c20.732-20.731,20.738-54.464,0-75.201C87.985,3.817,54.25,3.817,33.514,24.546z"/>
	<g>
		<g>
			<path fill="#19B0BF" d="M118.562,38.678c0.05,0.107,0.055,0.268,0.004,0.35c-0.051,0.085,0.176,0.375,0.237,0.437
				c0.057,0.068,0.876,1.817,1.697,3.876c0.813,2.049,2.262,7.784,2.203,7.996c-0.066,0.21-0.237,1.115-0.489,1.555
				c-0.252,0.419-0.874,1.573-1.068,1.588c-0.194,0.018-1.024-0.083-1.438-0.708c0,0,0,0-0.739-0.604
				c-0.375-0.302-0.375-0.302-0.375-0.302c-0.406-0.032-1.08-0.408-1.51-0.834c-0.418-0.42-1.441-1.505-1.302-1.768
				c0.14-0.266-0.034-1.608-0.46-2.384c0,0,0,0-0.066-0.683c-0.035-0.551-0.035-0.551-0.035-0.551
				c0.372,0.107,0.512,0.021,0.295-0.2c-0.214-0.212-0.158-0.976-0.057-1.262c0.097-0.295,0.705-0.752,0.554-1.084
				c-0.147-0.329-0.457-1.472-0.333-1.783c0.118-0.313,0.455-1.277,0.286-1.466c-0.161-0.183,0.206-1.041,0.671-1.528
				C117.096,38.839,118.511,38.571,118.562,38.678z"/>
		</g>
		<g>
			<path fill="#19B0BF" d="M19.989,75.926c-1.065-4.84-1.85-8.83-1.733-8.869c0.118-0.04,0.386-0.421,0.326-0.745
				c-0.06-0.331,0.794-0.999,0.983-0.845c0.183,0.147,0.422-0.207,0.153-0.719c-0.272-0.504-1.177-0.819-1.235-0.97
				c-0.052-0.152-0.3-0.606-0.052-0.654c0.244-0.043,1.199-0.538,1.634-0.422c0.432,0.116,1.558,0.322,1.578,0.588
				c0.023,0.271,0.689,0.283,0.661-0.018c-0.029-0.299-0.456-1.024-0.6-0.925c-0.143,0.106-1.05-0.213-1.698-0.849
				c-0.644-0.633-0.776-2.314-0.535-2.379c0.237-0.059,1.024,0.049,1.153-0.489c0.121-0.544,1.166-0.221,1.301-0.484
				c0.127-0.26,1.019-0.96,1.215-1.008c0.19-0.043,0.926,0.27,1.137,0.062c0.209-0.206,0.98-0.681,1.262-0.582
				c0.278,0.092,1.008,0.492,0.993,0.676c-0.018,0.172,0.469,0.567,0.762,0.478c0.292-0.097,1.168-0.407,1.327-0.27
				c0.154,0.134,0.585-0.047,0.641,0.13c0.063,0.183,0.595,0.827,0.539,0.995c-0.064,0.165,0.075,0.651-0.22,0.646
				c-0.299-0.008-0.867,0.467-0.642,0.512c0.227,0.046,0.948,0.7,1.071,1.041c0.13,0.347,0.719,1.181,0.062,1.262
				c-0.667,0.08-2.624,0.766-2.899,1.067c-0.274,0.302-0.68-0.575-0.231-1.772c0,0,0,0-0.945-1.206c-0.564-0.7-0.564-0.7-0.564-0.7
				c-0.531,0.103-1.237,0.254-1.575,0.344c-0.33,0.087-0.607,0.898-0.878,0.974c-0.267,0.084-0.775,0.631-0.581,0.564
				c0.194-0.067,0.881,0.181,1.087,0.467c0.208,0.285,0.828,1.396,0.646,1.784c-0.177,0.396-0.87,1.797-0.736,1.847
				c0.125,0.048,0.424,0.709,0.369,1.129c-0.058,0.415,0.19,1.855,0.242,2.227c0.055,0.378,0.047,1.462,0.189,1.596
				c0.151,0.132,0.126,0.38,0.367,0.308c0.246-0.082,1.323,0.69,1.758,0.569c0.449-0.115,1.643-0.287,1.675-0.467
				c0.028-0.185,0.555-0.174,0.495-0.366c-0.053-0.189,0.796-0.063,1.218,0.239c0.423,0.3,1.208,0.346,0.865-0.104
				c-0.339-0.452-0.562-1.456-0.632-1.317c-0.068,0.138-0.54-0.157-0.378-0.297c0.157-0.131,0.111-1-0.336-1.615
				c-0.438-0.611-2.423-2.509-2.388-2.656c0.03-0.146,0.616-0.445,0.841-0.379c0.233,0.08,0.626-0.529,0.979-0.438
				c0.339,0.091,1.16-0.632,1.421-0.358c0.279,0.27,1.136,0.848,1.324,0.694c0.185-0.156,0.579-0.589,0.45-0.749
				c-0.127-0.154,0.007-0.42,0.465-0.25c0.458,0.172,1.742,0.25,1.852,0.384c0.126,0.131,0.529,0.478,0.873,0.469
				c0.353-0.01,1.339,0.553,1.377,0.369c0.03-0.188,0.805-0.082,1.091,0.18c0.282,0.263,1.642,1.556,1.947,1.705
				c0.306,0.14,1.216,0.024,1.386,0.225c0.177,0.208,0.458,0.741,0.153,0.852c-0.303,0.111-0.429,0.625-0.552,0.563
				c-0.134-0.065-0.538-0.166-0.623,0.054c-0.072,0.218-0.807,0.277-0.933-0.298c-0.117-0.576-0.759-1.669-0.819-1.104
				c-0.061,0.572-1.082,1.214-0.92,1.275c0.15,0.047,0.469,0.693,0.33,0.937c-0.137,0.238,0.329,0.893,0.618,0.873
				c0.302-0.021,1.023,0.223,0.956,0.648c-0.062,0.408-0.346,1.377-0.3,1.235c0.045-0.142-0.61-0.188-0.849,0.294
				c-0.228,0.475-0.282,1.79-0.083,1.822c0.198,0.026,0.671,0.846,0.547,1.189c-0.127,0.332-0.386,1.538-0.319,1.914
				c0.067,0.373,1.208,1.303,1.163,1.438c-0.04,0.154-0.279,0.595-0.13,0.683c0.16,0.089,0.457,1.212,0.284,1.817
				c-0.171,0.604,0.622,2.354,0.813,2.432c0.213,0.07,0.879,0.405,1.032,0.642c0.161,0.238,0.868,1.142,0.48,1.27
				c-0.385,0.131-1.792-0.561-2.15-0.43c-0.359,0.142-1.272,0.902-1.24,1.005c0.022,0.101-0.032,0.453-0.398,0.533
				c-0.371,0.088-1.33,1.17-1.388,1.481c-0.062,0.313,0.266,2.145,1.109,3.366c0.847,1.223,2.994,0.191,2.834-0.12
				c-0.162-0.307-0.209-1.229-0.009-1.385c0.196-0.157,1.116-0.638,1.393-0.223c0.279,0.417,1.329,1.25,1.693,0.924
				c0.373-0.332,1.723,0.117,2.092,0.649c0.371,0.525,1.701,1.151,1.731,0.885c0.038-0.273,0.412-1.031,0.629-1.107
				c0.221-0.076,0.862,0.026,0.889-0.388c0.032-0.425-0.29-1.725-0.203-1.915c0.098-0.19,0.205-0.68,0.432-0.644
				c0.229,0.045,0.707-0.263,0.573-0.446c-0.127-0.18,0.607-0.623,0.971-0.647c0.373-0.018,1.37,0.227,1.363,0.102
				c-0.001-0.119,0.496-0.539,0.977-0.663c0.49-0.121,2.075-0.498,2.46-0.302c0.386,0.181,2.066,0.072,2.914-0.104
				c0.845-0.175,2.028,0.699,2.227,0.662c0.199-0.036,0.967-0.535,1.3-0.701c0.332-0.165,1.382-0.219,1.54-0.381
				c0.163-0.16,0.882-0.712,1.24-0.866c0.365-0.148,1.348-0.158,1.344-0.384c-0.004-0.227,0.958-0.13,1.523,0.158
				c0,0,0,0,0.548,0.552c0.346,0.342,0.346,0.342,0.346,0.342c0.222,0.372,0.509,0.781,0.632,0.938
				c0.125,0.146,0.302,1.204,0.319,1.48c0.027,0.268,0.485,1.105,0.485,1.209c0.008,0.101-0.111,0.5,0.034,0.682
				c0.149,0.185,0.592,1.105,1.037,1.665c0.456,0.562,1.645,2.19,1.566,2.402c-0.088,0.207-0.488,1.415-0.423,1.693
				c0.057,0.272,0.291,1.157,0.475,1.347c0.189,0.185,0.651,1.006,0.606,1.392c-0.036,0.393,0.776,1.696,0.762,1.917
				c-0.012,0.215,0.213,0.877,0.142,0.949c-0.071,0.074-0.137,0.422-0.32,0.606c-0.18,0.179-0.421,0.775-0.112,0.893
				c0.317,0.125,1.145,1.301,1.122,1.671c-0.021,0.367-0.503,1.616-0.198,2.012c0.305,0.386-0.096,1.593,0.442,1.938
				c0.539,0.349,1.266,1.399,1.487,1.377c0.217-0.021,0.946,0.726,1.048,0.931c0.106,0.208-0.054,0.96,0.015,1.263
				c0.07,0.306,0.974,1.089,1.167,1.021c0.196-0.063,0.958,0.502,1.205,0.521c0.251,0.023,0.728,0.043,0.539,0.349
				c-0.2,0.316-0.902,1.134-1.112,1.156c-0.213,0.024-0.761,0.256-0.761,0.256c-0.021,0.003-0.162-0.035-0.29-0.084
				c-0.125-0.052-0.81-0.526-1.223-0.729c-0.406-0.205-1.799-0.621-2.207-0.954c-0.406-0.338-2.068-1.648-2.326-1.846
				c-0.258-0.189-0.697-0.876-0.845-0.786c-0.141,0.079-0.474-0.726-0.358-1.016c0.109-0.286-0.654-0.967-0.709-0.779
				c-0.048,0.191-1.271-0.442-2.01-1.146c-0.729-0.702-1.58-2.741-2.146-3.107c-0.546-0.369-1.452-1.764-1.611-1.871
				c-0.158-0.12-0.637-0.286-0.756-0.464c-0.116-0.181-0.679-0.886-1.173-1.155c-0.489-0.283-2.187-0.927-2.686-0.919
				c-0.495,0.006-1.854-0.072-1.908-0.227c-0.058-0.154-0.936-0.478-1.47-0.339c-0.542,0.134-1.964-1.156-1.842-1.314
				c0.119-0.17-0.104-0.551-0.37-0.449c-0.268,0.097-1.269-0.068-1.617-0.282c-0.351-0.215-1.456-1.943-1.496-2.295
				c-0.051-0.353-0.895-1.454-0.91-1.604c-0.012-0.155-0.564-0.665-0.875-0.794c-0.31-0.126-1.107-0.574-1.07-0.393
				c0.042,0.178-0.241,0.598-0.715,0.562c-0.485-0.047-1.74,0.479-1.821,0.402c-0.079-0.076-0.491-0.259-0.739-0.226
				c-0.245,0.038-1.096-0.112-1.316-0.033c-0.206,0.074-0.983,0.655-1.251,0.575c-0.278-0.08-1.545-0.058-2.166,0.335
				c-0.633,0.394-2.874,1.311-3.359,1.156c-0.482-0.16-2.148-1.475-2.552-1.531c-0.405-0.061-1.564-0.172-1.696-0.323
				c-0.138-0.145-0.227,0.181,0.036,0.296c0.257,0.114,0.948,0.873,0.778,0.904c-0.176,0.036-0.947,0.356-1.391,0.115
				c-0.435-0.241-1.643-0.237-1.758-0.346c-0.125-0.113-0.524-0.61-1.037-0.912c-0.519-0.296-1.959-0.759-2.07-0.759
				C27.515,92.377,21.062,80.773,19.989,75.926z"/>
		</g>
		<g>
			<path fill="#19B0BF" d="M18.368,57.542c-0.199,0.118-0.131-1.511,0.161-3.627c0.286-2.111,1.763-7.646,1.88-7.733
				c0.114-0.087,0.316,0.396,0.172,0.794c-0.139,0.389-0.384,1.568-0.237,1.623c0.146,0.058,0.351,0.845,0.22,1.106
				c-0.127,0.259-0.107,1.308-0.187,1.7c-0.084,0.384-0.73,1.697-0.673,2.097c0.056,0.409,0.755,1.653,0.592,1.815
				c-0.16,0.158-0.466,0.43-0.336,0.236c0.131-0.195,0.611,0.281,0.703,0.464c0.081,0.177-0.499,1.025-0.852,1.531
				c-0.356,0.511-1.512,1.981-1.606,1.937c-0.089-0.051-0.315-0.169-0.302-0.334c0.012-0.157,0.266-0.698,0.539-0.83
				S18.569,57.412,18.368,57.542z"/>
		</g>
		<g>
			<path fill="#19B0BF" d="M81.348,10.232c2.984,0.685,5.407,1.415,5.41,1.631c-0.003,0.217,0.441,0.743,0.688,0.654
				c0.241-0.083,0.899-0.533,1.255-0.405c0.359,0.124,1.689,0.772,2.171,1.144c0.484,0.361,1.688,2.026,1.824,2.561
				c0.148,0.533,0.553,2.177,0.445,2.467c-0.123,0.288,0.498,1.601,1.347,2.244c0.864,0.654,1.188,2.659,0.87,2.758
				c-0.313,0.093-1.488-0.721-1.809-0.707c-0.327,0.016-1.01-0.164-0.794-0.006c0.214,0.161,0.27,0.952,0.329,1.075
				c0.063,0.13-0.146,0.561-0.092,0.711c0.064,0.158,0.693,0.641,0.921,0.711c0.229,0.07,1.015,0.243,1.253,0.421
				c0.239,0.177,1.121,0.557,1.473,1c0.357,0.448,1.038,1.7,1.038,1.799c0.009,0.1-0.06,0.837,0.146,1.453
				c0.213,0.612,0.39,2.495,0.025,2.838c-0.37,0.344-0.029,1.266,0.079,1.172c0.121-0.1,0.586,0.035,0.767,0.303
				c0.175,0.258,0.697,1.623,1.497,2.5c0.789,0.879,0.297,2.909,0.163,2.789c-0.137-0.117-0.773-0.223-1.144-0.192
				c-0.371,0.036-1.211,0.157-1.035,0.444c0.181,0.284,1.037,1.093,1.388,1.161c0.352,0.054,1.657,0.131,2.135,0.252
				c0.483,0.118,1.278,1.238,0.603,1.283c-0.67,0.033-2.645-0.063-2.908-0.201c-0.253-0.146-1.004-0.819-1.083-0.998
				c-0.06-0.178-0.589-0.746-0.864-0.868c-0.277-0.115-1.129-0.16-1.299-0.305c-0.167-0.147-0.695-0.485-0.984-0.17
				c-0.303,0.318-1.215,0.113-1.264-0.038c-0.05-0.154-0.814-0.679-1.189-0.799c-0.389-0.128-1.5-0.09-1.641,0.22
				c-0.14,0.31-0.323,1.408-0.373,1.729c-0.037,0.313,0.711,1.367,0.803,1.544c0.097,0.188-0.418,0.679-0.31,0.794
				c0.106,0.101,0.319,0.464,0.233,0.554c-0.102,0.099,0,0.832,0.41,1.431c0.424,0.609,1.381,2.372,1.197,2.584
				c-0.186,0.211-0.828,0.211-0.984,0.054c-0.166-0.162-0.836-0.675-1.15-0.776c-0.305-0.101-1.496-0.442-1.994-0.734
				c-0.494-0.287-1.922-0.723-2.133-0.828c-0.198-0.098-0.951-0.601-1.159-0.479c-0.216,0.129-0.874-0.005-0.96-0.108
				c-0.08-0.108-0.628-0.406-1.531-0.486c0,0,0,0-0.723,1.029c-0.2,0.301-0.2,0.301-0.2,0.301c-0.261-0.118-0.503,0.054-0.538,0.364
				c-0.037,0.322-0.891,1.061-1.07,0.992c-0.178-0.069-1.217-0.447-1.885-0.539c-0.678-0.097-2.464,0.153-2.486,0.298
				c-0.027,0.14,0.033,0.611,0.268,0.724c0.232,0.111,1.078-0.128,1.443,0.014c0.357,0.14,1.344,0.513,1.387,0.263
				c0.046-0.239,0.963-0.752,1.371-0.645c0.404,0.104,1.502,0.736,1.523,1.006c0.008,0.28,0.738,1.355,0.711,1.728
				c-0.02,0.368-0.379,1.441-0.265,1.603c0.116,0.154-0.057,1.106-0.272,1.781c-0.217,0.682-1.396,2.26-1.955,2.026
				c-0.555-0.236-2.434-0.875-3.063-1.039c-0.631-0.163-2.571-0.579-2.922-0.823c-0.342-0.235-0.996-0.241-0.754-0.077
				c0.23,0.172,0.99,0.87,1.284,0.878c0.302,0,1.442,0.19,1.864,0.279c0.436,0.101,2.084,1.208,2.623,1.17
				c0.546-0.051,2.227,0.679,2.429,0.475c0.208-0.209,0.735-0.976,0.723-1.24c-0.017-0.282,0.871-0.757,1.227-0.53
				c0.356,0.234,1.308,1.795,1.56,2.678c0.245,0.893,0.854,3.466,0.832,3.761c-0.029,0.293,0.111,1.456,0.384,1.921
				c0.27,0.468,1.476,2.31,2.335,3.049c0.856,0.762,2.604,3.463,2.652,4.335c0.045,0.87,1.691,3.44,1.59,3.633
				c-0.098,0.194-0.153,0.916,0.006,1.175c0.154,0.263,0.915,1.404,0.923,1.928c0.017,0.518,0.483,2.557,0.321,3.309
				c-0.166,0.757-2.029,2.329-2.78,1.889c-0.757-0.444-2.891-1.203-3.131-1.448c-0.238-0.245-1.409-1.149-2.053-1.464
				c-0.645-0.313-2.672-1.089-3.12-1.643c-0.449-0.554-1.57-2.3-2.045-2.685c-0.469-0.378-2.132-1.122-2.679-1.451
				c-0.546-0.338-2.365-1.428-2.673-1.941c-0.309-0.521-1.908-1.794-2.011-1.603c-0.099,0.192-0.511,0.772-0.802,0.837
				c-0.289,0.076-1.283,0.574-1.6,0.283c0,0,0,0-0.259,0.205c-0.558,0.45-0.558,0.45-0.558,0.45c0.294,0.57,0.262,1.318-0.08,1.667
				c-0.348,0.349-1.436,1.372-1.967,1.479c-0.534,0.107-2.408,0.178-2.973-0.073c-0.57-0.255-2.611-1.171-3.31-1.875
				c-0.701-0.697-2.646-2.917-2.762-3.366c-0.122-0.468-0.985-2.484-0.896-3.439c0,0,0,0-0.2-0.58
				c-0.319-0.894-0.319-0.894-0.319-0.894c-0.763-0.995-1.287-2.057-1.18-2.376c0.104-0.313-0.034-1.29,0.178-1.434
				c0.21-0.142,0.96-0.511,1.157-1.065c0.193-0.555,1.596-2.324,1.775-2.752c0.184-0.422,1.267-1.45,1.463-1.343
				c0.198,0.103,0.276,0.529,0.472,0.536c0.192,0,1.319,0.407,1.997,0.155c0.675-0.255,2.377-0.563,2.241-0.849
				c-0.137-0.284,0.573-1.479,1.274-2.067c0.7-0.594,2.396-1.894,2.18-2.262c-0.224-0.358-0.427-1.422-0.587-1.582
				c-0.16-0.158-0.424-0.372-0.229-0.105c0.209,0.261-0.343,0.74-0.455,0.565c-0.109-0.179-1.143,0.529-1.582,1.383
				c0,0,0,0-0.833,0.079c-0.373,0.035-0.373,0.035-0.373,0.035c-0.324-0.134-0.729-0.375-0.894-0.533
				c-0.17-0.158-0.809-0.947-0.873-0.884c-0.063,0.071,0.053,0.521,0.416,0.841c0.38,0.321,1.135,1.141,1.351,0.963
				c0.205-0.19,0.673,0.443,0.464,0.631c-0.198,0.189-0.788-0.061-0.756-0.107c0.035-0.047-0.238-0.017-0.417,0.192
				c-0.181,0.217-0.826,0.217-0.987,0.061c-0.164-0.167-0.838-0.702-1.141-0.844c0,0,0,0-0.286-0.087
				c-0.199-0.05-0.645-0.288-0.841-0.326c-1.047-0.217-1.047-0.217-1.047-0.217c-1.14,0.059-1.517,0.131-0.85,0.156
				c0.678,0.027,2.145,0.487,1.905,0.471c-0.224-0.019-0.091,0.611,0.029,0.554c0.119-0.054,0.398,0.531,0.31,0.819
				c-0.088,0.295,0.37,1.218,0.129,1.336c-0.233,0.112-0.787-0.448-0.615-0.613c0.173-0.157-0.291-0.701-0.665-0.803
				c-0.389-0.087-1.47,0.329-1.661,0.212c-0.175-0.121-0.19,0.252,0.348,0.564c0.538,0.3-0.19,1.141-0.737,0.787
				c-0.539-0.352-1.246-1.278-1.306-0.937c-0.058,0.344-0.91,1.128-0.796,1.563c0.12,0.424,0.088,1.918,0.393,2.411
				c0.307,0.497,0.684,1.841,0.465,1.909c-0.221,0.072-0.818,0.903-1.089,0.934c-0.271,0.033-1.165,0.62-1.451,0.425
				c-0.295-0.204-1.271-0.996-1.551-1.34c-0.279-0.342-0.653-1.608-0.396-2.06c0.263-0.449,1.382-1.212,1.349-1.379
				c-0.038-0.182-0.386-0.632-0.684-0.616c-0.29,0.011-1.285-0.518-1.471-0.311c-0.18,0.214-0.728,0.158-0.779-0.078
				c-0.045-0.219,0.081-1.036,0.027-1.341c-0.058-0.302,0.524-1.104,0.532-1.18c0.005-0.072-0.484,0.04-0.853,0.429
				c-0.369,0.399-1.164,1.282-1.135,1.089c0.027-0.195-0.095-0.788-0.382-0.878c-0.284-0.087-0.916-1.071-0.746-1.275
				c0.167-0.217-0.361-0.791-0.481-0.719c-0.106,0.06-0.905-0.083-1.149-0.452c-0.247-0.368-1.292-1.572-1.236-1.811
				c0.052-0.247,0.667-0.711,0.736-0.53c0.072,0.176,0.224,0.629,0.396,0.618c0.167-0.012,0.944,0.035,1.338,0.137
				c0.388,0.097,1.563,1.19,1.747,1.183c0.168-0.014,0.716,0.236,0.839,0.575c0.121,0.337,0.563,1.101,0.339,0.782
				c-0.227-0.312,0.438-1.213,0.306-1.422c-0.133-0.205-0.292-0.968-0.177-1.234c0.108-0.262,0.519-1.059,0.381-1.206
				c-0.132-0.145-0.522-0.109-0.623-0.336c-0.098-0.226-0.556-0.924-0.807-0.697c-0.252,0.229-1.267-0.143-1.614-0.492
				c-0.352-0.352-1.507-1.151-1.849-1.676c-0.338-0.518,0.042-1.886-0.064-1.984c-0.107-0.107-0.318-0.481-0.222-0.582
				c0.089-0.101,0.276-0.393,0.189-0.819c-0.094-0.428-0.664-2.028-0.624-2.573c0.035-0.544-0.014-2.11,0.019-2.254
				c0.027-0.15,0.33-0.388,0.353-0.733c0.014-0.349,0.264-1.43,0.468-1.636c0.206-0.206,0.978-0.734,1.253-0.712
				c0.272,0.019,1.242,0.084,1.527-0.079c0.291-0.155,1.612-0.416,2.262-0.775c0.655-0.351,1.815,0.298,1.849-0.104
				c0.04-0.393-0.647-1.563-0.48-1.637c0.167-0.074,0.727-0.337,0.885-0.176c0.165,0.159,0.631,0.204,0.677-0.266
				c0.052-0.461,0.665-2.021,0.996-2.427c0.334-0.416,1.085-1.017,0.853-0.866c-0.24,0.15-0.695-0.751-0.369-0.873
				c0.327-0.126,1.313-1.54,1.29-2.061c-0.028-0.524-0.118-1.976,0.129-2.039c0.241-0.064,0.832-0.233,0.746-0.462
				c-0.086-0.231,0.617-0.616,0.81-0.411c0.187,0.205,0.604,0.225,0.538,0.015c-0.064-0.207-0.229-0.845,0.107-0.941
				c0.338-0.101,1.003-0.418,0.74-0.341c-0.259,0.081-0.955-0.551-0.879-0.745c0.078-0.187,0.241-0.861,0.145-1.064
				c-0.099-0.209-0.121-0.92-0.047-1.131c0.081-0.22,0.402-1.111,0.674-1.484c0.271-0.375,0.569-1.381,0.742-1.346
				c0.174,0.037,0.523-0.338,0.407-0.597c-0.118-0.254,0.468-1.063,0.255-1.334c-0.216-0.269-0.056-0.917,0.19-0.906
				c0.251,0.006,1.157-0.419,1.478-0.711c0.329-0.301,1.036-1.117,1.356-1.11c0.32,0.006,1.23,0.45,1.283,0.675
				c0.046,0.22,0.951,0.529,1.588,0.133c0,0,0,0,0.371-0.237c0.197-0.133,0.303-0.405,0.505-0.502
				c0.397-0.193,0.397-0.193,0.397-0.193C70.044,9.243,78.375,9.563,81.348,10.232z"/>
		</g>
		<g>
			<path fill="#19B0BF" d="M95.591,15.116c0.342,0.183,0.641,0.362,0.665,0.41c0.011,0.048-0.086,0.108-0.242,0.025
				c-0.153-0.073-0.476,0.323-0.391,0.633c0.079,0.301-0.768,0.237-0.959-0.073c-0.191-0.314-1.004-1.256-0.857-1.348
				C93.95,14.668,95.245,14.935,95.591,15.116z"/>
		</g>
		<g>
			<path fill="#19B0BF" d="M105.108,32.932c-0.077,0.115-0.225-0.024-0.321-0.306c-0.1-0.282,0.29-0.853,0.044-1.073
				c-0.238-0.218-0.277-0.82-0.061-0.896c0.215-0.08,1.056,0.25,1.322,0.101c0.252-0.147,0.845,0.769,0.629,1.075
				c-0.216,0.302-0.271,1.106-0.425,1.044C106.147,32.813,105.183,32.809,105.108,32.932z"/>
		</g>
		<g>
			<path fill="#19B0BF" d="M110.717,38.614c0.355,0.091,0.494,0.233,0.313,0.321c-0.174,0.08-0.822,0.316-0.775,0.525
				c0.05,0.197-0.071,0.389-0.811-0.068c-0.742-0.457-1.041-2.243-0.715-2.46c0.329-0.2,1.223,0.398,1.147,0.579
				C109.797,37.695,110.36,38.525,110.717,38.614z"/>
		</g>
		<g>
			<path fill="#19B0BF" d="M107.672,38.255c0.24,0.295,0.634,0.839,0.883,1.209c0.247,0.366,0.312,1.271,0.383,1.263
				c0.074-0.016,0.189,0.034,0.107,0.175c-0.09,0.145-0.088,0.568-0.459,0.571c-0.366,0.011-1.582,0.964-1.959,0.86
				c-0.379-0.099-1.229-1.327-1.012-2.157c0.214-0.827-0.773-3.257-0.462-3.394c0.315-0.14,1.253-0.116,1.372,0.086
				C106.655,37.074,107.436,37.96,107.672,38.255z"/>
		</g>
		<g>
			<path fill="#19B0BF" d="M110.477,43.111c0.223-0.023-0.168,0.263-0.858,0.633c-0.69,0.378-2.573,1.702-2.703,1.497
				c-0.13-0.207,0.089-0.953,0.654-1.188C108.148,43.813,110.254,43.138,110.477,43.111z"/>
		</g>
		<g>
			<path fill="#19B0BF" d="M99.463,29.419c0.063,0.331-0.075,0.487-0.311,0.356c-0.238-0.143-0.883-0.57-0.928-0.926
				C98.169,28.488,99.398,29.094,99.463,29.419z"/>
		</g>
		<g>
			<path fill="#19B0BF" d="M101.358,30.304c0.426-0.276,0.893-0.219,1.035,0.109c0.14,0.336,0.318,1.228,0.023,1.233
				C102.12,31.658,100.929,30.566,101.358,30.304z"/>
		</g>
		<g>
			<path fill="#19B0BF" d="M112.184,33.846c0.578,0.633-0.197,1.706-0.94,1.813C110.528,35.004,111.479,33.96,112.184,33.846z"/>
		</g>
		<g>
			<path fill="#19B0BF" d="M99.077,20.512c-0.171,0.505-0.382,0.933-0.483,0.946c-0.099,0.01-0.386,0.466-0.432,0.784
				c-0.047,0.312,0.169,1.232-0.077,1.276c-0.25,0.038-0.831-0.571-0.691-0.705c0.139-0.14,0.378-0.324,0.217-0.101
				c-0.156,0.227-0.59-0.392-0.537-0.781c0.059-0.396,0.28-1.715,0.293-2.08c0.005-0.367,0.178-1.418,0.113-1.496
				c-0.063-0.086-0.287-0.518-0.575-0.824c-0.284-0.302-1.28-1.163-1.193-1.254c0.094-0.093,0.812,0.044,1.39,0.503
				C97.686,17.236,99.247,19.995,99.077,20.512z"/>
		</g>
		<g>
			<path fill="#19B0BF" d="M91.625,13.247c0.682,0.281,1.357,0.582,2.029,0.898C93.015,14.305,92.336,13.872,91.625,13.247z"/>
		</g>
		<g>
			<path fill="#19B0BF" d="M100.571,43.291c-0.859,0.112-1.305,0.17-0.986,0.134c0.311-0.04,0.035-0.651,0.191-0.587
				c0.152,0.072,0.959-0.158,1.506,0.043c0,0,0,0,0.528,0.158c0.489,0.13,0.489,0.13,0.489,0.13c0.854-0.058,1.975,0.07,2.491,0.292
				c0.524,0.216,0.896,1.27,0.511,1.31C104.91,44.801,101.428,43.188,100.571,43.291z"/>
		</g>
		<g>
			<path fill="#19B0BF" d="M93.264,46.764c-0.154-0.426-0.039-0.757,0.258-0.748c0.305,0.012,1.179,0.547,1.251,0.755
				C94.85,46.976,93.422,47.179,93.264,46.764z"/>
		</g>
		<g>
			<path fill="#19B0BF" d="M95.077,66.416c0.285,0.407,0.484,0.821,0.462,0.924c-0.024,0.101,0.204,0.476,0.337,0.608
				c0.135,0.136,0.65,0.758,0.852,1.083c0.197,0.329,0.658,1.699,0.539,1.914c-0.109,0.214-0.918,0.537-1.246,0.267
				c-0.338-0.276-1.611-1.079-1.691-1.305c-0.089-0.231-0.521-0.917-0.727-0.997c-0.201-0.08-0.839-1.078-0.924-1.484
				c-0.082-0.404,0.077-1.714-0.132-2.08c-0.21-0.362-0.348-1.083-0.054-0.813C92.782,64.809,94.795,66.006,95.077,66.416z"/>
		</g>
		<g>
			<path fill="#19B0BF" d="M80.647,108.806c-0.506-0.457,0.002-1.162,0.504-0.501C80.979,108.479,80.819,108.64,80.647,108.806z"/>
		</g>
		<g>
			<path fill="#19B0BF" d="M37.336,55.339c0.14,0.483,0.266,1.063,0.282,1.282c0.02,0.229,0.009,0.76-0.21,0.676
				c-0.235-0.08-0.931,0.322-1.1,0.484c-0.161,0.156-1.184-0.02-1.901-0.755c-0.739-0.74-2.914-1.408-2.901-1.722
				c0.016-0.322-0.489-0.654-0.46-0.947c0.024-0.297-0.221-0.93-0.602-0.756c-0.392,0.183-1.252-0.389-1.005-0.593
				c0.257-0.206-0.133-0.648-0.117-0.424c0.018,0.225-0.892,0.442-1.059,0.241c-0.165-0.211-0.825-0.834-1.106-0.924
				c-0.275-0.09-1.362-0.695-1.707-0.423c-0.351,0.267-1.28,0.72-1.227,0.904c0.043,0.175-0.683,0.719-1.021,0.872
				c-0.337,0.155-1.049-0.427-0.771-0.748c0.279-0.327,0.791-1.103,0.566-1.016c-0.219,0.09-0.846,0.613-1.121,0.683
				c-0.283,0.064-0.257,0.464-0.436,0.41c-0.181-0.054-0.618,0.153-0.626-0.169c-0.017-0.325,0.605-1.04,0.781-1.418
				c0.17-0.383,0.178-1.289-0.006-1.132c-0.186,0.152-0.574-1.035-0.369-1.87c0.209-0.822,1.73-3.266,2.093-3.645
				c0.367-0.373,1.551-1.552,1.323-1.707c-0.234-0.155-0.595-0.891-0.41-1.221c0.181-0.332,1.303-1.567,1.814-2.021
				c0.505-0.457,1.167-1.829,1.335-1.947c0.16-0.12,0.748-0.313,0.904-0.561c0.156-0.249,1.137-0.954,1.478-1.295
				c0.346-0.342,1.11-0.123,0.87,0.283c-0.244,0.396,0.321,1.277,0.443,0.943c0.131-0.342,1.021-1.051,1.221-1.041
				c0.2,0.021,0.853-0.397,1.033-0.632c0.175-0.229,0.622,0.424,0.481,0.655c-0.142,0.239-0.399,1.059-0.343,1.283
				c0.063,0.229-0.272,0.825-0.094,0.887c0.181,0.059,0.673,0.82,0.683,1.021c-0.007,0.193-0.19,0.506,0.137,0.313
				c0.336-0.208,1.104,0.433,0.888,0.658c-0.219,0.229,0.047,1.247,0.824,1.729c0.769,0.483,0.601,1.977,0.795,1.982
				c0.207,0.011,0.649,0.642,0.502,0.669c-0.152,0.026-0.252,0.122,0.082,0.084c0.331-0.037,0.23,0.823-0.133,0.963
				c-0.362,0.145-1.305,0.665-1.294,0.813c0.021,0.152,0.121,0.467,0.528,0.4c0.413-0.073,0.653-0.417,0.645-0.045
				c-0.02,0.37,0.402,1.617,0.351,2.057c-0.055,0.442-0.545,1.764-0.56,1.987c-0.004,0.229-0.061,0.994-0.129,1.215
				c-0.06,0.229-0.8,0.768-0.688,0.971C36.107,53.009,37.197,54.859,37.336,55.339z"/>
		</g>
		<g>
			<path fill="#19B0BF" d="M39.859,31.271c0.166-0.122,0.519-0.22,0.783-0.212c0.264,0.007,0.568-0.466,1.051-0.603
				c0.488-0.134,1.563,1.15,1.188,1.348c-0.379,0.192-1.245,0.589-1.028,0.959c0.224,0.373,0.697,1.478,0.508,1.671
				c-0.18,0.198-0.901-0.027-1.11,0.128c-0.216,0.153-0.807,0.011-0.827-0.332c-0.021-0.352-0.671-1.054-0.687-0.727
				c-0.021,0.313-0.605,1.048-0.711,0.954c-0.108-0.099-0.739-0.501-0.974-0.434c-0.254,0.07-0.8-0.675-0.658-1.207
				c0.147-0.536,1.041-0.625,0.795-0.737c-0.24-0.103-0.027-0.931,0.323-1.092C38.86,30.826,39.69,31.384,39.859,31.271z"/>
		</g>
		<g>
			<path fill="#19B0BF" d="M38.958,30.073c-0.13-0.121,0.248-0.674,0.853-1.238c0.597-0.559,2.466-1.749,2.466-1.495
				c0.014,0.247-0.103,1.271-0.696,1.7C40.993,29.47,39.087,30.187,38.958,30.073z"/>
		</g>
		<g>
			<path fill="#19B0BF" d="M48.579,52.797c0.195,0.166,0.207,0.499,0.044,0.737c-0.164,0.232-0.61,0.714-0.846,0.542
				c-0.241-0.183-0.714-0.794-0.52-0.871c0.198-0.077-0.187-0.883-0.072-0.994C47.296,52.096,48.389,52.625,48.579,52.797z"/>
		</g>
		<g>
			<path fill="#19B0BF" d="M42.748,47.965c-0.199,0.284-0.588,0.396-0.881,0.248c-0.283-0.144-0.994,0.363-1.053,0.138
				c-0.059-0.22-0.394-0.719-0.399-0.571c0.001,0.143-0.401,0.287-0.31,0.023c0.096-0.267-0.487-1.032-0.236-1.002
				c0.252,0.021,1.06-0.359,1.265-0.535c0.21-0.184,0.984-1.001,1.282-0.903c0.309,0.09,1.042,1.196,0.893,1.388
				C43.16,46.935,42.941,47.681,42.748,47.965z"/>
		</g>
		<g>
			<path fill="#19B0BF" d="M52.403,25.332c-0.016-0.352,0.126-1.132,0.314-1.738c0.182-0.601,1.142-2.222,1.122-2.297
				c-0.023-0.075-0.035-0.374,0.079-0.482c0.112-0.116,0.568-0.069,0.748,0.363c0.184,0.432-0.54,1.97-0.511,2.534
				c0.028,0.575-0.373,2.196,0.09,2.405c0.465,0.22,1.634,0.981,1.582,1.103c-0.063,0.12-0.295,0.522-0.685,0.589
				c-0.396,0.081-1.481,0.041-1.539-0.207C53.538,27.34,52.422,25.681,52.403,25.332z"/>
		</g>
		<g>
			<path fill="#19B0BF" d="M49.153,21.468c-0.795-0.708,0.039-2.186,0.98-1.269C49.601,20.609,50.025,21.502,49.153,21.468z"/>
		</g>
		<g>
			<path fill="#19B0BF" d="M57.567,13.391c-0.157-0.18,0.095-0.779,0.567-1.315c0.472-0.545,1.48-0.376,1.204,0.043
				C59.052,12.533,57.729,13.575,57.567,13.391z"/>
		</g>
		<g>
			<path fill="#19B0BF" d="M25.936,64.561c0.153,0.053-0.121,0.177-0.61,0.27c-0.483,0.091,0.11,1.453-0.147,1.669
				c-0.259,0.216-0.997-0.31-0.992-0.56c-0.001-0.252,0.029-0.937,0.205-0.973C24.565,64.94,25.784,64.504,25.936,64.561z"/>
		</g>
		<g>
			<path fill="#19B0BF" d="M48.774,83.458c0.138-0.143,0.321-0.041,0.413,0.212c0.09,0.254-0.413,0.786-0.525,0.685
				C48.554,84.246,48.634,83.595,48.774,83.458z"/>
		</g>
		<g>
			<path fill="#19B0BF" d="M45.439,85.731c-0.198,0.304-0.669,0.511-1.047,0.464c-0.372-0.039-1.387,0.549-1.456,0.823
				c-0.075,0.272-0.763,0.78-0.83,0.607c-0.074-0.185-0.075-0.943,0.27-1.284c0.347-0.352,1.457-1.264,1.703-1.282
				c0.246-0.007,1.008-0.169,1.156-0.216c0.144-0.045,0.878,0.057,1.246-0.368c0.377-0.423,1.616,0.19,1.342,0.393
				c-0.266,0.204-0.268,0.813-0.492,0.834c-0.227,0.01-0.946,0.479-1.153,0.382C45.953,85.987,45.633,85.433,45.439,85.731z"/>
		</g>
		<g>
			<path fill="#19B0BF" d="M45.759,86.933c0.246-0.008,0.345,0.079,0.207,0.203c-0.122,0.118-0.581,0.705-0.684,0.601
				C45.175,87.633,45.509,86.956,45.759,86.933z"/>
		</g>
		<g>
			<path fill="#19B0BF" d="M43.122,85.006c-0.088,0.092-0.25,0.072-0.366-0.029c-0.106-0.115-0.228-0.454-0.032-0.531
				C42.921,84.372,43.216,84.915,43.122,85.006z"/>
		</g>
		<g>
			<path fill="#19B0BF" d="M43.687,84.095c-0.239-0.214-0.378-0.445-0.311-0.514c0.066-0.065,0.379-0.2,0.532-0.14
				C44.063,83.505,43.924,84.317,43.687,84.095z"/>
		</g>
		<g>
			<path fill="#19B0BF" d="M45.308,84.183c-0.059,0.128-0.227,0.11-0.367-0.026c-0.126-0.134-0.325-0.546-0.129-0.625
				c0.192-0.08,0.836,0.104,0.948-0.039c0.109-0.141,0.359,0.153,0.259,0.483C45.915,84.293,45.38,84.069,45.308,84.183z"/>
		</g>
		<g>
			<path fill="#19B0BF" d="M116.559,34.985c0.354,0.611,0.514,0.984,0.364,0.83c-0.161-0.157-1.051-0.511-1.642-0.443
				c-0.586,0.073-2.216,0.376-2.292,0.633c-0.079,0.257-0.435,0.021-0.381-0.15c0.055-0.163-0.179-0.619,0-0.576
				c0.185,0.048,0.641-0.548,0.685-0.722c0.051-0.169,0.113-0.763,0.275-0.92c0.162-0.166,0.74-0.641,0.934-0.694
				C114.695,32.886,116.21,34.382,116.559,34.985z"/>
		</g>
	</g>
	<path fill="#D1EBFA" d="M19.764,56.816c-0.072,0-0.11,0.269,0.023,0.269C19.863,57.106,19.9,56.837,19.764,56.816z"/>
	<path fill="#D1EBFA" d="M36.346,65.069c-0.079-0.021-0.118,0.259,0.015,0.276C36.445,65.346,36.484,65.069,36.346,65.069z"/>
</g>
</svg>
