<?xml version="1.0" encoding="utf-8"?>
<!-- Generator: Adobe Illustrator 16.0.0, SVG Export Plug-In . SVG Version: 6.00 Build 0)  -->
<!DOCTYPE svg PUBLIC "-//W3C//DTD SVG 1.1//EN" "http://www.w3.org/Graphics/SVG/1.1/DTD/svg11.dtd">
<svg version="1.1" id="Layer_1" xmlns="http://www.w3.org/2000/svg" xmlns:xlink="http://www.w3.org/1999/xlink" x="0px" y="0px"
	 width="230.574px" height="146.208px" viewBox="0 0 230.574 146.208" enable-background="new 0 0 230.574 146.208"
	 xml:space="preserve">
<g>
	<linearGradient id="SVGID_1_" gradientUnits="userSpaceOnUse" x1="231.1533" y1="90.2881" x2="55.4283" y2="74.9142">
		<stop  offset="0" style="stop-color:#C28E2C"/>
		<stop  offset="1" style="stop-color:#EEED83"/>
	</linearGradient>
	<polygon fill-rule="evenodd" clip-rule="evenodd" fill="url(#SVGID_1_)" points="90.715,58.348 223.626,82.291 201.66,107.361 
		62.762,84.566 	"/>
	<linearGradient id="SVGID_2_" gradientUnits="userSpaceOnUse" x1="40.3135" y1="120.29" x2="216.5589" y2="111.0534">
		<stop  offset="0" style="stop-color:#C28E2C"/>
		<stop  offset="1" style="stop-color:#EEED83"/>
	</linearGradient>
	<polygon fill-rule="evenodd" clip-rule="evenodd" fill="url(#SVGID_2_)" points="63.653,84.566 51.965,116.512 204.083,146.208 
		201.66,107.361 	"/>
	<linearGradient id="SVGID_3_" gradientUnits="userSpaceOnUse" x1="199.7725" y1="114.5908" x2="232.0254" y2="112.9005">
		<stop  offset="0" style="stop-color:#C28E2C"/>
		<stop  offset="1" style="stop-color:#EEED83"/>
	</linearGradient>
	<polygon fill-rule="evenodd" clip-rule="evenodd" fill="url(#SVGID_3_)" points="223.626,82.291 230.574,109.32 204.147,145.413 
		201.546,107.498 	"/>
	<linearGradient id="SVGID_4_" gradientUnits="userSpaceOnUse" x1="143.2275" y1="106.1846" x2="143.2275" y2="62.6717">
		<stop  offset="0" style="stop-color:#C28E2C"/>
		<stop  offset="1" style="stop-color:#EEED83"/>
	</linearGradient>
	<polygon fill-rule="evenodd" clip-rule="evenodd" fill="url(#SVGID_4_)" points="92.644,64.372 215.418,83.963 198.632,103.3 
		71.037,82.431 	"/>
	<linearGradient id="SVGID_5_" gradientUnits="userSpaceOnUse" x1="-4.7676" y1="61.8555" x2="179.9031" y2="12.3732">
		<stop  offset="0" style="stop-color:#C28E2C"/>
		<stop  offset="1" style="stop-color:#EEED83"/>
	</linearGradient>
	<polygon fill-rule="evenodd" clip-rule="evenodd" fill="url(#SVGID_5_)" points="139.373,0 2.697,52.68 29.486,75.91 
		172.341,22.051 	"/>
	<linearGradient id="SVGID_6_" gradientUnits="userSpaceOnUse" x1="208.9316" y1="58.3472" x2="14.6292" y2="78.7691">
		<stop  offset="0" style="stop-color:#C28E2C"/>
		<stop  offset="1" style="stop-color:#EEED83"/>
	</linearGradient>
	<polygon fill-rule="evenodd" clip-rule="evenodd" fill="url(#SVGID_6_)" points="172.341,22.051 189.525,53.435 32.799,117.002 
		29.528,75.326 	"/>
	<linearGradient id="SVGID_7_" gradientUnits="userSpaceOnUse" x1="32.3657" y1="83.5117" x2="-0.8802" y2="87.006">
		<stop  offset="0" style="stop-color:#C28E2C"/>
		<stop  offset="1" style="stop-color:#EEED83"/>
	</linearGradient>
	<polygon fill-rule="evenodd" clip-rule="evenodd" fill="url(#SVGID_7_)" points="2.905,52.881 0,83.77 32.787,117.194 
		29.61,75.997 	"/>
	<polygon opacity="0.5" fill-rule="evenodd" clip-rule="evenodd" fill="#E0CF6A" points="138.645,4.644 9.602,54.055 30.615,72.054 
		164.644,20.131 	"/>
</g>
</svg>
