<?xml version="1.0" encoding="utf-8"?>
<!-- Generator: Adobe Illustrator 16.0.0, SVG Export Plug-In . SVG Version: 6.00 Build 0)  -->
<!DOCTYPE svg PUBLIC "-//W3C//DTD SVG 1.1//EN" "http://www.w3.org/Graphics/SVG/1.1/DTD/svg11.dtd">
<svg version="1.1" id="Layer_1" xmlns="http://www.w3.org/2000/svg" xmlns:xlink="http://www.w3.org/1999/xlink" x="0px" y="0px"
	 width="130px" height="111px" viewBox="0 0 130 111" enable-background="new 0 0 130 111" xml:space="preserve">
<linearGradient id="SVGID_1_" gradientUnits="userSpaceOnUse" x1="3" y1="52" x2="127" y2="52">
	<stop  offset="0" style="stop-color:#FFF33B"/>
	<stop  offset="0.0595" style="stop-color:#FFE029"/>
	<stop  offset="0.1303" style="stop-color:#FFD218"/>
	<stop  offset="0.2032" style="stop-color:#FEC90F"/>
	<stop  offset="0.2809" style="stop-color:#FDC70C"/>
	<stop  offset="0.6685" style="stop-color:#F3903F"/>
	<stop  offset="0.8876" style="stop-color:#ED683C"/>
	<stop  offset="1" style="stop-color:#E93E3A"/>
</linearGradient>
<rect x="3" y="3" fill="url(#SVGID_1_)" width="124" height="98"/>
<path fill="#6EAA61" d="M130,104H0V0h130V104z M6,98h118V6H6V98z"/>
<rect x="40" y="104" fill="#404040" width="56" height="7"/>
<line fill="none" stroke="#603913" stroke-width="4" stroke-miterlimit="10" x1="56.5" y1="16" x2="109" y2="16"/>
<line fill="none" stroke="#603913" stroke-width="4" stroke-miterlimit="10" x1="107" y1="16" x2="107" y2="92.5"/>
<line fill="none" stroke="#603913" stroke-width="4" stroke-miterlimit="10" x1="91" y1="92.5" x2="121.5" y2="92.5"/>
<line fill="none" stroke="#603913" stroke-width="4" stroke-miterlimit="10" x1="91" y1="16" x2="107" y2="34.5"/>
<line fill="none" stroke="#000000" stroke-width="2" stroke-miterlimit="10" x1="11" y1="92.5" x2="26" y2="92.5"/>
<line fill="none" stroke="#000000" stroke-width="2" stroke-miterlimit="10" x1="28.5" y1="92.5" x2="43.5" y2="92.5"/>
<line fill="none" stroke="#000000" stroke-width="2" stroke-miterlimit="10" x1="46" y1="92.5" x2="61" y2="92.5"/>
<line fill="none" stroke="#000000" stroke-width="2" stroke-miterlimit="10" x1="63" y1="92.5" x2="78" y2="92.5"/>
<circle fill="none" stroke="#000000" stroke-width="2" stroke-miterlimit="10" cx="52.071" cy="34.5" r="8.571"/>
<line fill="none" stroke="#000000" stroke-width="2" stroke-miterlimit="10" x1="58.489" y1="40.167" x2="61" y2="68"/>
<line fill="none" stroke="#000000" stroke-width="2" stroke-miterlimit="10" x1="61" y1="68" x2="53.5" y2="76.5"/>
<line fill="none" stroke="#000000" stroke-width="2" stroke-miterlimit="10" x1="61" y1="68" x2="64.5" y2="76.5"/>
<line fill="none" stroke="#000000" stroke-width="2" stroke-miterlimit="10" x1="58.744" y1="47.333" x2="52.5" y2="58.5"/>
<line fill="none" stroke="#000000" stroke-width="2" stroke-miterlimit="10" x1="59.744" y1="49" x2="64.5" y2="62.834"/>
<line fill="none" stroke="#000000" stroke-width="3" stroke-miterlimit="10" x1="58.744" y1="17" x2="58.744" y2="29.128"/>
</svg>
