<?xml version="1.0" encoding="utf-8"?>
<!-- Generator: Adobe Illustrator 16.0.0, SVG Export Plug-In . SVG Version: 6.00 Build 0)  -->
<!DOCTYPE svg PUBLIC "-//W3C//DTD SVG 1.1//EN" "http://www.w3.org/Graphics/SVG/1.1/DTD/svg11.dtd">
<svg version="1.1" id="Layer_1" xmlns="http://www.w3.org/2000/svg" xmlns:xlink="http://www.w3.org/1999/xlink" x="0px" y="0px"
	 width="123.155px" height="102.248px" viewBox="0 0 123.155 102.248" enable-background="new 0 0 123.155 102.248"
	 xml:space="preserve">
<g>
	<g id="svg_1">
		<g id="svg_2">
			<path id="svg_3" fill="#F7B319" stroke="#010101" stroke-width="3" d="M85.903,80.517c0,0-9.353,7.802-24.322,16.693
				c-9.042,5.375-27.493,3.175-36.977,2.625c-9.501-0.556-26.082-2.329-22.642-7.53c3.44-5.2,13.987-16.947,13.987-16.947
				S8.102,97.303,85.903,80.517z"/>
			<g id="svg_4">
				<path id="svg_5" fill="#F7B319" stroke="#010101" stroke-width="3" d="M11.094,80.963c1.679,8.24,27.689,9.898,58.101,3.701
					c30.406-6.194,53.689-17.896,52.011-26.137c-7.278-3.305-7.15-7.361-7.15-7.361L14.537,71.444
					C14.542,71.444,16.211,75.134,11.094,80.963z"/>
			</g>
			<g id="svg_6">
				<g id="svg_7">
					<path id="svg_8" fill="#F7B319" stroke="#010101" stroke-width="3" d="M101.992,22.907c-1.804-2.557-8.55-11.286-19.637-16.14
						C62.251-2.046,40.94,4.759,29.639,14.811c-7.633,6.802-12.275,14.509-15.061,25.004c-0.68,2.564-1.818,7.97-1.844,15.377
						c-0.019,6.425,0.65,10.338,1.761,16.836c1.109,5.392,12.339,8.172,30.461,6.945c25.363-1.723,54.615-10.676,65.33-19.988
						c3.065-2.666,4.278-5.083,3.857-7.111C112.188,43.583,109.955,34.196,101.992,22.907z"/>
				</g>
				<g id="svg_9">
					<path id="svg_10" fill="#F7B319" stroke="#010101" stroke-width="3" d="M101.992,22.907c-1.804-2.557-8.55-11.286-19.637-16.14
						C62.251-2.046,40.94,4.759,29.639,14.811c-7.633,6.802-12.275,14.509-15.061,25.004c-0.68,2.564-1.818,7.97-1.844,15.377
						c-0.019,6.425,0.65,10.338,1.761,16.836c1.109,5.392,12.339,8.172,30.461,6.945c25.363-1.723,54.615-10.676,65.33-19.988
						c3.065-2.666,4.278-5.083,3.857-7.111C112.188,43.583,109.955,34.196,101.992,22.907z"/>
				</g>
			</g>
		</g>
		<g id="svg_11">
			<path id="svg_12" fill="#F7B319" stroke="#010101" stroke-width="3" d="M86.267,80.186c0,0-9.358,7.793-24.322,16.691
				c-9.04,5.369-27.487,3.175-36.975,2.617c-9.499-0.547-26.081-2.321-22.642-7.531c3.439-5.199,13.982-16.938,13.982-16.938
				S8.466,96.968,86.267,80.186z"/>
			<g id="svg_13">
				<path id="svg_14" fill="#F7B319" stroke="#010101" stroke-width="3" d="M11.459,80.631c1.68,8.239,27.681,9.895,58.093,3.697
					c30.406-6.195,53.697-17.893,52.018-26.133c-7.282-3.304-7.146-7.361-7.146-7.361L14.9,71.113
					C14.903,71.112,16.57,74.802,11.459,80.631z"/>
			</g>
			<g id="svg_15">
				<g id="svg_16">
					<path id="svg_17" fill="#F7B319" stroke="#010101" stroke-width="3" d="M102.359,22.57c-1.803-2.555-8.551-11.28-19.637-16.139
						c-20.101-8.815-41.413-2.007-52.714,8.044c-7.64,6.803-12.279,14.51-15.063,24.996c-0.681,2.564-1.824,7.97-1.842,15.38
						c-0.017,6.42,0.652,10.336,1.756,16.828c1.108,5.393,12.347,8.178,30.471,6.943c25.362-1.715,54.611-10.674,65.321-19.99
						c3.066-2.664,4.283-5.072,3.86-7.109C112.55,43.249,110.317,33.861,102.359,22.57z"/>
				</g>
				<g id="svg_18">
					<path id="svg_19" fill="#F7B319" stroke="#010101" stroke-width="3" d="M102.359,22.57c-1.803-2.555-8.551-11.28-19.637-16.139
						c-20.101-8.815-41.413-2.007-52.714,8.044c-7.64,6.803-12.279,14.51-15.063,24.996c-0.681,2.564-1.824,7.97-1.842,15.38
						c-0.017,6.42,0.652,10.336,1.756,16.828c1.108,5.393,12.347,8.178,30.471,6.943c25.362-1.715,54.611-10.674,65.321-19.99
						c3.066-2.664,4.283-5.072,3.86-7.109C112.55,43.249,110.317,33.861,102.359,22.57z"/>
				</g>
			</g>
			<g id="svg_20">
				<g id="svg_21">
					<path id="svg_22" fill="#F7B319" stroke="#010101" stroke-width="3" d="M102.359,22.57c-1.803-2.555-8.551-11.28-19.637-16.139
						c-20.101-8.815-41.413-2.007-52.714,8.044c-7.64,6.803-12.279,14.51-15.063,24.996c-0.681,2.564-1.824,7.97-1.842,15.38
						c-0.017,6.42,0.652,10.336,1.756,16.828c1.108,5.393,12.347,8.178,30.471,6.943c25.362-1.715,54.611-10.674,65.321-19.99
						c3.066-2.664,4.283-5.072,3.86-7.109C112.55,43.249,110.317,33.861,102.359,22.57z"/>
				</g>
			</g>
		</g>
		<g id="svg_23">
			<g id="svg_24">
				<g id="svg_25">
					<path id="svg_26" fill="#F7B319" stroke="#010101" stroke-width="3" d="M80.047,5.04
						C38.271-11.003,10.612,45.064,18.121,75.917l-3.156,2.088C8.06,44.112,34.61-13.328,80.047,5.04"/>
				</g>
				<polygon id="svg_27" fill="#F7B319" stroke="#010101" stroke-width="3" points="18.124,75.917 14.126,83.478 14.966,78.005 				
					"/>
			</g>
			<path id="svg_28" fill="#F7B319" stroke="#010101" stroke-width="3" stroke-linecap="round" stroke-linejoin="round" d="
				M30.334,79.928L30.334,79.928c-6.252-30.675,2.316-82.2,37.679-78.103c-38-4.789-59.313,45.394-53.042,76.171l-0.84,5.473
				l15.368,1.92L30.334,79.928L30.334,79.928z"/>
			<g id="svg_29">
				<g id="svg_30">
					<path id="svg_31" fill="#F7B319" stroke="#010101" stroke-width="3" d="M30.333,79.929L30.333,79.929L30.333,79.929
						l-0.838,5.473l7.227-7.628c-7.517-30.86,1.548-88.776,43.327-72.742C34.61-13.328,23.426,46.032,30.333,79.929z"/>
				</g>
				<g id="svg_32">
					<path id="svg_33" fill="#F7B319" stroke="#010101" stroke-width="3" stroke-linecap="round" stroke-linejoin="round" d="
						M30.333,79.929L30.333,79.929L30.333,79.929l-0.838,5.473l7.227-7.628c-7.517-30.86,1.548-88.776,43.327-72.742
						C34.61-13.328,23.426,46.032,30.333,79.929z"/>
				</g>
			</g>
		</g>
	</g>
	<title>Layer 1</title>
</g>
</svg>
