<?xml version="1.0" encoding="utf-8"?>
<!-- Generator: Adobe Illustrator 16.0.0, SVG Export Plug-In . SVG Version: 6.00 Build 0)  -->
<!DOCTYPE svg PUBLIC "-//W3C//DTD SVG 1.1//EN" "http://www.w3.org/Graphics/SVG/1.1/DTD/svg11.dtd">
<svg version="1.1" id="Layer_1" xmlns="http://www.w3.org/2000/svg" xmlns:xlink="http://www.w3.org/1999/xlink" x="0px" y="0px"
	 width="149.849px" height="81.759px" viewBox="0 0 149.849 81.759" enable-background="new 0 0 149.849 81.759"
	 xml:space="preserve">
<g>
	<path fill="#6C1C11" d="M124.185,58.117c0,0,3.506,3.794,2.528,5.24c-1.258,1.863-2.784,0.621-7.476-0.498
		c-3.422-0.813-5.905-2.363-8.348-3.57c-3.054-1.51-9.889-5.584-9.889-5.584l-3.926,15.043c0,0,10.296,5.91,13.753,7.074
		c3.918,1.32,9.124,3.248,13.192,3.979c3.269,0.588,7.798,1.379,11.048,0.694c1.896-0.398,6.773-3.023,9.542-6.41
		c2.524-3.089,3.551-5.036,4.181-9.063c0.364-2.326-1.04-7.969-2.884-11.016c-1.098-1.813-5.795-10.055-6.848-11.894
		c-3.066-5.353-5.76-8.463-5.76-8.463L124.185,58.117z"/>
	<path fill="#010101" d="M124.185,58.117l-0.734,0.679l0.023,0.026c0.132,0.144,0.777,0.87,1.366,1.718
		c0.295,0.423,0.574,0.877,0.767,1.282c0.195,0.401,0.285,0.762,0.278,0.91l-0.007,0.075v0.001l0.069,0.031l-0.063-0.042
		l-0.006,0.011l0.069,0.031l-0.063-0.042c-0.176,0.26-0.309,0.369-0.409,0.426c-0.103,0.055-0.203,0.088-0.426,0.09
		c-0.368,0.007-1.034-0.147-1.956-0.423c-0.926-0.271-2.115-0.645-3.623-1.004c-3.248-0.771-5.63-2.25-8.137-3.494
		c-1.479-0.73-3.952-2.125-6.033-3.328c-1.041-0.602-1.989-1.156-2.676-1.561s-1.11-0.657-1.111-0.658l-1.144-0.682l-4.454,17.07
		l0.662,0.381c0.005,0.003,2.584,1.483,5.604,3.113c1.51,0.815,3.129,1.668,4.597,2.394c1.473,0.728,2.775,1.324,3.731,1.647
		c3.903,1.313,9.125,3.256,13.335,4.016c2.377,0.426,5.453,0.973,8.307,0.975c1.083,0,2.138-0.079,3.124-0.286
		c0.6-0.128,1.301-0.39,2.115-0.765c2.424-1.129,5.761-3.272,7.995-5.991c1.283-1.57,2.229-2.901,2.931-4.385
		c0.702-1.484,1.141-3.089,1.464-5.157c0.049-0.317,0.069-0.652,0.069-1.011c-0.003-1.48-0.345-3.389-0.892-5.326
		c-0.55-1.935-1.301-3.87-2.194-5.351c-0.535-0.884-1.988-3.404-3.429-5.917c-1.442-2.516-2.879-5.035-3.406-5.956
		c-3.109-5.426-5.841-8.584-5.872-8.621l-1.104-1.275l-9.918,26.624l0.417,0.452L124.185,58.117l0.938,0.349l9.115-24.467
		l-0.938-0.349l-0.756,0.655l0.025,0.029c0.276,0.326,2.788,3.327,5.622,8.276c0.525,0.918,1.964,3.438,3.407,5.957
		c1.446,2.521,2.891,5.027,3.453,5.957c0.752,1.239,1.473,3.058,1.981,4.86c0.513,1.8,0.819,3.61,0.815,4.781
		c0,0.279-0.017,0.52-0.046,0.702c-0.307,1.959-0.696,3.342-1.296,4.61s-1.43,2.456-2.671,3.975
		c-1.281,1.571-3.12,3.026-4.854,4.111c-0.867,0.543-1.708,0.996-2.432,1.331c-0.721,0.335-1.339,0.551-1.688,0.622
		c-0.802,0.169-1.728,0.244-2.712,0.243c-2.602,0.002-5.591-0.517-7.953-0.943c-3.927-0.701-9.117-2.613-13.05-3.941
		c-0.772-0.259-2.053-0.837-3.483-1.546c-2.152-1.064-4.681-2.429-6.665-3.525c-0.993-0.548-1.851-1.029-2.459-1.373
		s-0.966-0.55-0.967-0.55l-0.498,0.867L98.043,69l3.926-15.043l-0.968-0.253l-0.512,0.859c0.002,0.001,1.714,1.021,3.811,2.232
		c2.101,1.212,4.572,2.609,6.146,3.389c2.378,1.17,4.963,2.79,8.56,3.646c1.438,0.343,2.571,0.698,3.522,0.978
		c0.955,0.275,1.723,0.497,2.521,0.504c0.47,0.003,0.966-0.097,1.406-0.347c0.441-0.248,0.795-0.616,1.087-1.05
		c0.254-0.375,0.345-0.805,0.343-1.185c-0.008-0.688-0.24-1.29-0.525-1.879c-0.435-0.875-1.036-1.706-1.534-2.341
		c-0.499-0.633-0.894-1.061-0.906-1.074L124.185,58.117l0.938,0.349L124.185,58.117z"/>
	<path fill="#6C1C11" d="M25.664,58.117c0,0-3.505,3.794-2.528,5.24c1.258,1.863,2.785,0.621,7.476-0.498
		c3.423-0.813,5.905-2.363,8.348-3.57c3.054-1.51,9.889-5.584,9.889-5.584l3.926,15.043c0,0-10.296,5.91-13.752,7.074
		c-3.918,1.32-9.124,3.248-13.192,3.979c-3.27,0.588-7.799,1.379-11.049,0.694c-1.895-0.398-6.773-3.023-9.542-6.41
		c-2.525-3.089-3.55-5.036-4.181-9.063c-0.363-2.326,1.04-7.969,2.884-11.016c1.099-1.813,5.795-10.055,6.849-11.894
		c3.065-5.353,5.76-8.463,5.76-8.463L25.664,58.117z"/>
	<path fill="#010101" d="M25.664,58.117l-0.734-0.679c-0.017,0.019-0.713,0.771-1.429,1.77c-0.358,0.5-0.722,1.062-1.012,1.646
		c-0.285,0.588-0.518,1.19-0.525,1.878c-0.001,0.38,0.089,0.81,0.343,1.185c0.292,0.434,0.645,0.802,1.086,1.05
		c0.44,0.25,0.937,0.35,1.406,0.347c0.798-0.007,1.566-0.229,2.521-0.504c0.952-0.279,2.085-0.635,3.523-0.978
		c3.598-0.856,6.181-2.477,8.559-3.646c1.575-0.779,4.047-2.177,6.146-3.389c2.097-1.211,3.809-2.231,3.812-2.232l-0.512-0.859
		l-0.968,0.253L51.806,69l0.968-0.253l-0.498-0.867c-0.001,0.001-0.639,0.366-1.654,0.937c-1.523,0.855-3.891,2.167-6.192,3.368
		c-1.15,0.602-2.285,1.175-3.283,1.648c-0.996,0.473-1.867,0.848-2.443,1.041c-3.933,1.328-9.124,3.24-13.05,3.941
		c-2.363,0.427-5.353,0.945-7.954,0.943c-0.985,0.001-1.911-0.074-2.712-0.243c-0.348-0.071-0.967-0.287-1.687-0.622
		c-2.179-1.001-5.369-3.081-7.287-5.442c-1.242-1.519-2.072-2.706-2.671-3.975s-0.989-2.651-1.296-4.61
		C2.017,64.685,2,64.445,2,64.167c-0.003-1.171,0.303-2.982,0.815-4.782c0.509-1.803,1.229-3.622,1.981-4.861
		c0.563-0.93,2.008-3.437,3.453-5.957c1.444-2.519,2.882-5.039,3.408-5.957c1.512-2.639,2.931-4.725,3.969-6.146
		c0.519-0.71,0.942-1.255,1.234-1.619c0.146-0.182,0.259-0.32,0.334-0.41l0.085-0.101l0.025-0.029l-0.756-0.655l-0.937,0.349
		l9.114,24.467L25.664,58.117l-0.734-0.679L25.664,58.117l0.937-0.349l-9.703-26.049l-1.104,1.275
		c-0.031,0.037-2.764,3.194-5.872,8.621c-0.528,0.921-1.965,3.44-3.407,5.956c-1.441,2.513-2.894,5.033-3.429,5.916
		c-0.894,1.481-1.645,3.418-2.195,5.353C0.345,60.777,0.003,62.686,0,64.167c0,0.357,0.021,0.692,0.07,1.009
		c0.323,2.068,0.761,3.673,1.463,5.156c0.702,1.484,1.647,2.815,2.931,4.386c1.488,1.815,3.472,3.366,5.342,4.54
		c0.936,0.587,1.843,1.076,2.653,1.451c0.814,0.375,1.516,0.637,2.115,0.765c0.986,0.207,2.041,0.286,3.125,0.286
		c2.853-0.002,5.929-0.549,8.307-0.975c4.21-0.76,9.432-2.703,13.335-4.016c0.956-0.323,2.258-0.921,3.731-1.647
		c4.398-2.176,10.19-5.502,10.2-5.507l0.663-0.381l-4.455-17.07l-1.144,0.682c-0.001,0.001-0.424,0.254-1.111,0.658
		c-2.054,1.21-6.483,3.789-8.709,4.889c-2.507,1.244-4.888,2.724-8.136,3.494c-1.509,0.359-2.698,0.732-3.623,1.004
		c-0.923,0.275-1.588,0.43-1.957,0.423c-0.222-0.002-0.323-0.035-0.426-0.09c-0.101-0.057-0.233-0.167-0.41-0.426L23.9,62.84
		l0.071-0.031l-0.007-0.012L23.9,62.84l0.071-0.031l-0.009,0.004l0.01-0.003l0-0.001l-0.009,0.004l0.01-0.003l-0.008-0.078
		c-0.008-0.158,0.097-0.556,0.318-0.992c0.325-0.661,0.862-1.42,1.313-1.99c0.225-0.287,0.429-0.529,0.575-0.697l0.171-0.194
		l0.044-0.049l0.012-0.014l0.417-0.452l-0.215-0.575L25.664,58.117z"/>
	<path fill="#6B1D11" d="M74.567,1c-0.322,0-0.63,0.022-0.951,0.03C56.285,1.454,41.984,13.235,38.944,28.714
		c-1.161-0.351-2.401-0.565-3.688-0.565c-6.701,0-12.162,5.097-12.162,11.359s5.461,11.33,12.162,11.33
		c2.365,0,4.561-0.659,6.423-1.754C47.35,60.5,59.626,68.468,73.913,68.708c0.221,0.004,0.433,0.029,0.654,0.029
		c0.117,0,0.239,0.001,0.356,0c0.12,0.001,0.237,0,0.356,0c0.226-0.004,0.461-0.022,0.685-0.029
		c14.279-0.248,26.567-8.213,32.233-19.625c1.862,1.093,4.032,1.754,6.394,1.754c6.702,0,12.161-5.067,12.161-11.33
		s-5.459-11.359-12.161-11.359c-1.282,0-2.499,0.215-3.658,0.565C107.895,13.23,93.571,1.448,76.232,1.03
		C75.682,1.007,75.125,1,74.567,1z"/>
	<path fill="#010101" d="M74.567,1V0c-0.37,0-0.686,0.024-0.974,0.03l-0.001,0c-17.77,0.435-32.484,12.515-35.629,28.491
		l0.981,0.193l0.29-0.957c-1.242-0.375-2.58-0.608-3.977-0.608c-3.606,0-6.89,1.371-9.276,3.6c-2.387,2.226-3.887,5.333-3.886,8.759
		c-0.001,3.426,1.499,6.527,3.887,8.746c2.388,2.221,5.671,3.584,9.275,3.584c2.552,0,4.923-0.712,6.93-1.892l-0.507-0.862
		l-0.896,0.444c5.846,11.765,18.46,19.933,33.112,20.181c0.153,0.001,0.372,0.027,0.671,0.029h0.238h0.125l-0.006-1l-0.008,1h0.127
		h0.237h0.011h0.006c0.268-0.005,0.507-0.024,0.698-0.029l-0.03-1l0.018,1c14.643-0.256,27.27-8.419,33.111-20.181l-0.896-0.444
		l-0.506,0.862c2.001,1.176,4.351,1.893,6.899,1.892c3.604,0,6.888-1.363,9.275-3.584c2.387-2.219,3.887-5.319,3.886-8.746
		c0.001-3.426-1.498-6.533-3.885-8.759c-2.387-2.229-5.67-3.6-9.276-3.6c-1.395,0-2.712,0.235-3.947,0.607l0.289,0.958l0.981-0.193
		C108.771,12.54,94.034,0.459,76.257,0.03l-0.024,1l0.042-0.999C75.703,0.007,75.133,0,74.567,0V1v1
		c0.549,0,1.093,0.007,1.623,0.029l0.009,0h0.009c16.9,0.408,30.81,11.891,33.744,26.877l0.213,1.084l1.058-0.319
		c1.083-0.327,2.199-0.522,3.369-0.522c3.096,0,5.893,1.177,7.911,3.062c2.019,1.888,3.249,4.461,3.25,7.297
		c-0.001,2.835-1.23,5.4-3.248,7.281c-2.019,1.878-4.815,3.049-7.913,3.049c-2.174-0.001-4.164-0.606-5.888-1.616l-0.925-0.543
		l-0.477,0.961c-5.49,11.063-17.439,18.829-31.355,19.069h-0.005h-0.008c-0.257,0.009-0.488,0.026-0.672,0.029l0.018,1v-1h-0.237
		h-0.111h-0.005h-0.009h-0.112h-0.238c-0.144,0.002-0.35-0.022-0.637-0.029c-13.924-0.232-25.861-8.002-31.355-19.07l-0.477-0.961
		l-0.925,0.544c-1.718,1.01-3.738,1.616-5.916,1.616c-3.097,0-5.895-1.171-7.913-3.049c-2.018-1.881-3.249-4.445-3.25-7.281
		c0.001-2.836,1.232-5.409,3.25-7.297c2.019-1.885,4.816-3.062,7.912-3.062c1.175,0,2.318,0.195,3.398,0.522l1.058,0.32l0.213-1.084
		C42.861,13.925,56.748,2.442,73.641,2.029h-0.001C73.993,2.021,74.292,2,74.567,2V1z"/>
	<path fill="#6B1D11" d="M37.446,33.436c-0.45-0.09-0.92-0.148-1.398-0.148c-3.663,0-6.66,2.792-6.66,6.215
		c0,3.423,2.997,6.214,6.66,6.214c1.09,0,2.097-0.278,3.004-0.713"/>
	<path fill="#010101" d="M37.544,32.946c-0.475-0.095-0.977-0.158-1.496-0.158c-1.959,0-3.746,0.747-5.045,1.958
		c-1.299,1.21-2.116,2.897-2.115,4.757c0,1.86,0.816,3.546,2.115,4.756c1.299,1.212,3.085,1.958,5.045,1.958
		c1.176,0,2.258-0.301,3.22-0.762l-0.432-0.902c-0.853,0.408-1.784,0.664-2.788,0.664c-1.704,0-3.248-0.649-4.363-1.689
		c-1.115-1.041-1.797-2.461-1.797-4.024c0-1.563,0.682-2.984,1.797-4.025c1.115-1.04,2.659-1.689,4.363-1.689
		c0.438,0,0.875,0.054,1.301,0.139L37.544,32.946z"/>
	<path fill="#6B1D11" d="M112.427,33.436c0.45-0.09,0.92-0.148,1.398-0.148c3.664,0,6.66,2.792,6.66,6.215
		c0,3.423-2.996,6.214-6.66,6.214c-1.09,0-2.097-0.278-3.004-0.713"/>
	<path fill="#010101" d="M112.524,33.926c0.426-0.085,0.863-0.139,1.301-0.139c1.704,0,3.248,0.649,4.363,1.689
		c1.115,1.042,1.797,2.462,1.797,4.025c0,1.563-0.682,2.983-1.797,4.024c-1.115,1.04-2.659,1.689-4.363,1.689
		c-1.004,0-1.935-0.256-2.788-0.664l-0.432,0.902c0.961,0.461,2.044,0.762,3.22,0.762c1.96,0,3.746-0.746,5.045-1.958
		c1.299-1.21,2.115-2.896,2.115-4.756s-0.816-3.547-2.115-4.757c-1.299-1.211-3.085-1.958-5.045-1.958
		c-0.52,0-1.021,0.063-1.496,0.158L112.524,33.926z"/>
	<path fill="#E9C6B0" d="M68.531,13.73c-0.876-0.019-1.734,0.062-2.469,0.178c-1.773,0.28-4.002,1.077-5.53,2.022
		c-2.234,1.38-4.63,3.869-6.244,5.858c-1.483,1.828-3.093,4.489-4.045,6.631c-0.779,1.755-1.465,4.198-1.813,6.066
		c-0.574,3.088-0.922,7.231-0.803,10.377c0.062,1.627,0.473,3.697,0.803,5.234c0.247,1.145,1.011,3.627,1.011,3.627h50.967
		c0,0,0.765-2.482,1.012-3.627c0.33-1.537,0.741-3.607,0.803-5.234c0.119-3.146-0.229-7.29-0.803-10.377
		c-0.348-1.869-1.034-4.311-1.814-6.066c-0.951-2.142-2.56-4.803-4.044-6.631c-1.614-1.989-4.01-4.478-6.245-5.858
		c-1.527-0.945-3.756-1.742-5.53-2.022c-0.733-0.116-1.592-0.197-2.468-0.178c-0.876,0.018-1.75,0.125-2.498,0.386
		c-0.907,0.316-2.001,1.136-2.914,1.874c-0.387,0.312-0.709,0.592-0.981,0.833c-0.271-0.241-0.594-0.521-0.981-0.833
		c-0.912-0.738-2.006-1.557-2.914-1.874C70.282,13.855,69.407,13.748,68.531,13.73z"/>
	<path fill="#010101" d="M68.531,13.73l0.011-0.5l-0.264-0.003c-0.819,0-1.608,0.079-2.293,0.188
		c-1.852,0.295-4.109,1.102-5.715,2.09c-2.321,1.438-4.729,3.95-6.37,5.968c-1.52,1.875-3.138,4.552-4.114,6.743
		c-0.803,1.812-1.491,4.271-1.848,6.178c-0.504,2.717-0.834,6.209-0.834,9.174c0,0.452,0.008,0.891,0.024,1.313
		c0.065,1.691,0.482,3.774,0.813,5.32c0.258,1.191,1.02,3.661,1.021,3.67l0.109,0.353h51.705l0.108-0.353
		c0.002-0.009,0.765-2.479,1.022-3.669c0.332-1.547,0.749-3.63,0.814-5.321c0.016-0.423,0.023-0.861,0.023-1.313
		c-0.001-2.965-0.33-6.457-0.835-9.174c-0.355-1.908-1.045-4.367-1.849-6.178c-0.975-2.19-2.593-4.868-4.113-6.743
		c-1.641-2.019-4.048-4.531-6.37-5.968c-1.604-0.989-3.862-1.795-5.715-2.091c-0.685-0.108-1.474-0.187-2.293-0.187l-0.264,0.003
		c-0.91,0.019-1.83,0.128-2.652,0.414c-1.032,0.366-2.133,1.21-3.063,1.957c-0.394,0.318-0.723,0.604-0.998,0.847l0.331,0.375
		l0.332-0.374c-0.274-0.244-0.604-0.529-1-0.848c-0.929-0.746-2.03-1.59-3.063-1.956c-0.82-0.286-1.741-0.395-2.652-0.414
		L68.531,13.73l-0.01,0.5c0.842,0.016,1.671,0.123,2.342,0.358c0.784,0.267,1.87,1.062,2.765,1.79
		c0.38,0.306,0.696,0.58,0.964,0.818l0.331,0.293l0.332-0.293c0.27-0.238,0.586-0.512,0.964-0.818
		c0.896-0.729,1.983-1.524,2.766-1.791c0.674-0.236,1.502-0.342,2.343-0.358l0.243-0.003c0.756,0,1.496,0.073,2.137,0.175
		c1.696,0.265,3.896,1.053,5.346,1.954c2.148,1.322,4.532,3.788,6.119,5.748c1.449,1.782,3.048,4.426,3.976,6.519
		c0.757,1.699,1.44,4.125,1.78,5.955c0.491,2.643,0.817,6.101,0.817,8.991c0,0.44-0.008,0.867-0.023,1.276
		c-0.058,1.563-0.463,3.62-0.792,5.147c-0.117,0.545-0.369,1.45-0.59,2.209s-0.41,1.375-0.41,1.376l0.478,0.147v-0.5H49.44v0.5
		l0.478-0.147c0-0.001-0.19-0.616-0.411-1.376c-0.22-0.758-0.472-1.664-0.589-2.209c-0.329-1.527-0.734-3.585-0.792-5.147
		c-0.016-0.409-0.023-0.836-0.023-1.276c0-2.891,0.326-6.348,0.818-8.991c0.34-1.83,1.023-4.255,1.779-5.955
		c0.929-2.092,2.529-4.737,3.976-6.519c1.587-1.96,3.971-4.425,6.119-5.748c1.451-0.901,3.65-1.689,5.346-1.954
		c0.642-0.102,1.382-0.175,2.137-0.175l0.243,0.003L68.531,13.73z"/>
	<ellipse fill="#E9C6B0" cx="74.924" cy="61.72" rx="28.548" ry="17.063"/>
	<path fill="#010101" d="M74.924,44.658v0.5c7.803-0.001,14.86,1.895,19.93,4.927c2.535,1.515,4.572,3.312,5.967,5.283
		c1.395,1.973,2.15,4.111,2.151,6.353c-0.001,2.241-0.757,4.379-2.151,6.352c-2.091,2.958-5.632,5.521-10.122,7.333
		c-4.49,1.813-9.923,2.878-15.774,2.878c-7.802,0.001-14.86-1.895-19.929-4.928c-2.536-1.515-4.572-3.312-5.966-5.283
		c-1.395-1.973-2.15-4.11-2.151-6.352c0.001-2.241,0.757-4.38,2.151-6.353c2.09-2.958,5.631-5.521,10.122-7.332
		c4.489-1.813,9.922-2.878,15.774-2.878V44.658v-0.5c-7.964,0.001-15.18,1.925-20.442,5.068c-2.631,1.572-4.775,3.452-6.27,5.563
		c-1.494,2.11-2.336,4.46-2.335,6.931c-0.001,2.47,0.841,4.82,2.335,6.93c2.244,3.167,5.942,5.814,10.563,7.682
		c4.623,1.867,10.175,2.951,16.148,2.951c7.964-0.001,15.181-1.926,20.443-5.069c2.63-1.572,4.774-3.452,6.27-5.563
		c1.494-2.109,2.336-4.46,2.335-6.93c0.001-2.471-0.841-4.82-2.335-6.931c-2.244-3.167-5.942-5.814-10.564-7.682
		c-4.623-1.866-10.175-2.95-16.148-2.95V44.658z"/>
	<ellipse fill="#010101" cx="74.924" cy="66.913" rx="2.872" ry="2.993"/>
	<ellipse fill="#010101" cx="73.032" cy="53.7" rx="1.188" ry="1.239"/>
	<ellipse fill="#010101" cx="76.817" cy="53.7" rx="1.188" ry="1.239"/>
	<ellipse fill="#010101" cx="80.438" cy="39.494" rx="1.504" ry="3.64"/>
	<path fill="#010101" d="M80.438,43.134v0.5c0.379,0,0.705-0.189,0.942-0.437c0.362-0.376,0.606-0.901,0.786-1.533
		c0.176-0.632,0.275-1.374,0.275-2.169c-0.001-1.062-0.174-2.025-0.479-2.766c-0.154-0.371-0.34-0.689-0.582-0.939
		c-0.238-0.247-0.564-0.437-0.943-0.437c-0.379,0-0.705,0.189-0.943,0.437c-0.362,0.375-0.607,0.902-0.787,1.534
		c-0.177,0.633-0.275,1.374-0.275,2.17c0.001,1.062,0.174,2.024,0.479,2.764c0.154,0.371,0.341,0.688,0.584,0.938
		c0.238,0.247,0.564,0.437,0.943,0.437V43.134v-0.5c-0.037,0-0.107-0.014-0.229-0.136c-0.179-0.177-0.394-0.574-0.539-1.104
		c-0.147-0.529-0.238-1.188-0.238-1.9c-0.001-0.949,0.163-1.807,0.403-2.384c0.118-0.288,0.256-0.503,0.374-0.622
		c0.121-0.122,0.191-0.136,0.229-0.136c0.036,0,0.105,0.014,0.228,0.135c0.178,0.177,0.393,0.575,0.538,1.104
		c0.147,0.53,0.238,1.189,0.238,1.901c0.001,0.948-0.163,1.806-0.402,2.382c-0.118,0.288-0.257,0.503-0.374,0.621
		c-0.122,0.122-0.191,0.136-0.228,0.136V43.134z"/>
	<ellipse fill="#010101" cx="69.411" cy="39.494" rx="1.505" ry="3.64"/>
	<path fill="#010101" d="M69.411,43.134v0.5c0.378,0,0.705-0.189,0.944-0.437c0.362-0.376,0.606-0.901,0.786-1.533
		c0.176-0.633,0.275-1.374,0.275-2.169c-0.001-1.062-0.174-2.025-0.479-2.766c-0.154-0.371-0.34-0.689-0.583-0.939
		c-0.239-0.247-0.565-0.437-0.944-0.437c-0.378,0-0.705,0.19-0.943,0.437c-0.362,0.375-0.607,0.901-0.787,1.534
		c-0.177,0.632-0.275,1.374-0.276,2.17c0.001,1.062,0.174,2.024,0.479,2.764c0.154,0.371,0.34,0.688,0.583,0.938
		c0.238,0.247,0.565,0.437,0.943,0.437V43.134v-0.5c-0.037,0-0.106-0.014-0.229-0.136c-0.179-0.177-0.394-0.574-0.539-1.104
		c-0.148-0.529-0.239-1.188-0.239-1.9c-0.001-0.949,0.163-1.807,0.403-2.384c0.118-0.288,0.257-0.503,0.374-0.622
		c0.122-0.122,0.191-0.136,0.229-0.136s0.107,0.014,0.229,0.136c0.179,0.177,0.393,0.574,0.538,1.104
		c0.148,0.529,0.239,1.189,0.238,1.901c0.001,0.948-0.163,1.806-0.402,2.382c-0.118,0.288-0.256,0.503-0.374,0.621
		c-0.122,0.122-0.191,0.136-0.229,0.136V43.134z"/>
	<path fill="#EAC8B0" d="M138.915,37.616c-0.145-3.194-0.439-7.595-1.726-10.522c-0.603-1.373-1.61-2.583-3.004-3.137
		c-1.271-0.504-3.105-0.742-4.266-0.016c-1.258,0.788-2.524,2.503-3.066,3.886c-0.431,1.103-0.987,3.709-0.681,4.852
		c0.931,3.45-1.959-2.029-7.439-6.426c-2.132-1.71-5.793-3.024-8.519-3.23c-2.218-0.169-5.394,0.328-7.25,1.553
		c-1.732,1.143-3.234,3.716-3.993,5.648c-0.784,1.998-1.372,4.988-0.945,7.093c0.445,2.201,2.397,4.694,3.8,6.449
		c2.148,2.689,5.551,5.865,8.354,7.863c2.041,1.455,6.105,3.582,8.353,4.691c1.921,0.949,6.549,3.662,8.235,3.939
		c1.832,0.299,4.163-2.116,5.602-3.289c1.355-1.104,2.803-2.991,3.731-4.472c0.789-1.261,1.626-3.088,2.038-4.517
		C139.025,44.924,139.059,40.798,138.915,37.616z"/>
	<path fill="#010101" d="M138.915,37.616l0.499-0.022c-0.149-3.209-0.428-7.637-1.767-10.701c-0.641-1.457-1.724-2.781-3.277-3.401
		c-0.756-0.299-1.674-0.508-2.587-0.509c-0.745,0.001-1.495,0.14-2.129,0.535c-1.394,0.887-2.672,2.637-3.267,4.127
		c-0.37,0.963-0.798,2.801-0.803,4.193c0,0.351,0.026,0.675,0.105,0.971c0.112,0.409,0.158,0.691,0.154,0.762l0.001,0.002
		l0.336,0.058l-0.252-0.221l-0.084,0.163l0.336,0.058l-0.252-0.221l0.314,0.276v-0.419l-0.314,0.144l0.314,0.276v-0.419v0.334
		l0.117-0.315l-0.117-0.02v0.334l0.117-0.315l-0.06,0.161l0.077-0.154l-0.018-0.007l-0.06,0.161l0.077-0.154l-0.001,0.001
		l0.001-0.001l0,0l-0.001,0.001l0.001-0.001c-0.022-0.01-0.135-0.101-0.271-0.242c-0.496-0.5-1.387-1.598-2.577-2.907
		c-1.193-1.313-2.7-2.85-4.484-4.281c-2.253-1.795-5.947-3.115-8.793-3.338c-0.294-0.022-0.603-0.034-0.92-0.034
		c-2.198,0.007-4.876,0.513-6.644,1.668c-1.894,1.267-3.389,3.886-4.184,5.883c-0.623,1.595-1.121,3.75-1.123,5.691
		c0,0.586,0.046,1.154,0.153,1.684c0.246,1.202,0.875,2.417,1.61,3.563c0.737,1.145,1.586,2.219,2.289,3.099
		c2.189,2.737,5.605,5.925,8.455,7.958c2.099,1.494,6.158,3.614,8.421,4.732c0.938,0.463,2.582,1.382,4.197,2.218
		c0.81,0.418,1.613,0.816,2.33,1.132c0.721,0.315,1.34,0.549,1.849,0.635c0.134,0.022,0.268,0.032,0.401,0.032
		c1.099-0.012,2.133-0.634,3.097-1.342c0.959-0.714,1.846-1.552,2.501-2.085c1.43-1.169,2.885-3.077,3.839-4.594
		c0.817-1.311,1.663-3.153,2.095-4.644c0.67-2.317,0.857-5.159,0.859-7.778c0-0.96-0.026-1.89-0.065-2.75L138.915,37.616l-0.5,0.022
		c0.039,0.848,0.064,1.763,0.064,2.705c0.001,2.567-0.193,5.343-0.82,7.5c-0.393,1.367-1.221,3.179-1.981,4.39
		c-0.903,1.444-2.343,3.312-3.623,4.35c-0.701,0.572-1.567,1.391-2.466,2.059c-0.894,0.673-1.822,1.155-2.5,1.144l-0.24-0.019
		c-0.334-0.053-0.926-0.262-1.607-0.563c-2.063-0.906-5.02-2.604-6.486-3.331c-2.231-1.101-6.301-3.234-8.284-4.65
		c-2.758-1.963-6.146-5.127-8.254-7.769c-0.699-0.875-1.527-1.924-2.229-3.015c-0.703-1.089-1.272-2.222-1.472-3.221
		c-0.091-0.447-0.134-0.952-0.134-1.485c-0.002-1.768,0.474-3.852,1.055-5.326c0.723-1.866,2.231-4.394,3.803-5.413
		c1.477-0.986,4.057-1.51,6.093-1.503c0.294,0,0.577,0.01,0.844,0.031c2.605,0.188,6.233,1.497,8.244,3.122
		c2.101,1.686,3.824,3.542,5.092,4.982c0.635,0.721,1.154,1.337,1.561,1.785c0.204,0.225,0.377,0.406,0.537,0.548l0.248,0.188
		c0.091,0.051,0.193,0.114,0.386,0.12c0.094,0.001,0.212-0.025,0.311-0.088c0.152-0.097,0.224-0.238,0.254-0.338
		c0.031-0.104,0.036-0.187,0.036-0.269c-0.003-0.273-0.07-0.573-0.189-1.022c-0.044-0.163-0.071-0.415-0.07-0.71
		c-0.006-1.182,0.416-3.028,0.734-3.829c0.489-1.273,1.744-2.954,2.866-3.644c0.41-0.259,0.978-0.383,1.598-0.382
		c0.756-0.001,1.576,0.183,2.218,0.439c1.233,0.487,2.166,1.585,2.73,2.874c1.233,2.79,1.545,7.166,1.684,10.344L138.915,37.616z"/>
	<path fill="#EAC8B0" d="M10.935,37.616c0.144-3.194,0.438-7.595,1.725-10.522c0.604-1.373,1.61-2.583,3.004-3.137
		c1.271-0.504,3.106-0.742,4.266-0.016c1.259,0.788,2.525,2.503,3.066,3.886c0.432,1.103,0.988,3.709,0.681,4.852
		c-0.931,3.45,1.96-2.029,7.44-6.426c2.132-1.71,5.793-3.024,8.519-3.23c2.218-0.169,5.393,0.328,7.249,1.553
		c1.732,1.143,3.235,3.716,3.994,5.648c0.783,1.998,1.371,4.988,0.945,7.093c-0.446,2.201-2.398,4.694-3.801,6.449
		c-2.148,2.689-5.551,5.865-8.354,7.863c-2.042,1.455-6.106,3.582-8.354,4.691c-1.92,0.949-6.549,3.662-8.235,3.939
		c-1.832,0.299-4.163-2.116-5.602-3.289c-1.354-1.104-2.803-2.991-3.73-4.472c-0.789-1.261-1.627-3.088-2.039-4.517
		C10.823,44.924,10.791,40.798,10.935,37.616z"/>
	<path fill="#010101" d="M10.935,37.616l0.5,0.022c0.138-3.178,0.449-7.554,1.683-10.344c0.566-1.289,1.497-2.386,2.73-2.874
		c0.643-0.256,1.463-0.44,2.218-0.439c0.62-0.001,1.188,0.124,1.597,0.382c1.124,0.689,2.378,2.37,2.866,3.644
		c0.318,0.8,0.741,2.644,0.735,3.827c0,0.296-0.027,0.549-0.072,0.713c-0.118,0.448-0.186,0.748-0.189,1.021
		c0.003,0.109,0.005,0.222,0.082,0.379c0.04,0.077,0.109,0.166,0.208,0.228c0.099,0.063,0.217,0.09,0.31,0.089
		c0.192-0.005,0.295-0.068,0.387-0.12c0.166-0.104,0.3-0.23,0.467-0.397c0.566-0.576,1.431-1.646,2.606-2.938
		c1.172-1.289,2.642-2.786,4.366-4.168c2.01-1.625,5.638-2.933,8.243-3.122c0.267-0.021,0.55-0.031,0.844-0.031
		c2.036-0.007,4.615,0.517,6.092,1.503c1.572,1.02,3.081,3.547,3.804,5.413c0.58,1.475,1.056,3.56,1.053,5.328
		c0,0.533-0.042,1.037-0.133,1.483c-0.2,0.998-0.77,2.131-1.472,3.221c-0.702,1.091-1.53,2.14-2.229,3.015
		c-2.107,2.642-5.497,5.806-8.253,7.769c-1.984,1.416-6.054,3.55-8.285,4.65c-0.982,0.486-2.614,1.398-4.214,2.226
		c-0.799,0.413-1.588,0.805-2.273,1.105c-0.681,0.302-1.273,0.511-1.608,0.563l-0.239,0.019c-0.678,0.012-1.607-0.471-2.5-1.144
		c-0.898-0.668-1.765-1.486-2.465-2.059c-1.28-1.038-2.721-2.905-3.623-4.35c-0.76-1.211-1.59-3.022-1.982-4.39
		c-0.626-2.155-0.821-4.929-0.819-7.495c0-0.944,0.025-1.861,0.064-2.71L10.935,37.616l-0.5-0.022
		c-0.039,0.862-0.065,1.793-0.065,2.755c0.001,2.617,0.189,5.457,0.858,7.772c0.432,1.49,1.278,3.333,2.096,4.644
		c0.954,1.517,2.409,3.425,3.838,4.594c0.655,0.533,1.541,1.371,2.5,2.085c0.964,0.708,1.998,1.33,3.097,1.342
		c0.133,0,0.268-0.01,0.401-0.032c0.509-0.086,1.128-0.319,1.849-0.635c2.143-0.942,5.114-2.652,6.527-3.35
		c2.263-1.118,6.322-3.238,8.422-4.732c2.849-2.033,6.265-5.221,8.454-7.958c0.703-0.88,1.552-1.954,2.289-3.099
		c0.736-1.146,1.366-2.36,1.612-3.563c0.106-0.529,0.152-1.096,0.152-1.682c-0.002-1.941-0.499-4.098-1.123-5.693
		c-0.795-1.997-2.291-4.616-4.184-5.883c-1.768-1.155-4.444-1.661-6.643-1.668c-0.318,0-0.626,0.011-0.92,0.034
		c-2.846,0.224-6.541,1.543-8.793,3.338c-2.171,1.742-3.933,3.643-5.218,5.102c-0.642,0.729-1.165,1.349-1.55,1.774
		c-0.192,0.212-0.352,0.376-0.459,0.471l-0.105,0.083l0,0.001l0.134,0.267v-0.294c-0.094,0.002-0.127,0.025-0.134,0.027l0.134,0.267
		v-0.294v0.418l0.223-0.354l-0.223-0.065v0.418l0.223-0.354l-0.207,0.328l0.375-0.117c-0.011-0.039-0.054-0.139-0.168-0.211
		l-0.207,0.328l0.375-0.117l-0.197,0.061l0.205-0.024l-0.008-0.037l-0.197,0.061l0.205-0.024v-0.008
		c-0.003-0.071,0.042-0.353,0.155-0.761c0.079-0.296,0.105-0.621,0.106-0.973c-0.006-1.392-0.433-3.229-0.804-4.191
		c-0.594-1.491-1.873-3.241-3.267-4.127c-0.633-0.395-1.383-0.534-2.128-0.535c-0.913,0.001-1.831,0.21-2.587,0.509
		c-1.554,0.62-2.636,1.944-3.277,3.401c-1.339,3.064-1.618,7.492-1.767,10.701L10.935,37.616z"/>
</g>
</svg>
