<?xml version="1.0" encoding="utf-8"?>
<!-- Generator: Adobe Illustrator 16.0.0, SVG Export Plug-In . SVG Version: 6.00 Build 0)  -->
<!DOCTYPE svg PUBLIC "-//W3C//DTD SVG 1.1//EN" "http://www.w3.org/Graphics/SVG/1.1/DTD/svg11.dtd">
<svg version="1.1" id="Layer_1" xmlns="http://www.w3.org/2000/svg" xmlns:xlink="http://www.w3.org/1999/xlink" x="0px" y="0px"
	 width="386.587px" height="573.866px" viewBox="0 0 386.587 573.866" enable-background="new 0 0 386.587 573.866"
	 xml:space="preserve">
<g>
	<g>
		<g>
			
				<linearGradient id="SVGID_1_" gradientUnits="userSpaceOnUse" x1="211.1318" y1="466.0571" x2="255.9131" y2="466.0571" gradientTransform="matrix(0.9409 -0.5594 0.1172 0.9931 -63.5193 -30.7728)">
				<stop  offset="0" style="stop-color:#B5742A"/>
				<stop  offset="1" style="stop-color:#996226"/>
			</linearGradient>
			<polygon fill="url(#SVGID_1_)" points="263.38,555.732 232.604,570.947 158.268,47.14 183.141,34.842 190.329,40.981 			"/>
			
				<linearGradient id="SVGID_2_" gradientUnits="userSpaceOnUse" x1="204.9277" y1="465.5005" x2="249.707" y2="465.5005" gradientTransform="matrix(0.9409 -0.5594 0.1172 0.9931 -63.5193 -30.7728)">
				<stop  offset="0" style="stop-color:#E0A454"/>
				<stop  offset="1" style="stop-color:#C7893F"/>
			</linearGradient>
			<polygon fill="url(#SVGID_2_)" points="257.476,558.65 226.7,573.865 152.365,50.058 183.141,34.842 			"/>
			<g opacity="0.3">
				
					<linearGradient id="SVGID_3_" gradientUnits="userSpaceOnUse" x1="494.5732" y1="-5.8242" x2="494.5732" y2="19.2162" gradientTransform="matrix(0.1172 0.9931 -0.9409 0.5594 153.2876 -190.4445)">
					<stop  offset="0" style="stop-color:#E0A454"/>
					<stop  offset="1" style="stop-color:#C7893F"/>
				</linearGradient>
				<polygon fill="url(#SVGID_3_)" points="167.701,42.476 246.876,563.892 244.456,565.087 165.467,43.58 				"/>
				
					<linearGradient id="SVGID_4_" gradientUnits="userSpaceOnUse" x1="494.1045" y1="-2.2998" x2="494.1045" y2="26.5199" gradientTransform="matrix(0.1172 0.9931 -0.9409 0.5594 153.2876 -190.4445)">
					<stop  offset="0" style="stop-color:#E0A454"/>
					<stop  offset="1" style="stop-color:#C7893F"/>
				</linearGradient>
				<polygon fill="url(#SVGID_4_)" points="164.537,44.041 243.337,565.638 238.872,567.849 159.076,46.741 				"/>
				
					<linearGradient id="SVGID_5_" gradientUnits="userSpaceOnUse" x1="493.4502" y1="5.3032" x2="493.4502" y2="33.4724" gradientTransform="matrix(0.1172 0.9931 -0.9409 0.5594 153.2876 -190.4445)">
					<stop  offset="0" style="stop-color:#E0A454"/>
					<stop  offset="1" style="stop-color:#C7893F"/>
				</linearGradient>
				<polygon fill="url(#SVGID_5_)" points="154.396,49.054 236.136,569.201 232.431,571.031 152.365,50.058 				"/>
				
					<linearGradient id="SVGID_6_" gradientUnits="userSpaceOnUse" x1="495.5381" y1="-16.3833" x2="495.5381" y2="8.1863" gradientTransform="matrix(0.1172 0.9931 -0.9409 0.5594 153.2876 -190.4445)">
					<stop  offset="0" style="stop-color:#E0A454"/>
					<stop  offset="1" style="stop-color:#C7893F"/>
				</linearGradient>
				<polygon fill="url(#SVGID_6_)" points="179.883,36.453 256.944,558.912 250.228,562.234 175.891,38.427 				"/>
			</g>
		</g>
	</g>
	<g>
		<g>
			
				<linearGradient id="SVGID_7_" gradientUnits="userSpaceOnUse" x1="223.1025" y1="210.6348" x2="223.1025" y2="344.5875" gradientTransform="matrix(0.9317 -0.6203 0.1758 0.9562 -57.527 -7.0605)">
				<stop  offset="0" style="stop-color:#B5742A"/>
				<stop  offset="1" style="stop-color:#996226"/>
			</linearGradient>
			<path fill="url(#SVGID_7_)" d="M376.899,7.909L322.683,1.5c-3.707-0.439-7.986,0.572-12.123,2.863L20.542,164.937
				c-9.986,5.529-16.554,16.92-14.669,25.441l7.175,32.456l7.174,32.456c1.884,8.521,11.506,10.948,21.491,5.417l290.017-160.574
				c4.135-2.29,7.881-5.722,10.605-9.722l39.871-58.503C389.79,20.776,387.216,9.129,376.899,7.909z"/>
			<g>
				<defs>
					<path id="SVGID_8_" d="M371.351,6.508L317.134,0.1c-3.709-0.439-7.988,0.571-12.125,2.861L14.991,163.537
						c-9.985,5.529-16.553,16.919-14.669,25.439l7.174,32.458l7.174,32.455c1.884,8.522,11.506,10.949,21.491,5.419L326.177,98.734
						c4.139-2.291,7.883-5.723,10.609-9.723l39.867-58.502C384.239,19.375,381.663,7.728,371.351,6.508z"/>
				</defs>
				
					<linearGradient id="SVGID_9_" gradientUnits="userSpaceOnUse" x1="236.7441" y1="228.4873" x2="236.7441" y2="342.5409" gradientTransform="matrix(0.9409 -0.5594 0.1172 0.9931 -63.5193 -30.7728)">
					<stop  offset="0" style="stop-color:#E0A454"/>
					<stop  offset="1" style="stop-color:#C7893F"/>
				</linearGradient>
				<use xlink:href="#SVGID_8_"  overflow="visible" fill="url(#SVGID_9_)"/>
				<clipPath id="SVGID_10_">
					<use xlink:href="#SVGID_8_"  overflow="visible"/>
				</clipPath>
				<g opacity="0.3" clip-path="url(#SVGID_10_)">
					
						<linearGradient id="SVGID_11_" gradientUnits="userSpaceOnUse" x1="225.0596" y1="174.936" x2="225.0596" y2="230.6197" gradientTransform="matrix(0.9317 -0.6203 0.1758 0.9562 -57.527 -7.0605)">
						<stop  offset="0" style="stop-color:#E0A454"/>
						<stop  offset="1" style="stop-color:#C7893F"/>
					</linearGradient>
					<polygon fill="url(#SVGID_11_)" points="-19.169,158.229 392.942,-73.045 393.774,-69.282 -18.006,163.499 					"/>
					
						<linearGradient id="SVGID_12_" gradientUnits="userSpaceOnUse" x1="225.2783" y1="183.167" x2="225.2783" y2="235.2996" gradientTransform="matrix(0.9317 -0.6203 0.1758 0.9562 -57.527 -7.0605)">
						<stop  offset="0" style="stop-color:#E0A454"/>
						<stop  offset="1" style="stop-color:#C7893F"/>
					</linearGradient>
					<polygon fill="url(#SVGID_12_)" points="-17.506,165.758 394.495,-66.019 394.854,-64.389 -17.173,167.263 					"/>
					
						<linearGradient id="SVGID_13_" gradientUnits="userSpaceOnUse" x1="225.4609" y1="187.6123" x2="225.4609" y2="241.9457" gradientTransform="matrix(0.9317 -0.6203 0.1758 0.9562 -57.527 -7.0605)">
						<stop  offset="0" style="stop-color:#E0A454"/>
						<stop  offset="1" style="stop-color:#C7893F"/>
					</linearGradient>
					<polygon fill="url(#SVGID_13_)" points="-16.563,170.023 395.024,-63.636 396.161,-58.492 -15.842,173.285 					"/>
					
						<linearGradient id="SVGID_14_" gradientUnits="userSpaceOnUse" x1="225.6846" y1="194.3184" x2="225.6846" y2="248.6505" gradientTransform="matrix(0.9317 -0.6203 0.1758 0.9562 -57.527 -7.0605)">
						<stop  offset="0" style="stop-color:#E0A454"/>
						<stop  offset="1" style="stop-color:#C7893F"/>
					</linearGradient>
					<polygon fill="url(#SVGID_14_)" points="-15.176,176.296 396.882,-55.23 397.548,-52.219 -14.363,179.977 					"/>
					
						<linearGradient id="SVGID_15_" gradientUnits="userSpaceOnUse" x1="226.4814" y1="219.2852" x2="226.4814" y2="271.4178" gradientTransform="matrix(0.9317 -0.6203 0.1758 0.9562 -57.527 -7.0605)">
						<stop  offset="0" style="stop-color:#E0A454"/>
						<stop  offset="1" style="stop-color:#C7893F"/>
					</linearGradient>
					<polygon fill="url(#SVGID_15_)" points="-10.036,199.548 401.964,-32.228 402.325,-30.598 -9.704,201.053 					"/>
					
						<linearGradient id="SVGID_16_" gradientUnits="userSpaceOnUse" x1="226.5869" y1="221.4512" x2="226.5869" y2="275.7809" gradientTransform="matrix(0.9317 -0.6203 0.1758 0.9562 -57.527 -7.0605)">
						<stop  offset="0" style="stop-color:#E0A454"/>
						<stop  offset="1" style="stop-color:#C7893F"/>
					</linearGradient>
					<polygon fill="url(#SVGID_16_)" points="-9.565,201.682 402.493,-29.846 403.157,-26.835 -8.752,205.36 					"/>
					
						<linearGradient id="SVGID_17_" gradientUnits="userSpaceOnUse" x1="225.8896" y1="201.9688" x2="225.8896" y2="252.9419" gradientTransform="matrix(0.9317 -0.6203 0.1758 0.9562 -57.527 -7.0605)">
						<stop  offset="0" style="stop-color:#E0A454"/>
						<stop  offset="1" style="stop-color:#C7893F"/>
					</linearGradient>
					<polygon fill="url(#SVGID_17_)" points="-13.63,183.293 397.991,-50.212 398.544,-47.717 -13.329,184.661 					"/>
					
						<linearGradient id="SVGID_18_" gradientUnits="userSpaceOnUse" x1="226.002" y1="205.3652" x2="226.002" y2="256.3384" gradientTransform="matrix(0.9317 -0.6203 0.1758 0.9562 -57.527 -7.0605)">
						<stop  offset="0" style="stop-color:#E0A454"/>
						<stop  offset="1" style="stop-color:#C7893F"/>
					</linearGradient>
					<polygon fill="url(#SVGID_18_)" points="-12.926,186.47 398.692,-47.034 399.245,-44.539 -12.625,187.84 					"/>
					
						<linearGradient id="SVGID_19_" gradientUnits="userSpaceOnUse" x1="226.7861" y1="228.9287" x2="226.7861" y2="279.8994" gradientTransform="matrix(0.9317 -0.6203 0.1758 0.9562 -57.527 -7.0605)">
						<stop  offset="0" style="stop-color:#E0A454"/>
						<stop  offset="1" style="stop-color:#C7893F"/>
					</linearGradient>
					<polygon fill="url(#SVGID_19_)" points="-8.054,208.515 403.563,-24.989 404.116,-22.494 -7.752,209.883 					"/>
					
						<linearGradient id="SVGID_20_" gradientUnits="userSpaceOnUse" x1="226.248" y1="209.0815" x2="226.248" y2="268.3703" gradientTransform="matrix(0.9317 -0.6203 0.1758 0.9562 -57.527 -7.0605)">
						<stop  offset="0" style="stop-color:#E0A454"/>
						<stop  offset="1" style="stop-color:#C7893F"/>
					</linearGradient>
					<polygon fill="url(#SVGID_20_)" points="-12.07,190.348 400.097,-40.677 401.464,-34.486 -11.257,194.027 					"/>
					
						<linearGradient id="SVGID_21_" gradientUnits="userSpaceOnUse" x1="226.9941" y1="233.0981" x2="226.9941" y2="288.7818" gradientTransform="matrix(0.9317 -0.6203 0.1758 0.9562 -57.527 -7.0605)">
						<stop  offset="0" style="stop-color:#E0A454"/>
						<stop  offset="1" style="stop-color:#C7893F"/>
					</linearGradient>
					<polygon fill="url(#SVGID_21_)" points="-7.142,212.643 404.972,-18.632 405.802,-14.868 -5.978,217.913 					"/>
					
						<linearGradient id="SVGID_22_" gradientUnits="userSpaceOnUse" x1="227.2158" y1="241.3257" x2="227.2158" y2="293.462" gradientTransform="matrix(0.9317 -0.6203 0.1758 0.9562 -57.527 -7.0605)">
						<stop  offset="0" style="stop-color:#E0A454"/>
						<stop  offset="1" style="stop-color:#C7893F"/>
					</linearGradient>
					<polygon fill="url(#SVGID_22_)" points="-5.479,220.17 406.522,-11.606 406.886,-9.976 -5.146,221.676 					"/>
					
						<linearGradient id="SVGID_23_" gradientUnits="userSpaceOnUse" x1="227.3955" y1="245.7734" x2="227.3955" y2="300.1038" gradientTransform="matrix(0.9317 -0.6203 0.1758 0.9562 -57.527 -7.0605)">
						<stop  offset="0" style="stop-color:#E0A454"/>
						<stop  offset="1" style="stop-color:#C7893F"/>
					</linearGradient>
					<polygon fill="url(#SVGID_23_)" points="-4.535,224.436 407.052,-9.222 408.187,-4.079 -3.814,227.699 					"/>
					
						<linearGradient id="SVGID_24_" gradientUnits="userSpaceOnUse" x1="227.6201" y1="252.4785" x2="227.6201" y2="306.8113" gradientTransform="matrix(0.9317 -0.6203 0.1758 0.9562 -57.527 -7.0605)">
						<stop  offset="0" style="stop-color:#E0A454"/>
						<stop  offset="1" style="stop-color:#C7893F"/>
					</linearGradient>
					<polygon fill="url(#SVGID_24_)" points="-3.148,230.709 408.909,-0.818 409.575,2.194 -2.335,234.39 					"/>
					
						<linearGradient id="SVGID_25_" gradientUnits="userSpaceOnUse" x1="228.417" y1="277.4429" x2="228.417" y2="329.5798" gradientTransform="matrix(0.9317 -0.6203 0.1758 0.9562 -57.527 -7.0605)">
						<stop  offset="0" style="stop-color:#E0A454"/>
						<stop  offset="1" style="stop-color:#C7893F"/>
					</linearGradient>
					<polygon fill="url(#SVGID_25_)" points="1.991,253.959 413.991,22.185 414.353,23.815 2.325,255.466 					"/>
					
						<linearGradient id="SVGID_26_" gradientUnits="userSpaceOnUse" x1="228.5225" y1="279.6113" x2="228.5225" y2="333.9417" gradientTransform="matrix(0.9317 -0.6203 0.1758 0.9562 -57.527 -7.0605)">
						<stop  offset="0" style="stop-color:#E0A454"/>
						<stop  offset="1" style="stop-color:#C7893F"/>
					</linearGradient>
					<polygon fill="url(#SVGID_26_)" points="2.463,256.093 414.519,24.567 415.185,27.578 3.276,259.774 					"/>
					
						<linearGradient id="SVGID_27_" gradientUnits="userSpaceOnUse" x1="227.8252" y1="260.1299" x2="227.8252" y2="311.1024" gradientTransform="matrix(0.9317 -0.6203 0.1758 0.9562 -57.527 -7.0605)">
						<stop  offset="0" style="stop-color:#E0A454"/>
						<stop  offset="1" style="stop-color:#C7893F"/>
					</linearGradient>
					<polygon fill="url(#SVGID_27_)" points="-1.602,237.706 410.019,4.201 410.571,6.695 -1.301,239.073 					"/>
					
						<linearGradient id="SVGID_28_" gradientUnits="userSpaceOnUse" x1="227.9365" y1="263.5264" x2="227.9365" y2="314.4965" gradientTransform="matrix(0.9317 -0.6203 0.1758 0.9562 -57.527 -7.0605)">
						<stop  offset="0" style="stop-color:#E0A454"/>
						<stop  offset="1" style="stop-color:#C7893F"/>
					</linearGradient>
					<polygon fill="url(#SVGID_28_)" points="-0.898,240.883 410.72,7.379 411.271,9.874 -0.597,242.251 					"/>
					
						<linearGradient id="SVGID_29_" gradientUnits="userSpaceOnUse" x1="228.7197" y1="287.0918" x2="228.7197" y2="338.0588" gradientTransform="matrix(0.9317 -0.6203 0.1758 0.9562 -57.527 -7.0605)">
						<stop  offset="0" style="stop-color:#E0A454"/>
						<stop  offset="1" style="stop-color:#C7893F"/>
					</linearGradient>
					<polygon fill="url(#SVGID_29_)" points="3.974,262.929 415.591,29.424 416.144,31.918 4.276,264.294 					"/>
					
						<linearGradient id="SVGID_30_" gradientUnits="userSpaceOnUse" x1="228.1846" y1="267.2407" x2="228.1846" y2="326.5338" gradientTransform="matrix(0.9317 -0.6203 0.1758 0.9562 -57.527 -7.0605)">
						<stop  offset="0" style="stop-color:#E0A454"/>
						<stop  offset="1" style="stop-color:#C7893F"/>
					</linearGradient>
					<polygon fill="url(#SVGID_30_)" points="-0.042,244.759 412.126,13.735 413.493,19.926 0.771,248.439 					"/>
					
						<linearGradient id="SVGID_31_" gradientUnits="userSpaceOnUse" x1="229.1553" y1="299.6401" x2="229.1553" y2="351.774" gradientTransform="matrix(0.9317 -0.6203 0.1758 0.9562 -57.527 -7.0605)">
						<stop  offset="0" style="stop-color:#E0A454"/>
						<stop  offset="1" style="stop-color:#C7893F"/>
					</linearGradient>
					<polygon fill="url(#SVGID_31_)" points="6.582,274.726 418.583,42.95 418.942,44.58 6.915,276.231 					"/>
					
						<linearGradient id="SVGID_32_" gradientUnits="userSpaceOnUse" x1="229.2588" y1="301.8062" x2="229.2588" y2="356.1383" gradientTransform="matrix(0.9317 -0.6203 0.1758 0.9562 -57.527 -7.0605)">
						<stop  offset="0" style="stop-color:#E0A454"/>
						<stop  offset="1" style="stop-color:#C7893F"/>
					</linearGradient>
					<polygon fill="url(#SVGID_32_)" points="7.053,276.858 419.108,45.333 419.772,48.345 7.867,280.541 					"/>
					
						<linearGradient id="SVGID_33_" gradientUnits="userSpaceOnUse" x1="229.46" y1="309.2847" x2="229.46" y2="360.2566" gradientTransform="matrix(0.9317 -0.6203 0.1758 0.9562 -57.527 -7.0605)">
						<stop  offset="0" style="stop-color:#E0A454"/>
						<stop  offset="1" style="stop-color:#C7893F"/>
					</linearGradient>
					<polygon fill="url(#SVGID_33_)" points="8.563,283.693 420.185,50.189 420.735,52.684 8.867,285.062 					"/>
					
						<linearGradient id="SVGID_34_" gradientUnits="userSpaceOnUse" x1="229.9873" y1="325.1694" x2="229.9873" y2="376.1389" gradientTransform="matrix(0.9317 -0.6203 0.1758 0.9562 -57.527 -7.0605)">
						<stop  offset="0" style="stop-color:#E0A454"/>
						<stop  offset="1" style="stop-color:#C7893F"/>
					</linearGradient>
					<polygon fill="url(#SVGID_34_)" points="11.849,298.553 423.47,65.05 424.019,67.545 12.151,299.921 					"/>
					
						<linearGradient id="SVGID_35_" gradientUnits="userSpaceOnUse" x1="228.9229" y1="289.4399" x2="228.9229" y2="348.7275" gradientTransform="matrix(0.9317 -0.6203 0.1758 0.9562 -57.527 -7.0605)">
						<stop  offset="0" style="stop-color:#E0A454"/>
						<stop  offset="1" style="stop-color:#C7893F"/>
					</linearGradient>
					<polygon fill="url(#SVGID_35_)" points="4.549,265.527 416.718,34.501 418.083,40.692 5.362,269.207 					"/>
					
						<linearGradient id="SVGID_36_" gradientUnits="userSpaceOnUse" x1="229.709" y1="313.0005" x2="229.709" y2="372.293" gradientTransform="matrix(0.9317 -0.6203 0.1758 0.9562 -57.527 -7.0605)">
						<stop  offset="0" style="stop-color:#E0A454"/>
						<stop  offset="1" style="stop-color:#C7893F"/>
					</linearGradient>
					<polygon fill="url(#SVGID_36_)" points="9.421,287.569 421.589,56.545 422.96,62.735 10.235,291.25 					"/>
				</g>
			</g>
		</g>
		<g>
			<g>
				
					<radialGradient id="SVGID_37_" cx="232.1729" cy="305.1655" r="5.6902" gradientTransform="matrix(1.2739 -0.7053 0.2404 1.0873 -196.6927 -85.1061)" gradientUnits="userSpaceOnUse">
					<stop  offset="0" style="stop-color:#A7A9AC"/>
					<stop  offset="1" style="stop-color:#414042"/>
				</radialGradient>
				<path fill="url(#SVGID_37_)" d="M174.963,83.324c0.423,1.913-1.052,4.469-3.292,5.709c-2.24,1.24-4.401,0.696-4.823-1.216
					c-0.423-1.913,1.051-4.468,3.292-5.708C172.382,80.868,174.54,81.412,174.963,83.324z"/>
			</g>
			<g>
				
					<radialGradient id="SVGID_38_" cx="232.1719" cy="379.1616" r="5.6898" gradientTransform="matrix(1.2739 -0.7053 0.2404 1.0873 -196.6927 -85.1061)" gradientUnits="userSpaceOnUse">
					<stop  offset="0" style="stop-color:#A7A9AC"/>
					<stop  offset="1" style="stop-color:#414042"/>
				</radialGradient>
				<path fill="url(#SVGID_38_)" d="M192.747,163.779c0.424,1.912-1.051,4.469-3.292,5.708c-2.24,1.24-4.399,0.695-4.823-1.216
					c-0.422-1.912,1.051-4.468,3.292-5.708C190.166,161.321,192.325,161.868,192.747,163.779z"/>
			</g>
		</g>
	</g>
	<text transform="matrix(1.1547 -0.7219 0.307 0.9517 42.1895 222.9375)" font-family="'MyriadPro-Regular'" font-size="45.2135">HOMEWOOD</text>
</g>
</svg>
