<?xml version="1.0" encoding="utf-8"?>
<!-- Generator: Adobe Illustrator 16.0.0, SVG Export Plug-In . SVG Version: 6.00 Build 0)  -->
<!DOCTYPE svg PUBLIC "-//W3C//DTD SVG 1.1//EN" "http://www.w3.org/Graphics/SVG/1.1/DTD/svg11.dtd">
<svg version="1.1" id="Layer_1" xmlns="http://www.w3.org/2000/svg" xmlns:xlink="http://www.w3.org/1999/xlink" x="0px" y="0px"
	 width="312.026px" height="346.167px" viewBox="0 0 312.026 346.167" enable-background="new 0 0 312.026 346.167"
	 xml:space="preserve">
<g>
	<title>Layer 1</title>
	<path id="svg_70" fill="#7F421C" stroke="#BE6228" stroke-width="3" d="M116.126,2.783l57.622-0.825l1.834,19.702l-59.456-4.377
		V2.783z"/>
	<path id="svg_7_1_" fill="#7F421C" stroke="#7F421C" stroke-width="5" d="M109.892,11.297l67.576-0.325v81.615l-62.233-3.239
		L109.892,11.297z"/>
	<path id="svg_4_1_" fill="#010101" stroke="#010101" stroke-width="5" d="M67.931,15.183c17.55-4.858,33.525-4.858,47.932,0
		l29.86,53.438l29.074-55.058c15.977-5.667,31.954-4.048,47.932,0c40.073,56.677,62.076,120.642,86.435,182.986
		c-6.024,7.287-14.405,12.955-24.358,13.765c-31.693-63.425-52.386-114.703-80.936-144.122c-3.143,73.409,8.382,221.58,20.17,270.7
		c-47.409,10.525-91.412,7.557-141.965-0.54c8.382-48.58,19.122-195.671,9.43-268.541C70.025,98.04,50.906,150.128,27.07,216.791
		c-8.905,0.811-17.024-2.429-24.358-9.716C15.808,140.682,36.763,76.719,67.931,15.183z"/>
	<path id="svg_5_1_" fill="#BE6228" stroke="#BE6228" stroke-width="5" d="M67.215,15.414c17.143-4.748,33.013-5.558,47.086-0.81
		l29.691,53.843l30.76-54.885c15.608-5.539,30.695-4.224,46.304-0.267c39.148,55.388,62.74,121.675,86.536,182.604
		c-5.886,7.12-13.287,12.655-23.011,13.447c-30.959-61.982-55.11-114.523-83-143.273c-3.069,71.741,9.171,221.978,20.684,269.981
		c-46.312,10.286-92.972,6.565-142.354-1.347c8.188-47.477,19.8-196.648,10.333-267.861c-20.981,29.54-41.235,83.686-64.521,148.834
		c-8.698,0.79-15.847-3.181-23.011-10.303C15.505,140.494,36.767,75.549,67.215,15.414L67.215,15.414z"/>
	<path id="svg_6_1_" fill="#7F421C" fill-opacity="0.9" stroke="#7F421C" stroke-width="5" stroke-opacity="0.9" d="M66.429,15.78
		c15.833-4.478,27.775-6.907,42.633-4.588l34.671,64.099l33.639-64.332c15.608-2.3,28.076-1.524,43.685,2.432
		c39.148,55.388,59.859,115.74,83.654,176.666c-5.884,7.12-13.811,14.006-23.534,14.798C250.217,142.872,229.21,95.458,201.32,66.71
		c-3.071,71.74,9.169,217.929,19.635,265.932c-46.312,10.286-93.495,5.756-142.878-2.157c8.188-47.475,20.848-191.789,11.38-263.002
		C68.476,97.022,49.793,147.391,26.51,212.537c-8.699,0.791-16.371-3.45-23.536-10.572C15.767,137.083,35.981,75.916,66.429,15.78z"
		/>
	<path id="svg_12_1_" fill="none" stroke="#191919" d="M304.447,35.83"/>
	<path id="svg_13_1_" fill="none" stroke="#191919" d="M304.58,35.965"/>
	<g id="svg_26_1_">
		<ellipse id="svg_27_1_" fill="#333333" stroke="#191919" cx="138.913" cy="133.125" rx="3.239" ry="3.338"/>
		<line id="svg_28_1_" fill="none" stroke="#191919" stroke-linecap="round" x1="138.388" y1="132.451" x2="138.388" y2="132.585"/>
		<line id="svg_29_1_" fill="none" stroke="#191919" stroke-linecap="round" x1="139.96" y1="132.585" x2="140.092" y2="132.585"/>
		<line id="svg_30_1_" fill="none" stroke="#191919" stroke-linecap="round" x1="139.96" y1="134.339" x2="140.092" y2="134.339"/>
		<line id="svg_31_1_" fill="none" stroke="#191919" stroke-linecap="round" x1="138.257" y1="134.339" x2="138.388" y2="134.339"/>
	</g>
	<g id="svg_32_1_">
		<ellipse id="svg_33_1_" fill="#333333" stroke="#191919" cx="140.274" cy="163.245" rx="3.239" ry="3.338"/>
		<line id="svg_34" fill="none" stroke="#191919" stroke-linecap="round" x1="139.751" y1="162.57" x2="139.751" y2="162.704"/>
		<line id="svg_35" fill="none" stroke="#191919" stroke-linecap="round" x1="141.322" y1="162.704" x2="141.453" y2="162.704"/>
		<line id="svg_36" fill="none" stroke="#191919" stroke-linecap="round" x1="141.322" y1="164.46" x2="141.453" y2="164.46"/>
		<line id="svg_37" fill="none" stroke="#191919" stroke-linecap="round" x1="139.619" y1="164.46" x2="139.751" y2="164.46"/>
	</g>
	<g id="svg_38">
		<ellipse id="svg_39" fill="#333333" stroke="#191919" cx="138.598" cy="99.334" rx="3.241" ry="3.338"/>
		<line id="svg_40" fill="none" stroke="#191919" stroke-linecap="round" x1="138.074" y1="98.66" x2="138.074" y2="98.794"/>
		<line id="svg_41" fill="none" stroke="#191919" stroke-linecap="round" x1="139.646" y1="98.794" x2="139.777" y2="98.794"/>
		<line id="svg_42" fill="none" stroke="#191919" stroke-linecap="round" x1="139.646" y1="100.551" x2="139.777" y2="100.551"/>
		<line id="svg_43" fill="none" stroke="#191919" stroke-linecap="round" x1="137.943" y1="100.551" x2="138.074" y2="100.551"/>
	</g>
	<g id="svg_44">
		<ellipse id="svg_45" fill="#333333" stroke="#191919" cx="140.064" cy="198.871" rx="3.241" ry="3.338"/>
		<line id="svg_46" fill="none" stroke="#191919" stroke-linecap="round" x1="139.541" y1="198.195" x2="139.541" y2="198.33"/>
		<line id="svg_47" fill="none" stroke="#191919" stroke-linecap="round" x1="141.112" y1="198.33" x2="141.244" y2="198.33"/>
		<line id="svg_48" fill="none" stroke="#191919" stroke-linecap="round" x1="141.112" y1="200.086" x2="141.244" y2="200.086"/>
		<line id="svg_49" fill="none" stroke="#191919" stroke-linecap="round" x1="139.41" y1="200.086" x2="139.541" y2="200.086"/>
	</g>
	<g id="svg_50">
		<ellipse id="svg_51" fill="#333333" stroke="#191919" cx="141.218" cy="234.604" rx="3.239" ry="3.338"/>
		<line id="svg_52" fill="none" stroke="#191919" stroke-linecap="round" x1="140.693" y1="233.93" x2="140.693" y2="234.064"/>
		<line id="svg_53" fill="none" stroke="#191919" stroke-linecap="round" x1="142.264" y1="234.064" x2="142.397" y2="234.064"/>
		<line id="svg_54" fill="none" stroke="#191919" stroke-linecap="round" x1="142.264" y1="235.818" x2="142.397" y2="235.818"/>
		<line id="svg_55" fill="none" stroke="#191919" stroke-linecap="round" x1="140.563" y1="235.818" x2="140.693" y2="235.818"/>
	</g>
	<g id="svg_56">
		<ellipse id="svg_57" fill="#333333" stroke="#191919" cx="141.741" cy="271.742" rx="3.239" ry="3.338"/>
		<line id="svg_58" fill="none" stroke="#191919" stroke-linecap="round" x1="141.218" y1="271.066" x2="141.218" y2="271.2"/>
		<line id="svg_59" fill="none" stroke="#191919" stroke-linecap="round" x1="142.789" y1="271.2" x2="142.92" y2="271.2"/>
		<line id="svg_60" fill="none" stroke="#191919" stroke-linecap="round" x1="142.789" y1="272.955" x2="142.92" y2="272.955"/>
		<line id="svg_61" fill="none" stroke="#191919" stroke-linecap="round" x1="141.086" y1="272.955" x2="141.218" y2="272.955"/>
	</g>
	<g id="svg_62">
		<ellipse id="svg_63" fill="#333333" stroke="#191919" cx="141.741" cy="304.667" rx="3.239" ry="3.338"/>
		<line id="svg_64" fill="none" stroke="#191919" stroke-linecap="round" x1="141.218" y1="303.992" x2="141.218" y2="304.127"/>
		<line id="svg_65" fill="none" stroke="#191919" stroke-linecap="round" x1="142.789" y1="304.127" x2="142.92" y2="304.127"/>
		<line id="svg_66" fill="none" stroke="#191919" stroke-linecap="round" x1="142.789" y1="305.882" x2="142.92" y2="305.882"/>
		<line id="svg_67" fill="none" stroke="#191919" stroke-linecap="round" x1="141.086" y1="305.882" x2="141.218" y2="305.882"/>
	</g>
	<path id="svg_71" fill="#010101" stroke="#010101" stroke-width="3" d="M185.945,11.044l-9.98-7.196l-38.362,79.455l36.367,2.592
		l-7.317-26.773L209.894,33.5L185.945,11.044z"/>
	<path id="svg_72" fill="#010101" stroke="#010101" stroke-width="3" d="M102.155,10.73l11.858-6.748l45.59,74.49L116.385,80.9
		l8.697-25.099L73.694,31.781L102.155,10.73z"/>
	<path id="svg_68" fill="#7F421C" stroke="#BE6228" stroke-width="3" d="M103.553,9.785l11.787-6.747l45.312,74.489l-42.954,2.43
		l8.644-25.1l-51.075-24.02L103.553,9.785z"/>
	<path id="svg_69" fill="#7F421C" stroke="#BE6228" stroke-width="3" d="M185.339,9.473l-10.34-7.244l-39.754,79.979l37.686,2.607
		l-7.583-26.948l44.808-25.791L185.339,9.473z"/>
	<path id="svg_73" fill="#010101" stroke="#010101" d="M147.215,53.346l-18.386,39.34l-0.105,250.576h3.144v-250.4l17.233-38.242"/>
	<path id="svg_9_1_" fill="#BE6228" stroke="#BE6228" d="M147.789,53.454l-18.15,39.267l-0.103,250.109h3.102V92.896l17.014-38.17"
		/>
</g>
</svg>
