<?xml version="1.0" encoding="utf-8"?>
<!-- Generator: Adobe Illustrator 16.0.0, SVG Export Plug-In . SVG Version: 6.00 Build 0)  -->
<!DOCTYPE svg PUBLIC "-//W3C//DTD SVG 1.1//EN" "http://www.w3.org/Graphics/SVG/1.1/DTD/svg11.dtd">
<svg version="1.1" id="Layer_1" xmlns="http://www.w3.org/2000/svg" xmlns:xlink="http://www.w3.org/1999/xlink" x="0px" y="0px"
	 width="389.764px" height="309.137px" viewBox="0 0 389.764 309.137" enable-background="new 0 0 389.764 309.137"
	 xml:space="preserve">
<g>
	<linearGradient id="SVGID_1_" gradientUnits="userSpaceOnUse" x1="186.3696" y1="90.5127" x2="195.2552" y2="90.5127">
		<stop  offset="0" style="stop-color:#7F7F7F"/>
		<stop  offset="0.0753" style="stop-color:#E7E6E5"/>
		<stop  offset="0.2204" style="stop-color:#949494"/>
		<stop  offset="0.5" style="stop-color:#FFFFFF"/>
		<stop  offset="0.7796" style="stop-color:#AAABAB"/>
		<stop  offset="1" style="stop-color:#717272"/>
	</linearGradient>
	<rect x="186.083" y="24.761" fill="url(#SVGID_1_)" width="9.089" height="131.504"/>
	<linearGradient id="SVGID_2_" gradientUnits="userSpaceOnUse" x1="190.6274" y1="22.9775" x2="190.6274" y2="36.5474">
		<stop  offset="0" style="stop-color:#7F7F7F"/>
		<stop  offset="0.0753" style="stop-color:#E7E6E5"/>
		<stop  offset="0.2204" style="stop-color:#949494"/>
		<stop  offset="0.5" style="stop-color:#FFFFFF"/>
		<stop  offset="0.7796" style="stop-color:#AAABAB"/>
		<stop  offset="1" style="stop-color:#717272"/>
	</linearGradient>
	<rect x="87.567" y="24.761" fill="url(#SVGID_2_)" width="206.121" height="8.559"/>
	<linearGradient id="SVGID_3_" gradientUnits="userSpaceOnUse" x1="190.6274" y1="83.7515" x2="190.6274" y2="97.3197">
		<stop  offset="0" style="stop-color:#7F7F7F"/>
		<stop  offset="0.0753" style="stop-color:#E7E6E5"/>
		<stop  offset="0.2204" style="stop-color:#949494"/>
		<stop  offset="0.5" style="stop-color:#FFFFFF"/>
		<stop  offset="0.7796" style="stop-color:#AAABAB"/>
		<stop  offset="1" style="stop-color:#717272"/>
	</linearGradient>
	<rect x="87.567" y="85.534" fill="url(#SVGID_3_)" width="206.121" height="8.558"/>
	<g>
		<g>
			<linearGradient id="SVGID_4_" gradientUnits="userSpaceOnUse" x1="151.5928" y1="192.2578" x2="160.8632" y2="196.3136">
				<stop  offset="0" style="stop-color:#7F7F7F"/>
				<stop  offset="0.0753" style="stop-color:#E7E6E5"/>
				<stop  offset="0.2204" style="stop-color:#949494"/>
				<stop  offset="0.5" style="stop-color:#FFFFFF"/>
				<stop  offset="0.7796" style="stop-color:#AAABAB"/>
				<stop  offset="1" style="stop-color:#717272"/>
			</linearGradient>
			<path fill="url(#SVGID_4_)" d="M130.543,260.621c-0.668,0-1.348-0.129-2.003-0.403c-2.659-1.106-3.916-4.159-2.81-6.818
				l50.987-122.403c1.107-2.659,4.16-3.916,6.819-2.809c2.658,1.107,3.916,4.161,2.809,6.818l-50.987,122.405
				C134.524,259.414,132.586,260.621,130.543,260.621z"/>
			<linearGradient id="SVGID_5_" gradientUnits="userSpaceOnUse" x1="220.7354" y1="196.165" x2="230.0072" y2="192.1086">
				<stop  offset="0" style="stop-color:#7F7F7F"/>
				<stop  offset="0.0753" style="stop-color:#E7E6E5"/>
				<stop  offset="0.2204" style="stop-color:#949494"/>
				<stop  offset="0.5" style="stop-color:#FFFFFF"/>
				<stop  offset="0.7796" style="stop-color:#AAABAB"/>
				<stop  offset="1" style="stop-color:#717272"/>
			</linearGradient>
			<path fill="url(#SVGID_5_)" d="M250.713,260.621c-2.042,0-3.98-1.207-4.815-3.21l-50.986-122.405
				c-1.108-2.657,0.15-5.711,2.81-6.818c2.656-1.107,5.71,0.149,6.818,2.809l50.986,122.403c1.107,2.659-0.151,5.712-2.809,6.818
				C252.062,260.492,251.382,260.621,250.713,260.621z"/>
		</g>
		<g>
			<linearGradient id="SVGID_6_" gradientUnits="userSpaceOnUse" x1="185.4131" y1="218.4619" x2="195.8428" y2="218.4619">
				<stop  offset="0" style="stop-color:#7F7F7F"/>
				<stop  offset="0.0753" style="stop-color:#E7E6E5"/>
				<stop  offset="0.2204" style="stop-color:#949494"/>
				<stop  offset="0.5" style="stop-color:#FFFFFF"/>
				<stop  offset="0.7796" style="stop-color:#AAABAB"/>
				<stop  offset="1" style="stop-color:#717272"/>
			</linearGradient>
			<path fill="url(#SVGID_6_)" d="M190.628,309.137c-2.88,0-5.215-2.335-5.215-5.214V133.002c0-2.881,2.335-5.215,5.215-5.215
				s5.215,2.334,5.215,5.215v170.921C195.843,306.802,193.508,309.137,190.628,309.137z"/>
		</g>
		<linearGradient id="SVGID_7_" gradientUnits="userSpaceOnUse" x1="167.5488" y1="132.4473" x2="212.8389" y2="132.4473">
			<stop  offset="0" style="stop-color:#7F7F7F"/>
			<stop  offset="0.0753" style="stop-color:#E7E6E5"/>
			<stop  offset="0.2204" style="stop-color:#949494"/>
			<stop  offset="0.5" style="stop-color:#FFFFFF"/>
			<stop  offset="0.7796" style="stop-color:#AAABAB"/>
			<stop  offset="1" style="stop-color:#717272"/>
		</linearGradient>
		<path fill="url(#SVGID_7_)" d="M167.549,127.428v7.934c0,1.163,10.139,2.105,22.645,2.105c12.507,0,22.646-0.942,22.646-2.105
			v-7.934H167.549z"/>
		<linearGradient id="SVGID_8_" gradientUnits="userSpaceOnUse" x1="190.1938" y1="115.9087" x2="190.1938" y2="133.0972">
			<stop  offset="0" style="stop-color:#7F7F7F"/>
			<stop  offset="0.0753" style="stop-color:#E7E6E5"/>
			<stop  offset="0.2204" style="stop-color:#949494"/>
			<stop  offset="0.5" style="stop-color:#FFFFFF"/>
			<stop  offset="0.7796" style="stop-color:#AAABAB"/>
			<stop  offset="1" style="stop-color:#717272"/>
		</linearGradient>
		<ellipse fill="url(#SVGID_8_)" cx="190.194" cy="127.428" rx="22.645" ry="2.106"/>
	</g>
</g>
<g>
	<g>
		<polygon fill="#010101" stroke="#010101" stroke-miterlimit="10" points="42.38,0.501 359.018,1.534 388.986,105.534 
			0.911,104.501 		"/>
		
			<linearGradient id="SVGID_9_" gradientUnits="userSpaceOnUse" x1="357.6807" y1="-141.522" x2="452.1885" y2="-141.522" gradientTransform="matrix(-0.0027 1 1 0.0027 338.6492 -354.4851)">
			<stop  offset="0" style="stop-color:#8E8D8D"/>
			<stop  offset="1" style="stop-color:#010101"/>
		</linearGradient>
		<path fill="url(#SVGID_9_)" stroke="#010101" stroke-miterlimit="10" d="M45.914,96.915C20.989,96.848,7.958,93.27,8.139,92.813
			L43.721,2.516c0.181-0.458,11.755,0.651,32.485,0.719l239.653,0.778c20.807,0.068,41.997-0.933,42.127-0.474l25.71,90.295
			c0.13,0.457-24.693,3.928-49.697,3.859L45.914,96.915z"/>
		
			<linearGradient id="SVGID_10_" gradientUnits="userSpaceOnUse" x1="357.9434" y1="-139.1582" x2="404.7178" y2="-139.1582" gradientTransform="matrix(-0.0027 1 1 0.0027 338.6492 -354.4851)">
			<stop  offset="0" style="stop-color:#8E8D8D"/>
			<stop  offset="1" style="stop-color:#010101"/>
		</linearGradient>
		<path fill="url(#SVGID_10_)" stroke="#010101" stroke-miterlimit="10" d="M61.282,49.42c-22.799-0.067-35.373-1.68-35.283-1.906
			l17.629-44.76c0.089-0.229,11.968,0.086,32.683,0.153l239.483,0.778c20.792,0.067,42.193-0.137,42.258,0.089l12.754,44.761
			c0.064,0.227-23.12,1.729-45.994,1.662L61.282,49.42L61.282,49.42z"/>
		
			<linearGradient id="SVGID_11_" gradientUnits="userSpaceOnUse" x1="357.6445" y1="-139.2388" x2="406.0264" y2="-139.2388" gradientTransform="matrix(-0.0027 1 1 0.0027 338.6492 -354.4851)">
			<stop  offset="0" style="stop-color:#8E8D8D"/>
			<stop  offset="1" style="stop-color:#010101"/>
		</linearGradient>
		<path opacity="0.5" fill="url(#SVGID_11_)" stroke="#010101" stroke-miterlimit="10" enable-background="new    " d="
			M60.858,50.73c-22.856-0.068-35.567-1.42-35.474-1.655L43.74,2.467c0.093-0.234,11.978,0.044,32.677,0.112L315.73,3.356
			c20.777,0.068,42.174-0.103,42.24,0.133l13.281,46.608c0.066,0.234-23.252,1.479-46.187,1.41L60.858,50.73z"/>
		<g>
			<g>
				<path fill="#676767" d="M316.173,6.005c5.131,0.016,10.367,5.073,11.698,11.296c1.329,6.222-1.954,11.253-7.331,11.236
					c-5.379-0.018-10.616-5.074-11.697-11.297C307.761,11.018,311.042,5.987,316.173,6.005z"/>
				<path opacity="0.5" fill="#676767" enable-background="new    " d="M316.173,6.005c5.131,0.016,10.367,5.073,11.698,11.296
					c1.329,6.222-1.954,11.253-7.331,11.236c-5.379-0.018-10.616-5.074-11.697-11.297C307.761,11.018,311.042,5.987,316.173,6.005z"
					/>
			</g>
			<g>
				<path fill="#676767" d="M340.124,5.401c7.557,0.023,15.729,7.48,18.251,16.657c2.521,9.175-2,16.594-10.095,16.57
					c-8.097-0.025-16.267-7.483-18.248-16.659C328.049,12.793,332.567,5.377,340.124,5.401z"/>
				<path opacity="0.5" fill="#676767" enable-background="new    " d="M340.124,5.401c7.557,0.023,15.729,7.48,18.251,16.657
					c2.521,9.175-2,16.594-10.095,16.57c-8.097-0.025-16.267-7.483-18.248-16.659C328.049,12.793,332.567,5.377,340.124,5.401z"/>
			</g>
			<g>
				<path fill="#676767" d="M327.231,28.103c2.932,0.009,5.908,2.768,6.649,6.161s-1.095,6.138-4.099,6.128
					c-3.004-0.009-5.98-2.767-6.648-6.161C322.467,30.837,324.301,28.093,327.231,28.103z"/>
				<path opacity="0.5" fill="#676767" enable-background="new    " d="M327.231,28.103c2.932,0.009,5.908,2.768,6.649,6.161
					s-1.095,6.138-4.099,6.128c-3.004-0.009-5.98-2.767-6.648-6.161C322.467,30.837,324.301,28.093,327.231,28.103z"/>
			</g>
		</g>
		<g>
			<g>
				<path fill="#676767" d="M84.82,5.258c5.114,0.017,7.832,5.074,6.069,11.295c-1.761,6.222-7.537,11.252-12.899,11.236
					c-5.361-0.017-8.077-5.075-6.067-11.296C73.933,10.271,79.706,5.24,84.82,5.258z"/>
				<path opacity="0.5" fill="#676767" enable-background="new    " d="M84.82,5.258c5.114,0.017,7.832,5.074,6.069,11.295
					c-1.761,6.222-7.537,11.252-12.899,11.236c-5.361-0.017-8.077-5.075-6.067-11.296C73.933,10.271,79.706,5.24,84.82,5.258z"/>
			</g>
			<g>
				<path fill="#676767" d="M61.031,4.497c7.528,0.023,11.209,7.482,8.223,16.659c-2.986,9.174-11.948,16.592-20.016,16.568
					c-8.067-0.024-11.746-7.482-8.221-16.657C44.544,11.891,53.502,4.473,61.031,4.497z"/>
				<path opacity="0.5" fill="#676767" enable-background="new    " d="M61.031,4.497c7.528,0.023,11.209,7.482,8.223,16.659
					c-2.986,9.174-11.948,16.592-20.016,16.568c-8.067-0.024-11.746-7.482-8.221-16.657C44.544,11.891,53.502,4.473,61.031,4.497z"
					/>
			</g>
			<g>
				<path fill="#676767" d="M71.369,27.313c2.921,0.009,4.447,2.767,3.407,6.16c-1.04,3.395-4.311,6.138-7.305,6.129
					c-2.996-0.009-4.521-2.767-3.408-6.161C65.176,30.048,68.446,27.304,71.369,27.313z"/>
				<path opacity="0.5" fill="#676767" enable-background="new    " d="M71.369,27.313c2.921,0.009,4.447,2.767,3.407,6.16
					c-1.04,3.395-4.311,6.138-7.305,6.129c-2.996-0.009-4.521-2.767-3.408-6.161C65.176,30.048,68.446,27.304,71.369,27.313z"/>
			</g>
		</g>
		<g>
			<polyline fill="#F3F3F3" stroke="#010101" stroke-miterlimit="10" points="362.781,43.928 374.466,87.002 368.441,86.985 
				357.231,43.912 			"/>
			<polyline fill="#F3F3F3" stroke="#010101" stroke-miterlimit="10" points="39.738,42.962 23.779,86.035 17.777,86.02 
				34.208,42.945 			"/>
			<polyline fill="#F3F3F3" stroke="#010101" stroke-miterlimit="10" points="45.557,42.979 30.098,86.054 24.094,86.037 
				40.028,42.963 			"/>
			<polyline fill="#F3F3F3" stroke="#010101" stroke-miterlimit="10" points="51.667,42.998 36.733,86.071 30.415,86.054 
				45.848,42.98 			"/>
			<polyline fill="#F3F3F3" stroke="#010101" stroke-miterlimit="10" points="57.49,43.016 43.054,86.089 37.049,86.073 
				51.958,42.999 			"/>
			<polyline fill="#F3F3F3" stroke="#010101" stroke-miterlimit="10" points="63.311,43.032 49.374,86.105 43.37,86.09 
				57.78,43.016 			"/>
			<polyline fill="#F3F3F3" stroke="#010101" stroke-miterlimit="10" points="69.131,43.051 55.694,86.124 49.69,86.107 
				63.601,43.034 			"/>
			<polyline fill="#F3F3F3" stroke="#010101" stroke-miterlimit="10" points="74.955,43.067 62.016,86.141 56.011,86.124 
				69.424,43.051 			"/>
			<polyline fill="#F3F3F3" stroke="#010101" stroke-miterlimit="10" points="92.715,43.121 81.298,86.194 75.291,86.178 
				87.182,43.104 			"/>
			<polyline fill="#F3F3F3" stroke="#010101" stroke-miterlimit="10" points="98.54,43.138 87.621,86.212 81.614,86.195 
				93.006,43.122 			"/>
			<polyline fill="#F3F3F3" stroke="#010101" stroke-miterlimit="10" points="104.362,43.155 93.943,86.229 87.937,86.213 
				98.829,43.139 			"/>
			<polyline fill="#F3F3F3" stroke="#010101" stroke-miterlimit="10" points="110.188,43.173 100.268,86.247 94.26,86.23 
				104.654,43.156 			"/>
			<polyline fill="#F3F3F3" stroke="#010101" stroke-miterlimit="10" points="116.012,43.189 106.591,86.265 100.584,86.248 
				110.478,43.175 			"/>
			<polyline fill="#F3F3F3" stroke="#010101" stroke-miterlimit="10" points="122.13,43.209 113.233,86.282 106.907,86.265 
				116.303,43.191 			"/>
			<polyline fill="#F3F3F3" stroke="#010101" stroke-miterlimit="10" points="127.955,43.226 119.556,86.3 113.548,86.283 
				122.421,43.21 			"/>
			<polyline fill="#F3F3F3" stroke="#010101" stroke-miterlimit="10" points="133.782,43.244 125.882,86.317 119.873,86.301 
				128.246,43.228 			"/>
			<polyline fill="#F3F3F3" stroke="#010101" stroke-miterlimit="10" points="139.608,43.262 132.207,86.335 126.198,86.318 
				134.072,43.245 			"/>
			<polyline fill="#F3F3F3" stroke="#010101" stroke-miterlimit="10" points="145.435,43.278 138.533,86.352 132.523,86.335 
				139.899,43.262 			"/>
			<polyline fill="#F3F3F3" stroke="#010101" stroke-miterlimit="10" points="151.263,43.296 144.86,86.369 138.85,86.354 
				145.727,43.279 			"/>
			<polyline fill="#F3F3F3" stroke="#010101" stroke-miterlimit="10" points="169.039,43.349 164.158,86.423 158.147,86.406 
				163.502,43.333 			"/>
			<polyline fill="#F3F3F3" stroke="#010101" stroke-miterlimit="10" points="174.869,43.366 170.486,86.44 164.475,86.424 
				169.33,43.35 			"/>
			<polyline fill="#F3F3F3" stroke="#010101" stroke-miterlimit="10" points="180.697,43.384 176.814,86.458 170.801,86.441 
				175.159,43.368 			"/>
			<polyline fill="#F3F3F3" stroke="#010101" stroke-miterlimit="10" points="186.527,43.401 183.144,86.475 177.131,86.458 
				180.989,43.385 			"/>
			<polyline fill="#F3F3F3" stroke="#010101" stroke-miterlimit="10" points="192.357,43.419 189.473,86.492 183.46,86.476 
				186.818,43.402 			"/>
			<polyline fill="#F3F3F3" stroke="#010101" stroke-miterlimit="10" points="198.188,43.437 195.802,86.51 189.789,86.494 
				192.649,43.42 			"/>
			<polyline fill="#F3F3F3" stroke="#010101" stroke-miterlimit="10" points="204.019,43.453 202.133,86.527 196.118,86.511 
				198.48,43.438 			"/>
			<polyline fill="#F3F3F3" stroke="#010101" stroke-miterlimit="10" points="209.85,43.473 208.462,86.545 202.449,86.528 
				204.311,43.455 			"/>
			<polyline fill="#F3F3F3" stroke="#010101" stroke-miterlimit="10" points="215.685,43.488 214.793,86.562 208.779,86.545 
				210.144,43.472 			"/>
			<polyline fill="#F3F3F3" stroke="#010101" stroke-miterlimit="10" points="221.516,43.506 221.125,86.579 215.109,86.563 
				215.975,43.489 			"/>
			<polyline fill="#F3F3F3" stroke="#010101" stroke-miterlimit="10" points="227.348,43.523 227.457,86.597 221.442,86.581 
				221.808,43.507 			"/>
			<polyline fill="#F3F3F3" stroke="#010101" stroke-miterlimit="10" points="245.14,43.576 246.77,86.649 240.756,86.634 
				239.598,43.56 			"/>
			<polyline fill="#F3F3F3" stroke="#010101" stroke-miterlimit="10" points="250.976,43.594 253.104,86.668 247.087,86.651 
				245.433,43.578 			"/>
			<polyline fill="#F3F3F3" stroke="#010101" stroke-miterlimit="10" points="256.809,43.611 259.439,86.686 253.421,86.669 
				251.267,43.596 			"/>
			<polyline fill="#F3F3F3" stroke="#010101" stroke-miterlimit="10" points="262.646,43.629 265.771,86.702 259.755,86.686 
				257.102,43.612 			"/>
			<polyline fill="#F3F3F3" stroke="#010101" stroke-miterlimit="10" points="268.772,43.646 272.423,86.721 266.089,86.703 
				262.937,43.63 			"/>
			<polyline fill="#F3F3F3" stroke="#010101" stroke-miterlimit="10" points="274.608,43.665 278.758,86.738 272.739,86.722 
				269.064,43.648 			"/>
			<polyline fill="#F3F3F3" stroke="#010101" stroke-miterlimit="10" points="280.444,43.683 285.094,86.756 279.074,86.739 
				274.899,43.666 			"/>
			<polyline fill="#F3F3F3" stroke="#010101" stroke-miterlimit="10" points="286.281,43.699 291.429,86.772 285.41,86.756 
				280.736,43.683 			"/>
			<polyline fill="#F3F3F3" stroke="#010101" stroke-miterlimit="10" points="292.119,43.717 297.765,86.79 291.747,86.774 
				286.573,43.7 			"/>
			<polyline fill="#F3F3F3" stroke="#010101" stroke-miterlimit="10" points="297.956,43.733 304.103,86.809 298.081,86.791 
				292.41,43.718 			"/>
			<polyline fill="#F3F3F3" stroke="#010101" stroke-miterlimit="10" points="304.087,43.753 310.755,86.826 304.42,86.809 
				298.249,43.735 			"/>
			<polyline fill="#F3F3F3" stroke="#010101" stroke-miterlimit="10" points="321.603,43.806 329.769,86.879 323.747,86.862 
				316.056,43.789 			"/>
			<polyline fill="#F3F3F3" stroke="#010101" stroke-miterlimit="10" points="327.443,43.822 336.107,86.896 330.086,86.879 
				321.895,43.806 			"/>
			<polyline fill="#F3F3F3" stroke="#010101" stroke-miterlimit="10" points="333.282,43.84 342.445,86.913 336.424,86.897 
				327.734,43.823 			"/>
			<polyline fill="#F3F3F3" stroke="#010101" stroke-miterlimit="10" points="345.257,43.876 355.443,86.949 349.42,86.933 
				339.706,43.859 			"/>
			<polyline fill="#F3F3F3" stroke="#010101" stroke-miterlimit="10" points="351.098,43.893 361.783,86.966 355.761,86.951 
				345.549,43.876 			"/>
			<polyline fill="#F3F3F3" stroke="#010101" stroke-miterlimit="10" points="356.938,43.91 368.123,86.983 362.1,86.968 
				351.389,43.894 			"/>
			<polyline fill="#F3F3F3" stroke="#010101" stroke-miterlimit="10" points="309.926,43.771 317.094,86.844 311.073,86.828 
				304.378,43.754 			"/>
			<polyline fill="#F3F3F3" stroke="#010101" stroke-miterlimit="10" points="315.764,43.787 323.432,86.861 317.41,86.845 
				310.217,43.771 			"/>
			<polyline fill="#F3F3F3" stroke="#010101" stroke-miterlimit="10" points="233.474,43.542 234.105,86.615 227.773,86.598 
				227.64,43.523 			"/>
			<polyline fill="#F3F3F3" stroke="#010101" stroke-miterlimit="10" points="239.307,43.559 240.438,86.633 234.422,86.616 
				233.765,43.543 			"/>
			<polyline fill="#F3F3F3" stroke="#010101" stroke-miterlimit="10" points="157.382,43.314 151.503,86.388 145.175,86.37 
				151.555,43.296 			"/>
			<polyline fill="#F3F3F3" stroke="#010101" stroke-miterlimit="10" points="163.21,43.332 157.831,86.405 151.819,86.389 
				157.673,43.315 			"/>
			<polyline fill="#F3F3F3" stroke="#010101" stroke-miterlimit="10" points="80.776,43.086 68.336,86.158 62.333,86.142 
				75.246,43.068 			"/>
			<polyline fill="#F3F3F3" stroke="#010101" stroke-miterlimit="10" points="86.892,43.103 74.976,86.177 68.653,86.16 
				81.069,43.086 			"/>
			<polyline fill="#F3F3F3" stroke="#010101" stroke-miterlimit="10" points="339.415,43.858 349.104,86.932 342.764,86.915 
				333.574,43.841 			"/>
			<polygon fill="#010101" points="38.717,42.96 42.209,42.97 32.154,70.485 28.471,70.475 			"/>
			<polygon fill="#010101" points="49.195,42.99 52.687,43.001 43.205,70.515 39.521,70.505 			"/>
			<polygon fill="#010101" points="55.888,43.011 59.381,43.021 50.266,70.536 46.582,70.525 			"/>
			<polygon fill="#010101" points="62.291,43.03 65.784,43.04 57.02,70.555 53.336,70.545 			"/>
			<polygon fill="#010101" points="72.48,43.061 75.974,43.07 67.767,70.585 64.081,70.575 			"/>
			<polygon fill="#010101" points="79.758,43.082 83.251,43.092 75.443,70.607 71.758,70.597 			"/>
			<polygon fill="#010101" points="90.239,43.114 93.734,43.124 86.499,70.638 82.813,70.628 			"/>
			<polygon fill="#010101" points="96.937,43.134 100.431,43.146 93.563,70.659 89.877,70.648 			"/>
			<polygon fill="#010101" points="103.344,43.153 106.838,43.163 100.32,70.678 96.633,70.668 			"/>
			<polygon fill="#010101" points="113.537,43.184 117.032,43.193 111.071,70.709 107.386,70.698 			"/>
			<polygon fill="#010101" points="120.818,43.205 124.314,43.215 118.751,70.73 115.065,70.72 			"/>
			<polygon fill="#010101" points="131.305,43.236 134.801,43.247 129.813,70.761 126.126,70.751 			"/>
			<polygon fill="#010101" points="138.005,43.256 141.502,43.267 136.88,70.781 133.192,70.771 			"/>
			<polygon fill="#010101" points="144.416,43.276 147.912,43.286 143.641,70.801 139.952,70.791 			"/>
			<polygon fill="#010101" points="154.614,43.307 158.11,43.316 154.396,70.832 150.708,70.821 			"/>
			<polygon fill="#010101" points="161.898,43.328 165.396,43.338 162.081,70.854 158.393,70.843 			"/>
			<polygon fill="#010101" points="172.391,43.359 175.888,43.37 173.147,70.885 169.458,70.874 			"/>
			<polygon fill="#010101" points="179.095,43.379 182.592,43.391 180.218,70.904 176.528,70.894 			"/>
			<polygon fill="#010101" points="185.507,43.398 189.006,43.408 186.981,70.923 183.292,70.913 			"/>
			<polygon fill="#010101" points="195.709,43.43 199.208,43.44 197.743,70.954 194.052,70.944 			"/>
			<polygon fill="#010101" points="202.999,43.451 206.498,43.461 205.431,70.976 201.739,70.966 			"/>
			<polygon fill="#010101" points="213.496,43.482 216.995,43.493 216.501,71.007 212.811,70.997 			"/>
			<polygon fill="#010101" points="220.202,43.502 223.703,43.514 223.575,71.027 219.884,71.017 			"/>
			<polygon fill="#010101" points="226.619,43.521 230.118,43.532 230.342,71.046 226.651,71.036 			"/>
			<polygon fill="#010101" points="236.827,43.552 240.327,43.562 241.108,71.076 237.417,71.066 			"/>
			<polygon fill="#010101" points="244.119,43.574 247.62,43.584 248.8,71.099 245.106,71.089 			"/>
			<polygon fill="#010101" points="254.621,43.604 258.121,43.615 259.875,71.13 256.184,71.12 			"/>
			<polygon fill="#010101" points="261.332,43.626 264.833,43.637 266.953,71.15 263.26,71.14 			"/>
			<polygon fill="#010101" points="267.752,43.644 271.253,43.655 273.722,71.169 270.03,71.159 			"/>
			<polygon fill="#010101" points="277.964,43.674 281.467,43.686 284.492,71.199 280.8,71.189 			"/>
			<polygon fill="#010101" points="285.261,43.697 288.763,43.707 292.188,71.221 288.495,71.212 			"/>
			<polygon fill="#010101" points="295.767,43.728 299.271,43.738 303.269,71.253 299.576,71.242 			"/>
			<polygon fill="#010101" points="302.48,43.748 305.984,43.759 310.35,71.273 306.655,71.263 			"/>
			<polygon fill="#010101" points="308.903,43.768 312.407,43.778 317.122,71.292 313.429,71.282 			"/>
			<polygon fill="#010101" points="319.121,43.797 322.625,43.808 327.899,71.322 324.204,71.313 			"/>
			<polygon fill="#010101" points="326.42,43.819 329.925,43.829 335.598,71.344 331.902,71.334 			"/>
			<polygon fill="#010101" points="336.933,43.851 340.438,43.861 346.685,71.376 342.987,71.366 			"/>
			<polygon fill="#010101" points="343.65,43.872 347.155,43.881 353.768,71.396 350.072,71.386 			"/>
			<polygon fill="#010101" points="350.075,43.89 353.581,43.901 360.543,71.414 356.847,71.405 			"/>
		</g>
		<g>
			<g>
				<polygon fill="#333333" stroke="#010101" stroke-miterlimit="10" points="276.756,14.691 279.231,14.699 279.895,20.596 
					277.389,20.588 				"/>
				<polygon fill="#333333" stroke="#010101" stroke-miterlimit="10" points="281.156,14.705 283.632,14.713 284.351,20.609 
					281.844,20.603 				"/>
				<polygon fill="#333333" stroke="#010101" stroke-miterlimit="10" points="285.558,14.72 288.034,14.728 288.806,20.624 
					286.3,20.615 				"/>
				<polygon fill="#70CDDD" stroke="#010101" stroke-miterlimit="10" points="277.213,18.949 279.71,18.956 279.857,20.268 
					277.353,20.259 				"/>
				<polygon fill="#70CDDD" stroke="#010101" stroke-miterlimit="10" points="285.558,14.72 288.034,14.728 288.206,16.038 
					285.723,16.03 				"/>
				<polygon fill="#989898" stroke="#010101" stroke-miterlimit="10" points="281.423,16.998 283.911,17.007 284.071,18.317 
					281.577,18.31 				"/>
			</g>
			<g>
				<polygon fill="#333333" stroke="#010101" stroke-miterlimit="10" points="291.669,23.251 294.189,23.26 295.022,29.155 
					292.471,29.147 				"/>
				<polygon fill="#333333" stroke="#010101" stroke-miterlimit="10" points="296.15,23.266 298.67,23.272 299.558,29.169 
					297.007,29.161 				"/>
				<polygon fill="#333333" stroke="#010101" stroke-miterlimit="10" points="300.63,23.279 303.151,23.287 304.094,29.184 
					301.542,29.174 				"/>
				<polygon fill="#70CDDD" stroke="#010101" stroke-miterlimit="10" points="292.248,27.51 294.791,27.517 294.976,28.827 
					292.427,28.82 				"/>
				<polygon fill="#70CDDD" stroke="#010101" stroke-miterlimit="10" points="300.63,23.279 303.151,23.287 303.36,24.597 
					300.833,24.589 				"/>
				<polygon fill="#989898" stroke="#010101" stroke-miterlimit="10" points="296.483,25.558 299.016,25.565 299.212,26.877 
					296.673,26.868 				"/>
			</g>
			<g>
				<polygon fill="#333333" stroke="#010101" stroke-miterlimit="10" points="290.51,14.734 292.984,14.742 293.818,20.639 
					291.313,20.632 				"/>
				<polygon fill="#333333" stroke="#010101" stroke-miterlimit="10" points="294.91,14.749 297.387,14.757 298.276,20.653 
					295.769,20.646 				"/>
				<polygon fill="#333333" stroke="#010101" stroke-miterlimit="10" points="299.313,14.764 301.789,14.771 302.732,20.667 
					300.226,20.66 				"/>
				<polygon fill="#70CDDD" stroke="#010101" stroke-miterlimit="10" points="291.089,18.992 293.588,19 293.773,20.312 
					291.267,20.303 				"/>
				<polygon fill="#70CDDD" stroke="#010101" stroke-miterlimit="10" points="299.313,14.764 301.789,14.771 301.999,16.082 
					299.515,16.073 				"/>
				<polygon fill="#989898" stroke="#010101" stroke-miterlimit="10" points="295.244,17.042 297.731,17.05 297.931,18.36 
					295.436,18.353 				"/>
			</g>
			<g>
				<polygon fill="#333333" stroke="#010101" stroke-miterlimit="10" points="277.669,23.207 280.188,23.216 280.851,29.111 
					278.3,29.104 				"/>
				<polygon fill="#333333" stroke="#010101" stroke-miterlimit="10" points="282.148,23.222 284.669,23.229 285.386,29.126 
					282.835,29.117 				"/>
				<polygon fill="#333333" stroke="#010101" stroke-miterlimit="10" points="286.629,23.236 289.149,23.243 289.921,29.14 
					287.369,29.131 				"/>
				<polygon fill="#70CDDD" stroke="#010101" stroke-miterlimit="10" points="278.125,27.466 280.668,27.474 280.815,28.784 
					278.266,28.776 				"/>
				<polygon fill="#70CDDD" stroke="#010101" stroke-miterlimit="10" points="286.629,23.236 289.149,23.243 289.32,24.553 
					286.794,24.545 				"/>
				<polygon fill="#989898" stroke="#010101" stroke-miterlimit="10" points="282.416,25.515 284.947,25.522 285.107,26.832 
					282.568,26.825 				"/>
			</g>
		</g>
		<g>
			<polygon opacity="0.5" fill="#FFFFFF" stroke="#010101" stroke-miterlimit="10" enable-background="new    " points="
				97.202,15.762 100.506,15.771 97.572,26.908 94.19,26.897 			"/>
			<polygon opacity="0.5" fill="#FFFFFF" stroke="#010101" stroke-miterlimit="10" enable-background="new    " points="
				102.433,15.778 105.738,15.788 102.926,26.925 99.544,26.914 			"/>
			<polygon opacity="0.5" fill="#FFFFFF" stroke="#010101" stroke-miterlimit="10" enable-background="new    " points="
				107.39,15.793 110.695,15.804 108,26.939 104.617,26.93 			"/>
			<polygon opacity="0.5" fill="#FFFFFF" stroke="#010101" stroke-miterlimit="10" enable-background="new    " points="
				112.623,15.81 115.927,15.82 113.354,26.957 109.972,26.946 			"/>
			<polygon opacity="0.5" fill="#FFFFFF" stroke="#010101" stroke-miterlimit="10" enable-background="new    " points="
				117.303,15.824 120.609,15.835 118.145,26.972 114.762,26.962 			"/>
			<polygon opacity="0.5" fill="#FFFFFF" stroke="#010101" stroke-miterlimit="10" enable-background="new    " points="
				122.537,15.841 125.842,15.852 123.5,26.988 120.118,26.979 			"/>
			<polygon opacity="0.5" fill="#FFFFFF" stroke="#010101" stroke-miterlimit="10" enable-background="new    " points="
				127.495,15.857 130.8,15.867 128.574,27.004 125.193,26.993 			"/>
			<polygon opacity="0.5" fill="#FFFFFF" stroke="#010101" stroke-miterlimit="10" enable-background="new    " points="
				132.727,15.873 136.033,15.885 133.931,27.021 130.547,27.01 			"/>
			<polygon fill="#010101" points="98.486,15.6 99.311,15.604 96.435,26.413 95.59,26.41 			"/>
			<g>
				<polygon fill="#010101" points="97.67,16.583 99.602,16.588 99.254,17.898 97.318,17.892 				"/>
				<polygon fill="#603A17" points="97.208,16.252 100.238,16.262 99.979,17.244 96.942,17.234 				"/>
				<polygon fill="#4E4E4E" points="96.853,17.563 99.892,17.572 99.634,18.555 96.587,18.546 				"/>
			</g>
			<polygon fill="#010101" points="103.715,15.617 104.541,15.619 101.783,26.43 100.939,26.427 			"/>
			<g>
				<polygon fill="#010101" points="102.405,18.563 104.343,18.569 104.01,19.88 102.066,19.874 				"/>
				<polygon fill="#603A17" points="101.935,18.235 104.979,18.244 104.731,19.228 101.68,19.218 				"/>
				<polygon fill="#4E4E4E" points="101.595,19.545 104.649,19.554 104.399,20.537 101.341,20.528 				"/>
			</g>
			<polygon fill="#010101" points="108.67,15.633 109.496,15.636 106.851,26.444 106.005,26.442 			"/>
			<g>
				<polygon fill="#010101" points="106.903,20.546 108.849,20.552 108.531,21.861 106.579,21.855 				"/>
				<polygon fill="#603A17" points="106.429,20.215 109.485,20.225 109.247,21.207 106.184,21.197 				"/>
				<polygon fill="#4E4E4E" points="106.103,21.525 109.167,21.536 108.93,22.518 105.858,22.508 				"/>
			</g>
			<polygon fill="#010101" points="113.901,15.648 114.725,15.652 112.199,26.461 111.354,26.459 			"/>
			<g>
				<polygon fill="#010101" points="111.412,23.837 113.373,23.843 113.067,25.152 111.103,25.146 				"/>
				<polygon fill="#603A17" points="110.93,23.508 114.008,23.518 113.781,24.501 110.696,24.491 				"/>
				<polygon fill="#4E4E4E" points="110.618,24.818 113.704,24.827 113.478,25.811 110.384,25.801 				"/>
			</g>
			<polygon fill="#010101" points="118.58,15.664 119.406,15.668 116.986,26.477 116.142,26.475 			"/>
			<g>
				<polygon fill="#010101" points="116.322,23.197 118.278,23.203 117.988,24.514 116.025,24.508 				"/>
				<polygon fill="#603A17" points="115.837,22.868 118.911,22.877 118.693,23.859 115.612,23.851 				"/>
				<polygon fill="#4E4E4E" points="115.539,24.177 118.622,24.188 118.403,25.169 115.315,25.159 				"/>
			</g>
			<polygon fill="#010101" points="123.811,15.681 124.637,15.684 122.337,26.493 121.492,26.491 			"/>
			<g>
				<polygon fill="#010101" points="122.413,19.609 124.356,19.616 124.079,20.927 122.13,20.92 				"/>
				<polygon fill="#603A17" points="121.93,19.28 124.98,19.29 124.772,20.273 121.716,20.263 				"/>
				<polygon fill="#4E4E4E" points="121.645,20.592 124.705,20.601 124.497,21.583 121.432,21.574 				"/>
			</g>
			<polygon fill="#010101" points="128.768,15.696 129.594,15.699 127.405,26.509 126.561,26.506 			"/>
			<g>
				<polygon fill="#010101" points="128.082,16.35 130.012,16.356 129.748,17.667 127.813,17.66 				"/>
				<polygon fill="#603A17" points="127.598,16.021 130.629,16.03 130.433,17.013 127.396,17.005 				"/>
				<polygon fill="#4E4E4E" points="127.328,17.331 130.368,17.34 130.171,18.323 127.125,18.314 				"/>
			</g>
			<polygon fill="#010101" points="133.999,15.713 134.825,15.715 132.757,26.525 131.912,26.523 			"/>
			<g>
				<polygon fill="#010101" points="132.875,18.66 134.815,18.665 134.566,19.976 132.622,19.97 				"/>
				<polygon fill="#603A17" points="132.385,18.331 135.432,18.341 135.246,19.323 132.193,19.313 				"/>
				<polygon fill="#4E4E4E" points="132.129,19.641 135.185,19.649 134.999,20.633 131.938,20.624 				"/>
			</g>
		</g>
		<g>
			<path opacity="0.5" fill="#CDCCCC" stroke="#010101" stroke-width="2" stroke-miterlimit="10" enable-background="new    " d="
				M262.273,18.258c0.151,1.998-0.244,3.614-5.063,3.599c-4.817-0.015-5.423-1.635-5.529-3.632c-0.109-1.997,0.313-3.616,5.06-3.601
				C261.486,14.639,262.12,16.259,262.273,18.258z"/>
			<g>
				<path fill="#010101" d="M259.339,15.495c1.303,0.005,2.455,1.265,2.571,2.815c0.118,1.55-0.858,2.804-2.176,2.799
					c-1.32-0.003-2.472-1.264-2.573-2.813C257.061,16.745,258.035,15.491,259.339,15.495z"/>
				<path fill="#333333" d="M259.369,15.927c1.104,0.003,2.079,1.07,2.177,2.383c0.098,1.312-0.728,2.372-1.843,2.369
					c-1.116-0.004-2.09-1.069-2.177-2.382C257.439,16.983,258.265,15.923,259.369,15.927z"/>
				<path opacity="0.67" fill="#B4B4B4" enable-background="new    " d="M259.407,16.467c0.854,0.003,1.606,0.827,1.681,1.841
					c0.075,1.014-0.562,1.834-1.422,1.831s-1.614-0.827-1.684-1.841C257.916,17.284,258.554,16.464,259.407,16.467z"/>
				<path opacity="0.67" fill="#010101" enable-background="new    " d="M259.43,16.791c0.705,0.002,1.325,0.682,1.385,1.516
					c0.063,0.835-0.464,1.511-1.171,1.508c-0.709-0.002-1.33-0.68-1.386-1.516C258.202,17.464,258.727,16.789,259.43,16.791z"/>
				<g>
					<path fill="#FFFFFF" d="M259.588,18.462c0.013-0.31,0.076-0.579,0.15-0.84c0.078-0.261,0.175-0.506,0.287-0.738
						c0.113-0.233,0.242-0.454,0.391-0.661c0.15-0.204,0.314-0.399,0.528-0.557c-0.01,0.31-0.071,0.58-0.146,0.841
						c-0.076,0.261-0.173,0.506-0.285,0.738c-0.113,0.232-0.243,0.452-0.394,0.659C259.968,18.109,259.805,18.303,259.588,18.462z"
						/>
				</g>
			</g>
			<g>
				<path fill="#010101" d="M254.437,15.48c1.303,0.003,2.441,1.265,2.543,2.814c0.101,1.55-0.888,2.804-2.206,2.8
					c-1.319-0.005-2.459-1.265-2.544-2.815C252.144,16.729,253.133,15.476,254.437,15.48z"/>
				<path fill="#333333" d="M254.462,15.911c1.104,0.004,2.068,1.069,2.152,2.384c0.084,1.312-0.752,2.372-1.867,2.369
					c-1.114-0.004-2.078-1.071-2.152-2.383C252.521,16.969,253.357,15.908,254.462,15.911z"/>
				<path opacity="0.67" fill="#B4B4B4" enable-background="new    " d="M254.495,16.452c0.854,0.003,1.598,0.826,1.662,1.84
					c0.063,1.014-0.581,1.834-1.442,1.832c-0.861-0.004-1.605-0.827-1.663-1.843C252.994,17.269,253.639,16.449,254.495,16.452z"/>
				<path opacity="0.67" fill="#010101" enable-background="new    " d="M254.514,16.776c0.703,0.001,1.317,0.68,1.369,1.516
					c0.054,0.834-0.479,1.51-1.187,1.508c-0.709-0.003-1.323-0.682-1.37-1.516C253.278,17.448,253.81,16.773,254.514,16.776z"/>
				<g>
					<path fill="#FFFFFF" d="M254.83,18.209c-0.235,0.121-0.471,0.175-0.707,0.213c-0.236,0.033-0.473,0.041-0.709,0.026
						c-0.238-0.014-0.476-0.051-0.713-0.113c-0.238-0.065-0.476-0.148-0.715-0.301c0.235-0.122,0.471-0.177,0.707-0.214
						c0.236-0.033,0.473-0.039,0.709-0.026c0.238,0.017,0.474,0.053,0.712,0.115C254.352,17.977,254.591,18.058,254.83,18.209z"/>
				</g>
			</g>
			<path opacity="0.5" fill="#CDCCCC" stroke="#010101" stroke-width="2" stroke-miterlimit="10" enable-background="new    " d="
				M262.831,25.6c0.152,1.997-0.251,3.615-5.144,3.601c-4.892-0.015-5.505-1.637-5.612-3.634c-0.107-1.998,0.322-3.615,5.143-3.601
				S262.679,23.602,262.831,25.6z"/>
			<g>
				<path fill="#010101" d="M259.855,22.837c1.324,0.005,2.492,1.266,2.608,2.815s-0.875,2.804-2.214,2.8
					c-1.339-0.003-2.508-1.265-2.607-2.815C257.54,24.088,258.532,22.833,259.855,22.837z"/>
				<path fill="#333333" d="M259.886,23.269c1.123,0.004,2.111,1.071,2.209,2.383s-0.742,2.372-1.875,2.368
					c-1.132-0.003-2.12-1.069-2.207-2.382C257.926,24.326,258.764,23.265,259.886,23.269z"/>
				<path opacity="0.67" fill="#B4B4B4" enable-background="new    " d="M259.924,23.809c0.868,0.003,1.631,0.827,1.706,1.84
					c0.074,1.016-0.573,1.835-1.447,1.832c-0.875-0.003-1.639-0.826-1.705-1.84C258.409,24.627,259.057,23.807,259.924,23.809z"/>
				<path opacity="0.67" fill="#010101" enable-background="new    " d="M259.947,24.133c0.715,0.003,1.344,0.682,1.403,1.516
					c0.062,0.836-0.473,1.511-1.19,1.508c-0.72-0.002-1.349-0.681-1.405-1.516S259.232,24.131,259.947,24.133z"/>
				<g>
					<path fill="#FFFFFF" d="M260.179,25.578c-0.267-0.002-0.514-0.067-0.754-0.146c-0.238-0.083-0.47-0.188-0.692-0.311
						c-0.224-0.126-0.438-0.271-0.647-0.439c-0.205-0.171-0.406-0.356-0.584-0.605c0.267,0.003,0.511,0.066,0.75,0.146
						c0.238,0.081,0.469,0.187,0.692,0.313c0.223,0.124,0.438,0.27,0.646,0.438C259.797,25.146,259.999,25.331,260.179,25.578z"/>
				</g>
			</g>
			<g>
				<path fill="#010101" d="M254.826,22.939c1.323,0.005,2.479,1.265,2.579,2.815c0.101,1.55-0.904,2.804-2.243,2.799
					c-1.34-0.003-2.494-1.265-2.58-2.813C252.497,24.189,253.502,22.936,254.826,22.939z"/>
				<path fill="#333333" d="M254.852,23.371c1.121,0.004,2.099,1.07,2.184,2.383c0.083,1.312-0.767,2.371-1.898,2.368
					c-1.134-0.004-2.11-1.069-2.184-2.382C252.881,24.428,253.729,23.367,254.852,23.371z"/>
				<path opacity="0.67" fill="#B4B4B4" enable-background="new    " d="M254.884,23.911c0.867,0.003,1.622,0.826,1.688,1.84
					c0.063,1.015-0.594,1.833-1.468,1.831c-0.874-0.003-1.628-0.826-1.688-1.84C253.359,24.729,254.017,23.909,254.884,23.911z"/>
				<path opacity="0.67" fill="#010101" enable-background="new    " d="M254.904,24.235c0.713,0.002,1.337,0.681,1.389,1.516
					c0.052,0.836-0.489,1.51-1.208,1.508c-0.72-0.002-1.342-0.68-1.389-1.516C253.646,24.907,254.188,24.232,254.904,24.235z"/>
				<g>
					<path fill="#FFFFFF" d="M255.181,25.943c-0.225-0.188-0.398-0.405-0.561-0.631c-0.159-0.229-0.3-0.468-0.424-0.718
						c-0.124-0.248-0.231-0.507-0.317-0.778c-0.086-0.273-0.159-0.554-0.181-0.864c0.224,0.187,0.398,0.404,0.558,0.632
						c0.16,0.227,0.301,0.467,0.424,0.716c0.121,0.249,0.229,0.509,0.318,0.779C255.082,25.353,255.157,25.633,255.181,25.943z"/>
				</g>
			</g>
		</g>
		<g>
			<path opacity="0.5" fill="#CDCCCC" stroke="#010101" stroke-width="2" stroke-miterlimit="10" enable-background="new    " d="
				M274.741,18.297c0.205,1.997-0.148,3.614-4.968,3.6s-5.467-1.636-5.628-3.633c-0.158-1.998,0.223-3.615,4.97-3.6
				C273.861,14.679,274.538,16.299,274.741,18.297z"/>
			<g>
				<path fill="#010101" d="M271.736,15.534c1.303,0.004,2.489,1.265,2.646,2.815c0.157,1.55-0.785,2.803-2.104,2.799
					s-2.503-1.263-2.646-2.813C269.49,16.784,270.431,15.529,271.736,15.534z"/>
				<path fill="#333333" d="M271.777,15.966c1.104,0.004,2.107,1.07,2.239,2.383c0.133,1.312-0.665,2.373-1.78,2.369
					c-1.116-0.003-2.118-1.07-2.239-2.382S270.673,15.963,271.777,15.966z"/>
				<path opacity="0.67" fill="#B4B4B4" enable-background="new    " d="M271.83,16.506c0.854,0.003,1.628,0.828,1.729,1.842
					s-0.514,1.834-1.375,1.83c-0.862-0.002-1.637-0.827-1.73-1.84C270.359,17.324,270.976,16.504,271.83,16.506z"/>
				<path opacity="0.67" fill="#010101" enable-background="new    " d="M271.861,16.83c0.703,0.003,1.342,0.682,1.425,1.516
					c0.082,0.835-0.425,1.51-1.133,1.508c-0.709-0.001-1.347-0.68-1.425-1.516C270.649,17.504,271.156,16.828,271.861,16.83z"/>
				<g>
					<path fill="#FFFFFF" d="M272.063,18.5c0.005-0.308,0.061-0.578,0.128-0.84c0.071-0.26,0.162-0.505,0.269-0.737
						c0.106-0.233,0.229-0.454,0.374-0.661c0.146-0.203,0.303-0.4,0.513-0.556c-0.001,0.308-0.056,0.579-0.124,0.841
						c-0.069,0.26-0.159,0.505-0.266,0.737c-0.107,0.232-0.232,0.453-0.376,0.66C272.434,18.149,272.273,18.344,272.063,18.5z"/>
				</g>
			</g>
			<g>
				<path fill="#010101" d="M266.833,15.52c1.303,0.004,2.476,1.265,2.616,2.814s-0.814,2.804-2.133,2.799
					c-1.32-0.004-2.491-1.264-2.618-2.814C264.573,16.768,265.528,15.515,266.833,15.52z"/>
				<path fill="#333333" d="M266.869,15.95c1.104,0.004,2.097,1.071,2.215,2.383s-0.689,2.373-1.805,2.37
					c-1.116-0.003-2.107-1.071-2.215-2.383C264.956,17.008,265.765,15.947,266.869,15.95z"/>
				<path opacity="0.67" fill="#B4B4B4" enable-background="new    " d="M266.917,16.49c0.854,0.004,1.619,0.828,1.71,1.842
					c0.091,1.013-0.533,1.834-1.395,1.83c-0.862-0.002-1.628-0.826-1.711-1.84C265.437,17.308,266.062,16.488,266.917,16.49z"/>
				<path opacity="0.67" fill="#010101" enable-background="new    " d="M266.944,16.815c0.703,0.001,1.335,0.681,1.408,1.515
					c0.074,0.836-0.44,1.511-1.147,1.508c-0.709-0.002-1.34-0.681-1.408-1.515C265.725,17.488,266.24,16.813,266.944,16.815z"/>
				<g>
					<path fill="#FFFFFF" d="M267.298,18.248c-0.232,0.123-0.467,0.176-0.701,0.213c-0.235,0.034-0.473,0.042-0.709,0.027
						c-0.237-0.016-0.477-0.052-0.716-0.113c-0.239-0.066-0.479-0.149-0.722-0.303c0.23-0.121,0.466-0.175,0.701-0.213
						c0.234-0.033,0.471-0.04,0.707-0.024c0.237,0.014,0.477,0.052,0.716,0.113C266.813,18.016,267.053,18.098,267.298,18.248z"/>
				</g>
			</g>
			<path opacity="0.5" fill="#CDCCCC" stroke="#010101" stroke-width="2" stroke-miterlimit="10" enable-background="new    " d="
				M275.492,25.639c0.204,1.996-0.157,3.616-5.05,3.601c-4.894-0.015-5.549-1.636-5.709-3.633c-0.16-1.999,0.229-3.616,5.051-3.601
				C274.604,22.021,275.288,23.641,275.492,25.639z"/>
			<g>
				<path fill="#010101" d="M272.444,22.877c1.324,0.004,2.524,1.265,2.682,2.814c0.158,1.551-0.802,2.804-2.141,2.8
					c-1.34-0.004-2.54-1.264-2.683-2.813C270.161,24.127,271.119,22.872,272.444,22.877z"/>
				<path fill="#333333" d="M272.486,23.309c1.121,0.002,2.136,1.07,2.27,2.382c0.131,1.312-0.679,2.372-1.812,2.368
					c-1.134-0.003-2.148-1.07-2.27-2.381C270.555,24.366,271.364,23.305,272.486,23.309z"/>
				<path opacity="0.67" fill="#B4B4B4" enable-background="new    " d="M272.537,23.849c0.868,0.002,1.653,0.826,1.755,1.84
					c0.101,1.015-0.526,1.834-1.4,1.831c-0.875-0.003-1.66-0.827-1.754-1.84C271.043,24.666,271.67,23.846,272.537,23.849z"/>
				<path opacity="0.67" fill="#010101" enable-background="new    " d="M272.569,24.172c0.715,0.003,1.361,0.682,1.444,1.516
					c0.082,0.835-0.433,1.51-1.153,1.509c-0.719-0.003-1.365-0.682-1.443-1.517C271.337,24.845,271.854,24.17,272.569,24.172z"/>
				<g>
					<path fill="#FFFFFF" d="M272.839,25.617c-0.268-0.003-0.515-0.067-0.757-0.145c-0.24-0.083-0.475-0.188-0.7-0.313
						c-0.228-0.124-0.447-0.27-0.659-0.438c-0.21-0.17-0.417-0.356-0.602-0.605c0.267,0.003,0.513,0.067,0.756,0.146
						c0.239,0.081,0.473,0.188,0.699,0.313c0.226,0.125,0.445,0.27,0.657,0.438C272.444,25.184,272.652,25.371,272.839,25.617z"/>
				</g>
			</g>
			<g>
				<path fill="#010101" d="M267.417,22.979c1.324,0.004,2.512,1.264,2.653,2.814c0.141,1.551-0.832,2.803-2.17,2.799
					c-1.341-0.004-2.53-1.265-2.655-2.813C265.12,24.229,266.092,22.975,267.417,22.979z"/>
				<path fill="#333333" d="M267.453,23.41c1.122,0.003,2.128,1.07,2.245,2.382c0.119,1.313-0.703,2.373-1.835,2.369
					c-1.133-0.003-2.14-1.069-2.247-2.382C265.51,24.468,266.332,23.407,267.453,23.41z"/>
				<path opacity="0.67" fill="#B4B4B4" enable-background="new    " d="M267.501,23.951c0.867,0.002,1.645,0.826,1.733,1.84
					c0.091,1.014-0.545,1.833-1.418,1.83c-0.874-0.002-1.651-0.827-1.735-1.839C265.997,24.769,266.633,23.948,267.501,23.951z"/>
				<path opacity="0.67" fill="#010101" enable-background="new    " d="M267.528,24.274c0.714,0.003,1.354,0.682,1.43,1.516
					c0.073,0.835-0.451,1.51-1.17,1.507c-0.719,0-1.359-0.679-1.429-1.515C266.29,24.947,266.813,24.272,267.528,24.274z"/>
				<g>
					<path fill="#FFFFFF" d="M267.849,25.982c-0.23-0.188-0.408-0.405-0.577-0.631c-0.165-0.229-0.312-0.467-0.44-0.716
						c-0.131-0.25-0.244-0.51-0.34-0.78c-0.091-0.272-0.171-0.553-0.201-0.864c0.229,0.188,0.408,0.405,0.574,0.631
						c0.166,0.229,0.312,0.468,0.44,0.717c0.13,0.249,0.245,0.509,0.34,0.78C267.737,25.393,267.818,25.672,267.849,25.982z"/>
				</g>
			</g>
		</g>
		<g>
			<path fill="#CDCCCC" d="M141.663,23.932c-0.189,1.085-1.1,1.962-2.03,1.959l0,0c-0.933-0.002-1.527-0.886-1.333-1.97l0.831-4.586
				c0.196-1.085,1.099-1.964,2.014-1.96l0,0c0.916,0.002,1.505,0.885,1.316,1.971L141.663,23.932z"/>
			<path fill="#ED2224" d="M141.441,23.589c-0.18,1.032-0.965,1.978-1.729,1.975h-0.044c-0.764-0.002-1.214-0.951-1.027-1.983
				l0.764-4.235c0.186-1.031,0.907-1.645,1.659-1.643l0.042,0.001c0.751,0.001,1.254,0.618,1.074,1.65L141.441,23.589z"/>
			<path fill="#CDCCCC" d="M147.265,23.949c-0.177,1.084-1.075,1.962-2.006,1.96l0,0c-0.932-0.003-1.54-0.886-1.355-1.971
				l0.777-4.586c0.183-1.085,1.075-1.964,1.991-1.961l0,0c0.915,0.003,1.514,0.886,1.338,1.971L147.265,23.949z"/>
			<path fill="#ED2224" d="M147.042,23.606c-0.17,1.031-0.943,1.978-1.708,1.975l-0.043,0.001c-0.765-0.003-1.224-0.952-1.05-1.984
				l0.715-4.235c0.173-1.032,0.887-1.645,1.639-1.643h0.042c0.752,0.002,1.261,0.619,1.093,1.651L147.042,23.606z"/>
			<path fill="#CDCCCC" d="M152.869,23.966c-0.165,1.085-1.054,1.964-1.985,1.96l0,0c-0.931-0.002-1.549-0.885-1.377-1.971
				l0.723-4.585c0.171-1.086,1.055-1.965,1.969-1.961l0,0c0.915,0.003,1.526,0.886,1.363,1.972L152.869,23.966z"/>
			<path fill="#CDCCCC" d="M158.472,23.983c-0.15,1.085-1.03,1.963-1.961,1.96l0,0c-0.932-0.003-1.56-0.885-1.401-1.971l0.672-4.586
				c0.158-1.084,1.029-1.964,1.945-1.96l0,0c0.916,0.002,1.536,0.886,1.385,1.972L158.472,23.983z"/>
			<path fill="#ED2224" d="M158.24,23.641c-0.145,1.032-0.897,1.979-1.662,1.976h-0.042c-0.765-0.002-1.247-0.952-1.096-1.984
				l0.616-4.235c0.15-1.032,0.851-1.645,1.602-1.641l0.042-0.001c0.751,0.002,1.275,0.618,1.131,1.65L158.24,23.641z"/>
			<path fill="#010101" d="M152.641,23.623c-0.157,1.032-0.92,1.979-1.683,1.975l-0.044,0.001c-0.765-0.002-1.235-0.952-1.073-1.983
				l0.666-4.235c0.161-1.032,0.869-1.646,1.62-1.643h0.043c0.751,0.003,1.268,0.619,1.112,1.65L152.641,23.623z"/>
			<path fill="#CDCCCC" d="M164.077,24.001c-0.139,1.085-1.007,1.963-1.938,1.959l0,0c-0.932-0.002-1.571-0.884-1.423-1.97
				l0.616-4.586c0.146-1.084,1.008-1.963,1.924-1.96l0,0c0.915,0.002,1.546,0.886,1.408,1.971L164.077,24.001z"/>
			<path fill="#010101" d="M163.841,23.658c-0.132,1.032-0.873,1.978-1.638,1.976l-0.043-0.001
				c-0.765-0.001-1.256-0.951-1.119-1.983l0.566-4.234c0.139-1.033,0.831-1.646,1.583-1.643h0.042
				c0.753,0.002,1.283,0.619,1.15,1.651L163.841,23.658z"/>
		</g>
		<g>
			<g opacity="0.56">
				<g>
					<path fill="#FFFFFF" d="M241.487,13.784c3.738,0.012,6.941,3.639,7.151,8.102c0.21,4.461-2.752,8.07-6.619,8.058
						c-3.866-0.012-7.067-3.639-7.152-8.101C234.784,17.38,237.748,13.771,241.487,13.784z"/>
				</g>
				<g>
					<path fill="#FFFFFF" d="M241.487,13.784c3.738,0.012,6.941,3.639,7.151,8.102c0.21,4.461-2.752,8.07-6.619,8.058
						c-3.866-0.012-7.067-3.639-7.152-8.101C234.784,17.38,237.748,13.771,241.487,13.784z"/>
				</g>
				<g opacity="0.56">
					<path fill="#FFFFFF" d="M241.487,13.784c3.738,0.012,6.941,3.639,7.151,8.102c0.21,4.461-2.752,8.07-6.619,8.058
						c-3.866-0.012-7.067-3.639-7.152-8.101C234.784,17.38,237.748,13.771,241.487,13.784z"/>
				</g>
			</g>
			<g>
				<g>
					<g>
						<path fill="#989898" stroke="#010101" stroke-width="8" stroke-miterlimit="10" d="M241.561,16.039
							c2.71,0.009,5.018,2.622,5.156,5.841c0.141,3.216-1.997,5.817-4.772,5.809c-2.774-0.008-5.081-2.624-5.155-5.84
							C236.717,18.63,238.853,16.03,241.561,16.039z"/>
					</g>
					<g>
						
							<radialGradient id="SVGID_12_" cx="236.1221" cy="200.0254" r="5.4134" gradientTransform="matrix(1 0.0027 0.0027 -1 5.094 221.2512)" gradientUnits="userSpaceOnUse">
							<stop  offset="0" style="stop-color:#231F20;stop-opacity:0"/>
							<stop  offset="0.5" style="stop-color:#231F20"/>
							<stop  offset="1" style="stop-color:#231F20;stop-opacity:0"/>
						</radialGradient>
						<path fill="url(#SVGID_12_)" d="M241.561,16.039c2.71,0.009,5.018,2.622,5.156,5.841c0.141,3.216-1.997,5.817-4.772,5.809
							c-2.774-0.008-5.081-2.624-5.155-5.84C236.717,18.63,238.853,16.03,241.561,16.039z"/>
					</g>
					<g opacity="0.56">
						<path fill="#989898" d="M241.561,16.039c2.71,0.009,5.018,2.622,5.156,5.841c0.141,3.216-1.997,5.817-4.772,5.809
							c-2.774-0.008-5.081-2.624-5.155-5.84C236.717,18.63,238.853,16.03,241.561,16.039z"/>
					</g>
				</g>
				<path opacity="0.5" fill="#010101" stroke="#ED2224" stroke-width="2" stroke-miterlimit="10" enable-background="new    " d="
					M244.57,18.409c0.808,0.002,1.498,0.78,1.538,1.737c0.039,0.956-0.589,1.729-1.403,1.727c-0.815-0.002-1.504-0.779-1.539-1.735
					C243.132,19.181,243.761,18.406,244.57,18.409z"/>
				<path opacity="0.74" fill="#010101" stroke="#B4B4B4" stroke-width="2" stroke-miterlimit="10" enable-background="new    " d="
					M244.57,18.409c0.808,0.002,1.498,0.78,1.538,1.737c0.039,0.956-0.589,1.729-1.403,1.727c-0.815-0.002-1.504-0.779-1.539-1.735
					C243.132,19.181,243.761,18.406,244.57,18.409z"/>
				<path opacity="0.33" fill="#010101" stroke="#010101" stroke-width="2" stroke-miterlimit="10" enable-background="new    " d="
					M244.57,18.409c0.808,0.002,1.498,0.78,1.538,1.737c0.039,0.956-0.589,1.729-1.403,1.727c-0.815-0.002-1.504-0.779-1.539-1.735
					C243.132,19.181,243.761,18.406,244.57,18.409z"/>
			</g>
		</g>
		<g>
			<g>
				<polygon fill="#010101" stroke="#010101" stroke-width="2" stroke-miterlimit="10" points="168.196,13.199 232.335,13.404 
					232.563,30.109 166.16,29.905 				"/>
				<polygon opacity="0.53" fill="#70CDDD" enable-background="new    " points="169.686,14.517 230.429,14.708 230.561,28.466 
					168.057,28.272 				"/>
				<polygon opacity="0.53" fill="#FFFFFF" enable-background="new    " points="169.686,14.517 230.429,14.708 230.561,28.466 
					168.057,28.272 				"/>
			</g>
			<polygon opacity="0.44" fill="#F3F3F3" enable-background="new    " points="199.051,15.264 229.608,15.36 229.705,27.808 
				198.35,27.711 			"/>
			<polygon fill="#3A53A4" points="221.258,24.834 222.101,24.837 222.079,27.457 221.233,27.454 			"/>
			<polygon fill="#3A53A4" points="222.432,17.959 223.261,17.961 223.21,27.46 222.362,27.458 			"/>
			<polygon fill="#3A53A4" points="219.044,22.535 219.883,22.536 219.821,27.45 218.975,27.447 			"/>
			<polygon fill="#3A53A4" points="220.138,24.502 220.98,24.506 220.951,27.454 220.104,27.45 			"/>
			<rect x="224.625" y="25.829" fill="#3A53A4" width="0.844" height="1.638"/>
			<polygon fill="#3A53A4" points="225.752,23.864 226.593,23.867 226.597,27.471 225.75,27.469 			"/>
			<polygon fill="#3A53A4" points="223.523,21.237 224.359,21.24 224.339,27.463 223.492,27.461 			"/>
			<polygon fill="#3A53A4" points="225.753,21.571 226.589,21.575 226.597,27.471 225.75,27.469 			"/>
			<polygon fill="#3A53A4" points="226.859,17.973 227.69,17.975 227.728,27.474 226.88,27.472 			"/>
			<polygon fill="#3A53A4" points="223.517,22.548 224.354,22.551 224.339,27.463 223.492,27.461 			"/>
			<polygon fill="#3A53A4" points="224.641,19.931 225.476,19.934 225.468,27.468 224.62,27.465 			"/>
			<polygon fill="#3A53A4" points="227.979,20.269 228.813,20.271 228.856,27.478 228.01,27.476 			"/>
			<polygon fill="#3A53A4" points="216.789,23.51 217.63,23.513 217.564,27.443 216.716,27.44 			"/>
			<polygon fill="#3A53A4" points="217.926,22.531 218.765,22.533 218.692,27.445 217.846,27.443 			"/>
			<polygon fill="#3A53A4" points="220.124,25.813 220.969,25.815 220.951,27.454 220.104,27.45 			"/>
			<polygon fill="#3A53A4" points="219.063,21.224 219.899,21.226 219.821,27.45 218.975,27.447 			"/>
			<polygon fill="#3A53A4" points="208.904,24.796 209.746,24.799 209.658,27.419 208.812,27.416 			"/>
			<polygon fill="#3A53A4" points="208.037,17.914 208.866,17.916 208.529,27.415 207.683,27.412 			"/>
			<polygon fill="#3A53A4" points="211.219,22.509 212.058,22.513 211.916,27.425 211.07,27.423 			"/>
			<polygon fill="#3A53A4" points="210.036,24.472 210.879,24.475 210.787,27.422 209.939,27.42 			"/>
			<polygon fill="#3A53A4" points="204.368,25.764 205.212,25.767 205.142,27.405 204.295,27.401 			"/>
			<polygon fill="#3A53A4" points="203.335,23.795 204.175,23.799 204.014,27.401 203.166,27.398 			"/>
			<polygon fill="#3A53A4" points="206.994,16.272 207.821,16.275 207.399,27.411 206.554,27.409 			"/>
			<polygon fill="#3A53A4" points="205.686,21.182 206.521,21.185 206.271,27.408 205.424,27.405 			"/>
			<polygon fill="#3A53A4" points="203.44,21.502 204.277,21.504 204.014,27.401 203.166,27.398 			"/>
			<polygon fill="#3A53A4" points="202.502,17.896 203.331,17.899 202.884,27.396 202.037,27.395 			"/>
			<polygon fill="#3A53A4" points="205.63,22.492 206.47,22.495 206.271,27.408 205.424,27.405 			"/>
			<polygon fill="#3A53A4" points="204.629,19.868 205.462,19.871 205.142,27.405 204.295,27.401 			"/>
			<polygon fill="#3A53A4" points="198.741,25.747 199.585,25.75 199.497,27.387 198.648,27.384 			"/>
			<polygon fill="#3A53A4" points="201.277,20.187 202.111,20.188 201.755,27.394 200.909,27.393 			"/>
			<polygon fill="#3A53A4" points="199.989,23.457 200.829,23.46 200.625,27.391 199.779,27.389 			"/>
			<polygon fill="#3A53A4" points="214.519,24.813 215.36,24.816 215.304,27.436 214.457,27.433 			"/>
			<polygon fill="#3A53A4" points="213.429,23.499 214.27,23.502 214.175,27.432 213.327,27.431 			"/>
			<polygon fill="#3A53A4" points="212.337,22.514 213.176,22.516 213.046,27.429 212.199,27.427 			"/>
			<polygon fill="#3A53A4" points="215.648,24.488 216.491,24.491 216.434,27.439 215.587,27.438 			"/>
			<polygon fill="#3A53A4" points="209.994,25.781 210.839,25.784 210.787,27.422 209.939,27.42 			"/>
			<polygon fill="#3A53A4" points="208.938,23.812 209.779,23.814 209.658,27.419 208.812,27.416 			"/>
			<polygon fill="#3A53A4" points="211.259,21.198 212.095,21.202 211.916,27.425 211.07,27.423 			"/>
			<g enable-background="new    ">
				<path fill="#3A53A4" d="M171.142,15.571l0.39,0.001l-0.308,2.699c-0.014,0.119-0.065,0.186-0.179,0.186
					c-0.113-0.001-0.148-0.067-0.135-0.187l0.251-2.188h-0.007l-0.356,0.521l-0.007,0.06c-0.013,0.115-0.063,0.223-0.182,0.223
					c-0.113-0.001-0.144-0.108-0.131-0.224l0.007-0.06l-0.236-0.523h-0.005l-0.256,2.188c-0.014,0.119-0.066,0.186-0.179,0.186
					c-0.113-0.001-0.148-0.067-0.135-0.187l0.316-2.699l0.39,0.001l0.304,0.654L171.142,15.571z"/>
				<path fill="#3A53A4" d="M172.823,15.765c0.037-0.101,0.08-0.189,0.18-0.188c0.103,0,0.13,0.093,0.141,0.189l0.327,2.512
					c0.013,0.089-0.083,0.186-0.171,0.186c-0.098-0.001-0.137-0.098-0.148-0.187l-0.068-0.444l-0.667-0.002l-0.169,0.443
					c-0.031,0.089-0.093,0.186-0.19,0.186c-0.088,0-0.161-0.098-0.129-0.187L172.823,15.765z M172.909,16.456h-0.007l-0.356,1.004
					l0.491,0.002L172.909,16.456z"/>
				<path fill="#3A53A4" d="M175.679,17.744c0.053,0.097,0.091,0.183,0.078,0.309c-0.029,0.278-0.224,0.418-0.44,0.417l-0.69-0.002
					c-0.119,0-0.22-0.027-0.303-0.119c-0.076-0.082-0.125-0.216-0.11-0.346c0.013-0.118,0.08-0.222,0.189-0.222
					c0.091,0,0.138,0.09,0.128,0.189c-0.013,0.111,0.035,0.126,0.124,0.126l0.68,0.002c0.025,0,0.102,0.013,0.107-0.043
					c0.004-0.03-0.034-0.087-0.044-0.108l-0.899-1.639c-0.054-0.1-0.084-0.174-0.07-0.304c0.016-0.148,0.089-0.274,0.204-0.356
					c0.095-0.066,0.166-0.065,0.266-0.065l0.661,0.002c0.119,0,0.215,0.03,0.296,0.123c0.072,0.086,0.123,0.224,0.11,0.354
					c-0.012,0.119-0.073,0.214-0.186,0.214c-0.094,0-0.142-0.07-0.131-0.174c0.013-0.126-0.038-0.146-0.134-0.146l-0.662-0.002
					c-0.034,0-0.104-0.012-0.111,0.052c-0.003,0.033,0.025,0.078,0.037,0.1L175.679,17.744z"/>
				<path fill="#3A53A4" d="M176.99,15.96l-0.013,0.133c-0.012,0.119-0.063,0.186-0.176,0.185c-0.113,0-0.149-0.066-0.137-0.186
					l0.052-0.504l1.54,0.005l-0.05,0.504c-0.012,0.119-0.063,0.186-0.175,0.185c-0.113,0-0.149-0.066-0.137-0.186l0.013-0.133
					l-0.302-0.001l-0.236,2.328c-0.012,0.119-0.063,0.186-0.176,0.185c-0.113,0-0.149-0.066-0.138-0.186l0.237-2.328L176.99,15.96z"
					/>
				<path fill="#3A53A4" d="M180.101,18.114c0.082,0,0.152,0.052,0.14,0.186c-0.012,0.134-0.093,0.186-0.175,0.186l-1.393-0.005
					l0.284-2.885l1.384,0.005c0.082,0,0.151,0.052,0.139,0.186c-0.013,0.134-0.093,0.186-0.174,0.186l-1.073-0.004l-0.086,0.886
					l0.459,0.002c0.082,0,0.152,0.052,0.138,0.186c-0.012,0.134-0.092,0.186-0.174,0.186l-0.46-0.002l-0.087,0.886L180.101,18.114z"
					/>
				<path fill="#3A53A4" d="M181.259,18.302c-0.011,0.119-0.062,0.186-0.175,0.186s-0.15-0.067-0.139-0.187l0.253-2.699l1.047,0.004
					c0.247,0.001,0.475,0.209,0.444,0.539l-0.023,0.256c-0.031,0.348-0.291,0.526-0.542,0.525l-0.288-0.001l0.595,1.195
					c0.03,0.056,0.067,0.126,0.061,0.197c-0.009,0.104-0.089,0.174-0.177,0.174c-0.063,0-0.099-0.045-0.128-0.104l-0.729-1.463
					l-0.071-0.001L181.259,18.302z M181.423,16.552l0.693,0.003c0.087,0,0.225-0.008,0.238-0.155l0.023-0.256
					c0.014-0.148-0.113-0.167-0.207-0.167l-0.695-0.003L181.423,16.552z"/>
			</g>
			<g enable-background="new    ">
				<path fill="none" stroke="#3A53A4" stroke-miterlimit="10" d="M171.142,15.571l0.39,0.001l-0.308,2.699
					c-0.014,0.119-0.065,0.186-0.179,0.186c-0.113-0.001-0.148-0.067-0.135-0.187l0.251-2.188h-0.007l-0.356,0.521l-0.007,0.06
					c-0.013,0.115-0.063,0.223-0.182,0.223c-0.113-0.001-0.144-0.108-0.131-0.224l0.007-0.06l-0.236-0.523h-0.005l-0.256,2.188
					c-0.014,0.119-0.066,0.186-0.179,0.186c-0.113-0.001-0.148-0.067-0.135-0.187l0.316-2.699l0.39,0.001l0.304,0.654
					L171.142,15.571z"/>
				<path fill="none" stroke="#3A53A4" stroke-miterlimit="10" d="M172.823,15.765c0.037-0.101,0.08-0.189,0.18-0.188
					c0.103,0,0.13,0.093,0.141,0.189l0.327,2.512c0.013,0.089-0.083,0.186-0.171,0.186c-0.098-0.001-0.137-0.098-0.148-0.187
					l-0.068-0.444l-0.667-0.002l-0.169,0.443c-0.031,0.089-0.093,0.186-0.19,0.186c-0.088,0-0.161-0.098-0.129-0.187L172.823,15.765
					z M172.909,16.456h-0.007l-0.356,1.004l0.491,0.002L172.909,16.456z"/>
				<path fill="none" stroke="#3A53A4" stroke-miterlimit="10" d="M175.679,17.744c0.053,0.097,0.091,0.183,0.078,0.309
					c-0.029,0.278-0.224,0.418-0.44,0.417l-0.69-0.002c-0.119,0-0.22-0.027-0.303-0.119c-0.076-0.082-0.125-0.216-0.11-0.346
					c0.013-0.118,0.08-0.222,0.189-0.222c0.091,0,0.138,0.09,0.128,0.189c-0.013,0.111,0.035,0.126,0.124,0.126l0.68,0.002
					c0.025,0,0.102,0.013,0.107-0.043c0.004-0.03-0.034-0.087-0.044-0.108l-0.899-1.639c-0.054-0.1-0.084-0.174-0.07-0.304
					c0.016-0.148,0.089-0.274,0.204-0.356c0.095-0.066,0.166-0.065,0.266-0.065l0.661,0.002c0.119,0,0.215,0.03,0.296,0.123
					c0.072,0.086,0.123,0.224,0.11,0.354c-0.012,0.119-0.073,0.214-0.186,0.214c-0.094,0-0.142-0.07-0.131-0.174
					c0.013-0.126-0.038-0.146-0.134-0.146l-0.662-0.002c-0.034,0-0.104-0.012-0.111,0.052c-0.003,0.033,0.025,0.078,0.037,0.1
					L175.679,17.744z"/>
				<path fill="none" stroke="#3A53A4" stroke-miterlimit="10" d="M176.99,15.96l-0.013,0.133c-0.012,0.119-0.063,0.186-0.176,0.185
					c-0.113,0-0.149-0.066-0.137-0.186l0.052-0.504l1.54,0.005l-0.05,0.504c-0.012,0.119-0.063,0.186-0.175,0.185
					c-0.113,0-0.149-0.066-0.137-0.186l0.013-0.133l-0.302-0.001l-0.236,2.328c-0.012,0.119-0.063,0.186-0.176,0.185
					c-0.113,0-0.149-0.066-0.138-0.186l0.237-2.328L176.99,15.96z"/>
				<path fill="none" stroke="#3A53A4" stroke-miterlimit="10" d="M180.101,18.114c0.082,0,0.152,0.052,0.14,0.186
					c-0.012,0.134-0.093,0.186-0.175,0.186l-1.393-0.005l0.284-2.885l1.384,0.005c0.082,0,0.151,0.052,0.139,0.186
					c-0.013,0.134-0.093,0.186-0.174,0.186l-1.073-0.004l-0.086,0.886l0.459,0.002c0.082,0,0.152,0.052,0.138,0.186
					c-0.012,0.134-0.092,0.186-0.174,0.186l-0.46-0.002l-0.087,0.886L180.101,18.114z"/>
				<path fill="none" stroke="#3A53A4" stroke-miterlimit="10" d="M181.259,18.302c-0.011,0.119-0.062,0.186-0.175,0.186
					s-0.15-0.067-0.139-0.187l0.253-2.699l1.047,0.004c0.247,0.001,0.475,0.209,0.444,0.539l-0.023,0.256
					c-0.031,0.348-0.291,0.526-0.542,0.525l-0.288-0.001l0.595,1.195c0.03,0.056,0.067,0.126,0.061,0.197
					c-0.009,0.104-0.089,0.174-0.177,0.174c-0.063,0-0.099-0.045-0.128-0.104l-0.729-1.463l-0.071-0.001L181.259,18.302z
					 M181.423,16.552l0.693,0.003c0.087,0,0.225-0.008,0.238-0.155l0.023-0.256c0.014-0.148-0.113-0.167-0.207-0.167l-0.695-0.003
					L181.423,16.552z"/>
			</g>
			<g enable-background="new    ">
				<path fill="#3A53A4" d="M173.994,20.025l0.881,0.002c0.462,0.002,0.639,0.337,0.584,0.859c-0.023,0.215-0.085,0.411-0.271,0.585
					c0.16,0.2,0.167,0.397,0.138,0.672c-0.051,0.486-0.357,0.771-0.759,0.769l-0.886-0.002L173.994,20.025z M174.039,22.54
					l0.569,0.001c0.229,0.001,0.374-0.116,0.403-0.398c0.033-0.312-0.021-0.486-0.308-0.487l-0.568-0.001L174.039,22.54z
					 M174.174,21.283l0.568,0.001c0.228,0.001,0.372-0.116,0.402-0.398c0.033-0.312-0.021-0.486-0.308-0.487l-0.567-0.001
					L174.174,21.283z"/>
				<path fill="#3A53A4" d="M176.854,20.223c0.036-0.101,0.079-0.189,0.18-0.189c0.104,0.001,0.132,0.094,0.145,0.19l0.356,2.512
					c0.014,0.089-0.082,0.186-0.17,0.185c-0.099,0-0.139-0.097-0.152-0.186l-0.073-0.445l-0.673-0.002l-0.166,0.444
					c-0.031,0.089-0.092,0.186-0.19,0.185c-0.088,0-0.164-0.097-0.132-0.186L176.854,20.223z M176.948,20.913h-0.007l-0.349,1.005
					l0.496,0.001L176.948,20.913z"/>
				<path fill="#3A53A4" d="M179.757,22.202c0.054,0.097,0.094,0.182,0.082,0.308c-0.026,0.278-0.221,0.419-0.439,0.418
					l-0.696-0.002c-0.12-0.001-0.223-0.027-0.308-0.119c-0.078-0.083-0.128-0.217-0.115-0.347c0.011-0.118,0.078-0.222,0.188-0.221
					c0.092,0,0.141,0.089,0.131,0.188c-0.012,0.111,0.037,0.126,0.126,0.127l0.687,0.002c0.025,0,0.103,0.012,0.108-0.044
					c0.003-0.03-0.035-0.086-0.046-0.107l-0.924-1.64c-0.056-0.1-0.086-0.174-0.074-0.304c0.014-0.148,0.087-0.274,0.202-0.355
					c0.095-0.066,0.167-0.066,0.268-0.066l0.667,0.003c0.12,0,0.218,0.029,0.3,0.123c0.074,0.086,0.127,0.223,0.115,0.353
					c-0.011,0.119-0.072,0.215-0.186,0.215c-0.094-0.001-0.144-0.071-0.134-0.175c0.012-0.126-0.04-0.145-0.137-0.145l-0.667-0.003
					c-0.035,0-0.106-0.012-0.112,0.052c-0.003,0.033,0.027,0.078,0.038,0.1L179.757,22.202z"/>
				<path fill="#3A53A4" d="M182.03,22.208c0.055,0.097,0.094,0.182,0.083,0.308c-0.024,0.278-0.219,0.419-0.438,0.418l-0.696-0.002
					c-0.12-0.001-0.223-0.027-0.308-0.119c-0.079-0.082-0.129-0.217-0.117-0.347c0.011-0.118,0.077-0.221,0.188-0.221
					c0.092,0,0.141,0.089,0.132,0.188c-0.011,0.111,0.038,0.127,0.127,0.127l0.687,0.002c0.025,0,0.103,0.012,0.108-0.044
					c0.002-0.03-0.036-0.086-0.046-0.107l-0.932-1.639c-0.056-0.101-0.087-0.175-0.075-0.305c0.014-0.148,0.086-0.273,0.2-0.355
					c0.095-0.066,0.167-0.066,0.267-0.065l0.667,0.002c0.121,0,0.218,0.03,0.301,0.123c0.075,0.086,0.128,0.223,0.117,0.353
					c-0.011,0.119-0.071,0.215-0.184,0.215c-0.095,0-0.145-0.071-0.135-0.175c0.011-0.126-0.041-0.145-0.138-0.145l-0.667-0.002
					c-0.035,0-0.106-0.013-0.112,0.051c-0.003,0.033,0.027,0.078,0.038,0.101L182.03,22.208z"/>
			</g>
			<g enable-background="new    ">
				<path fill="none" stroke="#3A53A4" stroke-miterlimit="10" d="M173.994,20.025l0.881,0.002c0.462,0.002,0.639,0.337,0.584,0.859
					c-0.023,0.215-0.085,0.411-0.271,0.585c0.16,0.2,0.167,0.397,0.138,0.672c-0.051,0.486-0.357,0.771-0.759,0.769l-0.886-0.002
					L173.994,20.025z M174.039,22.54l0.569,0.001c0.229,0.001,0.374-0.116,0.403-0.398c0.033-0.312-0.021-0.486-0.308-0.487
					l-0.568-0.001L174.039,22.54z M174.174,21.283l0.568,0.001c0.228,0.001,0.372-0.116,0.402-0.398
					c0.033-0.312-0.021-0.486-0.308-0.487l-0.567-0.001L174.174,21.283z"/>
				<path fill="none" stroke="#3A53A4" stroke-miterlimit="10" d="M176.854,20.223c0.036-0.101,0.079-0.189,0.18-0.189
					c0.104,0.001,0.132,0.094,0.145,0.19l0.356,2.512c0.014,0.089-0.082,0.186-0.17,0.185c-0.099,0-0.139-0.097-0.152-0.186
					l-0.073-0.445l-0.673-0.002l-0.166,0.444c-0.031,0.089-0.092,0.186-0.19,0.185c-0.088,0-0.164-0.097-0.132-0.186L176.854,20.223
					z M176.948,20.913h-0.007l-0.349,1.005l0.496,0.001L176.948,20.913z"/>
				<path fill="none" stroke="#3A53A4" stroke-miterlimit="10" d="M179.757,22.202c0.054,0.097,0.094,0.182,0.082,0.308
					c-0.026,0.278-0.221,0.419-0.439,0.418l-0.696-0.002c-0.12-0.001-0.223-0.027-0.308-0.119c-0.078-0.083-0.128-0.217-0.115-0.347
					c0.011-0.118,0.078-0.222,0.188-0.221c0.092,0,0.141,0.089,0.131,0.188c-0.012,0.111,0.037,0.126,0.126,0.127l0.687,0.002
					c0.025,0,0.103,0.012,0.108-0.044c0.003-0.03-0.035-0.086-0.046-0.107l-0.924-1.64c-0.056-0.1-0.086-0.174-0.074-0.304
					c0.014-0.148,0.087-0.274,0.202-0.355c0.095-0.066,0.167-0.066,0.268-0.066l0.667,0.003c0.12,0,0.218,0.029,0.3,0.123
					c0.074,0.086,0.127,0.223,0.115,0.353c-0.011,0.119-0.072,0.215-0.186,0.215c-0.094-0.001-0.144-0.071-0.134-0.175
					c0.012-0.126-0.04-0.145-0.137-0.145l-0.667-0.003c-0.035,0-0.106-0.012-0.112,0.052c-0.003,0.033,0.027,0.078,0.038,0.1
					L179.757,22.202z"/>
				<path fill="none" stroke="#3A53A4" stroke-miterlimit="10" d="M182.03,22.208c0.055,0.097,0.094,0.182,0.083,0.308
					c-0.024,0.278-0.219,0.419-0.438,0.418l-0.696-0.002c-0.12-0.001-0.223-0.027-0.308-0.119c-0.079-0.082-0.129-0.217-0.117-0.347
					c0.011-0.118,0.077-0.221,0.188-0.221c0.092,0,0.141,0.089,0.132,0.188c-0.011,0.111,0.038,0.127,0.127,0.127l0.687,0.002
					c0.025,0,0.103,0.012,0.108-0.044c0.002-0.03-0.036-0.086-0.046-0.107l-0.932-1.639c-0.056-0.101-0.087-0.175-0.075-0.305
					c0.014-0.148,0.086-0.273,0.2-0.355c0.095-0.066,0.167-0.066,0.267-0.065l0.667,0.002c0.121,0,0.218,0.03,0.301,0.123
					c0.075,0.086,0.128,0.223,0.117,0.353c-0.011,0.119-0.071,0.215-0.184,0.215c-0.095,0-0.145-0.071-0.135-0.175
					c0.011-0.126-0.041-0.145-0.138-0.145l-0.667-0.002c-0.035,0-0.106-0.013-0.112,0.051c-0.003,0.033,0.027,0.078,0.038,0.101
					L182.03,22.208z"/>
			</g>
			<g enable-background="new    ">
				<path fill="#3A53A4" d="M169.222,24.827l-0.015,0.133c-0.015,0.119-0.066,0.186-0.181,0.186
					c-0.115-0.001-0.151-0.067-0.137-0.187l0.059-0.504l1.569,0.005l-0.057,0.504c-0.014,0.119-0.066,0.186-0.181,0.186
					c-0.115-0.001-0.152-0.067-0.138-0.187l0.015-0.133l-0.308-0.001l-0.269,2.328c-0.015,0.119-0.066,0.186-0.182,0.186
					c-0.115-0.001-0.152-0.067-0.138-0.187l0.271-2.328L169.222,24.827z"/>
				<path fill="#3A53A4" d="M171.246,27.162c-0.014,0.119-0.066,0.186-0.181,0.186c-0.115-0.001-0.152-0.067-0.138-0.187
					l0.304-2.699l1.067,0.004c0.251,0.001,0.479,0.209,0.443,0.539l-0.028,0.256c-0.038,0.348-0.307,0.526-0.562,0.525l-0.293-0.001
					l0.586,1.195c0.029,0.056,0.066,0.126,0.059,0.197c-0.012,0.104-0.093,0.174-0.183,0.174c-0.064,0-0.1-0.046-0.129-0.104
					l-0.718-1.463l-0.073-0.001L171.246,27.162z M171.441,25.412l0.706,0.003c0.089,0,0.23-0.008,0.247-0.155l0.028-0.256
					c0.016-0.148-0.112-0.167-0.208-0.167l-0.708-0.003L171.441,25.412z"/>
				<path fill="#3A53A4" d="M174.66,26.987c0.083,0,0.154,0.053,0.141,0.187c-0.015,0.134-0.096,0.185-0.18,0.185l-1.418-0.004
					l0.312-2.885l1.41,0.004c0.083,0,0.154,0.053,0.14,0.187s-0.096,0.185-0.179,0.185l-1.093-0.003l-0.095,0.886l0.468,0.001
					c0.083,0,0.153,0.053,0.139,0.187c-0.014,0.134-0.096,0.185-0.179,0.185l-0.468-0.001l-0.096,0.886L174.66,26.987z"/>
				<path fill="#3A53A4" d="M175.797,24.476l0.889,0.003c0.467,0.001,0.646,0.336,0.594,0.858c-0.021,0.215-0.083,0.412-0.27,0.585
					c0.163,0.201,0.171,0.397,0.144,0.672c-0.049,0.486-0.356,0.771-0.761,0.77l-0.895-0.003L175.797,24.476z M175.857,26.991
					l0.574,0.002c0.23,0,0.375-0.117,0.404-0.399c0.031-0.312-0.023-0.485-0.314-0.486l-0.573-0.002L175.857,26.991z
					 M175.986,25.734l0.573,0.002c0.23,0,0.375-0.117,0.403-0.399c0.032-0.312-0.024-0.485-0.313-0.486l-0.572-0.002L175.986,25.734
					z"/>
				<path fill="#3A53A4" d="M179.25,27.001c0.083,0,0.155,0.052,0.143,0.186c-0.014,0.134-0.095,0.186-0.178,0.186l-1.418-0.005
					l0.267-2.699c0.011-0.119,0.062-0.186,0.177-0.185c0.114,0,0.152,0.066,0.141,0.186l-0.229,2.328L179.25,27.001z"/>
				<path fill="#3A53A4" d="M181.545,27.008c0.083,0,0.155,0.052,0.144,0.186c-0.013,0.134-0.094,0.186-0.177,0.186l-1.418-0.005
					l0.271-2.885l1.41,0.005c0.083,0,0.154,0.052,0.142,0.186s-0.093,0.186-0.176,0.186l-1.093-0.004l-0.083,0.886l0.468,0.002
					c0.083,0,0.154,0.052,0.142,0.186c-0.012,0.134-0.093,0.186-0.176,0.186l-0.468-0.002l-0.083,0.886L181.545,27.008z"/>
			</g>
			<g enable-background="new    ">
				<path fill="none" stroke="#3A53A4" stroke-miterlimit="10" d="M169.222,24.827l-0.015,0.133
					c-0.015,0.119-0.066,0.186-0.181,0.186c-0.115-0.001-0.151-0.067-0.137-0.187l0.059-0.504l1.569,0.005l-0.057,0.504
					c-0.014,0.119-0.066,0.186-0.181,0.186c-0.115-0.001-0.152-0.067-0.138-0.187l0.015-0.133l-0.308-0.001l-0.269,2.328
					c-0.015,0.119-0.066,0.186-0.182,0.186c-0.115-0.001-0.152-0.067-0.138-0.187l0.271-2.328L169.222,24.827z"/>
				<path fill="none" stroke="#3A53A4" stroke-miterlimit="10" d="M171.246,27.162c-0.014,0.119-0.066,0.186-0.181,0.186
					c-0.115-0.001-0.152-0.067-0.138-0.187l0.304-2.699l1.067,0.004c0.251,0.001,0.479,0.209,0.443,0.539l-0.028,0.256
					c-0.038,0.348-0.307,0.526-0.562,0.525l-0.293-0.001l0.586,1.195c0.029,0.056,0.066,0.126,0.059,0.197
					c-0.012,0.104-0.093,0.174-0.183,0.174c-0.064,0-0.1-0.046-0.129-0.104l-0.718-1.463l-0.073-0.001L171.246,27.162z
					 M171.441,25.412l0.706,0.003c0.089,0,0.23-0.008,0.247-0.155l0.028-0.256c0.016-0.148-0.112-0.167-0.208-0.167l-0.708-0.003
					L171.441,25.412z"/>
				<path fill="none" stroke="#3A53A4" stroke-miterlimit="10" d="M174.66,26.987c0.083,0,0.154,0.053,0.141,0.187
					c-0.015,0.134-0.096,0.185-0.18,0.185l-1.418-0.004l0.312-2.885l1.41,0.004c0.083,0,0.154,0.053,0.14,0.187
					s-0.096,0.185-0.179,0.185l-1.093-0.003l-0.095,0.886l0.468,0.001c0.083,0,0.153,0.053,0.139,0.187
					c-0.014,0.134-0.096,0.185-0.179,0.185l-0.468-0.001l-0.096,0.886L174.66,26.987z"/>
				<path fill="none" stroke="#3A53A4" stroke-miterlimit="10" d="M175.797,24.476l0.889,0.003c0.467,0.001,0.646,0.336,0.594,0.858
					c-0.021,0.215-0.083,0.412-0.27,0.585c0.163,0.201,0.171,0.397,0.144,0.672c-0.049,0.486-0.356,0.771-0.761,0.77l-0.895-0.003
					L175.797,24.476z M175.857,26.991l0.574,0.002c0.23,0,0.375-0.117,0.404-0.399c0.031-0.312-0.023-0.485-0.314-0.486
					l-0.573-0.002L175.857,26.991z M175.986,25.734l0.573,0.002c0.23,0,0.375-0.117,0.403-0.399
					c0.032-0.312-0.024-0.485-0.313-0.486l-0.572-0.002L175.986,25.734z"/>
				<path fill="none" stroke="#3A53A4" stroke-miterlimit="10" d="M179.25,27.001c0.083,0,0.155,0.052,0.143,0.186
					c-0.014,0.134-0.095,0.186-0.178,0.186l-1.418-0.005l0.267-2.699c0.011-0.119,0.062-0.186,0.177-0.185
					c0.114,0,0.152,0.066,0.141,0.186l-0.229,2.328L179.25,27.001z"/>
				<path fill="none" stroke="#3A53A4" stroke-miterlimit="10" d="M181.545,27.008c0.083,0,0.155,0.052,0.144,0.186
					c-0.013,0.134-0.094,0.186-0.177,0.186l-1.418-0.005l0.271-2.885l1.41,0.005c0.083,0,0.154,0.052,0.142,0.186
					s-0.093,0.186-0.176,0.186l-1.093-0.004l-0.083,0.886l0.468,0.002c0.083,0,0.154,0.052,0.142,0.186
					c-0.012,0.134-0.093,0.186-0.176,0.186l-0.468-0.002l-0.083,0.886L181.545,27.008z"/>
			</g>
			<polygon fill="#3A53A4" stroke="#3A53A4" stroke-miterlimit="10" points="184.135,20.623 196.659,20.662 196.561,22.3 
				183.993,22.262 			"/>
			<polygon fill="#3A53A4" stroke="#3A53A4" stroke-miterlimit="10" points="183.736,25.209 196.38,25.248 196.281,26.886 
				183.594,26.847 			"/>
			<polygon fill="#3A53A4" stroke="#3A53A4" stroke-miterlimit="10" points="184.533,16.037 196.938,16.076 196.839,17.715 
				184.392,17.675 			"/>
			<polygon opacity="0.57" fill="#F6EB16" stroke="#3A53A4" stroke-miterlimit="10" enable-background="new    " points="
				194.989,20.656 196.659,20.662 196.561,22.3 194.884,22.295 			"/>
			<polygon opacity="0.57" fill="#F6EB16" stroke="#3A53A4" stroke-miterlimit="10" enable-background="new    " points="
				185.421,25.214 196.38,25.248 196.281,26.886 185.285,26.853 			"/>
			<polygon opacity="0.57" fill="#F6EB16" stroke="#3A53A4" stroke-miterlimit="10" enable-background="new    " points="
				190.045,16.055 196.938,16.076 196.839,17.715 189.922,17.692 			"/>
			<polygon opacity="0.44" fill="#1072BA" enable-background="new    " points="169.686,14.517 197.989,14.606 197.181,28.361 
				168.057,28.272 			"/>
			<polygon fill="#70CDDD" stroke="#3A53A4" stroke-miterlimit="10" points="193.385,19.669 194.775,19.674 194.542,23.275 
				193.141,23.271 			"/>
			<polygon fill="#70CDDD" stroke="#3A53A4" stroke-miterlimit="10" points="183.822,24.226 185.224,24.23 184.921,27.833 
				183.508,27.829 			"/>
			<polygon fill="#70CDDD" stroke="#3A53A4" stroke-miterlimit="10" points="188.469,15.067 189.845,15.072 189.571,18.674 
				188.186,18.67 			"/>
		</g>
		
			<linearGradient id="SVGID_13_" gradientUnits="userSpaceOnUse" x1="442.4238" y1="-141.6729" x2="451.5342" y2="-141.6729" gradientTransform="matrix(-0.0027 1 1 0.0027 338.6492 -354.4851)">
			<stop  offset="0" style="stop-color:#8E8D8D"/>
			<stop  offset="1" style="stop-color:#010101"/>
		</linearGradient>
		<path fill="url(#SVGID_13_)" stroke="#010101" stroke-miterlimit="10" d="M46.127,96.261C21.228,96.193,6.976,95.76,6.994,95.717
			l3.414-8.656c0.018-0.044,14.08,0.288,38.581,0.356l283.174,0.778c24.577,0.066,49.884-0.158,49.896-0.114l2.462,8.656
			c0.012,0.044-25.677,0.369-50.649,0.302L46.127,96.261z"/>
	</g>
</g>
</svg>
