<?xml version="1.0" encoding="utf-8"?>
<!-- Generator: Adobe Illustrator 16.0.0, SVG Export Plug-In . SVG Version: 6.00 Build 0)  -->
<!DOCTYPE svg PUBLIC "-//W3C//DTD SVG 1.1//EN" "http://www.w3.org/Graphics/SVG/1.1/DTD/svg11.dtd">
<svg version="1.1" id="Layer_1" xmlns="http://www.w3.org/2000/svg" xmlns:xlink="http://www.w3.org/1999/xlink" x="0px" y="0px"
	 width="259.83px" height="475.097px" viewBox="0 0 259.83 475.097" enable-background="new 0 0 259.83 475.097"
	 xml:space="preserve">
<g>
	<g>
		<defs>
			<path id="SVGID_1_" d="M129.915,429.924C58.165,429.924,0,440.037,0,452.51c0,12.475,58.165,22.587,129.915,22.587
				S259.83,464.985,259.83,452.51C259.83,440.037,201.665,429.924,129.915,429.924"/>
		</defs>
		<clipPath id="SVGID_2_">
			<use xlink:href="#SVGID_1_"  overflow="visible"/>
		</clipPath>
		<g transform="matrix(1 0 0 1 -5.960464e-008 3.051758e-005)" clip-path="url(#SVGID_2_)">
			<image overflow="visible" width="544" height="97" xlink:href="C7848C61.jpg"  transform="matrix(0.48 0 0 -0.48 -0.71 475.77)">
			</image>
		</g>
	</g>
	<path fill="#3D3D3C" d="M95.324,65.327c-0.034,0.036-4.487,4.561-8.954,11.763c-4.461,7.202-8.96,17.09-8.966,27.893
		c0,3.124,0.379,6.322,1.249,9.542c1.743,6.452,5.904,11.718,11.215,16.306c7.975,6.883,18.594,12.331,28.103,18.078
		c4.754,2.87,9.227,5.81,12.944,9.004c3.719,3.194,6.672,6.634,8.447,10.494c3.902,8.475,5.816,19.54,5.814,30.912
		c0.011,16.908-4.24,34.504-12.088,45.328c-2.99,4.14-6.888,11.502-11.111,20.921c-6.328,14.121-13.344,32.826-18.787,51.862
		c-5.441,19.039-9.313,38.392-9.317,53.877c0.001,6.343,0.649,12.043,2.139,16.828c1.583,5.085,3.774,9.131,6.419,12.323
		c3.967,4.792,8.944,7.633,14.279,9.249c5.337,1.618,11.039,2.039,16.578,2.04c6.338-0.002,12.476-0.553,17.577-0.552
		c3.84-0.006,7.085,0.327,9.305,1.323c2.056,0.918,3.348,2.166,4.175,3.644c0.823,1.478,1.173,3.224,1.173,5.111
		c0.007,3.772-1.426,8.042-2.885,11.327c-0.728,1.645-1.458,3.047-2.003,4.034c-0.273,0.493-0.5,0.883-0.657,1.147
		c-0.079,0.133-0.141,0.233-0.182,0.301l-0.061,0.097l1.691,1.068c0.017-0.028,1.524-2.415,3.04-5.838
		c1.511-3.427,3.049-7.877,3.056-12.137c0-2.129-0.393-4.227-1.426-6.084c-1.029-1.858-2.709-3.437-5.109-4.499
		c-2.713-1.196-6.17-1.489-10.117-1.495c-5.237,0.002-11.352,0.553-17.577,0.552c-7.252,0.003-14.627-0.752-20.875-3.88
		c-3.126-1.564-5.98-3.715-8.441-6.686c-2.46-2.971-4.532-6.768-6.051-11.643c-1.406-4.51-2.049-10.026-2.048-16.232
		c-0.007-20.218,6.809-47.667,15.094-72.001c4.141-12.17,8.645-23.571,12.835-32.92c4.185-9.345,8.076-16.659,10.907-20.567
		c8.212-11.378,12.456-29.26,12.467-46.5c-0.003-11.597-1.932-22.9-5.998-31.748c-2.592-5.625-7.341-10.226-13.035-14.389
		c-8.547-6.24-19.286-11.529-28.46-17.554c-4.587-3.009-8.777-6.198-12.105-9.742c-3.33-3.546-5.793-7.434-6.994-11.882
		c-0.82-3.039-1.179-6.058-1.179-9.02c-0.006-10.234,4.311-19.822,8.666-26.838c2.175-3.508,4.354-6.371,5.984-8.352
		c0.815-0.99,1.493-1.76,1.965-2.28c0.236-0.26,0.421-0.458,0.545-0.589l0.141-0.147l0.044-0.045L95.324,65.327L95.324,65.327z"/>
	
		<linearGradient id="SVGID_3_" gradientUnits="userSpaceOnUse" x1="-169.6699" y1="-63.27" x2="-168.6699" y2="-63.27" gradientTransform="matrix(4.8575 5.8752 5.8752 -4.8575 1295.291 748.0453)">
		<stop  offset="0" style="stop-color:#1D1D1B"/>
		<stop  offset="0.4908" style="stop-color:#585857"/>
		<stop  offset="1" style="stop-color:#1D1D1B"/>
	</linearGradient>
	<path fill="url(#SVGID_3_)" d="M107.393,56.642c1.205,1.459,1.001,3.618-0.457,4.824l-6.073,5.021
		c-1.46,1.206-3.619,1.001-4.825-0.458c-1.205-1.458-1.001-3.618,0.459-4.824l6.072-5.021
		C104.027,54.979,106.187,55.183,107.393,56.642z"/>
	<path fill="#3D3D3C" d="M107.393,56.642l-0.386,0.318c0.452,0.547,0.671,1.206,0.671,1.864c0,0.844-0.36,1.677-1.061,2.257
		l-6.073,5.021c-0.548,0.452-1.206,0.67-1.864,0.671c-0.845,0-1.678-0.361-2.258-1.062c-0.452-0.547-0.67-1.205-0.67-1.862
		c0-0.845,0.361-1.678,1.063-2.258l6.072-5.021c0.547-0.452,1.206-0.67,1.863-0.671c0.844,0.001,1.677,0.361,2.257,1.062
		L107.393,56.642l0.385-0.318c-0.775-0.938-1.9-1.426-3.028-1.425c-0.88,0-1.769,0.296-2.5,0.9l-6.072,5.021
		c-0.939,0.775-1.427,1.9-1.426,3.029c0,0.88,0.296,1.769,0.9,2.499c0.775,0.938,1.9,1.426,3.028,1.425c0.88,0,1.77-0.296,2.5-0.9
		l6.073-5.021c0.938-0.775,1.425-1.899,1.424-3.027c0-0.88-0.296-1.77-0.9-2.5L107.393,56.642z"/>
	<path fill="#3D3D3C" d="M181.373,443.969c0,5.076-24.332,9.191-54.346,9.191c-30.016,0-54.346-4.115-54.346-9.191
		c0-1.138,0-7.428,0-7.428s31.055-1.762,54.346-1.762c24.664,0,54.346,1.762,54.346,1.762S181.373,443.066,181.373,443.969z"/>
	
		<linearGradient id="SVGID_4_" gradientUnits="userSpaceOnUse" x1="-169.6709" y1="-63.271" x2="-168.6709" y2="-63.271" gradientTransform="matrix(108.6914 0 0 -108.6914 18514.3672 -6440.3647)">
		<stop  offset="0" style="stop-color:#1D1D1B"/>
		<stop  offset="0.4908" style="stop-color:#585857"/>
		<stop  offset="1" style="stop-color:#1D1D1B"/>
	</linearGradient>
	<ellipse fill="url(#SVGID_4_)" cx="127.027" cy="436.542" rx="54.346" ry="9.191"/>
	<path fill="#585857" d="M181.373,436.542h-0.5c-0.001,0.216-0.062,0.436-0.209,0.683c-0.273,0.461-0.873,0.991-1.787,1.508
		c-1.597,0.91-4.118,1.791-7.366,2.576c-9.752,2.366-26.049,3.926-44.483,3.925c-14.984,0-28.551-1.028-38.345-2.686
		c-4.896-0.827-8.851-1.814-11.544-2.893c-1.346-0.537-2.374-1.1-3.034-1.646c-0.33-0.272-0.566-0.539-0.713-0.784
		c-0.147-0.247-0.208-0.467-0.209-0.683c0-0.216,0.062-0.436,0.209-0.682c0.273-0.462,0.873-0.991,1.787-1.508
		c1.597-0.909,4.118-1.79,7.366-2.576c9.752-2.365,26.048-3.925,44.484-3.924c14.983,0,28.55,1.028,38.345,2.685
		c4.896,0.827,8.852,1.815,11.545,2.893c1.346,0.537,2.374,1.1,3.033,1.646c0.33,0.271,0.566,0.538,0.714,0.784
		s0.208,0.466,0.209,0.682H181.373h0.5c0.001-0.418-0.128-0.826-0.352-1.197c-0.423-0.696-1.155-1.294-2.15-1.861
		c-1.742-0.988-4.325-1.878-7.625-2.679c-9.89-2.396-26.223-3.951-44.719-3.952c-15.031,0-28.638,1.029-38.512,2.699
		c-4.939,0.836-8.942,1.828-11.749,2.949c-1.404,0.563-2.511,1.154-3.299,1.804c-0.394,0.326-0.709,0.668-0.934,1.04
		c-0.224,0.371-0.353,0.779-0.352,1.197c0,0.418,0.128,0.826,0.352,1.197c0.422,0.697,1.155,1.294,2.149,1.862
		c1.743,0.989,4.325,1.878,7.625,2.68c9.89,2.396,26.222,3.951,44.72,3.952c15.03,0,28.637-1.029,38.512-2.699
		c4.938-0.836,8.941-1.829,11.749-2.95c1.404-0.563,2.511-1.154,3.3-1.805c0.394-0.325,0.709-0.668,0.934-1.04
		c0.224-0.371,0.353-0.779,0.352-1.197H181.373z"/>
	
		<linearGradient id="SVGID_5_" gradientUnits="userSpaceOnUse" x1="-169.6699" y1="-63.27" x2="-168.6699" y2="-63.27" gradientTransform="matrix(10.2967 0 0 -10.2967 1868.6188 -393.2653)">
		<stop  offset="0" style="stop-color:#1D1D1B"/>
		<stop  offset="0.4908" style="stop-color:#585857"/>
		<stop  offset="1" style="stop-color:#1D1D1B"/>
	</linearGradient>
	<path fill="url(#SVGID_5_)" d="M130.496,436.543c0,0-0.16,2.17-3.469,2.17c-3.31,0-3.471-2.17-3.471-2.17V77.701h6.939V436.543z"/>
	<path fill="#3D3D3C" d="M130.496,436.543l-0.499-0.037l0.013,0.001l-0.014-0.001h0l0.013,0.001l-0.014-0.001
		c-0.006,0.056-0.075,0.484-0.449,0.882c-0.376,0.395-1.068,0.82-2.521,0.825c-1.55-0.007-2.234-0.486-2.593-0.906
		c-0.179-0.213-0.275-0.425-0.326-0.581l-0.046-0.18l-0.007-0.041l-0.013,0.002l0.013-0.001v-0.001l-0.013,0.002l0.013-0.001
		l-0.499,0.037h0.5V78.201h5.939v358.343H130.496l-0.499-0.037L130.496,436.543h0.5V77.201h-7.939v359.361l0.001,0.019
		c0.005,0.06,0.059,0.707,0.609,1.369c0.549,0.665,1.6,1.271,3.36,1.264c1.759,0.007,2.81-0.599,3.358-1.265
		c0.55-0.662,0.604-1.309,0.609-1.368l0.001-0.019v-0.019H130.496z"/>
	
		<linearGradient id="SVGID_6_" gradientUnits="userSpaceOnUse" x1="-169.6699" y1="-63.2695" x2="-168.6699" y2="-63.2695" gradientTransform="matrix(13.7441 0 0 -13.7441 2452.1255 -803.1042)">
		<stop  offset="0" style="stop-color:#1D1D1B"/>
		<stop  offset="0.4908" style="stop-color:#585857"/>
		<stop  offset="1" style="stop-color:#1D1D1B"/>
	</linearGradient>
	<path fill="url(#SVGID_6_)" d="M133.898,75.71c0,2.1-1.701,3.801-3.801,3.801h-6.143c-2.1,0-3.801-1.701-3.801-3.801V57.268
		c0-2.099,1.701-3.801,3.801-3.801h6.143c2.1,0,3.801,1.702,3.801,3.801V75.71z"/>
	<path fill="#1D1D1B" d="M133.898,75.71h-0.5c-0.003,1.823-1.478,3.297-3.301,3.301h-6.143c-1.823-0.003-3.297-1.478-3.301-3.301
		V57.268c0.003-1.822,1.478-3.297,3.301-3.301h6.143c1.823,0.003,3.298,1.479,3.301,3.301V75.71H133.898h0.5V57.268
		c0-2.375-1.925-4.3-4.301-4.301h-6.143c-2.376,0-4.3,1.926-4.301,4.301V75.71c0,2.376,1.925,4.301,4.301,4.301h6.143
		c2.376,0,4.301-1.925,4.301-4.301H133.898z"/>
	
		<linearGradient id="SVGID_7_" gradientUnits="userSpaceOnUse" x1="-169.6699" y1="-63.27" x2="-168.6699" y2="-63.27" gradientTransform="matrix(6.8782 7.6023 7.6023 -6.8782 1772.6766 904.4368)">
		<stop  offset="0" style="stop-color:#1D1D1B"/>
		<stop  offset="1" style="stop-color:#585857"/>
	</linearGradient>
	<circle fill="url(#SVGID_7_)" cx="127.026" cy="52.355" r="4.466"/>
	<path fill="#1D1D1B" d="M131.492,52.355h-0.5c0,1.097-0.443,2.085-1.161,2.804c-0.719,0.719-1.708,1.161-2.804,1.162
		c-1.097,0-2.085-0.443-2.805-1.162c-0.718-0.719-1.162-1.708-1.162-2.804c0-1.096,0.443-2.084,1.162-2.804
		c0.72-0.718,1.708-1.161,2.805-1.161c1.096,0,2.084,0.443,2.804,1.161c0.718,0.719,1.161,1.708,1.161,2.804H131.492h0.5
		c0-2.742-2.223-4.964-4.965-4.965c-2.743,0-4.966,2.223-4.967,4.965c0,2.743,2.224,4.965,4.967,4.966
		c2.742,0,4.965-2.223,4.965-4.966H131.492z"/>
	<g>
		<g>
			<defs>
				<path id="SVGID_8_" d="M96.967,57.5c0.192,0.225,0.385,0.448,0.579,0.673c0.205,0.238,0.412,0.478,0.617,0.716
					c0.327,0.38,0.493,0.572,0.69,0.801c0.134,0.155,0.281,0.326,0.504,0.584c0.445,0.518,0.541,0.629,1.096,1.272
					c0.6,0.695,1.657,1.922,2.139,2.479c0.519,0.604,1.038,1.205,1.558,1.808c0.188,0.22,0.377,0.438,0.565,0.657
					c7.673-6.154,15.344-12.309,23.018-18.463c7.67-6.154,15.342-12.308,23.014-18.462c-0.256-0.296-0.51-0.592-0.766-0.888
					c-0.702-0.814-1.402-1.628-2.105-2.442c-0.649-0.754-1.877-2.178-2.646-3.068c-0.711-0.825-0.965-1.12-1.565-1.818
					c-0.301-0.349-0.526-0.61-0.738-0.856c-0.313-0.361-0.594-0.688-1.035-1.201c-0.279-0.323-0.558-0.646-0.834-0.969
					c-0.262-0.303-0.523-0.606-0.784-0.908c-7.218,6.68-14.435,13.361-21.653,20.042S104.184,50.819,96.967,57.5z"/>
			</defs>
			<clipPath id="SVGID_9_">
				<use xlink:href="#SVGID_8_"  overflow="visible"/>
			</clipPath>
			<g clip-path="url(#SVGID_9_)">
				
					<image overflow="visible" width="113" height="103" xlink:href="C7848C63.jpg"  transform="matrix(0.48 0 0 0.48 96.9668 17.4146)">
				</image>
			</g>
		</g>
	</g>
	<g>
		<g>
			<defs>
				<path id="SVGID_10_" d="M95.742,60.39c0.148,0.17,0.295,0.341,0.441,0.511c0.137,0.159,0.274,0.319,0.412,0.478
					c0.269,0.312,0.537,0.623,0.805,0.934c0.373,0.434,0.746,0.867,1.119,1.3c0.577,0.669,1.152,1.337,1.729,2.005
					c0.256,0.296,0.512,0.592,0.766,0.889c0.131,0.151,0.262,0.303,0.393,0.453c0.09,0.105,0.18,0.21,0.27,0.314
					c0.518-0.134,1.035-0.267,1.554-0.4c0.495-0.127,0.991-0.255,1.485-0.383c-0.117-0.137-0.234-0.273-0.353-0.409
					c-0.171-0.198-0.341-0.396-0.512-0.594c-0.333-0.387-0.666-0.774-0.999-1.16c-0.754-0.873-1.506-1.746-2.258-2.619
					c-0.488-0.565-0.975-1.132-1.464-1.697c-0.35-0.406-0.648-0.751-0.999-1.159c-0.179-0.207-0.411-0.477-0.59-0.685
					c-0.191-0.222-0.383-0.444-0.574-0.667c-0.199,0.471-0.399,0.942-0.599,1.414C96.16,59.406,95.951,59.898,95.742,60.39z"/>
			</defs>
			<clipPath id="SVGID_11_">
				<use xlink:href="#SVGID_10_"  overflow="visible"/>
			</clipPath>
			<g clip-path="url(#SVGID_11_)">
				
					<image overflow="visible" width="19" height="21" xlink:href="C7848C66.jpg"  transform="matrix(0.48 0 0 0.48 95.7422 57.4995)">
				</image>
			</g>
		</g>
	</g>
	<g>
		<g>
			<defs>
				<path id="SVGID_12_" d="M140.27,17.41c0.258,0.301,0.518,0.602,0.777,0.902c0.242,0.282,0.484,0.563,0.727,0.844
					c0.475,0.55,0.949,1.1,1.424,1.65c0.658,0.765,1.318,1.529,1.977,2.294c1.02,1.181,2.035,2.361,3.055,3.542
					c0.449,0.523,0.9,1.045,1.352,1.568c0.23,0.268,0.461,0.536,0.691,0.804c0.16,0.185,0.318,0.369,0.478,0.554
					c0.914-0.237,1.829-0.472,2.745-0.708c0.875-0.226,2.074-0.684,2.939-0.949c-0.207-0.241-0.416-0.482-0.621-0.723
					c-0.304-0.35-0.604-0.699-0.906-1.049c-0.588-0.684-1.178-1.366-1.767-2.049c-1.329-1.542-2.657-3.084-3.987-4.626
					c-0.86-0.999-1.723-1.998-2.584-2.998c-0.619-0.718-1.146-1.329-1.764-2.047c-0.318-0.368-0.727-0.843-1.043-1.21
					c-0.34-0.393-0.678-0.785-1.018-1.178c-0.416,0.871-1.02,1.937-1.372,2.77C141.006,15.671,140.637,16.541,140.27,17.41z"/>
			</defs>
			<clipPath id="SVGID_13_">
				<use xlink:href="#SVGID_12_"  overflow="visible"/>
			</clipPath>
			<g clip-path="url(#SVGID_13_)">
				
					<image overflow="visible" width="34" height="37" xlink:href="C7848C67.jpg"  transform="matrix(0.48 0 0 0.48 140.2695 12.0322)">
				</image>
			</g>
		</g>
	</g>
	<g>
		<g>
			<defs>
				<path id="SVGID_14_" d="M146.375,3.912c-0.029,0.417,0.1,0.846,0.394,1.188c0.245,0.285,0.218,0.253,0.463,0.538
					c0.203,0.235,0.677,0.786,0.88,1.021c0.189,0.219,2.195,2.546,2.384,2.765c2.427,2.816,1.948,2.26,4.376,5.076
					c0.855,0.992,2.799,3.248,3.654,4.239c0.639,0.741,3.094,3.589,3.732,4.33c1.148,1.331,0.479,0.555,1.625,1.886
					c0.295,0.342,0.703,0.533,1.119,0.564c0.458,0.034,0.92-0.131,1.254-0.45c0.303-0.29,0.471-0.671,0.5-1.063
					c0.03-0.417-0.098-0.846-0.393-1.188c-1.146-1.332-0.479-0.556-1.625-1.887c-0.641-0.741-3.096-3.589-3.734-4.33
					c-0.854-0.992-2.799-3.248-3.652-4.24c-2.429-2.815-1.95-2.26-4.377-5.076c-0.189-0.22-2.195-2.546-2.385-2.766
					c-0.201-0.235-0.676-0.785-0.879-1.02c-0.246-0.285-0.219-0.253-0.463-0.538c-0.295-0.342-0.701-0.532-1.117-0.563
					c-0.392-0.029-0.795,0.082-1.126,0.339C146.641,3.021,146.41,3.452,146.375,3.912z"/>
			</defs>
			<clipPath id="SVGID_15_">
				<use xlink:href="#SVGID_14_"  overflow="visible"/>
			</clipPath>
			<g clip-path="url(#SVGID_15_)">
				
					<image overflow="visible" width="43" height="49" xlink:href="C7848C62.jpg"  transform="matrix(0.48 0 0 0.48 146.3457 2.3696)">
				</image>
			</g>
		</g>
	</g>
	<circle fill="#DBDADA" cx="127.027" cy="52.355" r="1.951"/>
	<path fill="#B3B3B3" d="M128.979,52.355h-0.375c-0.001,0.871-0.707,1.575-1.576,1.576c-0.871-0.001-1.575-0.705-1.576-1.576
		c0.001-0.87,0.706-1.575,1.576-1.576c0.869,0.001,1.575,0.707,1.576,1.576H128.979h0.375c0-1.285-1.042-2.326-2.326-2.326
		c-1.286,0-2.326,1.042-2.326,2.326c0,1.285,1.041,2.326,2.326,2.326c1.283,0,2.326-1.041,2.326-2.326H128.979z"/>
	
		<linearGradient id="SVGID_16_" gradientUnits="userSpaceOnUse" x1="-169.6699" y1="-63.2705" x2="-168.6699" y2="-63.2705" gradientTransform="matrix(11.1398 12.9228 12.9228 -11.1398 2822.7593 1526.2793)">
		<stop  offset="0" style="stop-color:#1D1D1B"/>
		<stop  offset="0.133" style="stop-color:#585857"/>
		<stop  offset="0.3532" style="stop-color:#1D1D1B"/>
		<stop  offset="0.7156" style="stop-color:#585857"/>
		<stop  offset="1" style="stop-color:#1D1D1B"/>
	</linearGradient>
	<path fill="url(#SVGID_16_)" d="M123.871,53.009c-0.647,0.138-1.981-0.131-6.437-5.299c-4.454-5.167-4.372-6.579-4.293-7.146
		c0.081-0.567,4.896-4.883,5.291-4.56s0.173,2.369,4.292,7.147s6.293,4.797,6.436,5.299S124.518,52.872,123.871,53.009z"/>
	<path fill="#1D1D1B" d="M123.871,53.009l-0.104-0.489l-0.129,0.014c-0.192,0.003-0.652-0.099-1.576-0.824
		c-0.919-0.719-2.271-2.031-4.249-4.326c-1.918-2.224-2.979-3.738-3.548-4.758c-0.571-1.024-0.645-1.531-0.645-1.784l0.016-0.208
		v0.001l-0.271-0.039l0.25,0.114l0.02-0.075l-0.271-0.039l0.25,0.114l0.012-0.021c0.081-0.138,0.431-0.537,0.879-0.978
		c0.677-0.672,1.605-1.509,2.413-2.167c0.403-0.329,0.778-0.615,1.066-0.809c0.144-0.097,0.268-0.171,0.352-0.214l0.086-0.039v0
		l-0.052-0.248v0.253l0.052-0.005l-0.052-0.248v0.253v-0.41l-0.256,0.314c0.106,0.086,0.212,0.096,0.256,0.096v-0.41l-0.256,0.314h0
		l0.111-0.137l-0.152,0.094l0.041,0.042l0.111-0.137l-0.152,0.094c0.013,0.005,0.093,0.237,0.2,0.579
		c0.338,1.053,1.14,3.155,4.07,6.55c2.087,2.421,3.704,3.66,4.825,4.352c0.559,0.346,0.996,0.556,1.275,0.698
		c0.139,0.07,0.238,0.126,0.275,0.154l0.016,0.012l0.08-0.092l-0.098,0.07l0.018,0.022l0.08-0.092l-0.098,0.07l0.226-0.161
		l-0.266,0.076l0.04,0.085l0.226-0.161l-0.266,0.076l0-0.001l0.396-0.111h-0.411l0.016,0.111l0.396-0.111h-0.411h0.307l-0.291-0.104
		l-0.016,0.104h0.307l-0.291-0.104l0.069,0.025l-0.067-0.032l-0.002,0.007l0.069,0.025l-0.067-0.032
		c-0.003,0.015-0.095,0.151-0.236,0.307c-0.501,0.566-1.603,1.542-2.623,2.364c-0.511,0.412-1.005,0.79-1.396,1.066
		c-0.195,0.138-0.365,0.25-0.492,0.327l-0.15,0.083l-0.034,0.015l0,0l0.058,0.187l-0.041-0.192l-0.018,0.005l0.058,0.187
		l-0.041-0.192L123.871,53.009l0.104,0.489c0.123-0.028,0.198-0.066,0.289-0.111c0.321-0.167,0.769-0.481,1.312-0.891
		c0.808-0.611,1.787-1.419,2.575-2.135c0.395-0.359,0.74-0.693,0.999-0.979c0.13-0.144,0.238-0.273,0.325-0.402l0.117-0.204
		c0.033-0.076,0.069-0.162,0.071-0.303l-0.021-0.16l0-0.001c-0.069-0.232-0.22-0.36-0.339-0.446c-0.216-0.15-0.449-0.25-0.776-0.42
		c-0.963-0.5-2.75-1.527-5.422-4.622c-2.034-2.36-2.978-4.021-3.464-5.12c-0.244-0.551-0.374-0.96-0.472-1.271
		c-0.05-0.157-0.091-0.289-0.144-0.417c-0.055-0.125-0.115-0.265-0.274-0.4l-0.009-0.007l0.008,0.007
		c-0.135-0.109-0.28-0.13-0.375-0.13c-0.164,0.003-0.261,0.044-0.364,0.085c-0.363,0.159-0.798,0.473-1.336,0.89
		c-0.795,0.623-1.749,1.46-2.52,2.199c-0.386,0.37-0.725,0.713-0.98,1c-0.128,0.144-0.235,0.272-0.321,0.393l-0.116,0.183
		c-0.034,0.066-0.069,0.133-0.089,0.257v0.001c-0.012,0.085-0.026,0.204-0.026,0.347c0,0.477,0.152,1.165,0.772,2.272
		c0.621,1.111,1.718,2.667,3.663,4.924c2.003,2.322,3.385,3.672,4.389,4.46c1,0.782,1.651,1.033,2.193,1.037
		c0.126,0,0.24-0.015,0.337-0.036L123.871,53.009z"/>
	<g>
		<defs>
			<path id="SVGID_17_" d="M156.364,0.009c-0.234,0-0.468,0.009-0.702,0.027c-1.152,0.072-2.304,0.288-3.42,0.648
				c-0.135,0.045-0.261,0.09-0.396,0.144c-0.171,0.054-0.351,0.126-0.521,0.198c-0.207,0.081-0.414,0.171-0.612,0.261
				c-0.117,0.054-0.225,0.108-0.342,0.162c-0.216,0.108-0.432,0.225-0.648,0.342c-0.09,0.054-0.18,0.108-0.278,0.162
				c-0.207,0.126-0.414,0.261-0.612,0.396c-0.09,0.054-0.18,0.117-0.27,0.18c-0.198,0.135-0.388,0.279-0.576,0.432
				c-0.09,0.063-0.171,0.135-0.252,0.198c-0.091,0.081-0.189,0.153-0.279,0.234s-0.18,0.153-0.261,0.234
				c-0.081,0.072-0.162,0.144-0.243,0.216c-0.171,0.171-0.342,0.342-0.504,0.513c-0.081,0.081-0.153,0.162-0.226,0.243
				c-0.162,0.171-0.323,0.36-0.468,0.54c-0.072,0.09-0.144,0.18-0.216,0.261c-0.145,0.198-0.288,0.387-0.432,0.585
				c-0.072,0.108-0.136,0.207-0.207,0.306c-0.126,0.189-0.243,0.387-0.36,0.576c-0.09,0.162-0.18,0.315-0.261,0.477
				c-0.072,0.126-0.136,0.252-0.198,0.387c-0.522,1.044-0.909,2.151-1.152,3.276c-0.054,0.234-0.099,0.459-0.135,0.693
				c-0.027,0.171-0.054,0.351-0.072,0.531c-0.036,0.252-0.063,0.513-0.071,0.765c-0.252,3.546,0.846,7.173,3.348,10.071
				c5.031,5.841,13.842,6.489,19.683,1.458c3.375-2.907,5.014-7.074,4.833-11.196c-0.018-0.333-0.045-0.666-0.081-0.999
				c-0.063-0.495-0.144-0.99-0.261-1.485c-0.054-0.261-0.126-0.522-0.198-0.783c-0.081-0.27-0.171-0.54-0.261-0.81
				c-0.09-0.234-0.18-0.468-0.279-0.702c-0.116-0.27-0.233-0.54-0.368-0.801c-0.063-0.144-0.136-0.279-0.207-0.414
				c-0.162-0.288-0.333-0.585-0.514-0.873c-0.045-0.054-0.081-0.117-0.116-0.18c-0.334-0.486-0.693-0.972-1.09-1.431
				c-0.396-0.468-0.828-0.9-1.269-1.296c-0.045-0.045-0.099-0.081-0.145-0.126c-0.261-0.225-0.53-0.441-0.801-0.648
				c-0.126-0.09-0.243-0.18-0.369-0.27c-0.242-0.171-0.495-0.333-0.747-0.486c-0.216-0.126-0.432-0.252-0.656-0.369
				c-0.252-0.135-0.504-0.27-0.766-0.387c-0.243-0.108-0.485-0.216-0.737-0.306c-0.469-0.189-0.937-0.342-1.423-0.468
				c-0.323-0.09-0.647-0.171-0.98-0.234c-0.522-0.099-1.044-0.171-1.575-0.216c-0.261-0.018-0.513-0.036-0.773-0.036
				c-0.108,0-0.226-0.009-0.333-0.009C156.499,0,156.427,0,156.364,0.009"/>
		</defs>
		<clipPath id="SVGID_18_">
			<use xlink:href="#SVGID_17_"  overflow="visible"/>
		</clipPath>
		<g transform="matrix(1 0 0 1 0 1.907349e-006)" clip-path="url(#SVGID_18_)">
			
				<image overflow="visible" width="121" height="126" xlink:href="C7848C6D.jpg"  transform="matrix(0.24 0 0 -0.24 142.0898 29.8501)">
			</image>
		</g>
	</g>
</g>
</svg>
