<?xml version="1.0" encoding="utf-8"?>
<!-- Generator: Adobe Illustrator 16.0.0, SVG Export Plug-In . SVG Version: 6.00 Build 0)  -->
<!DOCTYPE svg PUBLIC "-//W3C//DTD SVG 1.1//EN" "http://www.w3.org/Graphics/SVG/1.1/DTD/svg11.dtd">
<svg version="1.1" id="Layer_1" xmlns="http://www.w3.org/2000/svg" xmlns:xlink="http://www.w3.org/1999/xlink" x="0px" y="0px"
	 width="112.542px" height="169.113px" viewBox="0 0 112.542 169.113" enable-background="new 0 0 112.542 169.113"
	 xml:space="preserve">
<g>
	<rect fill="#A2DDF9" width="112.542" height="169.113"/>
	<g>
		<linearGradient id="SVGID_1_" gradientUnits="userSpaceOnUse" x1="70.4941" y1="24.5503" x2="94.7031" y2="24.5503">
			<stop  offset="0" style="stop-color:#64C18B"/>
			<stop  offset="0.5" style="stop-color:#04A54F"/>
			<stop  offset="1" style="stop-color:#04924C"/>
		</linearGradient>
		<path fill="url(#SVGID_1_)" d="M89.664,0.5c0,0,1.752,12.081-1.61,16.452c-4.527,5.889-17.56,13.133-17.56,13.133
			s2.214,12.528,2.214,12.831c0,0.301,10.969,5.685,10.969,5.685s3.974-7.146,8.503-18.214c4.528-11.07,1.711-17.561,1.057-19.473
			C92.582,9.003,90.219,3.216,89.664,0.5z"/>
		<path fill="#871719" d="M83.52,48.918c-0.001-0.002-5.791-2.842-8.965-4.518l0,0c-1.074-0.57-1.797-0.958-2.055-1.182l0,0
			c-0.029-0.053-0.11-0.04-0.146-0.302l0,0c0.009-0.03-0.551-3.329-1.102-6.469l0,0c-0.555-3.169-1.106-6.294-1.108-6.301l0,0
			l-0.043-0.248l0.221-0.122c0.005-0.005,3.246-1.806,7.057-4.344l0,0c3.811-2.536,8.186-5.818,10.395-8.696l0,0
			c1.549-1.993,2.002-5.945,1.992-9.43l0,0c0-3.632-0.451-6.75-0.451-6.756l0,0l0.695-0.121c0.537,2.647,2.898,8.443,3.561,10.373
			l0,0c0.368,1.079,1.486,3.766,1.484,7.947l0,0c0,3.097-0.606,7.025-2.549,11.772l0,0c-4.537,11.086-8.516,18.243-8.521,18.252l0,0
			l-0.164,0.293L83.52,48.918L83.52,48.918z M73.357,42.941c0.293,0.172,0.719,0.406,1.229,0.678l0,0
			c1.024,0.544,2.394,1.246,3.765,1.937l0,0c2.197,1.109,4.39,2.191,5.176,2.579l0,0c0.783-1.448,4.334-8.127,8.325-17.882l0,0
			c1.909-4.668,2.495-8.5,2.495-11.503l0,0c-0.002-4.067-1.066-6.604-1.446-7.72l0,0c-0.429-1.259-1.616-4.227-2.532-6.894l0,0
			c0.061,0.957,0.104,2.039,0.104,3.172l0,0c-0.01,3.543-0.398,7.571-2.141,9.86l0,0c-4.277,5.543-15.723,12.123-17.447,13.103l0,0
			c0.289,1.647,1.951,11.041,2.154,12.475l0,0C73.105,42.79,73.217,42.859,73.357,42.941L73.357,42.941z M89.317,0.57l0.347-0.07
			L89.317,0.57L89.317,0.57z"/>
	</g>
	<g>
		<linearGradient id="SVGID_2_" gradientUnits="userSpaceOnUse" x1="17.6411" y1="24.5503" x2="41.8506" y2="24.5503">
			<stop  offset="0" style="stop-color:#64C18B"/>
			<stop  offset="0.5" style="stop-color:#04A54F"/>
			<stop  offset="1" style="stop-color:#04924C"/>
		</linearGradient>
		<path fill="url(#SVGID_2_)" d="M22.68,0.5c0,0-1.752,12.081,1.611,16.452c4.528,5.889,17.56,13.133,17.56,13.133
			s-2.214,12.528-2.214,12.831c0,0.301-10.969,5.685-10.969,5.685s-3.975-7.146-8.503-18.214
			c-4.529-11.07-1.711-17.561-1.058-19.473C19.762,9.003,22.127,3.216,22.68,0.5z"/>
		<path fill="#871719" d="M28.357,48.773c-0.004-0.009-3.985-7.167-8.521-18.252l0,0c-1.942-4.748-2.551-8.675-2.551-11.772l0,0
			c-0.003-4.182,1.116-6.867,1.488-7.948l0,0c0.661-1.928,3.023-7.723,3.561-10.371l0,0l0.694,0.121
			c0.001,0.007-0.453,3.125-0.453,6.758l0,0c-0.009,3.484,0.441,7.436,1.994,9.429l0,0c2.208,2.876,6.584,6.162,10.394,8.696l0,0
			c3.812,2.54,7.05,4.339,7.058,4.343l0,0l0.22,0.122l-0.044,0.249c-0.001,0.006-0.553,3.132-1.107,6.301l0,0
			c-0.551,3.14-1.111,6.438-1.103,6.468l0,0c-0.035,0.264-0.114,0.249-0.145,0.303l0,0c-0.042,0.038-0.082,0.067-0.129,0.1l0,0
			c-0.095,0.066-0.217,0.143-0.371,0.232l0,0c-0.309,0.181-0.739,0.417-1.256,0.692l0,0c-1.032,0.55-2.404,1.252-3.777,1.944l0,0
			c-2.745,1.384-5.487,2.732-5.488,2.732l0,0l-0.302,0.147L28.357,48.773L28.357,48.773z M19.442,11.029
			c-0.384,1.116-1.446,3.652-1.449,7.719l0,0c0,3.005,0.587,6.835,2.497,11.505l0,0c2.261,5.525,4.383,10.071,5.939,13.235l0,0
			c1.188,2.416,2.044,4.021,2.384,4.646l0,0c1.23-0.606,5.917-2.919,8.645-4.358l0,0c0.901-0.471,1.627-0.885,1.844-1.031l0,0
			c0.202-1.426,1.867-10.83,2.156-12.477l0,0c-1.725-0.98-13.171-7.56-17.449-13.102l0,0c-1.745-2.291-2.133-6.315-2.141-9.859l0,0
			c0-1.131,0.042-2.213,0.103-3.168l0,0C21.056,6.806,19.87,9.771,19.442,11.029L19.442,11.029z"/>
	</g>
	<g>
		<radialGradient id="SVGID_3_" cx="56.1719" cy="98.0776" r="61.5692" gradientUnits="userSpaceOnUse">
			<stop  offset="0" style="stop-color:#F17E5F"/>
			<stop  offset="0.5" style="stop-color:#EB2227"/>
			<stop  offset="1" style="stop-color:#CF232B"/>
		</radialGradient>
		<path fill="url(#SVGID_3_)" d="M107.576,112.601c-1.711,4.227-7.547-2.716-10.969-22.238s-2.214-28.278-2.214-28.278
			l-9.861-16.503c0,0-4.36-0.402-5.771-1.811c-1.408-1.409-7.211-15.901-7.211-15.901H40.794c0,0-5.804,14.492-7.212,15.901
			c-1.408,1.409-5.77,1.811-5.77,1.811L17.95,62.085c0,0,1.208,8.755-2.214,28.278c-3.421,19.522-9.258,26.465-10.968,22.238
			c0,0-4.754,55.683,51.404,55.683C112.331,168.284,107.576,112.601,107.576,112.601z"/>
		<path fill="#871719" d="M56.172,168.636v-0.353v-0.353c47.746-0.003,51.114-40.393,51.15-52.166l0,0
			c0-0.848-0.018-1.544-0.038-2.063l0,0c-0.296,0.281-0.653,0.442-1.06,0.441l0,0c-1.581-0.07-3.217-2.077-5.012-5.97l0,0
			c-1.766-3.913-3.561-9.794-4.955-17.751l0,0C94.25,78.962,93.83,71.199,93.83,66.727l0,0c0-2.653,0.15-4.146,0.197-4.567l0,0
			l-9.71-16.25c-0.842-0.096-4.372-0.51-5.806-1.889l0,0c-0.823-0.857-2.559-4.763-4.209-8.59l0,0
			c-1.391-3.247-2.651-6.363-2.99-7.207l0,0H41.031c-0.339,0.844-1.6,3.96-2.991,7.207l0,0c-1.651,3.827-3.386,7.732-4.209,8.59l0,0
			c-1.431,1.379-4.962,1.793-5.805,1.889l0,0l-9.711,16.25c0.048,0.42,0.194,1.914,0.194,4.566l0,0
			c0,4.472-0.417,12.235-2.424,23.696l0,0c-1.396,7.959-3.191,13.838-4.958,17.751l0,0c-1.795,3.893-3.43,5.899-5.01,5.97l0,0
			c-0.406,0.001-0.763-0.16-1.058-0.44l0,0c-0.021,0.519-0.039,1.214-0.038,2.062l0,0c0.035,11.773,3.402,52.163,51.15,52.166l0,0
			v0.353V168.636c-24.115,0.01-37.15-10.26-44.067-22.01l0,0c-6.923-11.746-7.79-24.931-7.791-30.861l0,0
			c0-2.009,0.1-3.186,0.102-3.194l0,0l0.679-0.101c0.307,0.729,0.647,0.966,1.022,0.968l0,0c0.878,0.07,2.662-1.702,4.366-5.556l0,0
			c1.734-3.833,3.518-9.668,4.905-17.58l0,0c2-11.426,2.414-19.148,2.414-23.575l0,0c0-3.127-0.202-4.589-0.202-4.594l0,0
			l-0.018-0.123L27.6,45.247l0.178-0.016c0.003-0.001,1.071-0.1,2.314-0.372l0,0c1.241-0.262,2.654-0.735,3.238-1.337l0,0
			c0.586-0.553,2.457-4.597,4.06-8.369l0,0c1.625-3.794,3.071-7.408,3.075-7.415l0,0l0.088-0.221h31.235l0.09,0.221
			c0.003,0.007,1.449,3.621,3.075,7.415l0,0c1.602,3.771,3.473,7.816,4.059,8.369l0,0c0.584,0.602,1.998,1.075,3.24,1.337l0,0
			c1.24,0.272,2.309,0.372,2.311,0.372l0,0l0.181,0.016L94.762,62.01l-0.02,0.123c0.003,0.005-0.204,1.467-0.204,4.594l0,0
			c0,4.427,0.413,12.151,2.417,23.575l0,0c1.386,7.912,3.17,13.747,4.902,17.58l0,0c1.703,3.854,3.488,5.626,4.367,5.556l0,0
			c0.377-0.005,0.718-0.239,1.023-0.97l0,0l0.68,0.103c0.001,0.009,0.102,1.186,0.102,3.194l0,0
			c-0.002,5.933-0.869,19.115-7.791,30.861l0,0c-6.914,11.745-19.939,22.011-44.031,22.01l0,0
			C56.195,168.636,56.184,168.636,56.172,168.636L56.172,168.636z"/>
	</g>
	<g>
		<g>
			<g>
				
					<ellipse transform="matrix(0.9949 0.1004 -0.1004 0.9949 6.6936 -3.7551)" fill="#FFFFFF" cx="40.642" cy="64.602" rx="12.602" ry="14.884"/>
				<path fill="#871719" d="M39.11,79.76c-6.64-0.677-11.455-7.085-11.453-14.645l0,0c0.002-0.599,0.029-1.206,0.094-1.815l0,0
					c0.796-7.895,6.59-13.909,13.298-13.917l0,0c0.369,0,0.745,0.018,1.121,0.057l0,0c6.64,0.678,11.453,7.086,11.45,14.646l0,0
					c0,0.598-0.029,1.205-0.091,1.815l0,0c-0.798,7.894-6.588,13.907-13.297,13.916l0,0C39.862,79.818,39.486,79.799,39.11,79.76
					L39.11,79.76z M28.454,63.373c-0.061,0.586-0.09,1.168-0.088,1.743l0,0c0.001,7.276,4.62,13.324,10.815,13.942l0,0
					c0.352,0.036,0.704,0.053,1.052,0.053l0,0c6.259,0.009,11.825-5.677,12.595-13.28l0,0l0,0c0.057-0.588,0.086-1.17,0.086-1.745
					l0,0c-0.002-7.277-4.619-13.325-10.815-13.943l0,0c-0.353-0.037-0.702-0.053-1.049-0.055l0,0c-0.005,0-0.01,0-0.016,0l0,0
					C34.782,50.088,29.221,55.774,28.454,63.373L28.454,63.373z"/>
			</g>
			<g>
				
					<ellipse transform="matrix(-0.9949 0.1004 -0.1004 -0.9949 149.5322 121.6746)" fill="#FFFFFF" cx="71.703" cy="64.602" rx="12.601" ry="14.884"/>
				<path fill="#871719" d="M72.107,79.817c-6.707-0.009-12.498-6.02-13.295-13.913l0,0l0,0c-0.063-0.614-0.092-1.22-0.092-1.818
					l0,0c-0.002-7.56,4.813-13.968,11.449-14.646l0,0c0.375-0.04,0.751-0.058,1.122-0.058l0,0
					C78,49.391,83.795,55.406,84.593,63.301l0,0c0.06,0.61,0.09,1.215,0.09,1.815l0,0c0.003,7.559-4.81,13.967-11.451,14.646l0,0
					c-0.364,0.036-0.726,0.055-1.083,0.055l0,0C72.135,79.817,72.121,79.817,72.107,79.817L72.107,79.817z M72.107,79.111
					c0.348,0,0.699-0.018,1.055-0.053l0,0c6.193-0.617,10.813-6.666,10.813-13.942l0,0c0.002-0.576-0.027-1.158-0.086-1.745l0,0
					c-0.769-7.604-6.338-13.291-12.597-13.282l0,0c-0.349,0-0.699,0.018-1.048,0.055l0,0C64.049,50.76,59.43,56.81,59.427,64.086
					l0,0c0,0.576,0.028,1.156,0.089,1.744l0,0l-0.35,0.037l0.35-0.036C60.283,73.434,65.85,79.12,72.107,79.111L72.107,79.111z"/>
			</g>
			<g>
				<radialGradient id="SVGID_4_" cx="40.6416" cy="64.6011" r="7.825" gradientUnits="userSpaceOnUse">
					<stop  offset="0" style="stop-color:#FEF6AB"/>
					<stop  offset="0.5879" style="stop-color:#FEF6AB"/>
					<stop  offset="0.8022" style="stop-color:#E3D820"/>
					<stop  offset="0.9983" style="stop-color:#B79C30"/>
					<stop  offset="1" style="stop-color:#B69C30"/>
				</radialGradient>
				<path fill="url(#SVGID_4_)" d="M47.756,65.318c-0.469,4.641-4.034,8.082-7.963,7.685c-3.928-0.396-6.734-4.48-6.265-9.12
					c0.468-4.641,4.034-8.08,7.962-7.684C45.419,56.596,48.225,60.679,47.756,65.318z"/>
				<path fill="#871719" d="M39.757,73.354c-3.864-0.397-6.638-4.11-6.635-8.462l0,0c0-0.344,0.016-0.694,0.053-1.044l0,0
					c0.458-4.544,3.793-8.026,7.697-8.035l0,0c0.215-0.001,0.431,0.011,0.652,0.033l0,0c3.862,0.398,6.636,4.112,6.634,8.46l0,0
					c0,0.346-0.018,0.694-0.053,1.044l0,0l-0.351-0.032l0.351,0.036c-0.459,4.54-3.794,8.023-7.696,8.032l0,0
					C40.192,73.387,39.974,73.376,39.757,73.354L39.757,73.354z M33.879,63.92c-0.034,0.325-0.05,0.65-0.05,0.972l0,0
					c0.002,4.067,2.581,7.422,6,7.759l0,0c0.194,0.019,0.388,0.03,0.581,0.03l0,0c3.454,0.008,6.564-3.148,6.993-7.399l0,0h0.002
					c0.029-0.33,0.048-0.656,0.047-0.976l0,0c-0.002-4.065-2.579-7.419-5.999-7.757l0,0c-0.195-0.021-0.389-0.03-0.58-0.03l0,0
					c-0.005,0-0.01,0-0.015,0l0,0C37.409,56.52,34.307,59.672,33.879,63.92L33.879,63.92z"/>
			</g>
			<g>
				<radialGradient id="SVGID_5_" cx="71.7031" cy="64.6011" r="7.8248" gradientUnits="userSpaceOnUse">
					<stop  offset="0" style="stop-color:#FEF6AB"/>
					<stop  offset="0.5879" style="stop-color:#FEF6AB"/>
					<stop  offset="0.8022" style="stop-color:#E3D820"/>
					<stop  offset="0.9983" style="stop-color:#B79C30"/>
					<stop  offset="1" style="stop-color:#B69C30"/>
				</radialGradient>
				<path fill="url(#SVGID_5_)" d="M64.59,65.318c0.469,4.641,4.033,8.082,7.962,7.685c3.929-0.396,6.733-4.48,6.266-9.12
					c-0.47-4.641-4.034-8.08-7.963-7.684C66.926,56.596,64.121,60.679,64.59,65.318z"/>
				<path fill="#871719" d="M64.238,65.355L64.238,65.355c-0.039-0.355-0.056-0.704-0.056-1.048l0,0
					c-0.001-4.349,2.772-8.062,6.634-8.461l0,0c0.219-0.022,0.438-0.033,0.652-0.033l0,0c3.904,0.009,7.241,3.491,7.699,8.035l0,0
					c0.033,0.35,0.052,0.698,0.052,1.044l0,0c0.003,4.349-2.771,8.065-6.634,8.462l0,0c-0.221,0.021-0.438,0.033-0.654,0.033l0,0
					C68.031,73.377,64.695,69.896,64.238,65.355L64.238,65.355z M71.932,72.681c0.191,0,0.387-0.01,0.584-0.03l0,0
					c3.416-0.337,5.994-3.691,5.998-7.759l0,0c0-0.321-0.018-0.648-0.049-0.974l0,0c-0.43-4.251-3.541-7.408-6.996-7.399l0,0
					c-0.193,0-0.385,0.01-0.578,0.031l0,0c-3.42,0.337-5.997,3.69-6.002,7.757l0,0c0.002,0.322,0.018,0.646,0.051,0.973l0,0
					l-0.35,0.039l0.35-0.036C65.369,69.533,68.479,72.69,71.932,72.681L71.932,72.681z"/>
			</g>
			
				<ellipse transform="matrix(0.995 0.1004 -0.1004 0.995 6.6883 -3.7525)" fill="#010101" cx="40.642" cy="64.601" rx="3.428" ry="4.049"/>
			
				<ellipse transform="matrix(-0.995 0.1003 -0.1003 -0.995 149.2241 121.6954)" fill="#010101" cx="71.551" cy="64.601" rx="3.428" ry="4.049"/>
		</g>
		<g>
			<g>
				<radialGradient id="SVGID_6_" cx="56.1724" cy="114.1108" r="29.2461" gradientUnits="userSpaceOnUse">
					<stop  offset="0" style="stop-color:#7C1315"/>
					<stop  offset="1" style="stop-color:#0E0808"/>
				</radialGradient>
				<path fill="url(#SVGID_6_)" d="M84.551,123.167c0,11.617-12.705,21.032-28.379,21.032c-15.672,0-28.378-9.415-28.378-21.032
					c0-11.615,20.327-39.146,28.378-39.146S84.551,111.552,84.551,123.167z"/>
				<path fill="#871719" d="M27.44,123.168c0.018-5.988,5.132-15.761,11.239-24.138l0,0c6.146-8.357,13.137-15.294,17.493-15.362
					l0,0c4.354,0.068,11.346,7.005,17.492,15.362l0,0c6.107,8.377,11.221,18.149,11.24,24.138l0,0
					c-0.025,11.899-12.936,21.383-28.732,21.384l0,0C40.375,144.551,27.464,135.068,27.44,123.168L27.44,123.168z M39.249,99.447
					c-6.07,8.291-11.12,18.094-11.103,23.722l0,0c0,5.673,3.102,10.828,8.169,14.588l0,0c5.066,3.755,12.091,6.09,19.857,6.089l0,0
					c7.766,0.001,14.79-2.334,19.856-6.089l0,0c5.067-3.76,8.168-8.915,8.168-14.588l0,0c0.019-5.628-5.03-15.431-11.103-23.722l0,0
					c-6.027-8.313-13.228-15.14-16.922-15.072l0,0c-0.019,0-0.037,0-0.055,0l0,0C52.404,84.375,45.247,91.176,39.249,99.447
					L39.249,99.447z"/>
			</g>
			<g>
				<linearGradient id="SVGID_7_" gradientUnits="userSpaceOnUse" x1="31.0747" y1="134.5171" x2="77.8887" y2="134.5171">
					<stop  offset="0" style="stop-color:#F17F7B"/>
					<stop  offset="0.5" style="stop-color:#EE3F58"/>
					<stop  offset="1" style="stop-color:#DE2049"/>
				</linearGradient>
				<path fill="url(#SVGID_7_)" d="M56.172,144.2c8.717,0,16.512-2.915,21.717-7.496l-0.05-0.151c0,0-1.31-10.666-9.461-11.422
					c-8.149-0.755-13.165,5.041-13.165,5.041l0,0c-0.104-0.165-0.211-0.33-0.324-0.496c-1.881-2.737-5.128-5.201-10.511-4.796
					c-9.92,0.744-13.255,8.048-13.255,8.048s-0.018,0.021-0.048,0.056C35.834,139.653,45.285,144.2,56.172,144.2z"/>
				<path fill="#871719" d="M30.787,133.187l-0.163-0.229l0.185-0.209c0.005-0.007,0.01-0.012,0.014-0.018l0,0
					c0.307-0.637,3.863-7.477,13.528-8.205l0,0c0.4-0.031,0.791-0.045,1.171-0.045l0,0c4.825-0.006,7.874,2.385,9.657,4.994l0,0
					c0.028,0.042,0.057,0.084,0.084,0.126l0,0c1.149-1.157,5.332-4.886,11.654-4.894l0,0c0.485-0.001,0.984,0.022,1.492,0.069l0,0
					c8.203,0.823,9.66,10.958,9.771,11.688l0,0l0.113,0.349l-0.175,0.153c-5.28,4.646-13.153,7.583-21.948,7.584l0,0V144.2v-0.354
					c8.544,0.001,16.186-2.831,21.313-7.263l0,0c-0.03-0.181-0.367-2.701-1.639-5.305l0,0c-1.326-2.708-3.593-5.434-7.502-5.797l0,0
					c-0.486-0.045-0.962-0.066-1.427-0.067l0,0c-3.56,0-6.42,1.247-8.397,2.5l0,0c-1.976,1.251-3.04,2.485-3.042,2.488l0,0
					l-0.313,0.361l-0.254-0.405c-0.1-0.162-0.206-0.324-0.314-0.482l0,0c-1.705-2.47-4.491-4.684-9.074-4.689l0,0
					c-0.363,0-0.737,0.015-1.118,0.044l0,0c-7.307,0.552-10.94,4.705-12.313,6.74l0,0c-0.321,0.477-0.511,0.827-0.596,0.994l0,0
					c4.715,6.45,13.989,10.884,24.676,10.881l0,0v0.354v0.353C45.188,144.55,35.634,139.974,30.787,133.187L30.787,133.187z"/>
			</g>
			<g>
				<path fill="#FFFFFF" d="M42.642,112.476c6.138-2.041,3.134-7.729,2.388-8.973c-3.147,1.043-6.025,2.514-8.528,4.325
					C36.728,108.654,38.351,113.9,42.642,112.476z"/>
				<path fill="#871719" d="M36.16,107.921l-0.065-0.236l0.196-0.143c2.536-1.834,5.446-3.32,8.627-4.375l0,0l0.268-0.088
					l0.146,0.242c0.399,0.676,1.436,2.566,1.441,4.607l0,0c0.022,1.875-0.971,3.89-4.021,4.881l0,0l-0.11-0.334l0.11,0.335
					c-0.541,0.178-1.049,0.261-1.526,0.261l0,0C37.63,113.007,36.381,108.656,36.16,107.921L36.16,107.921z M41.226,112.366
					c0.394,0,0.827-0.069,1.304-0.228l0,0l0.001,0.002c2.821-0.962,3.515-2.568,3.537-4.211l0,0c0.005-1.6-0.766-3.224-1.199-4l0,0
					c-2.924,0.998-5.607,2.369-7.961,4.042l0,0C37.243,109.074,38.573,112.422,41.226,112.366L41.226,112.366z"/>
			</g>
			<g>
				<path fill="#FFFFFF" d="M82.285,114.431c-1.219-1.828-2.719-3.516-4.447-5.021c-0.766,0.619-4.346,3.824-0.592,6.764
					c2.582,2.021,4.975-1.141,5.35-1.674L82.285,114.431z"/>
				<path fill="#871719" d="M77.027,116.451c-1.311-1.018-1.826-2.146-1.818-3.191l0,0c0.022-2.1,1.877-3.682,2.406-4.123l0,0
					l0.229-0.188l0.225,0.194c1.715,1.493,3.208,3.163,4.43,4.974l0,0l0.693,0.154l-0.308,0.433
					c-0.317,0.419-1.776,2.458-3.856,2.489l0,0c-0.002,0-0.004,0-0.006,0l0,0C78.377,117.193,77.689,116.972,77.027,116.451
					L77.027,116.451z M75.913,113.259c0.005,0.814,0.361,1.699,1.55,2.637l0,0c0.561,0.436,1.077,0.589,1.564,0.592l0,0
					c1.254,0.025,2.439-1.148,2.992-1.816l0,0l-0.028-0.045c-1.147-1.721-2.548-3.315-4.161-4.752l0,0
					C77.182,110.447,75.891,111.819,75.913,113.259L75.913,113.259z M82.395,114.358l0.183-0.122L82.395,114.358L82.395,114.358z"/>
			</g>
			<g>
				<path fill="#FFFFFF" d="M67.314,103.501c-0.744,1.242-3.75,6.932,2.389,8.975c4.291,1.424,5.914-3.824,6.141-4.649
					C73.341,106.017,70.463,104.544,67.314,103.501z"/>
				<path fill="#871719" d="M69.592,112.81c-3.053-0.992-4.047-3.008-4.025-4.883l0,0c0.008-2.041,1.045-3.932,1.445-4.607l0,0
					l0.146-0.242l0.268,0.088c3.18,1.055,6.09,2.543,8.624,4.373l0,0l0.198,0.145l-0.064,0.238c-0.223,0.73-1.473,5.088-5.068,5.15
					l0,0C70.641,113.072,70.131,112.99,69.592,112.81L69.592,112.81z M66.273,107.927c0.021,1.643,0.717,3.25,3.54,4.213l0,0
					c0.477,0.158,0.908,0.225,1.302,0.225l0,0c2.65,0.059,3.982-3.289,4.32-4.396l0,0c-2.352-1.671-5.037-3.044-7.961-4.041l0,0
					C67.039,104.703,66.27,106.326,66.273,107.927L66.273,107.927z M67.204,103.837l0.11-0.336L67.204,103.837L67.204,103.837z"/>
			</g>
			<g>
				<path fill="#FFFFFF" d="M34.508,109.41c-1.73,1.508-3.23,3.193-4.449,5.024l-0.244,0.158c0.538,0.731,2.826,3.506,5.283,1.581
					C38.851,113.236,35.272,110.031,34.508,109.41z"/>
				<path fill="#871719" d="M33.314,117.193c-1.952-0.027-3.352-1.826-3.785-2.393l0,0l-0.223-0.303l0.316-0.201l0.182-0.119
					c1.23-1.836,2.737-3.524,4.471-5.033l0,0l0.222-0.195l0.231,0.188c0.526,0.441,2.381,2.024,2.405,4.123l0,0
					c0.004,1.047-0.511,2.174-1.82,3.193l0,0c-0.663,0.52-1.35,0.74-1.993,0.74l0,0C33.318,117.193,33.316,117.193,33.314,117.193
					L33.314,117.193z M33.314,116.488c0.487-0.002,1.002-0.156,1.565-0.592l0,0c1.186-0.938,1.544-1.822,1.549-2.637l0,0
					c0.021-1.44-1.266-2.811-1.915-3.383l0,0c-1.611,1.436-3.013,3.031-4.16,4.754l0,0l-0.03,0.043
					C30.875,115.346,32.063,116.51,33.314,116.488L33.314,116.488z M34.284,109.684l0.223-0.274L34.284,109.684L34.284,109.684z"/>
			</g>
			<g>
				<path fill="#FFFFFF" d="M62.635,106.715c0,6.17-2.895,8.065-6.465,8.065s-6.464-1.896-6.464-8.065
					c0-14.475,2.894-7.146,6.464-7.146S62.758,91.703,62.635,106.715z"/>
				<path fill="#871719" d="M56.17,115.134c-1.844,0.004-3.574-0.494-4.829-1.83l0,0c-1.253-1.334-1.989-3.453-1.989-6.59l0,0
					c0.002-3.608,0.177-5.871,0.512-7.279l0,0c0.311-1.377,0.892-2.074,1.713-2.075l0,0c0.769,0.019,1.466,0.528,2.242,0.979l0,0
					c0.768,0.461,1.577,0.881,2.352,0.877l0,0c0.775,0.006,1.607-0.46,2.396-0.973l0,0c0.798-0.502,1.508-1.066,2.303-1.088l0,0
					c0.787,0.002,1.34,0.675,1.636,1.961l0,0c0.317,1.314,0.483,3.414,0.485,6.735l0,0c0,0.279-0.002,0.566-0.003,0.862l0,0h0.001
					c0,3.137-0.736,5.256-1.99,6.59l0,0c-1.25,1.332-2.975,1.83-4.813,1.83l0,0C56.182,115.134,56.176,115.134,56.17,115.134
					L56.17,115.134z M50.55,99.599c-0.312,1.297-0.492,3.533-0.491,7.115l0,0c0.055,6.059,2.684,7.664,6.111,7.715l0,0
					c3.428-0.051,6.059-1.656,6.111-7.715l0,0c0.001-0.297,0.002-0.584,0.001-0.862l0,0c0.001-3.294-0.171-5.366-0.465-6.569l0,0
					c-0.316-1.231-0.647-1.422-0.948-1.42l0,0c-0.396-0.021-1.123,0.443-1.919,0.973l0,0c-0.807,0.517-1.729,1.082-2.78,1.088l0,0
					c-1.024-0.005-1.927-0.512-2.714-0.979l0,0c-0.778-0.477-1.479-0.895-1.88-0.877l0,0c-0.001,0-0.002,0-0.004,0l0,0
					C51.238,98.068,50.886,98.279,50.55,99.599L50.55,99.599z"/>
			</g>
			<g>
				<path fill="#871719" d="M57.209,135.949c0-0.924-0.566-3.717-2.32-6.273"/>
				<path fill="#871719" d="M56.854,135.949c0.008-0.82-0.549-3.598-2.256-6.073l0,0l0.582-0.399
					c1.801,2.637,2.375,5.443,2.381,6.473l0,0h0.001H56.854L56.854,135.949z"/>
			</g>
			<g>
				<radialGradient id="SVGID_8_" cx="56.1719" cy="99.228" r="21.3674" gradientUnits="userSpaceOnUse">
					<stop  offset="0" style="stop-color:#F17E5F"/>
					<stop  offset="0.5" style="stop-color:#EB2227"/>
					<stop  offset="1" style="stop-color:#CF232B"/>
				</radialGradient>
				<path fill="url(#SVGID_8_)" d="M56.172,84.021c-6.407,0-20.589,17.437-26.113,30.413c5.038-7.565,14.843-12.7,26.113-12.7
					c11.271,0,21.074,5.135,26.113,12.697C76.762,101.458,62.578,84.021,56.172,84.021z"/>
				<path fill="#871719" d="M29.733,114.296c2.783-6.533,7.722-14.154,12.78-20.162l0,0c5.084-5.998,10.172-10.419,13.658-10.467
					l0,0v0.354v0.354c-2.922-0.047-8.128,4.25-13.118,10.214l0,0c-4.285,5.088-8.496,11.366-11.34,17.105l0,0
					c5.466-6.258,14.388-10.314,24.458-10.315l0,0c10.07,0.001,18.992,4.058,24.459,10.313l0,0
					c-2.846-5.738-7.057-12.018-11.342-17.104l0,0c-4.99-5.964-10.197-10.26-13.117-10.214l0,0v-0.353v-0.354
					c3.486,0.048,8.574,4.469,13.656,10.466l0,0c5.061,6.008,10,13.626,12.783,20.159l0,0l-0.62,0.334
					c-4.96-7.448-14.655-12.541-25.819-12.54l0,0c-11.164-0.001-20.861,5.092-25.819,12.544l0,0L29.733,114.296L29.733,114.296z"/>
			</g>
		</g>
		<g>
			
				<ellipse transform="matrix(0.8272 0.5619 -0.5619 0.8272 54.621 -14.7966)" fill="#010101" cx="51.367" cy="81.406" rx="2.146" ry="1.207"/>
			
				<ellipse transform="matrix(-0.8271 0.562 -0.562 -0.8271 157.1649 114.4678)" fill="#010101" cx="60.977" cy="81.406" rx="2.146" ry="1.208"/>
		</g>
	</g>
	<circle fill="#FFFFFF" cx="72.958" cy="60.969" r="1.558"/>
	<circle fill="#FFFFFF" cx="70.825" cy="68.519" r="0.808"/>
	<circle fill="#FFFFFF" cx="41.87" cy="60.969" r="1.558"/>
	<circle fill="#FFFFFF" cx="39.737" cy="68.519" r="0.808"/>
</g>
</svg>
