<?xml version="1.0" encoding="utf-8"?>
<!-- Generator: Adobe Illustrator 16.0.0, SVG Export Plug-In . SVG Version: 6.00 Build 0)  -->
<!DOCTYPE svg PUBLIC "-//W3C//DTD SVG 1.1//EN" "http://www.w3.org/Graphics/SVG/1.1/DTD/svg11.dtd">
<svg version="1.1" id="Layer_1" xmlns="http://www.w3.org/2000/svg" xmlns:xlink="http://www.w3.org/1999/xlink" x="0px" y="0px"
	 width="204.669px" height="152.964px" viewBox="0 0 204.669 152.964" enable-background="new 0 0 204.669 152.964"
	 xml:space="preserve">
<g>
	<rect fill="#F9F1DD" width="204.669" height="152.964"/>
	<g>
		<path fill="#B12A30" d="M144.29,54.766c0-2.19-1.605-4.063-3.769-4.399l-37.825-5.874c0.086-0.549,0.082-1.116-0.049-1.68
			c-0.525-2.271-1.443-4.337-2.668-6.108c-1.837-2.666-4.341-4.642-7.083-5.913c-2.75-1.275-5.742-1.875-8.743-1.877
			c-1.199,0-2.403,0.097-3.595,0.29c-0.486,0.079-0.964,0.114-1.437,0.114c-1.064,0-2.107-0.185-3.092-0.486
			c-1.473-0.448-2.795-1.167-3.707-1.766c-0.455-0.298-0.809-0.563-1.029-0.74c-0.11-0.087-0.188-0.152-0.229-0.188l-0.036-0.031
			l-0.001,0.002c-1.418-1.281-3.509-1.515-5.173-0.574c-1.674,0.947-2.555,2.874-2.173,4.76c0.257,1.26,0.665,2.727,1.2,4.479
			c0.934,3.049,2.251,6.889,3.711,10.977c2.472,6.918,5.354,14.528,7.395,19.848c-1.712,0.151-3.503,0.516-5.3,1.167
			c-2.47,0.897-4.955,2.361-7.071,4.547c-1.161,1.195-2.07,2.571-2.682,4.05c-0.612,1.476-0.923,3.052-0.923,4.623
			c0,1.682,0.355,3.357,1.034,4.912c1.019,2.336,2.762,4.391,5.033,5.93c2.275,1.541,5.067,2.574,8.247,3
			c0.782,0.104,1.56,0.154,2.325,0.154c1.156,0,2.287-0.113,3.381-0.316c-0.63,1.828-0.97,3.735-0.971,5.659
			c-0.006,3.081,0.888,6.227,2.793,8.896c1.335,1.87,2.893,3.47,4.782,4.63c0.942,0.579,1.965,1.04,3.037,1.349
			c1.073,0.31,2.193,0.465,3.312,0.463c1.78,0.001,3.538-0.385,5.223-1.047c1.689-0.664,3.322-1.603,4.947-2.774l0.006-0.004
			c2.148-1.558,4.102-3.417,5.587-5.708c0.742-1.145,1.357-2.398,1.797-3.746c0.349-1.073,0.573-2.207,0.672-3.375
			c0.091-0.358,0.144-0.727,0.144-1.099V79.891l0.01-12.909l14.989,2.354l0.06,16.96c-0.424,0.118-0.844,0.249-1.26,0.396
			c-1.813,0.644-3.55,1.573-5.182,2.75l-0.001,0.002c-2.598,1.874-4.637,4.244-6.038,6.863c-1.398,2.62-2.164,5.5-2.166,8.415
			c-0.006,3.084,0.888,6.229,2.794,8.9c1.361,1.921,3.06,3.47,4.999,4.488c1.933,1.027,4.062,1.492,6.114,1.486
			c1.804-0.001,3.555-0.339,5.229-0.892c1.675-0.556,3.282-1.331,4.829-2.261c2.478-1.49,4.56-3.487,6.033-5.876
			c1.319-2.134,2.136-4.583,2.337-7.152c0.008-0.025,0.014-0.051,0.021-0.077c0.012-0.05,0.026-0.097,0.037-0.147
			c0.018-0.091,0.029-0.184,0.041-0.277c0.008-0.054,0.019-0.107,0.024-0.162c0.01-0.111,0.014-0.223,0.018-0.334
			c0.001-0.037,0.004-0.073,0.004-0.111V85.292l0.02-17.262c0.008-0.11,0.018-0.222,0.018-0.333V54.766z M92.687,45.366
			c0.659,0.221,1.26,0.584,1.689,0.904c-0.402,0.686-0.623,1.473-0.619,2.279l0.105,26.383c-0.274-0.888-0.607-1.91-0.992-3.057
			c-1.801-5.371-4.71-13.39-7.183-20.103c-0.719-1.949-1.396-3.78-2-5.406c1.959-0.179,4.072-0.536,6.318-1.106
			c0.437-0.109,0.818-0.15,1.177-0.151C91.72,45.11,92.215,45.206,92.687,45.366z"/>
		<path fill="#FCB82A" d="M142.806,50.313c0-2.19-1.604-4.063-3.769-4.399l-37.825-5.875c0.087-0.548,0.082-1.115-0.049-1.679
			c-0.524-2.271-1.441-4.337-2.669-6.108c-1.837-2.666-4.339-4.643-7.082-5.913c-2.75-1.275-5.743-1.876-8.743-1.877
			c-1.2,0-2.403,0.097-3.595,0.29c-0.486,0.078-0.963,0.114-1.437,0.114c-1.063,0-2.107-0.185-3.091-0.485
			c-1.473-0.449-2.796-1.169-3.707-1.767c-0.456-0.299-0.808-0.564-1.03-0.739c-0.11-0.088-0.188-0.153-0.229-0.188l-0.035-0.031
			l-0.002,0.002c-1.418-1.28-3.51-1.516-5.174-0.573c-1.676,0.946-2.553,2.874-2.174,4.759c0.259,1.26,0.668,2.727,1.202,4.478
			c0.934,3.05,2.249,6.89,3.711,10.978c2.472,6.918,5.352,14.528,7.394,19.849c-1.713,0.152-3.502,0.515-5.299,1.166
			c-2.469,0.896-4.956,2.361-7.072,4.547c-1.16,1.194-2.071,2.571-2.682,4.049c-0.612,1.477-0.924,3.053-0.924,4.624
			c0,1.682,0.356,3.356,1.035,4.912c1.018,2.337,2.762,4.391,5.035,5.929c2.272,1.543,5.065,2.575,8.245,3
			c0.782,0.106,1.56,0.155,2.325,0.155c1.156,0,2.286-0.112,3.381-0.317c-0.629,1.829-0.969,3.735-0.971,5.66
			c-0.006,3.081,0.888,6.228,2.795,8.896c1.333,1.868,2.892,3.468,4.78,4.629c0.943,0.579,1.964,1.039,3.038,1.349
			c1.071,0.31,2.193,0.464,3.311,0.464c1.781,0,3.538-0.385,5.223-1.047c1.689-0.666,3.322-1.604,4.947-2.775l0.008-0.004
			c2.146-1.559,4.1-3.417,5.587-5.709c0.739-1.144,1.357-2.397,1.795-3.745c0.349-1.073,0.575-2.209,0.671-3.375
			c0.092-0.358,0.146-0.727,0.146-1.099V75.438l0.009-12.908l14.988,2.354l0.061,16.961c-0.424,0.117-0.844,0.247-1.26,0.395
			c-1.812,0.646-3.549,1.573-5.181,2.752l-0.002,0.001c-2.599,1.874-4.636,4.243-6.036,6.863c-1.399,2.62-2.166,5.501-2.168,8.416
			c-0.006,3.082,0.889,6.228,2.795,8.899c1.361,1.921,3.061,3.469,4.998,4.488c1.934,1.026,4.063,1.491,6.114,1.486
			c1.804-0.001,3.555-0.338,5.229-0.892c1.675-0.557,3.283-1.331,4.829-2.262c2.479-1.488,4.558-3.486,6.033-5.876
			c1.32-2.132,2.137-4.582,2.338-7.151c0.008-0.026,0.013-0.052,0.019-0.077c0.013-0.05,0.027-0.097,0.037-0.147
			c0.019-0.091,0.029-0.185,0.043-0.277c0.007-0.054,0.02-0.107,0.023-0.162c0.011-0.11,0.015-0.223,0.017-0.335
			c0.001-0.036,0.007-0.073,0.007-0.11V80.84l0.018-17.263c0.009-0.11,0.018-0.221,0.018-0.332V50.313z M91.203,40.914
			c0.658,0.221,1.261,0.583,1.689,0.904c-0.402,0.685-0.623,1.473-0.62,2.278l0.105,26.384c-0.274-0.887-0.606-1.911-0.991-3.057
			c-1.801-5.371-4.711-13.39-7.183-20.103c-0.718-1.95-1.396-3.78-2.001-5.406c1.96-0.179,4.072-0.536,6.319-1.105
			c0.435-0.11,0.816-0.151,1.176-0.152C90.235,40.658,90.729,40.754,91.203,40.914z"/>
		<g>
			<path fill="#E32228" d="M96.951,43.883v0.234l-0.227-0.038l0.144,36.148c-2.852,0.091-5.837,1.066-8.479,2.971
				c-6.271,4.527-8.239,12.582-4.392,17.985c3.853,5.41,8.793,6.121,15.069,1.592c3.632-2.628,6.17-6.016,6.268-10.226
				c0.084-3.819,0.09-0.701,0.09-0.095V75.435l0.014-18.11l23.875,3.748l0.087,24.555c-2.859,0.09-5.66,1.068-8.303,2.975
				c-6.271,4.526-8.234,12.579-4.387,17.986c3.847,5.408,9.63,4.97,15.249,1.589c3.84-2.311,6.174-6.014,6.264-10.226
				c0.084-3.818,0.093-0.7,0.093-0.097v-17.02l0.021-17.592l0.017,0.002V50.313L96.951,43.883z"/>
			<path fill="#E32228" d="M88.701,73.857c-1.141-5.122-13.163-37.063-13.163-37.063c1.575,1.119,6.29,1.126,11.885-0.299
				c5.596-1.425,9.402,2.87,9.402,2.87c-1.862-8.044-9.689-11.407-17.041-10.219c-7.35,1.189-13.224-4.187-13.224-4.187
				C68.167,32.897,81.3,66.367,81.3,66.367c-3.464-1.468-11.031-1.504-15.973,3.591c-4.938,5.096-2.015,13.646,8.107,15.003
				C81.657,86.064,89.842,78.979,88.701,73.857z"/>
		</g>
	</g>
	<g>
		<path fill="#E32228" d="M54.253,39.178c0-0.971-0.713-1.803-1.673-1.952l-16.782-2.606c0.038-0.242,0.035-0.495-0.021-0.744
			c-0.233-1.008-0.641-1.924-1.184-2.711c-0.815-1.183-1.926-2.06-3.144-2.623c-1.22-0.566-2.548-0.832-3.879-0.833
			c-0.532,0-1.066,0.043-1.595,0.128c-0.216,0.035-0.428,0.051-0.638,0.051c-0.473,0.001-0.935-0.081-1.371-0.215
			c-0.654-0.199-1.241-0.519-1.646-0.784c-0.201-0.132-0.358-0.25-0.456-0.328c-0.049-0.038-0.084-0.067-0.103-0.083l-0.016-0.014
			l-0.001,0.001c-0.629-0.569-1.556-0.673-2.295-0.255c-0.742,0.42-1.134,1.275-0.964,2.111c0.114,0.559,0.295,1.21,0.533,1.987
			c0.414,1.353,0.998,3.057,1.646,4.87c1.097,3.07,2.375,6.446,3.281,8.807c-0.76,0.067-1.554,0.229-2.352,0.518
			c-1.096,0.397-2.198,1.048-3.138,2.018c-0.515,0.53-0.919,1.141-1.189,1.796c-0.271,0.655-0.409,1.354-0.409,2.052
			c0,0.746,0.157,1.49,0.459,2.18c0.451,1.037,1.225,1.948,2.233,2.631c1.008,0.684,2.248,1.143,3.658,1.331
			c0.347,0.047,0.691,0.068,1.031,0.068c0.514,0,1.016-0.051,1.501-0.14c-0.279,0.811-0.431,1.656-0.432,2.51
			c-0.002,1.368,0.395,2.763,1.24,3.947c0.593,0.83,1.282,1.54,2.121,2.054c0.418,0.258,0.872,0.462,1.348,0.6
			c0.477,0.136,0.974,0.206,1.47,0.205c0.79,0,1.569-0.171,2.317-0.465c0.749-0.294,1.474-0.711,2.194-1.23l0.004-0.003
			c0.952-0.69,1.818-1.516,2.479-2.532c0.328-0.508,0.602-1.064,0.797-1.662c0.154-0.476,0.254-0.979,0.298-1.497
			c0.04-0.159,0.063-0.322,0.063-0.487v-7.551l0.005-5.728l6.65,1.045l0.026,7.525c-0.188,0.052-0.375,0.109-0.559,0.175
			c-0.805,0.286-1.575,0.698-2.3,1.221l0,0c-1.151,0.832-2.058,1.884-2.679,3.046s-0.961,2.44-0.962,3.733
			c-0.003,1.368,0.395,2.764,1.241,3.949c0.603,0.853,1.357,1.539,2.217,1.991c0.858,0.455,1.803,0.662,2.713,0.659
			c0.801,0,1.577-0.149,2.32-0.396c0.743-0.245,1.456-0.59,2.143-1.003c1.1-0.661,2.022-1.547,2.677-2.607
			c0.586-0.946,0.948-2.033,1.037-3.173c0.003-0.011,0.006-0.022,0.009-0.034c0.005-0.022,0.012-0.043,0.017-0.065
			c0.008-0.04,0.013-0.082,0.019-0.123c0.003-0.023,0.008-0.048,0.01-0.071c0.006-0.05,0.007-0.099,0.009-0.149
			c0-0.016,0.002-0.032,0.002-0.049v-7.549l0.009-7.659c0.003-0.049,0.008-0.099,0.008-0.148V39.178z M31.356,35.008
			c0.293,0.098,0.56,0.259,0.75,0.401c-0.179,0.304-0.276,0.653-0.275,1.011l0.047,11.706c-0.122-0.394-0.27-0.848-0.439-1.356
			c-0.799-2.383-2.091-5.94-3.188-8.919c-0.318-0.865-0.619-1.677-0.888-2.399c0.869-0.078,1.808-0.237,2.804-0.49
			c0.193-0.049,0.363-0.067,0.521-0.067C30.928,34.894,31.147,34.937,31.356,35.008z"/>
		<path fill="#FCB82A" d="M53.594,37.202c0-0.972-0.712-1.803-1.672-1.952L35.14,32.645c0.038-0.243,0.036-0.495-0.022-0.745
			c-0.232-1.008-0.64-1.925-1.185-2.711c-0.814-1.183-1.924-2.06-3.142-2.623c-1.22-0.565-2.548-0.833-3.879-0.833
			c-0.533,0-1.066,0.043-1.596,0.129c-0.215,0.035-0.427,0.051-0.637,0.051c-0.472,0-0.936-0.082-1.372-0.216
			c-0.652-0.198-1.24-0.518-1.645-0.784c-0.202-0.132-0.358-0.25-0.457-0.328c-0.049-0.038-0.083-0.067-0.102-0.083l-0.016-0.014
			v0.001c-0.63-0.568-1.558-0.673-2.296-0.255c-0.743,0.42-1.133,1.275-0.964,2.111c0.114,0.56,0.295,1.21,0.532,1.987
			c0.415,1.354,0.999,3.057,1.647,4.87c1.097,3.069,2.374,6.446,3.279,8.808c-0.759,0.067-1.553,0.229-2.352,0.517
			c-1.095,0.398-2.198,1.048-3.138,2.018c-0.514,0.53-0.918,1.141-1.189,1.797c-0.271,0.654-0.409,1.354-0.409,2.051
			c0,0.746,0.158,1.489,0.459,2.18c0.452,1.037,1.226,1.948,2.234,2.63c1.009,0.686,2.247,1.143,3.658,1.333
			c0.347,0.046,0.691,0.067,1.032,0.067c0.513,0,1.014-0.05,1.499-0.141c-0.278,0.812-0.43,1.658-0.431,2.511
			c-0.003,1.368,0.395,2.764,1.24,3.947c0.591,0.83,1.283,1.539,2.121,2.055c0.419,0.257,0.871,0.461,1.348,0.598
			c0.476,0.138,0.974,0.206,1.469,0.206c0.79,0,1.57-0.171,2.318-0.465c0.749-0.295,1.474-0.71,2.194-1.231l0.003-0.001
			c0.953-0.691,1.819-1.517,2.479-2.532c0.328-0.509,0.603-1.064,0.797-1.663c0.154-0.476,0.254-0.979,0.298-1.497
			c0.041-0.158,0.063-0.322,0.063-0.487V48.35l0.004-5.727l6.65,1.044l0.027,7.524c-0.188,0.053-0.375,0.11-0.56,0.176
			c-0.805,0.286-1.574,0.698-2.298,1.221l-0.002,0.001c-1.152,0.832-2.056,1.883-2.678,3.045c-0.621,1.162-0.961,2.44-0.962,3.733
			c-0.003,1.368,0.395,2.765,1.239,3.949c0.605,0.853,1.358,1.539,2.219,1.991c0.857,0.456,1.802,0.662,2.713,0.659
			c0.8,0,1.577-0.149,2.319-0.395c0.744-0.247,1.457-0.591,2.144-1.004c1.1-0.66,2.022-1.547,2.677-2.606
			c0.585-0.946,0.948-2.034,1.037-3.174c0.004-0.011,0.006-0.022,0.009-0.034c0.006-0.021,0.012-0.043,0.017-0.065
			c0.008-0.04,0.013-0.082,0.019-0.123c0.003-0.024,0.009-0.047,0.01-0.071c0.005-0.05,0.008-0.1,0.008-0.148
			c0.001-0.017,0.003-0.033,0.003-0.05v-7.55l0.008-7.658c0.004-0.049,0.008-0.098,0.008-0.147V37.202z M30.698,33.032
			c0.292,0.098,0.56,0.259,0.75,0.401c-0.179,0.303-0.276,0.653-0.275,1.011L31.22,46.15c-0.121-0.394-0.27-0.847-0.44-1.355
			c-0.799-2.384-2.09-5.941-3.187-8.92c-0.318-0.865-0.62-1.677-0.888-2.398c0.87-0.079,1.807-0.238,2.804-0.491
			c0.192-0.049,0.363-0.067,0.521-0.067C30.269,32.918,30.488,32.961,30.698,33.032z"/>
		<g>
			<path fill="#E55C26" d="M33.249,34.35v0.104l-0.101-0.017l0.063,16.039c-1.266,0.04-2.59,0.473-3.762,1.318
				c-2.782,2.008-3.656,5.582-1.949,7.979c1.71,2.4,3.902,2.715,6.687,0.706c1.611-1.166,2.737-2.669,2.78-4.536
				c0.038-1.695,0.041-0.313,0.041-0.043v-7.552l0.006-8.035l10.593,1.663l0.039,10.895c-1.269,0.039-2.513,0.474-3.685,1.319
				c-2.782,2.009-3.653,5.582-1.946,7.98c1.707,2.4,4.273,2.205,6.766,0.706c1.704-1.026,2.74-2.669,2.779-4.538
				c0.038-1.694,0.042-0.312,0.042-0.043v-7.552l0.009-7.805l0.008,0.001v-5.738L33.249,34.35z"/>
			<path fill="#E55C26" d="M29.589,47.649c-0.507-2.272-5.841-16.445-5.841-16.445c0.699,0.496,2.791,0.5,5.273-0.133
				c2.482-0.632,4.172,1.273,4.172,1.273c-0.827-3.568-4.3-5.062-7.562-4.533c-3.261,0.526-5.867-1.858-5.867-1.858
				c0.713,3.522,6.539,18.372,6.539,18.372c-1.536-0.651-4.895-0.667-7.086,1.594s-0.895,6.055,3.597,6.656
				C26.463,53.065,30.095,49.922,29.589,47.649z"/>
		</g>
	</g>
	<g>
		<path fill="#E32228" d="M189.106,82.378c0-0.972-0.711-1.804-1.672-1.952l-16.782-2.607c0.038-0.242,0.036-0.494-0.022-0.744
			c-0.232-1.008-0.64-1.924-1.184-2.71c-0.814-1.184-1.926-2.06-3.142-2.624c-1.221-0.565-2.549-0.832-3.88-0.833
			c-0.532,0-1.066,0.043-1.596,0.129c-0.215,0.035-0.427,0.05-0.638,0.05c-0.471,0.001-0.934-0.081-1.37-0.215
			c-0.653-0.198-1.241-0.518-1.646-0.784c-0.201-0.132-0.358-0.249-0.456-0.328c-0.049-0.038-0.084-0.067-0.102-0.083l-0.016-0.014
			l-0.002,0.002c-0.628-0.569-1.557-0.674-2.295-0.256c-0.742,0.421-1.133,1.275-0.964,2.112c0.114,0.559,0.296,1.21,0.532,1.986
			c0.415,1.353,0.999,3.057,1.647,4.871c1.097,3.069,2.374,6.445,3.28,8.807c-0.76,0.066-1.554,0.229-2.352,0.517
			c-1.096,0.398-2.198,1.048-3.137,2.018c-0.516,0.53-0.919,1.142-1.19,1.797s-0.41,1.354-0.41,2.052
			c0,0.746,0.158,1.489,0.459,2.179c0.453,1.037,1.226,1.948,2.234,2.631c1.01,0.685,2.247,1.143,3.658,1.332
			c0.347,0.046,0.691,0.068,1.032,0.068c0.513-0.001,1.014-0.051,1.5-0.141c-0.279,0.811-0.431,1.657-0.431,2.51
			c-0.003,1.368,0.394,2.764,1.239,3.947c0.592,0.831,1.283,1.54,2.122,2.055c0.417,0.257,0.871,0.462,1.347,0.598
			c0.477,0.139,0.974,0.207,1.47,0.207c0.79,0,1.57-0.172,2.317-0.465c0.75-0.296,1.474-0.711,2.194-1.231l0.004-0.002
			c0.953-0.691,1.819-1.517,2.479-2.533c0.329-0.507,0.602-1.063,0.797-1.661c0.154-0.477,0.255-0.979,0.299-1.498
			c0.039-0.159,0.063-0.322,0.063-0.487v-7.551l0.005-5.727l6.65,1.044l0.026,7.525c-0.188,0.052-0.375,0.11-0.56,0.176
			c-0.804,0.285-1.574,0.697-2.298,1.22l-0.002,0.001c-1.151,0.832-2.057,1.883-2.678,3.045c-0.62,1.162-0.961,2.44-0.961,3.734
			c-0.004,1.369,0.394,2.763,1.239,3.948c0.604,0.853,1.357,1.539,2.218,1.992c0.857,0.456,1.802,0.661,2.713,0.659
			c0.8,0,1.577-0.15,2.32-0.396c0.742-0.247,1.456-0.59,2.143-1.003c1.1-0.661,2.022-1.548,2.677-2.607
			c0.586-0.946,0.948-2.033,1.037-3.174c0.003-0.011,0.007-0.021,0.009-0.033c0.005-0.022,0.012-0.043,0.016-0.065
			c0.009-0.041,0.014-0.082,0.02-0.124c0.003-0.023,0.008-0.048,0.011-0.071c0.004-0.05,0.006-0.099,0.008-0.148
			c0.001-0.017,0.002-0.032,0.002-0.049v-7.55l0.009-7.659c0.003-0.049,0.007-0.098,0.007-0.147V82.378z M166.211,78.207
			c0.292,0.098,0.56,0.26,0.75,0.402c-0.179,0.303-0.276,0.652-0.275,1.01l0.047,11.706c-0.121-0.394-0.269-0.847-0.44-1.355
			c-0.799-2.383-2.09-5.941-3.187-8.92c-0.318-0.865-0.62-1.677-0.887-2.398c0.869-0.079,1.807-0.237,2.803-0.49
			c0.193-0.049,0.363-0.067,0.522-0.067C165.781,78.094,166.002,78.137,166.211,78.207z"/>
		<path fill="#FCB82A" d="M188.449,80.402c0-0.972-0.713-1.804-1.673-1.952l-16.782-2.606c0.038-0.243,0.036-0.495-0.021-0.745
			c-0.233-1.007-0.641-1.925-1.186-2.71c-0.814-1.184-1.925-2.06-3.142-2.624c-1.22-0.565-2.547-0.832-3.879-0.833
			c-0.533,0.001-1.066,0.043-1.595,0.129c-0.217,0.035-0.428,0.051-0.638,0.051c-0.472,0-0.935-0.082-1.371-0.216
			c-0.653-0.198-1.241-0.518-1.645-0.783c-0.203-0.132-0.359-0.25-0.458-0.328c-0.049-0.039-0.083-0.068-0.102-0.083l-0.015-0.014
			h-0.002c-0.629-0.567-1.556-0.672-2.295-0.254c-0.743,0.42-1.134,1.274-0.965,2.11c0.115,0.56,0.297,1.211,0.533,1.987
			c0.414,1.354,0.998,3.057,1.646,4.871c1.097,3.069,2.375,6.446,3.28,8.807c-0.759,0.067-1.554,0.228-2.351,0.518
			c-1.096,0.397-2.198,1.047-3.137,2.018c-0.516,0.529-0.92,1.141-1.191,1.796s-0.409,1.354-0.409,2.052
			c0,0.746,0.158,1.489,0.46,2.18c0.451,1.037,1.225,1.948,2.232,2.63c1.01,0.685,2.248,1.143,3.659,1.331
			c0.347,0.047,0.692,0.068,1.031,0.068c0.513,0,1.015-0.05,1.501-0.14c-0.279,0.812-0.431,1.657-0.432,2.511
			c-0.003,1.367,0.395,2.763,1.24,3.946c0.591,0.83,1.283,1.54,2.121,2.055c0.418,0.258,0.871,0.462,1.348,0.599
			c0.476,0.137,0.974,0.205,1.47,0.205c0.79,0,1.569-0.17,2.316-0.464c0.75-0.296,1.474-0.711,2.195-1.231l0.004-0.002
			c0.952-0.691,1.818-1.516,2.479-2.533c0.328-0.508,0.603-1.063,0.797-1.661c0.153-0.477,0.255-0.979,0.298-1.498
			c0.04-0.158,0.063-0.322,0.063-0.486v-7.552l0.004-5.727l6.65,1.044l0.027,7.525c-0.188,0.053-0.375,0.11-0.559,0.175
			c-0.805,0.287-1.575,0.698-2.3,1.222v0.001c-1.153,0.831-2.058,1.882-2.679,3.045c-0.621,1.162-0.961,2.44-0.962,3.733
			c-0.002,1.368,0.395,2.764,1.24,3.949c0.604,0.852,1.358,1.538,2.219,1.991c0.855,0.455,1.801,0.662,2.712,0.659
			c0.8,0,1.577-0.149,2.32-0.395c0.743-0.247,1.456-0.591,2.143-1.004c1.101-0.661,2.022-1.547,2.677-2.607
			c0.586-0.946,0.948-2.033,1.037-3.173c0.004-0.012,0.006-0.023,0.009-0.034c0.005-0.022,0.012-0.044,0.017-0.065
			c0.008-0.041,0.013-0.082,0.019-0.123c0.003-0.024,0.009-0.048,0.011-0.072c0.005-0.049,0.006-0.099,0.007-0.149
			c0.001-0.015,0.004-0.032,0.004-0.049v-7.549l0.008-7.659c0.003-0.049,0.008-0.098,0.008-0.147V80.402z M165.554,76.231
			c0.291,0.099,0.559,0.259,0.749,0.401c-0.179,0.304-0.277,0.653-0.275,1.012l0.047,11.706c-0.122-0.394-0.27-0.848-0.439-1.356
			c-0.8-2.384-2.091-5.94-3.188-8.92c-0.318-0.864-0.619-1.676-0.888-2.398c0.869-0.078,1.808-0.237,2.804-0.491
			c0.194-0.049,0.362-0.066,0.522-0.066C165.124,76.118,165.343,76.16,165.554,76.231z"/>
		<g>
			<path fill="#E55C26" d="M168.104,77.55v0.104l-0.102-0.017l0.064,16.039c-1.265,0.039-2.589,0.473-3.763,1.317
				c-2.782,2.009-3.654,5.582-1.948,7.979c1.71,2.4,3.902,2.716,6.687,0.706c1.611-1.165,2.738-2.669,2.781-4.537
				c0.037-1.694,0.04-0.311,0.04-0.041v-7.553l0.005-8.035l10.594,1.663l0.039,10.895c-1.27,0.04-2.512,0.475-3.685,1.32
				c-2.782,2.009-3.653,5.581-1.946,7.98s4.273,2.205,6.767,0.705c1.703-1.025,2.739-2.669,2.778-4.537
				c0.038-1.695,0.042-0.312,0.042-0.044v-7.551l0.009-7.806l0.008,0.001v-5.737L168.104,77.55z"/>
			<path fill="#E55C26" d="M164.442,90.849c-0.506-2.272-5.84-16.444-5.84-16.444c0.698,0.496,2.791,0.499,5.273-0.134
				c2.482-0.632,4.172,1.273,4.172,1.273c-0.827-3.568-4.3-5.061-7.562-4.533s-5.866-1.857-5.866-1.857
				c0.712,3.521,6.538,18.372,6.538,18.372c-1.537-0.652-4.894-0.667-7.086,1.593c-2.19,2.262-0.894,6.055,3.597,6.657
				C161.316,96.264,164.948,93.121,164.442,90.849z"/>
		</g>
	</g>
</g>
</svg>
