<?xml version="1.0" encoding="utf-8"?>
<!-- Generator: Adobe Illustrator 16.0.0, SVG Export Plug-In . SVG Version: 6.00 Build 0)  -->
<!DOCTYPE svg PUBLIC "-//W3C//DTD SVG 1.1//EN" "http://www.w3.org/Graphics/SVG/1.1/DTD/svg11.dtd">
<svg version="1.1" id="Layer_1" xmlns="http://www.w3.org/2000/svg" xmlns:xlink="http://www.w3.org/1999/xlink" x="0px" y="0px"
	 width="1920px" height="1080px" viewBox="0 0 1920 1080" enable-background="new 0 0 1920 1080" xml:space="preserve">
<rect fill="#CAA171" stroke="#594A42" stroke-width="3" stroke-miterlimit="10" width="1920" height="838.5"/>
<rect y="841.574" fill="#BCBEC0" stroke="#594A42" stroke-width="3" stroke-miterlimit="10" width="1920" height="240.296"/>
<g>
	<path opacity="0.1" fill="#010101" d="M1094,894.25c0,10.907-8.843,19.75-19.75,19.75h-784.5c-10.908,0-19.75-8.843-19.75-19.75
		v-0.5c0-10.907,8.842-19.75,19.75-19.75h784.5c10.907,0,19.75,8.843,19.75,19.75V894.25z"/>
	<g>
		<rect x="270" y="847" fill="#010101" width="19" height="50"/>
		<rect x="1075" y="847" fill="#010101" width="19" height="50"/>
		<rect x="270" y="774" fill="#404040" width="824" height="94"/>
		<rect x="288" y="787" fill="#8DC641" width="386" height="68"/>
		<rect x="689" y="787" fill="#8DC641" width="386" height="68"/>
		<path fill="#010101" d="M481,821c48.639,0,88.069-9.402,88.069-21H392.931C392.931,811.598,432.361,821,481,821z"/>
		<path fill="#010101" d="M882,821c48.639,0,88.069-9.402,88.069-21H793.931C793.931,811.598,833.361,821,882,821z"/>
	</g>
</g>
<g>
	<g>
		<path opacity="0.1" fill="#010101" d="M1572,897.25c0,10.907-4.518,19.75-10.091,19.75h-400.818
			c-5.573,0-10.091-8.843-10.091-19.75v-0.5c0-10.907,4.518-19.75,10.091-19.75h400.818c5.573,0,10.091,8.843,10.091,19.75V897.25z"
			/>
		<g>
			<rect x="1151" y="850" fill="#010101" width="19" height="50"/>
			<rect x="1554" y="850" fill="#010101" width="19" height="50"/>
			<rect x="1151" y="647" fill="#404040" width="422" height="224"/>
			<rect x="1169" y="663" fill="#8DC641" width="386" height="192"/>
			<path fill="#010101" d="M1362,699c48.639,0,88.069-9.402,88.069-21h-176.139C1273.931,689.598,1313.361,699,1362,699z"/>
		</g>
	</g>
	<g>
		<polygon fill="#404040" points="1573,658 1555,658 1555,235 1169,235 1169,657 1151,657 1151,217 1573,217 		"/>
	</g>
	<g>
		<rect x="1160" y="361" fill="#404040" width="403" height="15"/>
	</g>
	<g>
		<rect x="1161" y="502" fill="#404040" width="403" height="15"/>
	</g>
</g>
<g>
	<path opacity="0.2" fill="#FFFFFF" d="M763.834,195.94L1190,974.805c0,0-289.259,104.353-944,20.753
		c-27-3.448,357.815-803.664,357.815-803.664"/>
	<g>
		<rect x="678" y="-35" fill="#DBADAD" width="9" height="144"/>
	</g>
	<polygon fill="#8DC641" points="771,216 595.607,216 646,68 719,68 	"/>
	<ellipse fill="#C7DE85" cx="683.303" cy="215.5" rx="87.697" ry="10.5"/>
	<path fill="#FFFFFF" d="M668,205.159v10.328c0,3.045,4.314,5.513,9.329,5.513h10.895c5.015,0,9.776-2.468,9.776-5.513v-10.34
		C682.813,205,678.313,205,668,205.159z"/>
</g>
<g>
	<rect x="1660.264" y="672.809" fill="#575A5C" width="174.67" height="10.824"/>
	<rect x="1658.188" y="724.232" fill="#575A5C" width="178.821" height="18.945"/>
	<path fill="#575A5C" d="M1857.095,892.147c-0.42,0-0.847-0.076-1.262-0.236l-110.937-42.939l-110.594,42.66
		c-1.806,0.695-3.832-0.201-4.527-2.006c-0.694-1.803,0.203-3.828,2.007-4.525l113.118-43.633l113.458,43.914
		c1.804,0.699,2.699,2.725,2.002,4.529C1859.823,891.296,1858.499,892.147,1857.095,892.147"/>
	<path fill="#575A5C" d="M1642.541,900.284h-18c-3.865,0-7-3.135-7-7v-0.668c0-3.865,3.135-7,7-7h18c3.867,0,7,3.135,7,7v0.668
		C1649.541,897.149,1646.408,900.284,1642.541,900.284"/>
	<path fill="#575A5C" d="M1754.003,900.284h-17.999c-3.867,0-7-3.135-7-7v-0.668c0-3.865,3.133-7,7-7h17.999c3.866,0,7,3.135,7,7
		v0.668C1761.003,897.149,1757.869,900.284,1754.003,900.284"/>
	<path fill="#575A5C" d="M1866.597,900.284h-18c-3.865,0-7-3.135-7-7v-0.668c0-3.865,3.135-7,7-7h18c3.866,0,7,3.135,7,7v0.668
		C1873.597,897.149,1870.463,900.284,1866.597,900.284"/>
	<path fill="#575A5C" d="M1745.004,886.524L1745.004,886.524c-1.972,0-3.57-2.649-3.57-5.918V744.609
		c0-3.271,1.599-5.921,3.57-5.921c1.97,0,3.568,2.649,3.568,5.921v135.997C1748.572,883.875,1746.974,886.524,1745.004,886.524"/>
	<path fill="#575A5C" d="M1703.281,744.606L1703.281,744.606c-1.293,0-2.34-1.736-2.34-3.879v-89.131
		c0-2.145,1.047-3.881,2.34-3.881c1.291,0,2.338,1.736,2.338,3.881v89.131C1705.619,742.87,1704.572,744.606,1703.281,744.606"/>
	<path fill="#575A5C" d="M1799.518,744.606L1799.518,744.606c-1.293,0-2.34-1.736-2.34-3.879v-89.131
		c0-2.145,1.047-3.881,2.34-3.881c1.291,0,2.338,1.736,2.338,3.881v89.131C1801.855,742.87,1800.809,744.606,1799.518,744.606"/>
</g>
</svg>
