<?xml version="1.0" encoding="utf-8"?>
<!-- Generator: Adobe Illustrator 16.0.0, SVG Export Plug-In . SVG Version: 6.00 Build 0)  -->
<!DOCTYPE svg PUBLIC "-//W3C//DTD SVG 1.1//EN" "http://www.w3.org/Graphics/SVG/1.1/DTD/svg11.dtd">
<svg version="1.1" id="Layer_1" xmlns="http://www.w3.org/2000/svg" xmlns:xlink="http://www.w3.org/1999/xlink" x="0px" y="0px"
	 width="1920px" height="1080px" viewBox="0 0 1920 1080" enable-background="new 0 0 1920 1080" xml:space="preserve">
<rect fill="#CAA171" stroke="#594A42" stroke-width="3" stroke-miterlimit="10" width="1920" height="838.5"/>
<rect y="839.704" fill="#BCBEC0" stroke="#594A42" stroke-width="3" stroke-miterlimit="10" width="1920" height="240.296"/>
<g>
	<g>
		<g>
			<polygon fill="#FFFFFF" points="839.18,55.853 839.18,524.119 872.447,524.119 872.447,86.996 1206.575,86.996 1206.575,524.119 
				1239.844,524.119 1239.844,55.853 			"/>
			<polygon fill="#D0D2D3" points="872.447,86.996 872.447,524.119 878.782,524.119 878.782,92.713 1200.515,92.713 
				1200.515,524.119 1206.575,524.119 1206.575,86.996 			"/>
		</g>
		<g>
			<rect x="913.732" y="125.92" fill="#A1DDF9" width="251.771" height="364.512"/>
			<path fill="#D0D2D3" d="M908.775,121.026v369.406v4.773h4.958h251.771h4.741v-4.773V121.026H908.775z M913.732,490.433V125.92
				h251.771v364.512H913.732z"/>
			<path fill="#FFFFFF" d="M878.505,92.305v402.9v28.914v0.039h30.27v-0.039h261.47v0.039h30.27V92.305H878.505z M1170.245,295.033
				l-117.427-0.598V121.026h117.427V295.033z M1026.274,121.026v174.007l-117.5-0.598V121.026H1026.274z M908.775,321.431h117.5
				v173.774h-117.5V321.431z M1052.818,495.206V321.431h117.427v173.774H1052.818z"/>
		</g>
		<rect x="825.038" y="524.119" fill="#D0D2D3" width="428.875" height="14.773"/>
	</g>
	<g>
		<path fill="#3A9F61" d="M810.002,575.441L810.002,575.441c-16.687,0-30.214-13.528-30.214-30.213V25.906h123.917L840.094,313.69
			v234.251C838.689,563.513,825.638,575.441,810.002,575.441z"/>
		<path fill="#3A9F61" d="M1265.084,575.441L1265.084,575.441c16.686,0,30.214-13.528,30.214-30.213V25.906h-123.916l63.611,287.785
			v234.251C1236.396,563.513,1249.447,575.441,1265.084,575.441z"/>
		<path fill="#E8B360" d="M1299.559,39.547h-534.94c-5.589,0-10.119-4.531-10.119-10.121l0,0c0-5.589,4.53-10.12,10.119-10.12
			h534.94c5.589,0,10.119,4.531,10.119,10.12l0,0C1309.678,35.016,1305.147,39.547,1299.559,39.547z"/>
	</g>
</g>
<g>
	<g>
		<path fill="#C4BCB4" d="M1480.733,662.255c0,46.479-194.178,84.158-436.761,84.158s-436.762-37.68-436.762-84.158
			s194.179-84.157,436.762-84.157S1480.733,615.776,1480.733,662.255z"/>
		<g>
			<g>
				<path fill="#C4BCB4" d="M1481,922.059c0,10.329-10.108,19.941-23.774,19.941H630.72c-13.667,0-25.72-9.612-25.72-19.941V671.442
					C605,661.111,617.053,655,630.72,655h826.505c13.666,0,23.774,6.111,23.774,16.442V922.059z"/>
				<path fill="#CCC5BE" d="M1465,941H589V792.242l38.394-0.158c0,0,108.097-12.741,144.339-12.959
					c37.926-0.229,151.174,11.742,151.174,11.742s88-13.639,117.671-13.783c30.997-0.151,123.1,13.204,123.1,13.204
					s82.896-12.558,110.638-12.897c47.732-0.585,190.686,14.852,190.686,14.852V941z"/>
				<rect x="605" y="825" fill="#B5ABA4" width="876" height="117"/>
				<g>
					<path fill="#B5ABA4" d="M668,918.996C668,931.02,659.234,942,645.567,942h-81.661C550.24,942,537,931.02,537,918.996V733.994
						C537,721.974,550.24,713,563.906,713h81.661c13.667,0,22.433,8.974,22.433,20.994V918.996z"/>
					<path fill="#B5ABA4" d="M1548,918.996c0,12.023-10.295,23.004-23.962,23.004h-81.66c-13.665,0-26.378-10.98-26.378-23.004
						V733.994c0-12.021,12.713-20.994,26.378-20.994h81.66c13.667,0,23.962,8.974,23.962,20.994V918.996z"/>
				</g>
			</g>
			<rect x="692" y="902" opacity="0.05" fill="#FFFFFF" width="703" height="19"/>
			<rect x="669" y="823" opacity="0.05" fill="#FFFFFF" width="23" height="118"/>
			<rect x="1395" y="823" opacity="0.05" fill="#FFFFFF" width="22" height="118"/>
		</g>
	</g>
	<g>
		<path fill="#EE9DC2" d="M1251.78,669.986l0.107,7.636l-5.067,50.222c31.474-3.248,91.057-4.671,170.485,14.699l5.399-51.911
			C1367.117,687.816,1289.824,676.146,1251.78,669.986z"/>
		<path fill="#F16355" d="M1246.82,727.844l-0.899,8.906l-12.808,49.374l76.135,0.139l105.977,15.064l1.515-53.333l0.566-5.451
			C1337.877,723.173,1278.294,724.596,1246.82,727.844z"/>
		<path fill="#F6B66F" d="M1285.496,626.321l-34.436-6.534l0.72,50.199c38.044,6.16,115.337,17.83,170.925,20.646l1.153-11.081
			l9.315-44.562l-71.844-2.268L1285.496,626.321z"/>
	</g>
	<g>
		<path fill="#EE9DC2" d="M801.479,647.856l-8.634,0.817l-57.321,0.307c6.648,27.254,13.889,79.29-0.532,150.67l59.268-0.177
			C792.194,750.534,798.1,681.752,801.479,647.856z"/>
		<path fill="#F16355" d="M735.524,648.98l-10.166,0.055l-57.096-6.55l7.036,66.679l-7.036,94.218l60.507-3.713l6.223-0.019
			C749.413,728.271,742.173,676.234,735.524,648.98z"/>
		<path fill="#F6B66F" d="M854.086,673.254l4.142-30.769l-56.75,5.371c-3.379,33.896-9.285,102.678-7.218,151.617l12.651-0.039
			l51.317,3.947l-4.222-63.121L854.086,673.254z"/>
	</g>
</g>
<g>
	<g>
		<path fill="#C4BCB4" d="M1507.733,669.255c0,46.479-194.178,84.158-436.761,84.158s-436.762-37.68-436.762-84.158
			s194.179-84.157,436.762-84.157S1507.733,622.776,1507.733,669.255z"/>
		<g>
			<g>
				<path fill="#C4BCB4" d="M1508,929.059c0,10.329-10.108,19.941-23.774,19.941H657.72c-13.667,0-25.72-9.612-25.72-19.941V678.442
					C632,668.111,644.053,662,657.72,662h826.505c13.666,0,23.774,6.111,23.774,16.442V929.059z"/>
				<path fill="#CCC5BE" d="M1492,948H616V799.242l38.394-0.158c0,0,108.097-12.741,144.339-12.959
					c37.926-0.229,151.174,11.742,151.174,11.742s88-13.639,117.671-13.783c30.997-0.151,123.1,13.204,123.1,13.204
					s82.896-12.558,110.638-12.897c47.732-0.585,190.686,14.852,190.686,14.852V948z"/>
				<rect x="632" y="832" fill="#B5ABA4" width="876" height="117"/>
				<g>
					<path fill="#B5ABA4" d="M695,925.996C695,938.02,686.234,949,672.567,949h-81.661C577.24,949,564,938.02,564,925.996V740.994
						C564,728.974,577.24,720,590.906,720h81.661c13.667,0,22.433,8.974,22.433,20.994V925.996z"/>
					<path fill="#B5ABA4" d="M1575,925.996c0,12.023-10.295,23.004-23.962,23.004h-81.66c-13.665,0-26.378-10.98-26.378-23.004
						V740.994c0-12.021,12.713-20.994,26.378-20.994h81.66c13.667,0,23.962,8.974,23.962,20.994V925.996z"/>
				</g>
			</g>
			<rect x="719" y="909" opacity="0.05" fill="#FFFFFF" width="703" height="19"/>
			<rect x="696" y="830" opacity="0.05" fill="#FFFFFF" width="23" height="118"/>
			<rect x="1422" y="830" opacity="0.05" fill="#FFFFFF" width="22" height="118"/>
		</g>
	</g>
	<g>
		<path fill="#EE9DC2" d="M1278.78,676.986l0.107,7.636l-5.067,50.222c31.474-3.248,91.057-4.671,170.485,14.699l5.399-51.911
			C1394.117,694.816,1316.824,683.146,1278.78,676.986z"/>
		<path fill="#F16355" d="M1273.82,734.844l-0.899,8.906l-12.808,49.374l76.135,0.139l105.977,15.064l1.515-53.333l0.566-5.451
			C1364.877,730.173,1305.294,731.596,1273.82,734.844z"/>
		<path fill="#F6B66F" d="M1312.496,633.321l-34.436-6.534l0.72,50.199c38.044,6.16,115.337,17.83,170.925,20.646l1.153-11.081
			l9.315-44.562l-71.844-2.268L1312.496,633.321z"/>
	</g>
	<g>
		<path fill="#EE9DC2" d="M828.479,654.856l-8.634,0.817l-57.321,0.307c6.648,27.254,13.889,79.29-0.532,150.67l59.268-0.177
			C819.194,757.534,825.1,688.752,828.479,654.856z"/>
		<path fill="#F16355" d="M762.524,655.98l-10.166,0.055l-57.096-6.55l7.036,66.679l-7.036,94.218l60.507-3.713l6.223-0.019
			C776.413,735.271,769.173,683.234,762.524,655.98z"/>
		<path fill="#F6B66F" d="M881.086,680.254l4.142-30.769l-56.75,5.371c-3.379,33.896-9.285,102.678-7.218,151.617l12.651-0.039
			l51.317,3.947l-4.222-63.121L881.086,680.254z"/>
	</g>
</g>
<g>
	<g>
		<g>
			<path fill="#80655C" d="M1221.385,1056.273c-2.359,7.989-6.484,8.938-11.223,8.923l0,0c-4.738-0.016-8.297-0.992-5.938-8.981
				l44.73-151.523c2.357-7.987,7.299-11.697,12.037-11.683l0,0c4.738,0.017,7.48,3.753,5.123,11.74L1221.385,1056.273z"/>
			<path fill="#C7BAAF" d="M1217.861,1056.261c-2.357,7.989-3.897,8.948-5.443,8.943l0,0c-1.541-0.006-2.512-0.974-0.154-8.962
				l44.73-151.523c2.359-7.988,4.714-11.707,6.255-11.702l0,0c1.546,0.006,1.702,3.732-0.657,11.722L1217.861,1056.261z"/>
		</g>
	</g>
	<g>
		<g>
			<path fill="#80655C" d="M883.667,1055.128c-2.359,7.988-6.488,8.938-11.227,8.923l0,0c-4.739-0.017-8.294-0.992-5.937-8.981
				l44.731-151.523c2.358-7.987,7.296-11.697,12.036-11.682l0,0c4.738,0.016,7.484,3.752,5.126,11.739L883.667,1055.128z"/>
			<path fill="#C7BAAF" d="M880.138,1055.115c-2.358,7.99-3.895,8.948-5.439,8.943l0,0c-1.544-0.005-2.512-0.974-0.153-8.962
				l44.73-151.523c2.358-7.988,4.709-11.706,6.254-11.701l0,0c1.544,0.005,1.697,3.732-0.661,11.72L880.138,1055.115z"/>
		</g>
	</g>
	<g>
		<g>
			<path fill="#80655C" d="M770.31,1066.698c-2.358,7.987-6.488,8.942-11.225,8.926l0,0c-4.739-0.017-8.295-0.997-5.938-8.983
				l44.73-151.523c2.359-7.989,7.299-11.697,12.038-11.681l0,0c4.738,0.017,7.483,3.749,5.125,11.74L770.31,1066.698z"/>
			<path fill="#C7BAAF" d="M766.783,1066.687c-2.358,7.986-3.899,8.95-5.442,8.945l0,0c-1.541-0.006-2.511-0.978-0.153-8.965
				l44.73-151.521c2.359-7.99,4.713-11.707,6.254-11.701l0,0c1.543,0.005,1.701,3.729-0.658,11.72L766.783,1066.687z"/>
		</g>
	</g>
	<g>
		<path fill="#010101" d="M1394.192,1076l-653.615-2.216c-8.108-0.027-12.751-6.667-10.349-14.805l0.23-0.483l1.888-2.813
			c-0.226-1.817-0.052-3.702,0.509-5.605L790.79,898.19c2.412-8.193,13.708-14.603,21.787-14.576l529.445,1.796
			c6.871,0.024,24.877,5.702,22.922,14.423L1416,1051.992l-0.118,0.403c-0.671,2.271-1.85,4.469-3.519,6.549l1.042,1.838
			l-0.151,0.515C1410.852,1069.433,1402.307,1076.027,1394.192,1076L1394.192,1076z M732.905,1059.235
			c-1.791,6.502,1.973,11.771,8.486,11.792l653.615,2.217c6.43,0.021,13.195-5.07,15.346-11.456l-1.436-2.516l0.753-0.857
			c1.575-1.784,2.702-3.68,3.348-5.638l-51.044-152.131l0.118-0.4c1.765-5.976-13.205-12.052-20.885-12.076l-529.443-1.796
			c-6.67-0.023-16.304,5.297-18.266,11.943l-57.936,151.887c-0.471,1.616-0.58,3.337-0.283,4.998l-1.267,0.537l0.961,0.412
			L732.905,1059.235L732.905,1059.235z"/>
		<g>
			<path fill="#32241B" d="M1409.37,1051.19c-2.146,7.27-9.768,13.143-17.017,13.117l-643.046-2.181
				c-7.249-0.025-11.384-5.938-9.238-13.207l53.561-149.419c2.148-7.274,12.488-13.135,19.737-13.111l524.795,1.78
				c7.25,0.024,23.657,5.976,21.51,13.252L1409.37,1051.19z"/>
			<path fill="#010101" d="M1414.509,1052.39l-51.043-152.139c2.182-7.392-14.49-13.438-21.852-13.462l-532.189-1.805
				c-7.362-0.025-17.865,5.928-20.047,13.319l-55.151,151.779c-0.604,2.051-0.673,3.969-0.364,5.707
				c-0.008-0.043-0.023-0.084-0.03-0.128l-2.233,3.321c-2.182,7.391,2.021,13.4,9.384,13.426l653.616,2.214
				c7.362,0.024,15.101-5.941,17.283-13.331l-1.237-2.174C1412.396,1057.138,1413.779,1054.862,1414.509,1052.39z M793.63,899.501
				c2.148-7.274,12.488-13.135,19.737-13.111l524.795,1.78c7.25,0.024,23.657,5.976,21.51,13.252l49.698,149.769
				c-2.146,7.27-9.768,13.143-17.017,13.117l-643.046-2.181c-7.249-0.025-11.384-5.938-9.238-13.207L793.63,899.501z
				 M1406.625,1062.62c-0.217,0.145-0.433,0.297-0.659,0.434C1406.192,1062.919,1406.405,1062.765,1406.625,1062.62z
				 M1404.771,1063.732c-0.474,0.245-0.957,0.471-1.449,0.676C1403.813,1064.208,1404.295,1063.978,1404.771,1063.732z
				 M1402.341,1064.793c-0.653,0.231-1.315,0.415-1.985,0.562C1401.024,1065.21,1401.683,1065.024,1402.341,1064.793z
				 M740.624,1063.087c-0.512-0.133-0.994-0.3-1.457-0.505C739.631,1062.782,740.112,1062.954,740.624,1063.087z M738.542,1062.312
				c-0.562-0.301-1.093-0.638-1.569-1.025C737.45,1061.671,737.976,1062.017,738.542,1062.312z M734.703,1058.336
				c0.122,0.243,0.239,0.494,0.382,0.721C734.943,1058.828,734.824,1058.581,734.703,1058.336z M735.673,1059.917
				c0.222,0.274,0.462,0.537,0.716,0.787C736.136,1060.452,735.894,1060.193,735.673,1059.917z M741.285,1063.254
				c0.738,0.144,1.504,0.246,2.328,0.249C742.789,1063.5,742.022,1063.397,741.285,1063.254z M1399.663,1065.489
				c-0.809,0.135-1.623,0.233-2.437,0.23C1398.04,1065.723,1398.85,1065.624,1399.663,1065.489z M1409.195,1060.6
				c0.027-0.024,0.063-0.055,0.094-0.084C1409.259,1060.545,1409.223,1060.572,1409.195,1060.6z"/>
			<g opacity="0.2">
				<path fill="#FFFFFF" d="M1384.785,974.366l-25.113-72.944c2.147-7.276-14.26-13.228-21.51-13.252l-58.116-0.196L739.588,1054.03
					c0.592,4.741,4.277,8.078,9.719,8.097l464.155,1.574L1384.785,974.366z"/>
				<polygon fill="#FFFFFF" points="750.744,1018.142 1224.896,887.786 1073.356,887.271 780.939,938.889 				"/>
			</g>
		</g>
	</g>
	<path fill="#80655C" d="M1274.334,1055.771c-0.881,2.984-5.702,5.391-10.77,5.373c-5.065-0.018-8.455-2.451-7.574-5.436
		c0.882-2.987,5.7-5.391,10.766-5.373C1271.823,1050.352,1275.217,1052.782,1274.334,1055.771z"/>
	<path fill="#80655C" d="M1389.078,1023.984c-0.881,2.985-5.704,5.39-10.77,5.372c-5.063-0.018-8.459-2.449-7.577-5.435
		c0.882-2.986,5.705-5.392,10.769-5.374C1386.565,1018.563,1389.96,1020.997,1389.078,1023.984z"/>
	<path fill="#80655C" d="M1365.439,920.945c-0.881,2.984-5.697,5.391-10.768,5.373c-5.063-0.017-8.457-2.45-7.577-5.436
		c0.883-2.988,5.706-5.392,10.769-5.374C1362.934,915.526,1366.322,917.956,1365.439,920.945z"/>
	<path fill="#80655C" d="M1268.524,898.553c-0.882,2.987-5.701,5.39-10.771,5.373c-5.064-0.018-8.457-2.449-7.576-5.435
		c0.882-2.988,5.703-5.393,10.768-5.377C1266.014,893.132,1269.406,895.565,1268.524,898.553z"/>
	<path fill="#80655C" d="M930.804,897.407c-0.882,2.986-5.705,5.391-10.77,5.373c-5.062-0.018-8.461-2.449-7.58-5.435
		c0.882-2.987,5.709-5.394,10.771-5.375C928.291,891.986,931.686,894.42,930.804,897.407z"/>
	<path fill="#80655C" d="M866.137,1054.386c-0.881,2.984-5.703,5.391-10.767,5.373c-5.065-0.018-8.46-2.451-7.579-5.436
		c0.882-2.987,5.705-5.391,10.77-5.373C863.625,1048.967,867.02,1051.397,866.137,1054.386z"/>
	<path fill="#80655C" d="M785.862,1003.554c-0.882,2.989-5.703,5.392-10.768,5.375c-5.064-0.018-8.458-2.448-7.576-5.437
		c0.881-2.985,5.703-5.391,10.768-5.374C783.35,998.136,786.743,1000.569,785.862,1003.554z"/>
	<path fill="#80655C" d="M817.447,908.978c-0.881,2.984-5.704,5.392-10.768,5.374c-5.065-0.018-8.457-2.451-7.576-5.437
		c0.882-2.987,5.702-5.39,10.768-5.372C814.935,903.56,818.329,905.989,817.447,908.978z"/>
</g>
<g>
	<ellipse opacity="0.05" fill="#010101" cx="402.385" cy="930.82" rx="116.385" ry="13.18"/>
	<path fill="#997860" d="M341,912c0,11.046-4.477,20-10,20h-17c-5.523,0-10-8.954-10-20v-34c0-11.046,4.477-20,10-20h17
		c5.523,0,10,8.954,10,20V912z"/>
	<path fill="#997860" d="M495,912c0,11.046-4.477,20-10,20h-17c-5.523,0-10-8.954-10-20v-34c0-11.046,4.477-20,10-20h17
		c5.523,0,10,8.954,10,20V912z"/>
	<path fill="#D8AE96" d="M514,905c0,3.85-3.15,7-7,7H293c-3.85,0-7-3.15-7-7V695c0-3.85,3.15-7,7-7h214c3.85,0,7,3.15,7,7V905z"/>
	<path fill="#CDA38E" d="M503,804.373c0,1.355-3.173,3.627-6.68,3.627H301.377c-3.507,0-6.377-2.271-6.377-3.627v-73.91
		c0-1.354,2.87-2.463,6.377-2.463H496.32c3.507,0,6.68,1.109,6.68,2.463V804.373z"/>
	<path fill="#D8AE96" d="M511.622,643.119l11.914,61.755c-0.471,1.135-4.421,2.126-8.706,2.126H276.598
		c-4.286,0-7.35-0.991-6.878-2.126l57.357-61.725"/>
	<path fill="#CC977D" d="M514,712.39c0,0.112-3.15,0.61-7,0.61H293c-3.85,0-7-0.498-7-0.61v-6.123c0-0.112,3.15-0.267,7-0.267h214
		c3.85,0,7,0.154,7,0.267V712.39z"/>
	<path fill="#CDA38E" d="M503,893.717c0,1.355-3.173,3.283-6.68,3.283H301.377c-3.507,0-6.377-1.928-6.377-3.283v-73.91
		c0-1.354,2.87-2.807,6.377-2.807H496.32c3.507,0,6.68,1.453,6.68,2.807V893.717z"/>
	<ellipse fill="#CC977D" cx="402" cy="745.666" rx="39.333" ry="6.667"/>
	<ellipse fill="#CC977D" cx="402" cy="835.666" rx="39.333" ry="6.667"/>
</g>
<g>
	<ellipse opacity="0.05" fill="#010101" cx="1695.823" cy="930.82" rx="116.385" ry="13.18"/>
	<path fill="#997860" d="M1757,912c0,11.046,4.685,20,10.208,20h17c5.523,0,9.792-8.954,9.792-20v-34c0-11.046-4.269-20-9.792-20
		h-17c-5.523,0-10.208,8.954-10.208,20V912z"/>
	<path fill="#997860" d="M1603,912c0,11.046,4.685,20,10.208,20h17c5.523,0,9.792-8.954,9.792-20v-34c0-11.046-4.269-20-9.792-20
		h-17c-5.523,0-10.208,8.954-10.208,20V912z"/>
	<path fill="#D8AE96" d="M1812,695c0-3.866-3.134-7-7-7h-214c-3.866,0-7,3.134-7,7v210c0,3.866,3.134,7,7,7h214c3.866,0,7-3.134,7-7
		V695z"/>
	<path fill="#CDA38E" d="M1595,804.373c0,1.355,3.381,3.627,6.888,3.627h194.943c3.507,0,6.169-2.271,6.169-3.627v-73.91
		c0-1.354-2.662-2.463-6.169-2.463h-194.943c-3.507,0-6.888,1.109-6.888,2.463V804.373z"/>
	<path fill="#D8AE96" d="M1586.586,643.119l-11.914,61.755c0.471,1.135,4.421,2.126,8.706,2.126h238.231
		c4.286,0,7.35-0.991,6.879-2.126l-57.357-61.725"/>
	<path fill="#CC977D" d="M1584,712.39c0,0.112,3.358,0.61,7.208,0.61h214c3.85,0,6.792-0.498,6.792-0.61v-6.123
		c0-0.112-2.942-0.267-6.792-0.267h-214c-3.85,0-7.208,0.154-7.208,0.267V712.39z"/>
	<path fill="#CDA38E" d="M1595,893.717c0,1.355,3.381,3.283,6.888,3.283h194.943c3.507,0,6.169-1.928,6.169-3.283v-73.91
		c0-1.354-2.662-2.807-6.169-2.807h-194.943c-3.507,0-6.888,1.453-6.888,2.807V893.717z"/>
	<ellipse fill="#CC977D" cx="1696.208" cy="745.666" rx="39.333" ry="6.667"/>
	<ellipse fill="#CC977D" cx="1696.208" cy="835.666" rx="39.333" ry="6.667"/>
</g>
</svg>
