<?xml version="1.0" encoding="utf-8"?>
<!-- Generator: Adobe Illustrator 16.0.0, SVG Export Plug-In . SVG Version: 6.00 Build 0)  -->
<!DOCTYPE svg PUBLIC "-//W3C//DTD SVG 1.1//EN" "http://www.w3.org/Graphics/SVG/1.1/DTD/svg11.dtd">
<svg version="1.1" id="Layer_1" xmlns="http://www.w3.org/2000/svg" xmlns:xlink="http://www.w3.org/1999/xlink" x="0px" y="0px"
	 width="1920px" height="1080px" viewBox="0 0 1920 1080" enable-background="new 0 0 1920 1080" xml:space="preserve">
<rect fill="#CAA171" stroke="#594A42" stroke-width="3" stroke-miterlimit="10" width="1510.189" height="796.646"/>
<polygon fill="#CAA171" stroke="#594A42" stroke-width="3" stroke-miterlimit="10" points="1920,0 1510.189,0 1510.189,796.646 
	1920,1080 "/>
<polygon fill="#BCBEC0" stroke="#594A42" stroke-width="3" stroke-miterlimit="10" points="0,1080 1920,1080 1510.189,796.646 
	0,796.646 "/>
<g>
	<linearGradient id="SVGID_1_" gradientUnits="userSpaceOnUse" x1="879.0903" y1="249.4692" x2="988.583" y2="249.4692">
		<stop  offset="0" style="stop-color:#0066AB"/>
		<stop  offset="0.0982" style="stop-color:#008ACF"/>
		<stop  offset="0.5215" style="stop-color:#00458F"/>
		<stop  offset="0.5215" style="stop-color:#40558E"/>
		<stop  offset="0.5215" style="stop-color:#6A6F8B"/>
		<stop  offset="0.5215" style="stop-color:#7C7D87"/>
		<stop  offset="0.5215" style="stop-color:#828284"/>
		<stop  offset="0.8528" style="stop-color:#EEEBEB"/>
		<stop  offset="1" style="stop-color:#979799"/>
	</linearGradient>
	<path fill="url(#SVGID_1_)" stroke="#000000" stroke-width="1.8102" d="M917.048,313.977c0,0-45.337-31.605-30.742-60.148
		c14.596-28.543-22.889-56.551,0.924-69.71c27.504-15.2,63.976-15.246,91.002,0c27.025,15.246-9.197,29.531,5.974,65.352
		c14.634,34.554-28.882,65.031-28.882,65.031l-19.862,11.737L917.048,313.977z"/>
	<linearGradient id="SVGID_2_" gradientUnits="userSpaceOnUse" x1="935.959" y1="249.4692" x2="935.959" y2="249.4692">
		<stop  offset="0.5092" style="stop-color:#828284"/>
		<stop  offset="0.5092" style="stop-color:#7C7D87"/>
		<stop  offset="0.5092" style="stop-color:#6A6F8B"/>
		<stop  offset="0.5092" style="stop-color:#40558E"/>
		<stop  offset="0.5092" style="stop-color:#00458F"/>
	</linearGradient>
	<line fill="url(#SVGID_2_)" stroke="#000000" x1="935.959" y1="173.012" x2="935.959" y2="325.927"/>
	<path fill="#CAA171" stroke="#FFFFFF" stroke-width="1.3596" d="M906.377,295.531c7.227-0.513,22.004-16.142,29.104-15.981
		c1.457,0.033,1.05-32.614,1.723-32.248c-0.571-1.766-9.332,3.479-9.95,3.842c-4.784,2.813-26.711,24.403-28.382,30.936
		C897.201,288.613,899.149,296.043,906.377,295.531z"/>
	<path fill="#CAA171" stroke="#FFFFFF" d="M937.905,224.497c0,0,15.313,21.493,31.033,7.493
		c11.753-10.468,4.212-18.833,4.212-18.833c-0.697-6.462,0.55,14.711-16.432,14.673c-16.027-0.037-9.857-16.832-17.122-6.907
		L937.905,224.497z"/>
	<path fill="#CAA171" stroke="#FFFFFF" d="M931.076,224.497c0,0-15.313,21.493-31.033,7.493
		c-11.753-10.468-4.212-18.833-4.212-18.833c0.697-6.462-0.55,14.711,16.432,14.673c16.026-0.037,9.856-16.832,17.122-6.907
		L931.076,224.497z"/>
	<g>
		<g>
			<path fill="#FFFFFF" d="M927.408,194.026c-1.322,5.563-4.056,11.68-8.875,15.005c-8.773,6.053-21.822-8.11-27.074-13.995
				c-1.291-1.446-3.405,0.683-2.121,2.121c5.967,6.686,18.633,20.049,28.894,15.392c6.709-3.045,10.439-10.872,12.068-17.725
				C930.748,192.943,927.855,192.145,927.408,194.026L927.408,194.026z"/>
		</g>
	</g>
	<g>
		<g>
			<path fill="#FFFFFF" d="M938.568,194.824c1.629,6.853,5.36,14.68,12.068,17.725c10.26,4.658,22.928-8.706,28.895-15.392
				c1.283-1.438-0.83-3.567-2.121-2.121c-5.701,6.389-17.671,19.363-27.074,13.995c-4.897-2.796-7.63-9.769-8.875-15.005
				C941.014,192.145,938.121,192.943,938.568,194.824L938.568,194.824z"/>
		</g>
	</g>
	<path fill="#CAA171" stroke="#FFFFFF" stroke-width="1.3596" d="M965.542,295.531c-7.227-0.513-22.004-16.142-29.103-15.981
		c-1.457,0.033-1.051-32.614-1.723-32.249c0.57-1.765,9.332,3.48,9.949,3.842c4.784,2.813,26.711,24.404,28.383,30.936
		C974.719,288.613,972.77,296.043,965.542,295.531z"/>
</g>
<g>
	<linearGradient id="SVGID_3_" gradientUnits="userSpaceOnUse" x1="1304.4863" y1="254.4277" x2="1413.9795" y2="254.4277">
		<stop  offset="0" style="stop-color:#979799"/>
		<stop  offset="0.1472" style="stop-color:#EEEBEB"/>
		<stop  offset="0.5092" style="stop-color:#828284"/>
		<stop  offset="0.51" style="stop-color:#7C7D87"/>
		<stop  offset="0.5116" style="stop-color:#6A6F8B"/>
		<stop  offset="0.5139" style="stop-color:#40558E"/>
		<stop  offset="0.5153" style="stop-color:#00458F"/>
		<stop  offset="0.9018" style="stop-color:#008ACF"/>
		<stop  offset="1" style="stop-color:#0066AB"/>
	</linearGradient>
	<path fill="url(#SVGID_3_)" stroke="#000000" stroke-width="1.8102" d="M1342.443,318.935c0,0-45.337-31.605-30.741-60.148
		c14.595-28.542-22.89-56.551,0.925-69.71c27.504-15.2,63.976-15.246,91.002,0c27.025,15.246-9.197,29.531,5.974,65.352
		c14.634,34.554-28.883,65.032-28.883,65.032l-19.861,11.736L1342.443,318.935z"/>
	<path fill="#CAA171" stroke="#FFFFFF" stroke-width="1.2688" d="M1355.549,234.165c0,0-15.314-21.493-31.033-7.493
		c-11.753,10.468-4.213,18.833-4.213,18.833c0.697,6.462-0.55-14.711,16.432-14.673c16.027,0.037,9.857,16.831,17.122,6.907
		L1355.549,234.165z"/>
	<g>
		<g>
			<path fill="#FFFFFF" d="M1316.859,223.818c1.322-5.563,4.056-11.68,8.874-15.005c8.772-6.054,21.823,8.111,27.075,13.995
				c1.291,1.446,3.404-0.683,2.121-2.121c-5.966-6.686-18.636-20.05-28.896-15.392c-6.708,3.045-10.438,10.873-12.067,17.725
				C1313.52,224.901,1316.412,225.699,1316.859,223.818L1316.859,223.818z"/>
		</g>
	</g>
	<line fill="none" stroke="#000000" x1="1360.836" y1="177.969" x2="1360.836" y2="330.886"/>
	<path fill="#CAA171" stroke="#FFFFFF" d="M1365.019,234.165c0,0,15.313-21.493,31.033-7.493
		c11.753,10.468,4.212,18.833,4.212,18.833c-0.697,6.462,0.551-14.711-16.432-14.673c-16.026,0.037-9.856,16.831-17.122,6.907
		L1365.019,234.165z"/>
	<g>
		<g>
			<path fill="#FFFFFF" d="M1406.601,223.02c-1.629-6.853-5.36-14.68-12.068-17.725c-10.26-4.658-22.929,8.707-28.895,15.392
				c-1.284,1.438,0.831,3.567,2.121,2.121c5.701-6.388,17.671-19.363,27.074-13.995c4.897,2.796,7.63,9.769,8.875,15.005
				C1404.155,225.699,1407.048,224.901,1406.601,223.02L1406.601,223.02z"/>
		</g>
	</g>
	<path fill="#CAA171" stroke="#FFFFFF" stroke-width="1.3559" d="M1394.408,262.069c-8.261,0.446-25.152,14.045-33.268,13.905
		c-1.666-0.029-1.201,37.295-1.97,36.976c0.653,1.538,1.381,2.456,2.155,2.456c5.117,0,39.753-35.949,41.662-41.632
		C1404.897,268.088,1402.67,261.623,1394.408,262.069"/>
	<path fill="#CAA171" stroke="#FFFFFF" stroke-width="1.3559" d="M1327.697,262.069c8.261,0.446,25.152,14.045,33.267,13.905
		c1.666-0.029,1.201,37.295,1.97,36.976c-0.652,1.538-1.38,2.456-2.154,2.456c-5.118,0-39.753-35.949-41.663-41.632
		C1317.207,268.088,1319.436,261.623,1327.697,262.069z"/>
	<path fill="#CAA171" d="M1384.788,276.123c-3.319,1.529-6.627,2.944-10.202,3.76c-3.505,0.799-2.018,6.172,1.48,5.374
		c4.036-0.92,7.79-2.595,11.534-4.321C1390.861,279.431,1388.027,274.629,1384.788,276.123z"/>
</g>
<g>
	<linearGradient id="SVGID_4_" gradientUnits="userSpaceOnUse" x1="342.8672" y1="872.9375" x2="337.3197" y2="865.3021">
		<stop  offset="0" style="stop-color:#000000"/>
		<stop  offset="1" style="stop-color:#FFFFFF"/>
	</linearGradient>
	<path fill-rule="evenodd" clip-rule="evenodd" fill="url(#SVGID_4_)" d="M340.57,871.979c4.758,0,8.644-0.99,8.644-2.202
		c0-1.214-3.885-2.2-8.644-2.2c-4.761,0-8.643,0.986-8.643,2.2C331.927,870.988,335.809,871.979,340.57,871.979z"/>
	<path fill-rule="evenodd" clip-rule="evenodd" d="M332.122,869.992c5.37,2.039,10.993,2.309,16.984,0c0,6.489,0,12.979,0,19.471
		c-5.659,2.291-11.323,2.291-16.984,0C332.122,882.971,332.122,876.481,332.122,869.992z"/>
	<linearGradient id="SVGID_5_" gradientUnits="userSpaceOnUse" x1="333.8286" y1="880.0947" x2="346.4636" y2="880.0947">
		<stop  offset="0" style="stop-color:#000000"/>
		<stop  offset="1" style="stop-color:#FFFFFF"/>
	</linearGradient>
	<path fill-rule="evenodd" clip-rule="evenodd" fill="url(#SVGID_5_)" d="M332.25,869.992c3.301,2.097,6.604,1.862,9.909,1.862
		c0,6.493,0,11.854,0,18.343c-3.305,0-6.608-0.734-9.909-0.734C332.25,882.971,332.25,876.481,332.25,869.992z"/>
	<g>
		<g>
			<g>
				<linearGradient id="SVGID_6_" gradientUnits="userSpaceOnUse" x1="299.1646" y1="911.3887" x2="298.0838" y2="890.7662">
					<stop  offset="0" style="stop-color:#000000"/>
					<stop  offset="1" style="stop-color:#FFFFFF"/>
				</linearGradient>
				<path fill-rule="evenodd" clip-rule="evenodd" fill="url(#SVGID_6_)" d="M299.063,903.506c1.932,0,3.881,2.81,4.352,6.271
					c0.355,2.625-0.24,4.875-1.39,5.809c-0.259,0.21-2.689,1.182-2.888,1.182c-1.934,0-3.883-2.811-4.353-6.272
					c-0.397-2.923,0.386-5.379,1.803-6.074C297.048,904.194,298.773,903.506,299.063,903.506z"/>
				<path fill-rule="evenodd" clip-rule="evenodd" d="M296.733,905.202c1.27,0,2.745,2.487,3.297,5.555
					c0.552,3.071-0.029,5.556-1.299,5.556c-1.268,0-2.745-2.484-3.295-5.556C294.884,907.689,295.466,905.202,296.733,905.202z"/>
			</g>
			<path fill-rule="evenodd" clip-rule="evenodd" fill="#939598" d="M298.577,908.866c0.263,0.585,0.479,1.285,0.613,2.048
				c0.35,1.998-0.019,3.621-0.824,3.621c-0.688,0-1.473-1.192-1.904-2.788c0.429,0.95,0.978,1.576,1.477,1.576
				c0.804,0,1.173-1.622,0.823-3.62C298.712,909.413,298.648,909.135,298.577,908.866z"/>
		</g>
		<g>
			<g>
				<linearGradient id="SVGID_7_" gradientUnits="userSpaceOnUse" x1="292.02" y1="913.8232" x2="290.5863" y2="893.3207">
					<stop  offset="0" style="stop-color:#000000"/>
					<stop  offset="1" style="stop-color:#FFFFFF"/>
				</linearGradient>
				<path fill-rule="evenodd" clip-rule="evenodd" fill="url(#SVGID_7_)" d="M291.889,905.842c1.931,0,3.881,2.811,4.351,6.271
					c0.357,2.626-0.238,4.872-1.389,5.811c-0.26,0.209-2.689,1.178-2.888,1.178c-1.932,0-3.883-2.807-4.351-6.271
					c-0.397-2.92,0.386-5.376,1.801-6.071C289.875,906.531,291.6,905.842,291.889,905.842z"/>
				<path fill-rule="evenodd" clip-rule="evenodd" d="M289.56,907.535c1.269,0,2.745,2.487,3.295,5.559
					c0.552,3.067-0.029,5.555-1.297,5.555c-1.269,0-2.745-2.487-3.297-5.555C287.71,910.022,288.292,907.535,289.56,907.535z"/>
			</g>
			<path fill-rule="evenodd" clip-rule="evenodd" fill="#939598" d="M291.403,911.203c0.261,0.58,0.479,1.285,0.611,2.044
				c0.351,2.001-0.019,3.622-0.822,3.622c-0.69,0-1.474-1.19-1.906-2.788c0.429,0.952,0.979,1.576,1.479,1.576
				c0.804,0,1.171-1.619,0.823-3.62C291.537,911.75,291.475,911.471,291.403,911.203z"/>
		</g>
		<g>
			<g>
				<linearGradient id="SVGID_8_" gradientUnits="userSpaceOnUse" x1="375.0337" y1="901.9541" x2="374.0939" y2="884.021">
					<stop  offset="0" style="stop-color:#000000"/>
					<stop  offset="1" style="stop-color:#FFFFFF"/>
				</linearGradient>
				<path fill-rule="evenodd" clip-rule="evenodd" fill="url(#SVGID_8_)" d="M374.943,895.098c1.682,0,3.376,2.444,3.788,5.456
					c0.307,2.281-0.209,4.236-1.212,5.052c-0.224,0.185-2.335,1.026-2.51,1.026c-1.682,0-3.379-2.443-3.785-5.457
					c-0.344-2.538,0.335-4.678,1.568-5.28C373.191,895.697,374.692,895.098,374.943,895.098z"/>
				<path fill-rule="evenodd" clip-rule="evenodd" d="M372.918,896.573c1.103,0,2.388,2.164,2.868,4.832
					c0.479,2.669-0.024,4.833-1.131,4.833c-1.101,0-2.385-2.164-2.865-4.833C371.31,898.737,371.814,896.573,372.918,896.573z"/>
			</g>
			<path fill-rule="evenodd" clip-rule="evenodd" fill="#939598" d="M374.52,899.762c0.23,0.507,0.418,1.118,0.535,1.78
				c0.305,1.739-0.019,3.147-0.716,3.147c-0.6,0-1.283-1.033-1.657-2.423c0.374,0.827,0.848,1.368,1.285,1.368
				c0.7,0,1.02-1.407,0.716-3.148C374.637,900.238,374.584,899.995,374.52,899.762z"/>
		</g>
		<g>
			<g>
				<linearGradient id="SVGID_9_" gradientUnits="userSpaceOnUse" x1="368.8184" y1="904.0713" x2="367.5714" y2="886.2394">
					<stop  offset="0" style="stop-color:#000000"/>
					<stop  offset="1" style="stop-color:#FFFFFF"/>
				</linearGradient>
				<path fill-rule="evenodd" clip-rule="evenodd" fill="url(#SVGID_9_)" d="M368.703,897.13c1.682,0,3.375,2.44,3.788,5.453
					c0.308,2.284-0.209,4.243-1.211,5.055c-0.225,0.185-2.34,1.026-2.512,1.026c-1.682,0-3.378-2.444-3.785-5.457
					c-0.347-2.542,0.336-4.676,1.568-5.283C366.952,897.727,368.451,897.13,368.703,897.13z"/>
				<path fill-rule="evenodd" clip-rule="evenodd" d="M366.678,898.605c1.104,0,2.389,2.161,2.868,4.832
					c0.479,2.669-0.025,4.833-1.132,4.833c-1.1,0-2.385-2.164-2.865-4.833C365.07,900.767,365.574,898.605,366.678,898.605z"/>
			</g>
			<path fill-rule="evenodd" clip-rule="evenodd" fill="#939598" d="M368.279,901.793c0.227,0.508,0.418,1.119,0.535,1.78
				c0.304,1.74-0.019,3.147-0.717,3.147c-0.599,0-1.282-1.033-1.657-2.422c0.372,0.827,0.852,1.367,1.285,1.367
				c0.701,0,1.021-1.411,0.717-3.15C368.396,902.27,368.344,902.024,368.279,901.793z"/>
		</g>
		<g>
			<g>
				<linearGradient id="SVGID_10_" gradientUnits="userSpaceOnUse" x1="412.2949" y1="927.5742" x2="411.1434" y2="905.6024">
					<stop  offset="0" style="stop-color:#000000"/>
					<stop  offset="1" style="stop-color:#FFFFFF"/>
				</linearGradient>
				<path fill-rule="evenodd" clip-rule="evenodd" fill="url(#SVGID_10_)" d="M412.188,919.177c2.057,0,4.135,2.991,4.636,6.684
					c0.378,2.795-0.255,5.191-1.482,6.188c-0.277,0.225-2.865,1.257-3.077,1.257c-2.059,0-4.137-2.994-4.639-6.682
					c-0.42-3.114,0.413-5.73,1.922-6.475C410.041,919.908,411.879,919.177,412.188,919.177z"/>
				<path fill-rule="evenodd" clip-rule="evenodd" d="M409.705,920.981c1.353,0,2.926,2.653,3.511,5.921
					c0.59,3.271-0.031,5.923-1.383,5.923c-1.352,0-2.923-2.651-3.511-5.923C407.731,923.635,408.353,920.981,409.705,920.981z"/>
			</g>
			<path fill-rule="evenodd" clip-rule="evenodd" fill="#939598" d="M411.667,924.889c0.283,0.621,0.514,1.371,0.655,2.179
				c0.371,2.131-0.02,3.859-0.876,3.859c-0.734,0-1.574-1.267-2.029-2.97c0.455,1.015,1.039,1.678,1.573,1.678
				c0.854,0,1.248-1.728,0.877-3.858C411.814,925.473,411.747,925.175,411.667,924.889z"/>
		</g>
		<g>
			<g>
				<linearGradient id="SVGID_11_" gradientUnits="userSpaceOnUse" x1="357.8457" y1="948.6367" x2="356.694" y2="926.6604">
					<stop  offset="0" style="stop-color:#000000"/>
					<stop  offset="1" style="stop-color:#FFFFFF"/>
				</linearGradient>
				<path fill-rule="evenodd" clip-rule="evenodd" fill="url(#SVGID_11_)" d="M357.735,940.237c2.06,0,4.138,2.991,4.639,6.684
					c0.378,2.797-0.255,5.191-1.479,6.188c-0.277,0.228-2.868,1.26-3.081,1.26c-2.06,0-4.137-2.993-4.636-6.682
					c-0.424-3.118,0.412-5.733,1.919-6.475C355.589,940.969,357.428,940.237,357.735,940.237z"/>
				<path fill-rule="evenodd" clip-rule="evenodd" d="M355.258,942.042c1.349,0,2.923,2.653,3.51,5.924
					c0.588,3.269-0.03,5.92-1.383,5.92c-1.352,0-2.926-2.651-3.513-5.92C353.284,944.695,353.905,942.042,355.258,942.042z"/>
			</g>
			<path fill-rule="evenodd" clip-rule="evenodd" fill="#939598" d="M357.219,945.949c0.28,0.621,0.51,1.375,0.651,2.182
				c0.375,2.131-0.018,3.859-0.876,3.859c-0.735,0-1.571-1.267-2.029-2.97c0.458,1.011,1.042,1.679,1.574,1.679
				c0.858,0,1.249-1.729,0.876-3.861C357.36,946.533,357.295,946.235,357.219,945.949z"/>
		</g>
		<g>
			<g>
				<linearGradient id="SVGID_12_" gradientUnits="userSpaceOnUse" x1="284.229" y1="935.5645" x2="283.1339" y2="914.6696">
					<stop  offset="0" style="stop-color:#000000"/>
					<stop  offset="1" style="stop-color:#FFFFFF"/>
				</linearGradient>
				<path fill-rule="evenodd" clip-rule="evenodd" fill="url(#SVGID_12_)" d="M284.125,927.572c1.96,0,3.935,2.847,4.41,6.354
					c0.361,2.659-0.241,4.939-1.407,5.887c-0.263,0.211-2.727,1.196-2.926,1.196c-1.959,0-3.935-2.847-4.411-6.354
					c-0.403-2.961,0.39-5.45,1.826-6.158C282.086,928.27,283.833,927.572,284.125,927.572z"/>
				<path fill-rule="evenodd" clip-rule="evenodd" d="M281.766,929.291c1.287,0,2.783,2.521,3.34,5.628
					c0.56,3.111-0.029,5.633-1.316,5.633c-1.285,0-2.78-2.521-3.339-5.633C279.893,931.812,280.48,929.291,281.766,929.291z"/>
			</g>
			<path fill-rule="evenodd" clip-rule="evenodd" fill="#939598" d="M283.633,933.005c0.266,0.59,0.486,1.303,0.621,2.071
				c0.354,2.028-0.018,3.67-0.834,3.67c-0.698,0-1.494-1.205-1.929-2.821c0.433,0.962,0.99,1.593,1.496,1.593
				c0.816,0,1.188-1.642,0.835-3.668C283.77,933.561,283.708,933.275,283.633,933.005z"/>
		</g>
		<path fill-rule="evenodd" clip-rule="evenodd" d="M335.709,902.341c2.985,1.749,5.97,1.749,8.955,0c0-4.295,0-8.586,0-12.878
			c-2.984,0-5.97,0-8.955,0C335.709,893.755,335.709,898.046,335.709,902.341z"/>
		<path fill-rule="evenodd" clip-rule="evenodd" d="M278.5,937.019c0,2.181,0.659,3.087,3.133,3.271
			c2.475,0.181,3.465-1.454,3.465-4.903c0-3.452,0.33-7.627,0.33-7.627c16.663-5.207,33.436-9.993,50.985-11.801
			c4.235,8.109,8.472,16.218,12.705,24.331c0,2.419,0,4.839,0,7.261c0,0,0.329,1.635,2.97,2.18c2.641,0.544,4.621-0.729,4.621-4.179
			c0-3.448-0.33-9.258-0.824-11.798c-0.499-2.545-4.787-17.977-4.787-17.977c17.095-0.975,34.598,1.195,52.139,3.63
			c0,0,0,6.72,0,8.716c0,1.998,5.281,2.542,7.095,1.091c1.817-1.454,0.99-10.713,0.661-13.437
			c-0.329-2.724-47.681-12.167-47.681-12.167s3.627-1.995,6.268-2.901c2.641-0.911,3.464-0.185,3.464-0.185s1.648-3.268,0.99-5.085
			c-1.58-4.35-23.479,0.565-27.267,2.407c-1.595,0.301-2.819,1.287-4.414,1.589c-11.903-1.365-24.9-1.679-36.959-2.179
			c-8.744-0.364-10.725,0.362-11.055,3.452c-0.33,3.085,0.165,9.803,0.99,12.163c0.003,0.538,0.005,1.079,0.008,1.62
			c-4.925,1.866-9.284,3.603-11.062,4.553c-2.519,1.341-3.957,3.034-4.768,4.43C277.386,927.12,278.5,932.945,278.5,937.019
			L278.5,937.019z M300.113,911.418c0.331-1.451,0.826-6.898,0.826-6.898c4.951,0.849,9.9,1.693,14.851,2.543
			c-5.23,1.885-10.461,3.766-15.69,5.649C300.104,912.282,300.109,911.849,300.113,911.418z"/>
		<linearGradient id="SVGID_13_" gradientUnits="userSpaceOnUse" x1="354.2129" y1="900.4375" x2="378.6037" y2="881.3813">
			<stop  offset="0" style="stop-color:#000000"/>
			<stop  offset="1" style="stop-color:#FFFFFF"/>
		</linearGradient>
		<path fill-rule="evenodd" clip-rule="evenodd" fill="url(#SVGID_13_)" d="M373.302,894.309c-4.181-2.736-23.046,1.57-26.536,3.264
			l-0.178,0.037l-0.572,1.018c0,0,1.242,0.544,5.952-0.408c4.706-0.957,16.354-3.824,19.95-3.687
			C372.54,894.554,372.989,894.468,373.302,894.309z"/>
		<linearGradient id="SVGID_14_" gradientUnits="userSpaceOnUse" x1="308.8413" y1="913.5068" x2="313.5084" y2="937.517">
			<stop  offset="0" style="stop-color:#000000"/>
			<stop  offset="1" style="stop-color:#FFFFFF"/>
		</linearGradient>
		<path fill-rule="evenodd" clip-rule="evenodd" fill="url(#SVGID_14_)" d="M284.438,926.804
			c16.64-5.201,33.699-10.185,51.218-11.998l0.596-8.718c0,0-32.938,10.892-38.112,12.397c-5.175,1.507-14.625,5.672-15.542,7.571
			C282.153,926.985,283.629,928.351,284.438,926.804z"/>
		<linearGradient id="SVGID_15_" gradientUnits="userSpaceOnUse" x1="336.4009" y1="897.0469" x2="343.6657" y2="897.0469">
			<stop  offset="0" style="stop-color:#000000"/>
			<stop  offset="1" style="stop-color:#FFFFFF"/>
		</linearGradient>
		<path fill-rule="evenodd" clip-rule="evenodd" fill="url(#SVGID_15_)" d="M335.709,891.941c1.831,0,3.665,0,5.496,0
			c0,2.963,0,7.242,0,10.212c-1.832,0-3.962-0.11-5.496-1.313C335.709,897.874,335.709,894.904,335.709,891.941z"/>
		<linearGradient id="SVGID_16_" gradientUnits="userSpaceOnUse" x1="305.1743" y1="906.9102" x2="308.9348" y2="914.6202">
			<stop  offset="0" style="stop-color:#000000"/>
			<stop  offset="1" style="stop-color:#A7A9AC"/>
		</linearGradient>
		<path fill-rule="evenodd" clip-rule="evenodd" fill="url(#SVGID_16_)" d="M280.96,922.377c-0.125,1.23,0.272,1.547,6.282-1.048
			c6.01-2.592,29.531-10.827,34.735-12.466c5.205-1.638,14.484-3.754,14.25-3.956l-2.478-2.186c0,0-15.862,4.64-27.634,8.327
			c-11.772,3.683-22.181,8.734-23.669,9.689C280.96,921.695,280.96,922.377,280.96,922.377z"/>
		<linearGradient id="SVGID_17_" gradientUnits="userSpaceOnUse" x1="341.6367" y1="923.5273" x2="358.6758" y2="917.991">
			<stop  offset="0" style="stop-color:#000000"/>
			<stop  offset="1" style="stop-color:#886A65"/>
		</linearGradient>
		<path fill-rule="evenodd" clip-rule="evenodd" fill="url(#SVGID_17_)" d="M338.658,905.205c0,0,10.31,27.08,12.293,31.229
			c1.983,4.15,4.362,2.186,4.362,0.219c0-1.965-10.015-32.324-10.015-32.324L338.658,905.205z"/>
		<linearGradient id="SVGID_18_" gradientUnits="userSpaceOnUse" x1="378.731" y1="903.8857" x2="377.2369" y2="932.3943">
			<stop  offset="0" style="stop-color:#000000"/>
			<stop  offset="1" style="stop-color:#886A65"/>
		</linearGradient>
		<path fill-rule="evenodd" clip-rule="evenodd" fill="url(#SVGID_18_)" d="M348.175,904.987c0.99,1.091,2.379,10.046,2.379,10.046
			s19.231-0.873,27.162-0.221c7.932,0.657,23.396,2.84,26.57,3.935c3.172,1.091,4.165,0,4.165,0s-15.269-6.554-31.924-9.173
			C359.871,906.951,348.175,904.987,348.175,904.987z"/>
		<linearGradient id="SVGID_19_" gradientUnits="userSpaceOnUse" x1="315.7808" y1="891.4346" x2="315.7808" y2="911.729">
			<stop  offset="0" style="stop-color:#000000"/>
			<stop  offset="1" style="stop-color:#FFFFFF"/>
		</linearGradient>
		<path fill-rule="evenodd" clip-rule="evenodd" fill="url(#SVGID_19_)" d="M296.945,897.945c0,0,1.611,0.205,5.949,1.022
			c4.337,0.818,30.483,1.568,30.483,1.568l1.239-1.365c0,0-14.622-0.683-22.925-1.091S296.945,897.945,296.945,897.945z"/>
		<linearGradient id="SVGID_20_" gradientUnits="userSpaceOnUse" x1="308.7373" y1="897.3262" x2="306.676" y2="920.8872">
			<stop  offset="0" style="stop-color:#000000"/>
			<stop  offset="1" style="stop-color:#FFFFFF"/>
		</linearGradient>
		<path fill-rule="evenodd" clip-rule="evenodd" fill="url(#SVGID_20_)" d="M296.264,899.238c0,0-1.053,1.773-0.248,2.865
			c0.806,1.092,4.213,0.342,8.861,1.501c4.646,1.161,16.171-1.365,16.171-1.774C321.048,901.422,296.264,899.238,296.264,899.238z"
			/>
		<g>
			<g>
				<linearGradient id="SVGID_21_" gradientUnits="userSpaceOnUse" x1="276.9595" y1="937.9258" x2="275.8644" y2="917.0313">
					<stop  offset="0" style="stop-color:#000000"/>
					<stop  offset="1" style="stop-color:#FFFFFF"/>
				</linearGradient>
				<path fill-rule="evenodd" clip-rule="evenodd" fill="url(#SVGID_21_)" d="M276.857,929.939c1.958,0,3.933,2.847,4.41,6.354
					c0.359,2.658-0.243,4.937-1.408,5.883c-0.264,0.216-2.727,1.199-2.928,1.199c-1.958,0-3.933-2.846-4.409-6.357
					c-0.402-2.96,0.392-5.446,1.825-6.154C274.815,930.637,276.563,929.939,276.857,929.939z"/>
				<path fill-rule="evenodd" clip-rule="evenodd" d="M274.496,931.658c1.286,0,2.782,2.52,3.341,5.628
					c0.558,3.11-0.03,5.629-1.315,5.629c-1.286,0-2.782-2.519-3.341-5.629C272.621,934.178,273.21,931.658,274.496,931.658z"/>
			</g>
			<path fill-rule="evenodd" clip-rule="evenodd" fill="#939598" d="M276.363,935.371c0.266,0.59,0.487,1.304,0.621,2.072
				c0.355,2.029-0.019,3.67-0.835,3.67c-0.697,0-1.492-1.204-1.93-2.824c0.435,0.962,0.991,1.596,1.497,1.596
				c0.816,0,1.19-1.643,0.835-3.668C276.5,935.925,276.437,935.642,276.363,935.371z"/>
		</g>
		<g>
			<g>
				<linearGradient id="SVGID_22_" gradientUnits="userSpaceOnUse" x1="350.2002" y1="951.124" x2="349.0485" y2="929.1477">
					<stop  offset="0" style="stop-color:#000000"/>
					<stop  offset="1" style="stop-color:#FFFFFF"/>
				</linearGradient>
				<path fill-rule="evenodd" clip-rule="evenodd" fill="url(#SVGID_22_)" d="M350.093,942.725c2.06,0,4.135,2.994,4.636,6.683
					c0.381,2.797-0.252,5.195-1.482,6.191c-0.277,0.224-2.865,1.257-3.077,1.257c-2.06,0-4.135-2.991-4.639-6.683
					c-0.421-3.114,0.413-5.729,1.925-6.471C347.944,943.459,349.786,942.725,350.093,942.725z"/>
				<path fill-rule="evenodd" clip-rule="evenodd" d="M347.609,944.532c1.352,0,2.926,2.65,3.513,5.921
					c0.587,3.27-0.033,5.92-1.386,5.92c-1.35,0-2.92-2.65-3.511-5.92C345.639,947.183,346.257,944.532,347.609,944.532z"/>
			</g>
			<path fill-rule="evenodd" clip-rule="evenodd" fill="#939598" d="M349.574,948.439c0.279,0.617,0.51,1.368,0.654,2.179
				c0.372,2.131-0.021,3.862-0.879,3.862c-0.735,0-1.57-1.271-2.029-2.973c0.455,1.014,1.039,1.678,1.574,1.678
				c0.854,0,1.248-1.728,0.876-3.858C349.718,949.021,349.65,948.726,349.574,948.439z"/>
		</g>
		<g>
			<g>
				<linearGradient id="SVGID_23_" gradientUnits="userSpaceOnUse" x1="404.6816" y1="930.165" x2="403.1538" y2="908.3158">
					<stop  offset="0" style="stop-color:#000000"/>
					<stop  offset="1" style="stop-color:#FFFFFF"/>
				</linearGradient>
				<path fill-rule="evenodd" clip-rule="evenodd" fill="url(#SVGID_23_)" d="M404.541,921.664c2.059,0,4.138,2.99,4.638,6.684
					c0.379,2.793-0.255,5.191-1.479,6.188c-0.276,0.228-2.871,1.26-3.08,1.26c-2.059,0-4.138-2.994-4.636-6.682
					c-0.424-3.118,0.41-5.733,1.918-6.475C402.395,922.398,404.233,921.664,404.541,921.664z"/>
				<path fill-rule="evenodd" clip-rule="evenodd" d="M402.061,923.469c1.353,0,2.923,2.653,3.513,5.924
					c0.587,3.267-0.031,5.92-1.383,5.92s-2.927-2.653-3.513-5.92C400.089,926.122,400.71,923.469,402.061,923.469z"/>
			</g>
			<path fill-rule="evenodd" clip-rule="evenodd" fill="#939598" d="M404.024,927.379c0.28,0.617,0.51,1.368,0.652,2.176
				c0.375,2.134-0.018,3.861-0.876,3.861c-0.735,0-1.571-1.266-2.032-2.969c0.458,1.015,1.045,1.678,1.574,1.678
				c0.857,0,1.251-1.728,0.878-3.86C404.166,927.96,404.102,927.662,404.024,927.379z"/>
		</g>
	</g>
	<linearGradient id="SVGID_24_" gradientUnits="userSpaceOnUse" x1="334.3984" y1="855.0918" x2="346.8816" y2="855.0918">
		<stop  offset="0" style="stop-color:#EAEAEC"/>
		<stop  offset="0.15" style="stop-color:#C2C3C6"/>
		<stop  offset="0.23" style="stop-color:#ECEDEF"/>
		<stop  offset="0.28" style="stop-color:#FFFFFF"/>
		<stop  offset="0.57" style="stop-color:#ECEDEF"/>
		<stop  offset="0.7" style="stop-color:#898C8F"/>
		<stop  offset="0.81" style="stop-color:#ECEDEF"/>
		<stop  offset="0.85" style="stop-color:#5A6569"/>
		<stop  offset="0.91" style="stop-color:#307DA7"/>
		<stop  offset="1" style="stop-color:#BDD2DC"/>
	</linearGradient>
	<path fill-rule="evenodd" clip-rule="evenodd" fill="url(#SVGID_24_)" d="M346.152,869.289v-29.436c-3.691,0-7.384,0-11.076,0
		v29.499c0.819,0.572,2.971,0.978,5.494,0.978C343.188,870.33,345.409,869.894,346.152,869.289z"/>
	<linearGradient id="SVGID_25_" gradientUnits="userSpaceOnUse" x1="340.7241" y1="749.8262" x2="338.6604" y2="789.205">
		<stop  offset="0" style="stop-color:#000000"/>
		<stop  offset="0.65" style="stop-color:#C4C6C8"/>
		<stop  offset="1" style="stop-color:#687074"/>
	</linearGradient>
	<rect x="330.194" y="740.175" fill-rule="evenodd" clip-rule="evenodd" fill="url(#SVGID_25_)" width="19.391" height="51.158"/>
	<g>
		<rect x="329.313" y="740.175" fill-rule="evenodd" clip-rule="evenodd" width="21.155" height="3.395"/>
		<rect x="329.313" y="745.434" fill-rule="evenodd" clip-rule="evenodd" width="21.155" height="3.397"/>
		<rect x="329.313" y="750.697" fill-rule="evenodd" clip-rule="evenodd" width="21.155" height="3.396"/>
		<rect x="329.313" y="755.957" fill-rule="evenodd" clip-rule="evenodd" width="21.155" height="3.396"/>
		<rect x="329.313" y="761.224" fill-rule="evenodd" clip-rule="evenodd" width="21.155" height="3.393"/>
		<rect x="329.313" y="766.482" fill-rule="evenodd" clip-rule="evenodd" width="21.155" height="3.396"/>
		<rect x="329.313" y="771.745" fill-rule="evenodd" clip-rule="evenodd" width="21.155" height="3.397"/>
		<rect x="329.313" y="777.008" fill-rule="evenodd" clip-rule="evenodd" width="21.155" height="3.396"/>
		<rect x="329.313" y="782.271" fill-rule="evenodd" clip-rule="evenodd" width="21.155" height="3.395"/>
		<rect x="329.313" y="787.534" fill-rule="evenodd" clip-rule="evenodd" width="21.155" height="3.394"/>
	</g>
	<g>
		<rect x="329.313" y="740.175" fill-rule="evenodd" clip-rule="evenodd" fill="#68747B" width="21.155" height="0.734"/>
		<rect x="329.313" y="745.434" fill-rule="evenodd" clip-rule="evenodd" fill="#68747B" width="21.155" height="0.738"/>
		<rect x="329.313" y="750.697" fill-rule="evenodd" clip-rule="evenodd" fill="#68747B" width="21.155" height="0.738"/>
		<rect x="329.313" y="755.96" fill-rule="evenodd" clip-rule="evenodd" fill="#68747B" width="21.155" height="0.734"/>
		<rect x="329.313" y="761.224" fill-rule="evenodd" clip-rule="evenodd" fill="#68747B" width="21.155" height="0.734"/>
		<rect x="329.313" y="766.482" fill-rule="evenodd" clip-rule="evenodd" fill="#68747B" width="21.155" height="0.738"/>
		<rect x="329.313" y="771.745" fill-rule="evenodd" clip-rule="evenodd" fill="#68747B" width="21.155" height="0.737"/>
		<rect x="329.313" y="777.008" fill-rule="evenodd" clip-rule="evenodd" fill="#68747B" width="21.155" height="0.738"/>
		<rect x="329.313" y="782.271" fill-rule="evenodd" clip-rule="evenodd" fill="#68747B" width="21.155" height="0.738"/>
	</g>
	<path fill-rule="evenodd" clip-rule="evenodd" fill="#8AB5D9" d="M300.451,788.558h79.878c15.371,0,21.19,19.034,24.396,30.737
		c0.707,2.573,1.174,4.648,1.063,6.354c0,4.264,1.1,12.085-1.356,14.654c-8.5,8.891-86.43,6.751-103.142,5.361
		c-30.784-2.555-26.566-4.112-26.566-19.459c-0.092-1.187,0.152-2.585,0.609-4.255C278.394,810.761,283.854,788.558,300.451,788.558
		z"/>
	<g>
		<path fill-rule="evenodd" clip-rule="evenodd" fill="#FFFFFF" d="M299.266,788.558h82.256c15.825,0,21.82,19.761,25.121,31.905
			c0.726,2.672,1.206,4.826,1.095,6.597c0,4.427,1.13,12.545-1.396,15.211c-8.751,9.23-89.001,7.009-106.211,5.567
			c-31.7-2.653-27.357-4.271-27.357-20.2c-0.095-1.232,0.157-2.684,0.627-4.417C276.552,811.604,282.175,788.558,299.266,788.558z"
			/>
		<path fill-rule="evenodd" clip-rule="evenodd" fill="#F4F7FB" d="M299.34,788.558h82.108c15.796,0,21.78,19.715,25.075,31.832
			c0.725,2.666,1.204,4.815,1.093,6.581c0,4.417,1.128,12.517-1.394,15.177c-8.735,9.209-88.841,6.992-106.019,5.555
			c-31.643-2.647-27.308-4.261-27.308-20.154c-0.095-1.229,0.157-2.677,0.626-4.406C276.667,811.551,282.28,788.558,299.34,788.558z
			"/>
		<path fill-rule="evenodd" clip-rule="evenodd" fill="#EDF1F8" d="M299.414,788.558h81.959c15.768,0,21.741,19.67,25.03,31.76
			c0.724,2.659,1.202,4.804,1.091,6.565c0,4.407,1.126,12.487-1.391,15.142c-8.72,9.188-88.681,6.977-105.828,5.542
			c-31.585-2.641-27.258-4.251-27.258-20.107c-0.094-1.228,0.156-2.672,0.625-4.396
			C276.782,811.498,282.384,788.558,299.414,788.558z"/>
		<path fill-rule="evenodd" clip-rule="evenodd" fill="#E6ECF5" d="M299.488,788.558h81.811c15.74,0,21.701,19.625,24.985,31.687
			c0.722,2.653,1.2,4.793,1.089,6.551c0,4.396,1.125,12.459-1.389,15.106c-8.704,9.167-88.52,6.961-105.635,5.528
			c-31.529-2.635-27.209-4.24-27.209-20.061c-0.095-1.225,0.156-2.665,0.624-4.387C276.897,811.445,282.49,788.558,299.488,788.558z
			"/>
		<path fill-rule="evenodd" clip-rule="evenodd" fill="#DEE7F3" d="M299.563,788.558h81.662c15.711,0,21.662,19.579,24.939,31.613
			c0.722,2.647,1.198,4.782,1.087,6.536c0,4.386,1.123,12.43-1.386,15.072c-8.688,9.145-88.359,6.943-105.444,5.516
			c-31.471-2.629-27.159-4.231-27.159-20.016c-0.095-1.221,0.155-2.658,0.623-4.376
			C277.013,811.393,282.595,788.558,299.563,788.558z"/>
		<path fill-rule="evenodd" clip-rule="evenodd" fill="#D7E3F0" d="M299.637,788.558h81.513c15.683,0,21.623,19.534,24.895,31.54
			c0.72,2.642,1.196,4.771,1.085,6.521c0,4.375,1.121,12.4-1.384,15.037c-8.672,9.123-88.198,6.928-105.252,5.502
			c-31.414-2.622-27.109-4.221-27.109-19.969c-0.094-1.217,0.155-2.652,0.621-4.365C277.128,811.34,282.699,788.558,299.637,788.558
			z"/>
		<path fill-rule="evenodd" clip-rule="evenodd" fill="#D0DEEE" d="M299.71,788.558h81.364c15.655,0,21.584,19.488,24.849,31.467
			c0.719,2.636,1.194,4.76,1.083,6.506c0,4.365,1.119,12.372-1.381,15.002c-8.657,9.104-88.038,6.913-105.06,5.49
			c-31.357-2.616-27.061-4.211-27.061-19.922c-0.094-1.216,0.155-2.647,0.621-4.356C277.243,811.287,282.805,788.558,299.71,788.558
			z"/>
		<path fill-rule="evenodd" clip-rule="evenodd" fill="#C9DAEC" d="M299.785,788.558H381c15.626,0,21.545,19.442,24.804,31.394
			c0.718,2.629,1.192,4.749,1.081,6.491c0,4.354,1.117,12.343-1.379,14.968c-8.641,9.081-87.876,6.896-104.868,5.477
			c-31.3-2.609-27.011-4.201-27.011-19.875c-0.094-1.213,0.155-2.642,0.62-4.347C277.358,811.234,282.909,788.558,299.785,788.558z"
			/>
		<path fill-rule="evenodd" clip-rule="evenodd" fill="#C2D5EA" d="M299.858,788.558h81.067c15.598,0,21.505,19.397,24.759,31.321
			c0.716,2.623,1.189,4.737,1.079,6.475c0,4.346,1.115,12.315-1.376,14.934c-8.625,9.061-87.716,6.879-104.676,5.464
			c-31.242-2.604-26.962-4.191-26.962-19.829c-0.093-1.21,0.155-2.635,0.618-4.336C277.473,811.182,283.014,788.558,299.858,788.558
			z"/>
		<path fill-rule="evenodd" clip-rule="evenodd" fill="#BBD1E7" d="M299.933,788.558h80.919c15.569,0,21.465,19.353,24.713,31.249
			c0.715,2.615,1.188,4.726,1.077,6.459c0,4.336,1.113,12.286-1.374,14.898c-8.61,9.039-87.555,6.863-104.484,5.451
			c-31.185-2.598-26.913-4.182-26.913-19.783c-0.093-1.207,0.154-2.629,0.617-4.326
			C277.588,811.129,283.119,788.558,299.933,788.558z"/>
		<path fill-rule="evenodd" clip-rule="evenodd" fill="#B4CDE5" d="M300.007,788.558h80.77c15.542,0,21.426,19.307,24.668,31.176
			c0.714,2.609,1.187,4.715,1.075,6.444c0,4.325,1.111,12.258-1.371,14.863c-8.594,9.018-87.395,6.848-104.293,5.438
			c-31.128-2.592-26.863-4.172-26.863-19.737c-0.093-1.203,0.154-2.621,0.616-4.315
			C277.703,811.077,283.224,788.558,300.007,788.558z"/>
		<path fill-rule="evenodd" clip-rule="evenodd" fill="#ADC9E3" d="M300.081,788.558h80.621c15.513,0,21.387,19.261,24.624,31.103
			c0.712,2.604,1.184,4.703,1.072,6.43c0,4.314,1.109,12.229-1.368,14.828c-8.579,8.996-87.233,6.832-104.101,5.426
			c-31.07-2.586-26.814-4.162-26.814-19.691c-0.093-1.2,0.154-2.615,0.615-4.305C277.818,811.023,283.329,788.558,300.081,788.558z"
			/>
		<path fill-rule="evenodd" clip-rule="evenodd" fill="#A6C4E1" d="M300.155,788.558h80.472c15.484,0,21.348,19.216,24.578,31.029
			c0.711,2.599,1.182,4.692,1.071,6.414c0,4.305,1.107,12.2-1.366,14.794c-8.563,8.976-87.073,6.814-103.909,5.412
			c-31.013-2.579-26.764-4.151-26.764-19.644c-0.093-1.198,0.153-2.61,0.613-4.296C277.933,810.971,283.434,788.558,300.155,788.558
			z"/>
		<path fill-rule="evenodd" clip-rule="evenodd" fill="#9FC0DF" d="M300.229,788.558h80.324c15.456,0,21.308,19.171,24.532,30.956
			c0.71,2.592,1.18,4.682,1.069,6.399c0,4.294,1.105,12.171-1.363,14.759c-8.547,8.954-86.913,6.799-103.718,5.399
			c-30.956-2.573-26.714-4.142-26.714-19.598c-0.092-1.195,0.153-2.604,0.612-4.285
			C278.048,810.919,283.539,788.558,300.229,788.558z"/>
		<path fill-rule="evenodd" clip-rule="evenodd" fill="#98BDDD" d="M300.303,788.558h80.175c15.428,0,21.268,19.125,24.487,30.883
			c0.709,2.586,1.178,4.671,1.067,6.385c0,4.283,1.104,12.142-1.361,14.724c-8.531,8.933-86.751,6.783-103.525,5.387
			c-30.898-2.566-26.665-4.132-26.665-19.551c-0.092-1.193,0.153-2.598,0.611-4.275
			C278.163,810.866,283.644,788.558,300.303,788.558z"/>
		<path fill-rule="evenodd" clip-rule="evenodd" fill="#91B9DB" d="M300.377,788.558h80.026c15.4,0,21.229,19.079,24.442,30.811
			c0.708,2.579,1.176,4.659,1.065,6.368c0,4.274,1.102,12.114-1.359,14.689c-8.516,8.912-86.591,6.767-103.333,5.374
			c-30.841-2.561-26.616-4.122-26.616-19.505c-0.092-1.189,0.152-2.591,0.61-4.266C278.278,810.813,283.749,788.558,300.377,788.558
			z"/>
		<path fill-rule="evenodd" clip-rule="evenodd" fill="#8AB5D9" d="M300.451,788.558h79.878c15.371,0,21.19,19.034,24.396,30.737
			c0.707,2.573,1.174,4.648,1.063,6.354c0,4.264,1.1,12.085-1.356,14.654c-8.5,8.891-86.43,6.751-103.142,5.361
			c-30.784-2.555-26.566-4.112-26.566-19.459c-0.092-1.187,0.152-2.585,0.609-4.255
			C278.394,810.761,283.854,788.558,300.451,788.558z"/>
	</g>
	<g>
		<path fill-rule="evenodd" clip-rule="evenodd" fill="#FFFFFF" d="M305.226,687.301h70.057c12.124,0,22.041,9.984,22.041,22.188
			v18.918c0,7.9-6.422,14.361-14.27,14.361h-85.6c-7.846,0-14.266-6.461-14.266-14.361v-18.918
			C283.187,697.285,293.104,687.301,305.226,687.301z"/>
		<path fill-rule="evenodd" clip-rule="evenodd" fill="#F4F7FB" d="M305.342,687.433h69.823c12.083,0,21.967,9.947,21.967,22.105
			v18.848c0,7.871-6.4,14.308-14.222,14.308h-85.315c-7.82,0-14.219-6.437-14.219-14.308v-18.848
			C283.376,697.38,293.261,687.433,305.342,687.433z"/>
		<path fill-rule="evenodd" clip-rule="evenodd" fill="#EDF1F8" d="M305.459,687.563h69.59c12.042,0,21.894,9.91,21.894,22.023
			v18.777c0,7.841-6.379,14.255-14.175,14.255h-85.031c-7.794,0-14.171-6.414-14.171-14.255v-18.777
			C283.566,697.474,293.418,687.563,305.459,687.563z"/>
		<path fill-rule="evenodd" clip-rule="evenodd" fill="#E6ECF5" d="M305.575,687.694h69.358c12.001,0,21.82,9.873,21.82,21.941
			v18.707c0,7.812-6.358,14.201-14.127,14.201H297.88c-7.768,0-14.124-6.39-14.124-14.201v-18.707
			C283.756,697.567,293.575,687.694,305.575,687.694z"/>
		<path fill-rule="evenodd" clip-rule="evenodd" fill="#DEE7F3" d="M305.691,687.826h69.125c11.961,0,21.747,9.836,21.747,21.858
			v18.637c0,7.781-6.337,14.147-14.079,14.147h-84.462c-7.742,0-14.076-6.366-14.076-14.147v-18.637
			C283.946,697.662,293.732,687.826,305.691,687.826z"/>
		<path fill-rule="evenodd" clip-rule="evenodd" fill="#D7E3F0" d="M305.809,687.958H374.7c11.92,0,21.674,9.799,21.674,21.775
			v18.565c0,7.753-6.315,14.096-14.032,14.096h-84.177c-7.716,0-14.029-6.343-14.029-14.096v-18.565
			C284.136,697.757,293.889,687.958,305.809,687.958z"/>
		<path fill-rule="evenodd" clip-rule="evenodd" fill="#D0DEEE" d="M305.924,688.089h68.66c11.88,0,21.6,9.762,21.6,21.693v18.495
			c0,7.724-6.293,14.042-13.984,14.042h-83.892c-7.69,0-13.982-6.318-13.982-14.042v-18.495
			C284.326,697.851,294.046,688.089,305.924,688.089z"/>
		<path fill-rule="evenodd" clip-rule="evenodd" fill="#C9DAEC" d="M306.041,688.22h68.427c11.839,0,21.526,9.725,21.526,21.611
			v18.425c0,7.693-6.272,13.988-13.937,13.988H298.45c-7.665,0-13.935-6.295-13.935-13.988v-18.425
			C284.516,697.944,294.203,688.22,306.041,688.22z"/>
		<path fill-rule="evenodd" clip-rule="evenodd" fill="#C2D5EA" d="M306.158,688.352h68.193c11.799,0,21.454,9.688,21.454,21.528
			v18.354c0,7.664-6.251,13.936-13.889,13.936h-83.323c-7.639,0-13.887-6.271-13.887-13.936V709.88
			C284.706,698.039,294.359,688.352,306.158,688.352z"/>
		<path fill-rule="evenodd" clip-rule="evenodd" fill="#BBD1E7" d="M306.274,688.483h67.96c11.758,0,21.38,9.65,21.38,21.445v18.284
			c0,7.635-6.229,13.882-13.841,13.882h-83.039c-7.612,0-13.839-6.247-13.839-13.882v-18.284
			C284.896,698.134,294.517,688.483,306.274,688.483z"/>
		<path fill-rule="evenodd" clip-rule="evenodd" fill="#B4CDE5" d="M306.391,688.614h67.728c11.718,0,21.306,9.613,21.306,21.363
			v18.214c0,7.604-6.208,13.828-13.793,13.828h-82.754c-7.586,0-13.792-6.224-13.792-13.828v-18.214
			C285.085,698.228,294.674,688.614,306.391,688.614z"/>
		<path fill-rule="evenodd" clip-rule="evenodd" fill="#ADC9E3" d="M306.507,688.745h67.495c11.677,0,21.232,9.576,21.232,21.281
			v18.144c0,7.575-6.187,13.775-13.745,13.775h-82.47c-7.56,0-13.745-6.2-13.745-13.775v-18.144
			C285.275,698.321,294.831,688.745,306.507,688.745z"/>
		<path fill-rule="evenodd" clip-rule="evenodd" fill="#A6C4E1" d="M306.624,688.877h67.262c11.637,0,21.16,9.539,21.16,21.198
			v18.073c0,7.546-6.166,13.722-13.698,13.722h-82.184c-7.535,0-13.697-6.176-13.697-13.722v-18.073
			C285.465,698.416,294.987,688.877,306.624,688.877z"/>
		<path fill-rule="evenodd" clip-rule="evenodd" fill="#9FC0DF" d="M306.74,689.009h67.028c11.597,0,21.086,9.502,21.086,21.115
			v18.003c0,7.516-6.145,13.668-13.65,13.668h-81.9c-7.509,0-13.65-6.152-13.65-13.668v-18.003
			C285.655,698.511,295.144,689.009,306.74,689.009z"/>
		<path fill-rule="evenodd" clip-rule="evenodd" fill="#98BDDD" d="M306.856,689.14h66.796c11.556,0,21.013,9.465,21.013,21.033
			v17.933c0,7.486-6.123,13.614-13.603,13.614h-81.615c-7.483,0-13.603-6.128-13.603-13.614v-17.933
			C285.845,698.604,295.301,689.14,306.856,689.14z"/>
		<path fill-rule="evenodd" clip-rule="evenodd" fill="#91B9DB" d="M306.973,689.271h66.563c11.515,0,20.939,9.428,20.939,20.951
			v17.862c0,7.456-6.102,13.562-13.555,13.562H299.59c-7.457,0-13.555-6.105-13.555-13.562v-17.862
			C286.035,698.698,295.458,689.271,306.973,689.271z"/>
		<path fill-rule="evenodd" clip-rule="evenodd" fill="#8AB5D9" d="M307.09,689.402h66.33c11.475,0,20.866,9.391,20.866,20.868
			v17.792c0,7.427-6.081,13.508-13.507,13.508h-81.046c-7.431,0-13.508-6.081-13.508-13.508v-17.792
			C286.225,698.793,295.615,689.402,307.09,689.402z"/>
	</g>
	<g>
		<path fill-rule="evenodd" clip-rule="evenodd" fill="#8AB5D9" d="M387.987,844.575c-25.992,2.802-77.004,3.487-102.374-0.863
			c-8.908,0.305-18.006-14.092,0.816-12.748c25.094,4.304,78.958,3.751,103.91-0.36C407.163,830.063,411.706,842.36,387.987,844.575
			z"/>
		<path fill-rule="evenodd" clip-rule="evenodd" fill="#86B2D6" d="M387.438,844.483c-25.732,2.68-76.186,3.329-101.302-0.831
			c-8.617,0.297-17.869-13.519,0.765-12.233c24.843,4.115,78.413,3.598,103.116-0.334
			C406.673,830.568,410.033,842.428,387.438,844.483z"/>
		<path fill-rule="evenodd" clip-rule="evenodd" fill="#82AFD4" d="M386.889,844.392c-25.472,2.557-75.367,3.171-100.23-0.798
			c-8.326,0.288-17.732-12.946,0.714-11.721c24.592,3.928,77.869,3.445,102.322-0.307
			C406.184,831.074,408.36,842.494,386.889,844.392z"/>
		<path fill-rule="evenodd" clip-rule="evenodd" fill="#7DACD1" d="M386.341,844.3c-25.212,2.435-74.549,3.014-99.158-0.766
			c-8.035,0.28-17.595-12.373,0.663-11.206c24.341,3.738,77.324,3.292,101.528-0.281C405.694,831.579,406.688,842.562,386.341,844.3
			z"/>
		<path fill-rule="evenodd" clip-rule="evenodd" fill="#79A8CE" d="M385.792,844.208c-24.953,2.312-73.73,2.855-98.086-0.733
			c-7.744,0.273-17.458-11.801,0.612-10.691c24.09,3.55,76.78,3.139,100.734-0.254C405.204,832.084,405.015,842.629,385.792,844.208
			z"/>
		<path fill-rule="evenodd" clip-rule="evenodd" fill="#75A6CC" d="M385.243,844.116c-24.693,2.189-72.912,2.697-97.014-0.701
			c-7.454,0.265-17.321-11.228,0.561-10.177c23.84,3.361,76.236,2.984,99.941-0.229
			C404.714,832.589,403.342,842.695,385.243,844.116z"/>
		<path fill-rule="evenodd" clip-rule="evenodd" fill="#71A3C9" d="M384.694,844.024c-24.434,2.066-72.094,2.54-95.942-0.669
			c-7.163,0.258-17.184-10.653,0.51-9.663c23.589,3.173,75.691,2.832,99.147-0.201C404.225,833.094,401.669,842.762,384.694,844.024
			z"/>
		<path fill-rule="evenodd" clip-rule="evenodd" fill="#6CA0C7" d="M384.146,843.933c-24.174,1.944-71.275,2.382-94.87-0.637
			c-6.872,0.25-17.047-10.081,0.459-9.149c23.338,2.985,75.146,2.68,98.353-0.174C403.735,833.6,399.996,842.829,384.146,843.933z"
			/>
		<path fill-rule="evenodd" clip-rule="evenodd" fill="#689DC4" d="M383.596,843.841c-23.914,1.821-70.457,2.224-93.798-0.604
			c-6.581,0.242-16.91-9.508,0.408-8.635c23.088,2.797,74.603,2.526,97.56-0.147C403.245,834.104,398.323,842.896,383.596,843.841z"
			/>
		<path fill-rule="evenodd" clip-rule="evenodd" fill="#649BC2" d="M383.047,843.749c-23.654,1.699-69.638,2.065-92.726-0.571
			c-6.29,0.233-16.772-8.936,0.357-8.121c22.837,2.607,74.058,2.373,96.766-0.121C402.755,834.609,396.65,842.963,383.047,843.749z"
			/>
		<path fill-rule="evenodd" clip-rule="evenodd" fill="#6098C0" d="M382.498,843.657c-23.394,1.577-68.819,1.907-91.654-0.539
			c-5.999,0.226-16.635-8.362,0.306-7.606c22.586,2.419,73.514,2.219,95.972-0.095C402.266,835.115,394.978,843.031,382.498,843.657
			z"/>
		<path fill-rule="evenodd" clip-rule="evenodd" fill="#5C96BE" d="M381.95,843.565c-23.135,1.454-68.001,1.75-90.582-0.507
			c-5.709,0.218-16.499-7.789,0.255-7.092c22.335,2.23,72.969,2.066,95.178-0.068C401.776,835.62,393.305,843.098,381.95,843.565z"
			/>
		<path fill-rule="evenodd" clip-rule="evenodd" fill="#5793BB" d="M381.401,843.474c-22.875,1.331-67.183,1.592-89.51-0.475
			c-5.417,0.21-16.362-7.216,0.204-6.578c22.084,2.042,72.425,1.913,94.384-0.042C401.286,836.125,391.632,843.164,381.401,843.474z
			"/>
		<path fill-rule="evenodd" clip-rule="evenodd" fill="#5391B9" d="M380.852,843.382c-22.615,1.209-66.364,1.434-88.438-0.441
			c-5.127,0.202-16.225-6.644,0.153-6.064c21.833,1.854,71.88,1.76,93.59-0.016C400.796,836.63,389.959,843.231,380.852,843.382z"/>
		<path fill-rule="evenodd" clip-rule="evenodd" fill="#4E8EB7" d="M380.303,843.29c-22.355,1.087-65.546,1.276-87.365-0.409
			c-4.836,0.194-16.088-6.07,0.102-5.551c21.583,1.666,71.336,1.607,92.796,0.012C400.307,837.136,388.286,843.299,380.303,843.29z"
			/>
		<path fill-rule="evenodd" clip-rule="evenodd" fill="#498CB5" d="M379.754,843.198c-22.096,0.965-64.728,1.118-86.293-0.377
			c-4.545,0.187-15.951-5.497,0.051-5.036c21.332,1.477,70.792,1.454,92.003,0.038C399.817,837.641,386.613,843.366,379.754,843.198
			z"/>
		<path fill-rule="evenodd" clip-rule="evenodd" fill="#4489B3" d="M379.205,843.106c-21.836,0.842-63.909,0.96-85.222-0.345
			c-4.254,0.179-15.814-4.924,0-4.521c21.081,1.288,70.248,1.301,91.209,0.064C399.327,838.146,384.94,843.433,379.205,843.106z"/>
	</g>
	<g>
		<path fill-rule="evenodd" clip-rule="evenodd" fill="#8AB5D9" d="M387.987,832.19c-25.992,1.328-77.004,1.653-102.374-0.412
			c-8.908,0.145-18.006-6.692,0.816-6.053c25.094,2.042,66.849-31.187,91.798-33.138c6.311-0.099,23.003,33.63,25.017,34.676
			C406.595,829.003,402.813,831.533,387.987,832.19z"/>
		<path fill-rule="evenodd" clip-rule="evenodd" fill="#8FB8DB" d="M387.505,832.086c-25.731,1.277-76.231,1.59-101.347-0.397
			c-8.818,0.14-17.826-6.439,0.808-5.824c24.842,1.965,66.813-29.193,91.512-31.07c6.165-0.095,22.011,31.536,24.026,32.532
			C405.972,828.998,402.299,831.45,387.505,832.086z"/>
		<path fill-rule="evenodd" clip-rule="evenodd" fill="#94BBDC" d="M387.022,831.98c-25.47,1.228-75.458,1.528-100.32-0.381
			c-8.729,0.134-17.645-6.188,0.799-5.597c24.59,1.889,66.778-27.2,91.228-29.004c6.019-0.09,21.019,29.443,23.036,30.391
			C405.35,828.993,401.784,831.368,387.022,831.98z"/>
		<path fill-rule="evenodd" clip-rule="evenodd" fill="#99BEDD" d="M386.54,831.875c-25.209,1.178-74.687,1.467-99.294-0.365
			c-8.639,0.129-17.464-5.935,0.792-5.368c24.338,1.812,66.743-25.206,90.942-26.937c5.872-0.086,20.027,27.35,22.045,28.248
			C404.728,828.989,401.27,831.285,386.54,831.875z"/>
		<path fill-rule="evenodd" clip-rule="evenodd" fill="#9DC0DF" d="M386.058,831.77c-24.949,1.128-73.915,1.404-98.267-0.35
			c-8.55,0.123-17.283-5.682,0.784-5.14c24.087,1.734,66.708-23.213,90.656-24.87c5.727-0.08,19.035,25.256,21.056,26.105
			C404.104,828.984,400.755,831.202,386.058,831.77z"/>
		<path fill-rule="evenodd" clip-rule="evenodd" fill="#A2C3E0" d="M385.575,831.665c-24.688,1.077-73.142,1.341-97.239-0.335
			c-8.461,0.118-17.103-5.43,0.775-4.91c23.835,1.656,66.673-21.221,90.372-22.804c5.58-0.077,18.042,23.163,20.065,23.962
			C403.482,828.979,400.24,831.119,385.575,831.665z"/>
		<path fill-rule="evenodd" clip-rule="evenodd" fill="#A7C6E2" d="M385.093,831.561c-24.428,1.027-72.37,1.278-96.213-0.32
			c-8.372,0.113-16.922-5.177,0.767-4.682c23.584,1.579,66.638-19.227,90.086-20.737c5.434-0.072,17.051,21.069,19.075,21.82
			C402.859,828.975,399.726,831.036,385.093,831.561z"/>
		<path fill-rule="evenodd" clip-rule="evenodd" fill="#ACC9E3" d="M384.61,831.455c-24.167,0.977-71.598,1.217-95.187-0.305
			c-8.282,0.107-16.741-4.924,0.759-4.453c23.332,1.502,66.603-17.233,89.801-18.67c5.288-0.068,16.059,18.976,18.085,19.678
			C402.237,828.971,399.212,830.953,384.61,831.455z"/>
		<path fill-rule="evenodd" clip-rule="evenodd" fill="#B1CDE5" d="M384.127,831.35c-23.906,0.928-70.825,1.154-94.159-0.289
			c-8.193,0.104-16.561-4.671,0.75-4.225c23.081,1.426,66.567-15.24,89.516-16.604c5.142-0.063,15.066,16.883,17.095,17.535
			C401.614,828.966,398.697,830.871,384.127,831.35z"/>
		<path fill-rule="evenodd" clip-rule="evenodd" fill="#B6D0E6" d="M383.645,831.244c-23.645,0.877-70.052,1.092-93.132-0.272
			c-8.104,0.097-16.38-4.419,0.742-3.997c22.829,1.35,66.532-13.246,89.23-14.536c4.995-0.059,14.074,14.789,16.104,15.392
			C400.992,828.961,398.183,830.788,383.645,831.244z"/>
		<path fill-rule="evenodd" clip-rule="evenodd" fill="#BBD3E8" d="M383.162,831.139c-23.383,0.828-69.279,1.03-92.105-0.257
			c-8.014,0.093-16.199-4.166,0.734-3.769c22.577,1.272,66.497-11.254,88.945-12.469c4.849-0.055,13.082,12.695,15.114,13.249
			C400.37,828.957,397.668,830.705,383.162,831.139z"/>
		<path fill-rule="evenodd" clip-rule="evenodd" fill="#C0D6E9" d="M382.68,831.034c-23.124,0.777-68.508,0.968-91.079-0.242
			c-7.925,0.087-16.019-3.913,0.727-3.54c22.325,1.195,66.461-9.26,88.659-10.402c4.703-0.051,12.09,10.603,14.124,11.107
			C399.747,828.952,397.153,830.622,382.68,831.034z"/>
		<path fill-rule="evenodd" clip-rule="evenodd" fill="#C5DAEB" d="M382.198,830.93c-22.863,0.727-67.735,0.904-90.052-0.228
			c-7.835,0.082-15.837-3.661,0.718-3.312c22.074,1.118,66.427-7.267,88.375-8.336c4.556-0.045,11.098,8.51,13.133,8.965
			C399.125,828.947,396.639,830.539,382.198,830.93z"/>
		<path fill-rule="evenodd" clip-rule="evenodd" fill="#CADDEC" d="M381.715,830.824c-22.602,0.676-66.962,0.842-89.024-0.211
			c-7.747,0.076-15.657-3.408,0.709-3.084c21.822,1.041,66.392-5.273,88.089-6.269c4.41-0.041,10.105,6.415,12.144,6.822
			C398.502,828.942,396.124,830.456,381.715,830.824z"/>
		<path fill-rule="evenodd" clip-rule="evenodd" fill="#CFE0EE" d="M381.232,830.719c-22.341,0.627-66.19,0.78-87.998-0.195
			c-7.657,0.07-15.476-3.156,0.702-2.855c21.57,0.964,66.356-3.279,87.804-4.201c4.264-0.037,9.113,4.321,11.153,4.679
			C397.879,828.938,395.61,830.374,381.232,830.719z"/>
		<path fill-rule="evenodd" clip-rule="evenodd" fill="#D4E4EF" d="M380.75,830.614c-22.08,0.576-65.418,0.718-86.971-0.181
			c-7.567,0.065-15.295-2.903,0.694-2.627c21.318,0.888,66.321-1.287,87.519-2.134c4.117-0.033,8.121,2.228,10.163,2.535
			C397.257,828.934,395.095,830.291,380.75,830.614z"/>
		<path fill-rule="evenodd" clip-rule="evenodd" fill="#D9E7F1" d="M380.268,830.509c-21.819,0.526-64.646,0.655-85.944-0.165
			c-7.478,0.061-15.115-2.65,0.686-2.398c21.067,0.811,66.286,0.707,87.233-0.067c3.971-0.028,7.128,0.135,9.172,0.394
			C396.634,828.929,394.581,830.208,380.268,830.509z"/>
	</g>
	<g>
		<path fill-rule="evenodd" clip-rule="evenodd" fill="#8AB5D9" d="M278.291,822.774c0.194,0.806-1.159,7.396,17.381-1.607
			c18.54-9.007,41.905-23.157,54.071-26.213c12.168-3.055,30.707-3.538,29.742-4.985c-0.965-1.445-61.99-0.16-75.123-0.965
			c-13.132-0.806-17.96,5.145-21.051,14.795C280.221,813.448,278.291,822.774,278.291,822.774z"/>
		<path fill-rule="evenodd" clip-rule="evenodd" fill="#87B3D7" d="M278.86,821.7c0.188,0.779-1.122,7.157,16.821-1.556
			c17.942-8.717,40.554-22.411,52.328-25.368c11.776-2.956,29.717-3.424,28.783-4.824c-0.935-1.399-59.904-0.214-72.608-0.914
			c-12.703-0.702-17.475,4.959-20.465,14.298C280.728,812.675,278.86,821.7,278.86,821.7z"/>
		<path fill-rule="evenodd" clip-rule="evenodd" fill="#84B0D5" d="M279.429,820.625c0.181,0.754-1.084,6.92,16.26-1.504
			c17.344-8.426,39.204-21.664,50.585-24.522c11.383-2.857,28.728-3.31,27.824-4.664c-0.903-1.352-57.818-0.267-70.092-0.863
			c-12.274-0.599-16.989,4.773-19.88,13.802C281.235,811.9,279.429,820.625,279.429,820.625z"/>
		<path fill-rule="evenodd" clip-rule="evenodd" fill="#81AED3" d="M279.999,819.551c0.175,0.728-1.047,6.681,15.7-1.452
			c16.747-8.136,37.853-20.918,48.842-23.678c10.991-2.759,27.737-3.196,26.866-4.503c-0.872-1.306-55.732-0.32-67.577-0.813
			s-16.504,4.589-19.296,13.306C281.743,811.127,279.999,819.551,279.999,819.551z"/>
		<path fill-rule="evenodd" clip-rule="evenodd" fill="#7EACD1" d="M280.568,818.477c0.168,0.701-1.01,6.442,15.14-1.4
			c16.148-7.845,36.502-20.172,47.099-22.832c10.599-2.661,26.748-3.082,25.907-4.344c-0.842-1.259-53.646-0.373-65.063-0.762
			c-11.416-0.391-16.019,4.402-18.71,12.809C282.25,810.353,280.568,818.477,280.568,818.477z"/>
		<path fill-rule="evenodd" clip-rule="evenodd" fill="#7BAACF" d="M281.138,817.401c0.162,0.677-0.973,6.205,14.579-1.348
			c15.551-7.555,35.151-19.425,45.356-21.988c10.207-2.562,25.758-2.968,24.948-4.182c-0.81-1.212-51.56-0.427-62.547-0.712
			c-10.986-0.286-15.533,4.218-18.125,12.313C282.757,809.579,281.138,817.401,281.138,817.401z"/>
		<path fill-rule="evenodd" clip-rule="evenodd" fill="#78A8CD" d="M281.707,816.326c0.156,0.65-0.935,5.967,14.019-1.295
			c14.954-7.265,33.8-18.68,43.613-21.144c9.814-2.464,24.769-2.854,23.989-4.021c-0.779-1.166-49.475-0.48-60.032-0.662
			s-15.047,4.033-17.541,11.816C283.264,808.805,281.707,816.326,281.707,816.326z"/>
		<path fill-rule="evenodd" clip-rule="evenodd" fill="#75A6CB" d="M282.276,815.252c0.149,0.624-0.897,5.729,13.459-1.244
			c14.355-6.974,32.449-17.933,41.87-20.297c9.422-2.365,23.778-2.74,23.031-3.861c-0.748-1.119-47.389-0.533-57.517-0.611
			c-10.128-0.078-14.563,3.848-16.956,11.32C283.771,808.031,282.276,815.252,282.276,815.252z"/>
		<path fill-rule="evenodd" clip-rule="evenodd" fill="#72A4CA" d="M282.846,814.178c0.144,0.598-0.86,5.489,12.898-1.192
			c13.758-6.683,31.099-17.187,40.127-19.452c9.03-2.268,22.789-2.626,22.072-3.7c-0.717-1.073-45.303-0.587-55.002-0.561
			c-9.699,0.026-14.077,3.662-16.37,10.823C284.278,807.258,282.846,814.178,282.846,814.178z"/>
		<path fill-rule="evenodd" clip-rule="evenodd" fill="#70A2C8" d="M283.415,813.104c0.138,0.572-0.823,5.25,12.338-1.141
			c13.16-6.393,29.748-16.439,38.384-18.607c8.637-2.168,21.798-2.512,21.113-3.539c-0.686-1.026-43.217-0.641-52.487-0.511
			c-9.27,0.13-13.591,3.478-15.785,10.327C284.785,806.483,283.415,813.104,283.415,813.104z"/>
		<path fill-rule="evenodd" clip-rule="evenodd" fill="#6DA0C6" d="M283.984,812.029c0.131,0.546-0.786,5.012,11.778-1.09
			c12.562-6.102,28.397-15.692,36.641-17.762c8.246-2.07,20.809-2.397,20.155-3.379c-0.655-0.979-41.131-0.693-49.972-0.459
			c-8.841,0.233-13.106,3.291-15.2,9.83C285.292,805.709,283.984,812.029,283.984,812.029z"/>
		<path fill-rule="evenodd" clip-rule="evenodd" fill="#6A9EC4" d="M284.554,810.954c0.125,0.521-0.749,4.774,11.217-1.036
			c11.965-5.813,27.046-14.947,34.898-16.918c7.853-1.972,19.818-2.283,19.195-3.218c-0.624-0.933-39.045-0.747-47.457-0.409
			c-8.412,0.338-12.62,3.106-14.615,9.334C285.8,804.936,284.554,810.954,284.554,810.954z"/>
		<path fill-rule="evenodd" clip-rule="evenodd" fill="#679CC3" d="M285.123,809.879c0.119,0.494-0.71,4.536,10.658-0.984
			c11.367-5.521,25.695-14.201,33.155-16.072c7.461-1.873,18.829-2.17,18.237-3.057c-0.593-0.887-36.959-0.801-44.941-0.359
			c-7.983,0.442-12.135,2.922-14.03,8.838C286.307,804.162,285.123,809.879,285.123,809.879z"/>
		<path fill-rule="evenodd" clip-rule="evenodd" fill="#649AC1" d="M285.693,808.805c0.112,0.469-0.673,4.297,10.097-0.934
			c10.769-5.23,24.345-13.453,31.412-15.227c7.068-1.774,17.839-2.056,17.278-2.896c-0.562-0.84-34.874-0.854-42.426-0.308
			c-7.554,0.546-11.65,2.735-13.445,8.341C286.813,803.388,285.693,808.805,285.693,808.805z"/>
		<path fill-rule="evenodd" clip-rule="evenodd" fill="#6198BF" d="M286.262,807.73c0.106,0.442-0.637,4.059,9.537-0.882
			c10.171-4.94,22.993-12.707,29.669-14.382c6.676-1.676,16.849-1.941,16.319-2.735c-0.531-0.794-32.788-0.907-39.911-0.257
			c-7.125,0.648-11.165,2.55-12.86,7.844C287.321,802.614,286.262,807.73,286.262,807.73z"/>
		<path fill-rule="evenodd" clip-rule="evenodd" fill="#5E96BE" d="M286.832,806.656c0.099,0.416-0.599,3.819,8.977-0.83
			c9.574-4.649,21.643-11.961,27.926-13.537c6.284-1.577,15.859-1.827,15.36-2.574c-0.5-0.748-30.702-0.961-37.396-0.207
			c-6.696,0.753-10.679,2.365-12.275,7.348C287.828,801.841,286.832,806.656,286.832,806.656z"/>
		<path fill-rule="evenodd" clip-rule="evenodd" fill="#5B95BC" d="M287.401,805.581c0.093,0.391-0.562,3.582,8.417-0.777
			c8.976-4.359,20.292-11.215,26.183-12.692c5.892-1.479,14.87-1.713,14.402-2.414c-0.469-0.7-28.616-1.014-34.881-0.156
			c-6.267,0.857-10.193,2.18-11.689,6.852C288.335,801.066,287.401,805.581,287.401,805.581z"/>
	</g>
	<g>
		<path fill-rule="evenodd" clip-rule="evenodd" fill="#8AB5D9" d="M306.634,689.842c22.415,0,44.83,0,67.244,0
			c8.866,0,16.501,6.098,19.634,14.676c-1.63,11.464-8.253,18.427-13.006,18.427c-26.581-20.157-53.161-22.141-79.742,0
			c-5.159,0-13.763-10.66-13.966-17.854C289.796,696.209,297.573,689.842,306.634,689.842z"/>
		<path fill-rule="evenodd" clip-rule="evenodd" fill="#8FB8DB" d="M306.914,689.942c21.013,0,45.668,0,66.681,0
			c8.792,0,16.364,5.942,19.47,14.303c-1.733,10.667-8.184,17.148-12.898,17.148c-24.92-18.897-54.156-20.757-79.075,0
			c-5.116,0-13.442-9.939-13.85-16.592C290.217,696.147,297.928,689.942,306.914,689.942z"/>
		<path fill-rule="evenodd" clip-rule="evenodd" fill="#94BBDC" d="M307.194,690.043c19.613,0,46.508,0,66.12,0
			c8.717,0,16.225,5.788,19.306,13.929c-1.837,9.871-8.116,15.871-12.789,15.871c-23.258-17.638-55.151-19.373-78.409,0
			c-5.073,0-13.122-9.219-13.733-15.328C290.638,696.086,298.285,690.043,307.194,690.043z"/>
		<path fill-rule="evenodd" clip-rule="evenodd" fill="#99BEDD" d="M307.474,690.145c18.212,0,47.347,0,65.558,0
			c8.644,0,16.087,5.631,19.143,13.554c-1.942,9.075-8.047,14.593-12.681,14.593c-21.597-16.377-56.146-17.988-77.742,0
			c-5.03,0-12.802-8.497-13.617-14.063C291.059,696.025,298.64,690.145,307.474,690.145z"/>
		<path fill-rule="evenodd" clip-rule="evenodd" fill="#9DC0DF" d="M307.754,690.245c16.811,0,48.186,0,64.996,0
			c8.57,0,15.949,5.477,18.979,13.181c-2.046,8.278-7.979,13.314-12.572,13.314c-19.936-15.117-57.142-16.605-77.076,0
			c-4.987,0-12.481-7.777-13.5-12.801C291.479,695.964,298.996,690.245,307.754,690.245z"/>
		<path fill-rule="evenodd" clip-rule="evenodd" fill="#A2C3E0" d="M308.035,690.346c15.41,0,49.024,0,64.434,0
			c8.496,0,15.812,5.321,18.814,12.807c-2.149,7.482-7.909,12.037-12.463,12.037c-18.274-13.857-58.136-15.221-76.41,0
			c-4.944,0-12.161-7.057-13.383-11.538C291.9,695.902,299.352,690.346,308.035,690.346z"/>
		<path fill-rule="evenodd" clip-rule="evenodd" fill="#A7C6E2" d="M308.314,690.447c14.009,0,49.863,0,63.872,0
			c8.421,0,15.674,5.165,18.65,12.433c-2.253,6.685-7.84,10.759-12.355,10.759c-16.613-12.598-59.13-13.838-75.743,0
			c-4.901,0-11.84-6.336-13.267-10.274C292.321,695.842,299.708,690.447,308.314,690.447z"/>
		<path fill-rule="evenodd" clip-rule="evenodd" fill="#ACC9E3" d="M308.595,690.548c12.608,0,50.702,0,63.31,0
			c8.348,0,15.536,5.01,18.486,12.06c-2.356,5.888-7.771,9.48-12.246,9.48c-14.952-11.338-60.126-12.454-75.077,0
			c-4.858,0-11.52-5.615-13.15-9.011C292.742,695.78,300.063,690.548,308.595,690.548z"/>
		<path fill-rule="evenodd" clip-rule="evenodd" fill="#B1CDE5" d="M308.875,690.648c11.207,0,51.541,0,62.748,0
			c8.274,0,15.398,4.855,18.323,11.686c-2.461,5.092-7.702,8.203-12.138,8.203c-13.291-10.078-61.121-11.07-74.411,0
			c-4.814,0-11.199-4.895-13.033-7.748C293.163,695.719,300.419,690.648,308.875,690.648z"/>
		<path fill-rule="evenodd" clip-rule="evenodd" fill="#B6D0E6" d="M309.155,690.749c9.806,0,52.379,0,62.186,0
			c8.199,0,15.26,4.7,18.158,11.312c-2.564,4.296-7.633,6.926-12.029,6.926c-11.629-8.818-62.115-9.687-73.744,0
			c-4.771,0-10.879-4.174-12.917-6.485C293.583,695.658,300.775,690.749,309.155,690.749z"/>
		<path fill-rule="evenodd" clip-rule="evenodd" fill="#BBD3E8" d="M309.435,690.85c8.406,0,53.218,0,61.624,0
			c8.126,0,15.122,4.545,17.995,10.938c-2.668,3.499-7.564,5.647-11.921,5.647c-9.968-7.56-63.111-8.303-73.078,0
			c-4.729,0-10.558-3.453-12.8-5.222C294.004,695.597,301.131,690.85,309.435,690.85z"/>
		<path fill-rule="evenodd" clip-rule="evenodd" fill="#C0D6E9" d="M309.715,690.951c7.005,0,54.058,0,61.063,0
			c8.052,0,14.983,4.389,17.831,10.564c-2.772,2.701-7.495,4.369-11.813,4.369c-8.307-6.299-64.105-6.919-72.412,0
			c-4.686,0-10.237-2.732-12.683-3.958C294.425,695.535,301.487,690.951,309.715,690.951z"/>
		<path fill-rule="evenodd" clip-rule="evenodd" fill="#C5DAEB" d="M309.995,691.052c5.604,0,54.896,0,60.5,0
			c7.978,0,14.847,4.233,17.667,10.19c-2.876,1.905-7.426,3.092-11.704,3.092c-6.646-5.039-65.1-5.535-71.745,0
			c-4.642,0-9.917-2.012-12.566-2.695C294.846,695.475,301.843,691.052,309.995,691.052z"/>
		<path fill-rule="evenodd" clip-rule="evenodd" fill="#CADDEC" d="M310.275,691.152c4.203,0,55.735,0,59.938,0
			c7.904,0,14.708,4.078,17.503,9.816c-2.98,1.109-7.358,1.813-11.596,1.813c-4.984-3.779-66.095-4.151-71.079,0
			c-4.599,0-9.597-1.29-12.45-1.432C295.267,695.413,302.199,691.152,310.275,691.152z"/>
		<path fill-rule="evenodd" clip-rule="evenodd" fill="#CFE0EE" d="M310.556,691.254c2.802,0,56.574,0,59.375,0
			c7.83,0,14.571,3.923,17.34,9.442c-3.084,0.313-7.289,0.535-11.487,0.535c-3.323-2.52-67.09-2.768-70.413,0
			c-4.556,0-9.276-0.57-12.333-0.168C295.688,695.352,302.554,691.254,310.556,691.254z"/>
		<path fill-rule="evenodd" clip-rule="evenodd" fill="#D4E4EF" d="M310.836,691.354c1.401,0,57.413,0,58.814,0
			c7.755,0,14.432,3.768,17.175,9.069c-3.188-0.484-7.22-0.743-11.378-0.743c-1.661-1.26-68.085-1.384-69.747,0
			c-4.513,0-8.956,0.15-12.216,1.096C296.108,695.291,302.911,691.354,310.836,691.354z"/>
		<path fill-rule="evenodd" clip-rule="evenodd" fill="#D9E7F1" d="M311.116,691.455h58.252c7.682,0,14.294,3.612,17.012,8.695
			c-3.292-1.28-7.151-2.021-11.27-2.021h-69.08c-4.47,0-8.635,0.871-12.1,2.358C296.529,695.229,303.266,691.455,311.116,691.455z"
			/>
	</g>
	<g>
		<path fill-rule="evenodd" clip-rule="evenodd" fill="#8AB5D9" d="M306.634,742.094c22.415,0,44.83,0,67.244,0
			c18.746,0,16.501-3.526,19.634-8.492c-1.63-6.627-8.816-4.417-13.566-4.312c-27.768-15.146-55.425-36.104-84.215,1.865
			c-5.156,0.114-8.73-2.044-8.933,2.118C287.745,742.701,297.573,742.094,306.634,742.094z"/>
		<path fill-rule="evenodd" clip-rule="evenodd" fill="#86B2D6" d="M306.726,742.047c21.013,0,46.047,0,67.06,0
			c18.104,0,16.457-3.234,19.58-8.168c-1.755-6.143-8.758-4.03-13.496-3.932c-26.032-14.199-56.727-33.847-83.717,1.749
			c-5.142,0.107-8.78-1.964-9.209,1.857C288.011,742.679,297.689,742.047,306.726,742.047z"/>
		<path fill-rule="evenodd" clip-rule="evenodd" fill="#82AFD4" d="M306.817,742c19.613,0,47.264,0,66.876,0
			c17.462,0,16.411-2.942,19.526-7.843c-1.88-5.659-8.701-3.645-13.426-3.552c-24.296-13.254-58.028-31.592-83.22,1.631
			c-5.128,0.101-8.83-1.883-9.486,1.597C288.276,742.656,297.806,742,306.817,742z"/>
		<path fill-rule="evenodd" clip-rule="evenodd" fill="#7DACD1" d="M306.908,741.953c18.212,0,48.482,0,66.693,0
			c16.82,0,16.365-2.651,19.473-7.518c-2.006-5.176-8.644-3.259-13.355-3.173c-22.561-12.307-59.33-29.335-82.722,1.515
			c-5.114,0.093-8.881-1.803-9.763,1.336C288.542,742.635,297.922,741.953,306.908,741.953z"/>
		<path fill-rule="evenodd" clip-rule="evenodd" fill="#79A8CE" d="M307,741.906c16.811,0,49.699,0,66.509,0
			c16.178,0,16.32-2.359,19.419-7.193c-2.131-4.691-8.586-2.872-13.285-2.793c-20.826-11.36-60.632-27.078-82.225,1.398
			c-5.101,0.086-8.931-1.723-10.039,1.074C288.808,742.612,298.038,741.906,307,741.906z"/>
		<path fill-rule="evenodd" clip-rule="evenodd" fill="#75A6CC" d="M307.092,741.859c15.41,0,50.916,0,66.325,0
			c15.536,0,16.275-2.067,19.366-6.869c-2.256-4.207-8.528-2.485-13.215-2.413c-19.09-10.413-61.935-24.821-81.728,1.282
			c-5.086,0.079-8.98-1.643-10.315,0.813C289.073,742.59,298.154,741.859,307.092,741.859z"/>
		<path fill-rule="evenodd" clip-rule="evenodd" fill="#71A3C9" d="M307.184,741.813c14.009,0,52.133,0,66.142,0
			c14.895,0,16.229-1.776,19.312-6.545c-2.381-3.724-8.47-2.101-13.144-2.034c-17.354-9.467-63.236-22.564-81.23,1.166
			c-5.072,0.071-9.03-1.563-10.591,0.553C289.339,742.568,298.271,741.813,307.184,741.813z"/>
		<path fill-rule="evenodd" clip-rule="evenodd" fill="#6CA0C7" d="M307.275,741.767c12.608,0,53.351,0,65.958,0
			c14.252,0,16.184-1.485,19.258-6.22c-2.506-3.24-8.412-1.714-13.073-1.655c-15.619-8.52-64.538-20.308-80.732,1.05
			c-5.058,0.063-9.081-1.482-10.868,0.291C289.605,742.546,298.387,741.767,307.275,741.767z"/>
		<path fill-rule="evenodd" clip-rule="evenodd" fill="#689DC4" d="M307.367,741.72c11.207,0,54.567,0,65.774,0
			c13.611,0,16.139-1.193,19.205-5.896c-2.631-2.756-8.355-1.328-13.003-1.275c-13.884-7.572-65.839-18.051-80.235,0.934
			c-5.044,0.057-9.13-1.402-11.144,0.03C289.871,742.523,298.503,741.72,307.367,741.72z"/>
		<path fill-rule="evenodd" clip-rule="evenodd" fill="#649BC2" d="M307.459,741.673c9.806,0,55.784,0,65.59,0
			c12.969,0,16.093-0.901,19.151-5.571c-2.757-2.271-8.297-0.94-12.933-0.895c-12.148-6.627-67.141-15.795-79.737,0.816
			c-5.031,0.05-9.181-1.322-11.421-0.23C290.136,742.501,298.62,741.673,307.459,741.673z"/>
		<path fill-rule="evenodd" clip-rule="evenodd" fill="#6098C0" d="M307.55,741.626c8.406,0,57.001,0,65.407,0
			c12.327,0,16.048-0.61,19.098-5.246c-2.882-1.787-8.24-0.556-12.863-0.516c-10.413-5.681-68.444-13.539-79.24,0.699
			c-5.017,0.043-9.231-1.24-11.697-0.491C290.402,742.479,298.736,741.626,307.55,741.626z"/>
		<path fill-rule="evenodd" clip-rule="evenodd" fill="#5C96BE" d="M307.642,741.58c7.005,0,58.219,0,65.224,0
			c11.685,0,16.003-0.319,19.044-4.922c-3.007-1.304-8.183-0.17-12.793-0.137c-8.677-4.733-69.745-11.282-78.742,0.583
			c-5.002,0.035-9.281-1.161-11.973-0.752C290.668,742.457,298.853,741.58,307.642,741.58z"/>
		<path fill-rule="evenodd" clip-rule="evenodd" fill="#5793BB" d="M307.733,741.533c5.604,0,59.436,0,65.04,0
			c11.043,0,15.958-0.027,18.99-4.598c-3.132-0.82-8.125,0.217-12.722,0.243c-6.942-3.786-71.047-9.025-78.245,0.467
			c-4.988,0.028-9.331-1.081-12.25-1.013C290.933,742.435,298.969,741.533,307.733,741.533z"/>
		<path fill-rule="evenodd" clip-rule="evenodd" fill="#5391B9" d="M307.825,741.486c4.203,0,60.653,0,64.855,0
			c10.401,0,15.912,0.265,18.937-4.273c-3.257-0.335-8.066,0.604-12.651,0.624c-5.207-2.841-72.349-6.77-77.747,0.35
			c-4.975,0.021-9.381-1-12.526-1.274C291.199,742.412,299.085,741.486,307.825,741.486z"/>
		<path fill-rule="evenodd" clip-rule="evenodd" fill="#4E8EB7" d="M307.917,741.439c2.802,0,61.87,0,64.672,0
			c9.759,0,15.867,0.557,18.883-3.948c-3.383,0.148-8.009,0.989-12.582,1.003c-3.471-1.894-73.651-4.514-77.25,0.232
			c-4.96,0.015-9.431-0.919-12.803-1.534C291.465,742.391,299.201,741.439,307.917,741.439z"/>
		<path fill-rule="evenodd" clip-rule="evenodd" fill="#498CB5" d="M308.009,741.393c1.401,0,63.087,0,64.488,0
			c9.117,0,15.821,0.848,18.83-3.623c-3.508,0.632-7.952,1.375-12.512,1.382c-1.735-0.947-74.953-2.257-76.752,0.116
			c-4.946,0.007-9.481-0.839-13.079-1.795C291.73,742.368,299.318,741.393,308.009,741.393z"/>
		<path fill-rule="evenodd" clip-rule="evenodd" fill="#4489B3" d="M308.1,741.346h64.305c8.476,0,15.776,1.14,18.776-3.299
			c-3.633,1.116-7.894,1.762-12.441,1.762h-76.254c-4.933,0-9.531-0.759-13.355-2.057
			C291.996,742.346,299.434,741.346,308.1,741.346z"/>
	</g>
</g>
<g>
	<rect x="134.324" y="785.291" fill="#A6A8AC" width="22.112" height="190.347"/>
	<polyline fill="#A6A8AC" points="132.056,1035.65 157.568,973.845 136.025,973.394 111.646,1035.65 	"/>
	<polygon fill="#A6A8AC" points="878.547,973.763 900.657,973.845 901.815,783.506 879.708,783.422 	"/>
	<polyline fill="#D1D2D3" points="902.563,1033.867 877.425,971.966 898.967,971.603 922.973,1033.943 	"/>
	<polygon fill="#EAEAEA" points="902.563,1033.867 922.973,1033.943 924.574,770.603 904.17,770.525 	"/>
	<rect x="111.645" y="772.307" fill="#EAEAEA" width="20.41" height="263.344"/>
	<polygon fill="#D1D2D3" points="101.442,775.886 930.298,775.886 904.213,723.042 127.521,723.042 	"/>
	<rect x="101.447" y="775.886" fill="#929497" width="827.708" height="12.542"/>
</g>
<g>
	<g>
		<linearGradient id="SVGID_26_" gradientUnits="userSpaceOnUse" x1="1416.9043" y1="857.1318" x2="1458.7426" y2="854.9392">
			<stop  offset="0" style="stop-color:#C28E2C"/>
			<stop  offset="1" style="stop-color:#EEED83"/>
		</linearGradient>
		<polygon fill-rule="evenodd" clip-rule="evenodd" fill="url(#SVGID_26_)" points="1447.88,819.357 1456.89,850.885 
			1422.62,892.984 1419.247,848.759 		"/>
	</g>
</g>
<g>
	<polygon fill="#8D633A" points="1504.988,765.319 1336.625,788.781 1336.625,899.953 1347.448,911.828 1369.443,907.006 
		1369.443,844.307 1453.973,912.189 1453.973,1028.715 1473.915,1050.593 1503.149,1040.806 1503.149,918.874 1638.479,885.261 
		1638.479,970.117 1664.244,986.804 1691.725,977.595 1691.725,836.885 	"/>
	<polygon fill="#B28964" points="1490.632,916.578 1303.883,775.606 1504.985,742.554 1731.877,855.904 	"/>
</g>
<g>
	<polygon fill="#079247" points="1452.545,611.548 1460.206,573.706 1485.435,559.815 1491.5,570.193 1483.683,565.403 
		1466.592,578.815 1454.615,614.581 1452.545,646.995 	"/>
	<polygon fill="#079247" points="1410.23,598.135 1410.23,583.446 1413.583,578.178 1438.492,564.128 1443.921,570.193 
		1450.787,624.479 1446.474,561.89 1441.688,554.065 1438.973,554.065 1408.154,578.178 1406.56,589.274 	"/>
	<polygon fill="#079247" points="1452.621,639.323 1460.206,605.801 1472.025,596.221 1478.729,596.221 1499.325,601.329 
		1507.949,619.371 1504.753,597.018 1480.287,585.362 1472.025,585.362 1458.454,601.168 	"/>
	<polygon fill="#079247" points="1450.631,653.222 1455.259,630.39 1466.115,620.65 1479.205,620.65 1494.377,633.9 
		1502.201,654.817 1489.744,635.979 1477.135,627.993 1465.953,629.105 1458.291,639.65 1448.23,665.835 	"/>
	<polygon fill="#079247" points="1452.545,629.909 1450.787,570.991 1461.644,545.604 1476.815,542.893 1478.568,549.118 
		1477.772,540.497 1459.411,540.497 1448.073,558.537 	"/>
	<polygon fill="#079247" points="1407.673,660.726 1409.593,634.538 1423.002,624.645 1436.422,619.371 1447.116,640.051 
		1448.23,663.76 1452.545,633.422 1450.431,625.606 1449.349,621.61 1438.812,612.027 1434.021,612.027 1414.378,617.296 
		1404.959,631.824 1404.002,649.069 	"/>
	<polygon fill="#079247" points="1437.535,588.396 1431.145,589.993 1422.525,595.9 1425.397,632.943 1428.431,602.125 
		1435.302,593.824 1450.469,619.693 1439.606,589.514 	"/>
	<polygon fill="#079247" points="1452.701,628.952 1447.91,609.794 1416.94,586.64 1403.526,591.43 1388.197,609.153 
		1405.278,593.984 1415.979,596.061 1434.658,612.986 1445.178,614.503 	"/>
	<polygon fill="#079247" points="1450.564,659.767 1448.23,729.704 1450.673,721.082 1457.011,695.533 1457.812,696.812 
		1472.34,701.123 1457.973,697.928 1450.787,722.519 1449.349,729.704 1453.658,724.754 1463.878,726.511 1454.14,725.711 
		1450.787,731.939 1455.097,728.425 1458.13,719.963 1456.216,728.425 1450.787,734.175 1445.197,734.973 1442.646,734.973 
		1441.688,728.905 1427.154,723.794 1429.23,722.677 1443.282,728.106 1444.56,732.1 1442.482,724.591 1432.426,716.771 
		1427.154,719.805 1433.701,715.014 1443.921,724.114 1445.359,728.905 1442.802,717.888 1425.878,706.232 1430.825,707.189 
		1443.921,717.247 1446.635,727.787 1447.982,658.495 	"/>
	<polygon fill="#43414C" points="1419.312,702.002 1424.813,769.851 1470.921,769.851 1476.158,702.002 	"/>
</g>
<g>
	<path fill="#FEDB4E" d="M605.121,576.111c-0.012,7.086,5.718,12.843,12.802,12.861c7.084,0.016,12.842-5.716,12.86-12.799
		c0.011-7.084-5.72-12.838-12.802-12.858C610.896,563.297,605.141,569.027,605.121,576.111"/>
	<line fill="none" stroke="#203F72" stroke-miterlimit="10" x1="668.004" y1="719.35" x2="697.123" y2="645.06"/>
	<line fill="none" stroke="#203F72" stroke-miterlimit="10" x1="661.047" y1="719.35" x2="691.096" y2="643.429"/>
	<line fill="none" stroke="#203F72" stroke-miterlimit="10" x1="692.701" y1="630.63" x2="661.107" y2="566.094"/>
	<line fill="none" stroke="#203F72" stroke-miterlimit="10" x1="699.658" y1="630.63" x2="667.278" y2="564.061"/>
	<path fill="#203F72" d="M689.769,637.845c0,3.84,3.114,6.951,6.953,6.951c3.833,0,6.945-3.111,6.945-6.951
		s-3.112-6.949-6.945-6.949C692.883,630.896,689.769,634.005,689.769,637.845"/>
	<path fill="#203F72" d="M656.899,561.683c0,2.989,2.425,5.413,5.413,5.413s5.412-2.424,5.412-5.413
		c0-2.985-2.424-5.409-5.412-5.409S656.899,558.697,656.899,561.683"/>
	<path fill="#20A9C7" d="M618.6,543.765c8.981-4.896,19.152-4.706,26.964-0.526l6.851-4.49c5.317-3.481,12.451-1.993,15.929,3.326
		c3.473,5.314,1.991,12.444-3.327,15.927l-6.857,4.491c0.714,8.82-3.187,18.213-11.263,24.496l-16.22,12.77
		c0,0-10.422-8.246-19.086-21.485c-8.667-13.239-11.274-24.878-11.274-24.878L618.6,543.765z"/>
	<path fill="#2283B0" d="M668.344,542.074c3.475,5.314,1.991,12.444-3.327,15.927l-6.857,4.491
		c0.713,8.82-3.187,18.213-11.263,24.496l-16.22,12.77l-19.086-21.485C611.591,578.272,643.641,557.107,668.344,542.074"/>
	<path fill="#2283B0" d="M638.793,720.532v-6.998h7.617v3.164c4.471-1.662,9.533-2.695,14.761-2.695
		c17.506,0,30.847,9.354,30.847,18.17h-61.687C630.332,728.198,633.632,723.936,638.793,720.532"/>
</g>
<g>
	<path fill="#231F1F" d="M840.31,125.333c0,26.333-21.344,47.679-47.682,47.679c-26.329,0-47.671-21.346-47.671-47.679
		c0-26.331,21.342-47.676,47.671-47.676C818.966,77.657,840.31,99.002,840.31,125.333"/>
	<path fill="#FFFFFF" d="M833.429,125.333c0,22.53-18.264,40.798-40.801,40.798c-22.523,0-40.79-18.268-40.79-40.798
		c0-22.528,18.267-40.796,40.79-40.796C815.166,84.537,833.429,102.805,833.429,125.333"/>
	<path fill="#231F1F" d="M794.849,90.313c0,1.217-0.996,2.208-2.221,2.208c-1.213,0-2.211-0.991-2.211-2.208
		c0-1.218,0.998-2.209,2.211-2.209C793.853,88.104,794.849,89.096,794.849,90.313"/>
	<path fill="#231F1F" d="M794.849,160.356c0,1.216-0.996,2.204-2.221,2.204c-1.213,0-2.211-0.988-2.211-2.204
		c0-1.222,0.998-2.214,2.211-2.214C793.853,158.143,794.849,159.135,794.849,160.356"/>
	<path fill="#231F1F" d="M827.652,127.548c-1.221,0-2.211-0.989-2.211-2.216c0-1.222,0.99-2.211,2.211-2.211
		s2.213,0.989,2.213,2.211C829.865,126.559,828.873,127.548,827.652,127.548"/>
	<path fill="#231F1F" d="M757.619,127.548c-1.219,0-2.213-0.989-2.213-2.216c0-1.222,0.994-2.211,2.213-2.211
		c1.223,0,2.208,0.989,2.208,2.211C759.827,126.559,758.841,127.548,757.619,127.548"/>
	<path fill="#231F1F" d="M777.039,93.895c0.611,1.061,0.251,2.422-0.808,3.027c-1.058,0.613-2.417,0.254-3.022-0.814
		c-0.605-1.053-0.235-2.404,0.811-3.02C775.078,92.482,776.429,92.84,777.039,93.895"/>
	<path fill="#231F1F" d="M812.059,154.553c0.618,1.058,0.249,2.409-0.806,3.024c-1.055,0.61-2.412,0.244-3.023-0.812
		c-0.613-1.057-0.249-2.412,0.811-3.021C810.097,153.133,811.453,153.496,812.059,154.553"/>
	<path fill="#231F1F" d="M824.078,109.738c-1.072,0.611-2.42,0.246-3.033-0.807c-0.611-1.06-0.249-2.416,0.813-3.024
		c1.057-0.608,2.418-0.247,3.021,0.81C825.488,107.777,825.125,109.128,824.078,109.738"/>
	<path fill="#231F1F" d="M763.419,144.759c-1.066,0.61-2.42,0.244-3.03-0.808c-0.615-1.059-0.249-2.412,0.815-3.026
		c1.056-0.605,2.406-0.246,3.014,0.81C764.835,142.793,764.465,144.151,763.419,144.759"/>
	<path fill="#231F1F" d="M763.419,105.907c1.061,0.608,1.42,1.964,0.799,3.024c-0.598,1.053-1.958,1.418-3.014,0.807
		c-1.064-0.61-1.42-1.961-0.815-3.025C761,105.662,762.353,105.301,763.419,105.907"/>
	<path fill="#231F1F" d="M824.078,140.926c1.047,0.611,1.41,1.966,0.801,3.02c-0.604,1.059-1.965,1.424-3.021,0.814
		c-1.056-0.615-1.42-1.967-0.813-3.023C821.658,140.68,823.013,140.313,824.078,140.926"/>
	<path fill="#231F1F" d="M812.059,96.107c-0.606,1.061-1.962,1.42-3.019,0.809c-1.06-0.605-1.416-1.961-0.811-3.021
		c0.611-1.057,1.969-1.42,3.023-0.807C812.308,93.695,812.677,95.047,812.059,96.107"/>
	<path fill="#231F1F" d="M777.039,156.762c-0.609,1.059-1.961,1.424-3.02,0.814c-1.046-0.615-1.416-1.966-0.805-3.027
		c0.6-1.055,1.959-1.417,3.017-0.805C777.29,154.354,777.646,155.711,777.039,156.762"/>
	<line fill="none" stroke="#A73D43" stroke-miterlimit="10" x1="768.184" y1="132.397" x2="792.628" y2="125.334"/>
	<polyline fill="none" stroke="#231F1F" stroke-miterlimit="10" points="805.783,135.72 792.628,125.334 804.316,100.326 	"/>
</g>
</svg>
