<?xml version="1.0" encoding="utf-8"?>
<!-- Generator: Adobe Illustrator 16.0.0, SVG Export Plug-In . SVG Version: 6.00 Build 0)  -->
<!DOCTYPE svg PUBLIC "-//W3C//DTD SVG 1.1//EN" "http://www.w3.org/Graphics/SVG/1.1/DTD/svg11.dtd">
<svg version="1.1" id="Layer_1" xmlns="http://www.w3.org/2000/svg" xmlns:xlink="http://www.w3.org/1999/xlink" x="0px" y="0px"
	 width="140.893px" height="113.018px" viewBox="0 0 140.893 113.018" enable-background="new 0 0 140.893 113.018"
	 xml:space="preserve">
<g>
	
		<linearGradient id="SVGID_1_" gradientUnits="userSpaceOnUse" x1="-335.7202" y1="563.9395" x2="-244.0825" y2="563.9395" gradientTransform="matrix(1.5375 0 0 1.5375 516.1696 -822.7963)">
		<stop  offset="0" style="stop-color:#481111"/>
		<stop  offset="0.5" style="stop-color:#941A1D"/>
		<stop  offset="1" style="stop-color:#481111"/>
	</linearGradient>
	<path fill-rule="evenodd" clip-rule="evenodd" fill="url(#SVGID_1_)" d="M104.126,2.052C91.557,5.788,80.844,7.61,70.445,7.709
		c-10.396-0.099-21.11-1.921-33.68-5.657C24.047-3.437,11.811,1.999,4.752,19.387c-9.65,20.475-4.382,40.192,13.796,59.252
		c13.026,12.182,23.218,13.35,40.239,2.123c3.573-2.544,7.618-3.937,11.658-4.227c4.041,0.29,8.087,1.683,11.66,4.227
		c17.021,11.227,27.213,10.059,40.239-2.123c18.178-19.06,23.446-38.777,13.796-59.252C129.082,1.999,116.847-3.437,104.126,2.052
		L104.126,2.052z"/>
	
		<linearGradient id="SVGID_2_" gradientUnits="userSpaceOnUse" x1="-250.7129" y1="611.3389" x2="-262.7666" y2="613.0329" gradientTransform="matrix(0.2336 -0.4845 -0.4845 -0.2336 475.6516 76.9718)">
		<stop  offset="0.13" style="stop-color:#B4742A"/>
		<stop  offset="0.2484" style="stop-color:#C6912C"/>
		<stop  offset="0.3668" style="stop-color:#F7D777"/>
		<stop  offset="0.4926" style="stop-color:#DCAF49"/>
		<stop  offset="0.6036" style="stop-color:#F7D777"/>
		<stop  offset="0.7368" style="stop-color:#C6912C"/>
		<stop  offset="0.87" style="stop-color:#B4742A"/>
	</linearGradient>
	<path fill="url(#SVGID_2_)" d="M113.023,59.537c1.188-1.67,3.199-3.127,4.777-3.681c1.813-0.636,3.69-0.579,5.047,0.894v-0.001
		c2.188,2.658-0.564,5.213-2.896,4.267c-1.138-0.594-1.645-1.572-0.691-2.591c0.526-0.562,1.78-1.173,2.327-0.351l0.008,0.01
		c0.649,0.849-0.55,1.797-1.106,1.498c0.392,0.34,0.955,0.169,1.295-0.156c0.447-0.428,0.502-1.045,0.117-1.56l0,0
		c-0.703-1.059-2.212-0.449-2.914,0.302c-1.129,1.204-0.574,2.473,0.802,3.186l0.01,0.006l0.005,0.002
		c2.688,1.098,5.782-1.89,3.327-4.86l-0.007-0.008c-1.459-1.583-3.491-1.679-5.448-0.992c-1.678,0.589-4.162,2.213-4.989,3.867
		L113.023,59.537L113.023,59.537z"/>
	
		<linearGradient id="SVGID_3_" gradientUnits="userSpaceOnUse" x1="0.6221" y1="531.5283" x2="2.6743" y2="472.7606" gradientTransform="matrix(-0.0736 -0.1415 -0.1415 0.0736 184.8715 25.8486)">
		<stop  offset="0.03" style="stop-color:#B4742A"/>
		<stop  offset="0.1804" style="stop-color:#C6912C"/>
		<stop  offset="0.3308" style="stop-color:#F7D777"/>
		<stop  offset="0.4906" style="stop-color:#DCAF49"/>
		<stop  offset="0.6316" style="stop-color:#F7D777"/>
		<stop  offset="0.8008" style="stop-color:#C6912C"/>
		<stop  offset="0.97" style="stop-color:#B4742A"/>
	</linearGradient>
	<path fill-rule="evenodd" clip-rule="evenodd" fill="url(#SVGID_3_)" d="M109.308,64.24c3.736-4.009,6.689-4.207,9.114-2.676
		c-1.453-0.555-2.486,0.772-3.774,1.205c-0.916,0.309-1.533-0.059-2.304-0.016C111.319,62.811,110.802,63.158,109.308,64.24
		L109.308,64.24z"/>
	
		<linearGradient id="SVGID_4_" gradientUnits="userSpaceOnUse" x1="-312.8091" y1="-181.2007" x2="-352.2317" y2="-203.053" gradientTransform="matrix(0.2244 -0.2412 0.2412 0.2244 249.4612 10.6495)">
		<stop  offset="0.03" style="stop-color:#B4742A"/>
		<stop  offset="0.1804" style="stop-color:#C6912C"/>
		<stop  offset="0.2805" style="stop-color:#E6BF5B"/>
		<stop  offset="0.3308" style="stop-color:#F7D777"/>
		<stop  offset="0.4906" style="stop-color:#DCAF49"/>
		<stop  offset="0.6316" style="stop-color:#F7D777"/>
		<stop  offset="0.8008" style="stop-color:#C6912C"/>
		<stop  offset="0.97" style="stop-color:#B4742A"/>
	</linearGradient>
	<path fill-rule="evenodd" clip-rule="evenodd" fill="url(#SVGID_4_)" d="M128.797,44.713c-3.045,0.421-5.196,1.874-6.906,4.035
		c3.576-3.091,4.96-1.779,6.944,0.438c-0.1-0.326-1.743-2.324,1.057-2.396c0.905-0.023,3.124,3.188,4.009,2.237
		c-0.38-0.792-2.261-0.727-1.21-1.857c1.003-1.078,2.045,1.652,3.943-0.389C132.128,46.62,134.852,43.972,128.797,44.713
		L128.797,44.713z"/>
	
		<linearGradient id="SVGID_5_" gradientUnits="userSpaceOnUse" x1="-212.8379" y1="425.335" x2="-274.1801" y2="436.1512" gradientTransform="matrix(0.2101 -0.4951 -0.4951 -0.2101 354.2586 21.9174)">
		<stop  offset="0.07" style="stop-color:#B4742A"/>
		<stop  offset="0.2076" style="stop-color:#C6912C"/>
		<stop  offset="0.3452" style="stop-color:#F7D777"/>
		<stop  offset="0.4914" style="stop-color:#DCAF49"/>
		<stop  offset="0.6204" style="stop-color:#F7D777"/>
		<stop  offset="0.7752" style="stop-color:#C6912C"/>
		<stop  offset="0.93" style="stop-color:#B4742A"/>
	</linearGradient>
	<path fill="url(#SVGID_5_)" d="M70.27,44.995c0.152,4.21,1.708,8.916,4.257,13.103C78.487,64.603,85.273,70.45,93.3,70.159
		c8.14-0.296,15.609-6.871,16.762-14.961c2.111-14.804-14.853-23.433-20.296-13.554c-1.163,2.11-2.631,5.787-0.279,8.369
		c8.192-1.881-1.683-7.525,3.51-10.567c6.283-4.073,17.84,3.669,16.137,15.617c-1.089,7.638-8.174,13.879-15.867,14.158
		c-7.67,0.279-14.16-5.406-17.938-11.61C73.316,54.304,71.378,51.175,70.27,44.995L70.27,44.995z"/>
	
		<linearGradient id="SVGID_6_" gradientUnits="userSpaceOnUse" x1="-237.6582" y1="453.1533" x2="-239.2759" y2="459.1907" gradientTransform="matrix(1.5375 0 0 1.5375 458.2487 -637.5365)">
		<stop  offset="0.1" style="stop-color:#B4742A"/>
		<stop  offset="0.228" style="stop-color:#C6912C"/>
		<stop  offset="0.356" style="stop-color:#F7D777"/>
		<stop  offset="0.492" style="stop-color:#DCAF49"/>
		<stop  offset="0.612" style="stop-color:#F7D777"/>
		<stop  offset="0.756" style="stop-color:#C6912C"/>
		<stop  offset="0.9" style="stop-color:#B4742A"/>
	</linearGradient>
	<path fill="url(#SVGID_6_)" d="M83.84,66.938c3.656,1.781,7.318,2.202,10.055,1.529c3.221-0.79,5.215-3.124,4.369-6.56V61.9
		c-1.456-4.963-8.156-3.936-9.094,0.877l-0.002,0.012c-0.443,3.549,3.501,5.295,6.229,2.691l0.008-0.004
		c2.158-2.242-0.261-6.08-3.39-4.236c0.937-0.187,1.514-0.416,2.458,0.056c1.426,0.611,1.763,2.454,0.873,3.667
		c-0.192,0.191-0.457,0.324-0.738,0.271c-0.935-0.174-0.604,0.129-1.108,0.657c-0.835,0.192-1.08-0.528-1.753-0.607
		c-0.901-0.107-1.122-0.072-1.215-1.151c-0.042-0.484-0.478-0.404-0.909-1.102c-0.047-0.073-0.042-0.199-0.037-0.4
		c1.02-4.236,6.993-5.139,8.315-0.625h0.001c0.789,3.229-1.084,5.357-4.098,6.099c-2.657,0.653-6.225,0.237-9.801-1.503
		L83.84,66.938L83.84,66.938z"/>
	
		<linearGradient id="SVGID_7_" gradientUnits="userSpaceOnUse" x1="-254.3242" y1="441.8887" x2="-255.7326" y2="455.2887" gradientTransform="matrix(1.5375 0 0 1.5375 491.4557 -631.1302)">
		<stop  offset="0.01" style="stop-color:#B4742A"/>
		<stop  offset="0.1668" style="stop-color:#C6912C"/>
		<stop  offset="0.3236" style="stop-color:#F7D777"/>
		<stop  offset="0.4902" style="stop-color:#DCAF49"/>
		<stop  offset="0.6372" style="stop-color:#F7D777"/>
		<stop  offset="0.8136" style="stop-color:#C6912C"/>
		<stop  offset="0.99" style="stop-color:#B4742A"/>
	</linearGradient>
	<path fill="url(#SVGID_7_)" d="M95.47,69.184c16.074-5.067,9.783-23.495,1.188-20.842c-1.097,0.339-2.039,1.01-2.415,1.737
		c0.271-0.493,1.493-1.287,2.473-1.552c0.086-0.026,0.173-0.047,0.257-0.069c0.808,0.039,2.171,0.021,3.377,0.956
		c0.668,2.755,1.967,1.234,1.956,2.686c0.004,0.002,0.656,0.797,0.744,0.979c0.231,0.478-0.048,0.315-0.247,0.786
		c-0.344,0.81,2.08,0.505,1.454,1.806c-0.793,1.651,1.065,1.143,0.292,2.965c-0.19,0.451,0.256,0.154,0.157,2.057
		c-1.071,3.396-3.907,6.609-9.294,8.307L95.47,69.184L95.47,69.184z"/>
	
		<linearGradient id="SVGID_8_" gradientUnits="userSpaceOnUse" x1="5782.4717" y1="-1068.6641" x2="5755.3267" y2="-1036.3137" gradientTransform="matrix(0.2868 -0.1458 -0.1458 -0.2868 -1692.5957 589.4125)">
		<stop  offset="0.08" style="stop-color:#B4742A"/>
		<stop  offset="0.2144" style="stop-color:#C6912C"/>
		<stop  offset="0.3488" style="stop-color:#F7D777"/>
		<stop  offset="0.4916" style="stop-color:#DCAF49"/>
		<stop  offset="0.6176" style="stop-color:#F7D777"/>
		<stop  offset="0.7688" style="stop-color:#C6912C"/>
		<stop  offset="0.92" style="stop-color:#B4742A"/>
	</linearGradient>
	<path fill-rule="evenodd" clip-rule="evenodd" fill="url(#SVGID_8_)" d="M109.678,55.859c1.703-2.056,2.109-2.563,4.285-3.669
		c2.632-1.338,0.942-2.933,3.912-3.456c-0.692-2.019-4.015,1.223-3.706-0.27c0.075-0.211,2.133-1.838,3.097-1.241
		c0.401,0.25,0.625,0.428,1.035,0.219c1.15,0.717,2.554-2.403,5.603-1.542c-1.27-0.414-1.571-1.265-3.372-1.42
		c-1.587-0.138-3.564-0.345-6.719,2.345C111.326,50.056,112.089,52.806,109.678,55.859L109.678,55.859z"/>
	
		<linearGradient id="SVGID_9_" gradientUnits="userSpaceOnUse" x1="-669.0283" y1="396.3887" x2="-691.142" y2="399.1039" gradientTransform="matrix(1.5375 0 0 1.5375 1086.4762 -574.9564)">
		<stop  offset="0.09" style="stop-color:#B4742A"/>
		<stop  offset="0.2212" style="stop-color:#C6912C"/>
		<stop  offset="0.3524" style="stop-color:#F7D777"/>
		<stop  offset="0.4918" style="stop-color:#DCAF49"/>
		<stop  offset="0.6148" style="stop-color:#F7D777"/>
		<stop  offset="0.7624" style="stop-color:#C6912C"/>
		<stop  offset="0.91" style="stop-color:#B4742A"/>
	</linearGradient>
	<path fill-rule="evenodd" clip-rule="evenodd" fill="url(#SVGID_9_)" d="M57.11,44.829c-0.801-1.873,0.135-2.5-0.795-4.407
		c-0.115-0.234-0.464-0.895-0.517-1.054c-0.833-0.278-1.259-3.38-3.295-4.333c-3.455-1.619-1.766-3.67-5.365-3.845
		c-2.509-0.123-2.326-2.131-7.606-2.131c-0.755,0-2.399-0.057-3.073,0.038c-0.793-2.193-3.369,0.245-5.003-1.614
		c-1.56,0.144-1.459,1.462-2.241,1.9c-2.762,1.544-4.011,0.05-4.701-0.065c-0.449,1.833,3.069,3.585,5.714,2.292
		C43.664,26.499,52.797,33.537,57.11,44.829L57.11,44.829z"/>
	
		<linearGradient id="SVGID_10_" gradientUnits="userSpaceOnUse" x1="-177.3999" y1="495.0479" x2="-172.7772" y2="488.9133" gradientTransform="matrix(-1.4006 0.6342 0.6342 1.4006 -442.1727 -562.8098)">
		<stop  offset="0.07" style="stop-color:#B4742A"/>
		<stop  offset="0.2076" style="stop-color:#C6912C"/>
		<stop  offset="0.3452" style="stop-color:#F7D777"/>
		<stop  offset="0.4914" style="stop-color:#DCAF49"/>
		<stop  offset="0.6204" style="stop-color:#F7D777"/>
		<stop  offset="0.7752" style="stop-color:#C6912C"/>
		<stop  offset="0.93" style="stop-color:#B4742A"/>
	</linearGradient>
	<path fill-rule="evenodd" clip-rule="evenodd" fill="url(#SVGID_10_)" d="M108.861,19.691c3.012-0.458,4.919-4.244,5.639-2.199
		c2.006,0.779,2.332-4.026,3.114-4.449c0.466-0.251,0.171,0.674,0.609,0.301c0.631-0.535,0.324-2.466,1.333-3.119
		c0.652-0.423,1.108,0.198,0.869,1.031C120.074,16.321,116.203,19.951,108.861,19.691L108.861,19.691z"/>
	
		<linearGradient id="SVGID_11_" gradientUnits="userSpaceOnUse" x1="-261.4951" y1="510.5859" x2="-263.7988" y2="516.0132" gradientTransform="matrix(1.5375 0 0 1.5375 512.6188 -774.1888)">
		<stop  offset="0.08" style="stop-color:#B4742A"/>
		<stop  offset="0.2144" style="stop-color:#C6912C"/>
		<stop  offset="0.3488" style="stop-color:#F7D777"/>
		<stop  offset="0.4916" style="stop-color:#DCAF49"/>
		<stop  offset="0.6176" style="stop-color:#F7D777"/>
		<stop  offset="0.7688" style="stop-color:#C6912C"/>
		<stop  offset="0.92" style="stop-color:#B4742A"/>
	</linearGradient>
	<path fill="url(#SVGID_11_)" d="M102.883,19.077c1.791,0.667,4.908,0.117,6.59-0.619c1.932-0.846,3.396-2.297,3.385-4.493l0,0
		c-0.23-3.771-4.352-3.765-5.517-1.26c-0.47,1.328-0.145,2.493,1.385,2.598c0.841,0.058,2.306-0.39,2.13-1.459l-0.001-0.013
		c-0.114-1.168-1.787-1.032-2.01-0.374c0.06-0.566,0.64-0.852,1.156-0.845c0.68,0.009,1.185,0.463,1.262,1.165l0,0
		c0.228,1.377-1.44,2.016-2.567,1.938c-1.196-0.082-1.82-0.738-1.941-1.636c-0.234,0.129-0.351,0.382-0.102,0.705
		c-0.005,0.011-0.017,0.045-0.057,0.045c-0.832,0.012-0.138-1.213-0.141-1.229c-0.178-1.049-0.536-0.362-0.756-0.36
		c-0.102-0.512,0.916-0.744,0.827-1.039c-0.251-0.849-0.647-0.269-0.853-0.202c-0.021-0.075,0.035-0.293,0.121-0.324
		c2.36-0.872,1.275,0.063,1.38-1.642c0.208-0.067,0.411,0,0.628,0.074c1.316,0.447,0.705-0.315,1.432-0.549
		c0.02,0.018,0.028,0.033,0.066,0.053c0.635,0.337,0.891,0.77,1.337,0.445c0.729-0.532,0.314-0.15,0.7-0.313
		c0.309,0.219,0.564,1.063,1.06,1.243l0.081,0.029c0.469,0.17,0.473,0.896,0.509,1.564c0.152,0.396,0.252,0.853,0.282,1.373
		l0.001,0.011c0.015,2.364-1.547,3.96-3.633,4.873c-1.788,0.782-4.997,1.336-6.9,0.627L102.883,19.077L102.883,19.077z"/>
	
		<linearGradient id="SVGID_12_" gradientUnits="userSpaceOnUse" x1="-185.5835" y1="497.7646" x2="-180.431" y2="499.4388" gradientTransform="matrix(-1.3632 0.7111 0.7111 1.3632 -501.6545 -531.3387)">
		<stop  offset="0.01" style="stop-color:#B4742A"/>
		<stop  offset="0.1668" style="stop-color:#C6912C"/>
		<stop  offset="0.3236" style="stop-color:#F7D777"/>
		<stop  offset="0.4902" style="stop-color:#DCAF49"/>
		<stop  offset="0.6372" style="stop-color:#F7D777"/>
		<stop  offset="0.8136" style="stop-color:#C6912C"/>
		<stop  offset="0.99" style="stop-color:#B4742A"/>
	</linearGradient>
	<path fill-rule="evenodd" clip-rule="evenodd" fill="url(#SVGID_12_)" d="M98.056,18.24c2.383,0.243,4.658,1.004,7.147,0.728
		c2.283-0.396,0.706-1.222,1.195-1.347c-0.686-2.52-1.52,1.171-3.167,0.848c-1.178-0.232-1.136-2.684-2.201-1.122
		C100.754,17.751,99.736,18.273,98.056,18.24L98.056,18.24z"/>
	
		<linearGradient id="SVGID_13_" gradientUnits="userSpaceOnUse" x1="-157.4492" y1="490.8467" x2="-154.6281" y2="487.2357" gradientTransform="matrix(-1.4006 0.6342 0.6342 1.4006 -401.4276 -571.4739)">
		<stop  offset="0.08" style="stop-color:#B4742A"/>
		<stop  offset="0.2144" style="stop-color:#C6912C"/>
		<stop  offset="0.3488" style="stop-color:#F7D777"/>
		<stop  offset="0.4916" style="stop-color:#DCAF49"/>
		<stop  offset="0.6176" style="stop-color:#F7D777"/>
		<stop  offset="0.7688" style="stop-color:#C6912C"/>
		<stop  offset="0.92" style="stop-color:#B4742A"/>
	</linearGradient>
	<path fill-rule="evenodd" clip-rule="evenodd" fill="url(#SVGID_13_)" d="M123.132,16.656c0.964-0.705,1.201-0.872,1.752-1.812
		c0.668-1.139,1.915-0.456,1.647-1.653c0.881,0.363-0.654,1.757,0.021,1.66c0.097-0.028,0.878-0.902,0.638-1.348
		c-0.102-0.187-0.175-0.291-0.071-0.468c-0.289-0.533,1.731-0.624,0.839-2.458c0.616,0.463,0.913,1.63,0.144,2.843
		c-0.27,0.423,0.846,0.924-0.827,1.634c-0.245,0.165-0.48,0.293-0.71,0.395c2.894-0.575,4.494,0.344,5.38,1.954
		c-1.125-1.467-1.886,0.121-2.902-0.575c-0.328-1.527-0.981-0.592-1.5-0.843c-0.727-0.411-1.223,1.111-2.181-0.01
		C124.851,15.74,123.926,16.103,123.132,16.656L123.132,16.656z"/>
	
		<linearGradient id="SVGID_14_" gradientUnits="userSpaceOnUse" x1="-261.7656" y1="518.8838" x2="-263.8895" y2="521.5065" gradientTransform="matrix(1.5375 0 0 1.5375 502.36 -785.0052)">
		<stop  offset="0.09" style="stop-color:#B4742A"/>
		<stop  offset="0.2212" style="stop-color:#C6912C"/>
		<stop  offset="0.3524" style="stop-color:#F7D777"/>
		<stop  offset="0.4918" style="stop-color:#DCAF49"/>
		<stop  offset="0.6148" style="stop-color:#F7D777"/>
		<stop  offset="0.7624" style="stop-color:#C6912C"/>
		<stop  offset="0.91" style="stop-color:#B4742A"/>
	</linearGradient>
	<path fill-rule="evenodd" clip-rule="evenodd" fill="url(#SVGID_14_)" d="M99.289,15.288c-0.163-0.005-0.369,0.012-0.448,0.197
		c-0.145,0.334-0.194,0.493-0.764,0.315c-0.076-0.025-0.031-0.021-0.111-0.024c-0.106-0.26-0.407,0.027-0.639-0.064
		c-0.034-0.013-0.032-0.007-0.061-0.007c-0.249-0.376-0.111-0.192-0.268-0.495c-0.001,0-0.478-0.046-0.449-0.462l0.021-0.043
		c0.089-0.185-0.033-0.55-0.247-0.683c-0.038-0.044-0.086-0.131-0.12-0.221c0.413-1.797,2.708-2.76,4.048-1.017l0,0
		c1.033,1.479,0.504,2.927-0.877,3.894c-1.218,0.852-3.105,1.343-5.259,1.164L94.1,18.044c2.202,0.183,4.139-0.323,5.393-1.201
		c0.476-0.333,0.854-0.722,1.114-1.15c0.336-0.196,0.325-0.581,1.022-0.833c0.45-0.165-0.691-0.924-0.359-1.722
		c0.001-0.002-0.003-0.657-0.342-0.599c-0.536,0.091-0.947-2.139-1.401-1.461c-0.012,0.017,0.16,0.968-0.39,0.441
		c-0.177,0.055-0.103,0.123-0.313,0.162c-1.565-0.214-3.188,1.287-2.842,3.208l0.001,0.006c0.472,1.884,2.812,1.995,3.685,0.139
		l0.001-0.003c0.652-1.56-1.325-3.028-2.549-1.48c0.438-0.278,0.687-0.508,1.257-0.454c0.902,0.031,1.45,1.026,1.104,1.855l0,0
		C99.424,15.073,99.359,15.185,99.289,15.288L99.289,15.288z"/>
	
		<linearGradient id="SVGID_15_" gradientUnits="userSpaceOnUse" x1="-247.2876" y1="513.209" x2="-256.4005" y2="516.7071" gradientTransform="matrix(1.5375 0 0 1.5375 474.2731 -766.1517)">
		<stop  offset="0.1" style="stop-color:#B4742A"/>
		<stop  offset="0.228" style="stop-color:#C6912C"/>
		<stop  offset="0.356" style="stop-color:#F7D777"/>
		<stop  offset="0.492" style="stop-color:#DCAF49"/>
		<stop  offset="0.612" style="stop-color:#F7D777"/>
		<stop  offset="0.756" style="stop-color:#C6912C"/>
		<stop  offset="0.9" style="stop-color:#B4742A"/>
	</linearGradient>
	<path fill="url(#SVGID_15_)" d="M89.452,21.892c0.348,0.315,0.627,0.687,0.803,1.111c0.534,1.118,0.42,2.406-0.821,3.285
		c-3.084,2.185-7.146-1.904-4.638-3.441c0.268-0.163,0.596-0.243,0.975-0.205c0.59,0.061,1.027,0.356,1.515,0.654
		c-0.812-0.114-1.613-0.593-2.319-0.171l0,0c-2.088,1.282,1.539,4.829,4.271,2.905c1.955-1.375,0.736-3.833-1.149-4.688
		c-0.954-0.433-2.073-0.616-3.013-0.546c-1.436,0.108-3.053,1.149-4.336,2.26c1.505-1.036,2.739-0.934,3.782-0.247
		c-0.803-0.324-1.394,0.404-2.115,0.631c-0.515,0.162-0.854-0.049-1.283-0.034c-0.476,0.018-0.757,0.149-1.321,0.529
		c-0.158,0.161-0.307,0.317-0.442,0.469c-0.08-0.073-0.09-0.082-0.171-0.155c1.165-1.293,2.797-2.852,4.574-3.492
		c6.001-3.389,14.135,3.618,8.807,8.914c0.9-1.46,1.026-1.1,1.095-2.9c0.059-1.546-0.618-1.285-0.758-1.706
		c-0.119-0.047-0.545-0.274-0.596-0.269c-1.52,0.162-0.004-2.772-2.428-3.198l-0.204-0.036c-0.688-0.12-1.204-0.545-2.142-0.778
		c0.242,0.077,0.479,0.168,0.707,0.273C88.696,21.263,89.105,21.552,89.452,21.892L89.452,21.892z"/>
	
		<linearGradient id="SVGID_16_" gradientUnits="userSpaceOnUse" x1="-241.981" y1="532.9219" x2="-241.981" y2="499.0732" gradientTransform="matrix(-0.4773 -0.0601 -0.0601 0.4773 -9.7676 -232.3469)">
		<stop  offset="0.02" style="stop-color:#B4742A"/>
		<stop  offset="0.1736" style="stop-color:#C6912C"/>
		<stop  offset="0.3272" style="stop-color:#F7D777"/>
		<stop  offset="0.4904" style="stop-color:#DCAF49"/>
		<stop  offset="0.6344" style="stop-color:#F7D777"/>
		<stop  offset="0.8072" style="stop-color:#C6912C"/>
		<stop  offset="0.98" style="stop-color:#B4742A"/>
	</linearGradient>
	<path fill-rule="evenodd" clip-rule="evenodd" fill="url(#SVGID_16_)" d="M70.27,36.127c1.645-2.315,4.36-6.547,1.822-7.035
		c-1.271-2.228,4.335-3.46,4.695-4.456c0.215-0.593-0.825-0.083-0.463-0.666c0.52-0.837,2.851-0.817,3.441-2.121
		c0.383-0.844-0.428-1.272-1.369-0.843c-4.332,0.96-7.42,4.012-8.13,8.966l0.003,4.709V36.127L70.27,36.127z"/>
	
		<linearGradient id="SVGID_17_" gradientUnits="userSpaceOnUse" x1="-285.6602" y1="485.5488" x2="-273.015" y2="468.7681" gradientTransform="matrix(-0.29 -0.2137 -0.2137 0.29 95.0143 -162.5046)">
		<stop  offset="0" style="stop-color:#B4742A"/>
		<stop  offset="0.16" style="stop-color:#C6912C"/>
		<stop  offset="0.32" style="stop-color:#F7D777"/>
		<stop  offset="0.49" style="stop-color:#DCAF49"/>
		<stop  offset="0.64" style="stop-color:#F7D777"/>
		<stop  offset="0.82" style="stop-color:#C6912C"/>
		<stop  offset="1" style="stop-color:#B4742A"/>
	</linearGradient>
	<path fill-rule="evenodd" clip-rule="evenodd" fill="url(#SVGID_17_)" d="M74.608,36.278c0.357-0.309-0.509-0.356-0.059-0.604
		c0.646-0.357,2.162,0.507,3.024-0.128c0.56-0.412,0.185-0.988-0.586-1.052c-1.244-0.373-3.582-0.991-6.724,1.633
		C72.717,34.604,73.161,36.228,74.608,36.278L74.608,36.278z"/>
	
		<linearGradient id="SVGID_18_" gradientUnits="userSpaceOnUse" x1="-170.7051" y1="393.7939" x2="-162.8757" y2="449.5027" gradientTransform="matrix(0.0419 0.2633 0.2633 -0.0419 -80.4384 93.7353)">
		<stop  offset="0.22" style="stop-color:#B4742A"/>
		<stop  offset="0.3096" style="stop-color:#C6912C"/>
		<stop  offset="0.3992" style="stop-color:#F7D777"/>
		<stop  offset="0.4944" style="stop-color:#DCAF49"/>
		<stop  offset="0.5784" style="stop-color:#F7D777"/>
		<stop  offset="0.6792" style="stop-color:#C6912C"/>
		<stop  offset="0.78" style="stop-color:#B4742A"/>
	</linearGradient>
	<path fill-rule="evenodd" clip-rule="evenodd" fill="url(#SVGID_18_)" d="M31.398,31.129c-8.042,4.381-12.829,3.136-15.864-0.574
		c2.012,1.647,4.35,0.088,6.621,0.083c1.617-0.003,2.4,0.903,3.645,1.243C27.454,32.332,28.458,32.057,31.398,31.129L31.398,31.129z
		"/>
	
		<linearGradient id="SVGID_19_" gradientUnits="userSpaceOnUse" x1="-170.374" y1="490.2529" x2="-179.492" y2="493.0005" gradientTransform="matrix(1.4006 0.6342 -0.6342 1.4006 581.1395 -562.8567)">
		<stop  offset="0.07" style="stop-color:#B4742A"/>
		<stop  offset="0.2076" style="stop-color:#C6912C"/>
		<stop  offset="0.3452" style="stop-color:#F7D777"/>
		<stop  offset="0.4914" style="stop-color:#DCAF49"/>
		<stop  offset="0.6204" style="stop-color:#F7D777"/>
		<stop  offset="0.7752" style="stop-color:#C6912C"/>
		<stop  offset="0.93" style="stop-color:#B4742A"/>
	</linearGradient>
	<path fill-rule="evenodd" clip-rule="evenodd" fill="url(#SVGID_19_)" d="M31.63,19.674c-3.012-0.458-4.919-4.244-5.638-2.199
		c-2.007,0.779-2.333-4.027-3.114-4.449c-0.466-0.251-0.171,0.674-0.61,0.301c-0.631-0.534-0.324-2.466-1.332-3.118
		c-0.652-0.422-1.109,0.198-0.869,1.031C20.418,16.305,24.288,19.935,31.63,19.674L31.63,19.674z"/>
	
		<linearGradient id="SVGID_20_" gradientUnits="userSpaceOnUse" x1="-190.1162" y1="509.5234" x2="-191.65" y2="516.7392" gradientTransform="matrix(1.5375 0 0 1.5375 326.3658 -774.1888)">
		<stop  offset="0.08" style="stop-color:#B4742A"/>
		<stop  offset="0.2144" style="stop-color:#C6912C"/>
		<stop  offset="0.3488" style="stop-color:#F7D777"/>
		<stop  offset="0.4916" style="stop-color:#DCAF49"/>
		<stop  offset="0.6176" style="stop-color:#F7D777"/>
		<stop  offset="0.7688" style="stop-color:#C6912C"/>
		<stop  offset="0.92" style="stop-color:#B4742A"/>
	</linearGradient>
	<path fill="url(#SVGID_20_)" d="M37.647,19.077c-1.791,0.667-4.909,0.117-6.591-0.619c-1.931-0.846-3.396-2.297-3.384-4.493h-0.001
		c0.231-3.771,4.354-3.765,5.518-1.26c0.47,1.328,0.144,2.493-1.384,2.598c-0.843,0.058-2.306-0.39-2.131-1.459l0.001-0.013
		c0.113-1.168,1.787-1.032,2.01-0.374c-0.06-0.566-0.64-0.852-1.157-0.845c-0.679,0.009-1.183,0.463-1.259,1.165h-0.001
		c-0.228,1.377,1.439,2.016,2.566,1.938c1.196-0.082,1.821-0.738,1.94-1.636c0.235,0.129,0.352,0.382,0.104,0.705
		c0.004,0.011,0.015,0.045,0.056,0.045c0.831,0.012,0.137-1.213,0.141-1.229c0.178-1.049,0.536-0.362,0.756-0.36
		c0.103-0.512-0.914-0.744-0.828-1.039c0.253-0.849,0.647-0.269,0.853-0.202c0.021-0.075-0.034-0.293-0.12-0.324
		c-2.36-0.872-1.274,0.063-1.381-1.642c-0.207-0.067-0.41,0-0.626,0.074c-1.318,0.447-0.705-0.315-1.433-0.549
		c-0.019,0.018-0.028,0.033-0.066,0.053c-0.636,0.337-0.891,0.77-1.338,0.445c-0.729-0.532-0.313-0.15-0.699-0.313
		c-0.31,0.219-0.565,1.063-1.059,1.243l-0.082,0.029c-0.469,0.17-0.474,0.896-0.51,1.564c-0.151,0.396-0.251,0.853-0.281,1.373
		l-0.001,0.011c-0.013,2.364,1.547,3.96,3.633,4.873c1.788,0.782,4.998,1.336,6.9,0.627L37.647,19.077L37.647,19.077z"/>
	
		<linearGradient id="SVGID_21_" gradientUnits="userSpaceOnUse" x1="-180.1318" y1="497.1602" x2="-185.1577" y2="499.4439" gradientTransform="matrix(1.3608 0.7156 -0.7156 1.3608 641.7878 -529.5024)">
		<stop  offset="0" style="stop-color:#B4742A"/>
		<stop  offset="0.2034" style="stop-color:#C6912C"/>
		<stop  offset="0.3617" style="stop-color:#F7D777"/>
		<stop  offset="0.4956" style="stop-color:#DCAF49"/>
		<stop  offset="0.5899" style="stop-color:#F7D777"/>
		<stop  offset="0.7543" style="stop-color:#C6912C"/>
		<stop  offset="1" style="stop-color:#B4742A"/>
	</linearGradient>
	<path fill-rule="evenodd" clip-rule="evenodd" fill="url(#SVGID_21_)" d="M42.374,18.259c-2.384,0.234-4.661,0.989-7.148,0.704
		c-2.282-0.404-0.702-1.225-1.191-1.351c0.694-2.517,1.517,1.177,3.164,0.858c1.179-0.228,1.144-2.68,2.206-1.115
		C39.678,17.761,40.709,18.376,42.374,18.259L42.374,18.259z"/>
	
		<linearGradient id="SVGID_22_" gradientUnits="userSpaceOnUse" x1="-155.3496" y1="486.5977" x2="-154.3724" y2="491.6248" gradientTransform="matrix(1.4006 0.6342 -0.6342 1.4006 540.4735 -571.5051)">
		<stop  offset="0.08" style="stop-color:#B4742A"/>
		<stop  offset="0.2144" style="stop-color:#C6912C"/>
		<stop  offset="0.3488" style="stop-color:#F7D777"/>
		<stop  offset="0.4916" style="stop-color:#DCAF49"/>
		<stop  offset="0.6176" style="stop-color:#F7D777"/>
		<stop  offset="0.7688" style="stop-color:#C6912C"/>
		<stop  offset="0.92" style="stop-color:#B4742A"/>
	</linearGradient>
	<path fill-rule="evenodd" clip-rule="evenodd" fill="url(#SVGID_22_)" d="M17.386,16.646c-0.962-0.705-1.199-0.873-1.751-1.813
		c-0.668-1.139-1.914-0.456-1.646-1.653c-0.884,0.363,0.652,1.757-0.021,1.66c-0.097-0.028-0.877-0.901-0.637-1.348
		c0.101-0.186,0.173-0.29,0.07-0.468c0.289-0.533-1.732-0.624-0.839-2.458c-0.616,0.464-0.912,1.631-0.144,2.843
		c0.269,0.424-0.847,0.925,0.827,1.634c0.244,0.165,0.48,0.293,0.711,0.395c-2.896-0.575-4.495,0.344-5.381,1.955
		c1.124-1.467,1.886,0.121,2.902-0.576c0.328-1.527,0.98-0.591,1.5-0.842c0.726-0.412,1.222,1.11,2.181-0.011
		C15.668,15.73,16.592,16.092,17.386,16.646L17.386,16.646z"/>
	
		<linearGradient id="SVGID_23_" gradientUnits="userSpaceOnUse" x1="-188.3296" y1="516.7852" x2="-188.942" y2="521.7724" gradientTransform="matrix(1.5375 0 0 1.5375 332.8649 -783.849)">
		<stop  offset="0.25" style="stop-color:#B4742A"/>
		<stop  offset="0.33" style="stop-color:#C6912C"/>
		<stop  offset="0.41" style="stop-color:#F7D777"/>
		<stop  offset="0.495" style="stop-color:#DCAF49"/>
		<stop  offset="0.57" style="stop-color:#F7D777"/>
		<stop  offset="0.66" style="stop-color:#C6912C"/>
		<stop  offset="0.75" style="stop-color:#B4742A"/>
	</linearGradient>
	<path fill-rule="evenodd" clip-rule="evenodd" fill="url(#SVGID_23_)" d="M39.924,15.693c-0.336-0.196-0.326-0.581-1.021-0.833
		c-0.452-0.164,0.689-0.924,0.357-1.722c0-0.002,0.004-0.657,0.344-0.599c0.535,0.091,0.946-2.139,1.401-1.461
		c0.011,0.017-0.16,0.968,0.39,0.441c0.178,0.056,0.102,0.123,0.311,0.162c1.566-0.214,3.188,1.287,2.844,3.208l-0.001,0.006
		c-0.472,1.884-2.813,1.995-3.685,0.139l-0.002-0.003c-0.652-1.561,1.326-3.028,2.549-1.48c-0.438-0.278-0.686-0.508-1.257-0.454
		c-0.903,0.031-1.451,1.026-1.104,1.855l0,0c0.058,0.121,0.122,0.233,0.191,0.336c0.163-0.005,0.369,0.012,0.448,0.197
		c0.146,0.334,0.193,0.493,0.762,0.314c0.078-0.024,0.033-0.02,0.112-0.024c0.107-0.26,0.407,0.027,0.641-0.064
		c0.032-0.013,0.032-0.007,0.06-0.007c0.249-0.376,0.111-0.192,0.269-0.495c0.001,0,0.477-0.045,0.449-0.462l-0.022-0.043
		c-0.089-0.185,0.033-0.55,0.247-0.683c0.038-0.044,0.085-0.131,0.12-0.221c-0.414-1.797-2.708-2.76-4.047-1.017l0,0
		c-1.035,1.479-0.505,2.926,0.877,3.894c1.217,0.852,3.105,1.343,5.258,1.164l0.017,0.204c-2.202,0.183-4.14-0.323-5.393-1.201
		C40.563,16.51,40.183,16.121,39.924,15.693L39.924,15.693z"/>
	
		<linearGradient id="SVGID_24_" gradientUnits="userSpaceOnUse" x1="-199.4346" y1="512.2334" x2="-208.0179" y2="516.0881" gradientTransform="matrix(1.5375 0 0 1.5375 364.7115 -766.1517)">
		<stop  offset="0" style="stop-color:#B4742A"/>
		<stop  offset="0.2242" style="stop-color:#C6912C"/>
		<stop  offset="0.3758" style="stop-color:#F7D777"/>
		<stop  offset="0.4956" style="stop-color:#DCAF49"/>
		<stop  offset="0.6019" style="stop-color:#F7D777"/>
		<stop  offset="0.7749" style="stop-color:#C6912C"/>
		<stop  offset="1" style="stop-color:#B4742A"/>
	</linearGradient>
	<path fill="url(#SVGID_24_)" d="M51.079,21.892c-0.349,0.315-0.628,0.687-0.804,1.111c-0.534,1.118-0.42,2.406,0.821,3.285
		c3.083,2.185,7.146-1.904,4.638-3.441c-0.266-0.163-0.596-0.243-0.975-0.205c-0.59,0.061-1.027,0.356-1.515,0.654
		c0.812-0.114,1.614-0.593,2.319-0.171l0,0c2.087,1.282-1.539,4.829-4.272,2.905c-1.954-1.375-0.735-3.833,1.15-4.688
		c0.955-0.433,2.073-0.616,3.012-0.546c1.438,0.108,3.054,1.149,4.337,2.26c-1.504-1.036-2.738-0.934-3.783-0.247
		c0.805-0.324,1.394,0.404,2.116,0.631c0.515,0.162,0.854-0.049,1.283-0.034c0.476,0.018,0.757,0.149,1.321,0.529
		c0.157,0.161,0.305,0.317,0.441,0.469c0.081-0.073,0.092-0.082,0.172-0.155c-1.165-1.293-2.797-2.852-4.575-3.492
		c-6-3.389-14.135,3.618-8.806,8.914c-0.9-1.46-1.025-1.1-1.095-2.9c-0.058-1.546,0.62-1.285,0.758-1.706
		c0.12-0.047,0.545-0.274,0.597-0.269c1.518,0.162,0.003-2.772,2.427-3.198l0.204-0.036c0.688-0.12,1.205-0.545,2.141-0.778
		c-0.241,0.077-0.479,0.168-0.706,0.273C51.835,21.263,51.424,21.552,51.079,21.892L51.079,21.892z"/>
	
		<linearGradient id="SVGID_25_" gradientUnits="userSpaceOnUse" x1="-235.2007" y1="498.5439" x2="-244.0124" y2="533.8859" gradientTransform="matrix(0.4773 -0.0601 0.0601 0.4773 148.8438 -232.3469)">
		<stop  offset="0.02" style="stop-color:#B4742A"/>
		<stop  offset="0.1736" style="stop-color:#C6912C"/>
		<stop  offset="0.3272" style="stop-color:#F7D777"/>
		<stop  offset="0.4904" style="stop-color:#DCAF49"/>
		<stop  offset="0.6344" style="stop-color:#F7D777"/>
		<stop  offset="0.8072" style="stop-color:#C6912C"/>
		<stop  offset="0.98" style="stop-color:#B4742A"/>
	</linearGradient>
	<path fill-rule="evenodd" clip-rule="evenodd" fill="url(#SVGID_25_)" d="M70.262,36.127c-1.645-2.315-4.361-6.547-1.824-7.035
		c1.273-2.228-4.335-3.46-4.694-4.456c-0.214-0.593,0.825-0.083,0.464-0.666c-0.521-0.837-2.852-0.817-3.442-2.121
		c-0.383-0.844,0.429-1.272,1.368-0.843c4.332,0.96,7.421,4.012,8.129,8.966v4.709V36.127L70.262,36.127z"/>
	
		<linearGradient id="SVGID_26_" gradientUnits="userSpaceOnUse" x1="-269.3965" y1="482.2627" x2="-289.0376" y2="472.255" gradientTransform="matrix(0.29 -0.2137 0.2137 0.29 44.0629 -162.5046)">
		<stop  offset="0" style="stop-color:#B4742A"/>
		<stop  offset="0.16" style="stop-color:#C6912C"/>
		<stop  offset="0.32" style="stop-color:#F7D777"/>
		<stop  offset="0.49" style="stop-color:#DCAF49"/>
		<stop  offset="0.64" style="stop-color:#F7D777"/>
		<stop  offset="0.82" style="stop-color:#C6912C"/>
		<stop  offset="1" style="stop-color:#B4742A"/>
	</linearGradient>
	<path fill-rule="evenodd" clip-rule="evenodd" fill="url(#SVGID_26_)" d="M65.922,36.278c-0.357-0.309,0.509-0.356,0.059-0.604
		c-0.646-0.357-2.162,0.507-3.025-0.128c-0.558-0.412-0.185-0.988,0.588-1.052c1.242-0.373,3.581-0.991,6.722,1.633
		C67.813,34.604,67.369,36.228,65.922,36.278L65.922,36.278z"/>
	<g>
		
			<linearGradient id="SVGID_27_" gradientUnits="userSpaceOnUse" x1="-291.2773" y1="450.2871" x2="-309.9687" y2="459.003" gradientTransform="matrix(1.5375 0 0 1.5375 564.9489 -617.2474)">
			<stop  offset="0.09" style="stop-color:#B4742A"/>
			<stop  offset="0.2212" style="stop-color:#C6912C"/>
			<stop  offset="0.3524" style="stop-color:#F7D777"/>
			<stop  offset="0.4918" style="stop-color:#DCAF49"/>
			<stop  offset="0.6148" style="stop-color:#F7D777"/>
			<stop  offset="0.7624" style="stop-color:#C6912C"/>
			<stop  offset="0.91" style="stop-color:#B4742A"/>
		</linearGradient>
		<path fill-rule="evenodd" clip-rule="evenodd" fill="url(#SVGID_27_)" d="M121.211,74.045c0.157,4.389-2.442,7.775-5.775,10.153
			c-1.947,1.283-3.868,2.286-5.801,3c-1.126,0.406-2.213,0.708-3.195,0.907c-0.361,0.078-0.728,0.144-1.097,0.199
			C99,89.236,92.247,87.148,83.809,81.857c2.009,0.893,7.623,4.101,10.764,2.66c2.743,0.076,3.712-3.574,8.479-3.574
			c3.032,0,3.827-0.063,6.832,0.369c3.744,0.537,4.797,1.193,7.96-1.069C119.767,78.867,121.211,76.451,121.211,74.045
			L121.211,74.045z"/>
		
			<linearGradient id="SVGID_28_" gradientUnits="userSpaceOnUse" x1="-141.8887" y1="451.2451" x2="-166.3451" y2="455.5575" gradientTransform="matrix(1.5375 0 0 1.5375 275.0797 -617.2474)">
			<stop  offset="0.12" style="stop-color:#B4742A"/>
			<stop  offset="0.2416" style="stop-color:#C6912C"/>
			<stop  offset="0.3632" style="stop-color:#F7D777"/>
			<stop  offset="0.4924" style="stop-color:#DCAF49"/>
			<stop  offset="0.6064" style="stop-color:#F7D777"/>
			<stop  offset="0.7432" style="stop-color:#C6912C"/>
			<stop  offset="0.88" style="stop-color:#B4742A"/>
		</linearGradient>
		<path fill-rule="evenodd" clip-rule="evenodd" fill="url(#SVGID_28_)" d="M19.684,74.045c-0.158,4.408,2.467,7.804,5.818,10.185
			c1.905,1.251,3.784,2.231,5.674,2.938c1.156,0.42,2.273,0.734,3.279,0.938c0.372,0.08,0.748,0.147,1.129,0.204
			c6.331,0.919,13.072-1.17,21.492-6.447c-2.017,0.898-7.618,4.093-10.753,2.655c-2.743,0.076-3.712-3.574-8.479-3.574
			c-3.03,0-3.827-0.063-6.832,0.369c-3.742,0.537-4.797,1.193-7.959-1.069C21.128,78.867,19.684,76.451,19.684,74.045L19.684,74.045
			z"/>
	</g>
	
		<linearGradient id="SVGID_29_" gradientUnits="userSpaceOnUse" x1="-287.627" y1="506.5498" x2="-286.4695" y2="517.5628" gradientTransform="matrix(1.4006 0.6342 -0.6342 1.4006 769.8622 -513.9192)">
		<stop  offset="0.14" style="stop-color:#B4742A"/>
		<stop  offset="0.2552" style="stop-color:#C6912C"/>
		<stop  offset="0.3704" style="stop-color:#F7D777"/>
		<stop  offset="0.4928" style="stop-color:#DCAF49"/>
		<stop  offset="0.6008" style="stop-color:#F7D777"/>
		<stop  offset="0.7304" style="stop-color:#C6912C"/>
		<stop  offset="0.86" style="stop-color:#B4742A"/>
	</linearGradient>
	<path fill="url(#SVGID_29_)" d="M63.008,26.75c-7.736-9.935-15.22-8.678-23.286-7.323c-4.864,0.816-9.936,1.669-15.425,0.215
		h-0.001c-5.972-1.453-8.734-4.04-9.525-6.623c-0.544-1.782-0.152-3.556,0.777-4.964c2.477-3.752,7.253-3.909,9.869-0.052
		c-3.739,4.218-5.3-5.59-9.28,0.439c-0.821,1.244-1.169,2.806-0.69,4.371c0.725,2.369,3.333,4.761,9.019,6.144l0.008,0.003
		c5.342,1.415,10.341,0.576,15.133-0.229c9.764-1.639,18.695-3.139,28.191,14.131c0.733,1.208,1.558,2.298,2.465,3.264
		C68.328,34.988,64.846,28.792,63.008,26.75L63.008,26.75z"/>
	
		<linearGradient id="SVGID_30_" gradientUnits="userSpaceOnUse" x1="-306.9727" y1="516.5156" x2="-268.8869" y2="507.0198" gradientTransform="matrix(-1.4006 0.6342 0.6342 1.4006 -630.785 -513.9192)">
		<stop  offset="0.16" style="stop-color:#B4742A"/>
		<stop  offset="0.2688" style="stop-color:#C6912C"/>
		<stop  offset="0.3776" style="stop-color:#F7D777"/>
		<stop  offset="0.4932" style="stop-color:#DCAF49"/>
		<stop  offset="0.5952" style="stop-color:#F7D777"/>
		<stop  offset="0.7176" style="stop-color:#C6912C"/>
		<stop  offset="0.84" style="stop-color:#B4742A"/>
	</linearGradient>
	<path fill="url(#SVGID_30_)" d="M77.522,26.75c7.736-9.935,15.22-8.678,23.287-7.323c4.864,0.816,9.936,1.669,15.424,0.215l0,0
		c5.973-1.453,8.736-4.04,9.525-6.623c0.545-1.782,0.153-3.556-0.776-4.964c-2.478-3.752-7.254-3.909-9.868-0.052
		c3.738,4.218,5.299-5.59,9.279,0.439c0.821,1.244,1.168,2.806,0.689,4.371c-0.725,2.369-3.333,4.761-9.019,6.144l-0.006,0.003
		c-5.342,1.415-10.34,0.576-15.135-0.229c-9.764-1.639-18.695-3.139-28.19,14.131c-0.733,1.208-1.558,2.298-2.464,3.264
		C72.202,34.988,75.685,28.792,77.522,26.75L77.522,26.75z"/>
	
		<linearGradient id="SVGID_31_" gradientUnits="userSpaceOnUse" x1="-216.2651" y1="451.1504" x2="-269.9975" y2="412.1116" gradientTransform="matrix(-0.2101 -0.4951 0.4951 -0.2101 -215.1585 21.9174)">
		<stop  offset="0.07" style="stop-color:#B4742A"/>
		<stop  offset="0.2076" style="stop-color:#C6912C"/>
		<stop  offset="0.3452" style="stop-color:#F7D777"/>
		<stop  offset="0.4914" style="stop-color:#DCAF49"/>
		<stop  offset="0.6204" style="stop-color:#F7D777"/>
		<stop  offset="0.7752" style="stop-color:#C6912C"/>
		<stop  offset="0.93" style="stop-color:#B4742A"/>
	</linearGradient>
	<path fill="url(#SVGID_31_)" d="M70.27,44.995c-0.153,4.21-1.709,8.916-4.258,13.103c-3.961,6.505-10.747,12.353-18.773,12.062
		c-8.141-0.296-15.609-6.871-16.763-14.961c-2.109-14.804,14.854-23.433,20.297-13.554c1.163,2.11,2.632,5.787,0.279,8.369
		c-8.192-1.881,1.683-7.525-3.509-10.567c-6.284-4.073-17.841,3.669-16.137,15.617c1.088,7.638,8.174,13.879,15.866,14.158
		c7.671,0.279,14.161-5.406,17.938-11.61C67.223,54.304,69.16,51.175,70.27,44.995L70.27,44.995z"/>
	<path fill-rule="evenodd" clip-rule="evenodd" fill="#481111" d="M57.452,45.767c-5.788-16.584-20.759-21.048-35.293-8.959
		c2.604,12.45,12.812,18.083,29.628,17.786C57.877,54.525,59.529,52.327,57.452,45.767L57.452,45.767z"/>
	<g>
		
			<linearGradient id="SVGID_32_" gradientUnits="userSpaceOnUse" x1="-251.3613" y1="623.0439" x2="-266.1255" y2="608.7863" gradientTransform="matrix(-0.2336 -0.4845 0.4845 -0.2336 -336.551 76.9718)">
			<stop  offset="0.13" style="stop-color:#B4742A"/>
			<stop  offset="0.2484" style="stop-color:#C6912C"/>
			<stop  offset="0.3668" style="stop-color:#F7D777"/>
			<stop  offset="0.4926" style="stop-color:#DCAF49"/>
			<stop  offset="0.6036" style="stop-color:#F7D777"/>
			<stop  offset="0.7368" style="stop-color:#C6912C"/>
			<stop  offset="0.87" style="stop-color:#B4742A"/>
		</linearGradient>
		<path fill="url(#SVGID_32_)" d="M27.516,59.537c-1.188-1.67-3.201-3.127-4.777-3.681c-1.813-0.636-3.691-0.579-5.047,0.894
			l-0.001-0.001c-2.188,2.658,0.563,5.213,2.897,4.267c1.137-0.594,1.643-1.572,0.689-2.591c-0.526-0.562-1.78-1.173-2.327-0.351
			l-0.007,0.01c-0.65,0.849,0.55,1.797,1.107,1.498c-0.393,0.34-0.956,0.169-1.297-0.156c-0.447-0.428-0.502-1.045-0.116-1.56l0,0
			c0.703-1.059,2.212-0.449,2.914,0.302c1.128,1.204,0.573,2.473-0.804,3.186l-0.009,0.006l-0.005,0.002
			c-2.688,1.098-5.781-1.89-3.325-4.86l0.005-0.008c1.46-1.583,3.491-1.679,5.448-0.992c1.679,0.589,4.162,2.213,4.99,3.867
			L27.516,59.537L27.516,59.537z"/>
		
			<linearGradient id="SVGID_33_" gradientUnits="userSpaceOnUse" x1="16.0991" y1="532.7305" x2="-6.6566" y2="494.8586" gradientTransform="matrix(0.0736 -0.1415 0.1415 0.0736 -46.3842 25.1318)">
			<stop  offset="0.01" style="stop-color:#B4742A"/>
			<stop  offset="0.1668" style="stop-color:#C6912C"/>
			<stop  offset="0.3236" style="stop-color:#F7D777"/>
			<stop  offset="0.4902" style="stop-color:#DCAF49"/>
			<stop  offset="0.6372" style="stop-color:#F7D777"/>
			<stop  offset="0.8136" style="stop-color:#C6912C"/>
			<stop  offset="0.99" style="stop-color:#B4742A"/>
		</linearGradient>
		<path fill-rule="evenodd" clip-rule="evenodd" fill="url(#SVGID_33_)" d="M31.016,63.988c-3.736-4.009-6.689-4.207-9.114-2.676
			c1.454-0.555,2.486,0.773,3.774,1.205c0.917,0.309,1.533-0.057,2.304-0.016C29.004,62.56,29.522,62.906,31.016,63.988
			L31.016,63.988z"/>
		
			<linearGradient id="SVGID_34_" gradientUnits="userSpaceOnUse" x1="-355.0234" y1="-173.1382" x2="-326.4952" y2="-207.1368" gradientTransform="matrix(-0.2298 -0.2361 -0.2361 0.2298 -112.2066 10.8104)">
			<stop  offset="0.01" style="stop-color:#B4742A"/>
			<stop  offset="0.1668" style="stop-color:#C6912C"/>
			<stop  offset="0.3236" style="stop-color:#F7D777"/>
			<stop  offset="0.4902" style="stop-color:#DCAF49"/>
			<stop  offset="0.6372" style="stop-color:#F7D777"/>
			<stop  offset="0.8136" style="stop-color:#C6912C"/>
			<stop  offset="0.99" style="stop-color:#B4742A"/>
		</linearGradient>
		<path fill-rule="evenodd" clip-rule="evenodd" fill="url(#SVGID_34_)" d="M11.387,44.527c3.054,0.351,5.236,1.756,6.996,3.878
			c-3.644-3.009-5-1.667-6.934,0.594c0.093-0.328,1.691-2.363-1.11-2.372c-0.905-0.003-3.051,3.258-3.957,2.327
			c0.362-0.801,2.245-0.777,1.169-1.883c-1.027-1.057-2.007,1.697-3.953-0.303C8.101,46.508,5.318,43.921,11.387,44.527
			L11.387,44.527z"/>
		
			<linearGradient id="SVGID_35_" gradientUnits="userSpaceOnUse" x1="-221.6812" y1="453.9063" x2="-212.4817" y2="458.1442" gradientTransform="matrix(1.5375 0 0 1.5375 380.7594 -637.5375)">
			<stop  offset="0.1" style="stop-color:#B4742A"/>
			<stop  offset="0.228" style="stop-color:#C6912C"/>
			<stop  offset="0.356" style="stop-color:#F7D777"/>
			<stop  offset="0.492" style="stop-color:#DCAF49"/>
			<stop  offset="0.612" style="stop-color:#F7D777"/>
			<stop  offset="0.756" style="stop-color:#C6912C"/>
			<stop  offset="0.9" style="stop-color:#B4742A"/>
		</linearGradient>
		<path fill="url(#SVGID_35_)" d="M56.699,66.938c-3.658,1.781-7.32,2.202-10.057,1.529c-3.219-0.79-5.213-3.124-4.369-6.56
			l0.002-0.008c1.455-4.963,8.156-3.936,9.094,0.877l0.001,0.012c0.443,3.549-3.5,5.295-6.23,2.691l-0.006-0.004
			c-2.159-2.242,0.26-6.08,3.389-4.236c-0.937-0.187-1.513-0.416-2.458,0.056c-1.426,0.611-1.764,2.454-0.872,3.667
			c0.192,0.191,0.456,0.324,0.737,0.271c0.936-0.174,0.604,0.129,1.109,0.657c0.833,0.192,1.079-0.528,1.752-0.607
			c0.902-0.107,1.123-0.072,1.216-1.151c0.042-0.484,0.476-0.404,0.908-1.102c0.047-0.073,0.042-0.199,0.036-0.4
			c-1.018-4.236-6.992-5.139-8.313-0.625l0,0c-0.791,3.229,1.083,5.357,4.096,6.099c2.657,0.653,6.226,0.237,9.801-1.503
			L56.699,66.938L56.699,66.938z"/>
		
			<linearGradient id="SVGID_36_" gradientUnits="userSpaceOnUse" x1="-198.9351" y1="441.71" x2="-200.3843" y2="455.4984" gradientTransform="matrix(1.5375 0 0 1.5375 347.5533 -631.1302)">
			<stop  offset="0.01" style="stop-color:#B4742A"/>
			<stop  offset="0.1668" style="stop-color:#C6912C"/>
			<stop  offset="0.3236" style="stop-color:#F7D777"/>
			<stop  offset="0.4902" style="stop-color:#DCAF49"/>
			<stop  offset="0.6372" style="stop-color:#F7D777"/>
			<stop  offset="0.8136" style="stop-color:#C6912C"/>
			<stop  offset="0.99" style="stop-color:#B4742A"/>
		</linearGradient>
		<path fill="url(#SVGID_36_)" d="M45.068,69.184c-16.074-5.067-9.783-23.495-1.188-20.842c1.098,0.339,2.039,1.01,2.414,1.737
			c-0.27-0.493-1.491-1.287-2.472-1.552c-0.086-0.026-0.171-0.047-0.257-0.069c-0.808,0.039-2.171,0.021-3.377,0.956
			c-0.666,2.755-1.968,1.234-1.957,2.686c-0.003,0.002-0.654,0.797-0.742,0.979c-0.231,0.478,0.047,0.315,0.248,0.786
			c0.343,0.81-2.081,0.505-1.455,1.806c0.792,1.651-1.066,1.143-0.294,2.965c0.191,0.451-0.256,0.154-0.156,2.057
			c1.071,3.396,3.907,6.609,9.295,8.307L45.068,69.184L45.068,69.184z"/>
		
			<linearGradient id="SVGID_37_" gradientUnits="userSpaceOnUse" x1="5749.8711" y1="-1045.7622" x2="5792.5439" y2="-1056.2451" gradientTransform="matrix(-0.2868 -0.1458 0.1458 -0.2868 1831.6968 589.4125)">
			<stop  offset="0.08" style="stop-color:#B4742A"/>
			<stop  offset="0.2144" style="stop-color:#C6912C"/>
			<stop  offset="0.3488" style="stop-color:#F7D777"/>
			<stop  offset="0.4916" style="stop-color:#DCAF49"/>
			<stop  offset="0.6176" style="stop-color:#F7D777"/>
			<stop  offset="0.7688" style="stop-color:#C6912C"/>
			<stop  offset="0.92" style="stop-color:#B4742A"/>
		</linearGradient>
		<path fill-rule="evenodd" clip-rule="evenodd" fill="url(#SVGID_37_)" d="M30.862,55.859c-1.705-2.056-2.11-2.563-4.286-3.669
			c-2.633-1.338-0.941-2.933-3.913-3.456c0.693-2.019,4.016,1.223,3.707-0.27c-0.077-0.211-2.134-1.838-3.097-1.241
			c-0.403,0.25-0.624,0.428-1.036,0.219c-1.149,0.717-2.554-2.403-5.603-1.542c1.269-0.414,1.572-1.265,3.372-1.42
			c1.588-0.138,3.565-0.345,6.719,2.345C29.212,50.056,28.449,52.806,30.862,55.859L30.862,55.859z"/>
		
			<linearGradient id="SVGID_38_" gradientUnits="userSpaceOnUse" x1="-124.4814" y1="509.6738" x2="-209.7667" y2="430.1441" gradientTransform="matrix(-0.2101 -0.4951 0.4951 -0.2101 -235.7357 70.9955)">
			<stop  offset="0.16" style="stop-color:#B4742A"/>
			<stop  offset="0.2688" style="stop-color:#C6912C"/>
			<stop  offset="0.3776" style="stop-color:#F7D777"/>
			<stop  offset="0.4932" style="stop-color:#DCAF49"/>
			<stop  offset="0.5952" style="stop-color:#F7D777"/>
			<stop  offset="0.7176" style="stop-color:#C6912C"/>
			<stop  offset="0.84" style="stop-color:#B4742A"/>
		</linearGradient>
		<path fill="url(#SVGID_38_)" d="M63.062,62.184C49.549,76.083,40.072,72.852,32.326,65.32
			c-5.86-5.697-15.511-22.207-22.363-22.842l-0.025-0.003c-4.102-0.606-7.579,1.355-7.635,5.685
			c-0.098,7.687,8.396,2.194,7.106,7.405c-4.654,0.477-8.103-2.882-8.045-7.415c0.063-4.893,4.01-7.293,8.695-6.607
			c7.468,0.702,16.769,17.124,22.92,23.103C48.147,79.088,61.26,62.986,63.062,62.184L63.062,62.184z"/>
	</g>
	
		<linearGradient id="SVGID_39_" gradientUnits="userSpaceOnUse" x1="-126.0835" y1="464.7227" x2="-205.2751" y2="468.8729" gradientTransform="matrix(0.2101 -0.4951 -0.4951 -0.2101 374.8367 70.9955)">
		<stop  offset="0.16" style="stop-color:#B4742A"/>
		<stop  offset="0.2688" style="stop-color:#C6912C"/>
		<stop  offset="0.3776" style="stop-color:#F7D777"/>
		<stop  offset="0.4932" style="stop-color:#DCAF49"/>
		<stop  offset="0.5952" style="stop-color:#F7D777"/>
		<stop  offset="0.7176" style="stop-color:#C6912C"/>
		<stop  offset="0.84" style="stop-color:#B4742A"/>
	</linearGradient>
	<path fill="url(#SVGID_39_)" d="M77.477,62.184c13.514,13.899,22.99,10.668,30.736,3.137c5.859-5.697,15.51-22.207,22.362-22.842
		l0.024-0.003c4.104-0.606,7.58,1.355,7.636,5.685c0.098,7.687-8.396,2.194-7.104,7.405c4.652,0.477,8.102-2.882,8.044-7.415
		c-0.063-4.893-4.011-7.293-8.696-6.607c-7.468,0.702-16.769,17.124-22.919,23.103C92.391,79.088,79.278,62.986,77.477,62.184
		L77.477,62.184z"/>
	<path fill-rule="evenodd" clip-rule="evenodd" fill="#CAA171" d="M56.675,45.609c-5.527-15.835-19.821-20.098-33.7-8.555
		c2.487,11.889,12.232,17.266,28.291,16.983C57.08,53.973,58.658,51.874,56.675,45.609L56.675,45.609z"/>
	<path fill-rule="evenodd" clip-rule="evenodd" fill="#FFFFFF" d="M110.766,48.502c0.536-9.143-2.633-12.941-7.282-14.105
		c2.348,1.118,1.936,3.897,2.898,5.954c0.686,1.464,1.84,1.785,2.677,2.766C110.173,44.421,110.352,45.446,110.766,48.502
		L110.766,48.502z"/>
	
		<linearGradient id="SVGID_40_" gradientUnits="userSpaceOnUse" x1="-670.3594" y1="398.5303" x2="-689.8569" y2="395.7901" gradientTransform="matrix(-1.5375 0 0 1.5375 -945.2418 -574.9564)">
		<stop  offset="0.09" style="stop-color:#B4742A"/>
		<stop  offset="0.2212" style="stop-color:#C6912C"/>
		<stop  offset="0.3524" style="stop-color:#F7D777"/>
		<stop  offset="0.4918" style="stop-color:#DCAF49"/>
		<stop  offset="0.6148" style="stop-color:#F7D777"/>
		<stop  offset="0.7624" style="stop-color:#C6912C"/>
		<stop  offset="0.91" style="stop-color:#B4742A"/>
	</linearGradient>
	<path fill-rule="evenodd" clip-rule="evenodd" fill="url(#SVGID_40_)" d="M84.176,44.829c0.8-1.873-0.135-2.5,0.796-4.407
		c0.114-0.234,0.462-0.895,0.515-1.054c0.833-0.278,1.26-3.38,3.296-4.333c3.455-1.619,1.767-3.67,5.364-3.845
		c2.509-0.123,2.326-2.131,7.608-2.131c0.753,0,2.398-0.057,3.072,0.038c0.792-2.193,3.37,0.245,5.003-1.614
		c1.559,0.144,1.458,1.462,2.24,1.9c2.763,1.544,4.012,0.05,4.701-0.065c0.449,1.833-3.068,3.585-5.715,2.292
		C97.622,26.499,88.488,33.537,84.176,44.829L84.176,44.829z"/>
	
		<linearGradient id="SVGID_41_" gradientUnits="userSpaceOnUse" x1="-175.3984" y1="450.8574" x2="-166.0906" y2="392.0901" gradientTransform="matrix(-0.0419 0.2633 -0.2633 -0.0419 221.6723 93.7353)">
		<stop  offset="0.22" style="stop-color:#B4742A"/>
		<stop  offset="0.3096" style="stop-color:#C6912C"/>
		<stop  offset="0.3992" style="stop-color:#F7D777"/>
		<stop  offset="0.4944" style="stop-color:#DCAF49"/>
		<stop  offset="0.5784" style="stop-color:#F7D777"/>
		<stop  offset="0.6792" style="stop-color:#C6912C"/>
		<stop  offset="0.78" style="stop-color:#B4742A"/>
	</linearGradient>
	<path fill-rule="evenodd" clip-rule="evenodd" fill="url(#SVGID_41_)" d="M109.888,31.129c8.042,4.381,12.829,3.136,15.864-0.574
		c-2.013,1.647-4.351,0.088-6.621,0.083c-1.617-0.003-2.4,0.903-3.645,1.243C113.832,32.332,112.828,32.057,109.888,31.129
		L109.888,31.129z"/>
	<path fill-rule="evenodd" clip-rule="evenodd" fill="#481111" d="M83.833,45.767c5.789-16.584,20.76-21.048,35.294-8.959
		c-2.605,12.45-12.811,18.083-29.628,17.786C83.409,54.525,81.758,52.327,83.833,45.767L83.833,45.767z"/>
	<path fill-rule="evenodd" clip-rule="evenodd" fill="#CAA171" d="M84.61,45.609c5.529-15.835,19.822-20.098,33.701-8.555
		c-2.487,11.889-12.233,17.266-28.29,16.983C84.206,53.973,82.628,51.874,84.61,45.609L84.61,45.609z"/>
	<g>
		
			<radialGradient id="SVGID_42_" cx="-190.6289" cy="-87.3296" r="23.0426" gradientTransform="matrix(1.4011 0 0 1.4011 337.5356 213.252)" gradientUnits="userSpaceOnUse">
			<stop  offset="0" style="stop-color:#FFFFFF"/>
			<stop  offset="0" style="stop-color:#F59DB3"/>
			<stop  offset="0.1384" style="stop-color:#F598A9"/>
			<stop  offset="0.4007" style="stop-color:#F48A8F"/>
			<stop  offset="0.756" style="stop-color:#F37369"/>
			<stop  offset="1" style="stop-color:#F1604D"/>
		</radialGradient>
		<path fill="url(#SVGID_42_)" d="M110.369,102.281c-0.758,14.563-14.954,10.088-37.372,10.088c-22.41,0-42.491,3.234-42.491-11.346
			c0-14.577,16.855-32.252,39.265-32.252C92.188,68.771,111.037,89.455,110.369,102.281z"/>
		<g>
			
				<radialGradient id="SVGID_43_" cx="-203.3853" cy="-84.2119" r="5.2253" gradientTransform="matrix(1.4011 0 0 1.4011 337.5356 213.252)" gradientUnits="userSpaceOnUse">
				<stop  offset="0" style="stop-color:#BF6361"/>
				<stop  offset="1" style="stop-color:#54121B"/>
			</radialGradient>
			<path fill="url(#SVGID_43_)" d="M57.659,95.264c0,4.975-2.274,9.018-5.079,9.018c-2.817,0-5.094-4.043-5.094-9.018
				c0-4.979,2.276-9.019,5.094-9.019C55.385,86.245,57.659,90.285,57.659,95.264z"/>
			
				<radialGradient id="SVGID_44_" cx="-178.8765" cy="-84.2119" r="5.2257" gradientTransform="matrix(1.4011 0 0 1.4011 337.5356 213.252)" gradientUnits="userSpaceOnUse">
				<stop  offset="0" style="stop-color:#BF6361"/>
				<stop  offset="1" style="stop-color:#54121B"/>
			</radialGradient>
			<path fill="url(#SVGID_44_)" d="M92,95.264c0,4.975-2.277,9.018-5.088,9.018c-2.816,0-5.089-4.043-5.089-9.018
				c0-4.979,2.272-9.019,5.089-9.019C89.723,86.245,92,90.285,92,95.264z"/>
		</g>
	</g>
</g>
</svg>
