<?xml version="1.0" encoding="utf-8"?>
<!-- Generator: Adobe Illustrator 16.0.0, SVG Export Plug-In . SVG Version: 6.00 Build 0)  -->
<!DOCTYPE svg PUBLIC "-//W3C//DTD SVG 1.1//EN" "http://www.w3.org/Graphics/SVG/1.1/DTD/svg11.dtd">
<svg version="1.1" id="Layer_1" xmlns="http://www.w3.org/2000/svg" xmlns:xlink="http://www.w3.org/1999/xlink" x="0px" y="0px"
	 width="393.254px" height="54.429px" viewBox="0 0 393.254 54.429" enable-background="new 0 0 393.254 54.429"
	 xml:space="preserve">
<g>
	<path fill="#9AD3B2" d="M157.7,27.214c0,15.03-12.183,27.215-27.216,27.215H27.214C12.185,54.429,0,42.244,0,27.214l0,0
		C0,12.185,12.185,0,27.214,0h103.27C145.517,0,157.7,12.185,157.7,27.214L157.7,27.214z"/>
	<path opacity="0.2" fill="#5E5D5E" d="M130.484,43.63H27.214c-13.182,0-24.17-9.374-26.674-21.816C0.189,23.559,0,25.364,0,27.214
		c0,15.03,12.185,27.215,27.214,27.215h103.27c15.033,0,27.216-12.185,27.216-27.215c0-1.85-0.188-3.655-0.54-5.4
		C154.655,34.256,143.667,43.63,130.484,43.63z"/>
</g>
<g>
	<path fill="#9AD3B2" d="M393.254,27.214c0,15.03-12.185,27.215-27.215,27.215H262.769c-15.03,0-27.214-12.185-27.214-27.215l0,0
		C235.555,12.185,247.739,0,262.769,0H366.04C381.07,0,393.254,12.185,393.254,27.214L393.254,27.214z"/>
	<path opacity="0.2" fill="#5E5D5E" d="M366.04,43.63H262.769c-13.18,0-24.168-9.374-26.674-21.816
		c-0.352,1.745-0.54,3.551-0.54,5.4c0,15.03,12.184,27.215,27.214,27.215H366.04c15.03,0,27.215-12.185,27.215-27.215
		c0-1.85-0.188-3.655-0.537-5.4C390.211,34.256,379.223,43.63,366.04,43.63z"/>
</g>
</svg>
