<?xml version="1.0" encoding="utf-8"?>
<!-- Generator: Adobe Illustrator 16.0.0, SVG Export Plug-In . SVG Version: 6.00 Build 0)  -->
<!DOCTYPE svg PUBLIC "-//W3C//DTD SVG 1.1//EN" "http://www.w3.org/Graphics/SVG/1.1/DTD/svg11.dtd">
<svg version="1.1" id="Layer_1" xmlns="http://www.w3.org/2000/svg" xmlns:xlink="http://www.w3.org/1999/xlink" x="0px" y="0px"
	 width="184.672px" height="373.135px" viewBox="0 0 184.672 373.135" enable-background="new 0 0 184.672 373.135"
	 xml:space="preserve">
<g>
	<path fill="#65A07D" d="M104.472,9.835c0,0,23.49,6.166,34.544,44.003c0,0-21.258-38.265-37.413-38.689L104.472,9.835z"/>
	<path fill="#6BA883" d="M93.608,16.292c0,0,73.618,0.924,78.819,86.2C172.428,102.492,152.871,27.424,93.608,16.292z"/>
	<path fill="#6BA883" d="M102.058,134.468c0,0-45.205,4.205-67.28,63.074C34.778,197.542,72.622,141.824,102.058,134.468z"/>
	<path fill="#B2CB8E" d="M98.896,50.163c0,0,63.93,1.064,37.908,79.031C136.804,129.194,160.171,72.939,98.896,50.163z"/>
	<path fill="#B2CB8E" d="M99.663,54.827c0,0-31.771,23.827-32.239,93.444C67.424,148.271,85.179,63.704,99.663,54.827z"/>
	<path fill="#B2CB8E" d="M96.872,15.132c0,0-59.209,16.826-51.421,95.132C45.451,110.264,17.642,36.827,96.872,15.132z"/>
	<path fill="#82CA9C" d="M103.598,132.027c0,0-71.294-18.365-98.625,62.578C4.972,194.605,43.487,127.268,103.598,132.027z"/>
	<path fill="#6BA883" d="M102.171,45.266c0,0-41.471,18.473-43.511,81.311C58.66,126.576,76.648,61.671,102.171,45.266z"/>
	<path fill="#65A07D" d="M96.733,46.549c0,0,25.815,6.776,37.962,48.356c0,0-23.36-42.049-41.114-42.515L96.733,46.549z"/>
	<path fill="#C4DF9B" d="M103.261,110.814c0,0,44.078,14.688,56.225,54.868c12.148,40.178-0.465-1.402-0.465-1.402
		S155.427,114.346,103.261,110.814z"/>
	<path fill="#B2CB8E" d="M105.554,110.411c0,0,57.467-28.03,69.613,53.263C175.167,163.674,170.495,102.938,105.554,110.411z"/>
	<ellipse fill="#FDC689" cx="96.802" cy="260.829" rx="55.337" ry="11.563"/>
	<g>
		<ellipse fill="#FBC589" cx="96.802" cy="260.95" rx="54.749" ry="11.458"/>
		<ellipse fill="#FAC388" cx="96.802" cy="261.07" rx="54.16" ry="11.356"/>
		<ellipse fill="#F9C287" cx="96.802" cy="261.188" rx="53.571" ry="11.252"/>
		<ellipse fill="#F7C287" cx="96.802" cy="261.306" rx="52.986" ry="11.15"/>
		<path fill="#F6C186" d="M96.802,250.377c-28.938,0-52.398,4.949-52.398,11.05c0,6.099,23.459,11.047,52.398,11.047
			c28.937,0,52.397-4.948,52.397-11.047C149.199,255.326,125.738,250.377,96.802,250.377z"/>
		<ellipse fill="#F5C086" cx="96.802" cy="261.543" rx="51.809" ry="10.944"/>
		<ellipse fill="#F4BF85" cx="96.802" cy="261.663" rx="51.224" ry="10.841"/>
		<ellipse fill="#F4BF85" cx="96.802" cy="261.783" rx="50.635" ry="10.738"/>
		<ellipse fill="#F3BE84" cx="96.802" cy="261.901" rx="50.047" ry="10.634"/>
		<ellipse fill="#F2BE84" cx="96.802" cy="262.021" rx="49.458" ry="10.531"/>
		<ellipse fill="#F1BD84" cx="96.802" cy="262.139" rx="48.873" ry="10.427"/>
		<ellipse fill="#F0BC83" cx="96.802" cy="262.259" rx="48.285" ry="10.324"/>
		<ellipse fill="#EFBC83" cx="96.802" cy="262.378" rx="47.696" ry="10.221"/>
		<ellipse fill="#EFBB82" cx="96.802" cy="262.496" rx="47.111" ry="10.117"/>
		<ellipse fill="#EEBB82" cx="96.802" cy="262.616" rx="46.522" ry="10.015"/>
		<ellipse fill="#EDBA82" cx="96.802" cy="262.736" rx="45.934" ry="9.912"/>
		<ellipse fill="#ECB981" cx="96.802" cy="262.854" rx="45.347" ry="9.807"/>
		<ellipse fill="#EBB981" cx="96.802" cy="262.974" rx="44.76" ry="9.705"/>
		<ellipse fill="#EBB880" cx="96.802" cy="263.093" rx="44.171" ry="9.602"/>
		<ellipse fill="#EAB880" cx="96.802" cy="263.211" rx="43.583" ry="9.498"/>
		<ellipse fill="#E9B780" cx="96.802" cy="263.332" rx="42.998" ry="9.395"/>
		<path fill="#E8B67F" d="M96.802,254.159c-23.42,0-42.409,4.161-42.409,9.29c0,5.133,18.989,9.295,42.409,9.295
			c23.42,0,42.408-4.162,42.408-9.295C139.21,258.32,120.222,254.159,96.802,254.159z"/>
		<ellipse fill="#E7B67F" cx="96.802" cy="263.569" rx="41.82" ry="9.188"/>
		<ellipse fill="#E7B57F" cx="96.802" cy="263.689" rx="41.233" ry="9.085"/>
		<ellipse fill="#E6B57E" cx="96.802" cy="263.807" rx="40.646" ry="8.981"/>
		<ellipse fill="#E5B47E" cx="96.802" cy="263.927" rx="40.058" ry="8.878"/>
		<ellipse fill="#E4B37D" cx="96.802" cy="264.046" rx="39.469" ry="8.776"/>
		<ellipse fill="#E3B37D" cx="96.802" cy="264.165" rx="38.884" ry="8.671"/>
		<ellipse fill="#E3B27C" cx="96.802" cy="264.285" rx="38.296" ry="8.569"/>
		<ellipse fill="#E2B27C" cx="96.802" cy="264.404" rx="37.707" ry="8.466"/>
		<ellipse fill="#E1B17C" cx="96.802" cy="264.522" rx="37.12" ry="8.362"/>
		<ellipse fill="#E0B07B" cx="96.802" cy="264.642" rx="36.533" ry="8.259"/>
		<ellipse fill="#DFB07B" cx="96.802" cy="264.762" rx="35.945" ry="8.156"/>
		<ellipse fill="#DFAF7A" cx="96.802" cy="264.88" rx="35.358" ry="8.052"/>
		<ellipse fill="#DEAF7A" cx="96.802" cy="265" rx="34.771" ry="7.949"/>
		<ellipse fill="#DDAE7A" cx="96.802" cy="265.118" rx="34.183" ry="7.845"/>
		<ellipse fill="#DCAD79" cx="96.802" cy="265.237" rx="33.594" ry="7.742"/>
		<ellipse fill="#DBAD79" cx="96.802" cy="265.357" rx="33.007" ry="7.64"/>
		<ellipse fill="#DBAC78" cx="96.802" cy="265.474" rx="32.42" ry="7.537"/>
		<ellipse fill="#DAAC78" cx="96.802" cy="265.593" rx="31.832" ry="7.434"/>
		<ellipse fill="#D9AB78" cx="96.802" cy="265.713" rx="31.245" ry="7.332"/>
		<ellipse fill="#D8AA77" cx="96.802" cy="265.831" rx="30.658" ry="7.228"/>
		<ellipse fill="#D7AA77" cx="96.802" cy="265.951" rx="30.069" ry="7.125"/>
		<ellipse fill="#D7A976" cx="96.802" cy="266.071" rx="29.48" ry="7.022"/>
		<ellipse fill="#D6A976" cx="96.802" cy="266.189" rx="28.894" ry="6.917"/>
		<path fill="#D5A876" d="M96.802,259.494c-15.632,0-28.307,3.052-28.307,6.816c0,3.761,12.675,6.813,28.307,6.813
			s28.307-3.052,28.307-6.813C125.108,262.546,112.434,259.494,96.802,259.494z"/>
		<ellipse fill="#D4A775" cx="96.802" cy="266.428" rx="27.718" ry="6.712"/>
		<ellipse fill="#D3A775" cx="96.802" cy="266.546" rx="27.131" ry="6.608"/>
		<ellipse fill="#D3A674" cx="96.802" cy="266.667" rx="26.544" ry="6.505"/>
		<ellipse fill="#D2A674" cx="96.802" cy="266.785" rx="25.956" ry="6.401"/>
		<ellipse fill="#D1A573" cx="96.802" cy="266.904" rx="25.367" ry="6.298"/>
	</g>
	<path fill="#D0A473" d="M96.802,273.22c13.685,0,24.779-2.775,24.779-6.194c0-3.422-11.095-6.197-24.779-6.197
		s-24.779,2.775-24.779,6.197C72.023,270.444,83.117,273.22,96.802,273.22z"/>
	<path fill="#AA975F" d="M106.876,277.356c0,0,1.752-35.041,1.752-117.974c0-82.929-5.842-149.507-5.842-149.507l-7.591,1.752
		c0,0,4.087,71.835,3.504,147.755c0,0-0.583,113.303-1.752,118.559l9.929,1.167V277.356z"/>
	<path fill="#8D7E4E" d="M101.016,287.869c0,0,0.566-35.041,0.566-117.974c0-82.929-1.889-149.507-1.889-149.507l-2.457,1.752
		c0,0,1.324,71.834,1.134,147.755c0,0-0.189,113.303-0.566,118.559l3.212,1.167V287.869z"/>
	
		<linearGradient id="SVGID_1_" gradientUnits="userSpaceOnUse" x1="53.1313" y1="304.5811" x2="163.8057" y2="304.5811" gradientTransform="matrix(1 0 0 1 -10.5 12.4004)">
		<stop  offset="0.01" style="stop-color:#FFE493"/>
		<stop  offset="0.51" style="stop-color:#FFDD79"/>
		<stop  offset="1" style="stop-color:#A1A14B"/>
	</linearGradient>
	<path fill="url(#SVGID_1_)" d="M153.306,361.572c0,6.389-24.775,11.563-55.337,11.563c-30.562,0-55.337-5.174-55.337-11.563
		V260.828c0,6.389,24.775,11.563,55.337,11.563c30.562,0,55.337-5.175,55.337-11.563l-0.146,98.116"/>
	<path fill="#82CA9C" d="M99.481,13.291c0,0-64.878-16.714-89.749,56.945C9.732,70.236,44.78,8.962,99.481,13.291z"/>
	<path fill="#82CA9C" d="M95.747,15.457c0,0-43.407,33.775-40.536,81.604C55.211,97.062,35.839,31.428,95.747,15.457z"/>
	<path fill="#6BA883" d="M94.923,13.373c0,0,64.878-16.717,89.749,56.942C184.672,70.315,149.624,9.041,94.923,13.373z"/>
	<path fill="#2BB673" d="M94.577,14.181c0,0,43.406,33.775,40.537,81.604C135.114,95.785,154.486,30.151,94.577,14.181z"/>
	<path fill="#6BA883" d="M97.58,14.116c0,0-41.134,3.825-61.223,57.396C36.357,71.513,70.794,20.813,97.58,14.116z"/>
	<path fill="#82CA9C" d="M92.401,18.178c0,0-0.957-12.436,3.826-18.178c0,0,2.871,2.871,8.61,1.913c0,0,0.027,10.471-9.074,16.716"
		/>
	<path fill="#C0E2CA" d="M96.891,15.741c0,0-4.63-11.58-11.457-14.623c0,0-1.307,3.844-6.88,5.521c0,0,4.598,9.403,15.521,10.991"/>
	<path fill="#C0E2CA" d="M94.245,13.027c0,0-13.951,3.826-19.902,61.223C74.343,74.25,89.064,18.129,94.245,13.027z"/>
	<path fill="#C4DF9B" d="M97.58,14.116c0,0,40.111,13.366,51.166,49.93c11.055,36.564-0.427-1.276-0.427-1.276
		S145.052,17.332,97.58,14.116z"/>
	<path fill="#C4DF9B" d="M93.435,15.457c0,0-14.415,34.135-18.243,79.199C75.192,94.656,88.719,53.178,93.435,15.457z"/>
	<path fill="#B2CB8E" d="M96.477,12.654c0,0,52.295-25.511,63.35,48.47C159.826,61.124,155.575,5.852,96.477,12.654z"/>
	<path fill="#B2CB8E" d="M93.476,13.027c0,0-28.913,21.682-29.337,85.03C64.139,98.058,80.294,21.104,93.476,13.027z"/>
	<path fill="#B2CB8E" d="M93.476,13.027c0,0-55.697,5.951-60.799,77.378C32.677,90.405,19.071,20.255,93.476,13.027z"/>
	<path fill="#82CA9C" d="M96.024,14.3c0,0,23.387,22.534,24.235,82.057C120.26,96.356,95.177,20.255,96.024,14.3z"/>
	<path fill="#6BA883" d="M93.314,15.549c0,0-3.826,31.568,0,77.488c0,0,5.741-62.182,6.697-77.488
		C100.012,15.549,96.186,9.811,93.314,15.549z"/>
	<path fill="#B2CB8E" d="M175.037,179.518c0,0-61.204,6.54-66.812,85.03C108.226,264.548,93.275,187.461,175.037,179.518z"/>
	<path fill="#6BA883" d="M0,200.229c0,0,71.291-18.37,98.624,62.574C98.624,262.803,60.107,195.468,0,200.229z"/>
	<path fill="none" stroke="#82CA9C" stroke-width="0.3" d="M106.146,19.803c0,0,32.121,23.944,29.785,61.907"/>
	<path fill="none" stroke="#82CA9C" stroke-width="0.3" d="M96.217,13.671c0,0-3.504,52.853-2.919,65.702"/>
	<path fill="none" stroke="#82CA9C" stroke-width="0.2" d="M140.894,39.661c0,0,22.777,17.521,29.495,52.268"/>
	<path fill="none" stroke="#82CA9C" stroke-width="0.2" d="M147.902,24.769c0,0,23.653,16.06,31.83,36.499"/>
	<path fill="none" stroke="#82CA9C" stroke-width="0.2" d="M95.633,136.315c0,0-34.163,13.141-57.816,56.356"/>
	<path fill="none" stroke="#6BA883" stroke-width="0.2" d="M100.013,21.846c0,0,16.353,40.592,18.689,65.412"/>
	<path fill="none" stroke="#6BA883" stroke-width="0.2" d="M83.661,21.846c0,0-37.96,37.67-29.494,68.331"/>
	<path fill="none" stroke="#6BA883" stroke-width="0.2" d="M81.909,13.085c0,0-40.007,3.214-68.916,49.644"/>
	<path fill="none" stroke="#82CA9C" stroke-width="0.2" d="M102.642,16.008c0,0,27.449,6.423,41.757,34.747"/>
	<path fill="none" stroke="#82CA9C" stroke-width="0.2" d="M109.356,112.077c0,0,37.67,13.141,47.307,42.05"/>
	<path fill="none" stroke="#82CA9C" stroke-width="0.2" d="M96.802,260.384c0,0-30.952-61.87-84.975-60.703"/>
	<path fill="none" stroke="#2BB673" stroke-width="0.2" d="M107.604,259.836c0,0,0.293-65.117,54.023-76.8"/>
	<path fill="none" stroke="#2BB673" stroke-width="0.2" d="M90.084,66.086c0,0-22.339,45.991-20.149,65.264"/>
</g>
</svg>
