<?xml version="1.0" encoding="utf-8"?>
<!-- Generator: Adobe Illustrator 16.0.0, SVG Export Plug-In . SVG Version: 6.00 Build 0)  -->
<!DOCTYPE svg PUBLIC "-//W3C//DTD SVG 1.1//EN" "http://www.w3.org/Graphics/SVG/1.1/DTD/svg11.dtd">
<svg version="1.1" id="Layer_1" xmlns="http://www.w3.org/2000/svg" xmlns:xlink="http://www.w3.org/1999/xlink" x="0px" y="0px"
	 width="148.667px" height="148.176px" viewBox="0 0 148.667 148.176" enable-background="new 0 0 148.667 148.176"
	 xml:space="preserve">
<g>
	<linearGradient id="SVGID_1_" gradientUnits="userSpaceOnUse" x1="55.5" y1="131.8525" x2="47.7038" y2="146.8556">
		<stop  offset="0" style="stop-color:#E6E6E5"/>
		<stop  offset="0.2024" style="stop-color:#E1E1E1"/>
		<stop  offset="0.4243" style="stop-color:#D4D4D3"/>
		<stop  offset="0.6554" style="stop-color:#C0BFBF"/>
		<stop  offset="0.8914" style="stop-color:#A6A5A5"/>
		<stop  offset="1" style="stop-color:#989898"/>
	</linearGradient>
	<polygon fill="url(#SVGID_1_)" points="65.18,138.814 53.185,147.883 43.825,128.725 	"/>
	<path fill="#E6E6E5" d="M54.935,39.245l-3.489,1.84c-0.298,0.156-0.48,0.32-0.553,0.48s-0.038,0.318,0.099,0.465
		c0.137,0.146,0.375,0.28,0.708,0.395c0.333,0.115,0.758,0.209,1.271,0.273l4.021,0.507l3.173-1.717l1.044-0.564l65.004,8.04
		l-3.643,2.504l4.494,0.566c0.577,0.072,1.18,0.106,1.773,0.104c0.594-0.002,1.18-0.04,1.726-0.108
		c0.544-0.069,1.048-0.171,1.477-0.298c0.428-0.127,0.782-0.281,1.03-0.458l2.901-2.064L54.935,39.245L54.935,39.245z
		 M30.372,52.024l-0.263-0.036l6.277-3.303c0.375-0.196,0.854-0.368,1.399-0.509c0.545-0.141,1.156-0.252,1.796-0.329
		c0.64-0.075,1.308-0.117,1.969-0.12c0.66-0.003,1.312,0.033,1.918,0.112l75.314,9.89c0.686,0.09,1.276,0.221,1.758,0.38
		c0.482,0.159,0.855,0.347,1.104,0.551c0.249,0.205,0.373,0.426,0.357,0.653c-0.017,0.226-0.173,0.457-0.485,0.68l-5.242,3.74
		l-0.301-0.041l5.245-3.739c0.294-0.208,0.44-0.426,0.455-0.64c0.015-0.212-0.103-0.42-0.337-0.613
		c-0.234-0.192-0.584-0.369-1.038-0.52c-0.452-0.149-1.007-0.272-1.65-0.357c0.644,0.085,1.198,0.208,1.65,0.357
		c0.454,0.15,0.804,0.327,1.038,0.52c0.234,0.193,0.352,0.401,0.337,0.613c-0.015,0.214-0.161,0.432-0.455,0.64l-5.245,3.739
		l-0.297-0.041L30.635,52.06l6.271-3.305c0.33-0.175,0.752-0.325,1.233-0.45c0.48-0.125,1.02-0.222,1.584-0.29
		c0.564-0.067,1.154-0.104,1.737-0.107c0.583-0.002,1.158,0.029,1.693,0.1l75.362,9.909l-75.362-9.909
		c-0.535-0.07-1.111-0.102-1.693-0.1c-0.583,0.003-1.173,0.04-1.737,0.107c-0.565,0.068-1.104,0.165-1.584,0.29
		c-0.481,0.125-0.903,0.275-1.233,0.45l-6.271,3.305L30.372,52.024L30.372,52.024z M38.047,39.597L17.028,50.206L131.69,65.835
		l16.376-12.426c0.198-0.15,0.35-0.309,0.45-0.468c0.102-0.16,0.152-0.322,0.15-0.487c-0.002-0.164-0.058-0.329-0.168-0.494
		c-0.11-0.163-0.275-0.326-0.5-0.486c-0.223-0.158-0.492-0.307-0.802-0.442c-0.31-0.137-0.659-0.263-1.042-0.374
		c-0.383-0.112-0.797-0.212-1.238-0.3c-0.439-0.086-0.905-0.16-1.389-0.22l-7.005-0.86l-2.896,2.066
		c-0.28,0.2-0.683,0.375-1.167,0.52c-0.487,0.145-1.057,0.258-1.674,0.336c-0.618,0.079-1.282,0.122-1.957,0.124
		c-0.674,0.003-1.355-0.034-2.011-0.117L52.68,42.853c-0.579-0.073-1.062-0.18-1.439-0.31c-0.375-0.13-0.646-0.282-0.801-0.448
		c-0.155-0.166-0.195-0.345-0.111-0.526c0.083-0.182,0.29-0.366,0.628-0.544l3.492-1.838l-6.219-0.765
		c-0.406-0.05-0.835-0.088-1.282-0.113c-0.446-0.025-0.909-0.038-1.384-0.037c-0.474,0.001-0.959,0.015-1.45,0.042
		c-0.491,0.028-0.987,0.071-1.482,0.128c-0.496,0.057-0.968,0.126-1.412,0.206c-0.444,0.079-0.861,0.169-1.249,0.268
		c-0.387,0.099-0.743,0.207-1.064,0.319C38.585,39.349,38.297,39.471,38.047,39.597L38.047,39.597z"/>
	<linearGradient id="SVGID_2_" gradientUnits="userSpaceOnUse" x1="10.9961" y1="82.0215" x2="20.8636" y2="51.4885">
		<stop  offset="0" style="stop-color:#F3F3F3"/>
		<stop  offset="1" style="stop-color:#E6E6E5"/>
	</linearGradient>
	<path fill="url(#SVGID_2_)" d="M30.188,51.947c-0.847,0.445-1.689,1.04-2.515,1.776c-0.829,0.739-1.639,1.622-2.417,2.642
		c-0.782,1.024-1.531,2.185-2.235,3.476c-0.707,1.294-1.366,2.719-1.966,4.267c-0.602,1.552-1.114,3.152-1.539,4.776
		c-0.424,1.626-0.76,3.274-1.008,4.921c-0.248,1.646-0.407,3.29-0.48,4.907c-0.073,1.616-0.06,3.202,0.038,4.738l-13-2.14
		c-0.109-1.521-0.131-3.092-0.064-4.69c0.066-1.6,0.221-3.226,0.466-4.854c0.245-1.628,0.58-3.258,1.006-4.865
		c0.425-1.604,0.941-3.186,1.549-4.719c0.606-1.528,1.273-2.935,1.989-4.213c0.714-1.273,1.476-2.418,2.271-3.428
		c0.792-1.006,1.617-1.875,2.462-2.604c0.841-0.725,1.701-1.309,2.567-1.746L30.188,51.947L30.188,51.947z"/>
	<linearGradient id="SVGID_3_" gradientUnits="userSpaceOnUse" x1="111.8486" y1="100.2646" x2="120.4885" y2="69.3606">
		<stop  offset="0" style="stop-color:#F3F3F3"/>
		<stop  offset="1" style="stop-color:#E6E6E5"/>
	</linearGradient>
	<path fill="url(#SVGID_3_)" d="M131.505,65.751l-15.162-2.065c-0.709,0.506-1.421,1.17-2.123,1.986
		c-0.705,0.818-1.402,1.791-2.078,2.908c-0.679,1.121-1.338,2.388-1.964,3.794c-0.628,1.409-1.224,2.957-1.774,4.634
		c-0.553,1.681-1.035,3.411-1.445,5.163c-0.412,1.754-0.75,3.528-1.018,5.298c-0.268,1.771-0.463,3.533-0.585,5.264
		c-0.123,1.729-0.174,3.423-0.153,5.06l15.363,2.528c-0.006-1.653,0.058-3.367,0.189-5.116c0.133-1.751,0.334-3.534,0.604-5.325
		c0.27-1.791,0.609-3.588,1.018-5.364c0.407-1.775,0.884-3.528,1.427-5.233c0.541-1.699,1.123-3.269,1.736-4.698
		c0.61-1.426,1.25-2.712,1.908-3.851c0.656-1.135,1.33-2.123,2.012-2.957C130.14,66.944,130.823,66.268,131.505,65.751
		L131.505,65.751z"/>
	<linearGradient id="SVGID_4_" gradientUnits="userSpaceOnUse" x1="61.1699" y1="114.3457" x2="64.9996" y2="90.7055">
		<stop  offset="0" style="stop-color:#E6E6E5"/>
		<stop  offset="1" style="stop-color:#CDCCCC"/>
	</linearGradient>
	<polygon fill="url(#SVGID_4_)" points="4.861,81.262 6.569,105.148 120.903,126.294 120.817,100.345 4.861,81.262 	"/>
	<linearGradient id="SVGID_5_" gradientUnits="userSpaceOnUse" x1="120.5654" y1="89.3447" x2="148.667" y2="89.3447">
		<stop  offset="0" style="stop-color:#E6E6E5"/>
		<stop  offset="0.9647" style="stop-color:#B4B4B4"/>
		<stop  offset="1" style="stop-color:#E6E6E5"/>
	</linearGradient>
	<path fill="url(#SVGID_5_)" d="M148.667,52.396l-0.037,46.438c0,0.705-0.406,1.094-0.763,1.407l-26.964,26.053l-0.338-25.974
		c-0.006-1.653,0.058-3.367,0.189-5.116c0.133-1.751,0.334-3.534,0.604-5.325c0.27-1.791,0.609-3.588,1.018-5.364
		c0.407-1.775,0.884-3.528,1.427-5.233c0.541-1.699,1.123-3.269,1.736-4.698c0.61-1.426,1.25-2.712,1.908-3.851
		c0.656-1.135,1.33-2.123,2.012-2.957c0.68-0.831,1.363-1.508,2.045-2.024L148.667,52.396z"/>
	<linearGradient id="SVGID_6_" gradientUnits="userSpaceOnUse" x1="83.1299" y1="29.6504" x2="85.4283" y2="34.1094">
		<stop  offset="0" style="stop-color:#CDCCCC"/>
		<stop  offset="1" style="stop-color:#4E4E4E"/>
	</linearGradient>
	<polygon fill="url(#SVGID_6_)" points="60.164,41.488 56.991,43.205 122.569,51.468 126.212,48.964 125.31,49.583 60.164,41.488 	
		"/>
	<polygon fill="#818181" points="61.208,40.924 60.164,41.488 125.31,49.583 126.212,48.964 61.208,40.924 	"/>
	<path fill="#676767" d="M54.449,39.187l-3.492,1.838c-0.338,0.178-0.545,0.362-0.628,0.544c-0.084,0.182-0.044,0.36,0.111,0.526
		c0.155,0.166,0.425,0.318,0.801,0.448c0.377,0.13,0.86,0.236,1.439,0.31l74.138,9.354c0.655,0.083,1.337,0.12,2.011,0.117
		c0.675-0.002,1.339-0.045,1.957-0.124c0.617-0.078,1.187-0.191,1.674-0.336c0.484-0.145,0.887-0.319,1.167-0.52l2.896-2.066
		l-0.553-0.068l-2.901,2.064c-0.248,0.177-0.603,0.331-1.03,0.458c-0.429,0.127-0.933,0.229-1.477,0.298
		c-0.546,0.068-1.132,0.106-1.726,0.108c-0.594,0.003-1.196-0.031-1.773-0.104l-4.494-0.566l-65.579-8.263l-4.021-0.507
		c-0.512-0.064-0.938-0.158-1.271-0.273c-0.333-0.114-0.571-0.249-0.708-0.395c-0.137-0.146-0.172-0.305-0.099-0.465
		s0.255-0.324,0.553-0.48l3.489-1.84L54.449,39.187L54.449,39.187z"/>
	<path fill="#4E4E4E" d="M121.645,58.66c-0.249-0.204-0.622-0.392-1.104-0.551c-0.481-0.159-1.072-0.29-1.758-0.38l-75.314-9.89
		c-0.606-0.079-1.258-0.115-1.918-0.112c-0.661,0.003-1.329,0.045-1.969,0.12c-0.64,0.077-1.251,0.188-1.796,0.329
		c-0.545,0.141-1.024,0.313-1.399,0.509l-6.277,3.303l0.005,0.001c-0.822,0.44-1.64,1.019-2.44,1.734
		c-0.829,0.739-1.639,1.622-2.417,2.642c-0.782,1.024-1.531,2.185-2.235,3.476c-0.707,1.294-1.366,2.719-1.966,4.267
		c-0.602,1.552-1.114,3.152-1.539,4.776c-0.424,1.626-0.76,3.274-1.008,4.921c-0.248,1.646-0.407,3.29-0.48,4.907
		c-0.073,1.61-0.06,3.192,0.037,4.724l0,0l0,0.004c0,0.003,0,0.008,0,0.011l0,0l1.243,19.473c0.03,0.475,0.183,0.949,0.434,1.402
		c0.25,0.451,0.599,0.882,1.02,1.266c0.421,0.385,0.915,0.725,1.458,0.997c0.542,0.271,1.133,0.475,1.747,0.588l76.467,14.065
		c0.696,0.127,1.359,0.148,1.963,0.075c0.604-0.072,1.148-0.239,1.604-0.485c0.457-0.246,0.825-0.571,1.078-0.961
		c0.253-0.391,0.39-0.845,0.384-1.35l-0.261-20.729l0,0c-0.021-1.637,0.03-3.331,0.153-5.06c0.122-1.73,0.317-3.493,0.585-5.264
		c0.268-1.77,0.605-3.544,1.018-5.298c0.41-1.752,0.893-3.482,1.445-5.163c0.551-1.677,1.146-3.225,1.774-4.634
		c0.626-1.406,1.285-2.673,1.964-3.794c0.676-1.117,1.373-2.09,2.078-2.908c0.702-0.816,1.414-1.48,2.123-1.986h-0.002l5.176-3.692
		c0.313-0.223,0.469-0.454,0.485-0.68C122.018,59.086,121.894,58.865,121.645,58.66z"/>
	<linearGradient id="SVGID_7_" gradientUnits="userSpaceOnUse" x1="62.5059" y1="114.5059" x2="73.051" y2="48.8187">
		<stop  offset="0" style="stop-color:#333333"/>
		<stop  offset="0.2941" style="stop-color:#010101"/>
		<stop  offset="0.3706" style="stop-color:#4E4E4E"/>
		<stop  offset="0.7882" style="stop-color:#E6E6E5"/>
		<stop  offset="0.9235" style="stop-color:#4E4E4E"/>
		<stop  offset="1" style="stop-color:#1A1A1A"/>
	</linearGradient>
	<path fill="url(#SVGID_7_)" d="M121.042,58.738c-0.219-0.181-0.548-0.346-0.974-0.487c-0.425-0.141-0.946-0.256-1.552-0.335
		l-75.362-9.909c-0.535-0.07-1.111-0.102-1.693-0.1c-0.583,0.003-1.173,0.04-1.737,0.107c-0.565,0.068-1.104,0.165-1.584,0.29
		c-0.481,0.125-0.903,0.275-1.233,0.45l-6.191,3.263H30.71c-0.024,0.012-0.047,0.027-0.071,0.04l-0.004,0.002l0,0
		c-0.821,0.443-1.638,1.021-2.438,1.735c-0.828,0.741-1.637,1.625-2.416,2.645c-0.781,1.024-1.53,2.185-2.234,3.477
		c-0.705,1.295-1.365,2.721-1.964,4.269c-0.602,1.554-1.114,3.154-1.538,4.779c-0.425,1.627-0.76,3.275-1.008,4.924
		c-0.248,1.647-0.408,3.292-0.482,4.909c-0.073,1.616-0.061,3.203,0.037,4.739l0.004,0.001l1.238,19.481
		c0.026,0.419,0.161,0.838,0.382,1.238c0.221,0.398,0.528,0.777,0.898,1.117c0.372,0.339,0.807,0.639,1.285,0.879
		c0.479,0.239,1,0.42,1.542,0.519l76.485,14.042c0.615,0.113,1.201,0.132,1.733,0.066c0.533-0.063,1.013-0.212,1.415-0.429
		c0.401-0.217,0.727-0.504,0.95-0.848c0.222-0.345,0.343-0.747,0.336-1.191l-0.268-20.72h0.001c-0.021-1.636,0.028-3.33,0.151-5.058
		c0.123-1.73,0.317-3.492,0.584-5.261c0.268-1.769,0.606-3.543,1.018-5.295c0.41-1.752,0.893-3.481,1.447-5.162
		c0.551-1.675,1.146-3.222,1.775-4.63c0.627-1.404,1.285-2.672,1.966-3.792c0.677-1.116,1.374-2.089,2.081-2.906
		c0.703-0.816,1.414-1.479,2.125-1.985l0,0l5.183-3.688c0.276-0.197,0.415-0.401,0.431-0.602
		C121.37,59.115,121.262,58.92,121.042,58.738z"/>
	
		<linearGradient id="SVGID_8_" gradientUnits="userSpaceOnUse" x1="-225.5337" y1="374.0898" x2="-224.8692" y2="374.0898" gradientTransform="matrix(15.8672 -98.8391 -98.8391 -15.8672 40626.7344 -16239.4902)">
		<stop  offset="0" style="stop-color:#333333"/>
		<stop  offset="0.2941" style="stop-color:#010101"/>
		<stop  offset="0.3706" style="stop-color:#4E4E4E"/>
		<stop  offset="0.7882" style="stop-color:#FFFFFF"/>
		<stop  offset="0.9235" style="stop-color:#4E4E4E"/>
		<stop  offset="1" style="stop-color:#1A1A1A"/>
	</linearGradient>
	<path fill="url(#SVGID_8_)" d="M103.187,55.899c-12.959,1.639-27.045,3.645-32.432,4.527c-12.94,2.123-25.292,11.181-27.776,28.778
		c-1.232,8.725-2.244,15.702-2.95,20.521l9.422,1.729c0.823-6.056,2.112-15.112,3.258-21.301
		c1.863-10.06,14.699-23.961,27.535-26.43c8.06-1.551,25.618-4.168,37.572-5.9L103.187,55.899L103.187,55.899z"/>
	
		<linearGradient id="SVGID_9_" gradientUnits="userSpaceOnUse" x1="-225.5342" y1="374.2266" x2="-224.8698" y2="374.2266" gradientTransform="matrix(15.8672 -98.8391 -98.8391 -15.8672 40626.7344 -16239.4902)">
		<stop  offset="0" style="stop-color:#333333"/>
		<stop  offset="0.2941" style="stop-color:#010101"/>
		<stop  offset="0.3706" style="stop-color:#4E4E4E"/>
		<stop  offset="0.7882" style="stop-color:#FFFFFF"/>
		<stop  offset="0.9235" style="stop-color:#4E4E4E"/>
		<stop  offset="1" style="stop-color:#1A1A1A"/>
	</linearGradient>
	<path fill="url(#SVGID_9_)" d="M91.544,54.369c-13.151,1.657-28.441,4.022-34.381,5.502c-10.159,2.53-20.027,12.708-21.961,28.517
		c-0.991,8.095-1.827,14.956-2.44,20.003l3.229,0.593c0.725-6.528,1.718-14.95,2.598-20.604
		c2.353-15.116,11.208-25.635,26.307-28.103c8.157-1.334,23.278-3.569,33.298-5.033L91.544,54.369L91.544,54.369z"/>
	<radialGradient id="SVGID_10_" cx="120.5156" cy="68.1831" r="2.1055" gradientUnits="userSpaceOnUse">
		<stop  offset="0" style="stop-color:#D1E8C6"/>
		<stop  offset="0.3529" style="stop-color:#8AC652"/>
		<stop  offset="1" style="stop-color:#166734"/>
	</radialGradient>
	<polygon fill="url(#SVGID_10_)" points="118.935,67.627 118.511,68.236 122.102,68.739 122.521,68.124 118.935,67.627 	"/>
	<radialGradient id="SVGID_11_" cx="115.75" cy="75.877" r="5.364" gradientUnits="userSpaceOnUse">
		<stop  offset="0" style="stop-color:#FFFFFF"/>
		<stop  offset="1" style="stop-color:#CDCCCC"/>
	</radialGradient>
	<path fill="url(#SVGID_11_)" d="M112.108,76.426c-1.088,3.755,2.706,5.835,5.788,4.146c3.095-1.696,3.92-5.894,0.583-7.022
		C116.214,72.782,113.009,73.849,112.108,76.426L112.108,76.426z"/>
	<linearGradient id="SVGID_12_" gradientUnits="userSpaceOnUse" x1="117.8184" y1="72.834" x2="114.5252" y2="81.7717">
		<stop  offset="0" style="stop-color:#B4B4B4"/>
		<stop  offset="1" style="stop-color:#FFFFFF"/>
	</linearGradient>
	<path fill="url(#SVGID_12_)" d="M120.399,77.643c-1.669,4.227-6.721,4.591-8.178,1.495c-1.533-3.256,2.502-6.859,6.258-5.588
		C120.288,74.161,121.042,75.768,120.399,77.643L120.399,77.643z M111.498,76.335c-1.258,4.344,3.108,6.735,6.659,4.774
		c3.539-1.954,4.48-6.758,0.664-8.034C116.206,72.202,112.52,73.41,111.498,76.335L111.498,76.335z"/>
	<radialGradient id="SVGID_13_" cx="113.0361" cy="89.0322" r="3.3194" gradientUnits="userSpaceOnUse">
		<stop  offset="0" style="stop-color:#FFFFFF"/>
		<stop  offset="1" style="stop-color:#CDCCCC"/>
	</radialGradient>
	<path fill="url(#SVGID_13_)" d="M111.069,89.646c-0.17,2.148,2.125,3.236,3.512,2.157c1.523-1.185,0.879-3.765-1.012-4.059
		C112.353,87.556,111.232,88.408,111.069,89.646L111.069,89.646z"/>
	<linearGradient id="SVGID_14_" gradientUnits="userSpaceOnUse" x1="114.3721" y1="87.0898" x2="112.0722" y2="93.0477">
		<stop  offset="0" style="stop-color:#B4B4B4"/>
		<stop  offset="1" style="stop-color:#FFFFFF"/>
	</linearGradient>
	<path fill="url(#SVGID_14_)" d="M115.407,90.328c-0.412,2.288-2.877,2.339-3.891,0.989c-1.209-1.606,0.097-3.877,2.053-3.572
		C114.747,87.929,115.571,89.087,115.407,90.328L115.407,90.328z M110.456,89.55c-0.219,2.76,2.734,4.157,4.518,2.77
		c1.957-1.522,1.133-4.835-1.297-5.211C112.136,86.868,110.66,87.986,110.456,89.55L110.456,89.55z"/>
	<linearGradient id="SVGID_15_" gradientUnits="userSpaceOnUse" x1="5.019" y1="119.3975" x2="95.8564" y2="119.3975">
		<stop  offset="0" style="stop-color:#B4B4B4"/>
		<stop  offset="0.6529" style="stop-color:#676767"/>
		<stop  offset="0.6647" style="stop-color:#CDCCCC"/>
		<stop  offset="0.7235" style="stop-color:#E6E6E5"/>
		<stop  offset="1" style="stop-color:#B4B4B4"/>
	</linearGradient>
	<path fill="url(#SVGID_15_)" d="M95.697,109.97L36.804,99.628c-1.529,0.886-5.131,4.126-8.893,6.636
		c-6.793,4.531-12.99,9.174-17.056,11.478c-1.942,1.102-4.729,3.076-5.788,4.614c-0.068,1.02-0.095,1.321,0.143,1.98
		c0.332,0.921,1.125,1.568,3.319,1.958c6.353,1.13,45.626,10.476,52.604,11.805c6.978,1.33,10.172,1.729,13.075-0.647
		c3.242-2.653,13.371-11.531,21.648-18.784L95.697,109.97z"/>
	<path fill="#B4B4B4" d="M95.827,117.046c-0.502,0.441-1.012,0.886-1.526,1.337l1.556,0.284L95.827,117.046z"/>
	<linearGradient id="SVGID_16_" gradientUnits="userSpaceOnUse" x1="55.2119" y1="95.6191" x2="47.6725" y2="133.4047">
		<stop  offset="0" style="stop-color:#333333"/>
		<stop  offset="0.4" style="stop-color:#E6E6E5"/>
		<stop  offset="1" style="stop-color:#F3F3F3"/>
	</linearGradient>
	<path fill="url(#SVGID_16_)" d="M95.697,109.97L34.956,99.304c-1.823,1.414-20.054,14.497-24.101,16.791
		c-4.292,2.434-9.304,7.311-2.326,8.553c6.353,1.13,45.626,10.476,52.604,11.805c6.978,1.329,10.172,1.729,13.075-0.648
		c3.041-2.488,12.144-10.456,20.093-17.421c0.515-0.451,1.024-0.896,1.526-1.337L95.697,109.97z"/>
	<linearGradient id="SVGID_17_" gradientUnits="userSpaceOnUse" x1="62.0356" y1="121.5029" x2="59.4396" y2="136.0895">
		<stop  offset="0" style="stop-color:#818181"/>
		<stop  offset="1" style="stop-color:#CDCCCC"/>
	</linearGradient>
	<path fill="url(#SVGID_17_)" d="M43.825,128.725l2.131,4.361c7.02,1.607,12.867,2.926,15.177,3.366
		c1.32,0.252,2.504,0.469,3.578,0.642l13.771-12.892L43.825,128.725z"/>
	<linearGradient id="SVGID_18_" gradientUnits="userSpaceOnUse" x1="96.2705" y1="47.8892" x2="98.4305" y2="11.6686">
		<stop  offset="0" style="stop-color:#B4B4B4"/>
		<stop  offset="0.9412" style="stop-color:#E6E6E5"/>
		<stop  offset="1" style="stop-color:#CDCCCC"/>
	</linearGradient>
	<path fill="url(#SVGID_18_)" d="M133.603,19.784c0.352-1.375-0.102-2.727-1.001-3.963c-0.899-1.237-2.054-1.65-3.47-1.738
		l-56.138-3.408c-1.007-0.063-2.473,0.261-3.36,0.891c-0.886,0.631-0.747,0.951-1.018,1.924l-7.651,27.384l64.345,8.71l0.902-0.619
		L133.603,19.784z"/>
	<linearGradient id="SVGID_19_" gradientUnits="userSpaceOnUse" x1="93.8887" y1="49.4263" x2="99.2092" y2="9.9009">
		<stop  offset="0" style="stop-color:#B4B4B4"/>
		<stop  offset="0.1118" style="stop-color:#E6E6E5"/>
		<stop  offset="1" style="stop-color:#F3F3F3"/>
	</linearGradient>
	<path fill="url(#SVGID_19_)" d="M132.014,16.272c-0.899-1.237-2.267-1.934-3.683-2.021l-55.836-3.474
		c-1.006-0.063-2.042,0.205-2.929,0.835c-0.886,0.631-1.479,1.521-1.751,2.492l-7.651,27.384l-0.525,2.05l62.931,7.93l3.357-2.308
		l-0.617,0.423l7.492-29.184C133.155,19.025,132.913,17.51,132.014,16.272z"/>
	<linearGradient id="SVGID_20_" gradientUnits="userSpaceOnUse" x1="93.3477" y1="48.3662" x2="101.5442" y2="-1.4786">
		<stop  offset="0" style="stop-color:#FFFFFF"/>
		<stop  offset="1" style="stop-color:#F3F3F3"/>
	</linearGradient>
	<polygon fill="url(#SVGID_20_)" points="127.341,1.772 78.923,0 67.646,44.548 116.063,50.65 	"/>
	<polygon fill="#B4B4B4" points="127.341,1.772 128.131,3.471 117.435,50.821 116.063,50.65 	"/>
	<g>
		<linearGradient id="SVGID_21_" gradientUnits="userSpaceOnUse" x1="114.1865" y1="123.7676" x2="141.9327" y2="49.9994">
			<stop  offset="0" style="stop-color:#E6E6E5"/>
			<stop  offset="0.5" style="stop-color:#FFFFFF"/>
			<stop  offset="1" style="stop-color:#E6E6E5"/>
		</linearGradient>
		<path fill="url(#SVGID_21_)" d="M120.903,126.294c0.196-3.981,0.296-6.685,0.24-11.446c0.041-2.563-0.293-10.359-0.063-17.394
			c0.44-7.071,1.888-13.366,1.878-13.359c0.095,0.058,1.091-6.437,4.43-12.649c1.611-3.186,4.372-5.542,6.951-7.403
			c2.482-1.933,4.52-3.519,5.537-4.313c3.754-2.93,5.803-4.695,8.791-7.334c-3.293,2.247-5.507,3.8-9.269,6.721
			c-1.02,0.791-3.058,2.375-5.54,4.309c-2.515,1.797-5.531,4.383-7.153,7.64c-3.423,6.383-4.405,12.913-4.506,12.862
			c0.009-0.002-1.454,6.345-1.9,13.475c-0.233,7.159,0.103,14.865,0.066,17.457C120.433,119.619,120.604,122.319,120.903,126.294z"
			/>
	</g>
	<g>
		<linearGradient id="SVGID_22_" gradientUnits="userSpaceOnUse" x1="33.0664" y1="96.3691" x2="22.7988" y2="140.8495">
			<stop  offset="0" style="stop-color:#036667"/>
			<stop  offset="0.2" style="stop-color:#59C6D0"/>
			<stop  offset="0.7588" style="stop-color:#71CDDD"/>
			<stop  offset="1" style="stop-color:#01999A"/>
		</linearGradient>
		<path fill="url(#SVGID_22_)" d="M40.448,115.391l15.55-12.441l-12.979-2.296l-16.046,12.531
			C14.047,121.99,0.637,124.892,0,134.245l13.292,3.483C13.938,127.253,27.938,124.812,40.448,115.391z"/>
		<linearGradient id="SVGID_23_" gradientUnits="userSpaceOnUse" x1="59.2676" y1="102.417" x2="48.9967" y2="146.9115">
			<stop  offset="0" style="stop-color:#66682C"/>
			<stop  offset="0.2" style="stop-color:#E4E417"/>
			<stop  offset="0.7588" style="stop-color:#F6EB16"/>
			<stop  offset="1" style="stop-color:#989A37"/>
		</linearGradient>
		<path fill="url(#SVGID_23_)" d="M67.4,119.801l14.534-12.265l-12.956-2.291l-15.054,12.35
			c-11.993,9.952-26.432,12.28-27.313,23.623l13.284,3.479C40.723,132.183,55.787,130.391,67.4,119.801z"/>
		<linearGradient id="SVGID_24_" gradientUnits="userSpaceOnUse" x1="46.1553" y1="99.3906" x2="35.8879" y2="143.8701">
			<stop  offset="0" style="stop-color:#642165"/>
			<stop  offset="0.2" style="stop-color:#B24C9C"/>
			<stop  offset="0.7588" style="stop-color:#B9539F"/>
			<stop  offset="1" style="stop-color:#93268F"/>
		</linearGradient>
		<path fill="url(#SVGID_24_)" d="M53.924,117.595l15.054-12.35l-12.98-2.296l-15.55,12.441
			c-12.51,9.421-26.51,11.862-27.156,22.338l13.319,3.489C27.492,129.875,41.931,127.547,53.924,117.595z"/>
		<linearGradient id="SVGID_25_" gradientUnits="userSpaceOnUse" x1="72.3564" y1="105.4395" x2="62.0889" y2="149.9194">
			<stop  offset="0" style="stop-color:#010101"/>
			<stop  offset="0.2" style="stop-color:#1A1A1A"/>
			<stop  offset="0.7588" style="stop-color:#818181"/>
			<stop  offset="1" style="stop-color:#010101"/>
		</linearGradient>
		<path fill="url(#SVGID_25_)" d="M81.934,107.536L67.4,119.801c-11.613,10.59-26.677,12.382-27.505,24.896l13.272,3.479
			c0.672-13.838,16.443-14.902,27.709-26.17l14.063-12.169L81.934,107.536z"/>
	</g>
	<linearGradient id="SVGID_26_" gradientUnits="userSpaceOnUse" x1="27.4238" y1="101.3301" x2="34.9556" y2="101.3301">
		<stop  offset="0" style="stop-color:#B4B4B4"/>
		<stop  offset="1" style="stop-color:#4E4E4E"/>
	</linearGradient>
	<path fill="url(#SVGID_26_)" d="M34.956,99.304l-7.532-1.323l0.394,6.698c0.031-0.021,0.062-0.042,0.093-0.063
		C30.563,102.846,33.133,100.718,34.956,99.304z"/>
</g>
</svg>
