<?xml version="1.0" encoding="utf-8"?>
<!-- Generator: Adobe Illustrator 16.0.0, SVG Export Plug-In . SVG Version: 6.00 Build 0)  -->
<!DOCTYPE svg PUBLIC "-//W3C//DTD SVG 1.1 Basic//EN" "http://www.w3.org/Graphics/SVG/1.1/DTD/svg11-basic.dtd">
<svg version="1.1" baseProfile="basic" id="Layer_1"
	 xmlns="http://www.w3.org/2000/svg" xmlns:xlink="http://www.w3.org/1999/xlink" x="0px" y="0px" width="519.039px"
	 height="184.741px" viewBox="0 0 519.039 184.741" xml:space="preserve">
<g>
	
		<linearGradient id="SVGID_1_" gradientUnits="userSpaceOnUse" x1="171.6831" y1="82.7554" x2="356.4233" y2="82.7554" gradientTransform="matrix(0 1 -1 -2.086163e-007 342.2754 -171.6832)">
		<stop  offset="0" style="stop-color:#2A3492"/>
		<stop  offset="0.0232" style="stop-color:#30469C"/>
		<stop  offset="0.0568" style="stop-color:#395DAA"/>
		<stop  offset="0.0836" style="stop-color:#406BB3"/>
		<stop  offset="0.1" style="stop-color:#4370B7"/>
		<stop  offset="0.1929" style="stop-color:#395EAA"/>
		<stop  offset="0.3273" style="stop-color:#30489C"/>
		<stop  offset="0.4343" style="stop-color:#2B3994"/>
		<stop  offset="0.5" style="stop-color:#2A3492"/>
		<stop  offset="0.5749" style="stop-color:#2E3994"/>
		<stop  offset="0.697" style="stop-color:#3B489C"/>
		<stop  offset="0.8503" style="stop-color:#5160AB"/>
		<stop  offset="0.9" style="stop-color:#5969B1"/>
		<stop  offset="0.9344" style="stop-color:#5263AE"/>
		<stop  offset="0.9905" style="stop-color:#3E56A6"/>
		<stop  offset="1" style="stop-color:#3A53A4"/>
	</linearGradient>
	<path fill="url(#SVGID_1_)" d="M14.429,78.921C26.065,51.58,35.597,34.656,55.797,20.563C75.301,6.956,213.207,0,284.724,0
		c71.519,0,163.188,2.535,181.69,15.92c19.156,13.858,29.439,35.66,39.442,63.001c10.967,29.982,18.614,58.385,8.342,79.04
		c-11.075,22.273-131.53,26.779-227.423,26.779c-95.893,0-272.844-12.142-282.574-33.952
		C-4.827,130.548,1.669,108.903,14.429,78.921z"/>
	<g>
		
			<linearGradient id="SVGID_2_" gradientUnits="userSpaceOnUse" x1="253.1953" y1="-18.1987" x2="253.1953" y2="-62.7954" gradientTransform="matrix(0 1 -1 -2.086163e-007 342.2754 -171.6832)">
			<stop  offset="0" style="stop-color:#1A1A1A"/>
			<stop  offset="0.2395" style="stop-color:#262626"/>
			<stop  offset="0.5779" style="stop-color:#303030"/>
			<stop  offset="1" style="stop-color:#333333"/>
		</linearGradient>
		<path fill="url(#SVGID_2_)" d="M360.689,80.633c-1.665-12.645,6.514-22.559,18.17-22.559s23.144,9.914,25.698,22.559
			c2.664,13.179-5.309,24.319-17.875,24.319C374.115,104.952,362.424,93.812,360.689,80.633z"/>
		
			<linearGradient id="SVGID_3_" gradientUnits="userSpaceOnUse" x1="258.5356" y1="17.8662" x2="258.5356" y2="-100.668" gradientTransform="matrix(0 1 -1 -2.086163e-007 342.2754 -171.6832)">
			<stop  offset="0" style="stop-color:#1A1A1A"/>
			<stop  offset="0.2395" style="stop-color:#262626"/>
			<stop  offset="0.5779" style="stop-color:#303030"/>
			<stop  offset="1" style="stop-color:#333333"/>
		</linearGradient>
		<path fill="url(#SVGID_3_)" d="M324.586,80.632c-2.385-32.371,19.53-56.326,48.637-56.326s59.018,23.955,67.438,56.327
			c9.396,36.126-11.025,68.769-46.561,68.769S327.249,116.758,324.586,80.632z M413.483,80.633
			c-3.818-17.644-19.917-31.277-36.079-31.277s-27.712,13.633-25.642,31.277c2.195,18.704,18.696,34.767,36.663,34.767
			S417.532,99.336,413.483,80.633z"/>
		
			<linearGradient id="SVGID_4_" gradientUnits="userSpaceOnUse" x1="252.9702" y1="-21.23" x2="252.9702" y2="-59.688" gradientTransform="matrix(0 1 -1 -2.086163e-007 342.2754 -171.6832)">
			<stop  offset="0" style="stop-color:#333333"/>
			<stop  offset="0.1974" style="stop-color:#484848"/>
			<stop  offset="0.4292" style="stop-color:#595959"/>
			<stop  offset="0.6834" style="stop-color:#636363"/>
			<stop  offset="1" style="stop-color:#666666"/>
		</linearGradient>
		<path fill="url(#SVGID_4_)" d="M386.105,101.496c-10.798,0-20.85-9.514-22.399-20.863c-1.495-10.952,5.536-19.552,15.655-19.552
			c10.118,0,20.019,8.6,22.18,19.552C403.779,91.982,396.901,101.496,386.105,101.496z"/>
		
			<linearGradient id="SVGID_5_" gradientUnits="userSpaceOnUse" x1="258.0127" y1="15.4136" x2="258.0127" y2="-98.0454" gradientTransform="matrix(0 1 -1 -2.086163e-007 342.2754 -171.6832)">
			<stop  offset="0" style="stop-color:#A87C2C"/>
			<stop  offset="0.4355" style="stop-color:#A67B2E"/>
			<stop  offset="0.6252" style="stop-color:#9F7934"/>
			<stop  offset="0.7671" style="stop-color:#92753F"/>
			<stop  offset="0.8845" style="stop-color:#806F4F"/>
			<stop  offset="0.9869" style="stop-color:#6A6763"/>
			<stop  offset="1" style="stop-color:#666666"/>
		</linearGradient>
		<path fill="url(#SVGID_5_)" d="M438.195,80.633c-7.968-31.113-36.586-54.143-64.607-54.143c-28.023,0-48.952,23.03-46.536,54.142
			c2.683,34.566,32.588,65.54,66.51,65.54S447.049,115.2,438.195,80.633z M349.341,80.633
			c-2.156-19.014,10.287-33.597,27.675-33.597s34.699,14.583,38.889,33.597c4.461,20.25-7.505,37.662-26.996,37.662
			C369.417,118.294,351.639,100.883,349.341,80.633z"/>
		<g>
			<g>
				<path fill="#FFFFFF" d="M383.39,78.627l2.256-6.027c0.409-1.093-0.238-1.984-1.434-1.984h-6.522
					c-1.198,0-1.544,0.892-0.771,1.984l4.268,6.027C381.979,79.747,382.972,79.747,383.39,78.627z"/>
			</g>
			<path fill="#FFFFFF" d="M388.066,84.531l-0.211-1.202c-0.132-0.765-0.825-1.389-1.538-1.389h-6.952
				c-0.712,0-1.195,0.624-1.074,1.389l0.191,1.202c0.123,0.769,0.81,1.4,1.528,1.4h6.995C387.723,85.931,388.2,85.3,388.066,84.531z
				 M389.174,90.886l-0.214-1.227c-0.136-0.78-0.837-1.417-1.557-1.417h-7.022c-0.72,0-1.207,0.637-1.083,1.417l0.195,1.227
				c0.124,0.785,0.821,1.428,1.545,1.428h7.067C388.831,92.314,389.312,91.671,389.174,90.886z"/>
		</g>
		<g>
			<path fill="#FFFFFF" d="M392.847,135.574l2.073-6.306c0.375-1.145-0.256-2.077-1.403-2.077h-6.249
				c-1.148,0-1.468,0.933-0.71,2.077l4.178,6.306C391.511,136.744,392.46,136.744,392.847,135.574z"/>
		</g>
		<g>
			<path fill="#FFFFFF" d="M373.831,33.316l-1.943,4.626c-0.359,0.856,0.16,1.559,1.156,1.559h5.432
				c0.996,0,1.281-0.702,0.635-1.559l-3.486-4.626C374.99,32.476,374.184,32.476,373.831,33.316z"/>
		</g>
		<g>
			<path fill="#FFFFFF" d="M335.031,81.308l5.352,3.125c0.987,0.577,1.7,0.104,1.584-1.047l-0.627-6.198
				c-0.113-1.125-0.91-1.582-1.771-1.021l-4.723,3.074C333.971,79.807,334.055,80.737,335.031,81.308z"/>
		</g>
		<g>
			<path fill="#FFFFFF" d="M429.936,79.24l-5.75-3.073c-1.048-0.561-1.691-0.102-1.43,1.022l1.441,6.199
				c0.268,1.151,1.139,1.623,1.934,1.046l4.309-3.126C431.225,80.738,430.998,79.808,429.936,79.24z"/>
		</g>
	</g>
	<g>
		
			<linearGradient id="SVGID_6_" gradientUnits="userSpaceOnUse" x1="207.0049" y1="65.7852" x2="207.0049" y2="34.6416" gradientTransform="matrix(0 1 -1 -2.086163e-007 342.2754 -171.6832)">
			<stop  offset="0" style="stop-color:#1A1A1A"/>
			<stop  offset="0.2395" style="stop-color:#262626"/>
			<stop  offset="0.5779" style="stop-color:#303030"/>
			<stop  offset="1" style="stop-color:#333333"/>
		</linearGradient>
		<path fill="url(#SVGID_6_)" d="M276.49,34.913c0.032-8.362,6.856-14.986,15.215-14.986c8.357,0,15.49,6.625,15.909,14.986
			c0.431,8.61-6.381,15.806-15.196,15.806C283.602,50.72,276.457,43.523,276.49,34.913z"/>
		
			<linearGradient id="SVGID_7_" gradientUnits="userSpaceOnUse" x1="206.8579" y1="62.6719" x2="206.8579" y2="37.7607" gradientTransform="matrix(0 1 -1 -2.086163e-007 342.2754 -171.6832)">
			<stop  offset="0" style="stop-color:#333333"/>
			<stop  offset="0.1974" style="stop-color:#484848"/>
			<stop  offset="0.4292" style="stop-color:#595959"/>
			<stop  offset="0.6834" style="stop-color:#636363"/>
			<stop  offset="1" style="stop-color:#666666"/>
		</linearGradient>
		<path fill="url(#SVGID_7_)" d="M292.342,47.49c-7.025,0-12.729-5.698-12.739-12.577c-0.011-6.72,5.438-12.051,12.17-12.051
			c6.732,0,12.428,5.332,12.729,12.051C304.81,41.792,299.368,47.49,292.342,47.49z"/>
		<path fill="#FFFFFF" d="M291.072,29.173l-2.468,4.343c-0.457,0.803-0.061,1.463,0.883,1.463h1.211l-2.008,3.565
			c-0.461,0.818-0.061,1.488,0.891,1.488h5.178c0.952,0,1.32-0.67,0.823-1.488l-2.174-3.565h1.211c0.944,0,1.31-0.66,0.815-1.463
			l-2.668-4.343C292.282,28.383,291.518,28.383,291.072,29.173z"/>
	</g>
	<g>
		
			<linearGradient id="SVGID_8_" gradientUnits="userSpaceOnUse" x1="302.5308" y1="66.1514" x2="302.5308" y2="29.8569" gradientTransform="matrix(0 1 -1 -2.086163e-007 342.2754 -171.6832)">
			<stop  offset="0" style="stop-color:#1A1A1A"/>
			<stop  offset="0.2395" style="stop-color:#262626"/>
			<stop  offset="0.5779" style="stop-color:#303030"/>
			<stop  offset="1" style="stop-color:#333333"/>
		</linearGradient>
		<path fill="url(#SVGID_8_)" d="M276.124,130.197c0.044-11.322,7.967-20.255,17.663-20.255s18.034,8.933,18.601,20.255
			c0.588,11.721-7.315,21.559-17.634,21.559C284.436,151.755,276.079,141.917,276.124,130.197z"/>
		
			<linearGradient id="SVGID_9_" gradientUnits="userSpaceOnUse" x1="302.2944" y1="62.5244" x2="302.2944" y2="33.4941" gradientTransform="matrix(0 1 -1 -2.086163e-007 342.2754 -171.6832)">
			<stop  offset="0" style="stop-color:#333333"/>
			<stop  offset="0.1974" style="stop-color:#484848"/>
			<stop  offset="0.4292" style="stop-color:#595959"/>
			<stop  offset="0.6834" style="stop-color:#636363"/>
			<stop  offset="1" style="stop-color:#666666"/>
		</linearGradient>
		<path fill="url(#SVGID_9_)" d="M294.652,147.333c-8.215,0-14.887-7.776-14.901-17.136c-0.014-9.102,6.313-16.303,14.127-16.303
			c7.817,0,14.478,7.201,14.884,16.303C309.179,139.556,302.868,147.333,294.652,147.333z"/>
		<path fill="#FFFFFF" d="M295.468,138.865l2.851-6.07c0.519-1.102,0.043-2.001-1.058-2.001h-1.41l2.271-4.783
			c0.513-1.079,0.043-1.96-1.047-1.96h-5.925c-1.089,0-1.521,0.881-0.956,1.96l2.494,4.783h-1.413c-1.1,0-1.534,0.899-0.965,2.001
			l3.136,6.07C294.027,139.988,294.939,139.988,295.468,138.865z"/>
	</g>
	<g>
		
			<linearGradient id="SVGID_10_" gradientUnits="userSpaceOnUse" x1="253.2148" y1="71.3369" x2="253.2148" y2="26.9526" gradientTransform="matrix(0 1 -1 -2.086163e-007 342.2754 -171.6832)">
			<stop  offset="0" style="stop-color:#1A1A1A"/>
			<stop  offset="0.2395" style="stop-color:#262626"/>
			<stop  offset="0.5779" style="stop-color:#303030"/>
			<stop  offset="1" style="stop-color:#333333"/>
		</linearGradient>
		<path fill="url(#SVGID_10_)" d="M270.94,80.632c0.16-12.776,9.865-22.79,21.642-22.79c11.777,0,21.945,10.013,22.696,22.79
			c0.782,13.322-8.894,24.591-21.602,24.591C280.971,105.223,270.775,93.954,270.94,80.632z"/>
		
			<linearGradient id="SVGID_11_" gradientUnits="userSpaceOnUse" x1="252.979" y1="68.2271" x2="252.979" y2="30.0742" gradientTransform="matrix(0 1 -1 -2.086163e-007 342.2754 -171.6832)">
			<stop  offset="0" style="stop-color:#00AA94"/>
			<stop  offset="0.3481" style="stop-color:#02A893"/>
			<stop  offset="0.5254" style="stop-color:#0AA38F"/>
			<stop  offset="0.6642" style="stop-color:#179A89"/>
			<stop  offset="0.7829" style="stop-color:#2A8E81"/>
			<stop  offset="0.8889" style="stop-color:#437E76"/>
			<stop  offset="0.9844" style="stop-color:#606A69"/>
			<stop  offset="1" style="stop-color:#666666"/>
		</linearGradient>
		<path fill="url(#SVGID_11_)" d="M293.595,101.657c-10.882,0-19.631-9.588-19.547-21.025c0.083-11.034,8.411-19.695,18.604-19.695
			c10.195,0,18.925,8.661,19.516,19.695C312.786,92.069,304.478,101.657,293.595,101.657z"/>
		<path fill="#FFFFFF" d="M292.494,76.688l0.063,2.82h1.33l-0.069-2.82h1.494l0.08,2.992h1.34l-0.137-4.708h-7.175l0.085,4.867
			h1.342l-0.061-3.151H292.494z M296.457,70.122l-2.387-0.786c-0.808-0.254-1.741-0.507-2.568-0.707v-0.044
			c0.83-0.166,1.708-0.386,2.512-0.627l2.358-0.726l-0.064-2.219l-7.066-0.469l0.026,1.538l2.688,0.143
			c0.883,0.043,1.976,0.088,2.932,0.121l0.001,0.021c-0.931,0.185-1.921,0.426-2.757,0.668l-2.718,0.791l0.023,1.312l2.793,0.906
			c0.841,0.289,1.863,0.599,2.778,0.843l0.001,0.023c-1.048,0-2.072,0.033-2.929,0.066l-2.727,0.123l0.028,1.648l7.137-0.401
			L296.457,70.122z M297.197,95.704h-4.257c-1.318,0-1.947-0.529-1.966-1.489c-0.017-0.918,0.619-1.455,1.9-1.455h4.237
			l-0.053-1.806h-4.105c-2.336,0-3.354,1.174-3.32,3.202c0.036,2.112,1.15,3.38,3.446,3.38h4.171L297.197,95.704z M294.813,86.804
			c-1.106,0-2.093,0.034-3.056,0.141V86.92c0.815-0.361,1.716-0.816,2.474-1.283l2.628-1.625l-0.061-2.056h-7.256l0.028,1.614h2.19
			c1.188,0,2.213-0.022,3.183-0.079l0.001,0.044c-0.843,0.37-1.76,0.894-2.538,1.357l-2.784,1.678l0.033,1.875h7.33l-0.047-1.642
			H294.813z"/>
	</g>
	<g>
		
			<linearGradient id="SVGID_12_" gradientUnits="userSpaceOnUse" x1="207.0054" y1="115.3784" x2="207.0054" y2="84.1821" gradientTransform="matrix(0 1 -1 -2.086163e-007 342.2754 -171.6832)">
			<stop  offset="0" style="stop-color:#1A1A1A"/>
			<stop  offset="0.2395" style="stop-color:#262626"/>
			<stop  offset="0.5779" style="stop-color:#303030"/>
			<stop  offset="1" style="stop-color:#333333"/>
		</linearGradient>
		<path fill="url(#SVGID_12_)" d="M226.959,34.913c0.75-8.361,8.145-14.986,16.501-14.986c8.358,0,14.921,6.625,14.623,14.986
			c-0.308,8.61-7.737,15.807-16.554,15.807C232.714,50.72,226.188,43.523,226.959,34.913z"/>
		
			<linearGradient id="SVGID_13_" gradientUnits="userSpaceOnUse" x1="206.8579" y1="112.2476" x2="206.8579" y2="87.2944" gradientTransform="matrix(0 1 -1 -2.086163e-007 342.2754 -171.6832)">
			<stop  offset="0" style="stop-color:#333333"/>
			<stop  offset="0.1974" style="stop-color:#484848"/>
			<stop  offset="0.4292" style="stop-color:#595959"/>
			<stop  offset="0.6834" style="stop-color:#636363"/>
			<stop  offset="1" style="stop-color:#666666"/>
		</linearGradient>
		<path fill="url(#SVGID_13_)" d="M241.733,47.49c-7.025,0-12.24-5.698-11.661-12.577c0.566-6.719,6.473-12.051,13.205-12.051
			c6.732,0,11.97,5.332,11.693,12.051C254.688,41.792,248.758,47.49,241.733,47.49z"/>
		<g>
			<g>
				<path fill="#FFFFFF" d="M247.495,34.003l-1.988-3.591c-0.087-0.156-0.308-0.283-0.493-0.283h-0.073l0.095-1.612
					c0.011-0.182-0.132-0.329-0.316-0.329h-3.552c-0.186,0-0.346,0.147-0.358,0.329l-0.107,1.612h-0.073
					c-0.187,0-0.424,0.127-0.53,0.283l-2.439,3.591c-0.107,0.158-0.042,0.288,0.144,0.288h9.51
					C247.501,34.291,247.584,34.161,247.495,34.003z"/>
				<path fill="#FFFFFF" d="M243.022,41.526l0.118-1.936h1.936c0.504,0,0.935-0.408,0.964-0.909c0.028-0.5-0.356-0.905-0.859-0.905
					h-1.93l0.117-1.911c0.031-0.497-0.351-0.898-0.851-0.898s-0.931,0.402-0.963,0.898l-0.124,1.911h-1.93
					c-0.503,0-0.938,0.405-0.973,0.905c-0.035,0.501,0.345,0.909,0.85,0.909h1.936l-0.124,1.936
					c-0.033,0.506,0.352,0.917,0.859,0.917C242.556,42.444,242.991,42.032,243.022,41.526z"/>
			</g>
		</g>
	</g>
	<g>
		
			<linearGradient id="SVGID_14_" gradientUnits="userSpaceOnUse" x1="302.5308" y1="123.9595" x2="302.5308" y2="87.5815" gradientTransform="matrix(0 1 -1 -2.086163e-007 342.2754 -171.6832)">
			<stop  offset="0" style="stop-color:#1A1A1A"/>
			<stop  offset="0.2395" style="stop-color:#262626"/>
			<stop  offset="0.5779" style="stop-color:#303030"/>
			<stop  offset="1" style="stop-color:#333333"/>
		</linearGradient>
		<path fill="url(#SVGID_14_)" d="M218.414,130.197c1.017-11.322,9.706-20.255,19.402-20.255c9.697,0,17.267,8.933,16.862,20.255
			c-0.419,11.721-9.166,21.559-19.484,21.559C224.876,151.755,217.363,141.917,218.414,130.197z"/>
		
			<linearGradient id="SVGID_15_" gradientUnits="userSpaceOnUse" x1="302.2944" y1="120.3042" x2="302.2944" y2="91.2075" gradientTransform="matrix(0 1 -1 -2.086163e-007 342.2754 -171.6832)">
			<stop  offset="0" style="stop-color:#333333"/>
			<stop  offset="0.1974" style="stop-color:#484848"/>
			<stop  offset="0.4292" style="stop-color:#595959"/>
			<stop  offset="0.6834" style="stop-color:#636363"/>
			<stop  offset="1" style="stop-color:#666666"/>
		</linearGradient>
		<path fill="url(#SVGID_15_)" d="M235.471,147.333c-8.214,0-14.219-7.776-13.43-17.136c0.767-9.102,7.711-16.303,15.526-16.303
			c7.818,0,13.858,7.201,13.484,16.303C250.666,139.556,243.688,147.333,235.471,147.333z"/>
		<g>
			<g>
				<path fill="#FFFFFF" d="M242.327,129.391l-2.276-4.875c-0.099-0.211-0.356-0.384-0.573-0.384h-0.084l0.128-2.185
					c0.015-0.244-0.15-0.443-0.364-0.443h-4.134c-0.213,0-0.404,0.199-0.421,0.443l-0.145,2.185h-0.085
					c-0.214,0-0.494,0.173-0.62,0.384l-2.889,4.875c-0.128,0.216-0.054,0.391,0.165,0.391h11.085
					C242.332,129.782,242.427,129.607,242.327,129.391z"/>
				<path fill="#FFFFFF" d="M237.054,139.134l0.441-7.213c0.041-0.674-0.399-1.221-0.981-1.221c-0.585,0-1.092,0.547-1.136,1.221
					l-0.463,7.213c-0.045,0.691,0.399,1.25,0.991,1.25C236.498,140.384,237.012,139.826,237.054,139.134z"/>
			</g>
		</g>
	</g>
	<g>
		
			<linearGradient id="SVGID_16_" gradientUnits="userSpaceOnUse" x1="207.0054" y1="-80.6289" x2="207.0054" y2="-112.9214" gradientTransform="matrix(0 1 -1 -2.086163e-007 342.2754 -171.6832)">
			<stop  offset="0" style="stop-color:#1A1A1A"/>
			<stop  offset="0.2395" style="stop-color:#262626"/>
			<stop  offset="0.5779" style="stop-color:#303030"/>
			<stop  offset="1" style="stop-color:#333333"/>
		</linearGradient>
		<path fill="url(#SVGID_16_)" d="M423.373,34.913c-2.097-8.362,3.043-14.986,11.399-14.986c8.357,0,17.178,6.625,19.725,14.986
			c2.623,8.61-2.356,15.807-11.173,15.807C434.508,50.72,425.532,43.523,423.373,34.913z"/>
		
			<linearGradient id="SVGID_17_" gradientUnits="userSpaceOnUse" x1="206.8579" y1="-83.8174" x2="206.8579" y2="-109.6504" gradientTransform="matrix(0 1 -1 -2.086163e-007 342.2754 -171.6832)">
			<stop  offset="0" style="stop-color:#D37728"/>
			<stop  offset="0.0941" style="stop-color:#DB8727"/>
			<stop  offset="0.2476" style="stop-color:#E69E24"/>
			<stop  offset="0.4092" style="stop-color:#F0B120"/>
			<stop  offset="0.5803" style="stop-color:#F8C01C"/>
			<stop  offset="0.7672" style="stop-color:#FEC917"/>
			<stop  offset="1" style="stop-color:#FFCC14"/>
		</linearGradient>
		<path fill="url(#SVGID_17_)" d="M442.426,47.49c-7.024,0-14.179-5.698-15.941-12.577c-1.72-6.72,2.372-12.051,9.103-12.051
			c6.731,0,13.785,5.332,15.797,12.051C453.442,41.792,449.453,47.49,442.426,47.49z"/>
		<g>
			<path fill="#FFFFFF" d="M433.989,30.278l-0.54-1.99c-0.169-0.627-0.828-1.135-1.469-1.135s-1.026,0.508-0.859,1.135l0.532,1.99
				c0.17,0.634,0.831,1.149,1.479,1.149C433.778,31.427,434.162,30.912,433.989,30.278z M440.424,30.278l-0.562-1.99
				c-0.178-0.627-0.843-1.135-1.483-1.135c-0.643,0-1.021,0.508-0.846,1.135l0.554,1.99c0.177,0.634,0.845,1.149,1.491,1.149
				C440.223,31.427,440.604,30.912,440.424,30.278z M442.158,33.287l2.528,8.9c0.188,0.659,0.876,1.196,1.536,1.196
				s1.04-0.537,0.85-1.196l-2.564-8.9c-0.184-0.639-0.857-1.155-1.505-1.155C442.356,32.131,441.978,32.648,442.158,33.287z
				 M437.206,30.278l-0.551-1.99c-0.173-0.627-0.834-1.135-1.476-1.135c-0.641,0-1.023,0.508-0.852,1.135l0.542,1.99
				c0.174,0.634,0.839,1.149,1.484,1.149C437,31.427,437.382,30.912,437.206,30.278z M440.503,42.187l-2.464-8.9
				c-0.177-0.639-0.845-1.155-1.491-1.155s-1.032,0.517-0.857,1.155l2.428,8.9c0.182,0.659,0.863,1.196,1.522,1.196
				S440.686,42.846,440.503,42.187z M443.789,42.187l-2.514-8.9c-0.181-0.639-0.854-1.155-1.499-1.155
				c-0.647,0-1.028,0.517-0.851,1.155l2.479,8.9c0.184,0.659,0.869,1.196,1.528,1.196S443.975,42.846,443.789,42.187z
				 M443.64,30.278l-0.572-1.99c-0.182-0.627-0.848-1.135-1.49-1.135c-0.641,0-1.018,0.508-0.84,1.135l0.565,1.99
				c0.181,0.634,0.852,1.149,1.497,1.149C443.447,31.427,443.823,30.912,443.64,30.278z M437.22,42.187l-2.415-8.9
				c-0.172-0.639-0.838-1.155-1.483-1.155c-0.647,0-1.035,0.517-0.864,1.155l2.378,8.9c0.177,0.659,0.855,1.196,1.516,1.196
				C437.009,43.383,437.4,42.846,437.22,42.187z"/>
		</g>
	</g>
	<g>
		
			<linearGradient id="SVGID_18_" gradientUnits="userSpaceOnUse" x1="302.5308" y1="-104.2544" x2="302.5308" y2="-142.353" gradientTransform="matrix(0 1 -1 -2.086163e-007 342.2754 -171.6832)">
			<stop  offset="0" style="stop-color:#1A1A1A"/>
			<stop  offset="0.2395" style="stop-color:#262626"/>
			<stop  offset="0.5779" style="stop-color:#303030"/>
			<stop  offset="1" style="stop-color:#333333"/>
		</linearGradient>
		<path fill="url(#SVGID_18_)" d="M447.264,130.198c-2.84-11.323,2.809-20.256,12.507-20.256c9.695,0,20.307,8.933,23.757,20.256
			c3.57,11.72-1.828,21.558-12.146,21.558C461.064,151.755,450.203,141.917,447.264,130.198z"/>
		
			<linearGradient id="SVGID_19_" gradientUnits="userSpaceOnUse" x1="302.2954" y1="-108" x2="302.2954" y2="-138.478" gradientTransform="matrix(0 1 -1 -2.086163e-007 342.2754 -171.6832)">
			<stop  offset="0" style="stop-color:#35803E"/>
			<stop  offset="0.0932" style="stop-color:#358940"/>
			<stop  offset="0.287" style="stop-color:#339A45"/>
			<stop  offset="0.4935" style="stop-color:#31A647"/>
			<stop  offset="0.7191" style="stop-color:#2FAF49"/>
			<stop  offset="1" style="stop-color:#2DB34A"/>
		</linearGradient>
		<path fill="url(#SVGID_19_)" d="M470.155,147.333c-8.215,0-16.867-7.777-19.264-17.136c-2.332-9.103,2.161-16.304,9.978-16.304
			s16.308,7.201,19.033,16.304C482.703,139.556,478.37,147.333,470.155,147.333z"/>
		<path fill="#FFFFFF" d="M473.917,131.792h1.269c0.766,0,1.176-0.715,0.917-1.595c-0.258-0.877-1.082-1.587-1.846-1.587h-1.262
			c-2.102-4.957-6.899-8.631-11.254-8.631c-4.891,0-7.673,4.547-6.182,10.218c1.519,5.769,6.877,10.538,11.92,10.538
			C471.972,140.736,474.711,136.875,473.917,131.792z M458.323,130.198c-1.055-3.943,0.868-7.118,4.274-7.118
			c2.892,0,6.053,2.328,7.598,5.531h-6.067c-0.761,0-1.183,0.71-0.941,1.587c0.241,0.88,1.058,1.595,1.82,1.595h6.096
			c0.294,3.267-1.572,5.68-4.525,5.68C463.096,137.472,459.388,134.188,458.323,130.198z"/>
	</g>
</g>
</svg>
