<?xml version="1.0" encoding="utf-8"?>
<!-- Generator: Adobe Illustrator 16.0.0, SVG Export Plug-In . SVG Version: 6.00 Build 0)  -->
<!DOCTYPE svg PUBLIC "-//W3C//DTD SVG 1.1//EN" "http://www.w3.org/Graphics/SVG/1.1/DTD/svg11.dtd">
<svg version="1.1" id="Layer_1" xmlns="http://www.w3.org/2000/svg" xmlns:xlink="http://www.w3.org/1999/xlink" x="0px" y="0px"
	 width="125.079px" height="85.938px" viewBox="0 0 125.079 85.938" enable-background="new 0 0 125.079 85.938"
	 xml:space="preserve">
<g>
	<path fill="#6B1D11" d="M62.16,1c-0.322,0-0.632,0.023-0.953,0.03c-17.369,0.425-31.7,12.233-34.747,27.744
		c-1.163-0.352-2.406-0.567-3.695-0.567c-6.717,0-12.188,5.109-12.188,11.384c0,6.277,5.472,11.354,12.188,11.354
		c2.37,0,4.57-0.658,6.437-1.758c5.683,11.443,17.985,19.428,32.304,19.668c0.222,0.004,0.433,0.029,0.655,0.029
		c0.118,0,0.24,0.002,0.358,0c0.119,0.002,0.237,0,0.356,0c0.226-0.004,0.463-0.021,0.686-0.029
		c14.312-0.248,26.624-8.23,32.304-19.668c1.865,1.096,4.04,1.758,6.407,1.758c6.716,0,12.188-5.076,12.188-11.354
		c0-6.274-5.473-11.384-12.188-11.384c-1.285,0-2.505,0.216-3.665,0.567C95.56,13.257,81.206,1.449,63.829,1.03
		C63.276,1.008,62.719,1,62.16,1z"/>
	<path fill="#010101" d="M62.16,1V0c-0.371,0-0.688,0.024-0.976,0.031h-0.018h0.016C43.375,0.467,28.63,12.573,25.479,28.582
		l0.981,0.193l0.29-0.957c-1.244-0.376-2.584-0.61-3.985-0.61c-3.614,0-6.904,1.375-9.295,3.608
		c-2.392,2.231-3.894,5.343-3.893,8.776c-0.001,3.434,1.502,6.54,3.895,8.763c2.392,2.226,5.682,3.591,9.294,3.591
		c2.556,0,4.933-0.711,6.944-1.896l-0.508-0.861l-0.896,0.444c5.858,11.792,18.5,19.976,33.183,20.224
		c0.154,0.001,0.372,0.027,0.672,0.029l0.239,0.001l0.134-0.001l-0.015-1l-0.016,1l0.135,0.001l0.238-0.001h0.011h0.007
		c0.265-0.005,0.507-0.023,0.703-0.03l-0.035-0.999l0.018,1c14.675-0.256,27.326-8.437,33.182-20.224l-0.896-0.444l-0.507,0.862
		c2.005,1.179,4.359,1.896,6.914,1.896c3.611,0,6.901-1.365,9.294-3.591c2.393-2.223,3.896-5.329,3.895-8.763
		c0.001-3.433-1.502-6.545-3.894-8.776c-2.392-2.233-5.682-3.608-9.295-3.608c-1.397,0-2.718,0.236-3.954,0.609l0.289,0.958
		l0.981-0.193C96.437,12.567,81.669,0.46,63.854,0.031l-0.024,1l0.041-0.999C63.299,0.008,62.728,0,62.16,0V1v1
		c0.549,0,1.094,0.008,1.628,0.029l0.01,0h0.007c16.938,0.408,30.878,11.918,33.82,26.938l0.213,1.084l1.058-0.32
		c1.084-0.327,2.203-0.524,3.376-0.524c3.103,0,5.906,1.18,7.93,3.07c2.024,1.893,3.258,4.472,3.259,7.314
		c-0.001,2.843-1.234,5.414-3.257,7.299c-2.022,1.882-4.827,3.055-7.932,3.055c-2.18-0.001-4.175-0.607-5.9-1.62l-0.926-0.543
		l-0.477,0.961c-5.504,11.088-17.478,18.872-31.426,19.112h-0.007l-0.011,0.001c-0.249,0.009-0.481,0.025-0.668,0.028l0.018,1v-1
		l-0.238,0.001l-0.103-0.001h-0.016h-0.015l-0.104,0.001l-0.239-0.001c-0.145,0.002-0.35-0.022-0.638-0.029
		c-13.955-0.232-25.919-8.018-31.426-19.112l-0.478-0.963l-0.926,0.546c-1.721,1.014-3.745,1.619-5.929,1.619
		c-3.105,0-5.909-1.173-7.932-3.055c-2.022-1.885-3.255-4.456-3.256-7.299c0.001-2.842,1.234-5.421,3.258-7.314
		c2.023-1.89,4.828-3.07,7.931-3.07c1.178,0,2.323,0.196,3.406,0.524l1.058,0.32l0.213-1.084
		C30.384,13.953,44.301,2.444,61.231,2.03H61.23C61.584,2.021,61.886,2,62.16,2V1z"/>
	<path fill="#6B1D11" d="M24.959,33.506c-0.451-0.089-0.921-0.149-1.401-0.149c-3.671,0-6.674,2.799-6.674,6.229
		c0,3.43,3.003,6.228,6.674,6.228c1.092,0,2.102-0.279,3.011-0.715"/>
	<path fill="#010101" d="M25.056,33.016c-0.475-0.094-0.977-0.159-1.499-0.159c-1.963,0-3.753,0.749-5.055,1.962
		c-1.301,1.213-2.12,2.903-2.119,4.766c0,1.863,0.818,3.553,2.119,4.766c1.302,1.214,3.091,1.962,5.055,1.962
		c1.178,0,2.263-0.302,3.227-0.764l-0.432-0.902c-0.855,0.409-1.789,0.666-2.795,0.666c-1.708,0-3.255-0.65-4.373-1.693
		c-1.118-1.044-1.801-2.468-1.801-4.035c0-1.566,0.684-2.991,1.801-4.035c1.118-1.043,2.665-1.694,4.373-1.694
		c0.439,0,0.876,0.055,1.304,0.139L25.056,33.016z"/>
	<path fill="#6B1D11" d="M100.102,33.506c0.451-0.089,0.921-0.149,1.4-0.149c3.672,0,6.675,2.799,6.675,6.229
		c0,3.43-3.003,6.228-6.675,6.228c-1.091,0-2.101-0.279-3.01-0.715"/>
	<path fill="#010101" d="M100.198,33.997c0.429-0.084,0.865-0.139,1.304-0.139c1.708,0,3.256,0.651,4.373,1.694
		c1.118,1.044,1.802,2.468,1.802,4.035c0,1.567-0.684,2.991-1.802,4.035c-1.117,1.043-2.665,1.693-4.373,1.693
		c-1.005,0-1.938-0.257-2.794-0.666l-0.432,0.902c0.963,0.462,2.049,0.764,3.226,0.764c1.964,0,3.754-0.748,5.056-1.962
		c1.302-1.213,2.119-2.903,2.119-4.766s-0.817-3.553-2.119-4.766c-1.302-1.214-3.092-1.962-5.056-1.962
		c-0.521,0-1.023,0.064-1.497,0.159L100.198,33.997z"/>
	<path fill="#E9C6B0" d="M56.133,13.758c-0.877-0.019-1.738,0.062-2.474,0.178c-1.777,0.281-4.011,1.081-5.543,2.027
		c-2.238,1.383-4.64,3.877-6.258,5.871c-1.486,1.832-3.1,4.499-4.053,6.645c-0.781,1.76-1.469,4.207-1.817,6.08
		c-0.576,3.094-0.925,7.245-0.805,10.4c0.063,1.631,0.474,3.706,0.805,5.244c0.247,1.148,1.013,3.637,1.013,3.637h51.078
		c0,0,0.766-2.488,1.012-3.637c0.331-1.538,0.744-3.613,0.806-5.244c0.12-3.155-0.229-7.306-0.806-10.4
		c-0.348-1.874-1.035-4.32-1.817-6.08c-0.953-2.146-2.565-4.813-4.053-6.645c-1.617-1.993-4.019-4.488-6.258-5.871
		c-1.532-0.946-3.765-1.746-5.542-2.027c-0.736-0.116-1.596-0.197-2.475-0.178c-0.877,0.018-1.754,0.126-2.503,0.387
		c-0.91,0.317-2.005,1.139-2.921,1.877c-0.387,0.313-0.711,0.593-0.982,0.834c-0.273-0.241-0.597-0.521-0.984-0.834
		c-0.914-0.739-2.01-1.56-2.92-1.877C57.887,13.884,57.011,13.776,56.133,13.758z"/>
	<path fill="#010101" d="M56.133,13.758l0.011-0.5l-0.264-0.003c-0.821,0-1.612,0.079-2.298,0.188
		c-1.856,0.296-4.118,1.105-5.728,2.095c-2.325,1.44-4.738,3.958-6.383,5.981c-1.522,1.878-3.145,4.562-4.122,6.757
		c-0.805,1.816-1.495,4.279-1.852,6.192c-0.506,2.721-0.836,6.217-0.836,9.188c0,0.455,0.007,0.897,0.024,1.323
		c0.066,1.694,0.483,3.782,0.815,5.33c0.258,1.194,1.021,3.67,1.023,3.679l0.109,0.353h51.816l0.108-0.353
		c0.002-0.009,0.766-2.484,1.023-3.68c0.332-1.547,0.751-3.635,0.816-5.33c0.016-0.425,0.023-0.867,0.023-1.322
		c0-2.971-0.331-6.467-0.838-9.188c-0.355-1.912-1.046-4.375-1.852-6.191c-0.977-2.195-2.599-4.879-4.122-6.757
		c-1.644-2.021-4.057-4.54-6.383-5.98c-1.609-0.99-3.871-1.799-5.727-2.096c-0.688-0.108-1.477-0.187-2.299-0.187l-0.265,0.003
		c-0.911,0.02-1.834,0.129-2.657,0.415c-1.035,0.367-2.137,1.213-3.069,1.96c-0.395,0.319-0.726,0.605-1,0.849l0.332,0.374
		l0.33-0.375c-0.275-0.242-0.605-0.529-1-0.848c-0.931-0.747-2.034-1.593-3.069-1.96c-0.823-0.286-1.745-0.396-2.657-0.415
		L56.133,13.758l-0.01,0.5c0.844,0.017,1.674,0.123,2.349,0.359c0.785,0.268,1.874,1.064,2.77,1.794
		c0.38,0.307,0.697,0.582,0.968,0.821l0.332,0.292l0.331-0.293c0.268-0.238,0.586-0.513,0.965-0.819
		c0.898-0.73,1.986-1.526,2.771-1.794c0.675-0.236,1.506-0.343,2.349-0.359l0.243-0.003c0.758,0,1.499,0.073,2.143,0.175
		c1.699,0.266,3.902,1.057,5.357,1.958c2.152,1.325,4.542,3.797,6.132,5.76c1.452,1.785,3.055,4.436,3.984,6.533
		c0.759,1.704,1.443,4.134,1.783,5.968c0.494,2.647,0.821,6.108,0.82,9.005c0,0.443-0.008,0.873-0.023,1.284
		c-0.058,1.567-0.465,3.63-0.795,5.158c-0.116,0.547-0.368,1.455-0.589,2.215c-0.221,0.762-0.411,1.379-0.411,1.38l0.478,0.147v-0.5
		H37.001v0.5l0.478-0.147c0-0.001-0.19-0.618-0.412-1.38c-0.221-0.76-0.473-1.668-0.59-2.215c-0.33-1.528-0.735-3.591-0.794-5.158
		c-0.016-0.411-0.023-0.841-0.023-1.284c-0.001-2.897,0.326-6.358,0.82-9.005c0.34-1.834,1.025-4.265,1.783-5.969
		c0.93-2.097,2.534-4.748,3.984-6.533c1.591-1.964,3.981-4.435,6.132-5.76c1.455-0.902,3.66-1.693,5.358-1.958
		c0.642-0.102,1.385-0.175,2.142-0.175l0.243,0.003L56.133,13.758z"/>
	<path fill="#6C1C11" d="M42.614,59.058l4.396,5.664c0,0-6.499,5.527-9.389,7.766c-3.275,2.539-7.569,6.076-11.18,8.105
		c-2.902,1.633-6.93,3.87-10.23,4.291c-1.926,0.246-4.534-0.402-6.403-0.924c-1.486-0.414-3.479-1.113-4.738-2.008
		c-1.524-1.08-2.602-2.92-3.394-4.613c-1.102-2.352-0.564-4.393-0.405-6.984c0.145-2.357,1.679-4.648,2.634-6.807
		c1.057-2.389,3.055-4.506,4.704-6.531c1.342-1.646,6.888-5.284,8.438-6.738c1.252-1.176,5.443-1.254,5.443-1.254L42.614,59.058z"/>
	<path fill="#010101" d="M42.614,59.058l-0.79,0.613l4.396,5.664l0.79-0.613l-0.648-0.762c-0.001,0.001-0.405,0.344-1.058,0.896
		c-1.958,1.655-6.161,5.188-8.295,6.84c-3.288,2.552-7.572,6.069-11.058,8.024c-1.448,0.815-3.158,1.769-4.892,2.563
		c-1.731,0.796-3.492,1.423-4.975,1.608c-0.24,0.031-0.504,0.046-0.785,0.046c-1.591,0.005-3.664-0.502-5.224-0.94
		c-0.714-0.199-1.554-0.468-2.35-0.789c-0.795-0.318-1.55-0.694-2.078-1.071l-0.001-0.001c-1.273-0.889-2.31-2.586-3.066-4.221
		c-0.45-0.967-0.58-1.833-0.583-2.809c-0.002-1.074,0.181-2.273,0.27-3.69c0.058-0.98,0.423-2.035,0.924-3.123
		c0.498-1.089,1.121-2.201,1.626-3.341c0.95-2.168,2.878-4.245,4.565-6.304c0.24-0.3,0.813-0.826,1.521-1.398
		c1.069-0.868,2.463-1.89,3.737-2.83c0.638-0.471,1.246-0.922,1.774-1.329c0.53-0.408,0.975-0.767,1.313-1.083
		c0.11-0.115,0.492-0.321,0.985-0.465c0.741-0.227,1.712-0.365,2.476-0.437c0.383-0.036,0.717-0.057,0.953-0.068
		c0.118-0.006,0.211-0.01,0.273-0.012l0.091-0.002l-0.019-1l-0.446,0.895l20.124,10.033L42.614,59.058l-0.79,0.613L42.614,59.058
		l0.446-0.895L22.717,48.02l-0.245,0.005c-0.024,0.001-1.1,0.021-2.371,0.195c-0.636,0.089-1.321,0.215-1.966,0.41
		c-0.645,0.201-1.257,0.446-1.773,0.92c-0.326,0.307-0.953,0.803-1.7,1.364c-1.126,0.848-2.541,1.866-3.809,2.836
		c-0.635,0.485-1.234,0.958-1.749,1.397c-0.517,0.443-0.945,0.842-1.27,1.237c-1.612,1.992-3.68,4.149-4.843,6.759
		c-0.45,1.019-1.071,2.131-1.615,3.316c-0.542,1.187-1.015,2.456-1.102,3.833C0.195,71.598,0.002,72.818,0,74.107
		c-0.002,1.162,0.175,2.39,0.771,3.656c0.828,1.752,1.945,3.734,3.721,5.006l-0.001-0.001c0.731,0.518,1.603,0.938,2.49,1.297
		c0.887,0.355,1.787,0.644,2.559,0.858c1.616,0.447,3.786,1.01,5.761,1.015c0.352,0,0.698-0.019,1.038-0.062
		c1.818-0.235,3.721-0.938,5.555-1.774c1.83-0.838,3.585-1.819,5.04-2.638c3.735-2.103,8.039-5.659,11.302-8.187
		c2.929-2.27,9.417-7.788,9.424-7.794l0.729-0.619l-5.123-6.6l-0.204-0.102L42.614,59.058z"/>
	<path fill="#010101" d="M20.743,72.851c0.017,0.002,0.289,0.034,0.748,0.034c1.094-0.001,3.259-0.18,5.561-1.399
		c0.302-0.161,0.755-0.464,1.321-0.858c1.688-1.18,4.279-3.145,5.187-3.852c1.5-1.167,3.438-2.778,4.878-4.005
		c1.088-0.928,3.538-3.134,3.54-3.135l-0.669-0.744c-0.001,0.002-0.612,0.552-1.359,1.218c-0.747,0.665-1.629,1.446-2.16,1.899
		c-1.432,1.22-3.365,2.826-4.844,3.978c-0.594,0.463-1.946,1.492-3.272,2.47c-0.663,0.488-1.321,0.965-1.873,1.351
		c-0.549,0.385-1.006,0.685-1.218,0.796c-2.103,1.116-4.106,1.283-5.092,1.282c-0.207,0-0.368-0.007-0.475-0.014l-0.12-0.01
		l-0.033-0.003L20.743,72.851z"/>
	<path fill="#6C1C11" d="M82.466,59.058l-4.397,5.664c0,0,6.5,5.527,9.389,7.766c3.275,2.539,7.57,6.076,11.181,8.105
		c2.902,1.633,6.929,3.87,10.23,4.291c1.925,0.246,4.533-0.402,6.402-0.924c1.487-0.414,3.48-1.113,4.739-2.008
		c1.524-1.08,2.601-2.92,3.394-4.613c1.101-2.352,0.564-4.393,0.405-6.984c-0.146-2.357-1.679-4.648-2.634-6.807
		c-1.057-2.389-3.055-4.506-4.705-6.531c-1.341-1.646-6.887-5.284-8.437-6.738c-1.252-1.176-5.443-1.254-5.443-1.254L82.466,59.058z
		"/>
	<path fill="#010101" d="M82.466,59.058l-0.79-0.613l-4.983,6.42l0.729,0.619c0.007,0.006,6.495,5.524,9.424,7.794
		c3.264,2.527,7.568,6.084,11.303,8.188c1.454,0.817,3.209,1.799,5.039,2.637c1.833,0.837,3.736,1.539,5.555,1.774
		c0.34,0.043,0.687,0.062,1.037,0.062c1.975-0.005,4.145-0.567,5.761-1.015c0.772-0.215,1.673-0.503,2.56-0.858
		c0.888-0.358,1.759-0.779,2.49-1.297c1.774-1.271,2.892-3.253,3.72-5.005c0.597-1.268,0.773-2.495,0.771-3.657
		c-0.002-1.289-0.194-2.508-0.272-3.813c-0.087-1.377-0.561-2.646-1.103-3.833c-0.544-1.186-1.165-2.298-1.615-3.316
		c-1.163-2.609-3.23-4.767-4.844-6.759c-0.431-0.523-1.055-1.069-1.811-1.688c-1.13-0.917-2.539-1.948-3.811-2.887
		c-0.635-0.469-1.234-0.913-1.741-1.304c-0.506-0.389-0.922-0.729-1.165-0.958c-0.517-0.473-1.128-0.718-1.772-0.919
		c-0.966-0.292-2.028-0.434-2.869-0.515c-0.839-0.079-1.45-0.09-1.468-0.091l-0.245-0.005L81.815,58.265l-0.14,0.18L82.466,59.058
		l0.446,0.895l20.124-10.033l-0.446-0.895l-0.019,1c0,0,0.054,0.001,0.163,0.005c0.384,0.015,1.394,0.068,2.4,0.237
		c0.502,0.083,1.003,0.196,1.408,0.334c0.406,0.133,0.709,0.309,0.806,0.406c0.449,0.42,1.097,0.925,1.866,1.505
		c1.151,0.866,2.561,1.882,3.798,2.827c0.618,0.473,1.193,0.927,1.664,1.329c0.47,0.399,0.839,0.759,1.018,0.98
		c1.688,2.059,3.616,4.136,4.566,6.304c0.505,1.139,1.128,2.252,1.625,3.341c0.501,1.088,0.866,2.143,0.925,3.123
		c0.089,1.416,0.271,2.615,0.269,3.689c-0.002,0.977-0.132,1.843-0.581,2.81c-0.758,1.635-1.793,3.332-3.066,4.221
		c-0.528,0.378-1.283,0.754-2.079,1.072c-0.796,0.32-1.636,0.59-2.351,0.789c-1.56,0.438-3.633,0.945-5.224,0.94
		c-0.28,0-0.544-0.015-0.783-0.046c-1.483-0.186-3.244-0.813-4.976-1.608c-1.734-0.793-3.443-1.747-4.892-2.562
		c-3.486-1.956-7.771-5.474-11.059-8.024c-1.42-1.101-3.767-3.041-5.748-4.699c-0.991-0.829-1.894-1.589-2.547-2.142
		s-1.058-0.896-1.059-0.896l-0.647,0.762l0.79,0.613l4.397-5.664L82.466,59.058l0.446,0.895L82.466,59.058z"/>
	<path fill="#010101" d="M104.217,71.859l-0.033,0.003c-0.077,0.007-0.285,0.023-0.595,0.023c-0.985,0.001-2.988-0.166-5.092-1.282
		c-0.211-0.111-0.669-0.411-1.218-0.796c-1.658-1.158-4.255-3.126-5.146-3.82c-1.479-1.151-3.413-2.758-4.845-3.978
		c-0.53-0.453-1.413-1.234-2.159-1.899c-0.747-0.666-1.358-1.216-1.36-1.218l-0.668,0.744c0.002,0.001,2.452,2.207,3.539,3.134
		c1.441,1.229,3.38,2.839,4.878,4.006c0.605,0.472,1.959,1.501,3.295,2.485c0.667,0.492,1.33,0.973,1.894,1.366
		c0.566,0.395,1.02,0.697,1.321,0.858c2.302,1.22,4.467,1.398,5.561,1.399c0.459,0,0.73-0.032,0.747-0.034L104.217,71.859z"/>
	<ellipse fill="#E9C6B0" cx="62.519" cy="61.851" rx="28.608" ry="17.1"/>
	<path fill="#010101" d="M62.519,44.751v0.5c7.819-0.001,14.893,1.898,19.973,4.938c2.541,1.519,4.582,3.319,5.979,5.295
		c1.397,1.978,2.155,4.121,2.156,6.367c-0.001,2.246-0.759,4.39-2.156,6.367c-2.095,2.964-5.644,5.532-10.144,7.349
		c-4.5,1.817-9.944,2.884-15.809,2.884c-7.819,0.001-14.893-1.898-19.974-4.938c-2.541-1.519-4.582-3.319-5.979-5.295
		c-1.398-1.978-2.155-4.121-2.156-6.367c0.001-2.246,0.758-4.39,2.156-6.367c2.095-2.964,5.644-5.532,10.145-7.349
		c4.5-1.817,9.944-2.884,15.809-2.884V44.751v-0.5c-7.981,0.001-15.213,1.93-20.486,5.079c-2.636,1.576-4.785,3.46-6.283,5.576
		c-1.497,2.114-2.341,4.469-2.34,6.944c-0.001,2.476,0.843,4.831,2.34,6.945c2.248,3.173,5.955,5.826,10.586,7.697
		c4.633,1.871,10.197,2.957,16.183,2.957c7.981-0.001,15.213-1.929,20.486-5.079c2.636-1.576,4.784-3.46,6.282-5.575
		c1.497-2.114,2.341-4.47,2.34-6.945c0.001-2.476-0.843-4.83-2.34-6.944c-2.248-3.174-5.954-5.827-10.586-7.698
		c-4.633-1.87-10.196-2.957-16.183-2.957V44.751z"/>
	<ellipse fill="#010101" cx="62.519" cy="67.055" rx="2.878" ry="3"/>
	<ellipse fill="#010101" cx="60.622" cy="53.814" rx="1.19" ry="1.242"/>
	<ellipse fill="#010101" cx="64.414" cy="53.814" rx="1.19" ry="1.242"/>
	<ellipse fill="#010101" cx="68.044" cy="39.579" rx="1.508" ry="3.649"/>
	<path fill="#010101" d="M68.044,43.228v0.5c0.379,0,0.706-0.19,0.944-0.438c0.362-0.376,0.607-0.903,0.788-1.537
		c0.176-0.634,0.275-1.377,0.275-2.174c-0.001-1.064-0.174-2.029-0.479-2.771c-0.154-0.371-0.341-0.69-0.584-0.94
		c-0.238-0.247-0.565-0.438-0.944-0.437c-0.379,0-0.706,0.19-0.945,0.437c-0.362,0.376-0.607,0.903-0.787,1.537
		c-0.177,0.634-0.276,1.377-0.276,2.175c0.001,1.064,0.174,2.028,0.479,2.771c0.154,0.371,0.341,0.69,0.584,0.94
		c0.239,0.248,0.566,0.438,0.945,0.438V43.228v-0.5c-0.038,0-0.107-0.014-0.23-0.136c-0.179-0.178-0.394-0.576-0.539-1.107
		c-0.148-0.531-0.239-1.192-0.239-1.905c-0.001-0.951,0.163-1.811,0.403-2.389c0.119-0.289,0.258-0.505,0.375-0.624
		c0.122-0.122,0.192-0.136,0.23-0.136c0.037,0,0.107,0.014,0.229,0.136c0.179,0.178,0.394,0.576,0.539,1.107
		c0.148,0.531,0.239,1.192,0.239,1.906c0.001,0.951-0.163,1.811-0.403,2.389c-0.119,0.289-0.258,0.504-0.375,0.624
		c-0.122,0.122-0.192,0.136-0.229,0.136V43.228z"/>
	<ellipse fill="#010101" cx="56.992" cy="39.579" rx="1.509" ry="3.649"/>
	<path fill="#010101" d="M56.992,43.228v0.5c0.379,0,0.706-0.19,0.945-0.438c0.362-0.376,0.608-0.903,0.788-1.537
		c0.177-0.634,0.276-1.376,0.276-2.174c-0.001-1.064-0.174-2.029-0.48-2.771c-0.154-0.371-0.341-0.69-0.584-0.94
		c-0.239-0.247-0.566-0.438-0.945-0.437c-0.379,0-0.706,0.19-0.944,0.438c-0.362,0.376-0.607,0.903-0.787,1.537
		c-0.176,0.634-0.275,1.377-0.275,2.175c0.001,1.064,0.174,2.028,0.479,2.771c0.154,0.372,0.34,0.69,0.583,0.941
		c0.239,0.248,0.565,0.438,0.945,0.438V43.228v-0.5c-0.037,0-0.107-0.014-0.229-0.136c-0.179-0.178-0.394-0.576-0.539-1.107
		c-0.148-0.531-0.239-1.192-0.239-1.906c-0.001-0.951,0.163-1.811,0.403-2.39c0.118-0.289,0.257-0.504,0.375-0.623
		c0.122-0.122,0.191-0.136,0.229-0.136c0.038,0,0.107,0.014,0.229,0.136c0.179,0.178,0.395,0.576,0.54,1.107
		c0.148,0.531,0.24,1.192,0.239,1.906c0.001,0.951-0.164,1.811-0.404,2.389c-0.118,0.289-0.257,0.505-0.375,0.624
		c-0.122,0.122-0.192,0.136-0.229,0.136V43.228z"/>
	<path fill="#EAC8B0" d="M20.028,44.289c-0.065-3.205-0.06-7.625,1.035-10.637c0.514-1.412,1.44-2.689,2.798-3.333
		c1.238-0.589,3.058-0.945,4.265-0.297c1.311,0.706,2.689,2.338,3.321,3.686c0.504,1.074,1.231,3.643,0.999,4.807
		c-0.704,3.509,1.826-2.158,7.019-6.915c2.021-1.851,5.595-3.404,8.308-3.79c2.206-0.314,5.414-0.024,7.351,1.079
		c1.808,1.028,3.479,3.503,4.362,5.387c0.916,1.946,1.7,4.898,1.412,7.031c-0.302,2.23-2.091,4.852-3.378,6.698
		c-1.972,2.83-5.165,6.23-7.838,8.412c-1.946,1.588-5.871,3.98-8.045,5.238c-1.859,1.075-6.31,4.092-7.978,4.479
		c-1.813,0.419-4.302-1.842-5.817-2.92c-1.428-1.016-3-2.81-4.024-4.229c-0.872-1.209-1.828-2.981-2.335-4.383
		C20.396,51.603,20.093,47.48,20.028,44.289z"/>
	<path fill="#010101" d="M20.028,44.289l0.5-0.01c-0.013-0.617-0.022-1.278-0.022-1.963c-0.003-2.863,0.182-6.179,1.027-8.493
		c0.482-1.326,1.341-2.485,2.542-3.053c0.708-0.339,1.651-0.597,2.486-0.595c0.507,0,0.968,0.093,1.327,0.287
		c1.168,0.616,2.533,2.215,3.105,3.458c0.405,0.844,1.006,2.922,0.996,4.068c0,0.172-0.013,0.319-0.035,0.429
		c-0.08,0.401-0.124,0.69-0.125,0.936c0.002,0.123,0.005,0.236,0.069,0.391c0.033,0.076,0.09,0.169,0.191,0.246
		c0.1,0.078,0.239,0.118,0.348,0.116c0.205-0.006,0.311-0.079,0.401-0.135c0.163-0.113,0.288-0.248,0.443-0.424
		c0.527-0.607,1.32-1.733,2.413-3.106c1.09-1.369,2.466-2.971,4.106-4.473c1.905-1.758,5.446-3.304,8.04-3.663
		c0.523-0.075,1.113-0.114,1.731-0.114c1.86-0.004,3.978,0.371,5.302,1.133c0.813,0.46,1.652,1.292,2.379,2.242
		c0.729,0.949,1.353,2.013,1.778,2.922c0.757,1.601,1.429,3.972,1.425,5.856c0,0.315-0.018,0.615-0.056,0.896
		c-0.135,1.012-0.63,2.182-1.261,3.318c-0.63,1.137-1.389,2.24-2.031,3.161c-1.934,2.779-5.115,6.167-7.744,8.311
		c-1.891,1.546-5.82,3.945-7.979,5.193c-0.951,0.55-2.522,1.569-4.068,2.502c-0.771,0.466-1.535,0.908-2.201,1.254
		c-0.662,0.346-1.24,0.594-1.571,0.668c-0.11,0.025-0.228,0.038-0.353,0.038c-0.688,0.01-1.628-0.429-2.539-1.033
		c-0.916-0.599-1.805-1.333-2.523-1.845c-1.349-0.956-2.913-2.729-3.909-4.114c-0.84-1.161-1.787-2.918-2.27-4.26
		c-1.052-2.895-1.363-6.989-1.424-10.154L20.028,44.289l-0.5,0.01c0.068,3.218,0.362,7.369,1.484,10.475
		c0.53,1.461,1.496,3.249,2.4,4.506c1.052,1.453,2.633,3.268,4.14,4.343c0.671,0.477,1.581,1.228,2.555,1.867
		c0.979,0.635,2.021,1.188,3.087,1.196c0.193,0,0.387-0.02,0.578-0.063c0.503-0.119,1.107-0.394,1.807-0.756
		c2.081-1.082,4.94-2.986,6.309-3.777c2.189-1.268,6.109-3.653,8.11-5.283c2.717-2.22,5.923-5.633,7.932-8.514
		c0.645-0.926,1.424-2.056,2.085-3.249c0.661-1.194,1.211-2.45,1.378-3.668c0.044-0.332,0.065-0.676,0.065-1.029
		c-0.004-2.108-0.708-4.548-1.521-6.281c-0.457-0.975-1.11-2.089-1.89-3.106c-0.782-1.015-1.683-1.935-2.678-2.502
		c-1.583-0.896-3.807-1.259-5.796-1.264c-0.661,0-1.294,0.042-1.872,0.124c-2.832,0.411-6.439,1.973-8.575,3.916
		c-2.066,1.893-3.708,3.917-4.898,5.463c-0.594,0.772-1.077,1.426-1.433,1.873c-0.177,0.223-0.324,0.395-0.423,0.493l-0.093,0.083
		l0.076,0.113l-0.051-0.125l-0.025,0.012l0.076,0.113l-0.051-0.125l0.133,0.328v-0.353l-0.133,0.024l0.133,0.328v-0.353v0.422
		l0.254-0.336l-0.254-0.085v0.422l0.254-0.336l-0.213,0.283l0.351-0.091c-0.007-0.02-0.025-0.104-0.137-0.192l-0.213,0.283
		l0.351-0.091l-0.121,0.031l0.123-0.021l-0.002-0.011l-0.121,0.031l0.123-0.021l-0.001-0.042c-0.001-0.109,0.031-0.37,0.106-0.74
		c0.039-0.198,0.054-0.405,0.054-0.625c-0.01-1.431-0.621-3.472-1.091-4.493c-0.691-1.452-2.084-3.118-3.537-3.914
		c-0.553-0.296-1.177-0.406-1.801-0.406c-1.032,0.002-2.082,0.297-2.916,0.691c-1.513,0.721-2.507,2.117-3.053,3.614
		c-0.921,2.546-1.085,5.926-1.088,8.835c0,0.695,0.01,1.362,0.022,1.982L20.028,44.289z"/>
	<path fill="#EAC8B0" d="M105.052,44.289c0.065-3.205,0.06-7.625-1.035-10.637c-0.514-1.412-1.441-2.689-2.799-3.333
		c-1.237-0.589-3.057-0.945-4.264-0.297c-1.311,0.706-2.689,2.338-3.322,3.686c-0.504,1.074-1.23,3.643-0.998,4.807
		c0.704,3.509-1.826-2.158-7.019-6.915c-2.021-1.851-5.595-3.404-8.308-3.79c-2.206-0.314-5.415-0.024-7.352,1.079
		c-1.807,1.028-3.479,3.503-4.362,5.387c-0.916,1.946-1.7,4.898-1.411,7.031c0.302,2.23,2.091,4.852,3.378,6.698
		c1.972,2.83,5.165,6.23,7.838,8.412c1.946,1.588,5.871,3.98,8.045,5.238c1.859,1.075,6.31,4.092,7.978,4.479
		c1.812,0.419,4.302-1.842,5.817-2.92c1.428-1.016,2.999-2.81,4.023-4.229c0.872-1.209,1.829-2.981,2.336-4.383
		C104.683,51.603,104.987,47.48,105.052,44.289z"/>
	<path fill="#010101" d="M105.052,44.289l0.5,0.01c0.013-0.62,0.022-1.288,0.022-1.982c-0.003-2.909-0.167-6.289-1.088-8.835
		c-0.545-1.498-1.541-2.894-3.055-3.614c-0.832-0.395-1.882-0.689-2.914-0.691c-0.624,0-1.248,0.11-1.8,0.406
		c-1.453,0.796-2.846,2.462-3.538,3.914c-0.471,1.021-1.08,3.062-1.091,4.492c0,0.22,0.016,0.428,0.055,0.625
		c0.075,0.37,0.107,0.631,0.105,0.74l-0.001,0.042l0.27,0.039l-0.214-0.157l-0.056,0.119l0.27,0.039l-0.214-0.157l0.337,0.247
		v-0.417c-0.114-0.01-0.287,0.083-0.337,0.17l0.337,0.247v-0.417v0.352l0.134-0.328l-0.134-0.024v0.352l0.134-0.328l-0.053,0.129
		l0.078-0.117l-0.025-0.012l-0.053,0.129l0.078-0.117c-0.015-0.006-0.12-0.101-0.246-0.249c-0.459-0.524-1.278-1.681-2.385-3.071
		c-1.109-1.394-2.52-3.037-4.216-4.591c-2.136-1.943-5.743-3.505-8.575-3.916c-0.577-0.082-1.211-0.124-1.872-0.124
		c-1.99,0.004-4.214,0.368-5.798,1.264c-0.993,0.568-1.895,1.487-2.676,2.502c-0.779,1.017-1.434,2.131-1.892,3.106
		c-0.812,1.731-1.515,4.17-1.519,6.278c0,0.354,0.02,0.7,0.065,1.032c0.167,1.218,0.717,2.474,1.377,3.668
		c0.662,1.193,1.44,2.323,2.086,3.249c2.009,2.881,5.215,6.294,7.932,8.514c2.002,1.63,5.922,4.016,8.111,5.283
		c0.908,0.525,2.491,1.552,4.053,2.493c0.781,0.472,1.56,0.923,2.256,1.284c0.699,0.362,1.304,0.637,1.806,0.756
		c0.191,0.044,0.385,0.063,0.578,0.063c1.066-0.009,2.107-0.562,3.087-1.196c0.975-0.639,1.884-1.391,2.556-1.867
		c1.507-1.076,3.087-2.89,4.139-4.343c0.904-1.257,1.87-3.045,2.4-4.506c1.12-3.105,1.417-7.257,1.484-10.475L105.052,44.289
		l-0.5-0.01c-0.062,3.165-0.374,7.26-1.424,10.154c-0.483,1.342-1.432,3.099-2.271,4.26c-0.997,1.385-2.56,3.158-3.908,4.114
		c-0.718,0.512-1.607,1.246-2.523,1.845c-0.911,0.604-1.852,1.043-2.539,1.033c-0.125,0-0.242-0.013-0.353-0.038
		c-0.331-0.074-0.908-0.322-1.57-0.668c-2.005-1.041-4.849-2.934-6.27-3.756c-2.158-1.248-6.088-3.647-7.979-5.193
		c-2.629-2.144-5.81-5.531-7.744-8.311c-0.642-0.921-1.401-2.024-2.031-3.161c-0.632-1.136-1.127-2.306-1.262-3.318
		c-0.038-0.281-0.056-0.583-0.056-0.898c-0.005-1.884,0.667-4.253,1.424-5.853c0.427-0.909,1.051-1.974,1.779-2.923
		c0.728-0.95,1.565-1.782,2.378-2.242c1.324-0.762,3.442-1.137,5.303-1.133c0.618,0,1.209,0.04,1.731,0.114
		c2.594,0.359,6.135,1.905,8.04,3.663c1.999,1.831,3.606,3.809,4.781,5.335c0.588,0.764,1.066,1.414,1.442,1.886
		c0.188,0.237,0.35,0.428,0.5,0.579l0.238,0.202c0.091,0.056,0.196,0.128,0.401,0.135c0.109,0.002,0.249-0.038,0.349-0.116
		c0.152-0.119,0.202-0.257,0.229-0.355c0.026-0.103,0.031-0.19,0.031-0.282c-0.001-0.246-0.046-0.535-0.125-0.936
		c-0.022-0.109-0.035-0.257-0.035-0.429c-0.01-1.146,0.591-3.223,0.996-4.067c0.572-1.243,1.938-2.842,3.106-3.458
		c0.358-0.193,0.819-0.287,1.326-0.286c0.835-0.002,1.778,0.256,2.485,0.595c1.202,0.567,2.062,1.728,2.544,3.053
		c0.846,2.314,1.03,5.63,1.027,8.493c0,0.685-0.01,1.346-0.022,1.963L105.052,44.289z"/>
</g>
</svg>
