<?xml version="1.0" encoding="utf-8"?>
<!-- Generator: Adobe Illustrator 16.0.0, SVG Export Plug-In . SVG Version: 6.00 Build 0)  -->
<!DOCTYPE svg PUBLIC "-//W3C//DTD SVG 1.1//EN" "http://www.w3.org/Graphics/SVG/1.1/DTD/svg11.dtd">
<svg version="1.1" id="Layer_1" xmlns="http://www.w3.org/2000/svg" xmlns:xlink="http://www.w3.org/1999/xlink" x="0px" y="0px"
	 width="169.13px" height="92.815px" viewBox="0 0 169.13 92.815" enable-background="new 0 0 169.13 92.815" xml:space="preserve">
<g>
	<path fill="#010101" d="M159.532,73.046C138.271,95.175,88.949,97.66,45.745,85.791C5.983,74.868-9.682,43.053,6.006,24.229
		C25.451,0.897,79.533-6.215,122.742,5.654C165.946,17.522,180.796,50.917,159.532,73.046z"/>
	<g>
		<g>
			<g>
				<defs>
					<path id="SVGID_1_" d="M120.294,8.064c40.407,11.1,57.377,35.658,37.905,54.852C138.729,82.111,90.188,88.673,49.781,77.574
						C9.376,66.472-7.595,41.915,11.875,22.72C31.349,3.525,79.888-3.037,120.294,8.064z"/>
				</defs>
				<clipPath id="SVGID_2_">
					<use xlink:href="#SVGID_1_"  overflow="visible"/>
				</clipPath>
				<polygon clip-path="url(#SVGID_2_)" fill="#FFDE11" points="2.799,20.227 85.039,42.819 47.337,79.982 -34.902,57.39 				"/>
			</g>
		</g>
		<g>
			<g>
				<defs>
					<path id="SVGID_3_" d="M120.294,8.064c40.407,11.1,57.377,35.658,37.905,54.852C138.729,82.111,90.188,88.673,49.781,77.574
						C9.376,66.472-7.595,41.915,11.875,22.72C31.349,3.525,79.888-3.037,120.294,8.064z"/>
				</defs>
				<clipPath id="SVGID_4_">
					<use xlink:href="#SVGID_3_"  overflow="visible"/>
				</clipPath>
				<polygon clip-path="url(#SVGID_4_)" fill="#214497" points="85.039,42.819 167.279,65.411 129.579,102.575 47.339,79.983 				
					"/>
			</g>
		</g>
		<g>
			<g>
				<defs>
					<path id="SVGID_5_" d="M120.294,8.064c40.407,11.1,57.377,35.658,37.905,54.852C138.729,82.111,90.188,88.673,49.781,77.574
						C9.376,66.472-7.595,41.915,11.875,22.72C31.349,3.525,79.888-3.037,120.294,8.064z"/>
				</defs>
				<clipPath id="SVGID_6_">
					<use xlink:href="#SVGID_5_"  overflow="visible"/>
				</clipPath>
				<polygon clip-path="url(#SVGID_6_)" fill="#06A14B" points="122.74,5.654 204.979,28.246 167.279,65.411 85.039,42.819 				"/>
			</g>
		</g>
		<g>
			<g>
				<defs>
					<path id="SVGID_7_" d="M120.294,8.064c40.407,11.1,57.377,35.658,37.905,54.852C138.729,82.111,90.188,88.673,49.781,77.574
						C9.376,66.472-7.595,41.915,11.875,22.72C31.349,3.525,79.888-3.037,120.294,8.064z"/>
				</defs>
				<clipPath id="SVGID_8_">
					<use xlink:href="#SVGID_7_"  overflow="visible"/>
				</clipPath>
				<polygon clip-path="url(#SVGID_8_)" fill="#EC2227" points="40.499,-16.939 122.738,5.653 85.039,42.819 2.799,20.227 				"/>
			</g>
		</g>
	</g>
	<g>
		<g>
			<g>
				<defs>
					<path id="SVGID_9_" d="M118.492,9.837c38.345,10.534,54.446,33.838,35.97,52.052C135.984,80.103,89.927,86.331,51.584,75.797
						c-38.343-10.532-54.447-33.836-35.97-52.05C34.091,5.533,80.152-0.694,118.492,9.837z"/>
				</defs>
				<clipPath id="SVGID_10_">
					<use xlink:href="#SVGID_9_"  overflow="visible"/>
				</clipPath>
				<polygon clip-path="url(#SVGID_10_)" fill="#DFC324" points="7.001,21.38 85.039,42.819 49.263,78.085 -28.774,56.647 				"/>
			</g>
		</g>
		<g>
			<g>
				<defs>
					<path id="SVGID_11_" d="M118.492,9.837c38.345,10.534,54.446,33.838,35.97,52.052C135.984,80.103,89.927,86.331,51.584,75.797
						c-38.343-10.532-54.447-33.836-35.97-52.05C34.091,5.533,80.152-0.694,118.492,9.837z"/>
				</defs>
				<clipPath id="SVGID_12_">
					<use xlink:href="#SVGID_11_"  overflow="visible"/>
				</clipPath>
				<polygon clip-path="url(#SVGID_12_)" fill="#283776" points="85.039,42.819 163.077,64.256 127.303,99.523 49.265,78.085 				
					"/>
			</g>
		</g>
		<g>
			<g>
				<defs>
					<path id="SVGID_13_" d="M118.492,9.837c38.345,10.534,54.446,33.838,35.97,52.052C135.984,80.103,89.927,86.331,51.584,75.797
						c-38.343-10.532-54.447-33.836-35.97-52.05C34.091,5.533,80.152-0.694,118.492,9.837z"/>
				</defs>
				<clipPath id="SVGID_14_">
					<use xlink:href="#SVGID_13_"  overflow="visible"/>
				</clipPath>
				<polygon clip-path="url(#SVGID_14_)" fill="#02793F" points="120.813,7.552 198.853,28.991 163.077,64.256 85.039,42.819 				
					"/>
			</g>
		</g>
		<g>
			<g>
				<defs>
					<path id="SVGID_15_" d="M118.492,9.837c38.345,10.534,54.446,33.838,35.97,52.052C135.984,80.103,89.927,86.331,51.584,75.797
						c-38.343-10.532-54.447-33.836-35.97-52.05C34.091,5.533,80.152-0.694,118.492,9.837z"/>
				</defs>
				<clipPath id="SVGID_16_">
					<use xlink:href="#SVGID_15_"  overflow="visible"/>
				</clipPath>
				<polygon clip-path="url(#SVGID_16_)" fill="#CA2128" points="42.775,-13.885 120.813,7.552 85.039,42.819 7.001,21.38 				"/>
			</g>
		</g>
	</g>
	<polygon fill="#010101" points="118.763,6.041 124.37,7.581 51.412,79.502 45.805,77.961 	"/>
	<polygon fill="#010101" points="10.692,20.692 162.088,62.282 159.386,64.945 7.989,23.356 	"/>
	<path fill="#010101" d="M97.905,30.134c14.747,4.051,20.94,13.015,13.834,20.02c-7.105,7.006-24.821,9.4-39.568,5.349
		c-14.747-4.051-20.94-13.014-13.833-20.02C65.443,28.478,83.159,26.083,97.905,30.134z"/>
	<path fill="#4D4D4E" d="M95.874,32.137c12.417,3.412,17.633,10.959,11.649,16.857c-5.983,5.899-20.902,7.917-33.321,4.505
		c-12.417-3.412-17.633-10.959-11.648-16.858C68.537,30.743,83.456,28.726,95.874,32.137z"/>
</g>
</svg>
