<?xml version="1.0" encoding="utf-8"?>
<!-- Generator: Adobe Illustrator 16.0.0, SVG Export Plug-In . SVG Version: 6.00 Build 0)  -->
<!DOCTYPE svg PUBLIC "-//W3C//DTD SVG 1.1//EN" "http://www.w3.org/Graphics/SVG/1.1/DTD/svg11.dtd">
<svg version="1.1" id="Layer_1" xmlns="http://www.w3.org/2000/svg" xmlns:xlink="http://www.w3.org/1999/xlink" x="0px" y="0px"
	 width="71.643px" height="55.5px" viewBox="0 0 71.643 55.5" enable-background="new 0 0 71.643 55.5" xml:space="preserve">
<g>
	<path id="XMLID_17_" fill-rule="evenodd" clip-rule="evenodd" fill="#CFCDBC" d="M34.475,27.626c4.437,0,8.899-0.187,13.309-0.642
		c3.607-0.373,7.269-0.881,10.822-1.735c2.326-0.563,5.025-1.312,7.109-2.486c0.614-0.347,2.138-1.282,2.138-2.191
		c0-0.908-1.523-1.844-2.138-2.191c-2.11-1.176-4.81-1.951-7.109-2.484c-3.554-0.829-7.215-1.364-10.822-1.738
		c-4.409-0.453-8.872-0.641-13.309-0.641c-4.436,0-8.9,0.188-13.309,0.641c-3.607,0.374-7.269,0.882-10.824,1.738
		c-2.324,0.56-5.024,1.309-7.107,2.484c-0.615,0.348-2.138,1.283-2.138,2.191c0,0.909,1.523,1.845,2.138,2.191
		c2.11,1.175,4.81,1.951,7.107,2.486c3.555,0.827,7.217,1.362,10.824,1.735C25.575,27.439,30.039,27.626,34.475,27.626
		L34.475,27.626z"/>
	<path id="XMLID_18_" fill-rule="evenodd" clip-rule="evenodd" fill="#FFFBD3" d="M34.475,27.626c4.437,0,8.899-0.187,13.309-0.642
		c3.607-0.373,7.269-0.881,10.822-1.735c1.311-0.321,2.753-0.696,4.116-1.176c-1.39-0.482-2.806-0.856-4.116-1.177
		c-3.554-0.829-7.215-1.363-10.822-1.736c-4.409-0.455-8.872-0.642-13.309-0.642c-4.436,0-8.9,0.187-13.309,0.642
		c-3.607,0.373-7.269,0.881-10.824,1.736c-1.309,0.32-2.751,0.694-4.115,1.177c1.391,0.479,2.806,0.854,4.115,1.176
		c3.555,0.827,7.217,1.362,10.824,1.735C25.575,27.439,30.039,27.626,34.475,27.626L34.475,27.626z"/>
	<g>
		<path id="XMLID_262_" fill-rule="evenodd" clip-rule="evenodd" fill="#E6BD78" d="M67.168,7.364
			c1.275-1.913,2.552-3.508,3.401-5.528c0.236-0.53,0.243-1.094,0.221-1.654c-4.004-1.801-8.061,10.28-10.494,14.187
			c-4.867,7.898-8.381,11.123-9.734,12.217l2.758,1.765c1.268-2.129,2.638-4.198,3.75-6.422
			C59.62,16.507,63.659,12.573,67.168,7.364z"/>
		<path id="XMLID_265_" fill-rule="evenodd" clip-rule="evenodd" fill="#D5A361" d="M70.869,0.217
			c-0.026-0.013-0.053-0.022-0.079-0.035c0.022,0.561,0.016,1.124-0.221,1.654c-0.85,2.021-2.126,3.615-3.401,5.528
			c-3.509,5.209-7.548,9.143-10.099,14.563c-1.112,2.224-2.482,4.293-3.75,6.422l1.98,1.267c0.451-1.677,1.934-6.222,7.092-13.926
			C64.938,11.854,74.382,3.054,70.869,0.217z"/>
		<path id="XMLID_260_" fill-rule="evenodd" clip-rule="evenodd" fill="#E7CB90" d="M51.451,28.136l-1.503-0.97l-2.321,2.192
			l3.192,2.095l1.357,0.851C52.306,30.917,51.946,29.443,51.451,28.136z"/>
		<path id="XMLID_266_" fill-rule="evenodd" clip-rule="evenodd" fill="#D5A361" d="M55.042,30.453l-2.547-1.644l-1.044-0.674
			c0.495,1.308,0.854,2.781,0.726,4.168l1.833,1.148L55.042,30.453z"/>
		<path id="XMLID_34_" fill-rule="evenodd" clip-rule="evenodd" fill="#DEAA65" d="M55.589,29.616l-5.093-3.289
			c-0.258-0.16-0.645-0.096-0.806,0.194c-0.162,0.258-0.097,0.645,0.193,0.805l5.094,3.289c0.257,0.161,0.644,0.098,0.806-0.193
			C55.944,30.164,55.847,29.777,55.589,29.616L55.589,29.616z"/>
	</g>
	<path id="XMLID_37_" fill-rule="evenodd" clip-rule="evenodd" fill="#CEC5B9" d="M68.948,20.945c0,4.276-15.446,7.75-34.474,7.75
		S0,25.222,0,20.945C0,32.678,0.214,55.5,34.475,55.5S68.948,32.678,68.948,20.945L68.948,20.945z"/>
	<path id="XMLID_38_" fill-rule="evenodd" clip-rule="evenodd" fill="#DBDAC8" d="M55.052,27.172
		c-5.745,0.962-12.854,1.523-20.577,1.523C15.447,28.695,0,25.222,0,20.945c0,6.013,0.053,14.966,4.73,22.234
		c4.543,1.738,10.289,2.779,17.585,2.779C44.016,45.986,52.059,36.846,55.052,27.172L55.052,27.172z"/>
	<path id="XMLID_39_" fill-rule="evenodd" clip-rule="evenodd" fill="#FFFFFF" d="M62.481,26.852
		C61.626,38.557,56.869,53.656,30.6,54.538c0.774,0.026,1.577,0.054,2.404,0.054c29.798,0,33.833-17.264,34.395-29.478
		C65.876,25.756,64.085,26.371,62.481,26.852L62.481,26.852z"/>
	<path id="XMLID_40_" fill-rule="evenodd" clip-rule="evenodd" fill="#FFFFFF" d="M11.385,30.111
		c-0.535-0.105-7.215-2.832-8.07-2.083c-0.856,0.748,1.095,6.814,2.324,11.036c1.817,6.146,9.114,6.146,8.473,4.677
		C11.839,38.477,11.385,30.111,11.385,30.111L11.385,30.111z"/>
	<path id="XMLID_41_" fill-rule="evenodd" clip-rule="evenodd" fill="#FFFFFF" d="M68.948,20.945c0-1.728-2.515-3.322-6.766-4.611
		l-0.156,0.496c1.297,0.42,2.574,0.93,3.688,1.55c0.614,0.348,2.138,1.283,2.138,2.191c0,0.909-1.523,1.845-2.138,2.191
		c-2.084,1.175-4.783,1.924-7.109,2.486c-3.554,0.854-7.215,1.362-10.822,1.735c-4.409,0.455-8.872,0.642-13.309,0.642
		c-4.436,0-8.9-0.187-13.309-0.642c-3.607-0.373-7.269-0.908-10.824-1.735c-2.297-0.535-4.997-1.312-7.107-2.486
		c-0.615-0.347-2.138-1.282-2.138-2.191c0-0.908,1.523-1.844,2.138-2.191c2.083-1.176,4.783-1.925,7.107-2.484
		c3.555-0.856,7.217-1.364,10.824-1.738c4.409-0.453,8.873-0.641,13.309-0.641c4.437,0,8.899,0.188,13.309,0.641
		c2.719,0.282,5.468,0.655,8.179,1.176l0.398-0.376c-5.953-1.1-13.576-1.762-21.886-1.762C15.435,13.195,0,16.665,0,20.945
		s15.435,7.75,34.475,7.75C53.514,28.695,68.948,25.226,68.948,20.945L68.948,20.945z"/>
</g>
</svg>
