<?xml version="1.0" encoding="utf-8"?>
<!-- Generator: Adobe Illustrator 16.0.0, SVG Export Plug-In . SVG Version: 6.00 Build 0)  -->
<!DOCTYPE svg PUBLIC "-//W3C//DTD SVG 1.1//EN" "http://www.w3.org/Graphics/SVG/1.1/DTD/svg11.dtd">
<svg version="1.1" id="Layer_1" xmlns="http://www.w3.org/2000/svg" xmlns:xlink="http://www.w3.org/1999/xlink" x="0px" y="0px"
	 width="123.924px" height="94.481px" viewBox="0 0 123.924 94.481" enable-background="new 0 0 123.924 94.481"
	 xml:space="preserve">
<g>
	<path fill="#6C1C11" d="M91.855,53.558l4.605-5.442c0,0,6.717,5.186,9.489,7.536c3.144,2.663,7.468,6.114,10.188,9.209
		c2.184,2.487,5.189,5.945,6.278,9.071c0.636,1.821,0.542,4.492,0.419,6.419c-0.097,1.532-0.366,3.615-0.976,5.024
		c-0.74,1.705-2.146,3.903-3.629,5.023c-2.062,1.555-5.539,2.553-8.094,2.931c-2.322,0.343-5.518,0.066-7.814-0.419
		c-2.542-0.537-5.785-1.882-8.094-3.07c-1.879-0.968-4.128-2.699-5.861-3.907c-1.402-0.976-4.604-3.35-4.604-3.35L91.855,53.558z"/>
	<path fill="#010101" d="M91.855,53.558l0.764,0.646l4.605-5.442l-0.764-0.646l-0.611,0.792c0.001,0,0.419,0.322,1.091,0.845
		c2.013,1.563,6.316,4.927,8.363,6.662c3.158,2.672,7.461,6.118,10.083,9.106c1.089,1.24,2.368,2.708,3.497,4.231
		c1.13,1.521,2.102,3.104,2.588,4.509c0.332,0.937,0.456,2.314,0.452,3.662c0,0.825-0.041,1.644-0.087,2.364
		c-0.046,0.736-0.135,1.608-0.282,2.449c-0.146,0.84-0.356,1.651-0.613,2.242l0.001-0.002c-0.341,0.785-0.851,1.714-1.439,2.558
		c-0.586,0.845-1.261,1.605-1.875,2.066c-0.896,0.679-2.2,1.291-3.581,1.758c-1.38,0.469-2.84,0.802-4.057,0.981
		c-0.651,0.097-1.406,0.142-2.198,0.142c-1.778,0.001-3.748-0.229-5.263-0.55c-2.39-0.5-5.604-1.824-7.843-2.98
		c-1.75-0.897-3.99-2.61-5.748-3.839c-0.685-0.477-1.836-1.313-2.809-2.026c-0.973-0.714-1.77-1.305-1.771-1.307l-0.596,0.804
		l0.963,0.269l8.093-29.025L91.855,53.558l0.764,0.646L91.855,53.558l-0.963-0.269l-8.278,29.688l0.553,0.41
		c0.005,0.003,3.199,2.372,4.629,3.367c1.709,1.187,3.967,2.937,5.975,3.975c2.378,1.221,5.65,2.586,8.345,3.16
		c1.663,0.351,3.73,0.592,5.677,0.593c0.867,0,1.711-0.048,2.49-0.163c1.339-0.198,2.896-0.554,4.408-1.066
		c1.512-0.516,2.978-1.18,4.143-2.055c0.869-0.66,1.639-1.559,2.311-2.52c0.67-0.962,1.233-1.984,1.633-2.904l0.001-0.002
		c0.353-0.818,0.582-1.753,0.747-2.69c0.164-0.936,0.258-1.871,0.309-2.668c0.047-0.74,0.091-1.599,0.091-2.49
		c-0.004-1.46-0.106-2.996-0.563-4.32c-0.603-1.722-1.678-3.43-2.869-5.041c-1.192-1.609-2.508-3.114-3.602-4.361
		c-2.818-3.201-7.164-6.657-10.293-9.312c-2.812-2.384-9.518-7.56-9.524-7.565l-0.757-0.584l-5.364,6.339l-0.059,0.211
		L91.855,53.558z"/>
	<path fill="#010101" d="M109.797,71.236c-0.007-0.055-0.271-3.033-2.626-5.859c-0.22-0.261-0.606-0.64-1.107-1.109
		c-1.495-1.399-3.939-3.517-4.814-4.255c-1.445-1.218-3.41-2.771-4.9-3.921c-1.128-0.867-3.777-2.797-3.78-2.799l-0.588,0.809
		c0.001,0.001,0.662,0.482,1.464,1.072c0.801,0.589,1.743,1.287,2.294,1.711c1.481,1.142,3.44,2.691,4.866,3.893
		c0.573,0.483,1.853,1.587,3.076,2.677c0.612,0.544,1.211,1.086,1.699,1.544c0.487,0.454,0.873,0.838,1.023,1.021
		c1.077,1.289,1.68,2.626,2.011,3.639c0.165,0.506,0.263,0.93,0.318,1.224c0.027,0.147,0.045,0.262,0.056,0.338l0.011,0.084
		l0.002,0.021L109.797,71.236z"/>
	<path fill="#6C1C11" d="M32.068,53.558l-4.605-5.442c0,0-6.716,5.186-9.488,7.536c-3.144,2.663-7.469,6.114-10.188,9.209
		c-2.184,2.487-5.19,5.945-6.279,9.071c-0.636,1.821-0.541,4.492-0.419,6.419c0.098,1.532,0.366,3.615,0.977,5.024
		c0.739,1.705,2.145,3.903,3.628,5.023c2.063,1.555,5.539,2.553,8.094,2.931c2.322,0.343,5.518,0.066,7.814-0.419
		c2.542-0.537,5.785-1.882,8.094-3.07c1.879-0.968,4.128-2.699,5.861-3.907c1.402-0.976,4.605-3.35,4.605-3.35L32.068,53.558z"/>
	<path fill="#010101" d="M32.068,53.558l0.763-0.646l-5.223-6.173l-0.757,0.584c-0.007,0.006-6.712,5.182-9.523,7.565
		c-3.129,2.654-7.476,6.11-10.292,9.312c-1.094,1.247-2.41,2.752-3.602,4.36c-1.192,1.612-2.267,3.319-2.87,5.042
		c-0.457,1.323-0.56,2.86-0.563,4.319c0,0.892,0.044,1.75,0.091,2.492c0.051,0.796,0.145,1.731,0.309,2.667
		c0.166,0.938,0.395,1.872,0.748,2.691c0.399,0.92,0.962,1.943,1.632,2.905c0.672,0.961,1.442,1.859,2.311,2.519
		c1.166,0.876,2.631,1.54,4.144,2.056c1.512,0.513,3.068,0.868,4.406,1.066c0.78,0.115,1.624,0.163,2.491,0.163
		c1.946-0.001,4.014-0.242,5.676-0.593c2.695-0.574,5.967-1.939,8.345-3.16c2.008-1.038,4.266-2.788,5.976-3.976
		c1.429-0.994,4.625-3.363,4.629-3.366l0.553-0.41l-8.337-29.898l-0.141-0.166L32.068,53.558l-0.963,0.269l8.094,29.025l0.963-0.269
		l-0.596-0.804c-0.001,0.002-0.799,0.593-1.772,1.306c-0.973,0.714-2.124,1.551-2.809,2.026c-1.758,1.229-3.998,2.942-5.748,3.84
		c-2.239,1.156-5.453,2.48-7.842,2.98c-1.515,0.321-3.485,0.551-5.263,0.55c-0.792,0-1.547-0.045-2.199-0.142
		c-1.216-0.18-2.676-0.513-4.056-0.981c-1.38-0.467-2.684-1.079-3.582-1.759c-0.614-0.46-1.289-1.221-1.875-2.065
		c-0.589-0.844-1.098-1.771-1.438-2.557c-0.257-0.59-0.467-1.401-0.613-2.241c-0.147-0.841-0.236-1.713-0.283-2.449
		C2.041,79.565,2,78.748,2,77.922c-0.003-1.348,0.12-2.725,0.452-3.661c0.486-1.404,1.458-2.988,2.588-4.509
		c1.129-1.523,2.408-2.991,3.498-4.231c2.621-2.988,6.924-6.435,10.083-9.106c1.362-1.155,3.734-3.039,5.755-4.626
		c1.011-0.794,1.936-1.515,2.608-2.036c0.672-0.522,1.089-0.845,1.09-0.846l-0.611-0.791L26.7,48.761l4.605,5.442L32.068,53.558
		l-0.963,0.269L32.068,53.558z"/>
	<path fill="#010101" d="M15.123,71.324l0.002-0.021c0.028-0.271,0.374-2.869,2.395-5.285c0.15-0.182,0.537-0.565,1.023-1.02
		c1.468-1.375,3.917-3.495,4.777-4.222c1.423-1.2,3.383-2.75,4.866-3.892c0.55-0.424,1.492-1.122,2.292-1.711
		c0.802-0.59,1.463-1.071,1.464-1.072l-0.589-0.809c-0.002,0.002-2.652,1.932-3.778,2.799c-1.492,1.149-3.457,2.703-4.901,3.921
		c-0.583,0.492-1.864,1.598-3.097,2.694c-0.616,0.548-1.22,1.094-1.719,1.561c-0.5,0.47-0.888,0.849-1.107,1.108
		c-2.356,2.827-2.619,5.806-2.626,5.86L15.123,71.324z"/>
	<path fill="#6B1D11" d="M61.606,1c-0.321,0-0.629,0.021-0.948,0.029c-17.272,0.423-31.524,12.164-34.555,27.59
		c-1.157-0.35-2.394-0.563-3.675-0.563c-6.68,0-12.121,5.079-12.121,11.32s5.441,11.291,12.121,11.291
		c2.356,0,4.545-0.656,6.401-1.748c5.65,11.379,17.885,19.319,32.125,19.559c0.22,0.004,0.431,0.03,0.651,0.03
		c0.117,0,0.239,0.001,0.355,0c0.119,0.001,0.235,0,0.356,0c0.223-0.004,0.459-0.021,0.682-0.03
		c14.23-0.246,26.477-8.186,32.124-19.559c1.854,1.09,4.018,1.748,6.372,1.748c6.679,0,12.12-5.05,12.12-11.291
		s-5.441-11.32-12.12-11.32c-1.278,0-2.492,0.215-3.646,0.563C94.82,13.188,80.547,1.445,63.267,1.029
		C62.716,1.006,62.162,1,61.606,1z"/>
	<path fill="#010101" d="M61.606,1V0c-0.367,0-0.683,0.023-0.973,0.03C42.923,0.463,28.257,12.503,25.122,28.426l0.981,0.193
		l0.289-0.957c-1.238-0.375-2.572-0.605-3.964-0.605c-3.595,0-6.869,1.367-9.248,3.589c-2.379,2.219-3.874,5.315-3.873,8.731
		c-0.001,3.416,1.494,6.506,3.875,8.718c2.38,2.215,5.653,3.573,9.247,3.573c2.543,0,4.908-0.709,6.908-1.886L28.83,48.92
		l-0.896,0.444c5.826,11.728,18.399,19.867,33.004,20.114c0.149,0.001,0.366,0.028,0.668,0.03h0.238h0.124l-0.006-1l-0.008,1h0.126
		h0.238h0.009h0.009c0.262-0.005,0.505-0.023,0.703-0.031L63,68.479l0.018,1c14.594-0.254,27.179-8.392,33.002-20.114l-0.896-0.444
		l-0.507,0.862c1.994,1.173,4.337,1.887,6.879,1.886c3.593,0,6.866-1.358,9.246-3.573c2.38-2.211,3.875-5.302,3.874-8.718
		c0.001-3.416-1.494-6.513-3.873-8.731c-2.379-2.222-5.652-3.589-9.247-3.589c-1.391,0-2.705,0.234-3.935,0.605l0.289,0.958
		l0.981-0.193C95.697,12.497,81.01,0.457,63.291,0.03l-0.024,1L63.31,0.03C62.737,0.006,62.169,0,61.606,0V1v1
		c0.549,0,1.088,0.006,1.617,0.028l0.01,0h0.009c16.842,0.405,30.701,11.849,33.627,26.783l0.213,1.083l1.058-0.318
		c1.076-0.325,2.19-0.52,3.356-0.52c3.084,0,5.871,1.173,7.882,3.051c2.012,1.881,3.237,4.444,3.238,7.27
		c-0.001,2.825-1.227,5.38-3.236,7.254c-2.011,1.87-4.798,3.037-7.884,3.037c-2.167-0.001-4.151-0.604-5.865-1.61l-0.926-0.544
		l-0.477,0.962C88.757,59.499,76.85,67.24,62.982,67.479h-0.011l-0.011,0.001c-0.247,0.01-0.477,0.026-0.66,0.029l0.018,1v-1H62.08
		h-0.11h-0.007h-0.007h-0.111h-0.238c-0.14,0.002-0.344-0.023-0.634-0.03C47.096,67.247,35.2,59.506,29.726,48.476l-0.478-0.962
		l-0.925,0.544c-1.712,1.007-3.725,1.61-5.895,1.61c-3.086,0-5.874-1.167-7.884-3.037c-2.01-1.874-3.236-4.429-3.237-7.254
		c0.001-2.825,1.227-5.389,3.238-7.27c2.011-1.878,4.798-3.051,7.883-3.051c1.17,0,2.309,0.194,3.386,0.52l1.057,0.32l0.213-1.084
		C30.011,13.883,43.849,2.441,60.683,2.029C61.032,2.02,61.331,2,61.606,2V1z"/>
	<path fill="#6B1D11" d="M24.61,33.327c-0.448-0.091-0.916-0.148-1.393-0.148c-3.651,0-6.639,2.782-6.639,6.193
		s2.987,6.194,6.639,6.194c1.085,0,2.089-0.279,2.993-0.712"/>
	<path fill="#010101" d="M24.709,32.837c-0.474-0.096-0.975-0.158-1.492-0.158c-1.954,0-3.734,0.744-5.03,1.952
		c-1.295,1.207-2.109,2.888-2.109,4.742c0,1.854,0.814,3.536,2.109,4.742c1.295,1.208,3.076,1.952,5.03,1.952
		c1.171,0,2.251-0.302,3.209-0.761l-0.432-0.902c-0.851,0.407-1.779,0.663-2.777,0.663c-1.698,0-3.236-0.647-4.348-1.684
		c-1.111-1.038-1.791-2.454-1.791-4.011c0-1.557,0.68-2.973,1.791-4.01c1.111-1.036,2.65-1.683,4.348-1.683
		c0.436,0,0.871,0.053,1.293,0.139L24.709,32.837z"/>
	<path fill="#6B1D11" d="M99.338,33.327c0.448-0.091,0.916-0.148,1.393-0.148c3.652,0,6.639,2.782,6.639,6.193
		s-2.986,6.194-6.639,6.194c-1.085,0-2.089-0.279-2.993-0.712"/>
	<path fill="#010101" d="M99.438,33.817c0.422-0.086,0.856-0.139,1.293-0.139c1.698,0,3.236,0.647,4.348,1.683
		c1.111,1.038,1.791,2.453,1.791,4.01s-0.68,2.973-1.791,4.011c-1.111,1.037-2.649,1.684-4.348,1.684
		c-0.998,0-1.927-0.256-2.777-0.663l-0.432,0.902c0.958,0.458,2.037,0.761,3.209,0.761c1.954,0,3.735-0.745,5.03-1.952
		c1.295-1.207,2.108-2.888,2.108-4.742s-0.813-3.535-2.108-4.742c-1.295-1.208-3.076-1.952-5.03-1.952
		c-0.517,0-1.018,0.063-1.492,0.158L99.438,33.817z"/>
	<path fill="#E9C6B0" d="M55.59,13.687c-0.872-0.019-1.729,0.062-2.459,0.178c-1.768,0.278-3.989,1.074-5.512,2.015
		c-2.227,1.375-4.615,3.856-6.225,5.838c-1.478,1.822-3.081,4.476-4.029,6.609c-0.777,1.749-1.461,4.184-1.808,6.045
		c-0.573,3.079-0.92,7.206-0.801,10.343c0.062,1.623,0.472,3.687,0.801,5.216c0.245,1.143,1.007,3.615,1.007,3.615h50.795
		c0,0,0.762-2.473,1.008-3.615c0.329-1.529,0.739-3.593,0.801-5.216c0.118-3.137-0.229-7.264-0.801-10.343
		c-0.346-1.861-1.031-4.296-1.808-6.045c-0.948-2.134-2.553-4.787-4.03-6.609c-1.609-1.981-3.997-4.463-6.224-5.838
		c-1.523-0.94-3.744-1.736-5.512-2.015c-0.732-0.116-1.588-0.196-2.46-0.178s-1.745,0.126-2.489,0.385
		c-0.905,0.315-1.995,1.132-2.904,1.867c-0.386,0.312-0.708,0.59-0.979,0.83c-0.271-0.24-0.593-0.519-0.978-0.83
		c-0.91-0.735-2-1.552-2.904-1.867C57.335,13.813,56.463,13.705,55.59,13.687z"/>
	<path fill="#010101" d="M55.59,13.687l0.011-0.5l-0.264-0.003c-0.816,0-1.603,0.079-2.284,0.187
		c-1.846,0.293-4.096,1.099-5.696,2.083c-2.313,1.433-4.714,3.938-6.35,5.948c-1.514,1.869-3.126,4.539-4.098,6.722
		c-0.801,1.805-1.487,4.256-1.842,6.156c-0.503,2.708-0.832,6.187-0.833,9.142c0,0.451,0.008,0.89,0.024,1.312
		c0.065,1.687,0.481,3.763,0.812,5.302c0.256,1.188,1.016,3.648,1.018,3.657l0.109,0.353h51.533l0.108-0.353
		c0.002-0.009,0.762-2.469,1.019-3.657c0.331-1.539,0.747-3.615,0.813-5.302c0.016-0.42,0.023-0.856,0.023-1.304
		c-0.001-2.957-0.329-6.438-0.833-9.149c-0.354-1.901-1.042-4.352-1.842-6.157c-0.972-2.183-2.586-4.853-4.099-6.721
		c-1.637-2.011-4.036-4.516-6.35-5.948c-1.601-0.984-3.851-1.79-5.696-2.083c-0.684-0.108-1.469-0.186-2.285-0.187l-0.264,0.003
		c-0.906,0.02-1.824,0.129-2.643,0.413c-1.03,0.365-2.128,1.206-3.055,1.951c-0.393,0.317-0.722,0.601-0.996,0.845l0.332,0.374
		l0.332-0.374c-0.274-0.244-0.603-0.527-0.995-0.845c-0.928-0.745-2.025-1.585-3.054-1.951c-0.819-0.284-1.737-0.393-2.644-0.413
		L55.59,13.687l-0.011,0.5c0.839,0.017,1.666,0.123,2.337,0.357c0.779,0.266,1.861,1.058,2.754,1.784
		c0.377,0.306,0.693,0.579,0.96,0.815l0.332,0.295l0.332-0.295c0.267-0.237,0.582-0.51,0.961-0.815
		c0.892-0.727,1.974-1.519,2.754-1.784c0.67-0.234,1.498-0.34,2.336-0.357l0.242-0.003c0.752,0,1.489,0.073,2.129,0.174
		c1.689,0.263,3.881,1.05,5.327,1.946c2.14,1.317,4.516,3.775,6.099,5.728c1.441,1.775,3.036,4.412,3.961,6.497
		c0.753,1.693,1.436,4.111,1.773,5.933c0.49,2.637,0.815,6.084,0.815,8.967c0,0.437-0.008,0.86-0.023,1.266
		c-0.058,1.559-0.462,3.61-0.79,5.129c-0.116,0.544-0.367,1.446-0.587,2.202c-0.22,0.757-0.409,1.37-0.409,1.371l0.478,0.147v-0.5
		H36.564v0.5l0.478-0.147c0-0.001-0.189-0.614-0.409-1.371c-0.22-0.755-0.471-1.658-0.587-2.201c-0.328-1.521-0.732-3.571-0.79-5.13
		c-0.016-0.408-0.023-0.834-0.023-1.274c0-2.881,0.325-6.324,0.816-8.958c0.338-1.822,1.019-4.24,1.773-5.933
		c0.925-2.085,2.519-4.722,3.96-6.498c1.583-1.952,3.959-4.41,6.099-5.728c1.445-0.896,3.638-1.683,5.327-1.946
		c0.638-0.102,1.376-0.175,2.128-0.175l0.243,0.003L55.59,13.687z"/>
	<ellipse fill="#E9C6B0" cx="61.962" cy="61.514" rx="28.451" ry="17.004"/>
	<path fill="#010101" d="M61.962,44.51v0.5c7.775-0.001,14.809,1.888,19.861,4.91c2.526,1.51,4.557,3.3,5.946,5.265
		c1.39,1.966,2.143,4.097,2.144,6.33c-0.001,2.233-0.754,4.364-2.144,6.33c-2.084,2.947-5.612,5.501-10.088,7.307
		c-4.474,1.807-9.888,2.867-15.72,2.867c-7.775,0.001-14.809-1.888-19.861-4.909c-2.527-1.51-4.556-3.301-5.945-5.265
		c-1.39-1.966-2.143-4.097-2.144-6.33c0.001-2.233,0.754-4.364,2.144-6.33c2.083-2.947,5.611-5.501,10.086-7.307
		c4.474-1.808,9.888-2.869,15.72-2.868V44.51v-0.5c-7.938,0.001-15.129,1.918-20.374,5.052c-2.622,1.567-4.759,3.44-6.249,5.545
		c-1.489,2.104-2.329,4.445-2.328,6.908c-0.001,2.463,0.838,4.805,2.328,6.908c2.236,3.155,5.922,5.794,10.528,7.655
		c4.607,1.86,10.141,2.94,16.094,2.94c7.938-0.001,15.13-1.918,20.374-5.051c2.622-1.567,4.76-3.44,6.249-5.545
		c1.49-2.104,2.329-4.445,2.328-6.908c0.001-2.463-0.838-4.805-2.328-6.908c-2.235-3.156-5.923-5.795-10.528-7.656
		c-4.607-1.86-10.142-2.94-16.095-2.94V44.51z"/>
	<ellipse fill="#010101" cx="61.962" cy="66.689" rx="2.862" ry="2.983"/>
	<ellipse fill="#010101" cx="60.076" cy="53.522" rx="1.185" ry="1.234"/>
	<ellipse fill="#010101" cx="63.848" cy="53.522" rx="1.184" ry="1.234"/>
	<ellipse fill="#010101" cx="67.457" cy="39.364" rx="1.499" ry="3.628"/>
	<path fill="#010101" d="M67.457,42.992v0.5c0.378,0,0.704-0.189,0.941-0.436c0.36-0.375,0.604-0.899,0.783-1.53
		c0.176-0.63,0.274-1.37,0.274-2.163c-0.001-1.058-0.173-2.018-0.477-2.756c-0.154-0.37-0.339-0.687-0.581-0.936
		c-0.237-0.247-0.563-0.437-0.941-0.436c-0.378,0-0.704,0.189-0.941,0.436c-0.361,0.375-0.605,0.899-0.784,1.53
		c-0.176,0.63-0.274,1.37-0.274,2.163c0.001,1.059,0.173,2.018,0.477,2.757c0.154,0.37,0.34,0.687,0.582,0.937
		c0.237,0.246,0.563,0.436,0.941,0.436V42.992v-0.5c-0.036,0-0.105-0.014-0.227-0.135c-0.178-0.176-0.392-0.572-0.536-1.1
		c-0.147-0.528-0.237-1.185-0.237-1.895c-0.001-0.945,0.162-1.799,0.401-2.374c0.117-0.287,0.255-0.501,0.372-0.619
		c0.121-0.121,0.19-0.135,0.227-0.135s0.104,0.014,0.226,0.135c0.178,0.176,0.392,0.572,0.536,1.1
		c0.147,0.527,0.237,1.185,0.237,1.894c0.001,0.945-0.162,1.8-0.401,2.375c-0.117,0.287-0.255,0.501-0.372,0.619
		c-0.121,0.121-0.189,0.134-0.226,0.135V42.992z"/>
	<ellipse fill="#010101" cx="56.467" cy="39.364" rx="1.501" ry="3.628"/>
	<path fill="#010101" d="M56.467,42.992v0.5c0.378,0,0.704-0.189,0.942-0.436c0.361-0.375,0.605-0.899,0.784-1.53
		c0.176-0.631,0.274-1.37,0.275-2.164c-0.001-1.058-0.173-2.018-0.478-2.756c-0.154-0.369-0.339-0.687-0.582-0.936
		c-0.238-0.246-0.564-0.436-0.942-0.436c-0.378,0-0.704,0.189-0.941,0.436c-0.36,0.375-0.604,0.899-0.783,1.529
		c-0.176,0.63-0.274,1.37-0.274,2.163c0.001,1.059,0.173,2.018,0.477,2.757c0.154,0.37,0.339,0.687,0.581,0.936
		c0.238,0.247,0.563,0.436,0.941,0.436V42.992v-0.5c-0.036,0-0.105-0.014-0.226-0.135c-0.177-0.176-0.391-0.572-0.536-1.1
		c-0.147-0.528-0.238-1.185-0.237-1.895c-0.001-0.945,0.162-1.799,0.401-2.374c0.118-0.287,0.255-0.501,0.372-0.619
		c0.121-0.121,0.19-0.135,0.226-0.135c0.037,0,0.105,0.014,0.227,0.135c0.178,0.176,0.392,0.572,0.537,1.1
		c0.147,0.527,0.238,1.185,0.238,1.894c0.001,0.945-0.163,1.8-0.402,2.375c-0.118,0.287-0.255,0.501-0.373,0.619
		c-0.121,0.121-0.19,0.134-0.227,0.135V42.992z"/>
	<path fill="#EAC8B0" d="M98.106,63.033c-1.326-2.897-3.243-6.854-5.525-9.078c-1.07-1.043-2.453-1.785-3.947-1.776
		c-1.363,0.009-3.146,0.476-3.946,1.58c-0.869,1.198-1.398,3.256-1.383,4.735c0.014,1.181,0.473,3.796,1.184,4.736
		c2.149,2.84-2.568-1.143-9.274-3.158c-2.608-0.783-6.482-0.63-9.079,0.198c-2.111,0.673-4.859,2.319-6.117,4.144
		c-1.173,1.704-1.6,4.643-1.578,6.711c0.021,2.139,0.596,5.122,1.775,6.906c1.234,1.867,3.971,3.441,5.92,4.54
		c2.991,1.682,7.322,3.346,10.658,4.145c2.43,0.58,6.979,1.026,9.471,1.214c2.129,0.159,7.42,0.938,9.08,0.562
		c1.804-0.407,3.055-3.51,3.947-5.131c0.839-1.526,1.472-3.812,1.776-5.525c0.258-1.459,0.349-3.461,0.197-4.934
		C100.94,69.744,99.428,65.918,98.106,63.033z"/>
	<path fill="#010101" d="M98.106,63.033l0.455-0.208c-1.338-2.91-3.249-6.897-5.632-9.229c-1.13-1.101-2.614-1.916-4.27-1.918
		h-0.033h0.004c-0.737,0.006-1.57,0.131-2.35,0.408c-0.776,0.279-1.511,0.71-1.999,1.379c-0.944,1.32-1.469,3.374-1.478,4.964v0.071
		V58.5c0.009,0.646,0.131,1.608,0.343,2.562c0.219,0.955,0.498,1.869,0.942,2.471c0.172,0.228,0.295,0.405,0.364,0.524l0.063,0.121
		l0.003,0.009l0.196-0.064h-0.203l0.007,0.064l0.196-0.064h-0.203h0.411l-0.256-0.316c-0.119,0.091-0.162,0.256-0.155,0.316h0.411
		l-0.256-0.316l0.227,0.28v-0.367c-0.022,0.001-0.111-0.002-0.227,0.087l0.227,0.28v-0.367v0.137l0.014-0.137h-0.014v0.137
		l0.014-0.137l-0.083-0.021c-0.209-0.064-0.648-0.274-1.216-0.563c-1.719-0.871-4.705-2.474-8.253-3.54
		c-1.229-0.368-2.684-0.533-4.162-0.534c-1.838,0.001-3.708,0.256-5.213,0.734c-2.21,0.716-4.999,2.363-6.376,4.336
		c-1.246,1.835-1.658,4.717-1.667,6.846l0.001,0.155c0.03,2.222,0.592,5.241,1.858,7.176c1.355,2.026,4.136,3.588,6.092,4.7
		c3.047,1.711,7.396,3.381,10.787,4.195c2.498,0.595,7.04,1.036,9.55,1.227c1.692,0.125,5.49,0.662,7.817,0.664
		c0.554-0.001,1.025-0.028,1.41-0.114c0.574-0.131,1.063-0.461,1.49-0.874c0.64-0.623,1.161-1.45,1.618-2.273
		c0.455-0.822,0.844-1.644,1.166-2.229c0.885-1.615,1.517-3.922,1.831-5.679c0.18-1.018,0.278-2.261,0.278-3.433
		c0-0.575-0.023-1.134-0.076-1.64c-0.339-3.269-1.871-7.116-3.201-10.025L98.106,63.033l-0.454,0.208
		c1.313,2.86,2.806,6.665,3.115,9.711c0.047,0.464,0.07,0.99,0.07,1.538c0,1.114-0.097,2.317-0.263,3.258
		c-0.295,1.67-0.929,3.934-1.723,5.371c-0.46,0.839-0.99,2.005-1.616,2.995c-0.312,0.494-0.646,0.94-0.988,1.272
		c-0.344,0.334-0.687,0.544-1.015,0.617c-0.249,0.058-0.676,0.09-1.189,0.089c-2.202,0.001-5.991-0.529-7.743-0.662
		c-2.473-0.185-7.03-0.636-9.392-1.201c-3.28-0.783-7.594-2.441-10.529-4.094c-1.942-1.085-4.634-2.672-5.748-4.38
		c-1.093-1.634-1.68-4.581-1.692-6.636l-0.001-0.145c-0.009-1.987,0.447-4.785,1.491-6.278c1.138-1.675,3.845-3.32,5.856-3.95
		c1.373-0.439,3.165-0.688,4.909-0.688c1.402,0,2.777,0.161,3.875,0.491c2.48,0.746,4.696,1.77,6.385,2.61
		c0.845,0.421,1.557,0.796,2.113,1.071c0.279,0.138,0.519,0.25,0.726,0.334c0.213,0.081,0.368,0.146,0.602,0.152
		c0.101-0.002,0.248-0.015,0.402-0.135c0.158-0.122,0.222-0.336,0.216-0.462c-0.002-0.137-0.034-0.229-0.068-0.316
		c-0.105-0.253-0.28-0.505-0.559-0.877c-0.267-0.339-0.572-1.202-0.764-2.085c-0.199-0.886-0.313-1.82-0.318-2.355v-0.011v0.01
		V58.43c-0.01-1.358,0.519-3.337,1.287-4.377c0.313-0.437,0.87-0.791,1.525-1.024c0.653-0.233,1.394-0.347,2.02-0.35h0.004l0,0h0.02
		c1.313-0.003,2.574,0.661,3.572,1.635c2.182,2.116,4.104,6.043,5.419,8.928L98.106,63.033z"/>
	<path fill="#EAC8B0" d="M25.817,63.033c1.327-2.897,3.244-6.854,5.526-9.078c1.07-1.043,2.453-1.785,3.947-1.776
		c1.362,0.009,3.146,0.476,3.946,1.58c0.869,1.198,1.397,3.256,1.382,4.735c-0.013,1.181-0.473,3.796-1.184,4.736
		c-2.148,2.84,2.568-1.143,9.274-3.158c2.609-0.783,6.483-0.63,9.078,0.198c2.112,0.673,4.86,2.319,6.118,4.144
		c1.174,1.704,1.6,4.643,1.579,6.711c-0.022,2.139-0.597,5.122-1.776,6.906c-1.234,1.867-3.97,3.441-5.921,4.54
		c-2.989,1.682-7.32,3.346-10.657,4.145c-2.43,0.58-6.979,1.026-9.47,1.214c-2.129,0.159-7.42,0.938-9.08,0.562
		c-1.805-0.407-3.056-3.51-3.947-5.131c-0.839-1.526-1.472-3.812-1.776-5.525c-0.259-1.459-0.349-3.461-0.197-4.934
		C22.984,69.744,24.496,65.918,25.817,63.033z"/>
	<path fill="#010101" d="M25.817,63.033l0.455,0.208c1.316-2.885,3.239-6.812,5.421-8.928c0.998-0.974,2.259-1.638,3.572-1.635h0.02
		h0.003c0.626,0.003,1.366,0.116,2.019,0.35c0.656,0.233,1.213,0.588,1.526,1.023c0.769,1.041,1.296,3.019,1.287,4.378l0,0.061
		c-0.005,0.533-0.119,1.468-0.318,2.354c-0.191,0.883-0.498,1.746-0.765,2.085c-0.185,0.245-0.325,0.445-0.428,0.62l-0.13,0.257
		c-0.034,0.088-0.066,0.18-0.068,0.316c-0.006,0.126,0.057,0.339,0.215,0.462c0.155,0.12,0.302,0.133,0.402,0.135
		c0.233-0.007,0.389-0.071,0.602-0.152c0.711-0.289,1.901-0.956,3.496-1.729c1.589-0.77,3.557-1.635,5.728-2.287
		c1.098-0.33,2.473-0.491,3.875-0.491c1.743-0.001,3.535,0.248,4.907,0.688c2.014,0.63,4.72,2.275,5.858,3.951
		c1.046,1.494,1.501,4.296,1.492,6.284l-0.001,0.139c-0.014,2.054-0.601,5.001-1.693,6.635c-1.114,1.708-3.805,3.295-5.749,4.38
		c-2.933,1.652-7.248,3.311-10.528,4.094c-2.361,0.565-6.918,1.017-9.391,1.201c-1.752,0.133-5.54,0.663-7.743,0.662
		c-0.514,0.001-0.941-0.031-1.189-0.089c-0.328-0.073-0.672-0.283-1.015-0.617c-0.515-0.497-1.006-1.255-1.44-2.04
		c-0.436-0.787-0.818-1.598-1.164-2.228c-0.794-1.438-1.428-3.701-1.722-5.372c-0.167-0.938-0.264-2.14-0.263-3.253
		c0-0.549,0.023-1.077,0.071-1.542c0.309-3.046,1.801-6.851,3.114-9.711L25.817,63.033l-0.455-0.208
		c-1.33,2.909-2.861,6.757-3.2,10.025c-0.052,0.507-0.076,1.066-0.076,1.644c0,1.171,0.099,2.413,0.279,3.428
		c0.315,1.758,0.947,4.064,1.831,5.68c0.431,0.782,0.973,1.979,1.646,3.046c0.338,0.535,0.71,1.042,1.138,1.457
		c0.427,0.413,0.917,0.744,1.491,0.874c0.384,0.086,0.855,0.113,1.41,0.114c2.327-0.002,6.125-0.539,7.817-0.664
		c2.508-0.19,7.051-0.632,9.549-1.227c3.393-0.814,7.741-2.484,10.786-4.195c1.958-1.112,4.738-2.674,6.093-4.7
		c1.267-1.935,1.828-4.954,1.859-7.177l0.001-0.147c-0.01-2.13-0.42-5.017-1.668-6.852c-1.378-1.974-4.167-3.621-6.378-4.337
		c-1.503-0.479-3.373-0.733-5.21-0.734c-1.479,0.001-2.934,0.166-4.163,0.534c-2.565,0.771-4.832,1.82-6.543,2.673
		c-0.855,0.426-1.573,0.804-2.11,1.069c-0.268,0.132-0.492,0.236-0.656,0.303l-0.193,0.068l-0.045,0.012h-0.004l0.014,0.137v-0.137
		h-0.014l0.014,0.137v-0.137v0.367l0.227-0.279c-0.115-0.09-0.204-0.087-0.227-0.088v0.367l0.227-0.279L39,64.122h0.411
		c0.007-0.061-0.037-0.226-0.156-0.315L39,64.122h0.411h-0.255l0.249,0.061l0.006-0.061h-0.255l0.249,0.061l0.001-0.001
		c0.018-0.058,0.166-0.307,0.429-0.649c0.444-0.602,0.723-1.516,0.943-2.471c0.212-0.953,0.334-1.916,0.342-2.562l0-0.07
		c-0.009-1.589-0.533-3.644-1.478-4.965c-0.487-0.668-1.222-1.099-1.999-1.378c-0.779-0.277-1.612-0.402-2.349-0.408h0.003h-0.033
		c-1.656,0.002-3.14,0.817-4.27,1.918c-2.382,2.331-4.294,6.318-5.632,9.229L25.817,63.033z"/>
</g>
</svg>
