<?xml version="1.0" encoding="utf-8"?>
<!-- Generator: Adobe Illustrator 16.0.0, SVG Export Plug-In . SVG Version: 6.00 Build 0)  -->
<!DOCTYPE svg PUBLIC "-//W3C//DTD SVG 1.1//EN" "http://www.w3.org/Graphics/SVG/1.1/DTD/svg11.dtd">
<svg version="1.1" id="Layer_1" xmlns="http://www.w3.org/2000/svg" xmlns:xlink="http://www.w3.org/1999/xlink" x="0px" y="0px"
	 width="285.249px" height="508.264px" viewBox="0 0 285.249 508.264" enable-background="new 0 0 285.249 508.264"
	 xml:space="preserve">
<g>
	<g>
		
			<linearGradient id="SVGID_1_" gradientUnits="userSpaceOnUse" x1="243.313" y1="37.6519" x2="243.3931" y2="37.6519" gradientTransform="matrix(0.9998 -0.0184 0.0184 0.9998 -73.8719 0.2102)">
			<stop  offset="0" style="stop-color:#FFFFFF"/>
			<stop  offset="1" style="stop-color:#532F58"/>
		</linearGradient>
		<path fill="url(#SVGID_1_)" d="M170.124,32.553c0.011,0.588,0.011,1.137-0.023,1.648C170.185,33.56,170.172,33.002,170.124,32.553
			z"/>
	</g>
	<path fill="#350D44" d="M64.5,56.687c0,0,5.235-10.663,13.075,3.333c0,0,10.798,14.173,17.624,12.503l0.565-4.167l8.525-4.168
		c0,0,2.283,5.002,7.962,0.834c0,0,0-3.333,5.12-29.188c0,0,4.545-10.841,12.509-3.341c0,0,3.978,7.508,2.273,11.676
		c0,0,5.685,4.168,22.172-27.512c0,0,12.51-27.519,23.303-9.185c0,0,3.416,6.673,1.711,13.346c0,0,10.234-10.833,18.191,8.343
		c0,0,6.252,24.178,14.211,66.713c0,0,14.217,85.891,19.329,120.925c0,0,1.884,4.91,5.29-0.093c0,0,8.921-3.256,10.062,12.596
		c0,0-1.141,4.995-2.835,10.014c0,0-0.93,3.039,3.051,3.039c0,0,8.549,6.479,2.633,18.641c0,0-1.137,2.499-4.553,1.67
		c0,0-4.548-3.339,0,11.66c0,0,4.553,20.854,27.287,72.553c0,0,18.195,27.526,11.934,53.375c0,0-3.404,9.17-9.086,10.856
		l-6.816-1.687l-126.223,76.728c0,0,3.979,10.833-14.214,19.184c0,0-18.757,10.841-28.426-9.178c0,0-5.679-11.676-8.524-49.208
		c0,0-4.546-71.701-18.193-86.724c0,0-9.092,6.671-13.073-4.168c0,0-2.846-5.831,1.137-14.174c0,0-14.216-8.336-7.968-24.179
		c0,0,0-4.176,7.396-9.179c0,0-39.223-113.415-43.77-125.919c0,0-20.472-57.552-15.357-77.554c0,0,2.844-5.003,6.823-9.18
		c0,0-6.823-13.329,3.41-23.35c0,0,7.962-10.006,31.273-1.67c0,0,13.073,5.01,15.346,2.513c0,0-3.979-7.509,3.414-14.174
		L64.5,56.687z"/>
	<path fill="#74477C" d="M67.006,55.504c0,0,1.668-8.344,12.788,3.332c0,0,10.562,14.174,17.237,12.518l0.553-4.175l8.34-4.167
		c0,0,2.221,4.995,7.787,0.835c0,0,0-3.349,5.002-29.197c0,0,4.445-10.833,12.229-3.325c0,0,3.897,7.5,2.226,11.66
		c0,0,5.556,4.176,21.683-27.504c0,0,12.23-27.526,22.791-9.169c0,0,3.338,6.672,1.676,13.322c0,0,9.998-10.833,17.788,8.343
		c0,0,6.112,24.202,13.899,66.729c0,0,13.894,85.89,18.9,120.9c0,0,1.673,6.682,5.003,1.671c0,0,8.897-4.987,10.007,10.849
		c0,0-1.109,5.003-2.772,10.005c0,0,0.545,4.183,4.441,4.183c0,0,6.665,8.328,1.104,17.506c0,0-1.104,2.498-4.439,1.663
		c0,0-4.444-3.333,0,11.676c0,0,4.439,20.845,26.686,72.551c0,0,17.789,27.527,11.678,53.375c0,0-3.338,9.179-8.891,10.833
		l-6.678-1.654l-123.423,76.719c0,0,3.883,10.842-13.906,19.176c0,0-18.342,10.833-27.799-9.17c0,0-5.556-11.683-8.335-49.216
		c0,0-4.446-71.716-17.787-86.725c0,0-8.899,6.688-12.789-4.16c0,0-2.786-5.846,1.104-14.181c0,0-13.892-8.342-7.781-24.194
		c0,0,0.578-4.021,7.225-9.153c0,0-38.354-113.425-42.807-125.929c0,0-20.013-57.55-15.009-77.554c0,0,2.775-5.019,6.673-9.17
		c0,0-6.673-13.354,3.335-23.353c0,0,7.784-10.005,30.575-1.677c0,0,12.788,5.002,15.012,2.505c0,0-3.891-7.5,3.337-14.182
		L67.006,55.504z"/>
	<path fill="#AB83BA" d="M14.515,124.544l-10.039-4.052c2.765,24.952,15.27,60.938,15.27,60.938
		c4.453,12.504,42.807,125.929,42.807,125.929c-2.19,1.691-3.708,3.269-4.776,4.606l16.835,1.624l-0.835-23.783l-24.213-60.087
		L14.515,124.544z"/>
	<polygon fill="#BF94B8" points="177.642,44.663 35.874,113.874 118.713,444.937 258.255,363.215 	"/>
	<path fill="#86558E" d="M141.504,475.797l121.203-78.391c0,0,6.223,3.882,4.5,18.063l-123.709,77.3L141.504,475.797z"/>
	<path fill="#231F20" d="M141.458,475.635l-0.085,0.061l2.033,17.335l123.846-77.397c1.788-14.292-4.438-18.342-4.501-18.389
		C262.66,397.244,141.458,475.635,141.458,475.635z M262.751,397.577L262.751,397.577c0,0.048,4.635,3.13,4.635,13.214
		c0,1.409-0.082,2.946-0.297,4.647c-0.019-0.077-120.571,75.265-123.494,77.091c-0.046-0.427-1.923-16.346-1.955-16.618
		C141.812,475.797,262.751,397.577,262.751,397.577z"/>
	<polygon fill="#131044" points="175.116,46.325 34.759,115.552 116.771,446.622 254.925,364.884 	"/>
	<linearGradient id="SVGID_2_" gradientUnits="userSpaceOnUse" x1="35.8735" y1="246.8838" x2="252.6968" y2="246.8838">
		<stop  offset="0" style="stop-color:#FFFFFF"/>
		<stop  offset="1" style="stop-color:#3A53A4"/>
	</linearGradient>
	<polygon fill="url(#SVGID_2_)" points="172.636,49.657 35.874,115.552 119.271,444.11 252.697,364.884 	"/>
	<path fill="#AF92B3" d="M23.318,88.172c0,0-14.239,4.014-17.016,15.704c0,0-6.94,11.011,1.399,25.191
		c0,0,18.614,44.863,20.843,50.693c0,0,27.798,70.873,30.575,80.059c0,0,12.788,38.358,10.564,47.539c0,0,3.89-0.853,6.675,4.985
		c0,0,5.554,1.67,2.222-8.335c0,0-5.003-25.849-17.236-47.53c0,0-26.13-71.715-30.023-85.054c0,0-17.241-54.218-16.675-63.396
		C14.646,108.028,13.138,100.706,23.318,88.172z"/>
	<path fill="#350D44" d="M18.418,94.071c0,0-10.905-1.871-13.681,9.805c0,0-6.939,11.011,1.399,25.191
		c0,0,18.614,44.863,20.841,50.693c0,0,27.799,70.881,30.575,80.059c0,0,12.789,38.358,10.563,47.539c0,0,3.898-0.845,6.678,4.993
		c0,0,5.553,1.662,2.221-8.343c0,0-5-25.849-17.238-47.53c0,0-26.127-71.715-30.022-85.054c0,0-17.234-54.211-16.679-63.373
		C13.076,108.052,11.648,101.302,18.418,94.071z"/>
	<path fill="none" d="M15.859,99.708c0,0-11.122-0.007-13.346,5.83c0,0,2.225-13.338,14.458-10.005L15.859,99.708z"/>
	<path fill="#C8C0E0" d="M68.572,56.687l-0.25,0.186c-1.941,6.541-0.306,15.65-0.306,15.65l-6.115,0.843
		c-2.228,2.497-15.01-2.513-15.01-2.513c-22.797-8.336-30.558-0.016-30.558-0.016c-10.008,9.998-3.149,18.302-3.149,18.302
		c-0.507,0.541-0.318,1.794-0.78,2.343l11.002-3.557c-4.341-3.511-3.43-8.77-3.43-8.77c0.085-10.763,6.339-10.8,6.339-10.8
		c5.006-0.836,22.24,4.986,22.24,4.986c20.579,8.351,25.583,0.844,25.583,0.844l-3.377-2.87c-3.163-8.443-0.332-20.475,3.968-16.654
		C69.572,48.707,68.572,56.687,68.572,56.687z"/>
	<path fill="#350D44" d="M67.006,55.504l-0.252,0.186c-1.942,6.557-0.303,15.664-0.303,15.664l-6.118,0.828
		c-2.224,2.497-15.012-2.505-15.012-2.505c-22.791-8.328-30.575,1.677-30.575,1.677c-10.009,9.998-3.335,23.353-3.335,23.353
		c-0.501,0.525-0.981,1.075-1.449,1.639l7.009-0.812l6.669-7.509c-5.56-1.669-5.248-9.626-5.248-9.626
		c-0.247-10.392,6.358-11.22,6.358-11.22c5.004-0.843,22.235,5.003,22.235,5.003c20.577,8.344,25.578,0.828,25.578,0.828
		l-1.666-2.497c-3.164-8.444-2.105-14.53-0.897-17.878C67.538,52.844,67.006,55.504,67.006,55.504z"/>
	<path fill="#350D44" d="M134.84,461.615l120.642-76.704c0,0,14.479-3.765,11.904,29.738c0,0-1.881-23.754-10.793-18.906
		l-117.388,73.844C139.205,469.587,138.175,467.462,134.84,461.615z"/>
	<path fill="#231F20" d="M255.463,384.728c-0.032,0.007-120.673,76.725-120.673,76.725l-0.146,0.093l4.468,8.15
		c0.137,0.055,117.527-73.796,117.527-73.796c1.831-0.991,3.507-0.813,4.969,0.54c4.494,4.146,5.644,18.104,5.662,18.233h0.235
		c0.954-12.433-0.3-21.187-3.737-26.058C260.205,383.566,255.513,384.702,255.463,384.728z M255.525,385.064
		c0.025,0,4.61-1.119,8.08,3.806c2.646,3.751,3.973,9.859,3.973,18.241c0,1.832-0.114,3.851-0.238,5.898
		c-0.432-3.796-1.869-13.415-5.607-16.871c-1.527-1.416-3.268-1.592-5.183-0.565c-0.007,0-117.338,73.821-117.383,73.843l0,0
		c0-0.178-3.625-6.78-4.134-7.716C135.32,461.516,255.525,385.064,255.525,385.064z"/>
	<polygon fill="#350D44" points="139.282,472.464 262.707,397.406 264.377,398.242 141.504,475.797 	"/>
	<path fill="#231F20" d="M139.236,472.286l-0.166,0.107l2.348,3.526c0.13,0.053,123.008-77.5,123.008-77.5l0.291-0.186l-1.974-0.99
		C262.667,397.244,139.236,472.286,139.236,472.286z M262.745,397.577c0,0.022,0.832,0.456,1.292,0.688
		c-0.578,0.37-122.565,77.359-122.578,77.369h0.006c0-0.141-1.643-2.615-1.974-3.109
		C139.822,472.324,262.745,397.577,262.745,397.577z"/>
	<path fill="#350D44" d="M134.84,461.615c0,0,8.884,20.854,6.109,32.536c0,0,9.783-3.71,2.549-24.564L134.84,461.615z"/>
	<path fill="#231F20" d="M134.732,461.723c0.092,0.21,8.837,20.909,6.103,32.361l-0.072,0.308l0.215-0.069
		c0.032-0.008,3.168-1.26,4.605-6.023c1.396-4.679,0.732-10.994-1.975-18.789c-0.039-0.07-8.716-8.041-8.716-8.041L134.732,461.723z
		 M141.6,489.041c0-10.484-5.233-23.985-6.403-26.876c0.766,0.695,8.243,7.568,8.243,7.568c1.734,5.042,2.61,9.472,2.61,13.216
		c0,1.924-0.229,3.648-0.691,5.203c-1.257,4.207-3.8,5.514-4.265,5.737C141.419,492.374,141.6,490.758,141.6,489.041z"/>
	<g>
		<path fill="#9B4A9C" d="M130.943,31.325l2.604,8.443C133.256,35.793,130.943,31.325,130.943,31.325z"/>
		<path fill="#A672A2" d="M157.257,22.185c0,0,10.97-16.438,12.532-7.043c0,0-0.784,8.227,5.478,9.402c0,0,5.862-0.04,8.32-7.563
			c-2.559,0.811-4.27,2.652-4.27,2.652c1.662-6.65-1.676-13.322-1.676-13.322c-10.561-18.357-22.791,9.169-22.791,9.169
			c-11.626,22.85-17.763,27.049-20.277,27.621C134.587,43.102,147.085,44.501,157.257,22.185z"/>
		<path fill="#A672A2" d="M130.943,31.325c-7.784-7.508-12.229,3.325-12.229,3.325c-5.002,25.848-5.002,29.197-5.002,29.197
			c-1.727,1.291-3.136,1.693-4.253,1.646c1.729,1.709,7.996-3.2,11.436-16.028C120.893,49.465,119.82,34.356,130.943,31.325z"/>
	</g>
	<path fill="#C8C0E0" d="M263.615,413.514l-107.584,71.438l111.176-69.482c0.163-1.321,0.233-2.527,0.267-3.673
		c-0.959-6.812-3.858-12.981-3.858-12.981C267.007,411.819,263.615,413.514,263.615,413.514z"/>
	<polygon fill="#C8C0E0" points="263.615,398.814 145.218,472.904 145.218,475.169 264.371,401.071 	"/>
	<polygon fill="#C8C0E0" points="261.732,396.557 143.498,469.587 262.707,397.406 	"/>
	<path fill="#C8C0E0" d="M255.482,384.911L134.84,461.615c0,0-0.559-2.297-1.693-1.716l120.291-76.356L255.482,384.911z"/>
	<path fill="#350D44" d="M242.675,257.438c0.222,1.872,0.734,3.169,1.404,4.159c0.583,0.063,1.082,0.009,1.516-0.108
		c-0.029-2.691,0.73-6.123,2.348-8.497C245.208,247.557,241.964,251.423,242.675,257.438z"/>
	<path fill="#350D44" d="M274.716,388.638c0,0-0.775-15.271-7.048-10.585c0,0-8.612-12.913-9.399,9.41h-4.695
		c0,0-1.565-24.666,14.095-15.27C267.668,372.193,277.847,367.499,274.716,388.638z"/>
	<path fill="#231F20" d="M256.899,371.929c-4.084,4.593-3.445,15.44-3.445,15.542l4.815,0.163
		c0.385-7.446,1.488-11.706,3.416-12.829c2.605-1.482,5.872,3.342,5.902,3.38c1.549-1.014,2.795-1.122,3.828-0.247
		c2.729,2.312,3.182,10.624,3.188,10.717l0.23,0.023c1.103-7.424,0.696-12.526-1.21-15.155c-2.286-3.172-5.955-1.523-5.987-1.501
		C262.999,369.199,259.358,369.16,256.899,371.929z M257.036,372.208c2.392-2.683,5.956-2.63,10.59,0.153
		c0.113-0.016,3.654-1.6,5.841,1.423c1.15,1.594,1.73,4.177,1.73,7.693c0,1.725-0.17,3.75-0.455,5.946
		c-0.225-2.42-0.969-7.894-3.205-9.789c-1.105-0.943-2.428-0.85-3.92,0.271c0-0.178-3.267-5.003-6.008-3.433
		c-2.033,1.166-3.191,5.544-3.455,12.974l-4.58-0.178C253.684,387.269,253.074,376.668,257.036,372.208z"/>
	<path fill="#350D44" d="M114.196,469.68c0,0,6.258,5.861,12.532,3.519c0,0-7.508-14.854,6.419-13.299
		c0,0-10.335,5.072-0.158,17.991C132.989,477.891,121.246,489.637,114.196,469.68z"/>
	<path fill="#231F20" d="M124.987,463.046c-0.286,0.797-0.406,1.654-0.406,2.544c0,3.324,1.595,6.758,1.932,7.461
		c-6.082,2.133-12.19-3.464-12.255-3.541l-0.374-0.34l0.207,0.588c2.174,6.153,5.018,9.942,8.445,11.242
		c5.417,2.057,10.471-2.907,10.518-2.962l0.134-0.116l-0.124-0.162c-3.322-4.221-4.793-8.041-4.361-11.305
		c0.57-4.407,4.444-6.372,4.485-6.394l-0.029-0.341C128.716,459.227,125.962,460.338,124.987,463.046z M126.754,473.367l0.176-0.053
		l-0.111-0.225c-0.032-0.055-3.01-6.047-1.624-9.875c0.89-2.458,3.397-3.502,7.391-3.162c-1.058,0.642-3.63,2.56-4.125,6.325
		c-0.049,0.396-0.074,0.789-0.074,1.199c0,3.085,1.492,6.532,4.408,10.292c-0.449,0.424-5.115,4.717-10.198,2.783
		c-3.246-1.237-5.943-4.787-8.047-10.477C115.999,471.374,121.386,475.379,126.754,473.367z"/>
	<path fill="#350D44" d="M122.027,497.865c-2.406,0.215-14.459-4.835-11.17,2.411c2.542,5.591,7.369,3.301,10.388-0.063
		L122.027,497.865z"/>
	<path fill="#231F20" d="M110.322,497.353c-0.303,0.72-0.159,1.718,0.434,3.018c0.844,1.87,1.994,2.983,3.41,3.347
		c2.111,0.533,4.787-0.72,7.151-3.355c0.033-0.07,0.819-2.42,0.819-2.42l0.09-0.278l-0.208,0.022
		c-0.611,0.047-1.871-0.23-3.338-0.571C115.329,496.333,111.166,495.366,110.322,497.353z M114.205,503.354
		c-1.351-0.333-2.442-1.407-3.254-3.186c-0.525-1.16-0.669-2.042-0.427-2.622c0.758-1.801,5.013-0.81,8.117-0.091
		c1.342,0.315,2.511,0.594,3.193,0.594c-0.139,0.411-0.691,2.088-0.691,2.088C118.858,502.649,116.258,503.871,114.205,503.354z"/>
	<path fill="#AB83BA" d="M142.4,487.41c-0.149,0.17-2.078,2.212-2.192,2.227c-0.744,0.17-5.524,7.028-6.607,7.948
		c-2.073,1.802-5.996,3.991-8.438,5.003c-5.362,2.243-9.577,1.176-13.51-5.868c-7.35-13.161-6.593-36.427-7.813-52.882
		c-0.656-8.891-0.669-20.319-2.936-28.231c-2.098-7.32-6.937-11.929-9.411-18.826c-2.586-7.168-2.411-17.336-4.877-24.333
		c-2.437-6.897-6.512-11.528-10.23-17.073c-0.809,1.556-2.901,2.931-3.501,4.771c1.149-0.541,1.91-1.098,1.91-1.098
		c13.34,15.009,17.787,86.725,17.787,86.725c2.78,37.533,8.335,49.216,8.335,49.216c9.457,20.003,27.799,9.17,27.799,9.17
		c11.066-5.196,13.743-11.335,14.184-15.255C142.75,488.415,142.582,487.92,142.4,487.41z"/>
	<path fill="#C8C0E0" d="M87.538,340.892c0,0,14.915,24.248,14.133,59.484c0,0,3.917,16.453,3.917,29.367
		c0,0,3.909,54.024,27.402,48.147c0,0-10.177,15.272-27.402-16.438l-8.619-62.244L87.538,340.892z"/>
	<path fill="#C8C0E0" d="M131.173,465.944c0.416,2.352-0.033,4.556-0.983,4.934c-0.955,0.371-2.066-1.221-2.478-3.588
		c-0.41-2.349,0.029-4.546,0.99-4.938C129.658,461.985,130.76,463.587,131.173,465.944z"/>
	<path fill="#C8C0E0" d="M263.901,379.925c0.956,2.405,0.949,5.049-0.007,5.893c-0.967,0.856-2.514-0.388-3.461-2.8
		c-0.948-2.413-0.941-5.05,0.013-5.9S262.953,377.511,263.901,379.925z"/>
	<path fill="#C8C0E0" d="M70.972,341.434c0.529,1.516-0.422,3.826-2.129,5.165c-1.713,1.345-3.519,1.213-4.052-0.31
		c-0.533-1.522,0.422-3.844,2.131-5.181C68.63,339.763,70.442,339.901,70.972,341.434z"/>
	<path fill="#C8C0E0" d="M273.153,360.446l-2.354,12.921l4.703,10.568c0,0,2.734-1.737,2.346-16.451
		c-1.609-6.103-1.139-8.569-3.1-12.775L273.153,360.446z"/>
	<path fill="#C8C0E0" d="M47.255,262.154c8.333,24.597,15.298,45.204,15.298,45.204c-0.879,0.672-1.652,1.344-2.334,1.985
		l0.292,0.998h7.845L47.255,262.154z"/>
	<path fill="#350D44" d="M243.25,273.158c-1.445-4.888-1.951-7.811-1.971-9.566c-1.412-3.548-2.785-8.118-1.676-10.6
		c0,0,2.936-10.995,10.281-1.593c-0.01-0.062-0.019-0.108-0.019-0.162c-0.683-1.67-4.891-10.94-10.764-4.168
		c0,0-5.437,8.884-1.479,23.714c0,0,4.448,22.988,17.795,50.415c0,0,13.042,27.951,13.042,42.774c0,0,3.268,6.154,0.793,11.344
		c0,0,6.403,1.584,4.416-22.841c-2.104-4.229-3.734-6.767-3.734-6.767C247.689,294.003,243.25,273.158,243.25,273.158z"/>
	<g>
		<path fill="#AF92B3" d="M66.694,306.824c0,0-1.838-0.549-4.052,0.563c-6.547,5.104-7.314,9.124-7.314,9.124
			c-1.722,4.478-1.854,8.335-1.162,11.584c-0.039-0.681-0.023-1.408,0.111-2.196c0,0,1.008-14.784,11.872-14.784
			c0,0,7.099,0.974,9.327,8.582c0,0,2.065,4.269,1.288,7.369c0,0,5.693-10.315,1.556-24.649l-1.475,0.54c0,0,1.127,6.301,0.092,9.41
			C76.938,312.367,72.689,307.11,66.694,306.824z"/>
		<path fill="#C8C0E0" d="M78.321,339.338c0,0,2.318,11.374-1.039,14.876c0,0-5.879,8.777-11.886,4.268
			c0,0-6.229-4.376-2.848-13.585l5.687-6.588c0,0-5.022,2.468-7.351-0.633c0,0-2.938-2.097-4.968-4.825
			c2.757,5.188,7.193,7.855,7.193,7.855c-3.889,8.335-1.104,14.181-1.104,14.181c3.889,10.849,12.789,4.16,12.789,4.16
			c0.168,0.193,0.948-0.565,1.13-0.348c2.357-1.91,3.889-4.632,4.422-7.052c0,0,1.293-6.921-0.221-11.396
			c0,0,3.299-6.589,8.613,5.589l-0.553-4.066C88.187,341.773,82.195,333.522,78.321,339.338z"/>
	</g>
	<path fill="#350D44" d="M61.992,312.089c0,0,2.364,10.331-5.65,12.649c0,0,11.894,2.714,14.218,1.935c0,0,4.391-2.707-3.618-5.801
		c0,0-4.807-2.527-2.737-9.889L61.992,312.089z"/>
	<path fill="#350D44" d="M85.915,340.706c0,0,3.949,18.611,1.168,31.965c0,0,2.714,31.408,7.163,42.265c0,0,4.45-1.687,6.67,12.494
		c0,0,2.229,25.015,3.339,41.687c0,0,0.558,20.026,8.898,29.203c0,0-5.56-15.015-6.671-25.855c0,0,6.111,17.505,16.673,16.679
		c0,0,9.458-1.67,10.56-7.508c0,0-16.671,13.353-24.453-19.169c0,0-9.451-59.222-9.451-68.384
		C99.812,394.082,99.812,364.058,85.915,340.706z"/>
	<path fill="#350D44" d="M86.127,339.306c0,0-4.461-10.229-20.322-0.092c0,0-3.235,3.257-3.722,6.441
		c-0.02,0.093-0.029,0.176-0.039,0.247c-0.35,3.263,0.476-0.093,0.476-0.093s3.403-7.114,7.751-7.114c0,0,2.646,0.248,1.172,4.129
		c0,0,2.411-6.339,5.753-7.045C77.196,335.779,82.484,334.891,86.127,339.306z"/>
	<path fill="#350D44" d="M62.395,338.943c0,0,9.515-0.178,13.275-9.596c0,0,1.586-6.705-0.708-10.919c0,0,4.059,6.163,0.765,13.911
		c0,0-2,4.586-6.87,5.723C68.858,338.063,64.451,340.012,62.395,338.943z"/>
	<path fill="#350D44" d="M63.305,315.476c0,0,8.53-4.384,12.912,7.244l0.672,0.675c0,0-3.069-18.225-14.896-11.306L63.305,315.476z"
		/>
	<path fill="#350D44" d="M72.957,338.217c0,0,6.514,9.257-2.135,15.644c0,0-2.572,1.026-3.25-1.672c0,0,1.007,5.714,6.506,1.516
		c0,0,2.696-1.856,2.475-6.063c0,0,2.013,3.527,0.559,5.716c0,0,3.7-4.369,0.559-13.462
		C77.671,339.895,75.992,336.862,72.957,338.217z"/>
	<path fill="#FFFFFF" d="M62.751,324.043c0,1.833-0.993,3.317-2.211,3.317c-1.218,0-2.206-1.484-2.206-3.317
		c0-1.823,0.988-3.301,2.206-3.301C61.758,320.742,62.751,322.22,62.751,324.043z"/>
	<path fill="#FFFFFF" d="M7.869,110.998c0,2.527-1.063,4.585-2.376,4.585s-2.379-2.058-2.379-4.585c0-2.537,1.067-4.585,2.379-4.585
		S7.869,108.461,7.869,110.998z"/>
	<path fill="#A672A2" d="M7.039,96.561C6,97.683,4.807,99.066,3.947,100.195L23.64,88.024l-12.478,6.133
		C11.313,94.497,7.039,96.561,7.039,96.561z"/>
	<path fill="#A672A2" d="M14.746,71.354c0,0-10.487,10.548-2.908,23.824l6.58-4.028C18.418,91.149,5.308,88.28,14.746,71.354z"/>
	<path fill="#350D44" d="M278.359,360.238c0,0,8.157,38.745-6.117,43.826c0,0,13.596,0,10.195-31.586
		C282.437,372.479,280.401,364.313,278.359,360.238z"/>
	<g>
		<path fill="#350D44" d="M15.223,103.203c0,0,4.757-10.013,8.015-4.385c0,0,3.584,3.76-0.169,9.388c0,0-4.003,3.001-6.177-3.997
			c0,0-0.162,4.878,2.174,6.502h4.926l2.831-4.878l-0.328-6.89l-1.673-2.885l-3.838-2.381l-2.76,0.757l-2.588,5.127L15.223,103.203z
			"/>
		<path fill="#350D44" d="M31.004,83.664c0,0,3.754,12.534-4.932,13.647l-1.497-2.126c0,0,4.592,0.379,5.842-2.884
			C30.417,92.302,31.752,87.794,31.004,83.664z"/>
		<path fill="#91508E" d="M27.238,86.029c0,1.385-0.913,2.506-2.035,2.506c-1.134,0-2.043-1.121-2.043-2.506
			c0-1.383,0.909-2.527,2.043-2.527C26.326,83.502,27.238,84.646,27.238,86.029z"/>
		<path fill="#91508E" d="M23.498,106.375c0,1.383-0.91,2.52-2.034,2.52c-1.133,0-2.046-1.137-2.046-2.52
			c0-1.394,0.913-2.522,2.046-2.522C22.588,103.853,23.498,104.981,23.498,106.375z"/>
		<path fill="#AF92B3" d="M16.924,95.719c0,0,5.251-4.724,8.966,3.89c0,0,2.914,11.034-5.654,10.546c0,0-4.604-2.551-2.916-8.365
			c0,0-2.904,6.417,2.835,10.06c0,0,6.947,2.528,7.274-9.093c0,0-0.601-11.041-7.953-9.96L16.924,95.719z"/>
		<path fill="#350D44" d="M23.049,85.513c0,0,1.059-3.511,2.737-0.828c0,0,2.29,3.101,0.275,5.691c0,0,2.853-0.495,1.791-4.609
			c0,0,1.563,2.591,0.445,5.119c0,0,2.741-4.368-0.89-7.964c0,0,3.064,0.681,3.571,5.103c0,0,0.169-5.442-3.467-7.283
			c0,0-3.014-0.085-3.289,0.751C24.223,81.492,22.883,82.002,23.049,85.513z"/>
		<path fill="#AF92B3" d="M20.237,91.845c0,0,5.654,4.361,9.536-1.091c0,0,2.667-5.466-2.261-9.464c0,0-5.254-1.33-4.365,4.739
			c0,0-1.617-5.705,3.633-6.069c0,0,6.791,1.33,4.129,12.125c0,0-3.157,4.841-6.547,2.922l-4.69-2.196L20.237,91.845z"/>
		<path fill="#350D44" d="M18.247,100.165c0,0-2.01,3.038-0.836,6.039c0,0,0.722,2.598,3.235,3.355c0,0,1.738,0,2.349-0.758
			c0,0-3.127,0.324-3.348-1.84c0,0,0.782,1.253,2.51,0.51c0,0-2.458-0.51-2.122-2.946c0,0,0.222-2.752,2.346-1.584
			C22.38,102.941,22.043,97.164,18.247,100.165z"/>
		<path fill="#AF92B3" d="M24.607,102.67c0,1.114-0.707,2.033-1.577,2.033c-0.875,0-1.58-0.919-1.58-2.033
			c0-1.12,0.705-2.042,1.58-2.042C23.9,100.628,24.607,101.55,24.607,102.67z"/>
		<path fill="#AF92B3" d="M26.472,89.108c0,0.843-0.532,1.538-1.188,1.538c-0.649,0-1.175-0.695-1.175-1.538
			c0-0.827,0.526-1.509,1.175-1.509C25.94,87.6,26.472,88.281,26.472,89.108z"/>
	</g>
	<g>
		<path fill="#350D44" d="M175.761,7.563c0,0,3.686,9.433,0.217,13.586c0,0-3.006,4.785-6.176-1.609c0,0-1.39-6.401,3.553-8.582
			c0,0-3.193-0.968-4.611,2.265l-0.725,7.314l2.798,4.918l4.597,0.524l2.137-2.063l2.144-5.335l-0.056-4.354l-2.34-4.964
			L175.761,7.563z"/>
		<path fill="#350D44" d="M184.818,34.904c0,0-8.8,3.743-8.271-9.309l1.622-1.918c0,0-0.919,6.751,1.048,9.102
			C179.216,32.779,181.992,35.415,184.818,34.904z"/>
		<path fill="#91508E" d="M183.825,28.989c-0.915-0.208-1.526-1.739-1.358-3.41c0.164-1.662,1.044-2.846,1.956-2.651
			c0.915,0.208,1.526,1.731,1.354,3.393C185.616,27.984,184.735,29.175,183.825,28.989z"/>
		<path fill="#91508E" d="M170.953,20.446c-0.921-0.209-1.521-1.733-1.358-3.41c0.162-1.669,1.039-2.861,1.954-2.652
			c0.91,0.209,1.521,1.732,1.357,3.395C172.746,19.456,171.868,20.63,170.953,20.446z"/>
		<path fill="#AF92B3" d="M179.726,15.45c0,0,1.566,5.298-4.66,9.542c0,0-7.703,2.683-6.122-9.959c0,0,2.353-6.441,5.944-3.07
			c0,0-3.815-5.266-7.054,2.721c0,0-2.698,9.928,4.931,12.109c0,0,7.358,0.781,7.125-10.98L179.726,15.45z"/>
		<path fill="#350D44" d="M184.767,22.85c0,0,2.166,2.081,0.156,4.168c0,0-2.391,2.946-3.804-0.417c0,0-0.084,4.298,2.776,3.334
			c0,0-1.941,1.931-3.428-0.093c0,0,2.462,4.716,5.369-0.147c0,0-0.895,4.446-3.895,4.539c0,0,3.563,1.059,5.314-4.052
			c0,0,0.504-4.462-0.01-5.01C187.248,25.17,187.117,23.105,184.767,22.85z"/>
		<path fill="#AF92B3" d="M182.63,20.174c0,0-5.166,5.189-2.131,11.746c0,0,3.194,4.77,6.555-1.964c0,0,1.661-7.601-2.47-7.16
			c0,0,3.992-1.57,3.458,6.286c0,0-2.495,10.695-8.784,4.06c0,0-2.532-4.725-0.753-9.472L182.63,20.174z"/>
		<path fill="#350D44" d="M175.806,13.557c0,0-1.685-3.418-3.854-2.127c0,0-1.813,0.696-2.684,4.323c0,0-0.253,2.56,0.152,3.58
			c0,0,0.241-4.685,1.707-4.7c0,0-0.943,0.982-0.697,3.657c0,0,0.697-3.581,2.246-2.715c0,0,1.789,0.735,0.701,3.711
			C173.378,19.285,177.232,19.634,175.806,13.557z"/>
		<path fill="#AF92B3" d="M170.082,16.936c-0.738-0.163-1.234-1.355-1.113-2.646c0.133-1.291,0.842-2.22,1.573-2.042
			c0.741,0.164,1.243,1.346,1.112,2.645C171.517,16.186,170.817,17.09,170.082,16.936z"/>
		<path fill="#AF92B3" d="M181.893,27.397c-0.56-0.133-0.926-1.014-0.829-1.988c0.098-0.967,0.627-1.669,1.174-1.539
			c0.555,0.131,0.932,1.028,0.833,1.98C182.98,26.824,182.448,27.521,181.893,27.397z"/>
	</g>
	<path fill="#350D44" d="M68.016,72.522c0,0,5.122,5.931,11.077-3.596c0,0,2.777-7.13-3.175-7.732c0,0,4.363,3.571,0.791,8.335
		c0,0-6.741,4.757-7.93-5.342L68.016,72.522z"/>
	<path fill="#350D44" d="M73.538,66.267c0,0.819-1.637,3.263-3.173,3.263c-1.534,0-2.377-2.443-2.377-3.263
		c0-0.827,1.237-1.501,2.773-1.501C72.297,64.766,73.538,65.439,73.538,66.267z"/>
	<path fill="#AF92B3" d="M77.864,63.77c0,1.306-0.711,2.381-1.588,2.381c-0.878,0-1.585-1.075-1.585-2.381
		c0-1.314,0.708-2.382,1.585-2.382C77.152,61.388,77.864,62.455,77.864,63.77z"/>
	<path fill="#350D44" d="M66,54.065c0,0-5.15,9.518-1.584,18.44l-2.514,0.859C61.901,73.365,59.654,63.583,66,54.065z"/>
	<path fill="#FFFFFF" d="M112.803,65.378c0,0,6.744-1.19,8.329-20.236c0,0-4.53,15.704-7.031,14.716L112.803,65.378z"/>
	<path fill="#AF92B3" d="M231.137,219.674c0,0,1.621,17.143,11.438,17.089c0,0-11.438,6.001-14.368-19.285L231.137,219.674z"/>
	<path fill="#A672A2" d="M195.23,46l9.521,48.915c0,0,3.668,4.94,4.404,8.79c0,0-2.569,3.295-3.664,3.295
		c0,0,1.826,3.858,5.502,5.497l0.732-8.235l-1.475-10.445L195.23,46z"/>
	<path fill="#A672A2" d="M138.955,42.003c0,0-8.494,7.687-13.293,0.719c0,0-3.299-6.255-0.395-10.623l2.211-2.236
		c0,0-1.893,2.236-2.046,4.129c0,0-0.874,2.831,0,5.057c0,0,0.316,3.549,1.88,3.905c0,0,4.099,3.425,10.468-1.059L138.955,42.003z"
		/>
	<path fill="#350D44" d="M137.145,41.609c0,0-7.702,4.537-10.457-0.427c0,0-4.092-6.711,1.336-10.979c0,0-6.056,2.837-2.362,11.691
		c0,0,2.592,4.251,7.051,2.93c0,0,5.504-1.801,7.251-4.615L137.145,41.609z"/>
	<g>
		<path fill="#350D44" d="M169.861,1.301c0,0,7.273,0.672,7.781,16.678c0,0,0,14.173-8.34,0.827c0,0,2.225,15.017,12.789,1.671
			c0,0,8.145-3.704,8.469,8.543c0,0,0.43,3.132-2.344,4.802c0,0,3.328,0.828,4.994,6.673l13.336,54.211c0,0,3.901,3.324,5.57,10.832
			c0,0,0,0.837-3.338,1.671c0,0,10.561,41.584,10.561,55.029c0,1.679,3.342,55.039,12.784,72.561c0,0,1.674,5.83,10.02,3.332
			c0.143-0.456,0.293-0.912,0.432-1.368c-2.874,0.456-10.035,0.054-12.669-14.475l2.784,0.827c0,0,0-1.864,0.36-4.075
			c-2.097,0.742-3.145-3.434-3.145-3.434c-5.007-35.011-18.9-120.9-18.9-120.9c-7.787-42.527-13.899-66.729-13.899-66.729
			c-7.79-19.177-17.788-8.343-17.788-8.343c1.662-6.65-1.676-13.322-1.676-13.322c-10.561-18.357-22.791,9.169-22.791,9.169
			c-11.626,22.85-17.763,27.049-20.277,27.621c1.221,0.872,4.196-0.271,11.379-10.115C145.953,32.987,165.412-2.875,169.861,1.301z"
			/>
		<path fill="#350D44" d="M133.553,39.923c-0.233-3.998-2.61-8.598-2.61-8.598c-7.784-7.508-12.229,3.325-12.229,3.325
			c-2.011,10.392-3.729,18.348-4.44,22.708c1.251-3.439,1.313-6.34,3.998-16.005c0,0,1.95-5.382,4.885-8.367
			C123.156,32.987,129.124,24.876,133.553,39.923z"/>
	</g>
	<path fill="#A672A2" d="M131.639,40.696c-0.972,1.33-2.807,0.665-4.125-1.492c-1.304-2.143-1.584-4.949-0.616-6.279
		c0.961-1.314,2.812-0.657,4.117,1.493C132.322,36.575,132.599,39.382,131.639,40.696z"/>
	<path fill="#C8C0E0" d="M129.54,36.876c-0.523,0.696-1.516,0.341-2.229-0.811c-0.7-1.161-0.844-2.668-0.325-3.379
		c0.514-0.72,1.507-0.356,2.216,0.796C129.904,34.65,130.057,36.157,129.54,36.876z"/>
	<path fill="#AF92B3" d="M243.468,246.374c0,0-6.248,1.298-4.793,9.223c0,0,1.432-6.339,3.834-5.334c0,0-3.27,1.014-1.539,6.069
		c0,0,0.388-5.056,2.979-4.33c0,0,4.131,0.58,4.131,3.317c0,0,3.064-4.043-2.787-9.086L243.468,246.374z"/>
	<path fill="#AF92B3" d="M244.78,223.965c-0.396,2.251-2.767,3.256-5.306,2.251c-2.527-1.014-4.254-3.657-3.859-5.915
		c0.404-2.251,2.773-3.256,5.301-2.251C243.452,219.056,245.183,221.723,244.78,223.965z"/>
	<path fill="#350D44" d="M243.597,228.466c-9.527,1.647-8.423-8.251-8.423-8.251c5.856,7.702,7.688,1.647,7.688,1.647
		c-1.825,2.212-4.767-0.549-4.767-0.549c-1.916-2.149-0.688-3.836,0.385-4.74c-1.942-0.192-3.572,0.704-3.572,0.704
		c-1.417,2.142-2.534,2.142-3.354,1.462l-0.418,0.935C234.808,236.159,243.597,228.466,243.597,228.466z"/>
	<path fill="#FFFFFF" d="M244.331,248.253c0,0.92-0.655,1.655-1.468,1.655c-0.798,0-1.46-0.735-1.46-1.655
		c0-0.905,0.662-1.64,1.46-1.64C243.675,246.613,244.331,247.348,244.331,248.253z"/>
	<path fill="#350D44" d="M210.994,96.563c0,0-0.742,11.536-6.605,10.438c0,0,2.564,4.4,8.06,0L210.994,96.563z"/>
</g>
</svg>
