<?xml version="1.0" encoding="utf-8"?>
<!-- Generator: Adobe Illustrator 16.0.0, SVG Export Plug-In . SVG Version: 6.00 Build 0)  -->
<!DOCTYPE svg PUBLIC "-//W3C//DTD SVG 1.1 Basic//EN" "http://www.w3.org/Graphics/SVG/1.1/DTD/svg11-basic.dtd">
<svg version="1.1" baseProfile="basic"
	 id="svg4793" xmlns:rdf="http://www.w3.org/1999/02/22-rdf-syntax-ns#" xmlns:dc="http://purl.org/dc/elements/1.1/" xmlns:inkscape="http://www.inkscape.org/namespaces/inkscape" xmlns:sodipodi="http://sodipodi.sourceforge.net/DTD/sodipodi-0.dtd" xmlns:cc="http://creativecommons.org/ns#" xmlns:svg="http://www.w3.org/2000/svg" sodipodi:docname="ufo_50year.svg" inkscape:version="0.46" inkscape:export-xdpi="60" inkscape:export-ydpi="60" sodipodi:version="0.32" inkscape:export-filename="/home/roger/mis-dibujos/open/ufo_50year.png" inkscape:output_extension="org.inkscape.output.svg.inkscape"
	 xmlns="http://www.w3.org/2000/svg" xmlns:xlink="http://www.w3.org/1999/xlink" x="0px" y="0px" width="716.806px"
	 height="377.279px" viewBox="-0.344 0.087 716.806 377.279" xml:space="preserve">
<defs>
	
	
		<inkscape:perspective  id="perspective4799" inkscape:vp_z="744.09448 : 526.18109 : 1" inkscape:vp_y="0 : 1000 : 0" inkscape:vp_x="0 : 526.18109 : 1" sodipodi:type="inkscape:persp3d" inkscape:persp3d-origin="372.04724 : 350.78739 : 1">
		</inkscape:perspective>
</defs>
<sodipodi:namedview  id="base" inkscape:cx="434.47386" inkscape:cy="487.34341" borderopacity="1.0" bordercolor="#666666" pagecolor="#ffffff" inkscape:zoom="0.5" showgrid="false" inkscape:document-units="mm" inkscape:window-width="1272" inkscape:window-y="0" inkscape:window-height="944" inkscape:current-layer="layer1" inkscape:pageshadow="2" inkscape:window-x="0" inkscape:pageopacity="0.0">
	</sodipodi:namedview>
<g id="layer1" transform="translate(-25.336425,-60.109706)" inkscape:label="Layer 1" inkscape:groupmode="layer">
	<path id="path4088" d="M346.541,434.744c-75.625-14.12-126.963-79.052-114.665-144.919c1.842-9.863,4.998-19.121,9.301-27.804
		c7.959-36.008,72.326-54.299,144.843-40.759c70.178,13.104,122.551,51.257,120.808,86.74c1.36,10.814,1.092,21.87-0.981,32.978
		C493.549,406.846,422.165,448.865,346.541,434.744z"/>
	
		<radialGradient id="path4130_1_" cx="23.7485" cy="224.2154" r="42.6079" gradientTransform="matrix(11.9591 2.1222 0.6049 -3.383 -22.5492 917.287)" gradientUnits="userSpaceOnUse">
		<stop  offset="0" style="stop-color:#000000"/>
		<stop  offset="0.2946" style="stop-color:#DADADA"/>
		<stop  offset="0.819" style="stop-color:#282828"/>
		<stop  offset="0.8253" style="stop-color:#FFFFFF"/>
		<stop  offset="1" style="stop-color:#000000"/>
	</radialGradient>
	<path id="path4130" fill="url(#path4130_1_)" d="M408.699,147.374c-12.387-2.313-24.683-4.232-36.837-6.01
		c-176.369-25.046-294.831,16.857-346.87,76.571c64.112,77.074,189.231,143.565,340.407,171.792
		c148.936,27.809,287.664,11.825,375.51-35.269c0.288-0.357,0.606-0.714,0.889-1.074
		c-26.114-74.932-121.689-157.721-296.575-198.322c-0.145-0.033-0.297-0.05-0.443-0.083c-5.802-1.343-11.751-2.682-17.729-3.93
		c-0.036-0.008-0.075-0.013-0.111-0.021C420.923,149.772,414.893,148.53,408.699,147.374z"/>
	
		<path id="path4146" sodipodi:ry="1.25" sodipodi:rx="0.25" sodipodi:type="arc" sodipodi:cx="182.25" sodipodi:cy="244.68181" opacity="0.5493" fill="#EEEEED" d="
		M187.418,161.249c-0.328,1.757-0.857,3.131-1.182,3.071c-0.325-0.061-0.323-1.534,0.005-3.291l0,0
		c0.328-1.756,0.857-3.131,1.182-3.07C187.749,158.02,187.746,159.493,187.418,161.249z"/>
	
		<radialGradient id="path4663_1_" cx="79.022" cy="241.501" r="14.1778" gradientTransform="matrix(-1.4968 12.7557 14.7819 1.5641 -3035.3848 -1297.8445)" gradientUnits="userSpaceOnUse">
		<stop  offset="0" style="stop-color:#000000"/>
		<stop  offset="0" style="stop-color:#DADADA"/>
		<stop  offset="0.819" style="stop-color:#282828"/>
		<stop  offset="0.8253" style="stop-color:#FFFFFF"/>
		<stop  offset="1" style="stop-color:#000000"/>
	</radialGradient>
	<path id="path4663" fill="url(#path4663_1_)" d="M420.862,62.578c-65.943-12.313-128.123,24.338-138.846,81.771
		c-1.606,8.602-1.952,17.123-1.184,25.538c-4.857,31.785,41.732,66.914,104.964,78.72c61.192,11.426,115.788-3.123,125.535-32.526
		c4.507-8.367,7.77-17.442,9.578-27.127C531.632,131.521,486.804,74.89,420.862,62.578z"/>
	
		<linearGradient id="path4665_1_" gradientUnits="userSpaceOnUse" x1="-301.4375" y1="376.0406" x2="-257.1427" y2="325.1289" gradientTransform="matrix(2.0522 0.3832 0.4143 -2.2186 829.136 1034.1985)">
		<stop  offset="0" style="stop-color:#EEEEED"/>
		<stop  offset="1" style="stop-color:#EEEEED;stop-opacity:0"/>
	</linearGradient>
	<path id="path4665" sodipodi:nodetypes="csccsc" opacity="0.8932" fill="url(#path4665_1_)" d="M418.519,64.508
		c-57.931-10.816-112.594,21.354-122.015,71.812c-1.589,8.508-1.799,16.981-0.758,25.266
		c108.889-23.319,132.902-62.813,202.245,37.762c3.96-7.351,6.822-15.329,8.411-23.837
		C515.822,125.053,476.451,75.324,418.519,64.508z"/>
	
		<linearGradient id="path4667_1_" gradientUnits="userSpaceOnUse" x1="-279.2861" y1="544.8267" x2="-299.7238" y2="572.0144" gradientTransform="matrix(2.0522 0.3832 0.4143 -2.2186 816.2298 1592.1946)">
		<stop  offset="0" style="stop-color:#FFFFFF"/>
		<stop  offset="1" style="stop-color:#FFFFFF;stop-opacity:0"/>
	</linearGradient>
	<path id="path4667" fill="url(#path4667_1_)" d="M513.388,136.101c-28.928,22.768-63.97,44.333-103.49,62.686
		c-24.029,11.159-48.054,20.321-71.448,27.558c12.688,5.087,26.782,9.234,41.821,12.042c61.192,11.426,115.788-3.121,125.534-32.525
		c4.509-8.367,7.771-17.441,9.579-27.126C518.091,164.238,517.207,149.795,513.388,136.101z"/>
	
		<linearGradient id="path4729_1_" gradientUnits="userSpaceOnUse" x1="106.2461" y1="177.3751" x2="106.2461" y2="184.2693" gradientTransform="matrix(8.4251 1.5731 1.7006 -9.1083 -851.3005 1897.2817)">
		<stop  offset="0" style="stop-color:#E6E6E5"/>
		<stop  offset="1" style="stop-color:#E6E6E5;stop-opacity:0"/>
	</linearGradient>
	<path id="path4729" fill="url(#path4729_1_)" d="M348.73,431.282c-73.159-13.659-122.822-76.475-110.925-140.193
		c1.782-9.542,4.835-18.497,8.999-26.896c7.699-34.832,69.967-52.527,140.118-39.429c67.889,12.676,118.554,49.584,116.869,83.91
		c1.315,10.461,1.057,21.156-0.95,31.901C490.944,404.294,421.889,444.942,348.73,431.282z"/>
	
		<linearGradient id="path4779_1_" gradientUnits="userSpaceOnUse" x1="25.2285" y1="181.8135" x2="27.9963" y2="181.8135" gradientTransform="matrix(8.4251 1.5731 1.7006 -9.1083 -500.8318 1861.0786)">
		<stop  offset="0" style="stop-color:#000000"/>
		<stop  offset="1" style="stop-color:#000000;stop-opacity:0"/>
	</linearGradient>
	<path id="path4779" sodipodi:nodetypes="cc" fill="none" stroke="url(#path4779_1_)" stroke-width="8.9114" d="M29.77,220.753
		c0,0,280.394,173.99,703.579,128.036"/>
</g>
</svg>
