<?xml version="1.0" encoding="utf-8"?>
<!-- Generator: Adobe Illustrator 16.0.0, SVG Export Plug-In . SVG Version: 6.00 Build 0)  -->
<!DOCTYPE svg PUBLIC "-//W3C//DTD SVG 1.1//EN" "http://www.w3.org/Graphics/SVG/1.1/DTD/svg11.dtd">
<svg version="1.1" id="Layer_1" xmlns="http://www.w3.org/2000/svg" xmlns:xlink="http://www.w3.org/1999/xlink" x="0px" y="0px"
	 width="134.25px" height="134.251px" viewBox="0 0 134.25 134.251" enable-background="new 0 0 134.25 134.251"
	 xml:space="preserve">
<g>
	<path fill="#5FBBDD" d="M108.86,131.229c-28.041,4.155-56.061,4.025-84.061-0.389c-11.272-1.776-20.104-10.692-21.777-21.979
		c-4.155-28.041-4.025-56.061,0.389-84.062C5.188,13.526,14.103,4.695,25.391,3.022c28.04-4.155,56.06-4.025,84.061,0.389
		c11.273,1.777,20.104,10.691,21.777,21.979c4.154,28.04,4.025,56.061-0.39,84.062C129.062,120.724,120.149,129.557,108.86,131.229z
		"/>
	<path fill="#FFFFFF" d="M67.125,126.345c-13.546,0-27.285-1.051-40.836-3.123c-3.858-0.59-7.361-2.364-10.128-5.131
		c-2.767-2.768-4.542-6.27-5.132-10.129c-4.144-27.098-4.144-54.576,0-81.673c0.59-3.859,2.365-7.361,5.132-10.128
		s6.27-4.542,10.128-5.132c13.551-2.072,27.29-3.123,40.836-3.123c13.546,0,27.286,1.05,40.836,3.123
		c3.859,0.59,7.361,2.365,10.129,5.132s4.542,6.27,5.132,10.128c4.144,27.097,4.144,54.575,0,81.673
		c-0.59,3.858-2.364,7.361-5.132,10.129c-2.768,2.767-6.27,4.541-10.129,5.131C94.411,125.294,80.671,126.345,67.125,126.345z"/>
	<g>
		<rect x="64.369" y="12.372" fill="#4F6E77" width="5.514" height="12.744"/>
		<rect x="64.369" y="109.206" fill="#4F6E77" width="5.514" height="12.744"/>
	</g>
	<g>
		
			<rect x="50.657" y="15.882" transform="matrix(0.2589 0.9659 -0.9659 0.2589 56.2798 -39.1218)" fill="#4F6E77" width="5.951" height="2.462"/>
		
			<rect x="77.2" y="115.764" transform="matrix(-0.2587 -0.9659 0.9659 -0.2587 -11.8121 224.9258)" fill="#4F6E77" width="6.394" height="2.462"/>
	</g>
	<g>
		
			<rect x="38.161" y="21.058" transform="matrix(0.4998 0.8661 -0.8661 0.4998 39.8797 -24.4808)" fill="#4F6E77" width="5.951" height="2.462"/>
		
			<rect x="89.642" y="110.611" transform="matrix(-0.5 -0.866 0.866 -0.5 42.4088 248.1668)" fill="#4F6E77" width="6.394" height="2.462"/>
	</g>
	<g>
		
			<rect x="27.43" y="29.292" transform="matrix(0.7071 0.7071 -0.7071 0.7071 30.4915 -12.56)" fill="#4F6E77" width="5.951" height="2.462"/>
		
			<rect x="100.328" y="102.412" transform="matrix(-0.7073 -0.707 0.707 -0.7073 103.4725 250.1318)" fill="#4F6E77" width="6.393" height="2.462"/>
	</g>
	<g>
		
			<rect x="19.196" y="40.023" transform="matrix(0.866 0.5 -0.5 0.866 23.5979 -5.5588)" fill="#4F6E77" width="5.951" height="2.462"/>
		
			<rect x="108.528" y="91.726" transform="matrix(-0.866 -0.5001 0.5001 -0.866 161.9835 229.3289)" fill="#4F6E77" width="6.393" height="2.463"/>
	</g>
	<g>
		
			<rect x="14.02" y="52.52" transform="matrix(0.9659 0.2588 -0.2588 0.9659 14.4916 -2.5673)" fill="#4F6E77" width="5.952" height="2.462"/>
		
			<rect x="113.681" y="79.283" transform="matrix(-0.9659 -0.2587 0.2587 -0.9659 208.9419 188.528)" fill="#4F6E77" width="6.394" height="2.462"/>
	</g>
	<g>
		
			<rect x="14.02" y="79.34" transform="matrix(0.9659 -0.2588 0.2588 0.9659 -20.271 7.1424)" fill="#4F6E77" width="5.951" height="2.462"/>
		
			<rect x="113.681" y="52.577" transform="matrix(-0.9659 0.2588 -0.2588 -0.9659 243.6989 75.5324)" fill="#4F6E77" width="6.394" height="2.462"/>
	</g>
	<g>
		
			<rect x="19.196" y="91.836" transform="matrix(0.866 -0.5 0.5 0.866 -43.5638 23.5549)" fill="#4F6E77" width="5.951" height="2.463"/>
		
			<rect x="108.527" y="40.134" transform="matrix(-0.8661 0.4999 -0.4999 -0.8661 229.163 21.3348)" fill="#4F6E77" width="6.393" height="2.462"/>
	</g>
	<g>
		
			<rect x="27.43" y="102.567" transform="matrix(0.7072 -0.707 0.707 0.7072 -64.4847 51.8913)" fill="#4F6E77" width="5.952" height="2.462"/>
		
			<rect x="100.328" y="29.448" transform="matrix(-0.7072 0.707 -0.707 -0.7072 198.4264 -20.8195)" fill="#4F6E77" width="6.394" height="2.462"/>
	</g>
	<g>
		
			<rect x="38.161" y="110.802" transform="matrix(0.5 -0.866 0.866 0.5 -76.4558 91.6465)" fill="#4F6E77" width="5.952" height="2.462"/>
		
			<rect x="89.643" y="21.249" transform="matrix(-0.5001 0.866 -0.866 -0.5001 158.7342 -46.6743)" fill="#4F6E77" width="6.393" height="2.463"/>
	</g>
	<g>
		
			<rect x="50.658" y="115.978" transform="matrix(0.2589 -0.9659 0.9659 0.2589 -73.4646 138.6715)" fill="#4F6E77" width="5.951" height="2.462"/>
		
			<rect x="77.2" y="16.096" transform="matrix(-0.2587 0.9659 -0.9659 -0.2587 117.9354 -55.8487)" fill="#4F6E77" width="6.394" height="2.462"/>
	</g>
	<g>
		<rect x="12.336" y="64.404" fill="#4F6E77" width="12.744" height="5.514"/>
		<rect x="109.17" y="64.404" fill="#4F6E77" width="12.744" height="5.514"/>
	</g>
	<path fill="#5FBBDD" d="M66.604,70.174L38.753,42.322c-1.152-1.152-1.152-3.02,0-4.172c1.152-1.152,3.02-1.152,4.172,0
		l27.852,27.852L66.604,70.174z"/>
	<path fill="#5FBBDD" d="M69.527,69.776l-16.49,16.49c-1.152,1.152-3.02,1.152-4.172,0s-1.152-3.02,0-4.172l16.49-16.49
		L69.527,69.776z"/>
	<path fill="#ED785C" d="M65.579,66.789l1.676-1.675l29.6,29.6c0.463,0.463,0.463,1.213,0,1.676l0,0
		c-0.463,0.463-1.213,0.463-1.676,0L65.579,66.789z"/>
	<path fill="#4F6E77" d="M67.183,73.526c-0.039,0-0.077,0-0.115,0c-3.49-0.008-6.335-2.854-6.343-6.343c0-0.039,0-0.077,0-0.115
		c0.007-3.49,2.853-6.335,6.343-6.343c0.039,0,0.077,0,0.115,0c3.489,0.007,6.335,2.853,6.343,6.343c0,0.038,0,0.077,0,0.115
		C73.518,70.673,70.672,73.519,67.183,73.526z"/>
</g>
</svg>
