<?xml version="1.0" encoding="utf-8"?>
<!-- Generator: Adobe Illustrator 16.0.0, SVG Export Plug-In . SVG Version: 6.00 Build 0)  -->
<!DOCTYPE svg PUBLIC "-//W3C//DTD SVG 1.1//EN" "http://www.w3.org/Graphics/SVG/1.1/DTD/svg11.dtd">
<svg version="1.1" id="Layer_1" xmlns="http://www.w3.org/2000/svg" xmlns:xlink="http://www.w3.org/1999/xlink" x="0px" y="0px"
	 width="90px" height="98px" viewBox="0 0 90 98" enable-background="new 0 0 90 98" xml:space="preserve">
<g>
	<g>
		<path fill="#FFFFFF" d="M11.292,51.66c4.622-1.188,8.448-6.598,13.463-6.994c3.168-0.264,9.24,5.544,11.749,7.391
			c2.376,1.716,2.506,2.112,4.882,0.264c1.979-1.451,3.301-3.563,5.677-2.375c2.112,0.924,2.375,3.167,5.014,2.902
			c3.301-0.263,3.564-3.826,5.147-6.07c3.168,2.508,2.905,6.07,7.523,2.903c2.509-1.716,3.696-3.43,6.073-0.792
			c1.055,1.057,1.717,2.377,2.771,3.301c0.791,0.792,2.508,1.451,2.904,2.242c1.584,2.772-0.661,8.712-1.058,11.617
			c-0.13,1.582,0.528,6.088-0.659,7.275C74.121,74.117,72.537,74,71.479,74c-4.089,0-8.314,0-12.404,0c-7.395,0-14.651,0-21.911,0
			c-5.148,0-10.163,0-15.31,0c-1.98,0-5.676,0.512-6.731-1.467c-0.662-1.32-0.396-4.696-0.662-6.28
			c-0.263-1.847-0.527-3.731-0.922-5.712c-0.529-2.243-0.792-4.507-1.188-6.75L11.292,51.66z"/>
	</g>
	<path fill="#2E5873" d="M0,0v8h6.278l7.919,90h61.77l7.92-90H90V0H0z M11.029,13h13.002l0.773,10H11.982L11.029,13z M12.392,28
		h12.745l0.773,12H13.346L12.392,28z M13.755,44h12.486l0.774,11H14.708L13.755,44z M15.936,70l-0.818-10h12.229l0.663,10H15.936z
		 M43,70h-8.655l-0.663-10H43V70z M43,55h-9.649l-0.774-11H43V55z M43,40H32.246l-0.773-12H43V40z M43,23H31.14l-0.773-10H43V23z
		 M57.404,70H49V60h9.065L57.404,70z M58.398,55H49V44h10.171L58.398,55z M59.503,40H49V28h11.276L59.503,40z M60.609,23H49V13
		h12.382L60.609,23z M74.229,70H63.739L64.4,60h10.646L74.229,70z M75.457,55H64.733l0.773-11H76.41L75.457,55z M76.818,40h-10.98
		l0.773-12h11.161L76.818,40z M78.183,23H66.944l0.772-10h11.419L78.183,23z"/>
</g>
</svg>
