<?xml version="1.0" encoding="utf-8"?>
<!-- Generator: Adobe Illustrator 16.0.0, SVG Export Plug-In . SVG Version: 6.00 Build 0)  -->
<!DOCTYPE svg PUBLIC "-//W3C//DTD SVG 1.1 Basic//EN" "http://www.w3.org/Graphics/SVG/1.1/DTD/svg11-basic.dtd">
<svg version="1.1" baseProfile="basic" id="Layer_1"
	 xmlns="http://www.w3.org/2000/svg" xmlns:xlink="http://www.w3.org/1999/xlink" x="0px" y="0px" width="157.616px"
	 height="491.551px" viewBox="0 0 157.616 491.551" xml:space="preserve">
<g>
	
		<radialGradient id="SVGID_1_" cx="78.8081" cy="331.646" r="126.0557" gradientTransform="matrix(1 0 0 2 0 -331.646)" gradientUnits="userSpaceOnUse">
		<stop  offset="0" style="stop-color:#C1B698"/>
		<stop  offset="0.3166" style="stop-color:#BFB497"/>
		<stop  offset="0.4641" style="stop-color:#BBAD92"/>
		<stop  offset="0.5767" style="stop-color:#B3A28A"/>
		<stop  offset="0.6714" style="stop-color:#A7917E"/>
		<stop  offset="0.7551" style="stop-color:#987D6F"/>
		<stop  offset="0.8308" style="stop-color:#85655D"/>
		<stop  offset="0.9006" style="stop-color:#6F4B48"/>
		<stop  offset="0.964" style="stop-color:#532C2E"/>
		<stop  offset="1" style="stop-color:#3C1418"/>
	</radialGradient>
	<path fill="url(#SVGID_1_)" d="M157.616,479.55c0,6.629-5.373,12-12,12H12c-6.627,0-12-5.371-12-12V183.741c0-6.627,5.373-12,12-12
		h133.616c6.627,0,12,5.373,12,12V479.55z"/>
	<g>
		<path opacity="0.5" fill="#388EA7" d="M109.485,162.51c0,0,20.006-4.975,24.383-10.403c2.271-2.818,1.873-4.523,1.873-4.523
			s3.928-0.645,3.928-3.204c0-2.329,0-4.486,0-7.653s-3.928-3.166-3.928-3.166v-13.123c0,0,3.928-0.304,3.928-3.244
			c0-1.811,0-3.088,0-6.255c0-3.167-3.928-3.619-3.928-3.619V58.648c0,0,3.928-0.904,3.928-3.618s0-7.053,0-11.577
			c0-4.522-3.928-4.976-3.928-4.976v-8.963c0,0,3.928,0,3.928-4.525c0-4.522,0.586-9.867-14.866-15.832
			c-16.695-6.443-36.608-6.434-40.778-6.354c-0.514,0.01-0.791,0.021-0.791,0.021h-2.008c0,0-22.816-0.904-41.569,6.333
			C24.205,15.123,24.789,20.467,24.789,24.99c0,4.525,3.93,4.525,3.93,4.525v8.963c0,0-3.93,0.454-3.93,4.976
			c0,4.524,0,8.862,0,11.577s3.93,3.618,3.93,3.618v48.671c0,0-3.93,0.452-3.93,3.619c0,3.167,0,4.444,0,6.255
			c0,2.94,3.93,3.244,3.93,3.244v13.123c0,0-3.93-0.001-3.93,3.166s0,5.324,0,7.653c0,2.56,3.93,3.204,3.93,3.204
			s-0.397,1.705,1.875,4.523c4.379,5.429,24.379,10.403,24.379,10.403H109.485z"/>
		<path opacity="0.5" fill="#388EA7" d="M111.956,164.989c0,0,22.014-5.652,26.829-11.818c2.499-3.201,2.063-5.139,2.063-5.139
			s4.32-0.732,4.32-3.639c0-2.646,0-5.097,0-8.694s-4.32-3.597-4.32-3.597v-10.276c0,0,4.32-0.347,4.32-3.688
			c0-2.055,0-3.506,0-7.104c0-3.597-4.32-4.11-4.32-4.11V61.704c0,0,4.32-1.028,4.32-4.11c0-3.083,0-9.764,0-14.902
			s-4.32-5.653-4.32-5.653v-6.679c0,0,4.32,0,4.32-5.139c0-5.138,0.646-11.209-16.359-17.984
			c-18.373-7.32-40.287-7.309-44.877-7.218c-0.566,0.011-0.869,0.023-0.869,0.023h-2.211c0,0-25.107-1.027-45.743,7.195
			C18.104,14.011,18.747,20.082,18.747,25.22c0,5.139,4.323,5.139,4.323,5.139v6.679c0,0-4.323,0.516-4.323,5.653s0,11.818,0,14.902
			c0,3.083,4.323,4.11,4.323,4.11v45.219c0,0-4.323,0.513-4.323,4.11c0,3.598,0,5.049,0,7.104c0,3.342,4.323,3.688,4.323,3.688
			v10.276c0,0-4.323-0.001-4.323,3.597s0,6.049,0,8.694c0,2.906,4.323,3.639,4.323,3.639s-0.437,1.938,2.063,5.139
			c4.818,6.166,26.828,11.818,26.828,11.818H111.956z"/>
		<path opacity="0.5" fill="#C5DCB4" d="M51.768,42.691c-1.609,6.31,2.752,6.937,12.038,6.167
			c9.286-0.771,35.081-0.257,42.993,0.771c7.912,1.028,11.697,1.799,9.977-3.083c-1.723-4.881-13.414-13.617-34.395-14.644
			C61.396,30.873,53.145,37.295,51.768,42.691z"/>
		<path opacity="0.5" fill="#C5DCB4" d="M52.8,14.687c-2.424,3.487-3.784,11.818,16.165,11.047
			c19.95-0.771,34.738-0.258,40.929,0.771c6.191,1.028,12.04-5.396,2.753-10.792C103.36,10.318,62.086,1.326,52.8,14.687z"/>
		<path opacity="0.5" fill="#388EA7" d="M53.487,108.464c-0.751,3.941,1.445,4.525,1.376,8.479
			c-0.041,2.286-2.409,2.131-2.409,6.166c0,1.041,1.923,5.786,2.052,8.601c0.152,3.389-3.084,3.988-3.428,7.586
			c-0.564,5.898,1.376,10.791,11.694,11.306c10.318,0.514,46.091,0.769,49.874-1.543c3.783-2.313,5.845-8.735,3.438-13.104
			c-2.406-4.367-3.785-7.964-1.033-11.304c2.754-3.342-1.03-5.396,0-7.965c1.033-2.569,3.096-6.424,0.346-8.736
			c-2.751-2.313-26.826-3.339-38.866-3.083C64.492,105.125,54.174,104.868,53.487,108.464z"/>
		<path opacity="0.25" fill="#05556E" d="M30.441,152.142c0.157,2.115,8.257,5.14,13.071,7.194c4.815,2.056,10.319,3.34,16.166,3.34
			s44.37-0.257,50.561-0.515c6.19-0.256,12.617-3.08,16.055-5.136c3.438-2.057-1.861-8.59-39.008-10.645
			C50.581,144.351,30.097,147.517,30.441,152.142z"/>
		<path opacity="0.5" fill="#05556E" d="M122.964,8.777c0,0,0.688,1.542-0.343,3.083c-1.032,1.542-2.063,1.799-2.063,1.799
			s7.615,0.502,10.758,2.155c9.287,4.881,7.814,9.92,7.814,9.92S146.354,16.484,122.964,8.777z"/>
		<path opacity="0.5" fill="#05556E" d="M122.621,34.47c0,0,1.374,1.542,0.687,2.569c-0.687,1.027-0.687,1.027-0.687,1.027
			s3.589-0.078,8.255,1.799c2.352,0.946,7.668,6.064,6.191,4.111C137.067,43.976,136.423,37.52,122.621,34.47z"/>
		<path opacity="0.25" fill="#F2E7EF" d="M28.034,13.916c-5.195,3.367-5.501,7.194-5.846,10.277s4.008,0.449,7.321-1.118
			c8.5-4.021,18.132-4.277,20.195-9.416C51.768,8.52,36.802,8.233,28.034,13.916z"/>
		<path opacity="0.25" fill="#F2E7EF" d="M23.221,41.041c-2.83,2.691-2.064,12.604-1.032,15.605
			c1.032,3.001,2.064,2.401,5.158,0.601c3.097-1.801,15.137-5.402,18.574-6.002C49.359,50.644,38.354,26.635,23.221,41.041z"/>
		<path opacity="0.25" fill="#F2E7EF" d="M22.532,110.521c-2.309,2.369-3.443,8.735,3.094,6.68
			c6.535-2.056,20.979-11.047,14.444-10.79C33.537,106.667,25.28,107.695,22.532,110.521z"/>
		<path opacity="0.25" fill="#F2E7EF" d="M22.874,143.907c-3.329-0.634-1.304-7.08,2.752-8.869
			c4.055-1.788,12.039-3.975,7.224-0.305C28.034,138.402,27.691,144.824,22.874,143.907z"/>
		<path opacity="0.5" fill="#05556E" d="M85.474,156.767c-17.874-0.494-48.152,6.167-4.47,6.167
			C119.464,162.934,113.333,157.539,85.474,156.767z"/>
		<path opacity="0.5" fill="#FFFFFF" d="M78.25,2.097c19.951-0.256,30.078,1.867,25.95,1.867c-2.25,0-12.082,0.07-23.198-0.069
			C71.718,3.779,62.87,4.409,60.366,4.409C54.86,4.409,59.287,2.341,78.25,2.097z"/>
		<path opacity="0.5" fill="#05556E" d="M136.869,45.507l1.651,1.957c0,0,0.952,4.22,0.265,7.561
			c-0.687,3.34-3.438,5.137-3.438,5.137v46.505c0,0,3.783,2.313,3.783,7.193c0,4.882-2.063,7.194-2.063,7.194v12.171
			c0,0,2.589,1.085,3.275,3.911c0.688,2.827-0.873,7.431-0.873,7.431l-0.523-1.303c0,0,0-4.042-1.242-7.087
			c-0.686-1.674-3.047-2.791-3.047-2.791v-13.103c0,0,2.406-2.827,2.064-6.938c-0.344-4.11-3.783-6.68-3.783-6.68l-0.686-47.788
			c0,0,3.31-1.271,4.814-5.139C138.569,49.871,136.869,45.507,136.869,45.507z"/>
		<path opacity="0.5" fill="#FFFFFF" d="M138.649,31.398c0-7.231-25.38-13.095-56.691-13.095c-31.308,0-56.689,5.863-56.689,13.095
			c0,0,3.946-12.29,57.391-12.29C136.107,19.108,138.649,31.398,138.649,31.398z"/>
		<path opacity="0.5" fill="#FFFFFF" d="M25.269,40.991c0-6.899,25.382-12.493,56.689-12.493c31.312,0,56.691,5.593,56.691,12.493
			c0,0-9.975-11.307-57.051-11.307C34.523,29.684,25.269,40.991,25.269,40.991z"/>
		<path opacity="0.5" fill="#FFFFFF" d="M25.269,63.105c0-6.606,25.382-11.961,56.689-11.961c31.312,0,56.691,5.354,56.691,11.961
			c0,0-10.861-10.417-56.521-10.417C36.469,52.688,25.269,63.105,25.269,63.105z"/>
		<path opacity="0.5" fill="#FFFFFF" d="M25.269,110.471c0-4.242,25.382-7.681,56.689-7.681c31.312,0,56.691,3.439,56.691,7.681
			c0,0-9.797-6.623-56.874-6.623C34.7,103.848,25.269,110.471,25.269,110.471z"/>
		<path opacity="0.5" fill="#FFFFFF" d="M25.269,122.313c0-4.029,25.382-7.295,56.689-7.295c31.312,0,56.691,3.266,56.691,7.295
			c0,0-7.346-5.245-56.696-5.245C32.604,117.068,25.269,122.313,25.269,122.313z"/>
		<path opacity="0.5" fill="#FFFFFF" d="M25.269,136.331c0-2.915,25.382-5.278,56.689-5.278c31.312,0,56.691,2.363,56.691,5.278
			c0,0-16.521-3.003-56.696-3.003C41.78,133.328,25.269,136.331,25.269,136.331z"/>
		<path opacity="0.5" fill="#FFFFFF" d="M138.649,146.219c0-2.422-25.38-4.385-56.691-4.385c-31.308,0-56.689,1.963-56.689,4.385
			c0,0,1.646-3.505,56.685-3.505C136.991,142.714,138.649,146.219,138.649,146.219z"/>
		<path opacity="0.5" fill="#C5DCB4" d="M62.086,57.594c-9.847,0.951-10.319,4.624-10.319,9.505c0,4.882,14.788-1.028,30.266-3.854
			C97.511,60.419,91.321,54.767,62.086,57.594z"/>
		<path opacity="0.5" fill="#388EA7" d="M93.728,100.758c10.686,0.072,18.572,2.055,19.949-2.313
			c1.375-4.368,4.128-9.249-13.07-6.424c-17.196,2.828-30.61,5.653-37.145,6.424C56.925,99.215,55.896,100.5,93.728,100.758z"/>
		<path fill="#FFFFFF" d="M28.034,13.916c-5.393,2.803-7.566,11.047-2.407,7.708C30.787,18.283,36.274,9.634,28.034,13.916z"/>
		<path fill="#FFFFFF" d="M22.743,41.61c-2.571,2.749-2.275,18.552,1.163,10.845C27.346,44.747,28.803,35.131,22.743,41.61z"/>
		<path fill="#FFFFFF" d="M31.32,37.111c-3.121,1.153-1.674,4.411,0.841,2.498C35.669,36.94,34.607,35.899,31.32,37.111z"/>
		<path fill="#FFFFFF" d="M23.902,109.489c-2.731,0.934-2.402,4.629,3.1,1.802C32.505,108.464,35.938,105.373,23.902,109.489z"/>
		<polygon opacity="0.25" fill="#F2E7EF" points="31.979,61.704 31.979,104.097 36.473,102.813 36.473,60.419 		"/>
		<polygon fill="#FFFFFF" points="32.476,63.185 32.476,95.104 33.882,94.137 33.882,62.218 		"/>
	</g>
	<path fill="#9A857A" d="M125.435,171.99c0,0,1.313-6.423-10.136-7.965c-11.449-1.541-24.204-1.541-24.204-1.541H72.822
		c0,0-12.755,0-24.204,1.541c-11.447,1.542-10.137,7.965-10.137,7.965"/>
	<linearGradient id="SVGID_2_" gradientUnits="userSpaceOnUse" x1="82.229" y1="338.2349" x2="82.229" y2="241.4429">
		<stop  offset="0" style="stop-color:#C1B698"/>
		<stop  offset="0.3938" style="stop-color:#BFB597"/>
		<stop  offset="0.5356" style="stop-color:#BBAE93"/>
		<stop  offset="0.6367" style="stop-color:#B4A48B"/>
		<stop  offset="0.7185" style="stop-color:#A99481"/>
		<stop  offset="0.7886" style="stop-color:#9B8172"/>
		<stop  offset="0.8506" style="stop-color:#896B61"/>
		<stop  offset="0.9067" style="stop-color:#75524E"/>
		<stop  offset="0.9565" style="stop-color:#5C3637"/>
		<stop  offset="1" style="stop-color:#3C1418"/>
	</linearGradient>
	<path fill="url(#SVGID_2_)" d="M130.114,326.235c0,6.627-5.373,12-12,12H46.343c-6.628,0-12-5.373-12-12v-72.793
		c0-6.627,5.372-12,12-12h71.771c6.627,0,12,5.373,12,12V326.235z"/>
	<g>
		<ellipse fill="#C2B59B" cx="61.665" cy="264.099" rx="10.232" ry="7.643"/>
		<ellipse fill="#C2B59B" cx="102.252" cy="264.099" rx="10.231" ry="7.643"/>
		<ellipse fill="#05556E" cx="102.289" cy="274.599" rx="3.653" ry="1.253"/>
		<path fill="#C2B59B" d="M106.304,273.774c0,0-0.557,1.358-3.911,1.358c-3.353,0-4.191-1.358-4.191-1.358v-15.969
			c0,0,0.839,0.834,4.053,0.834c3.212,0,4.05-0.834,4.05-0.834V273.774z"/>
		<ellipse fill="#05556E" cx="61.703" cy="274.599" rx="3.655" ry="1.253"/>
		<path fill="#C2B59B" d="M65.717,273.774c0,0-0.558,1.358-3.912,1.358c-3.353,0-4.191-1.358-4.191-1.358v-15.969
			c0,0,0.839,0.834,4.053,0.834c3.212,0,4.05-0.834,4.05-0.834V273.774z"/>
		<g>
			<path fill="#EB2227" d="M66.486,256.601c0,0.515-0.808,0.93-1.802,0.93c0,0-0.445,0.756-3.196,0.756
				c-2.75,0-2.839-0.756-2.839-0.756c-0.996,0-1.803-0.415-1.803-0.93l1.502-4.724c0-0.515,0.808-0.93,1.805-0.93h3.029
				c0.996,0,1.801,0.415,1.801,0.93L66.486,256.601z"/>
			<path fill="#BE202E" d="M58.648,257.531c0,0,0.089,0.756,2.839,0.756c2.751,0,3.196-0.756,3.196-0.756
				c0.994,0,1.802-0.415,1.802-0.93l-1.504-4.724c0-0.515-0.805-0.93-1.801-0.93c0,0,0.199,0.643,0.457,2.426
				c0.257,1.781,0.438,3.121-1.108,3.844C60.613,258.114,58.648,257.531,58.648,257.531z"/>
		</g>
		<path fill="#C2B59B" d="M61.805,275.132c3.354,0,3.912-1.358,3.912-1.358v-15.969c0,0-0.585,0.583-2.663,0.775
			c-0.404,0.037-0.862,0.059-1.387,0.059L61.805,275.132z"/>
		<path opacity="0.75" fill="#FFFFFF" d="M58.435,258.222c-0.612-0.21-0.821-0.417-0.821-0.417v15.969c0,0,0.839,1.358,4.191,1.358
			c3.354,0,3.912-1.358,3.912-1.358s-7.497,1.952-7.497-5.179C58.221,261.465,58.435,258.222,58.435,258.222z"/>
		<g>
			<path fill="#388EA7" d="M107.071,256.601c0,0.515-0.808,0.93-1.801,0.93c0,0-0.445,0.756-3.196,0.756s-2.841-0.756-2.841-0.756
				c-0.994,0-1.801-0.415-1.801-0.93l1.502-4.724c0-0.515,0.809-0.93,1.803-0.93h3.029c0.996,0,1.803,0.415,1.803,0.93
				L107.071,256.601z"/>
			<path fill="#05556E" d="M99.233,257.531c0,0,0.09,0.756,2.841,0.756s3.196-0.756,3.196-0.756c0.993,0,1.801-0.415,1.801-0.93
				l-1.502-4.724c0-0.515-0.807-0.93-1.803-0.93c0,0,0.199,0.643,0.459,2.426c0.258,1.781,0.439,3.121-1.11,3.844
				C101.2,258.114,99.233,257.531,99.233,257.531z"/>
		</g>
		<path fill="#C2B59B" d="M102.393,275.132c3.354,0,3.911-1.358,3.911-1.358v-15.969c0,0-0.586,0.583-2.664,0.775
			c-0.403,0.037-0.862,0.059-1.386,0.059L102.393,275.132z"/>
		<path opacity="0.75" fill="#FFFFFF" d="M99.021,258.222c-0.609-0.21-0.819-0.417-0.819-0.417v15.969c0,0,0.839,1.358,4.191,1.358
			c3.354,0,3.911-1.358,3.911-1.358s-7.496,1.952-7.496-5.179C98.808,261.465,99.021,258.222,99.021,258.222z"/>
	</g>
	<path fill="#FFFFFF" d="M130.286,329.009c0,3.491-3.792,6.322-8.467,6.322H42.276c-4.45,0-8.097-2.563-8.439-5.823
		c-0.018-0.163-0.027-0.331-0.027-0.499c0,0-0.526,7.273,10.163,7.273c20.044,0,63.062,0,75.355,0
		C131.621,336.283,130.286,329.009,130.286,329.009z"/>
</g>
</svg>
